<svg width="0" height="0" class="hidden"><symbol xmlns="http://www.w3.org/2000/svg" viewBox="-76.791 -52.55 665.523 315.3" id="apple_pay"><path d="M93.541 27.1c-6 7.1-15.6 12.7-25.2 11.9-1.2-9.6 3.5-19.8 9-26.1 6-7.3 16.5-12.5 25-12.9 1 10-2.9 19.8-8.8 27.1m8.7 13.8c-13.9-.8-25.8 7.9-32.4 7.9-6.7 0-16.8-7.5-27.8-7.3-14.3.2-27.6 8.3-34.9 21.2-15 25.8-3.9 64 10.6 85 7.1 10.4 15.6 21.8 26.8 21.4 10.6-.4 14.8-6.9 27.6-6.9 12.9 0 16.6 6.9 27.8 6.7 11.6-.2 18.9-10.4 26-20.8 8.1-11.8 11.4-23.3 11.6-23.9-.2-.2-22.4-8.7-22.6-34.3-.2-21.4 17.5-31.6 18.3-32.2-10-14.8-25.6-16.4-31-16.8m80.3-29v155.9h24.2v-53.3h33.5c30.6 0 52.1-21 52.1-51.4s-21.1-51.2-51.3-51.2zm24.2 20.4h27.9c21 0 33 11.2 33 30.9s-12 31-33.1 31h-27.8zm129.8 136.7c15.2 0 29.3-7.7 35.7-19.9h.5v18.7h22.4V90.2c0-22.5-18-37-45.7-37-25.7 0-44.7 14.7-45.4 34.9h21.8c1.8-9.6 10.7-15.9 22.9-15.9 14.8 0 23.1 6.9 23.1 19.6v8.6l-30.2 1.8c-28.1 1.7-43.3 13.2-43.3 33.2 0 20.2 15.7 33.6 38.2 33.6zm6.5-18.5c-12.9 0-21.1-6.2-21.1-15.7 0-9.8 7.9-15.5 23-16.4l26.9-1.7v8.8c0 14.6-12.4 25-28.8 25zm82 59.7c23.6 0 34.7-9 44.4-36.3l42.5-119.2h-24.6l-28.5 92.1h-.5l-28.5-92.1h-25.3l41 113.5-2.2 6.9c-3.7 11.7-9.7 16.2-20.4 16.2-1.9 0-5.6-.2-7.1-.4v18.7c1.4.4 7.4.6 9.2.6z"/></symbol><symbol xmlns="http://www.w3.org/2000/svg" fill="#A1A1A1" viewBox="-65.4 -43.284 566.796 259.702" id="google_pay"><path fill="#5f6368" d="M206.197 84.585v50.75h-16.1V10.005h42.7a38.61 38.61 0 0127.65 10.85 34.88 34.88 0 0111.55 26.45 34.72 34.72 0 01-11.55 26.6q-11.2 10.68-27.65 10.67h-26.6zm0-59.15v43.75h27a21.28 21.28 0 0015.93-6.48 21.36 21.36 0 000-30.63 21 21 0 00-15.93-6.65h-27zm102.9 21.35q17.85 0 28.18 9.54 10.33 9.54 10.32 26.16v52.85h-15.4v-11.9h-.7q-10 14.7-26.6 14.7-14.17 0-23.71-8.4a26.82 26.82 0 01-9.54-21q0-13.31 10.06-21.17 10.06-7.86 26.86-7.88 14.34 0 23.62 5.25v-3.68a18.33 18.33 0 00-6.65-14.25 22.8 22.8 0 00-15.54-5.87q-13.49 0-21.35 11.38l-14.18-8.93q11.7-16.8 34.63-16.8zm-20.83 62.3a12.86 12.86 0 005.34 10.5 19.64 19.64 0 0012.51 4.2 25.67 25.67 0 0018.11-7.52q8-7.53 8-17.67-7.53-6-21-6-9.81 0-16.36 4.73c-4.41 3.2-6.6 7.09-6.6 11.76zm147.73-59.5l-53.76 123.55h-16.62l19.95-43.23-35.35-80.32h17.5l25.55 61.6h.35l24.85-61.6z"/><path fill="#4285f4" d="M141.137 73.645a85.79 85.79 0 00-1.24-14.64h-67.9v27.73h38.89a33.33 33.33 0 01-14.38 21.88v18h23.21c13.59-12.53 21.42-31.06 21.42-52.97z"/><path fill="#34a853" d="M71.997 144.005c19.43 0 35.79-6.38 47.72-17.38l-23.21-18c-6.46 4.38-14.78 6.88-24.51 6.88-18.78 0-34.72-12.66-40.42-29.72H7.667v18.55a72 72 0 0064.33 39.67z"/><path fill="#fbbc04" d="M31.577 85.785a43.14 43.14 0 010-27.56v-18.55H7.667a72 72 0 000 64.66z"/><path fill="#ea4335" d="M71.997 28.505a39.09 39.09 0 0127.62 10.8l20.55-20.55A69.18 69.18 0 0071.997.005a72 72 0 00-64.33 39.67l23.91 18.55c5.7-17.06 21.64-29.72 40.42-29.72z"/></symbol><symbol fill="none" xmlns="http://www.w3.org/2000/svg" viewBox="0 0 50 41" id="master"><path d="M12.364 35.77v-2.038c0-.78-.477-1.29-1.295-1.29-.408 0-.851.136-1.158.577-.238-.373-.579-.577-1.09-.577-.34 0-.68.102-.953.475v-.407h-.715v3.26h.715v-1.8c0-.577.306-.849.783-.849.477 0 .715.306.715.85v1.8h.716v-1.8c0-.578.34-.85.783-.85.477 0 .715.306.715.85v1.8h.784zm10.592-3.26h-1.158v-.985h-.715v.985h-.647v.645h.647v1.495c0 .747.307 1.189 1.124 1.189.307 0 .647-.102.886-.238l-.205-.612c-.204.136-.443.17-.613.17-.34 0-.477-.204-.477-.543v-1.461h1.158v-.645zm6.063-.068a.96.96 0 00-.851.475v-.407h-.716v3.26h.716v-1.834c0-.543.238-.849.68-.849.137 0 .307.034.444.068l.204-.68c-.136-.033-.34-.033-.477-.033zm-9.162.34c-.34-.238-.817-.34-1.328-.34-.818 0-1.363.407-1.363 1.053 0 .543.409.849 1.124.95l.34.035c.375.068.58.17.58.34 0 .237-.273.407-.75.407-.476 0-.851-.17-1.09-.34l-.34.544c.375.272.886.408 1.396.408.954 0 1.5-.442 1.5-1.053 0-.578-.444-.884-1.125-.986l-.34-.033c-.307-.035-.545-.102-.545-.306 0-.238.238-.374.613-.374.408 0 .817.17 1.021.272l.307-.578zm19.005-.34a.96.96 0 00-.851.475v-.407h-.715v3.26h.715v-1.834c0-.543.238-.849.681-.849.136 0 .307.034.443.068l.204-.68c-.136-.033-.34-.033-.477-.033zm-9.128 1.698c0 .985.681 1.699 1.737 1.699.477 0 .818-.102 1.158-.374l-.34-.578c-.273.204-.545.306-.852.306-.579 0-.987-.407-.987-1.053 0-.611.408-1.019.987-1.053.307 0 .58.102.852.306l.34-.578c-.34-.271-.68-.373-1.158-.373-1.055 0-1.737.713-1.737 1.698zm6.608 0v-1.63h-.715v.407c-.239-.306-.58-.475-1.022-.475-.92 0-1.635.713-1.635 1.698s.715 1.699 1.635 1.699c.477 0 .817-.17 1.022-.476v.408h.715v-1.63zm-2.623 0c0-.577.375-1.053.988-1.053.58 0 .988.442.988 1.053 0 .578-.409 1.053-.988 1.053-.613-.034-.988-.475-.988-1.053zm-8.549-1.698c-.953 0-1.635.68-1.635 1.698 0 1.02.682 1.699 1.67 1.699.476 0 .953-.136 1.328-.442l-.34-.51a1.63 1.63 0 01-.955.34c-.442 0-.885-.204-.987-.781h2.418v-.272c.034-1.053-.58-1.732-1.499-1.732zm0 .611c.443 0 .75.272.818.781h-1.703c.068-.441.374-.78.885-.78zm17.745 1.087v-2.92H42.2v1.698c-.238-.306-.579-.475-1.022-.475-.92 0-1.634.713-1.634 1.698s.715 1.699 1.635 1.699c.476 0 .817-.17 1.021-.476v.408h.715v-1.63zm-2.622 0c0-.577.375-1.053.988-1.053.579 0 .987.442.987 1.053 0 .578-.408 1.053-.987 1.053-.613-.034-.988-.475-.988-1.053zm-23.91 0v-1.63h-.715v.407c-.239-.306-.58-.475-1.022-.475-.92 0-1.635.713-1.635 1.698s.715 1.699 1.635 1.699c.477 0 .817-.17 1.022-.476v.408h.715v-1.63zm-2.657 0c0-.577.375-1.053.988-1.053.579 0 .988.442.988 1.053 0 .578-.41 1.053-.988 1.053-.613-.034-.988-.475-.988-1.053z" fill="#000"/><path d="M30.347 7.745H19.618v19.227h10.73V7.745z" fill="#FF5F00"/><path d="M20.3 17.358c0-3.907 1.839-7.371 4.666-9.613a12.207 12.207 0 00-7.561-2.616c-6.778 0-12.262 5.469-12.262 12.229 0 6.76 5.484 12.23 12.262 12.23 2.86 0 5.483-.986 7.561-2.617a12.199 12.199 0 01-4.666-9.613z" fill="#EB001B"/><path d="M44.823 17.358c0 6.76-5.484 12.23-12.262 12.23-2.86 0-5.483-.986-7.561-2.617a12.148 12.148 0 004.666-9.613c0-3.907-1.839-7.371-4.666-9.613a12.207 12.207 0 017.561-2.616c6.778 0 12.262 5.503 12.262 12.229z" fill="#F79E1B"/></symbol><symbol xmlns="http://www.w3.org/2000/svg" viewBox="0 0 141.732 141.732" id="visa"><path d="M62.935 89.571h-9.733l6.083-37.384h9.734zM45.014 52.187L35.735 77.9l-1.098-5.537.001.002-3.275-16.812s-.396-3.366-4.617-3.366h-15.34l-.18.633s4.691.976 10.181 4.273l8.456 32.479h10.141l15.485-37.385H45.014zm76.555 37.384h8.937l-7.792-37.385h-7.824c-3.613 0-4.493 2.786-4.493 2.786L95.881 89.571h10.146l2.029-5.553h12.373l1.14 5.553zm-10.71-13.224l5.114-13.99 2.877 13.99h-7.991zm-14.217-15.17l1.389-8.028s-4.286-1.63-8.754-1.63c-4.83 0-16.3 2.111-16.3 12.376 0 9.658 13.462 9.778 13.462 14.851s-12.075 4.164-16.06.965l-1.447 8.394s4.346 2.111 10.986 2.111c6.642 0 16.662-3.439 16.662-12.799 0-9.72-13.583-10.625-13.583-14.851.001-4.227 9.48-3.684 13.645-1.389z" fill="#2566af"/><path d="M34.638 72.364l-3.275-16.812s-.396-3.366-4.617-3.366h-15.34l-.18.633s7.373 1.528 14.445 7.253c6.762 5.472 8.967 12.292 8.967 12.292z" fill="#e6a540"/><path fill="none" d="M0 0h141.732v141.732H0z"/></symbol><symbol xmlns="http://www.w3.org/2000/svg" viewBox="-18.538 -7.545 160.662 45.267" id="payPal"><path d="M46.211 6.749h-6.839a.95.95 0 00-.939.802l-2.766 17.537a.57.57 0 00.564.658h3.265a.95.95 0 00.939-.803l.746-4.73a.95.95 0 01.938-.803h2.165c4.505 0 7.105-2.18 7.784-6.5.306-1.89.013-3.375-.872-4.415-.972-1.142-2.696-1.746-4.985-1.746zM47 13.154c-.374 2.454-2.249 2.454-4.062 2.454h-1.032l.724-4.583a.57.57 0 01.563-.481h.473c1.235 0 2.4 0 3.002.704.359.42.469 1.044.332 1.906zm19.654-.079h-3.275a.57.57 0 00-.563.481l-.145.916-.229-.332c-.709-1.029-2.29-1.373-3.868-1.373-3.619 0-6.71 2.741-7.312 6.586-.313 1.918.132 3.752 1.22 5.031.998 1.176 2.426 1.666 4.125 1.666 2.916 0 4.533-1.875 4.533-1.875l-.146.91a.57.57 0 00.562.66h2.95a.95.95 0 00.939-.803l1.77-11.209a.568.568 0 00-.561-.658zm-4.565 6.374c-.316 1.871-1.801 3.127-3.695 3.127-.951 0-1.711-.305-2.199-.883-.484-.574-.668-1.391-.514-2.301.295-1.855 1.805-3.152 3.67-3.152.93 0 1.686.309 2.184.892.499.589.697 1.411.554 2.317zm22.007-6.374h-3.291a.954.954 0 00-.787.417l-4.539 6.686-1.924-6.425a.953.953 0 00-.912-.678h-3.234a.57.57 0 00-.541.754l3.625 10.638-3.408 4.811a.57.57 0 00.465.9h3.287a.949.949 0 00.781-.408l10.946-15.8a.57.57 0 00-.468-.895z" fill="#253B80"/><path d="M94.992 6.749h-6.84a.95.95 0 00-.938.802l-2.766 17.537a.569.569 0 00.562.658h3.51a.665.665 0 00.656-.562l.785-4.971a.95.95 0 01.938-.803h2.164c4.506 0 7.105-2.18 7.785-6.5.307-1.89.012-3.375-.873-4.415-.971-1.142-2.694-1.746-4.983-1.746zm.789 6.405c-.373 2.454-2.248 2.454-4.062 2.454h-1.031l.725-4.583a.568.568 0 01.562-.481h.473c1.234 0 2.4 0 3.002.704.359.42.468 1.044.331 1.906zm19.653-.079h-3.273a.567.567 0 00-.562.481l-.145.916-.23-.332c-.709-1.029-2.289-1.373-3.867-1.373-3.619 0-6.709 2.741-7.311 6.586-.312 1.918.131 3.752 1.219 5.031 1 1.176 2.426 1.666 4.125 1.666 2.916 0 4.533-1.875 4.533-1.875l-.146.91a.57.57 0 00.564.66h2.949a.95.95 0 00.938-.803l1.771-11.209a.571.571 0 00-.565-.658zm-4.565 6.374c-.314 1.871-1.801 3.127-3.695 3.127-.949 0-1.711-.305-2.199-.883-.484-.574-.666-1.391-.514-2.301.297-1.855 1.805-3.152 3.67-3.152.93 0 1.686.309 2.184.892.501.589.699 1.411.554 2.317zm8.426-12.219l-2.807 17.858a.569.569 0 00.562.658h2.822c.469 0 .867-.34.939-.803l2.768-17.536a.57.57 0 00-.562-.659h-3.16a.571.571 0 00-.562.482z" fill="#179BD7"/><path d="M7.266 29.154l.523-3.322-1.165-.027H1.061L4.927 1.292a.316.316 0 01.314-.268h9.38c3.114 0 5.263.648 6.385 1.927.526.6.861 1.227 1.023 1.917.17.724.173 1.589.007 2.644l-.012.077v.676l.526.298a3.69 3.69 0 011.065.812c.45.513.741 1.165.864 1.938.127.795.085 1.741-.123 2.812-.24 1.232-.628 2.305-1.152 3.183a6.547 6.547 0 01-1.825 2c-.696.494-1.523.869-2.458 1.109-.906.236-1.939.355-3.072.355h-.73c-.522 0-1.029.188-1.427.525a2.21 2.21 0 00-.744 1.328l-.055.299-.924 5.855-.042.215c-.011.068-.03.102-.058.125a.155.155 0 01-.096.035z" fill="#253B80"/><path d="M23.048 7.667c-.028.179-.06.362-.096.55-1.237 6.351-5.469 8.545-10.874 8.545H9.326c-.661 0-1.218.48-1.321 1.132L6.596 26.83l-.399 2.533a.704.704 0 00.695.814h4.881c.578 0 1.069-.42 1.16-.99l.048-.248.919-5.832.059-.32c.09-.572.582-.992 1.16-.992h.73c4.729 0 8.431-1.92 9.513-7.476.452-2.321.218-4.259-.978-5.622a4.667 4.667 0 00-1.336-1.03z" fill="#179BD7"/><path d="M21.754 7.151a9.757 9.757 0 00-1.203-.267 15.284 15.284 0 00-2.426-.177h-7.352a1.172 1.172 0 00-1.159.992L8.05 17.605l-.045.289a1.336 1.336 0 011.321-1.132h2.752c5.405 0 9.637-2.195 10.874-8.545.037-.188.068-.371.096-.55a6.594 6.594 0 00-1.017-.429 9.045 9.045 0 00-.277-.087z" fill="#222D65"/><path d="M9.614 7.699a1.169 1.169 0 011.159-.991h7.352c.871 0 1.684.057 2.426.177a9.757 9.757 0 011.481.353c.365.121.704.264 1.017.429.368-2.347-.003-3.945-1.272-5.392C20.378.682 17.853 0 14.622 0h-9.38c-.66 0-1.223.48-1.325 1.133L.01 25.898a.806.806 0 00.795.932h5.791l1.454-9.225z" fill="#253B80"/></symbol></svg>