<svg aria-hidden="true" style="position:absolute;width:0;height:0" xmlns="http://www.w3.org/2000/svg" overflow="hidden"><defs><symbol id="icon-mobile-menu" viewBox="0 0 53 32"><path fill="var(--color1, #4141e4)" d="M0 0h52.437v3.429H0V0zm0 14.117h52.437v3.429H0v-3.429zm52.437 14.119H0v3.429h52.437v-3.429z"/></symbol><symbol id="icon-close-menu" viewBox="0 0 32 32"><path d="M23.959 22.043l-6.23-6.193 6.089-6.089c.531-.531.531-1.385 0-1.915s-1.385-.531-1.915 0l-6.052 6.09-5.949-5.949c-.531-.531-1.385-.531-1.915 0s-.53 1.385 0 1.915l5.939 5.939-6.071 6.071c-.53.53-.531 1.385 0 1.915s1.385.53 1.915 0l6.071-6.071 6.202 6.202c.531.531 1.385.53 1.915 0s.526-1.39 0-1.916z"/></symbol><symbol id="icon-menu" viewBox="0 0 66 32"><path d="M62.002 4H2.001a2 2 0 010-4h60.001a2 2 0 010 4zM2.001 14h60.001a2 2 0 010 4H2.001a2 2 0 010-4zm0 14h40.001a2 2 0 010 4H2.001a2 2 0 010-4z"/></symbol><symbol id="facebook" viewBox="0 0 35 32"><path fill="var(--color1, #fff)" opacity=".9" d="M31.285 16c0-7.36-6.209-13.333-13.86-13.333S3.565 8.64 3.565 16c0 6.453 4.768 11.827 11.088 13.067V20h-2.772v-4h2.772v-3.333c0-2.573 2.176-4.667 4.851-4.667h3.465v4h-2.772c-.762 0-1.386.6-1.386 1.333V16h4.158v4h-4.158v9.267C25.81 28.6 31.285 22.92 31.285 16z"/></symbol><symbol id="instagram" viewBox="0 0 34 32"><path fill="var(--color1, #fff)" opacity=".9" d="M21.889 3H11.754C7.09 3 3.308 6.638 3.308 11.125v9.75C3.308 25.362 7.09 29 11.754 29h10.135c4.664 0 8.446-3.638 8.446-8.125v-9.75C30.335 6.638 26.553 3 21.889 3zM27.8 20.875c0 3.136-2.652 5.688-5.912 5.688H11.753c-3.26 0-5.912-2.551-5.912-5.688v-9.75c0-3.136 2.652-5.688 5.912-5.688h10.135c3.26 0 5.912 2.551 5.912 5.688v9.75z"/><path fill="var(--color1, #fff)" opacity=".9" d="M16.821 9.5c-3.731 0-6.756 2.91-6.756 6.5s3.025 6.5 6.756 6.5c3.731 0 6.756-2.91 6.756-6.5s-3.025-6.5-6.756-6.5zm0 10.563c-2.328 0-4.223-1.823-4.223-4.063 0-2.241 1.895-4.063 4.223-4.063s4.223 1.822 4.223 4.063c0 2.239-1.895 4.063-4.223 4.063zm7.263-10.184c.497 0 .9-.388.9-.866s-.403-.866-.9-.866-.9.388-.9.866.403.866.9.866z"/></symbol><symbol id="linkedin" viewBox="0 0 32 32"><path fill="var(--color1, #fff)" opacity=".1" d="M4.267 0h23.467a4.267 4.267 0 014.267 4.267v23.467a4.267 4.267 0 01-4.267 4.267H4.267A4.267 4.267 0 010 27.734V4.267A4.267 4.267 0 014.267 0z"/><path fill="var(--color1, #fff)" d="M11.787 23.467h-3.2V12.8h3.2v10.667zm11.733 0h-3.2v-5.698c0-1.485-.529-2.224-1.578-2.224-.831 0-1.358.414-1.622 1.243v6.679h-3.2s.043-9.6 0-10.667h2.526l.195 2.133h.066c.656-1.067 1.705-1.79 3.142-1.79 1.093 0 1.978.304 2.653 1.068.679.765 1.018 1.791 1.018 3.232v6.023zM10.187 11.733c.913 0 1.653-.716 1.653-1.6s-.74-1.6-1.653-1.6-1.653.716-1.653 1.6.74 1.6 1.653 1.6z"/></symbol><symbol id="telegram" viewBox="0 0 34 32"><path fill="var(--color1, #fff)" opacity=".9" d="M30.934 5.617C30.596 5.22 30.09 5 29.509 5c-.316 0-.651.064-.994.19L5.104 13.788c-1.242.456-1.41 1.141-1.399 1.508s.218 1.042 1.486 1.429l.023.007 3.283.904 15.99-7.859a.825.825 0 011.09.34.756.756 0 01-.132.888l.001.001-8.891 9.088-.254.989 7.574 5.868.012.009c.484.361 1.013.552 1.529.552 1.009 0 1.812-.718 2.046-1.83L31.298 7.46c.154-.731.025-1.386-.364-1.843z"/><path fill="var(--color1, #fff)" opacity=".9" d="M15.032 19.522a.77.77 0 01.196-.348l5.834-5.963-10.825 5.321 2.458 6.763c.14.385.348.713.606.97l1.73-6.743zm-.222 7.368c.584-.005 1.158-.242 1.661-.687l1.799-1.593-2.398-1.857-1.062 4.138z"/></symbol><symbol id="youtube" viewBox="0 0 34 32"><path fill="var(--color1, #fff)" d="M32.248 7.12c-.902-1.544-1.881-1.828-3.875-1.936-1.992-.13-7-.184-11.338-.184-4.347 0-9.357.054-11.347.182-1.99.11-2.971.392-3.881 1.938C.878 8.662.4 11.318.4 15.994v.016c0 4.656.478 7.332 1.407 8.858.911 1.544 1.89 1.824 3.879 1.954 1.992.112 7.002.178 11.349.178 4.339 0 9.347-.066 11.34-.176 1.994-.13 2.973-.41 3.875-1.954.938-1.526 1.412-4.202 1.412-8.858v-.016c0-4.678-.474-7.334-1.414-8.876z"/><path fill="var(--color12, #010101)" d="M12.873 22V10l10.395 6-10.395 6z"/></symbol><symbol id="ukrainian-people-award" viewBox="0 0 38 32"><path fill="none" opacity=".3" stroke="var(--color1, #fff)" stroke-width=".5" d="M23.784 26c-.582.493-1.123.957-1.674 1.41-.212.174-.178.379-.128.597l.593 2.598c.079.346.158.693.223 1.042.018.097.025.234-.029.298-.106.125-.229.009-.328-.052a701.755 701.755 0 01-2.992-1.823c-.618-.376-.528-.358-1.102-.022-.972.569-1.943 1.143-2.916 1.709-.136.079-.289.127-.515.225.024-.227.025-.37.057-.509.274-1.143.543-2.287.838-3.424.09-.346.051-.589-.248-.821-.455-.353-.873-.749-1.332-1.15-.177.157-.339.3-.5.445-.429.386-.852.777-1.288 1.155-.186.161-.246.32-.187.575.207.877.385 1.762.571 2.644.036.169.057.341.083.496-.216.13-.326-.014-.444-.087-.747-.464-1.498-.922-2.229-1.41-.273-.183-.472-.173-.74.006-.684.459-1.389.887-2.087 1.326-.124.078-.255.145-.46.262.009-.179 0-.28.02-.372.211-.891.413-1.784.648-2.669.081-.305.041-.514-.214-.715-.289-.229-.548-.496-.854-.777-.13.11-.253.21-.372.315-.307.274-.604.561-.922.821-.207.169-.267.338-.201.604.155.623.274 1.254.406 1.883.016.076.015.156.028.298-.139-.061-.237-.091-.321-.143-.502-.311-1.011-.613-1.496-.948-.248-.17-.43-.154-.666.008-.43.295-.879.563-1.323.839-.11.069-.228.123-.413.223.03-.205.038-.324.066-.438.114-.479.243-.954.348-1.434.141-.642.231-.467-.275-.944-.299-.282-.606-.556-.907-.837-.097-.091-.185-.192-.328-.341.177-.041.289-.078.401-.095.517-.078 1.033-.168 1.552-.218.265-.025.38-.155.468-.379.22-.56.458-1.113.691-1.668.036-.087.083-.168.151-.3.067.104.124.17.156.246.225.544.455 1.086.661 1.636.09.238.222.351.484.341.378-.014.758-.004 1.199-.004l-.558-.591c.196-.057.315-.107.439-.125.817-.118 1.633-.237 2.453-.338.255-.032.381-.156.473-.383.344-.849.703-1.692 1.059-2.537.057-.135.124-.265.221-.471.089.193.15.311.2.433.326.798.661 1.592.968 2.397.111.292.276.404.582.392.449-.017.899-.004 1.416-.004-.139-.134-.254-.224-.341-.336-.077-.1-.122-.224-.181-.337.11-.041.218-.11.331-.119.808-.071 1.616-.131 2.407-.193.035-.039.07-.061.069-.079-.049-.514.21-.962.32-1.457-.003.003.005-.01.017-.015.514-.235.553-.36.276-.865a1.64 1.64 0 00-.041-.071c-.282-.479-.248-.631.239-.889.092-.049.245-.038.349 0 .532.195 1.055.101 1.584-.004a.537.537 0 00.023-.132c-.024-.227-.336-.308-.274-.606.043-.212-.034-.448-.06-.692-.09-.017-.169-.051-.243-.041-.383.044-.601-.17-.728-.482-.098-.238-.146-.495-.225-.773-.31.015-.508-.19-.709-.401-.184-.193-.267-.387-.183-.665.102-.337-.03-.622-.325-.815-.394-.257-.802-.459-1.3-.464-.253-.002-.504-.117-.756-.176-.239-.055-.479-.101-.719-.153-.227-.049-.463-.076-.679-.155-.299-.109-.553-.07-.823.091-.28.168-.604.266-.877.442-.462.298-1.033.463-1.29 1.024-.113.246-.356.331-.597.398-.291.082-.586.15-.878.227-.372.099-.688.271-.894.611a1.014 1.014 0 01-.216.246c-.185.157-.358.181-.509 0-.277-.328-.628-.353-1.007-.328-.124.007-.251-.005-.372.02a2.595 2.595 0 01-1.689-.188c-.241-.118-.494-.163-.69.128-.046.069-.223.092-.327.072-.484-.092-1.546-.866-1.78-1.314-.075-.144-.117-.356-.068-.503.191-.571.398-1.146.992-1.45.14-.071.203-.181.155-.337-.092-.299-.149-.616-.289-.891-.165-.322-.148-.599.041-.885l.728-1.095c.189-.285.383-.568.564-.859.174-.278.383-.483.73-.547.324-.06.377-.138.326-.447a21.567 21.567 0 00-.301-1.485c-.029-.123-.134-.237-.228-.333-.327-.334-.515-.739-.64-1.178-.083-.297-.044-.379.246-.503.113-.048.234-.08.347-.13.153-.068.268-.155.312-.347.03-.128.15-.257.264-.34.383-.28.827-.432 1.289-.524.62-.123 1.24-.294 1.865-.322.834-.037 1.674.038 2.51.08.089.005.207.088.254.168.13.211.313.246.532.217.228-.031.469-.19.667.079.018.024.131-.007.192-.03.165-.063.331-.133.496-.205.287-.126.579-.164.882-.058.105.034.212.06.32.077.236.044.432-.008.571-.226.063-.099.155-.179.281-.321.09.164.15.276.214.387.128.226.238.27.471.164.122-.063.238-.136.348-.218.466-.317.855-.32 1.325-.009.17.113.407.153.801.123a3.914 3.914 0 00-.11-.416c-.087-.23-.192-.452-.286-.68a.572.572 0 01.088-.616c.172-.213.328-.443.52-.636.131-.132.299-.259.473-.311.379-.114.772-.183 1.162-.262.188-.038.386-.036.568-.091.335-.101.451-.3.413-.645-.032-.312.057-.443.379-.434.368.011.654-.101.939-.333.179-.146.445-.193.678-.264.129-.041.272-.038.408-.054.462-.054.78.095.975.502.105.218.232.391.44.521.124.078.219.205.327.31.141.135.14.265.038.436-.167.282-.136.457.065.663.331.338.331.338.478.766.425.034.849.071 1.27-.141.443-.222.968.089 1.026.575.008.067.004.145.036.198.308.498.62.991.929 1.478.281-.143.533-.278.791-.398a.49.49 0 01.276-.055c.413.071.822.16 1.24.246.025-.021.071-.041.083-.074.146-.361.38-.588.804-.579.074 0 .159-.094.226-.158.273-.262.384-.293.604-.017.385.482.962.539 1.434.762.067-.03.102-.035.114-.054.283-.431.599-.538 1.123-.309.323.141.607.261.902-.035.037-.037.131-.036.194-.024.631.117 1.261.242 1.892.362.254.048.455.241.463.501.014.259.002.519-.036.776-.019.114-.133.223-.227.31-.124.114-.201.237-.13.394s.227.13.363.109c.094-.014.185-.051.279-.069.194-.038.281.054.289.278l-.562.218a.853.853 0 00.3.623c.528.476.763 1.087.863 1.769.056.383-.077.608-.458.692s-.754.154-1.134.218c-.223.037-.36.128-.447.357a1.435 1.435 0 01-.38.518c-.084.071-.151.158-.199.256s-.073.206-.075.315c-.01.287-.026.575-.015.862.015.383-.138.671-.477.84-.436.217-.829.464-1.108.886-.091.137-.316.199-.491.266-.212.082-.388.156-.449.419-.057.251-.289.38-.508.508a2.328 2.328 0 00-.508.397 1.045 1.045 0 01-.599.333c-.356.061-.594.231-.813.542-.385.548-.868 1.036-1.459 1.373-.315.179-.688.263-1.042.367-.472.138-.951.254-1.432.381.172.38.212.411.553.39.248-.015.496-.033.741-.063.358-.045.721.037 1.024.232.28.172.561.346.848.505.207.115.309.299.394.505.176.425.268.47.725.365.305-.07.62-.119.875-.302-.093-.493-.073-.702.642-.503l1.033-.629c.053.559.109 1.052.143 1.547.012.179-.141.276-.296.29-.353.031-.713.078-1.06.033-.474-.06-.783.048-.992.493-.09.184-.148.382-.17.586-.021.226-.133.349-.322.429-.126.053-.256.1-.384.149-.398.151-.726.369-.916.776-.083.181-.239.329-.372.508.03.082.069.167.095.258.068.241.224.344.476.375.832.103 1.663.225 2.493.342.095.019.189.043.281.071.022.318-.304.381-.423.657.481.008.938.012 1.391-.044.094-.011.197-.175.248-.287.217-.502.413-1.012.623-1.519.05-.123.11-.243.197-.433.092.198.158.329.215.464.218.516.442 1.031.647 1.553.088.224.198.355.465.379.52.048 1.033.14 1.552.217.105.016.207.041.362.073-.074.109-.112.192-.174.25-.379.358-.753.722-1.15 1.06-.218.186-.276.372-.201.645.155.567.283 1.141.419 1.712.021.088.025.18.048.35-.176-.092-.296-.145-.406-.213-.466-.29-.936-.575-1.392-.883-.202-.136-.358-.134-.559 0-.467.314-.951.605-1.428.903-.114.072-.234.133-.429.242.017-.193.015-.32.041-.442.124-.602.248-1.205.389-1.803.055-.228.011-.383-.171-.537-.437-.372-.857-.765-1.317-1.178l-1.039.959c-.149.138-.091.301-.052.46.207.862.419 1.724.625 2.59.033.14.051.285.093.532-.216-.109-.348-.164-.467-.239-.722-.452-1.447-.9-2.157-1.369-.24-.159-.422-.164-.668 0-.733.485-1.483.944-2.229 1.41-.121.076-.255.131-.47.239.017-.205.015-.319.038-.429.188-.896.364-1.795.579-2.685.088-.367.014-.608-.28-.852-.59-.495-1.147-1.024-1.747-1.564zm.978-.809c.596 0 1.116-.009 1.639.004.265.006.399-.113.485-.349.141-.385.305-.761.458-1.142.129-.323.076-.516-.227-.683-.165-.091-.357-.176-.537-.181-.438-.01-.877.006-1.313.048-.389.036-.607-.184-.518-.563.045-.193.174-.3.338-.388.144-.077.313-.139.417-.255a3.107 3.107 0 011.126-.81c.137-.058.241-.149.23-.306-.019-.284-.063-.563-.265-.806-.065.03-.133.038-.156.075-.201.317-.496.343-.827.287-.081-.014-.165.003-.248-.004-.276-.023-.5.067-.716.246-.657.538-1.612.273-1.939-.521-.076-.186-.108-.342.07-.516s.096-.37-.15-.414c-.169-.029-.372-.035-.523.033-.613.277-1.211.585-1.813.886-.187.093-.263.259-.31.457a6.76 6.76 0 01-.253.862.568.568 0 000 .467c.308.716.616 1.432.902 2.157.108.273.282.36.56.383 1.206.099 2.411.214 3.616.328.17.016.358.009.473.222l-.518.485zM29.46 7.999c-.355 0-.642.012-.927-.003a.982.982 0 00-.685.217c-.534.409-1.086.795-1.629 1.191-.108.079-.212.164-.337.265l.568 1.01 1.233-.856-1.387 7.164h1.416L29.459 8zm-7.48 8.999l.958-4.909h-1.039c-.213.821-.294 1.644-.545 2.527l-.749-2.555h-.945l-.959 4.927h1.057c.165-.827.324-1.634.484-2.442l.076-.007.726 2.459h.937zm3.122-4.103c-.028-.335-.13-.566-.353-.725-.506-.361-1.348-.151-1.563.429-.124.338-.165.712-.207 1.074-.026.223.079.424.267.569.49.375 1.377.167 1.609-.405.12-.298.166-.627.246-.941v0zm-2.301 2.354h1.778l.074-.543h-1.748l-.103.543z"/></symbol><symbol id="ukrainian-it-awards" viewBox="0 0 38 32"><path fill="none" opacity=".3" stroke="var(--color1, #fff)" stroke-width=".64" d="M25.92 11.2h12.16v20.48H25.92V11.2zM25.28.32h-5.12v10.24h5.12V.32zm-12.8 0H.32v10.24h12.16V.32z"/></symbol><symbol id="lang" viewBox="0 0 32 32"><path d="M16 32c8.837 0 16-7.163 16-16S24.837 0 16 0 0 7.163 0 16s7.163 16 16 16zm0-2.286c-7.574 0-13.714-6.14-13.714-13.714S8.427 2.286 16 2.286c7.574 0 13.714 6.141 13.714 13.714S23.574 29.714 16 29.714z"/><path d="M16 31.715c5.035 0 8.857-7.098 8.857-15.714S21.035.287 16 .287c-5.035 0-8.857 7.098-8.857 15.714S10.965 31.715 16 31.715zM16 30c-3.801 0-7.143-6.206-7.143-14S12.199 2 16 2c3.801 0 7.143 6.206 7.143 14S19.801 30 16 30z"/><path d="M15.143 1.143h1.714v29.714h-1.714V1.143z"/><path d="M30.572 15.143v1.714H.858v-1.714h29.714zm-1.143-6.857V10H2V8.286h27.429zm0 13.714v1.714H2V22h27.429z"/></symbol><symbol id="goit_logo" viewBox="0 0 107 32"><path fill="var(--color2)" d="M0 0h46.769l12.308 16-12.308 16H0V0z"/><path fill="var(--color3)" d="M20.592 13.662l.214.174c.048-.029.077-.069.105-.107l.019-.026a660.586 660.586 0 002.26-2.73c.1-.122.097-.177-.018-.276-.09-.079-.182-.156-.275-.233-.797-.657-1.672-1.17-2.663-1.467a9.298 9.298 0 00-2.027-.353c-.898-.061-1.788-.031-2.67.174-3.088.716-5.392 3.292-5.663 6.594a7.87 7.87 0 00.223 2.638c.515 1.96 1.632 3.461 3.408 4.45.967.539 2.014.823 3.116.912a9.089 9.089 0 002.767-.189c1.541-.35 2.903-1.056 4.114-2.067a.336.336 0 00.136-.289c-.004-1.572-.004-3.144-.003-4.717v-1.179a.66.66 0 00-.003-.062c-.003-.046-.006-.092.006-.134.014-.049-.012-.077-.037-.104-.021-.022-.041-.044-.038-.077.006-.054-.03-.062-.072-.062h-6.505l-.038.001c-.026.001-.052.002-.077-.001-.066-.007-.087.026-.082.087a.657.657 0 01.001.077l-.001.038v3.105c0 .114-.008.164.013.186s.071.016.185.016h2.573c.113 0 .162-.006.183.015s.013.073.014.188v.679c0 .308 0 .311-.277.445-.811.391-1.668.503-2.553.391a3.27 3.27 0 01-2.347-1.401c-.375-.527-.58-1.122-.657-1.763-.097-.818.002-1.605.37-2.347.444-.892 1.116-1.533 2.081-1.827.677-.207 1.362-.153 2.041-.003.615.135 1.151.437 1.644.816.181.138.357.281.535.427zm18.205-2.98c-1.516-1.39-3.322-2.052-5.189-2.066-.862.002-1.506.072-2.19.251-1.983.521-3.535 1.638-4.566 3.422-1.059 1.83-1.273 3.793-.682 5.812.662 2.257 2.073 3.9 4.256 4.815 1.677.701 3.414.795 5.166.332 2.036-.537 3.596-1.725 4.619-3.578.862-1.562 1.093-3.238.772-4.987-.288-1.572-1.01-2.919-2.186-4zm-8.372 3.529c.661-1.227 1.716-1.815 2.74-1.838 2.078-.005 3.437 1.173 3.807 2.806.225.984.125 1.94-.356 2.834-.565 1.05-1.447 1.661-2.634 1.797-1.147.133-2.149-.194-2.967-1.025a3.588 3.588 0 01-.975-1.914c-.17-.928-.066-1.827.383-2.66z"/><path fill="var(--color4)" d="M59.077 0h46.769v32H59.077V0z"/><path fill="var(--color3)" d="M87.458 8.617h5.818c.225 0 .2-.026.2.202v3.318c-.002.159-.002.159-.162.159h-3.721c-.221 0-.195-.018-.195.191v10.282c0 .214 0 .214-.218.214h-3.507c-.198 0-.175.013-.175-.176V12.525c0-.23 0-.23-.236-.23h-3.655c-.192 0-.179.018-.179-.174V8.786c0-.028.002-.054 0-.082-.005-.061.018-.092.084-.089.044.002.087 0 .131 0 1.937.002 3.876.002 5.815.002zm-13.611 7.174v-6.98c0-.22-.026-.194.188-.194 1.174-.002 2.349 0 3.522 0 .028 0 .056.003.082 0 .089-.01.116.033.108.115-.003.033 0 .066 0 .099v13.943c0 .237.034.21-.207.21-1.164.002-2.327 0-3.489 0-.033 0-.066-.003-.098 0-.092.013-.113-.035-.107-.115.003-.043 0-.087 0-.132V15.79z"/></symbol><symbol id="goiteens_logo" viewBox="0 0 125 32"><path fill="var(--color1)" d="M47.031 6.417a2 2 0 011.879-2.129L120.659.114a2 2 0 012.11 1.848l1.716 23.067a2 2 0 01-1.872 2.145l-71.918 4.423a2 2 0 01-2.118-1.864L47.031 6.417z"/><path fill="var(--color2)" d="M3.673 30.078a2.013 2.013 0 01-2.124-1.908C1.228 21.94.446 9.909.133 5.151a1.998 1.998 0 011.878-2.126L39.226.816c.66-.039 1.297.25 1.701.774l8.706 11.266c.508.657.557 1.559.123 2.267L42.482 27a1.998 1.998 0 01-1.591.952L3.674 30.079z"/><path fill="var(--color3)" d="M9.721 16.351a6.28 6.28 0 01.337-2.543 6.182 6.182 0 011.255-2.124 6.532 6.532 0 012.04-1.494 7.155 7.155 0 012.637-.678c1.051-.07 1.991.021 2.819.275.847.262 1.641.67 2.344 1.206l-1.859 2.539a5.31 5.31 0 00-1.463-.766 4.262 4.262 0 00-1.615-.175 3.01 3.01 0 00-2.2 1.126c-.569.691-.822 1.509-.758 2.453.068 1.006.442 1.815 1.121 2.427s1.51.884 2.495.818c.804-.055 1.457-.277 1.961-.667l-.106-1.547-2.474.166-.168-2.469 5.731-.383.38 5.568c-1.473 1.363-3.227 2.112-5.264 2.247-1.28.086-2.453-.109-3.521-.584a6.083 6.083 0 01-2.583-2.126c-.655-.942-1.024-2.031-1.108-3.266zm15.27-1.003a6.163 6.163 0 01.346-2.525 6.384 6.384 0 011.263-2.137 6.573 6.573 0 012.043-1.511 7.273 7.273 0 015.322-.36 6.527 6.527 0 012.214 1.217 6.29 6.29 0 011.522 1.946c.393.771.624 1.612.678 2.474a6.202 6.202 0 01-.346 2.526 6.35 6.35 0 01-1.259 2.139 6.543 6.543 0 01-2.038 1.508 6.999 6.999 0 01-2.624.685c-1.256.084-2.416-.124-3.481-.626a6.265 6.265 0 01-3.64-5.336zm3.534-.237c.062.912.416 1.676 1.062 2.29s1.43.89 2.351.828c.932-.062 1.672-.436 2.218-1.121s.788-1.493.724-2.422c-.062-.912-.416-1.676-1.062-2.29s-1.436-.89-2.371-.828c-.92.062-1.654.435-2.2 1.12s-.787 1.493-.722 2.422zm29.326 8.817l-.841-12.325 3.447-.23.844 12.325-3.45.23zm4.586-9.675l-.205-3.001 10.924-.73.205 3-3.741.249.637 9.328-3.447.23-.637-9.328-3.735.252zm10.693 3.878a5.31 5.31 0 01.228-1.976 4.813 4.813 0 01.885-1.652 4.643 4.643 0 011.47-1.161 4.92 4.92 0 011.931-.522c.805-.054 1.532.037 2.183.273a3.99 3.99 0 011.606 1.043c.427.468.764 1.009.994 1.597.249.634.396 1.304.436 1.983.021.304.031.533.03.689l-6.443.43c.169.513.444.893.826 1.141s.838.354 1.369.318c.749-.052 1.438-.43 2.067-1.135l1.972 1.419c-.938 1.346-2.289 2.078-4.055 2.196-1.001.067-1.906-.079-2.714-.44a4.505 4.505 0 01-1.947-1.631c-.492-.729-.772-1.587-.838-2.573zm3.151-1.005l3.343-.224c-.1-.529-.308-.938-.624-1.227s-.703-.418-1.16-.388a1.468 1.468 0 00-1.066.542c-.277.332-.44.764-.492 1.297zm7.786.274a5.33 5.33 0 01.227-1.976 4.822 4.822 0 01.885-1.652 4.65 4.65 0 011.469-1.161 4.92 4.92 0 011.932-.522c.805-.054 1.532.037 2.183.273.613.212 1.165.57 1.607 1.041.427.468.764 1.008.994 1.596.249.636.396 1.306.436 1.986.021.304.031.533.029.689l-6.443.431c.169.512.444.893.826 1.141s.838.354 1.369.319c.752-.051 1.442-.43 2.069-1.136l1.972 1.419c-.938 1.346-2.29 2.078-4.055 2.196-1.002.067-1.906-.079-2.714-.44a4.505 4.505 0 01-1.947-1.631c-.493-.729-.772-1.587-.84-2.573zm3.15-1.006l3.343-.224c-.1-.528-.309-.937-.625-1.227s-.703-.419-1.161-.388c-.206.01-.408.064-.592.157s-.346.225-.474.385c-.277.332-.441.765-.492 1.297zm8.502 5.002l-.649-9.525 3.378-.226.092 1.349c.753-1.098 1.677-1.684 2.773-1.757 1.018-.069 1.84.19 2.465.776.624.586.974 1.423 1.048 2.512l.425 6.233-3.378.225-.354-5.145c-.035-.509-.185-.894-.451-1.154s-.604-.377-1.016-.351c-.425.029-.758.192-1 .489s-.346.697-.312 1.201l.351 5.145-3.373.227zm10.635-1.952l1.129-2.11c1.16.633 2.287.913 3.382.84.567-.039.838-.234.814-.584-.011-.167-.137-.297-.375-.391s-.649-.193-1.224-.3a17.396 17.396 0 01-1.116-.244 6.012 6.012 0 01-.948-.339 3.014 3.014 0 01-.788-.494c-.215-.2-.39-.439-.515-.704a2.6 2.6 0 01-.25-.982c-.069-1.009.233-1.818.907-2.429s1.584-.954 2.73-1.03a7.541 7.541 0 012.124.161 6.916 6.916 0 011.924.719l-1.01 2.2a8.542 8.542 0 00-1.553-.522c-.52-.119-.971-.166-1.353-.14-.255.017-.446.071-.573.164a.393.393 0 00-.177.364c.011.168.135.298.371.391s.652.204 1.248.332c.436.088.809.175 1.117.261.325.093.642.21.948.351.287.123.553.289.788.493.213.197.387.432.514.692.147.298.231.622.249.953.07 1.041-.228 1.863-.896 2.468s-1.604.948-2.809 1.029c-1.72.114-3.272-.268-4.658-1.148z"/></symbol><symbol id="mastercard" viewBox="0 0 35 32"><path fill="var(--color1, #fff)" d="M34.082 25.143c0 1.045-.88 1.892-1.966 1.892H2.786C1.7 27.035.82 26.188.82 25.143V6.858c0-1.045.88-1.892 1.966-1.892h29.33c1.086 0 1.966.847 1.966 1.892v18.285z"/><path fill="var(--color2, #202121)" opacity=".15" d="M2.217 25.143V6.858c0-1.045.88-1.892 1.966-1.892H2.785c-1.086 0-1.966.847-1.966 1.892v18.285c0 1.045.88 1.892 1.966 1.892h1.398c-1.086 0-1.966-.847-1.966-1.892z"/><path fill="var(--color3, #ffb600)" d="M28.283 15.211c0 2.971-2.495 5.4-5.613 5.4-3.089 0-5.613-2.429-5.613-5.4s2.495-5.4 5.583-5.4c3.148 0 5.643 2.429 5.643 5.4z"/><path fill="var(--color4, #f7981d)" d="M22.67 9.811c3.089 0 5.613 2.429 5.613 5.4s-2.495 5.4-5.613 5.4c-3.089 0-5.613-2.429-5.613-5.4z"/><path fill="var(--color5, #ff8500)" d="M22.67 9.811c3.089 0 5.613 2.429 5.613 5.4s-2.495 5.4-5.613 5.4z"/><path fill="var(--color6, #ff5050)" d="M15.126 9.811c-3.059.029-5.554 2.429-5.554 5.4s2.495 5.4 5.613 5.4a5.808 5.808 0 003.772-1.4c.208-.171.386-.371.564-.571h-1.158a6.388 6.388 0 01-.416-.543h1.99c.119-.171.238-.371.327-.571h-2.643a3.37 3.37 0 01-.238-.571h3.089a5.483 5.483 0 00.297-1.714c0-.4-.059-.771-.119-1.143h-3.445c.03-.2.089-.371.148-.571h3.089a3.29 3.29 0 00-.238-.571h-2.613c.089-.2.208-.371.327-.571h1.99c-.119-.2-.267-.4-.446-.571h-1.099c.178-.2.356-.371.564-.543-.98-.886-2.317-1.4-3.772-1.4 0-.057 0-.057-.03-.057z"/><path fill="var(--color7, #e52836)" d="M9.573 15.211c0 2.971 2.495 5.4 5.613 5.4a5.808 5.808 0 003.772-1.4c.208-.171.386-.371.564-.571h-1.158a6.388 6.388 0 01-.416-.543h1.99c.119-.171.238-.371.327-.571h-2.643a3.37 3.37 0 01-.238-.571h3.089a5.483 5.483 0 00.297-1.714c0-.4-.059-.771-.119-1.143h-3.445c.03-.2.089-.371.148-.571h3.089a3.29 3.29 0 00-.238-.571h-2.613c.089-.2.208-.371.327-.571h1.99c-.119-.2-.267-.4-.446-.571h-1.099c.178-.2.356-.371.564-.543-.98-.886-2.317-1.4-3.772-1.4h-.03z"/><path fill="var(--color8, #cb2026)" d="M15.186 20.611a5.808 5.808 0 003.772-1.4c.208-.171.386-.371.564-.571h-1.158a6.388 6.388 0 01-.416-.543h1.99c.119-.171.238-.371.327-.571h-2.643a3.37 3.37 0 01-.238-.571h3.089a5.483 5.483 0 00.297-1.714c0-.4-.059-.771-.119-1.143h-3.445c.03-.2.089-.371.149-.571h3.089c-.059-.2-.148-.4-.238-.571h-2.614c.089-.2.208-.371.327-.571h1.99c-.119-.2-.267-.4-.445-.571h-1.099c.178-.2.356-.371.564-.543-.98-.886-2.317-1.4-3.772-1.4h-.03z"/><path fill="var(--color1, #fff)" d="M17.175 16.582l.089-.486c-.03 0-.089.029-.149.029-.208 0-.238-.114-.208-.171l.178-1h.327l.089-.543h-.297l.059-.343h-.594s-.356 1.886-.356 2.114c0 .343.208.486.475.486a.931.931 0 00.386-.086zm.208-.914c0 .8.564 1 1.04 1 .445 0 .624-.086.624-.086l.119-.543s-.327.143-.624.143c-.653 0-.535-.457-.535-.457h1.218s.089-.371.089-.514c0-.371-.208-.829-.861-.829-.624-.057-1.069.571-1.069 1.286zm1.04-.829c.327 0 .267.371.267.4h-.653c0-.029.059-.4.386-.4zm3.772 1.743l.119-.629s-.297.143-.505.143c-.416 0-.594-.314-.594-.657 0-.686.356-1.057.772-1.057.297 0 .535.171.535.171l.089-.6s-.356-.143-.683-.143c-.683 0-1.366.571-1.366 1.657 0 .714.356 1.2 1.069 1.2.238 0 .564-.086.564-.086zm-8.287-2.257c-.416 0-.713.114-.713.114l-.089.486s.267-.114.653-.114c.208 0 .386.029.386.2 0 .114-.03.143-.03.143h-.267c-.505 0-1.069.2-1.069.857 0 .514.356.629.564.629.416 0 .594-.257.624-.257l-.03.229h.535l.238-1.571c0-.686-.594-.714-.802-.714zm.119 1.286c0 .086-.059.543-.416.543a.228.228 0 01-.238-.229c0-.143.089-.343.535-.343.089.029.119.029.119.029zm1.248 1.028c.149 0 .891.029.891-.743 0-.714-.713-.571-.713-.857 0-.143.119-.2.327-.2.089 0 .416.029.416.029l.089-.514s-.208-.057-.564-.057c-.445 0-.891.171-.891.743 0 .657.742.6.742.857 0 .171-.208.2-.356.2-.267 0-.535-.086-.535-.086l-.089.514c.03.057.178.114.683.114zm11.849-2.771l-.119.771s-.238-.286-.564-.286c-.535 0-1.01.629-1.01 1.371 0 .457.238.943.742.943.356 0 .564-.229.564-.229l-.03.2h.594l.445-2.743-.624-.029zm-.267 1.514c0 .314-.148.714-.475.714-.208 0-.327-.171-.327-.457 0-.457.208-.743.475-.743.208 0 .327.143.327.486zm-16.186 1.229l.356-2.057.059 2.057h.416l.772-2.057-.327 2.057h.624l.475-2.743h-.98l-.594 1.686-.03-1.686h-.861l-.475 2.743h.564zm9.207 0c.178-.943.208-1.714.624-1.571.059-.371.149-.514.208-.657h-.119c-.267 0-.475.343-.475.343l.059-.314h-.564l-.386 2.229h.653v-.029zm3.683-2.286c-.416 0-.713.114-.713.114l-.089.486s.267-.114.653-.114c.208 0 .386.029.386.2 0 .114-.03.143-.03.143h-.267c-.505 0-1.069.2-1.069.857 0 .514.356.629.564.629.416 0 .594-.257.624-.257l-.03.229h.535l.238-1.571c.03-.686-.594-.714-.802-.714zm.148 1.286c0 .086-.059.543-.416.543a.228.228 0 01-.238-.229c0-.143.089-.343.535-.343.089.029.089.029.119.029zm1.159 1c.178-.943.208-1.714.624-1.571.059-.371.149-.514.208-.657h-.119c-.267 0-.475.343-.475.343l.059-.314h-.564l-.386 2.229h.653v-.029z"/><path fill="var(--color9, #dce5e5)" d="M16.255 16.182c0 .343.208.486.475.486.208 0 .386-.057.445-.086l.089-.486c-.03 0-.089.029-.149.029-.208 0-.238-.114-.208-.171l.178-1h.327l.089-.543h-.297l.059-.343zm1.426-.514c0 .8.267 1 .742 1 .445 0 .624-.086.624-.086l.119-.543s-.327.143-.624.143c-.653 0-.535-.457-.535-.457h1.218s.089-.371.089-.514c0-.371-.208-.829-.861-.829-.624-.057-.772.571-.772 1.286zm.742-.829c.327 0 .386.371.386.4h-.772c0-.029.059-.4.386-.4zm3.771 1.743l.119-.629s-.297.143-.505.143c-.416 0-.594-.314-.594-.657 0-.686.356-1.057.772-1.057.297 0 .535.171.535.171l.089-.6s-.356-.143-.683-.143c-.683 0-1.069.571-1.069 1.657 0 .714.059 1.2.772 1.2.238 0 .564-.086.564-.086zm-9.087-1.628s.267-.114.653-.114c.208 0 .386.029.386.2 0 .114-.03.143-.03.143h-.267c-.505 0-1.069.2-1.069.857 0 .514.356.629.564.629.416 0 .594-.257.624-.257l-.03.229h.535l.238-1.571c0-.657-.594-.686-.832-.686l-.772.571zm1.217.657c0 .086-.356.543-.713.543a.228.228 0 01-.238-.229c0-.143.089-.343.535-.343.089.029.416.029.416.029zm.297.971s.178.057.683.057c.149 0 .891.029.891-.743 0-.714-.713-.571-.713-.857 0-.143.119-.2.327-.2.089 0 .416.029.416.029l.089-.514s-.208-.057-.564-.057c-.446 0-.594.171-.594.743 0 .657.446.6.446.857 0 .171-.208.2-.356.2zm12.385-1.943s-.238-.286-.564-.286c-.535 0-.713.629-.713 1.371 0 .457-.059.943.445.943.356 0 .564-.229.564-.229l-.03.2h.594l.445-2.743-.742.743zm-.03.743c0 .314-.267.714-.594.714-.208 0-.327-.171-.327-.457 0-.457.208-.743.475-.743.208 0 .446.143.446.486zm-16.305 1.229l.356-2.057.059 2.057h.416l.772-2.057-.327 2.057h.624l.475-2.743h-.742l-.832 1.686-.03-1.686h-.327l-1.01 2.743h.564zm8.584 0h.624c.178-.943.208-1.714.624-1.571.059-.371.149-.514.208-.657h-.119c-.267 0-.475.343-.475.343l.059-.314zm3.504-1.657s.267-.114.653-.114c.208 0 .386.029.386.2 0 .114-.03.143-.03.143h-.267c-.505 0-1.069.2-1.069.857 0 .514.356.629.564.629.416 0 .594-.257.624-.257l-.03.229h.535l.238-1.571c0-.657-.594-.686-.832-.686l-.772.571zm1.217.657c0 .086-.356.543-.713.543a.228.228 0 01-.238-.229c0-.143.089-.343.535-.343.119.029.416.029.416.029zm.268 1h.624c.178-.943.208-1.714.624-1.571.059-.371.149-.514.208-.657h-.119c-.267 0-.475.343-.475.343l.059-.314z"/></symbol><symbol id="visa" viewBox="0 0 34 32"><path fill="var(--color1, #fff)" d="M33.464 25.143c0 1.045-.88 1.892-1.966 1.892H2.168c-1.086 0-1.966-.847-1.966-1.892V6.858c0-1.045.88-1.892 1.966-1.892h29.33c1.086 0 1.966.847 1.966 1.892v18.285z"/><path fill="var(--color10, #f79f1a)" d="M7.584 16.127l-.781-3.604c-.133-.497-.522-.645-1.007-.665H2.215l-.032.165c2.789.65 4.634 2.22 5.401 4.104z"/><path fill="var(--color11, #059bbf)" d="M15.881 11.931h-2.314l-1.445 8.158h2.31l1.449-8.158zM8.994 20.08l3.639-8.144h-2.449L7.92 17.5l-.242-.84c-.444-1.011-1.712-2.465-3.201-3.381l2.069 6.804 2.447-.003zm13.486-2.658c.009-.926-.61-1.633-1.942-2.216-.809-.377-1.303-.628-1.297-1.011 0-.338.418-.701 1.323-.701a4.414 4.414 0 011.73.313l.209.092.314-1.767a6.202 6.202 0 00-2.072-.341c-2.284 0-3.892 1.106-3.906 2.692-.015 1.173 1.149 1.826 2.026 2.217.9.398 1.201.653 1.196 1.011-.006.546-.717.796-1.381.796-.926 0-1.416-.123-2.177-.428l-.296-.131-.325 1.828c.539.227 1.538.425 2.574.433 2.429 0 4.008-1.092 4.025-2.787zm2.748 1.444l2.96.003c.07.284.282 1.223.282 1.223h2.145l-1.872-8.152h-1.785c-.554 0-.966.145-1.21.676l-3.433 7.477h2.429s.394-1.005.484-1.226zm1.585-3.951c-.011.022.192-.472.308-.779l.157.704.534 2.357h-1.918c.192-.469.92-2.281.92-2.281zm4.684-9.949H2.167c-1.086 0-1.966.847-1.966 1.892v1.963h33.263V6.858c0-1.045-.88-1.892-1.966-1.892z"/><path fill="var(--color10, #f79f1a)" d="M31.497 27.034H2.167c-1.086 0-1.966-.847-1.966-1.892v-1.963h33.263v1.963c0 1.045-.88 1.892-1.966 1.892z"/><path fill="var(--color2, #202121)" opacity=".15" d="M1.599 25.143V6.858c0-1.045.88-1.892 1.966-1.892H2.167c-1.086 0-1.966.847-1.966 1.892v18.285c0 1.045.88 1.892 1.966 1.892h1.398c-1.086 0-1.966-.847-1.966-1.892z"/></symbol></defs></svg>