<svg width="370" height="74" viewBox="0 0 370 74" fill="none" xmlns="http://www.w3.org/2000/svg">
<mask id="path-1-inside-1" fill="white">
<path fill-rule="evenodd" clip-rule="evenodd" d="M12 0C5.37258 0 0 5.37258 0 12V46C0 52.6274 5.37258 58 12 58H30.4018C33.5844 58 36.6366 59.2643 38.8871 61.5147L49.799 72.4267C51.3611 73.9888 53.8938 73.9888 55.4559 72.4267L66.3679 61.5147C68.6183 59.2643 71.6705 58 74.8531 58H358C364.627 58 370 52.6274 370 46V12C370 5.37258 364.627 0 358 0H12Z"/>
</mask>
<path fill-rule="evenodd" clip-rule="evenodd" d="M12 0C5.37258 0 0 5.37258 0 12V46C0 52.6274 5.37258 58 12 58H30.4018C33.5844 58 36.6366 59.2643 38.8871 61.5147L49.799 72.4267C51.3611 73.9888 53.8938 73.9888 55.4559 72.4267L66.3679 61.5147C68.6183 59.2643 71.6705 58 74.8531 58H358C364.627 58 370 52.6274 370 46V12C370 5.37258 364.627 0 358 0H12Z" fill="#FEC830" fill-opacity="0.2"/>
<path d="M49.799 72.4267L49.4455 72.7802L49.799 72.4267ZM55.4559 72.4267L55.8094 72.7802L55.4559 72.4267ZM-0.5 12V13.5937H0.5V12H-0.5ZM-0.5 18.9062V22.0938H0.5V18.9062H-0.5ZM-0.5 27.4062V30.5938H0.5V27.4062H-0.5ZM-0.5 35.9062V39.0938H0.5V35.9062H-0.5ZM-0.5 44.4062V46H0.5V44.4062H-0.5ZM-0.5 46C-0.5 46.6228 -0.454412 47.2353 -0.366315 47.8342L0.623039 47.6887C0.542007 47.1378 0.5 46.574 0.5 46H-0.5ZM1.95943 53.4469C2.69216 54.4332 3.56677 55.3078 4.55314 56.0406L5.14946 55.2378C4.24162 54.5634 3.43656 53.7584 2.76218 52.8505L1.95943 53.4469ZM10.1658 58.3663C10.7647 58.4544 11.3772 58.5 12 58.5V57.5C11.4261 57.5 10.8622 57.458 10.3113 57.377L10.1658 58.3663ZM12 58.5H13.7252V57.5H12V58.5ZM19.4757 58.5H22.9261V57.5H19.4757V58.5ZM28.6766 58.5H30.4018V57.5H28.6766V58.5ZM30.4018 58.5C30.97 58.5 31.5339 58.542 32.0892 58.6244L32.2359 57.6352C31.6323 57.5457 31.0194 57.5 30.4018 57.5V58.5ZM37.2524 60.7631C37.7033 61.0975 38.1317 61.4665 38.5335 61.8683L39.2406 61.1612C38.8039 60.7245 38.3382 60.3234 37.8481 59.9599L37.2524 60.7631ZM38.5335 61.8683L39.5565 62.8913L40.2636 62.1842L39.2406 61.1612L38.5335 61.8683ZM42.9665 66.3013L45.0125 68.3472L45.7196 67.6401L43.6736 65.5941L42.9665 66.3013ZM48.4225 71.7572L49.4455 72.7802L50.1526 72.0731L49.1296 71.0501L48.4225 71.7572ZM49.4455 72.7802C49.7662 73.101 50.1241 73.3637 50.5056 73.5678L50.9773 72.686C50.6815 72.5278 50.4031 72.3237 50.1526 72.0731L49.4455 72.7802ZM54.7493 73.5678C55.1308 73.3637 55.4887 73.101 55.8094 72.7802L55.1023 72.0731C54.8518 72.3237 54.5735 72.5278 54.2776 72.686L54.7493 73.5678ZM55.8094 72.7802L56.8324 71.7572L56.1253 71.0501L55.1023 72.0731L55.8094 72.7802ZM60.2424 68.3472L62.2884 66.3013L61.5813 65.5941L59.5353 67.6401L60.2424 68.3472ZM65.6984 62.8913L66.7214 61.8683L66.0143 61.1612L64.9913 62.1842L65.6984 62.8913ZM66.7214 61.8683C67.1232 61.4665 67.5516 61.0975 68.0026 60.7631L67.4069 59.9599C66.9167 60.3234 66.451 60.7245 66.0143 61.1612L66.7214 61.8683ZM73.1657 58.6244C73.7211 58.542 74.2849 58.5 74.8531 58.5V57.5C74.2355 57.5 73.6227 57.5457 73.019 57.6352L73.1657 58.6244ZM74.8531 58.5H76.37V57.5H74.8531V58.5ZM81.4262 58.5H84.4599V57.5H81.4262V58.5ZM89.5161 58.5H92.5498V57.5H89.5161V58.5ZM97.606 58.5H100.64V57.5H97.606V58.5ZM105.696 58.5H108.73V57.5H105.696V58.5ZM113.786 58.5H116.82V57.5H113.786V58.5ZM121.876 58.5H124.909V57.5H121.876V58.5ZM129.966 58.5H132.999V57.5H129.966V58.5ZM138.056 58.5H141.089V57.5H138.056V58.5ZM146.145 58.5H149.179V57.5H146.145V58.5ZM154.235 58.5H157.269V57.5H154.235V58.5ZM162.325 58.5H165.359V57.5H162.325V58.5ZM170.415 58.5H173.449V57.5H170.415V58.5ZM178.505 58.5H181.539V57.5H178.505V58.5ZM186.595 58.5H189.629V57.5H186.595V58.5ZM194.685 58.5H197.719V57.5H194.685V58.5ZM202.775 58.5H205.809V57.5H202.775V58.5ZM210.865 58.5H213.898V57.5H210.865V58.5ZM218.955 58.5H221.988V57.5H218.955V58.5ZM227.045 58.5H230.078V57.5H227.045V58.5ZM235.134 58.5H238.168V57.5H235.134V58.5ZM243.224 58.5H246.258V57.5H243.224V58.5ZM251.314 58.5H254.348V57.5H251.314V58.5ZM259.404 58.5H262.438V57.5H259.404V58.5ZM267.494 58.5H270.528V57.5H267.494V58.5ZM275.584 58.5H278.618V57.5H275.584V58.5ZM283.674 58.5H286.708V57.5H283.674V58.5ZM291.764 58.5H294.798V57.5H291.764V58.5ZM299.854 58.5H302.888V57.5H299.854V58.5ZM307.944 58.5H310.977V57.5H307.944V58.5ZM316.034 58.5H319.067V57.5H316.034V58.5ZM324.124 58.5H327.157V57.5H324.124V58.5ZM332.214 58.5H335.247V57.5H332.214V58.5ZM340.303 58.5H343.337V57.5H340.303V58.5ZM348.393 58.5H351.427V57.5H348.393V58.5ZM356.483 58.5H358V57.5H356.483V58.5ZM358 58.5C358.623 58.5 359.235 58.4544 359.834 58.3663L359.689 57.377C359.138 57.458 358.574 57.5 358 57.5V58.5ZM365.447 56.0406C366.433 55.3078 367.308 54.4332 368.041 53.4469L367.238 52.8505C366.563 53.7584 365.758 54.5634 364.851 55.2378L365.447 56.0406ZM370.366 47.8342C370.454 47.2353 370.5 46.6228 370.5 46H369.5C369.5 46.574 369.458 47.1378 369.377 47.6887L370.366 47.8342ZM370.5 46V44.4062H369.5V46H370.5ZM370.5 39.0938V35.9062H369.5V39.0938H370.5ZM370.5 30.5938V27.4062H369.5V30.5938H370.5ZM370.5 22.0938V18.9062H369.5V22.0938H370.5ZM370.5 13.5938V12H369.5V13.5938H370.5ZM370.5 12C370.5 11.3772 370.454 10.7647 370.366 10.1658L369.377 10.3113C369.458 10.8622 369.5 11.426 369.5 12H370.5ZM368.041 4.55314C367.308 3.56677 366.433 2.69216 365.447 1.95943L364.851 2.76218C365.758 3.43656 366.563 4.24162 367.238 5.14946L368.041 4.55314ZM359.834 -0.366315C359.235 -0.454412 358.623 -0.5 358 -0.5V0.5C358.574 0.5 359.138 0.542007 359.689 0.623039L359.834 -0.366315ZM358 -0.5H356.491V0.5H358V-0.5ZM351.462 -0.5H348.445V0.5H351.462V-0.5ZM343.416 -0.5H340.398V0.5H343.416V-0.5ZM335.369 -0.5H332.352V0.5H335.369V-0.5ZM327.323 -0.5H324.305V0.5H327.323V-0.5ZM319.276 -0.5H316.259V0.5H319.276V-0.5ZM311.23 -0.5H308.212V0.5H311.23V-0.5ZM303.183 -0.5H300.166V0.5H303.183V-0.5ZM295.137 -0.5H292.119V0.5H295.137V-0.5ZM287.09 -0.5H284.073V0.5H287.09V-0.5ZM279.044 -0.5H276.026V0.5H279.044V-0.5ZM270.997 -0.5H267.98V0.5H270.997V-0.5ZM262.951 -0.5H259.933V0.5H262.951V-0.5ZM254.904 -0.5H251.887V0.5H254.904V-0.5ZM246.858 -0.5H243.84V0.5H246.858V-0.5ZM238.811 -0.5H235.794V0.5H238.811V-0.5ZM230.765 -0.5H227.747V0.5H230.765V-0.5ZM222.718 -0.5H219.701V0.5H222.718V-0.5ZM214.672 -0.5H211.654V0.5H214.672V-0.5ZM206.625 -0.5H203.608V0.5H206.625V-0.5ZM198.579 -0.5H195.561V0.5H198.579V-0.5ZM190.532 -0.5H187.515V0.5H190.532V-0.5ZM182.485 -0.5H179.468V0.5H182.485V-0.5ZM174.439 -0.5H171.422V0.5H174.439V-0.5ZM166.392 -0.5H163.375V0.5H166.392V-0.5ZM158.346 -0.5H155.329V0.5H158.346V-0.5ZM150.299 -0.5H147.282V0.5H150.299V-0.5ZM142.253 -0.5H139.236V0.5H142.253V-0.5ZM134.206 -0.5H131.189V0.5H134.206V-0.5ZM126.16 -0.5H123.143V0.5H126.16V-0.5ZM118.113 -0.5H115.096V0.5H118.113V-0.5ZM110.067 -0.5H107.049V0.5H110.067V-0.5ZM102.02 -0.5H99.003V0.5H102.02V-0.5ZM93.9739 -0.5H90.9564V0.5H93.9739V-0.5ZM85.9273 -0.5H82.9099V0.5H85.9273V-0.5ZM77.8808 -0.5H74.8633V0.5H77.8808V-0.5ZM69.8343 -0.5H66.8168V0.5H69.8343V-0.5ZM61.7877 -0.5H58.7703V0.5H61.7877V-0.5ZM53.7412 -0.5H50.7237V0.5H53.7412V-0.5ZM45.6946 -0.5H42.6772V0.5H45.6946V-0.5ZM37.6481 -0.5H34.6306V0.5H37.6481V-0.5ZM29.6016 -0.5H26.5841V0.5H29.6016V-0.5ZM21.555 -0.5H18.5376V0.5H21.555V-0.5ZM13.5085 -0.5H12V0.5H13.5085V-0.5ZM12 -0.5C11.3772 -0.5 10.7647 -0.454412 10.1658 -0.366315L10.3113 0.623039C10.8622 0.542007 11.426 0.5 12 0.5V-0.5ZM4.55314 1.95943C3.56676 2.69215 2.69215 3.56677 1.95943 4.55314L2.76217 5.14946C3.43656 4.24162 4.24162 3.43656 5.14946 2.76218L4.55314 1.95943ZM-0.366315 10.1658C-0.454412 10.7647 -0.5 11.3772 -0.5 12H0.5C0.5 11.426 0.542007 10.8622 0.623039 10.3113L-0.366315 10.1658ZM49.799 72.4267L49.0919 73.1338L49.799 72.4267ZM55.4559 72.4267L56.163 73.1338L55.4559 72.4267ZM-1 12V13.5937H1V12H-1ZM-1 18.9062V22.0938H1V18.9062H-1ZM-1 27.4062V30.5938H1V27.4062H-1ZM-1 35.9062V39.0938H1V35.9062H-1ZM-1 44.4062V46H1V44.4062H-1ZM-1 46C-1 46.6472 -0.952621 47.284 -0.860992 47.907L1.11772 47.6159C1.04022 47.089 1 46.5495 1 46H-1ZM1.55806 53.745C2.31995 54.7707 3.22934 55.68 4.25498 56.4419L5.44762 54.8365C4.57905 54.1912 3.80877 53.421 3.16355 52.5524L1.55806 53.745ZM10.093 58.861C10.716 58.9526 11.3528 59 12 59V57C11.4505 57 10.911 56.9598 10.3841 56.8823L10.093 58.861ZM12 59H13.7252V57H12V59ZM19.4757 59H22.9261V57H19.4757V59ZM28.6766 59H30.4018V57H28.6766V59ZM30.4018 59C30.9453 59 31.4847 59.0402 32.0159 59.119L32.3093 57.1407C31.6815 57.0475 31.0441 57 30.4018 57V59ZM36.9545 61.1647C37.3858 61.4846 37.7956 61.8375 38.18 62.2218L39.5942 60.8076C39.14 60.3535 38.6557 59.9364 38.1459 59.5583L36.9545 61.1647ZM38.18 62.2218L39.203 63.2448L40.6172 61.8306L39.5942 60.8076L38.18 62.2218ZM42.613 66.6548L44.659 68.7008L46.0732 67.2866L44.0272 65.2406L42.613 66.6548ZM48.0689 72.1108L49.0919 73.1338L50.5061 71.7196L49.4832 70.6966L48.0689 72.1108ZM49.0919 73.1338C49.4478 73.4896 49.8454 73.7817 50.2698 74.0087L51.2132 72.2451C50.9602 72.1098 50.7216 71.935 50.5061 71.7196L49.0919 73.1338ZM54.9852 74.0087C55.4095 73.7817 55.8071 73.4896 56.163 73.1338L54.7488 71.7196C54.5334 71.935 54.2948 72.1098 54.0418 72.2451L54.9852 74.0087ZM56.163 73.1338L57.186 72.1108L55.7718 70.6966L54.7488 71.7196L56.163 73.1338ZM60.596 68.7008L62.642 66.6548L61.2278 65.2406L59.1818 67.2866L60.596 68.7008ZM66.052 63.2448L67.075 62.2218L65.6607 60.8076L64.6377 61.8306L66.052 63.2448ZM67.075 62.2218C67.4593 61.8375 67.8691 61.4846 68.3004 61.1647L67.109 59.5583C66.5992 59.9364 66.1149 60.3535 65.6607 60.8076L67.075 62.2218ZM73.2391 59.119C73.7702 59.0402 74.3096 59 74.8531 59V57C74.2109 57 73.5735 57.0475 72.9456 57.1407L73.2391 59.119ZM74.8531 59H76.37V57H74.8531V59ZM81.4262 59H84.4599V57H81.4262V59ZM89.5161 59H92.5498V57H89.5161V59ZM97.606 59H100.64V57H97.606V59ZM105.696 59H108.73V57H105.696V59ZM113.786 59H116.82V57H113.786V59ZM121.876 59H124.909V57H121.876V59ZM129.966 59H132.999V57H129.966V59ZM138.056 59H141.089V57H138.056V59ZM146.145 59H149.179V57H146.145V59ZM154.235 59H157.269V57H154.235V59ZM162.325 59H165.359V57H162.325V59ZM170.415 59H173.449V57H170.415V59ZM178.505 59H181.539V57H178.505V59ZM186.595 59H189.629V57H186.595V59ZM194.685 59H197.719V57H194.685V59ZM202.775 59H205.809V57H202.775V59ZM210.865 59H213.898V57H210.865V59ZM218.955 59H221.988V57H218.955V59ZM227.045 59H230.078V57H227.045V59ZM235.134 59H238.168V57H235.134V59ZM243.224 59H246.258V57H243.224V59ZM251.314 59H254.348V57H251.314V59ZM259.404 59H262.438V57H259.404V59ZM267.494 59H270.528V57H267.494V59ZM275.584 59H278.618V57H275.584V59ZM283.674 59H286.708V57H283.674V59ZM291.764 59H294.798V57H291.764V59ZM299.854 59H302.888V57H299.854V59ZM307.944 59H310.977V57H307.944V59ZM316.034 59H319.067V57H316.034V59ZM324.124 59H327.157V57H324.124V59ZM332.214 59H335.247V57H332.214V59ZM340.303 59H343.337V57H340.303V59ZM348.393 59H351.427V57H348.393V59ZM356.483 59H358V57H356.483V59ZM358 59C358.647 59 359.284 58.9526 359.907 58.861L359.616 56.8823C359.089 56.9598 358.55 57 358 57V59ZM365.745 56.4419C366.771 55.68 367.68 54.7707 368.442 53.745L366.836 52.5524C366.191 53.421 365.421 54.1912 364.552 54.8364L365.745 56.4419ZM370.861 47.907C370.953 47.284 371 46.6472 371 46H369C369 46.5495 368.96 47.089 368.882 47.6159L370.861 47.907ZM371 46V44.4062H369V46H371ZM371 39.0938V35.9062H369V39.0938H371ZM371 30.5938V27.4062H369V30.5938H371ZM371 22.0938V18.9062H369V22.0938H371ZM371 13.5938V12H369V13.5938H371ZM371 12C371 11.3528 370.953 10.716 370.861 10.093L368.882 10.3841C368.96 10.911 369 11.4505 369 12H371ZM368.442 4.25498C367.68 3.22934 366.771 2.31995 365.745 1.55806L364.552 3.16355C365.421 3.80876 366.191 4.57905 366.836 5.44762L368.442 4.25498ZM359.907 -0.860992C359.284 -0.952621 358.647 -1 358 -1V1C358.55 1 359.089 1.04022 359.616 1.11772L359.907 -0.860992ZM358 -1H356.491V1H358V-1ZM351.462 -1H348.445V1H351.462V-1ZM343.416 -1H340.398V1H343.416V-1ZM335.369 -1H332.352V1H335.369V-1ZM327.323 -1H324.305V1H327.323V-1ZM319.276 -1H316.259V1H319.276V-1ZM311.23 -1H308.212V1H311.23V-1ZM303.183 -1H300.166V1H303.183V-1ZM295.137 -1H292.119V1H295.137V-1ZM287.09 -1H284.073V1H287.09V-1ZM279.044 -1H276.026V1H279.044V-1ZM270.997 -1H267.98V1H270.997V-1ZM262.951 -1H259.933V1H262.951V-1ZM254.904 -1H251.887V1H254.904V-1ZM246.858 -1H243.84V1H246.858V-1ZM238.811 -1H235.794V1H238.811V-1ZM230.765 -1H227.747V1H230.765V-1ZM222.718 -1H219.701V1H222.718V-1ZM214.672 -1H211.654V1H214.672V-1ZM206.625 -1H203.608V1H206.625V-1ZM198.579 -1H195.561V1H198.579V-1ZM190.532 -1H187.515V1H190.532V-1ZM182.485 -1H179.468V1H182.485V-1ZM174.439 -1H171.422V1H174.439V-1ZM166.392 -1H163.375V1H166.392V-1ZM158.346 -1H155.329V1H158.346V-1ZM150.299 -1H147.282V1H150.299V-1ZM142.253 -1H139.236V1H142.253V-1ZM134.206 -1H131.189V1H134.206V-1ZM126.16 -1H123.143V1H126.16V-1ZM118.113 -1H115.096V1H118.113V-1ZM110.067 -1H107.049V1H110.067V-1ZM102.02 -1H99.003V1H102.02V-1ZM93.9739 -1H90.9564V1H93.9739V-1ZM85.9273 -1H82.9099V1H85.9273V-1ZM77.8808 -1H74.8633V1H77.8808V-1ZM69.8343 -1H66.8168V1H69.8343V-1ZM61.7877 -1H58.7703V1H61.7877V-1ZM53.7412 -1H50.7237V1H53.7412V-1ZM45.6946 -1H42.6772V1H45.6946V-1ZM37.6481 -1H34.6306V1H37.6481V-1ZM29.6016 -1H26.5841V1H29.6016V-1ZM21.555 -1H18.5376V1H21.555V-1ZM13.5085 -1H12V1H13.5085V-1ZM12 -1C11.3528 -1 10.716 -0.952621 10.093 -0.860992L10.3841 1.11772C10.911 1.04022 11.4505 1 12 1V-1ZM4.25498 1.55805C3.22934 2.31995 2.31995 3.22934 1.55805 4.25498L3.16355 5.44762C3.80876 4.57905 4.57905 3.80876 5.44762 3.16355L4.25498 1.55805ZM-0.860992 10.093C-0.952621 10.716 -1 11.3528 -1 12H1C1 11.4505 1.04022 10.911 1.11772 10.3841L-0.860992 10.093Z" fill="#FEC830" mask="url(#path-1-inside-1)"/>
</svg>
