<svg width="288" height="327" viewBox="0 0 288 327" fill="none" xmlns="http://www.w3.org/2000/svg">
<path opacity="0.08" d="M516.963 42.9374C536.472 75.0864 505.45 138.42 470.269 206.897C435.088 275.375 396.07 348.996 351.615 351.889C307.159 355.104 257.267 287.913 213.451 214.291C169.316 140.67 130.937 60.6193 155.883 25.5769C180.829 -9.78697 268.78 0.179216 348.097 5.32305C427.413 10.4669 497.454 11.1099 516.963 42.9374Z" fill="white"/>
<path opacity="0.08" d="M336.87 469.91C306.284 491.789 240.791 465.631 169.855 435.715C98.9195 405.8 22.5651 372.445 16.3271 328.335C9.7684 284.248 73.0054 229.43 143.112 180.187C213.195 130.624 290.123 86.3171 326.947 108.549C364.092 130.757 360.788 219.21 361.641 298.688C362.494 378.166 367.135 448.056 336.87 469.91Z" fill="white"/>
</svg>
