<svg width="52" height="52" viewBox="0 0 52 52" fill="none" xmlns="http://www.w3.org/2000/svg">
<g clip-path="url(#clip0)">
<path d="M6.209 45.584C6.57405 45.9872 6.73752 46.5729 7.16606 46.8903C7.43429 47.1554 7.88189 47.0887 8.06125 46.757C8.16601 46.4364 7.96127 46.0856 7.84224 45.7983C7.73431 45.5856 7.574 45.5332 7.3502 45.5666C7.16768 45.365 6.98515 45.1634 6.73914 45.0475C6.39631 44.7936 5.85506 45.2555 6.209 45.584Z" fill="#AA43A2"/>
<path d="M11.0546 47.9123C11.4943 48.3044 12.0085 48.6853 12.5117 48.9917C13.0148 49.298 13.6783 49.6567 14.2005 49.579C14.4989 49.5345 14.5925 49.1393 14.3465 49.0234C13.918 48.706 13.3101 48.7203 12.818 48.4885C12.2514 48.2679 11.8228 47.9504 11.3086 47.5695C11.0626 47.4536 10.8832 47.7853 11.0546 47.9123Z" fill="#AA43A2"/>
<path d="M18.0356 48.7031C17.461 48.9411 16.8007 49.1157 16.1293 49.2157C15.9055 49.249 15.9611 49.622 16.1849 49.5887C17.0801 49.4554 18.9371 49.6364 19.4006 48.6523C19.5276 48.4809 19.2704 48.2904 19.1212 48.3126C18.7482 48.3682 18.3975 48.5729 18.0356 48.7031Z" fill="#AA43A2"/>
<path d="M20.2479 44.1036C20.5748 45.275 20.9541 46.286 20.524 47.4939C20.4716 47.6542 20.6319 47.7066 20.6843 47.5463C21.3382 46.3051 21.5224 44.9813 20.6621 43.8131C20.4685 43.537 20.1399 43.8909 20.2479 44.1036Z" fill="#AA43A2"/>
<path d="M15.5689 39.3098C15.8815 39.8733 16.3958 40.2542 16.8466 40.7209C17.383 41.251 17.9084 41.7065 18.5083 42.151C18.6798 42.2779 18.9448 42.0097 18.7623 41.8081C18.248 41.4272 17.8719 40.9494 17.4211 40.4828C16.9704 40.0161 16.572 39.3892 16.0577 39.0082C15.8006 38.8178 15.3752 39.0336 15.5689 39.3098Z" fill="#AA43A2"/>
<path d="M9.45359 35.1119C10.1757 36.3769 11.6328 37.4562 12.8216 38.2705C13.0676 38.3864 13.2581 38.1292 13.0756 37.9277C12.4645 37.4086 11.8423 36.815 11.2947 36.2103C10.844 35.7436 10.4567 35.1913 9.94246 34.8103C9.61073 34.631 9.34566 34.8992 9.45359 35.1119Z" fill="#AA43A2"/>
<path d="M5.70479 28.8831C5.83015 30.237 6.55231 31.502 7.17764 32.6289C7.28557 32.8416 7.57286 32.7226 7.53953 32.4988C6.97768 31.2861 6.63963 30.0402 6.37618 28.7831C6.24604 28.4212 5.64924 28.5101 5.70479 28.8831Z" fill="#AA43A2"/>
<path d="M7.42207 23.5187C7.03002 23.9584 6.66019 24.5472 6.35384 25.0504C6.11099 25.4678 6.62524 25.8487 6.9538 25.4948C7.27123 25.0661 7.6633 24.6266 8.05535 24.187C8.44738 23.7472 9.06325 23.2743 9.35848 22.6966C9.47435 22.4506 9.20612 22.1855 8.91883 22.3045C8.32204 22.3934 7.80301 23.0045 7.42207 23.5187Z" fill="#AA43A2"/>
<path d="M11.2393 21.5014C10.9409 21.5459 11.0186 22.0679 11.317 22.0235C12.0741 21.987 12.7677 22.0362 13.536 22.0745C14.2296 22.1237 14.9565 22.3967 15.7025 22.2856C16.0755 22.2301 16.147 21.6857 15.7517 21.5919C14.3835 21.1093 12.571 21.2269 11.2393 21.5014Z" fill="#AA43A2"/>
<path d="M19.2519 23.5872C19.8296 23.8825 20.4074 24.1776 20.9851 24.473C21.5517 24.6935 22.1517 25.1379 22.7596 25.1238C23.058 25.0794 23.0882 24.7698 22.9803 24.5572C22.6787 24.0683 21.974 23.9445 21.493 23.7873C20.8407 23.5032 20.1249 23.3048 19.4725 23.0207C19.0773 22.9269 18.9202 23.4078 19.2519 23.5872Z" fill="#AA43A2"/>
<path d="M25.253 26.506C25.9498 27.0886 26.6243 27.5219 27.3624 27.8695C28.1004 28.2171 29.1591 28.6695 29.9575 28.3981C30.3193 28.2679 30.3384 27.8838 30.0067 27.7045C29.4289 27.4092 28.6718 27.4457 28.0417 27.3108C27.1021 27.1457 26.2037 26.7457 25.3689 26.26C25.272 26.1219 25.0816 26.379 25.253 26.506Z" fill="#AA43A2"/>
<path d="M33.1968 29.6697C33.8936 30.2522 34.6428 30.6744 35.53 30.9998C36.4172 31.3252 37.5395 31.6919 38.4125 31.4093C38.6998 31.2903 38.6331 30.8427 38.3982 30.8014C37.66 30.4538 36.7649 30.5872 35.9744 30.3999C35.1095 30.2236 34.211 29.8237 33.3762 29.338C33.2048 29.211 32.9397 29.4792 33.1968 29.6697Z" fill="#AA43A2"/>
<path d="M44.6215 28.0445C44.401 28.6111 44.2438 29.092 43.8518 29.5317C43.3105 29.9936 42.4376 30.2761 41.7662 30.3761C41.5422 30.4094 41.5978 30.7824 41.8217 30.7491C43.2613 30.6872 45.6785 30.0222 45.3152 28.0937C45.1962 27.8064 44.7264 27.7239 44.6215 28.0445Z" fill="#AA43A2"/>
<path d="M46.0549 19.7483C46.1025 20.5799 46.3738 21.3784 46.496 22.1989C46.5771 23.2545 46.423 24.2687 45.9484 25.1782C45.8961 25.3385 46.131 25.3798 46.1944 25.2941C47.1547 23.5497 47.8769 21.2307 46.7675 19.4133C46.4881 19.0738 45.9994 19.3753 46.0549 19.7483Z" fill="#AA43A2"/>
<path d="M40.0379 14.1628C40.4141 14.6405 40.9283 15.0215 41.3902 15.5627C41.7664 16.0405 42.0045 16.6152 42.1679 17.2007C42.2981 17.5627 42.8203 17.485 42.7647 17.1118C42.6393 15.758 41.9362 14.1088 40.557 13.5517C40.1395 13.3087 39.8331 13.812 40.0379 14.1628Z" fill="#AA43A2"/>
<path d="M35.1066 11.7706C36.2208 12.5959 37.4207 13.4847 38.7142 13.9784C39.1207 14.1467 39.2666 13.5912 38.9349 13.4118C37.7683 12.7467 36.8223 11.515 35.4653 11.107C35.0813 11.088 34.7639 11.5166 35.1066 11.7706Z" fill="#AA43A2"/>
<path d="M34.348 6.16416C33.9337 6.45461 33.7242 7.09583 33.567 7.57676C33.421 8.13228 33.4354 8.74016 33.5243 9.33695C33.5798 9.70995 34.1019 9.6322 34.0463 9.25921C33.9686 8.73701 34.0512 8.26718 34.2084 7.78626C34.3766 7.37982 34.7052 7.02588 34.8733 6.6197C35.0526 6.28799 34.6242 5.97064 34.348 6.16416Z" fill="#AA43A2"/>
<path d="M36.5907 1.25541C35.0305 2.5553 33.1909 3.51553 31.5338 4.67733C30.7799 5.24713 31.7036 6.32962 32.4686 5.83443C33.8605 4.94087 35.3384 4.11078 36.6224 3.00452C36.797 3.6648 36.9716 4.32508 37.1573 5.05996C37.2763 5.34725 37.3541 5.86945 37.6859 6.04879L37.7715 6.11218C37.7715 6.11218 37.7826 6.18678 37.8572 6.17567C38.0286 6.30265 38.3048 6.10901 38.2826 5.95982C38.3461 5.87411 38.3349 5.79939 38.3127 5.65031C38.3317 5.2661 38.2017 4.90432 38.135 4.45672C37.916 3.49804 37.708 2.61398 37.6383 1.63306C37.6462 1.17448 37.005 0.964954 36.5907 1.25541Z" fill="#AA43A2"/>
</g>
<defs>
<clipPath id="clip0">
<rect width="44.9906" height="44.9906" fill="white" transform="translate(6.62695 51.1265) rotate(-98.47)"/>
</clipPath>
</defs>
</svg>
