<svg width="270" height="223" viewBox="0 0 270 223" fill="none" xmlns="http://www.w3.org/2000/svg">
<ellipse cx="60.5541" cy="221.453" rx="99.9561" ry="198.386" transform="rotate(-22.2194 60.5541 221.453)" fill="#AA43A2"/>
<circle r="2.74605" transform="matrix(-0.372644 -0.927974 -0.927974 0.372644 251.08 217.145)" fill="white"/>
<circle r="2.74605" transform="matrix(-0.372644 -0.927974 -0.927974 0.372644 239.049 219.609)" fill="white"/>
<circle r="2.74605" transform="matrix(-0.372644 -0.927974 -0.927974 0.372644 240.045 201.454)" fill="white"/>
<circle r="2.74605" transform="matrix(-0.372644 -0.927974 -0.927974 0.372644 236.963 184.937)" fill="white"/>
<circle r="2.74605" transform="matrix(-0.372644 -0.927974 -0.927974 0.372644 221.039 174.76)" fill="white"/>
<circle r="2.74605" transform="matrix(-0.372644 -0.927974 -0.927974 0.372644 226.73 159.454)" fill="white"/>
<circle r="2.74605" transform="matrix(-0.372644 -0.927974 -0.927974 0.372644 205.734 169.069)" fill="white"/>
<circle r="2.74605" transform="matrix(-0.372644 -0.927974 -0.927974 0.372644 211.015 152.744)" fill="white"/>
<circle r="2.74605" transform="matrix(-0.372644 -0.927974 -0.927974 0.372644 193.278 158.684)" fill="white"/>
<circle r="2.74605" transform="matrix(-0.372644 -0.927974 -0.927974 0.372644 196.922 138.281)" fill="white"/>
<circle r="2.74605" transform="matrix(-0.372644 -0.927974 -0.927974 0.372644 183.253 136.668)" fill="white"/>
<circle r="2.74605" transform="matrix(-0.372644 -0.927974 -0.927974 0.372644 165.5 130.777)" fill="white"/>
<circle r="2.74605" transform="matrix(-0.372644 -0.927974 -0.927974 0.372644 152.249 136.098)" fill="white"/>
<circle r="2.74605" transform="matrix(-0.372644 -0.927974 -0.927974 0.372644 137.947 118.168)" fill="white"/>
<circle r="2.74605" transform="matrix(-0.372644 -0.927974 -0.927974 0.372644 124.278 116.554)" fill="white"/>
<circle r="2.74605" transform="matrix(-0.372644 -0.927974 -0.927974 0.372644 129.399 132.254)" fill="white"/>
<circle r="2.74605" transform="matrix(-0.372644 -0.927974 -0.927974 0.372644 145.13 150.794)" fill="white"/>
<circle r="2.74605" transform="matrix(-0.372644 -0.927974 -0.927974 0.372644 160.419 144.654)" fill="white"/>
<circle r="2.74605" transform="matrix(-0.372644 -0.927974 -0.927974 0.372644 173.694 157.078)" fill="white"/>
<circle r="2.74605" transform="matrix(-0.372644 -0.927974 -0.927974 0.372644 182.884 165.224)" fill="white"/>
<circle r="2.74605" transform="matrix(-0.372644 -0.927974 -0.927974 0.372644 180.243 173.387)" fill="white"/>
<circle r="2.74605" transform="matrix(-0.372644 -0.927974 -0.927974 0.372644 188.823 182.962)" fill="white"/>
<circle r="2.74605" transform="matrix(-0.372644 -0.927974 -0.927974 0.372644 197.202 194.985)" fill="white"/>
<circle r="2.74605" transform="matrix(-0.372644 -0.927974 -0.927974 0.372644 222.901 194.134)" fill="white"/>
<circle r="2.74605" transform="matrix(-0.372644 -0.927974 -0.927974 0.372644 215.573 205.363)" fill="white"/>
<circle r="2.74605" transform="matrix(-0.372644 -0.927974 -0.927974 0.372644 213.551 218.012)" fill="white"/>
<circle r="2.74605" transform="matrix(-0.372644 -0.927974 -0.927974 0.372644 194.794 224.36)" fill="white"/>
<circle r="2.74605" transform="matrix(-0.372644 -0.927974 -0.927974 0.372644 189.874 206.213)" fill="white"/>
<circle r="2.74605" transform="matrix(-0.372644 -0.927974 -0.927974 0.372644 177.651 217.04)" fill="white"/>
<circle r="2.74605" transform="matrix(-0.372644 -0.927974 -0.927974 0.372644 167.426 197.473)" fill="white"/>
<circle r="2.74605" transform="matrix(-0.372644 -0.927974 -0.927974 0.372644 162.297 175.859)" fill="white"/>
<circle r="2.74605" transform="matrix(-0.372644 -0.927974 -0.927974 0.372644 149.664 185.667)" fill="white"/>
<circle r="2.74605" transform="matrix(-0.372644 -0.927974 -0.927974 0.372644 158.26 207.072)" fill="white"/>
<circle r="2.74605" transform="matrix(-0.372644 -0.927974 -0.927974 0.372644 153.781 213.605)" fill="white"/>
<circle r="2.74605" transform="matrix(-0.372644 -0.927974 -0.927974 0.372644 158.693 225.837)" fill="white"/>
<circle r="2.74605" transform="matrix(-0.372644 -0.927974 -0.927974 0.372644 143.989 212.802)" fill="white"/>
<circle r="2.74605" transform="matrix(-0.372644 -0.927974 -0.927974 0.372644 139.495 207.505)" fill="white"/>
<circle r="2.74605" transform="matrix(-0.372644 -0.927974 -0.927974 0.372644 120.313 201.004)" fill="white"/>
<circle r="2.74605" transform="matrix(-0.372644 -0.927974 -0.927974 0.372644 123.965 186.517)" fill="white"/>
<circle r="2.74605" transform="matrix(-0.372644 -0.927974 -0.927974 0.372644 139.03 165.08)" fill="white"/>
<circle r="2.74605" transform="matrix(-0.372644 -0.927974 -0.927974 0.372644 119.864 170.409)" fill="white"/>
<circle r="2.74605" transform="matrix(-0.372644 -0.927974 -0.927974 0.372644 122.496 156.331)" fill="white"/>
<circle r="2.74605" transform="matrix(-0.372644 -0.927974 -0.927974 0.372644 114.318 141.86)" fill="white"/>
<circle r="2.74605" transform="matrix(-0.372644 -0.927974 -0.927974 0.372644 102.062 129.027)" fill="white"/>
<circle r="2.74605" transform="matrix(-0.372644 -0.927974 -0.927974 0.372644 106.124 115.559)" fill="white"/>
<circle r="2.74605" transform="matrix(-0.372644 -0.927974 -0.927974 0.372644 106.124 115.559)" fill="white"/>
<circle r="2.74605" transform="matrix(-0.372644 -0.927974 -0.927974 0.372644 82.6797 124.973)" fill="white"/>
<circle r="2.74605" transform="matrix(-0.372644 -0.927974 -0.927974 0.372644 66.7881 138.457)" fill="white"/>
<circle r="2.74605" transform="matrix(-0.372644 -0.927974 -0.927974 0.372644 56.5949 142.55)" fill="white"/>
<circle r="2.74605" transform="matrix(-0.372644 -0.927974 -0.927974 0.372644 45.792 148.072)" fill="white"/>
<circle r="2.74605" transform="matrix(-0.372644 -0.927974 -0.927974 0.372644 45.792 148.072)" fill="white"/>
<circle r="2.74605" transform="matrix(-0.372644 -0.927974 -0.927974 0.372644 39.7002 168.273)" fill="white"/>
<circle r="2.74605" transform="matrix(-0.372644 -0.927974 -0.927974 0.372644 67.6545 175.987)" fill="white"/>
<circle r="2.74605" transform="matrix(-0.372644 -0.927974 -0.927974 0.372644 103.13 164.108)" fill="white"/>
<circle r="2.74605" transform="matrix(-0.372644 -0.927974 -0.927974 0.372644 90.2878 170.449)" fill="white"/>
<circle r="2.74605" transform="matrix(-0.372644 -0.927974 -0.927974 0.372644 247.279 182.672)" fill="white"/>
<circle r="2.74605" transform="matrix(-0.372644 -0.927974 -0.927974 0.372644 100.729 199.399)" fill="white"/>
<circle r="2.74605" transform="matrix(-0.372644 -0.927974 -0.927974 0.372644 122.175 220.379)" fill="white"/>
<circle r="2.74605" transform="matrix(-0.372644 -0.927974 -0.927974 0.372644 91.7724 212.465)" fill="white"/>
<circle r="2.74605" transform="matrix(-0.372644 -0.927974 -0.927974 0.372644 85.2553 219.816)" fill="white"/>
<circle r="2.74605" transform="matrix(-0.372644 -0.927974 -0.927974 0.372644 77.6867 203.917)" fill="white"/>
<circle r="2.74605" transform="matrix(-0.372644 -0.927974 -0.927974 0.372644 63.1921 194.35)" fill="white"/>
<circle r="2.74605" transform="matrix(-0.372644 -0.927974 -0.927974 0.372644 66.6911 217.802)" fill="white"/>
<circle r="2.74605" transform="matrix(-0.372644 -0.927974 -0.927974 0.372644 51.5703 197.833)" fill="white"/>
<circle r="2.74605" transform="matrix(-0.372644 -0.927974 -0.927974 0.372644 51.4016 223.942)" fill="white"/>
<circle r="2.74605" transform="matrix(-0.372644 -0.927974 -0.927974 0.372644 44.0417 211.51)" fill="white"/>
<circle r="2.74605" transform="matrix(-0.372644 -0.927974 -0.927974 0.372644 42.3967 201.517)" fill="white"/>
<circle r="2.74605" transform="matrix(-0.372644 -0.927974 -0.927974 0.372644 35.4941 225.595)" fill="white"/>
<circle r="2.74605" transform="matrix(-0.372644 -0.927974 -0.927974 0.372644 20.5979 220.924)" fill="white"/>
<circle r="2.74605" transform="matrix(-0.372644 -0.927974 -0.927974 0.372644 28.1103 195.417)" fill="white"/>
<circle r="2.74605" transform="matrix(-0.372644 -0.927974 -0.927974 0.372644 32.7895 186.436)" fill="white"/>
<circle r="2.74605" transform="matrix(-0.372644 -0.927974 -0.927974 0.372644 27.2597 169.718)" fill="white"/>
<circle r="2.74605" transform="matrix(-0.372644 -0.927974 -0.927974 0.372644 16.2961 207.263)" fill="white"/>
<circle r="2.74605" transform="matrix(-0.372644 -0.927974 -0.927974 0.372644 15.2527 189.927)" fill="white"/>
<circle r="2.74605" transform="matrix(-0.372644 -0.927974 -0.927974 0.372644 77.2217 161.492)" fill="white"/>
<circle r="2.74605" transform="matrix(-0.372644 -0.927974 -0.927974 0.372644 59.677 159.068)" fill="white"/>
<circle r="2.74605" transform="matrix(-0.372644 -0.927974 -0.927974 0.372644 91.6845 147.398)" fill="white"/>
</svg>
