<svg width="18" height="19" viewBox="0 0 18 19" fill="none" xmlns="http://www.w3.org/2000/svg">
<g clip-path="url(#clip0)">
<path d="M17.9531 7.74017C17.8353 7.37569 17.512 7.11682 17.1295 7.08235L11.9342 6.61061L9.87984 1.80218C9.72837 1.44979 9.38339 1.22168 9.00009 1.22168C8.6168 1.22168 8.27182 1.44979 8.12034 1.80301L6.06598 6.61061L0.869863 7.08235C0.488078 7.11764 0.165621 7.37569 0.0471028 7.74017C-0.0714153 8.10465 0.0380389 8.50443 0.326849 8.75643L4.25388 12.2005L3.09589 17.3014C3.01115 17.6765 3.15673 18.0642 3.46792 18.2891C3.63519 18.41 3.83089 18.4715 4.02824 18.4715C4.19839 18.4715 4.36718 18.4256 4.51865 18.335L9.00009 15.6566L13.4799 18.335C13.8077 18.5322 14.2209 18.5142 14.5314 18.2891C14.8428 18.0635 14.9882 17.6756 14.9035 17.3014L13.7455 12.2005L17.6725 8.75712C17.9613 8.50443 18.0716 8.10534 17.9531 7.74017Z" fill="white"/>
</g>
<defs>
<clipPath id="clip0">
<rect width="18" height="18" fill="white" transform="translate(0 0.834961)"/>
</clipPath>
</defs>
</svg>
