<svg width="12" height="35" viewBox="0 0 12 35" fill="none" xmlns="http://www.w3.org/2000/svg">
<path d="M5.22242 1.46343C4.96646 1.13777 5.02297 0.66627 5.34863 0.410311C5.6743 0.15435 6.1458 0.210858 6.40176 0.536522L5.22242 1.46343ZM9.41062 21.6942L8.68331 21.5111L9.41062 21.6942ZM3.97469 34.9379C3.58108 35.0669 3.15741 34.8524 3.0284 34.4588L0.926052 28.0445C0.797042 27.6509 1.01154 27.2273 1.40515 27.0983C1.79876 26.9692 2.22243 27.1837 2.35144 27.5774L4.2202 33.2789L9.92175 31.4102C10.3154 31.2812 10.739 31.4957 10.868 31.8893C10.9971 32.2829 10.7826 32.7065 10.3889 32.8356L3.97469 34.9379ZM6.40176 0.536522C11.0753 6.48274 11.9434 14.7043 10.1379 21.8772L8.68331 21.5111C10.4071 14.6628 9.53732 6.9534 5.22242 1.46343L6.40176 0.536522ZM10.1379 21.8772C9.01061 26.3559 6.39406 30.6456 4.41022 34.564L3.07197 33.8864C5.13652 29.8087 7.61013 25.7746 8.68331 21.5111L10.1379 21.8772Z" fill="#2A2A2A"/>
</svg>
