<svg aria-hidden="true" xmlns="http://www.w3.org/2000/svg" overflow="hidden"><defs><symbol id="changes" viewBox="0 0 32 32"><path d="M25.427 6.573l-1.88 1.88c1.92 1.933 3.12 4.6 3.12 7.547 0 5.893-4.773 10.667-10.667 10.667S5.333 21.894 5.333 16c0-5.44 4.067-9.92 9.333-10.573V8.12c-3.787.64-6.667 3.92-6.667 7.88 0 4.413 3.587 8 8 8s8-3.587 8-8a7.923 7.923 0 00-2.347-5.653l-1.88 1.88A5.367 5.367 0 0121.332 16c0 2.947-2.387 5.333-5.333 5.333S10.666 18.946 10.666 16c0-2.48 1.707-4.547 4-5.147v2.853a2.64 2.64 0 00-1.333 2.293c0 1.467 1.2 2.667 2.667 2.667s2.667-1.2 2.667-2.667c0-.987-.533-1.84-1.333-2.293V2.666h-1.333c-7.36 0-13.333 5.973-13.333 13.333s5.973 13.333 13.333 13.333 13.333-5.973 13.333-13.333c0-3.68-1.493-7.013-3.907-9.427z"/></symbol><symbol id="insights" viewBox="0 0 32 32"><path d="M28 10.666c-1.933 0-3.013 1.92-2.573 3.347l-4.733 4.747c-.4-.12-.987-.12-1.387 0l-3.4-3.4c.453-1.427-.627-3.36-2.573-3.36-1.933 0-3.027 1.92-2.573 3.36l-6.08 6.067c-1.427-.44-3.347.64-3.347 2.573 0 1.467 1.2 2.667 2.667 2.667 1.933 0 3.013-1.92 2.573-3.347l6.067-6.08c.4.12.987.12 1.387 0l3.4 3.4c-.453 1.427.627 3.36 2.573 3.36 1.933 0 3.027-1.92 2.573-3.36l4.747-4.733c1.427.44 3.347-.64 3.347-2.573 0-1.467-1.2-2.667-2.667-2.667z"/><path d="M20 12l1.253-2.76L24 8l-2.747-1.24L20 4l-1.227 2.76L16 8l2.773 1.24L20 12zM4.666 14.667L5.333 12 8 11.333l-2.667-.667-.667-2.667-.667 2.667-2.667.667L3.999 12l.667 2.667z"/></symbol><symbol id="people" viewBox="0 0 32 32"><path d="M12 18.333c-3.12 0-9.333 1.56-9.333 4.667v2.333h18.667V23c0-3.107-6.213-4.667-9.333-4.667zm-6.213 4.334C6.907 21.894 9.614 21 12 21s5.093.893 6.213 1.667H5.786zM12 16c2.573 0 4.667-2.093 4.667-4.667S14.574 6.666 12 6.666c-2.573 0-4.667 2.093-4.667 4.667S9.426 16 12 16zm0-6.667c1.107 0 2 .893 2 2s-.893 2-2 2-2-.893-2-2 .893-2 2-2zm9.387 9.08C22.934 19.533 24 21.026 24 23v2.333h5.333V23c0-2.693-4.667-4.227-7.947-4.587zM20 16c2.573 0 4.667-2.093 4.667-4.667S22.574 6.666 20 6.666c-.72 0-1.387.173-2 .467.84 1.187 1.333 2.64 1.333 4.2s-.493 3.013-1.333 4.2c.613.293 1.28.467 2 .467z"/></symbol><symbol id="task" viewBox="0 0 32 32"><path d="M29.334 6.907L14.121 22.134l-5.653-5.653 1.88-1.88 3.773 3.773L27.454 5.041l1.88 1.867zm-2.947 6.72c.173.76.28 1.56.28 2.373 0 5.893-4.773 10.667-10.667 10.667S5.333 21.894 5.333 16c0-5.893 4.773-10.667 10.667-10.667 2.107 0 4.053.613 5.707 1.667l1.92-1.92A13.2 13.2 0 0016 2.667C8.64 2.667 2.667 8.64 2.667 16S8.64 29.333 16 29.333 29.333 23.36 29.333 16a13.36 13.36 0 00-.8-4.52l-2.147 2.147z"/></symbol><symbol id="try" viewBox="0 0 32 32"><path d="M26.667 2.667H5.334a2.675 2.675 0 00-2.667 2.667v24L8 24.001h18.667c1.467 0 2.667-1.2 2.667-2.667v-16c0-1.467-1.2-2.667-2.667-2.667zm0 18.666H6.894l-1.56 1.56V5.333h21.333v16z"/><path d="M16.001 20l2.093-4.573 4.573-2.093-4.573-2.093-2.093-4.573-2.093 4.573-4.573 2.093 4.573 2.093L16.001 20z"/></symbol><symbol id="arrow" viewBox="0 0 27 32"><path d="M27.246 14.456a2.453 2.453 0 00-.48-.8L15.337 1.535c-.213-.226-.466-.405-.745-.528s-.577-.185-.878-.185a2.23 2.23 0 00-1.623.713 2.457 2.457 0 00-.498.79 2.553 2.553 0 00.497 2.653l7.543 7.976H2.284c-.606 0-1.188.255-1.616.71s-.669 1.071-.669 1.714.241 1.26.669 1.714 1.01.71 1.616.71h17.349l-7.543 7.976a2.441 2.441 0 00-.5.789 2.55 2.55 0 000 1.864c.116.295.286.563.5.789.212.227.465.408.744.531a2.174 2.174 0 001.758 0c.279-.123.531-.304.744-.531l11.429-12.121c.208-.231.371-.502.48-.8a2.555 2.555 0 000-1.842z"/></symbol><symbol id="done" viewBox="0 0 24 24"><path d="M9 16.219L19.594 5.578 21 6.984l-12 12-5.578-5.578L4.781 12z"/></symbol></defs></svg>