<svg width="143" height="37" fill="none" xmlns="http://www.w3.org/2000/svg"><path d="M53.804 7.053a2 2 0 011.88-2.129l82.685-4.81a2 2 0 012.111 1.849l2.006 26.973a2 2 0 01-1.872 2.145l-82.883 5.096a2 2 0 01-2.119-1.864l-1.808-27.26z" fill="#FEC830"/><path d="M3.91 34.439a2.007 2.007 0 01-2.122-1.903C1.424 25.368.481 10.893.132 5.598a1.992 1.992 0 011.879-2.119L45.043.925a2 2 0 011.701.773L56.922 14.87a2 2 0 01.123 2.267l-8.507 13.89a2 2 0 01-1.592.953L3.91 34.439z" fill="#000"/><path d="M11.125 18.712a7.19 7.19 0 01.385-2.91 7.085 7.085 0 011.436-2.432 7.45 7.45 0 012.335-1.71 8.18 8.18 0 013.017-.774c1.203-.08 2.278.024 3.226.314.97.3 1.878.767 2.683 1.38l-2.128 2.905a6.067 6.067 0 00-1.674-.876 4.892 4.892 0 00-1.848-.2 3.447 3.447 0 00-1.4.373 3.414 3.414 0 00-1.118.915c-.652.79-.94 1.726-.867 2.807.078 1.151.506 2.077 1.283 2.777.777.7 1.728 1.012 2.855.936.92-.062 1.668-.317 2.243-.763l-.12-1.771-2.832.19-.193-2.826 6.56-.439.434 6.372c-1.685 1.56-3.693 2.417-6.024 2.571-1.465.099-2.808-.124-4.03-.668a6.966 6.966 0 01-2.955-2.433c-.75-1.079-1.172-2.325-1.268-3.738zM28.6 17.564c-.07-.98.064-1.963.396-2.89a7.3 7.3 0 011.446-2.445 7.529 7.529 0 012.338-1.73 8.322 8.322 0 016.091-.411c.929.295 1.79.769 2.533 1.393a7.175 7.175 0 011.742 2.228c.45.881.713 1.845.776 2.83a7.09 7.09 0 01-.396 2.891 7.263 7.263 0 01-1.441 2.448 7.493 7.493 0 01-2.332 1.726c-.94.454-1.96.72-3.004.783-1.437.096-2.765-.142-3.983-.716a7.172 7.172 0 01-4.166-6.107zm4.044-.27c.07 1.044.476 1.917 1.216 2.62.74.703 1.636 1.019 2.69.948 1.067-.07 1.913-.498 2.538-1.283.625-.784.901-1.708.829-2.771-.071-1.044-.476-1.918-1.215-2.62-.74-.704-1.644-1.02-2.713-.948-1.054.07-1.893.498-2.518 1.282-.625.784-.901 1.708-.827 2.772zm33.562 10.089l-.963-14.105 3.945-.263.966 14.105-3.948.263zm5.248-11.073l-.234-3.433 12.502-.836.234 3.433-4.282.285.729 10.675-3.945.264-.729-10.675-4.275.288zm12.237 4.44a6.078 6.078 0 01.261-2.262 5.51 5.51 0 011.013-1.89 5.292 5.292 0 011.682-1.329 5.622 5.622 0 012.21-.598c.92-.061 1.753.043 2.498.313a4.562 4.562 0 011.838 1.194 5.927 5.927 0 011.138 1.827c.284.726.453 1.492.499 2.27.024.347.035.61.034.788l-7.374.493c.193.587.508 1.022.945 1.306.438.284.96.405 1.567.364.858-.06 1.646-.492 2.366-1.299l2.258 1.625c-1.074 1.54-2.62 2.378-4.641 2.513-1.146.077-2.181-.091-3.106-.504a5.154 5.154 0 01-2.228-1.867c-.563-.834-.883-1.816-.96-2.945zm3.606-1.15l3.826-.256c-.115-.606-.353-1.074-.715-1.404-.361-.331-.804-.48-1.328-.445a1.677 1.677 0 00-1.22.62c-.317.38-.504.875-.563 1.485zm8.911.313a6.091 6.091 0 01.26-2.262c.21-.69.554-1.332 1.013-1.891a5.306 5.306 0 011.68-1.329 5.616 5.616 0 012.211-.596c.921-.062 1.754.042 2.499.312a4.552 4.552 0 011.838 1.192 5.908 5.908 0 011.138 1.826 7.46 7.46 0 01.499 2.273c.024.348.035.61.034.788l-7.374.493c.194.587.509 1.022.946 1.306.437.284.959.405 1.567.365.861-.058 1.65-.492 2.367-1.3l2.257 1.624c-1.073 1.54-2.62 2.378-4.64 2.513-1.147.077-2.182-.09-3.106-.503a5.156 5.156 0 01-2.229-1.867c-.563-.835-.883-1.816-.96-2.944zm3.605-1.151l3.826-.256c-.115-.605-.353-1.073-.715-1.404-.362-.331-.805-.48-1.328-.444a1.66 1.66 0 00-1.22.62c-.318.38-.505.875-.563 1.484zm9.729 5.724l-.742-10.9 3.865-.26.106 1.545c.862-1.257 1.919-1.927 3.173-2.011 1.166-.079 2.106.218 2.821.888.715.671 1.115 1.63 1.2 2.875l.486 7.133-3.865.259-.406-5.889c-.039-.582-.211-1.022-.515-1.32-.305-.299-.693-.432-1.164-.402-.486.033-.867.22-1.144.56-.276.34-.395.798-.357 1.374l.402 5.889-3.86.26zm12.172-2.234l1.292-2.415c1.328.724 2.617 1.045 3.87.96.649-.044.96-.267.932-.668-.013-.19-.157-.34-.429-.447-.273-.107-.743-.221-1.401-.343-.5-.095-.926-.188-1.278-.28a6.802 6.802 0 01-1.084-.388 3.435 3.435 0 01-.902-.565 2.645 2.645 0 01-.589-.806 2.951 2.951 0 01-.286-1.124c-.08-1.154.266-2.08 1.037-2.78.772-.699 1.813-1.092 3.125-1.179a8.624 8.624 0 012.43.184 7.906 7.906 0 012.203.824l-1.156 2.517a9.8 9.8 0 00-1.778-.597c-.595-.136-1.112-.19-1.548-.16-.292.019-.511.081-.656.188a.454.454 0 00-.203.416c.013.192.155.341.425.447.27.106.746.233 1.428.38.5.101.926.2 1.279.3.371.105.734.24 1.085.4.328.14.633.331.902.565.243.225.443.494.588.791.167.341.264.712.284 1.091.081 1.191-.261 2.133-1.025 2.825-.764.693-1.836 1.085-3.215 1.177-1.968.131-3.744-.307-5.33-1.313z" fill="#fff"/></svg>