<svg width="60" height="60" viewBox="0 0 60 60" fill="none" xmlns="http://www.w3.org/2000/svg">
<path fill-rule="evenodd" clip-rule="evenodd" d="M41.4583 32.9857C39.1128 31.7362 37.5133 29.2653 37.5133 26.4265C37.5133 22.3304 40.8437 19 44.9398 19C49.036 19 52.3664 22.3304 52.3664 26.4265C52.3664 29.2653 50.7669 31.7362 48.4214 32.9857C54.5523 34.5388 59.1216 40.0936 59.1518 46.6939C59.1518 46.872 59.0805 47.0323 58.9559 47.157C58.8312 47.2816 58.6709 47.3529 58.4928 47.3529H31.3869C31.2088 47.3529 31.0485 47.2816 30.9238 47.157C30.7991 47.0323 30.7279 46.872 30.7279 46.6939C30.758 40.0936 35.3274 34.5388 41.4583 32.9857ZM38.8134 26.4265C38.8134 23.0427 41.5561 20.3001 44.9398 20.3001C48.3058 20.3001 51.0663 23.0605 51.0663 26.4265C51.0663 29.8103 48.3236 32.553 44.9398 32.553C41.5561 32.553 38.8134 29.8103 38.8134 26.4265ZM57.8161 46.0528H32.0458C32.4198 39.2674 38.0654 33.8533 44.9398 33.8711C51.7965 33.8711 57.4421 39.2674 57.8161 46.0528Z" fill="#010101"/>
<path d="M20.4241 52H26.0317C26.4268 52 26.7279 51.682 26.7279 51.2845V33.3179H30.4314C30.7876 33.3179 31.0725 33.0329 31.0725 32.6589C31.0725 32.2849 30.7698 32 30.4136 32H26.7279V11.7353C26.7279 11.318 26.408 11 26.0317 11H20.4241C20.029 11 19.7279 11.318 19.7279 11.7353C19.7279 12.1527 20.0478 12.4707 20.4241 12.4707H25.3542V32H20.3868C20.0128 32 19.7279 32.3028 19.7279 32.6589C19.7279 33.0329 20.0307 33.3179 20.3868 33.3179H25.3542V50.5293H20.4241C20.029 50.5293 19.7279 50.8671 19.7279 51.2646C19.7279 51.682 20.0478 52 20.4241 52Z" fill="#010101"/>
<path fill-rule="evenodd" clip-rule="evenodd" d="M10.8695 55.8535C6.9336 55.8535 3.72791 52.6478 3.72791 48.7119C3.72791 44.776 6.9336 41.5703 10.8695 41.5703C14.8054 41.5703 18.0111 44.776 18.0111 48.7119C18.0111 52.6478 14.8054 55.8535 10.8695 55.8535ZM9.81872 51.3121C9.99682 51.3121 10.1571 51.2408 10.2818 51.1162L14.4492 46.9488C14.6985 46.6994 14.6985 46.2898 14.4492 46.0226C14.1998 45.7733 13.7902 45.7733 13.5231 46.0226L9.81872 49.727L8.19807 48.1064C7.94874 47.8571 7.53913 47.8571 7.27199 48.1064C7.02266 48.3557 7.02266 48.7653 7.27199 49.0325L9.35568 51.1162C9.48035 51.2408 9.64063 51.3121 9.81872 51.3121Z" fill="#FFB300"/>
<path d="M6.09952 34.345C5.57464 34.777 4.89761 35.0368 4.16388 35.0474L4.16384 35.0474C3.32194 35.0593 2.56485 34.7034 2.01052 34.149C1.45468 33.5932 1.12395 32.8365 1.11214 31.9985C1.10029 31.1566 1.4562 30.3995 2.01053 29.8452C2.55473 29.301 3.32276 28.9586 4.16102 28.9468L4.16102 28.9468H4.16243C4.90744 28.9468 5.57572 29.2151 6.0979 29.6473V27.08C6.0979 26.9628 6.14219 26.8571 6.21869 26.7806C6.29518 26.7041 6.40085 26.6598 6.51799 26.6598C6.51802 26.6598 6.51806 26.6598 6.51809 26.6598L10.1428 26.6483L10.1431 26.6483C10.3251 26.6483 10.4727 26.7682 10.5324 26.9149C10.6098 27.0879 10.543 27.2674 10.431 27.3794L10.4308 27.3796L10.4306 27.3798L10.4304 27.38L10.4302 27.3802L10.43 27.3804L10.4298 27.3806L10.4296 27.3808L10.4294 27.381L10.4292 27.3812L10.429 27.3814L10.4288 27.3816L10.4286 27.3818L10.4284 27.382L10.4282 27.3822L10.428 27.3824L10.4278 27.3826L10.4276 27.3828L10.4274 27.383L10.4272 27.3832L10.427 27.3834L10.4268 27.3836L10.4266 27.3838L10.4264 27.384L10.4262 27.3842L10.426 27.3844L10.4258 27.3846L10.4256 27.3848L10.4254 27.385L10.4252 27.3852L10.425 27.3854L10.4248 27.3856L10.4246 27.3858L10.4244 27.386L10.4242 27.3862L10.424 27.3864L10.4238 27.3866L10.4236 27.3868L10.4234 27.387L10.4232 27.3872L10.423 27.3874L10.4228 27.3876L10.4226 27.3878L10.4224 27.388L10.4222 27.3882L10.422 27.3884L10.4218 27.3886L10.4216 27.3888L10.4214 27.389L10.4212 27.3892L10.421 27.3894L10.4208 27.3896L10.4206 27.3898L10.4204 27.39L10.4202 27.3902L10.42 27.3904L10.4198 27.3906L10.4196 27.3908L10.4194 27.391L10.4192 27.3912L10.419 27.3914L10.4188 27.3916L10.4186 27.3918L10.4184 27.392L10.4182 27.3922L10.418 27.3924L10.4178 27.3926L10.4176 27.3928L10.4174 27.393L10.4172 27.3932L10.417 27.3934L10.4168 27.3936L10.4166 27.3938L10.4164 27.394L10.4162 27.3942L10.416 27.3944L10.4158 27.3946L10.4156 27.3948L10.4154 27.3951L10.4152 27.3953L10.415 27.3955L10.4148 27.3957L10.4146 27.3959L10.4144 27.3961L10.4142 27.3963L10.414 27.3965L10.4138 27.3967L10.4135 27.3969L10.4133 27.3971L10.4131 27.3973L10.4129 27.3975L10.4127 27.3977L10.4125 27.3979L10.4123 27.3981L10.4121 27.3983L10.4119 27.3985L10.4117 27.3987L10.4115 27.3989L10.4113 27.3991L10.4111 27.3993L10.4109 27.3995L10.4107 27.3997L10.4105 27.3999L10.4103 27.4001L10.4101 27.4003L10.4099 27.4005L10.4097 27.4007L10.4095 27.4009L10.4093 27.4011L10.4091 27.4013L10.4089 27.4015L10.4087 27.4017L10.4085 27.4019L10.4083 27.4021L10.4081 27.4023L10.4079 27.4025L10.4077 27.4027L10.4075 27.4029L10.4073 27.4031L10.4071 27.4033L10.4069 27.4035L10.4067 27.4037L10.4065 27.4039L10.4063 27.4041L10.4061 27.4043L10.4059 27.4045L10.4057 27.4047L10.4055 27.4049L10.4053 27.4051L10.4051 27.4053L10.4049 27.4055L10.4047 27.4057L10.4045 27.4059L10.4043 27.4061L10.4041 27.4063L10.4039 27.4065L10.4037 27.4067L10.4035 27.4069L10.4033 27.4071L10.4031 27.4073L10.4029 27.4075L10.4027 27.4077L10.4025 27.4079L10.4023 27.4081L10.4021 27.4083L10.4019 27.4085L10.4017 27.4087L10.4015 27.4089L10.4013 27.4091L10.4011 27.4093L10.4009 27.4095L10.4007 27.4097L10.4005 27.4099L10.4003 27.4101L10.4001 27.4103L10.3999 27.4105L10.3997 27.4107L10.3995 27.4109L10.3993 27.4111L10.3991 27.4113L10.3989 27.4115L10.3987 27.4117L10.3985 27.4119L10.3983 27.4121L10.3981 27.4123L10.3979 27.4125L10.3977 27.4127L10.3975 27.4129L10.3973 27.4131L10.3971 27.4133L10.3969 27.4135L10.3967 27.4137L10.3965 27.4139L10.3963 27.4141L10.3961 27.4143L10.3959 27.4145L10.3957 27.4147L10.3955 27.4149L10.3953 27.4152L10.3951 27.4154L10.3949 27.4156L10.3947 27.4158L10.3945 27.416L10.3943 27.4162L10.3941 27.4164L10.3939 27.4166L10.3937 27.4168L10.3934 27.417L10.3932 27.4172L10.393 27.4174L10.3928 27.4176L10.3926 27.4178L10.3924 27.418L10.3922 27.4182L10.392 27.4184L10.3918 27.4186L10.3916 27.4188L10.3914 27.419L10.3912 27.4192L10.391 27.4194L10.3908 27.4196L10.3906 27.4198L10.3904 27.42L10.3902 27.4202L10.39 27.4204L10.3898 27.4206L10.3896 27.4208L10.3894 27.421L10.3892 27.4212L10.389 27.4214L10.3888 27.4216L10.3886 27.4218L10.3884 27.422L10.3882 27.4222L10.388 27.4224L10.3878 27.4226L10.3876 27.4228L10.3874 27.423L10.3872 27.4232L10.387 27.4234L10.3868 27.4236L10.3866 27.4238L10.3864 27.424L10.3862 27.4242L10.386 27.4244L10.3858 27.4246L10.3856 27.4248L10.3854 27.425L10.3852 27.4252L10.385 27.4254L10.3848 27.4256L10.3846 27.4258L10.3844 27.426L10.3842 27.4262L10.384 27.4264L10.3838 27.4266L10.3836 27.4268L10.3834 27.427L10.3832 27.4272L10.383 27.4274L10.3828 27.4276L10.3826 27.4278L10.3824 27.428L10.3822 27.4282L10.382 27.4284L10.3818 27.4286L10.3816 27.4288L10.3814 27.429L10.3812 27.4292L10.381 27.4294L10.3808 27.4296L10.3806 27.4298L10.3804 27.43L10.3802 27.4302L10.38 27.4304L10.3798 27.4306L10.3796 27.4308L10.3794 27.431L10.3792 27.4312L10.379 27.4314L10.3788 27.4316L10.3786 27.4318L10.3784 27.432L10.3782 27.4322L10.378 27.4324L10.3778 27.4326L10.3776 27.4328L10.3774 27.433L10.3772 27.4332L10.377 27.4334L10.3768 27.4336L10.3766 27.4338L10.3764 27.434L10.3762 27.4342L10.376 27.4344L10.3758 27.4346L10.3756 27.4348L10.3754 27.435L10.3752 27.4353L10.375 27.4355L10.3748 27.4357L10.3746 27.4359L10.3744 27.4361L10.3742 27.4363L10.374 27.4365L10.3738 27.4367L10.3736 27.4369L10.3733 27.4371L10.3731 27.4373L10.3729 27.4375L10.3727 27.4377L10.3725 27.4379L10.3723 27.4381L10.3721 27.4383L10.3719 27.4385L10.3717 27.4387L10.3715 27.4389L10.3713 27.4391L10.3711 27.4393L10.3709 27.4395L10.3707 27.4397L10.3705 27.4399L10.3703 27.4401L10.3701 27.4403L10.3699 27.4405L10.3697 27.4407L10.3695 27.4409L10.3693 27.4411L10.3691 27.4413L10.3689 27.4415L10.3687 27.4417L10.3685 27.4419L10.3683 27.4421L10.3681 27.4423L10.3679 27.4425L10.3677 27.4427L10.3675 27.4429L10.3673 27.4431L10.3671 27.4433L10.3669 27.4435L10.3667 27.4437L10.3665 27.4439L10.3663 27.4441L10.3661 27.4443L10.3659 27.4445L10.3657 27.4447L10.3655 27.4449L10.3653 27.4451L10.3651 27.4453L10.3649 27.4455L10.3647 27.4457L10.3645 27.4459L10.3643 27.4461L10.3641 27.4463L10.3639 27.4465L10.3637 27.4467L10.3635 27.4469L10.3633 27.4471L10.3631 27.4473L10.3629 27.4475L10.3627 27.4477L10.3625 27.4479L10.3623 27.4481L10.3621 27.4483L10.3619 27.4485L10.3617 27.4487L10.3615 27.4489L10.3613 27.4491L10.3611 27.4493L10.3609 27.4495L10.3607 27.4497L10.3605 27.4499L10.3603 27.4501L10.3601 27.4503L10.3599 27.4505L10.3597 27.4507L10.3595 27.4509L10.3593 27.4511L10.3591 27.4513L10.3589 27.4515L10.3587 27.4517L10.3585 27.4519L10.3583 27.4521L10.3581 27.4523L10.3579 27.4525L10.3577 27.4527L10.3575 27.4529L10.3573 27.4531L10.3571 27.4533L10.3569 27.4535L10.3567 27.4537L10.3565 27.4539L10.3563 27.4541L10.3561 27.4543L10.3559 27.4545L10.3557 27.4547L10.3555 27.4549L10.3553 27.4551L10.3551 27.4553L10.3549 27.4556L10.3547 27.4558L10.3545 27.456L10.3543 27.4562L10.3541 27.4564L10.3539 27.4566L10.3537 27.4568L10.3535 27.457L10.3532 27.4572L10.353 27.4574L10.3528 27.4576L10.3526 27.4578L10.3524 27.458L10.3522 27.4582L10.352 27.4584L10.3518 27.4586L10.3516 27.4588L10.3514 27.459L10.3512 27.4592L10.351 27.4594L10.3508 27.4596L10.3506 27.4598L10.3504 27.46L10.3502 27.4602L10.35 27.4604L10.3498 27.4606L10.3496 27.4608L10.3494 27.461L10.3492 27.4612L10.349 27.4614L10.3488 27.4616L10.3486 27.4618L10.3484 27.462L10.3482 27.4622L10.348 27.4624L10.3478 27.4626L10.3476 27.4628L10.3474 27.463L10.3472 27.4632L10.347 27.4634L10.3468 27.4636L10.3466 27.4638L10.3464 27.464L10.3462 27.4642L10.346 27.4644L10.3458 27.4646L10.3456 27.4648L10.3454 27.465L10.3452 27.4652L10.345 27.4654L10.3448 27.4656L10.3446 27.4658L10.3444 27.466L10.3442 27.4662L10.344 27.4664L10.3438 27.4666L10.3436 27.4668L10.3434 27.467L10.3432 27.4672L10.343 27.4674L10.3428 27.4676L10.3426 27.4678L10.3424 27.468L10.3422 27.4682L10.342 27.4684L10.3418 27.4686L10.3416 27.4688L10.3414 27.469L10.3412 27.4692L10.341 27.4694L10.3408 27.4696L10.3406 27.4698L10.3404 27.47L10.3402 27.4702L10.34 27.4704L10.3398 27.4706L10.3396 27.4708L10.3394 27.471L10.3392 27.4712L10.339 27.4714L10.3388 27.4716L10.3386 27.4718L10.3384 27.472L10.3382 27.4722L10.338 27.4724L10.3378 27.4726L10.3376 27.4728L10.3374 27.473L10.3372 27.4732L10.337 27.4734L10.3368 27.4736L10.3366 27.4738L10.3364 27.474L10.3362 27.4742L10.336 27.4744L10.3358 27.4746L10.3356 27.4748L10.3354 27.475L10.3352 27.4752L10.335 27.4755L10.3348 27.4757L10.3346 27.4759L10.3344 27.4761L10.3342 27.4763L10.334 27.4765L10.3338 27.4767L10.3336 27.4769L10.3334 27.4771L10.3331 27.4773L10.3329 27.4775L10.3327 27.4777L10.3325 27.4779L10.3323 27.4781L10.3321 27.4783L10.3319 27.4785L10.3317 27.4787L10.3315 27.4789L10.3313 27.4791L10.3311 27.4793L10.3309 27.4795L10.3307 27.4797L10.3305 27.4799L10.3303 27.4801L10.3301 27.4803L10.3299 27.4805L10.3297 27.4807L10.3295 27.4809L10.3293 27.4811L10.3291 27.4813L10.3289 27.4815L10.3287 27.4817L10.3285 27.4819L10.3283 27.4821L10.3281 27.4823C9.93447 27.8759 9.68275 28.434 9.68275 29.0468C9.68275 29.66 9.92329 30.2065 10.3281 30.6114C10.722 31.0053 11.2796 31.2562 11.8794 31.2453L11.8794 31.2453L11.8812 31.2453C12.4944 31.2453 13.0409 31.0047 13.4457 30.5999C13.8394 30.2062 14.0911 29.6482 14.0911 29.0354C14.0911 28.4222 13.8506 27.8757 13.4458 27.4709L13.4456 27.4707L13.4454 27.4705L13.4452 27.4703L13.445 27.4701L13.4448 27.4699L13.4446 27.4697L13.4444 27.4695L13.4442 27.4693L13.444 27.4691L13.4438 27.4689L13.4436 27.4687L13.4434 27.4685L13.4432 27.4683L13.443 27.4681L13.4428 27.4679L13.4426 27.4677L13.4423 27.4675L13.4421 27.4673L13.4419 27.4671L13.4417 27.4669L13.4415 27.4667L13.4413 27.4665L13.4411 27.4662L13.4409 27.466L13.4407 27.4658L13.4405 27.4656L13.4403 27.4654L13.4401 27.4652L13.4399 27.465L13.4397 27.4648L13.4395 27.4646L13.4393 27.4644L13.4391 27.4642L13.4389 27.464L13.4387 27.4638L13.4385 27.4636L13.4383 27.4634L13.4381 27.4632L13.4379 27.463L13.4377 27.4628L13.4375 27.4626L13.4373 27.4624L13.4371 27.4622L13.4369 27.462L13.4367 27.4618L13.4365 27.4616L13.4363 27.4614L13.4361 27.4612L13.4359 27.461L13.4357 27.4608L13.4355 27.4606L13.4353 27.4604L13.4351 27.4602L13.4349 27.46L13.4347 27.4598L13.4345 27.4596L13.4343 27.4594L13.4341 27.4592L13.4339 27.459L13.4337 27.4588L13.4335 27.4586L13.4333 27.4584L13.4331 27.4582L13.4329 27.458L13.4327 27.4578L13.4325 27.4576L13.4323 27.4574L13.4321 27.4572L13.4319 27.457L13.4317 27.4568L13.4315 27.4566L13.4313 27.4564L13.4311 27.4562L13.4309 27.456L13.4307 27.4558L13.4305 27.4556L13.4303 27.4554L13.4301 27.4552L13.4299 27.455L13.4297 27.4548L13.4295 27.4546L13.4293 27.4544L13.4291 27.4542L13.4289 27.454L13.4287 27.4538L13.4285 27.4536L13.4283 27.4534L13.4281 27.4532L13.4279 27.453L13.4277 27.4528L13.4275 27.4526L13.4273 27.4524L13.4271 27.4522L13.4269 27.452L13.4267 27.4518L13.4265 27.4516L13.4263 27.4514L13.4261 27.4512L13.4259 27.451L13.4257 27.4508L13.4255 27.4506L13.4253 27.4504L13.4251 27.4502L13.4249 27.45L13.4247 27.4498L13.4245 27.4496L13.4243 27.4494L13.4241 27.4492L13.4239 27.449L13.4237 27.4488L13.4235 27.4486L13.4233 27.4484L13.4231 27.4482L13.4228 27.448L13.4226 27.4478L13.4224 27.4476L13.4222 27.4474L13.422 27.4472L13.4218 27.447L13.4216 27.4467L13.4214 27.4465L13.4212 27.4463L13.421 27.4461L13.4208 27.4459L13.4206 27.4457L13.4204 27.4455L13.4202 27.4453L13.42 27.4451L13.4198 27.4449L13.4196 27.4447L13.4194 27.4445L13.4192 27.4443L13.419 27.4441L13.4188 27.4439L13.4186 27.4437L13.4184 27.4435L13.4182 27.4433L13.418 27.4431L13.4178 27.4429L13.4176 27.4427L13.4174 27.4425L13.4172 27.4423L13.417 27.4421L13.4168 27.4419L13.4166 27.4417L13.4164 27.4415L13.4162 27.4413L13.416 27.4411L13.4158 27.4409L13.4156 27.4407L13.4154 27.4405L13.4152 27.4403L13.415 27.4401L13.4148 27.4399L13.4146 27.4397L13.4144 27.4395L13.4142 27.4393L13.414 27.4391L13.4138 27.4389L13.4136 27.4387L13.4134 27.4385L13.4132 27.4383L13.413 27.4381L13.4128 27.4379L13.4126 27.4377L13.4124 27.4375L13.4122 27.4373L13.412 27.4371L13.4118 27.4369L13.4116 27.4367L13.4114 27.4365L13.4112 27.4363L13.411 27.4361L13.4108 27.4359L13.4106 27.4357L13.4104 27.4355L13.4102 27.4353L13.41 27.4351L13.4098 27.4349L13.4096 27.4347L13.4094 27.4345L13.4092 27.4343L13.409 27.4341L13.4088 27.4339L13.4086 27.4337L13.4084 27.4335L13.4082 27.4333L13.408 27.4331L13.4078 27.4329L13.4076 27.4327L13.4074 27.4325L13.4072 27.4323L13.407 27.4321L13.4068 27.4319L13.4066 27.4317L13.4064 27.4315L13.4062 27.4313L13.406 27.4311L13.4058 27.4309L13.4056 27.4307L13.4054 27.4305L13.4052 27.4303L13.405 27.4301L13.4048 27.4299L13.4046 27.4297L13.4044 27.4295L13.4042 27.4293L13.404 27.4291L13.4037 27.4289L13.4035 27.4287L13.4033 27.4285L13.4031 27.4283L13.4029 27.4281L13.4027 27.4279L13.4025 27.4276L13.4023 27.4274L13.4021 27.4272L13.4019 27.427L13.4017 27.4268L13.4015 27.4266L13.4013 27.4264L13.4011 27.4262L13.4009 27.426L13.4007 27.4258L13.4005 27.4256L13.4003 27.4254L13.4001 27.4252L13.3999 27.425L13.3997 27.4248L13.3995 27.4246L13.3993 27.4244L13.3991 27.4242L13.3989 27.424L13.3987 27.4238L13.3985 27.4236L13.3983 27.4234L13.3981 27.4232L13.3979 27.423L13.3977 27.4228L13.3975 27.4226L13.3973 27.4224L13.3971 27.4222L13.3969 27.422L13.3967 27.4218L13.3965 27.4216L13.3963 27.4214L13.3961 27.4212L13.3959 27.421L13.3957 27.4208L13.3955 27.4206L13.3953 27.4204L13.3951 27.4202L13.3949 27.42L13.3947 27.4198L13.3945 27.4196L13.3943 27.4194L13.3941 27.4192L13.3939 27.419L13.3937 27.4188L13.3935 27.4186L13.3933 27.4184L13.3931 27.4182L13.3929 27.418L13.3927 27.4178L13.3925 27.4176L13.3923 27.4174L13.3921 27.4172L13.3919 27.417L13.3917 27.4168L13.3915 27.4166L13.3913 27.4164L13.3911 27.4162L13.3909 27.416L13.3907 27.4158L13.3905 27.4156L13.3903 27.4154L13.3901 27.4152L13.3899 27.415L13.3897 27.4148L13.3895 27.4146L13.3893 27.4144L13.3891 27.4142L13.3889 27.414L13.3887 27.4138L13.3885 27.4136L13.3883 27.4134L13.3881 27.4132L13.3879 27.413L13.3877 27.4128L13.3875 27.4126L13.3873 27.4124L13.3871 27.4122L13.3869 27.412L13.3867 27.4118L13.3865 27.4116L13.3863 27.4114L13.3861 27.4112L13.3859 27.411L13.3857 27.4108L13.3855 27.4106L13.3853 27.4104L13.3851 27.4102L13.3848 27.41L13.3846 27.4098L13.3844 27.4096L13.3842 27.4094L13.384 27.4092L13.3838 27.409L13.3836 27.4087L13.3834 27.4085L13.3832 27.4083L13.383 27.4081L13.3828 27.4079L13.3826 27.4077L13.3824 27.4075L13.3822 27.4073L13.382 27.4071L13.3818 27.4069L13.3816 27.4067L13.3814 27.4065L13.3812 27.4063L13.381 27.4061L13.3808 27.4059L13.3806 27.4057L13.3804 27.4055L13.3802 27.4053L13.38 27.4051L13.3798 27.4049L13.3796 27.4047L13.3794 27.4045L13.3792 27.4043L13.379 27.4041L13.3788 27.4039L13.3786 27.4037L13.3784 27.4035L13.3782 27.4033L13.378 27.4031L13.3778 27.4029L13.3776 27.4027L13.3774 27.4025L13.3772 27.4023L13.377 27.4021L13.3768 27.4019L13.3766 27.4017L13.3764 27.4015L13.3762 27.4013L13.376 27.4011L13.3758 27.4009L13.3756 27.4007L13.3754 27.4005L13.3752 27.4003L13.375 27.4001L13.3748 27.3999L13.3746 27.3997L13.3744 27.3995L13.3742 27.3993L13.374 27.3991L13.3738 27.3989L13.3736 27.3987L13.3734 27.3985L13.3732 27.3983L13.373 27.3981L13.3728 27.3979L13.3726 27.3977L13.3724 27.3975L13.3722 27.3973L13.372 27.3971L13.3718 27.3969L13.3716 27.3967L13.3714 27.3965L13.3712 27.3963L13.371 27.3961L13.3708 27.3959L13.3706 27.3957L13.3704 27.3955L13.3702 27.3953L13.37 27.3951L13.3698 27.3949L13.3696 27.3947L13.3694 27.3945L13.3692 27.3943L13.369 27.3941L13.3688 27.3939L13.3686 27.3937L13.3684 27.3935L13.3682 27.3933L13.368 27.3931L13.3678 27.3929L13.3676 27.3927L13.3674 27.3925L13.3672 27.3923L13.367 27.3921L13.3668 27.3919L13.3666 27.3917L13.3664 27.3915L13.3662 27.3913L13.366 27.3911L13.3657 27.3909L13.3655 27.3907L13.3653 27.3905L13.3651 27.3903L13.3649 27.3901L13.3647 27.3899L13.3645 27.3896L13.3643 27.3894L13.3641 27.3892L13.3639 27.389L13.3637 27.3888L13.3635 27.3886L13.3633 27.3884L13.3631 27.3882L13.3629 27.388L13.3627 27.3878L13.3625 27.3876L13.3623 27.3874L13.3621 27.3872L13.3619 27.387L13.3617 27.3868L13.3615 27.3866L13.3613 27.3864L13.3611 27.3862L13.3609 27.386L13.3607 27.3858L13.3605 27.3856L13.3603 27.3854L13.3601 27.3852L13.3599 27.385L13.3597 27.3848L13.3595 27.3846L13.3593 27.3844L13.3591 27.3842L13.3589 27.384L13.3587 27.3838L13.3585 27.3836L13.3583 27.3834L13.3581 27.3832L13.3579 27.383L13.3577 27.3828L13.3575 27.3826L13.3573 27.3824L13.3571 27.3822L13.3569 27.382L13.3567 27.3818L13.3565 27.3816L13.3563 27.3814L13.3561 27.3812L13.3559 27.381L13.3557 27.3808L13.3555 27.3806L13.3553 27.3804L13.3551 27.3802L13.3549 27.38L13.3547 27.3798L13.3545 27.3796L13.3543 27.3794L13.3541 27.3792L13.3539 27.379L13.3537 27.3788L13.3535 27.3786L13.3533 27.3784L13.3531 27.3782L13.3529 27.378L13.3527 27.3778L13.3525 27.3776L13.3523 27.3774L13.3521 27.3772L13.3519 27.377L13.3517 27.3768L13.3515 27.3766L13.3513 27.3764L13.3511 27.3762L13.3509 27.376L13.3507 27.3758L13.3505 27.3756L13.3503 27.3754L13.3501 27.3752L13.3499 27.375L13.3497 27.3748L13.3495 27.3746L13.3493 27.3744L13.3491 27.3742L13.3489 27.374L13.3487 27.3738L13.3485 27.3736L13.3483 27.3734L13.3481 27.3732L13.3479 27.373L13.3477 27.3728L13.3475 27.3726L13.3473 27.3724L13.3471 27.3722L13.3469 27.372L13.3467 27.3718L13.3465 27.3716L13.3462 27.3714L13.346 27.3712L13.3458 27.371L13.3456 27.3708L13.3454 27.3706L13.3452 27.3704L13.345 27.3701L13.3448 27.3699L13.3446 27.3697L13.3444 27.3695L13.3442 27.3693L13.344 27.3691L13.3438 27.3689L13.3436 27.3687L13.3434 27.3685L13.3432 27.3683L13.343 27.3681L13.3428 27.3679C13.2304 27.2555 13.1635 27.075 13.2425 26.9014C13.3126 26.7471 13.447 26.6369 13.6308 26.6369L17.1757 26.6369C17.4139 26.6369 17.5959 26.8189 17.5959 27.0571L17.5959 37.2573C17.5959 37.4955 17.4139 37.6775 17.1758 37.6775L6.54098 37.6775C6.42382 37.6775 6.31806 37.6333 6.24154 37.5567C6.1651 37.4803 6.12088 37.3747 6.12079 37.2577C6.12079 37.2576 6.12079 37.2575 6.12079 37.2573L6.09952 34.345ZM11.8712 32.0971L11.8712 32.0971H11.8698C11.0415 32.0971 10.2731 31.754 9.71787 31.1988C9.16203 30.6429 8.83131 29.8862 8.81951 29.0482L8.8195 29.0482L8.8195 29.0468C8.8195 28.4745 8.97179 27.9587 9.24139 27.5009L6.92684 27.5111L6.92685 30.8615C6.94025 31.0647 6.78613 31.2392 6.59776 31.2827C6.40263 31.3277 6.20768 31.2241 6.13059 31.0569C6.02022 30.8365 5.87774 30.6291 5.71552 30.4669C5.31069 30.0621 4.76419 29.8215 4.15101 29.8215C3.53782 29.8215 2.99132 30.0621 2.58649 30.4669C2.19283 30.8606 1.94109 31.4186 1.94109 32.0314C1.94109 32.6446 2.18164 33.1911 2.58646 33.5959C2.98037 33.9898 3.53791 34.2408 4.13774 34.2299L4.13774 34.2299L4.13956 34.2299C4.75275 34.2299 5.29928 33.9894 5.70411 33.5845C5.87789 33.4108 6.00924 33.2143 6.11991 32.993C6.20809 32.8166 6.39036 32.7235 6.58634 32.7688C6.78044 32.8136 6.91542 32.9798 6.91542 33.1864L6.91542 36.9053L16.7327 36.8605L16.7327 27.5002L14.4965 27.5002C14.7586 27.9504 14.92 28.4743 14.9201 29.0461C14.9317 29.8877 14.5759 30.6446 14.0217 31.1988C13.4775 31.743 12.7095 32.0853 11.8712 32.0971Z" fill="#010101" stroke="#010101" stroke-width="0.2"/>
<path d="M17.9733 8.55749L17.8734 8.55749L17.9733 8.55749L17.9733 19.1923C17.9733 19.4305 17.7913 19.6124 17.5531 19.6124L14.6192 19.6125C15.0504 20.1371 15.3097 20.8135 15.3203 21.5465L15.3203 21.5465C15.3322 22.3884 14.9763 23.1455 14.4219 23.6998C13.8777 24.244 13.1097 24.5864 12.2714 24.5982L12.2714 24.5982L12.27 24.5982C11.4184 24.5982 10.673 24.2548 10.1181 23.6999C9.57388 23.1556 9.23154 22.3876 9.21973 21.5493L9.21972 21.5479C9.21972 20.8029 9.48801 20.1346 9.92024 19.6125L7.35286 19.6125C7.23569 19.6125 7.12994 19.5682 7.05343 19.4917C6.97691 19.4152 6.93267 19.3094 6.93267 19.1923V15.5787C6.93267 15.3967 7.05253 15.2491 7.19923 15.1894C7.37226 15.112 7.55175 15.1788 7.6637 15.2908L7.6639 15.291L7.6641 15.2912L7.6643 15.2914L7.66451 15.2916L7.66471 15.2918L7.66491 15.292L7.66511 15.2922L7.66531 15.2924L7.66551 15.2926L7.66571 15.2928L7.66591 15.293L7.66611 15.2932L7.66631 15.2934L7.66652 15.2936L7.66672 15.2938L7.66692 15.294L7.66712 15.2942L7.66732 15.2944L7.66752 15.2946L7.66772 15.2948L7.66792 15.295L7.66812 15.2952L7.66833 15.2954L7.66853 15.2956L7.66873 15.2958L7.66893 15.296L7.66913 15.2962L7.66933 15.2964L7.66953 15.2966L7.66973 15.2968L7.66993 15.297L7.67013 15.2972L7.67034 15.2974L7.67054 15.2976L7.67074 15.2978L7.67094 15.298L7.67114 15.2982L7.67134 15.2984L7.67154 15.2986L7.67174 15.2988L7.67194 15.299L7.67214 15.2992L7.67235 15.2994L7.67255 15.2996L7.67275 15.2998L7.67295 15.3L7.67315 15.3002L7.67335 15.3004L7.67355 15.3006L7.67375 15.3008L7.67395 15.301L7.67415 15.3012L7.67436 15.3014L7.67456 15.3016L7.67476 15.3018L7.67496 15.302L7.67516 15.3022L7.67536 15.3024L7.67556 15.3026L7.67576 15.3028L7.67596 15.303L7.67617 15.3032L7.67637 15.3034L7.67657 15.3036L7.67677 15.3038L7.67697 15.304L7.67717 15.3042L7.67737 15.3044L7.67757 15.3046L7.67777 15.3048L7.67797 15.305L7.67818 15.3052L7.67838 15.3054L7.67858 15.3056L7.67878 15.3058L7.67898 15.306L7.67918 15.3062L7.67938 15.3064L7.67958 15.3066L7.67978 15.3068L7.67998 15.307L7.68019 15.3072L7.68039 15.3074L7.68059 15.3076L7.68079 15.3078L7.68099 15.308L7.68119 15.3082L7.68139 15.3084L7.68159 15.3086L7.68179 15.3088L7.68199 15.309L7.6822 15.3092L7.6824 15.3094L7.6826 15.3096L7.6828 15.3098L7.683 15.31L7.6832 15.3103L7.6834 15.3105L7.6836 15.3107L7.6838 15.3109L7.68401 15.3111L7.68421 15.3113L7.68441 15.3115L7.68461 15.3117L7.68481 15.3119L7.68501 15.3121L7.68521 15.3123L7.68541 15.3125L7.68561 15.3127L7.68582 15.3129L7.68602 15.3131L7.68622 15.3133L7.68642 15.3135L7.68662 15.3137L7.68682 15.3139L7.68702 15.3141L7.68722 15.3143L7.68742 15.3145L7.68762 15.3147L7.68783 15.3149L7.68803 15.3151L7.68823 15.3153L7.68843 15.3155L7.68863 15.3157L7.68883 15.3159L7.68903 15.3161L7.68923 15.3163L7.68943 15.3165L7.68963 15.3167L7.68984 15.3169L7.69004 15.3171L7.69024 15.3173L7.69044 15.3175L7.69064 15.3177L7.69084 15.3179L7.69104 15.3181L7.69124 15.3183L7.69144 15.3185L7.69164 15.3187L7.69185 15.3189L7.69205 15.3191L7.69225 15.3193L7.69245 15.3195L7.69265 15.3197L7.69285 15.3199L7.69305 15.3201L7.69325 15.3203L7.69345 15.3205L7.69366 15.3207L7.69386 15.3209L7.69406 15.3211L7.69426 15.3213L7.69446 15.3215L7.69466 15.3217L7.69486 15.3219L7.69506 15.3221L7.69526 15.3223L7.69547 15.3225L7.69567 15.3227L7.69587 15.3229L7.69607 15.3231L7.69627 15.3233L7.69647 15.3235L7.69667 15.3237L7.69687 15.3239L7.69707 15.3241L7.69727 15.3243L7.69748 15.3245L7.69768 15.3247L7.69788 15.3249L7.69808 15.3251L7.69828 15.3253L7.69848 15.3255L7.69868 15.3257L7.69888 15.3259L7.69908 15.3261L7.69929 15.3263L7.69949 15.3265L7.69969 15.3267L7.69989 15.3269L7.70009 15.3271L7.70029 15.3273L7.70049 15.3275L7.70069 15.3277L7.70089 15.3279L7.70109 15.3281L7.7013 15.3283L7.7015 15.3285L7.7017 15.3287L7.7019 15.3289L7.7021 15.3291L7.7023 15.3294L7.7025 15.3296L7.7027 15.3298L7.7029 15.33L7.70311 15.3302L7.70331 15.3304L7.70351 15.3306L7.70371 15.3308L7.70391 15.331L7.70411 15.3312L7.70431 15.3314L7.70451 15.3316L7.70471 15.3318L7.70491 15.332L7.70512 15.3322L7.70532 15.3324L7.70552 15.3326L7.70572 15.3328L7.70592 15.333L7.70612 15.3332L7.70632 15.3334L7.70652 15.3336L7.70672 15.3338L7.70692 15.334L7.70713 15.3342L7.70733 15.3344L7.70753 15.3346L7.70773 15.3348L7.70793 15.335L7.70813 15.3352L7.70833 15.3354L7.70853 15.3356L7.70873 15.3358L7.70894 15.336L7.70914 15.3362L7.70934 15.3364L7.70954 15.3366L7.70974 15.3368L7.70994 15.337L7.71014 15.3372L7.71034 15.3374L7.71054 15.3376L7.71075 15.3378L7.71095 15.338L7.71115 15.3382L7.71135 15.3384L7.71155 15.3386L7.71175 15.3388L7.71195 15.339L7.71215 15.3392L7.71235 15.3394L7.71256 15.3396L7.71276 15.3398L7.71296 15.34L7.71316 15.3402L7.71336 15.3404L7.71356 15.3406L7.71376 15.3408L7.71396 15.341L7.71416 15.3412L7.71436 15.3414L7.71457 15.3416L7.71477 15.3418L7.71497 15.342L7.71517 15.3422L7.71537 15.3424L7.71557 15.3426L7.71577 15.3428L7.71597 15.343L7.71617 15.3432L7.71638 15.3434L7.71658 15.3436L7.71678 15.3438L7.71698 15.344L7.71718 15.3442L7.71738 15.3444L7.71758 15.3446L7.71778 15.3448L7.71798 15.345L7.71818 15.3452L7.71839 15.3454L7.71859 15.3456L7.71879 15.3458L7.71899 15.346L7.71919 15.3462L7.71939 15.3464L7.71959 15.3466L7.71979 15.3468L7.71999 15.347L7.72019 15.3472L7.7204 15.3474L7.7206 15.3476L7.7208 15.3478L7.721 15.348L7.7212 15.3482L7.7214 15.3485L7.7216 15.3487L7.7218 15.3489L7.722 15.3491L7.72221 15.3493L7.72241 15.3495L7.72261 15.3497L7.72281 15.3499L7.72301 15.3501L7.72321 15.3503L7.72341 15.3505L7.72361 15.3507L7.72381 15.3509L7.72401 15.3511L7.72422 15.3513L7.72442 15.3515L7.72462 15.3517L7.72482 15.3519L7.72502 15.3521L7.72522 15.3523L7.72542 15.3525L7.72562 15.3527L7.72582 15.3529L7.72603 15.3531L7.72623 15.3533L7.72643 15.3535L7.72663 15.3537L7.72683 15.3539L7.72703 15.3541L7.72723 15.3543L7.72743 15.3545L7.72763 15.3547L7.72784 15.3549L7.72804 15.3551L7.72824 15.3553L7.72844 15.3555L7.72864 15.3557L7.72884 15.3559L7.72904 15.3561L7.72924 15.3563L7.72944 15.3565L7.72965 15.3567L7.72985 15.3569L7.73005 15.3571L7.73025 15.3573L7.73045 15.3575L7.73065 15.3577L7.73085 15.3579L7.73105 15.3581L7.73125 15.3583L7.73145 15.3585L7.73166 15.3587L7.73186 15.3589L7.73206 15.3591L7.73226 15.3593L7.73246 15.3595L7.73266 15.3597L7.73286 15.3599L7.73306 15.3601L7.73326 15.3603L7.73346 15.3605L7.73367 15.3607L7.73387 15.3609L7.73407 15.3611L7.73427 15.3613L7.73447 15.3615L7.73467 15.3617L7.73487 15.3619L7.73507 15.3621L7.73527 15.3623L7.73548 15.3625L7.73568 15.3627L7.73588 15.3629L7.73608 15.3631L7.73628 15.3633L7.73648 15.3635L7.73668 15.3637L7.73688 15.3639L7.73708 15.3641L7.73728 15.3643L7.73749 15.3645L7.73769 15.3647L7.73789 15.3649L7.73809 15.3651L7.73829 15.3653L7.73849 15.3655L7.73869 15.3657L7.73889 15.3659L7.73909 15.3661L7.7393 15.3663L7.7395 15.3665L7.7397 15.3667L7.7399 15.3669L7.7401 15.3671L7.7403 15.3674L7.7405 15.3676L7.7407 15.3678L7.7409 15.368L7.74111 15.3682L7.74131 15.3684L7.74151 15.3686L7.74171 15.3688L7.74191 15.369L7.74211 15.3692L7.74231 15.3694L7.74251 15.3696L7.74271 15.3698L7.74291 15.37L7.74312 15.3702L7.74332 15.3704L7.74352 15.3706L7.74372 15.3708L7.74392 15.371L7.74412 15.3712L7.74432 15.3714L7.74452 15.3716L7.74472 15.3718L7.74492 15.372L7.74513 15.3722L7.74533 15.3724L7.74553 15.3726L7.74573 15.3728L7.74593 15.373L7.74613 15.3732L7.74633 15.3734L7.74653 15.3736L7.74673 15.3738L7.74693 15.374L7.74714 15.3742L7.74734 15.3744L7.74754 15.3746L7.74774 15.3748L7.74794 15.375L7.74814 15.3752L7.74834 15.3754L7.74854 15.3756L7.74874 15.3758L7.74895 15.376L7.74915 15.3762L7.74935 15.3764L7.74955 15.3766L7.74975 15.3768L7.74995 15.377L7.75015 15.3772L7.75035 15.3774L7.75055 15.3776L7.75075 15.3778L7.75096 15.378L7.75116 15.3782L7.75136 15.3784L7.75156 15.3786L7.75176 15.3788L7.75196 15.379L7.75216 15.3792L7.75236 15.3794L7.75256 15.3796L7.75277 15.3798L7.75297 15.38L7.75317 15.3802L7.75337 15.3804L7.75357 15.3806L7.75377 15.3808L7.75397 15.381L7.75417 15.3812L7.75437 15.3814L7.75457 15.3816L7.75478 15.3818L7.75498 15.382L7.75518 15.3822L7.75538 15.3824L7.75558 15.3826L7.75578 15.3828L7.75598 15.383L7.75618 15.3832L7.75638 15.3834L7.75658 15.3836L7.75679 15.3838L7.75699 15.384L7.75719 15.3842L7.75739 15.3844L7.75759 15.3846L7.75779 15.3848L7.75799 15.385L7.75819 15.3852L7.75839 15.3854L7.75859 15.3856L7.7588 15.3858L7.759 15.386L7.7592 15.3862L7.7594 15.3864L7.7596 15.3867L7.7598 15.3869L7.76 15.3871L7.7602 15.3873L7.7604 15.3875L7.76061 15.3877L7.76081 15.3879L7.76101 15.3881L7.76121 15.3883L7.76141 15.3885L7.76161 15.3887L7.76181 15.3889L7.76201 15.3891L7.76221 15.3893L7.76241 15.3895L7.76262 15.3897L7.76282 15.3899L7.76302 15.3901L7.76322 15.3903L7.76342 15.3905L7.76362 15.3907L7.76382 15.3909L7.76402 15.3911L7.76422 15.3913L7.76442 15.3915L7.76463 15.3917L7.76483 15.3919L7.76503 15.3921L7.76523 15.3923L7.76543 15.3925L7.76563 15.3927L7.76583 15.3929L7.76603 15.3931L7.76623 15.3933L7.76643 15.3935L7.76664 15.3937C8.16029 15.7873 8.71833 16.0391 9.33115 16.0391C9.94433 16.0391 10.4908 15.7985 10.8957 15.3937C11.3005 14.9888 11.5411 14.4423 11.5411 13.8291C11.5411 13.216 11.3005 12.6695 10.8957 12.2646C10.502 11.871 9.94398 11.6192 9.33116 11.6192C8.71797 11.6192 8.17146 11.8598 7.76663 12.2646L7.76643 12.2648L7.76623 12.265L7.76603 12.2652L7.76582 12.2654L7.76562 12.2656L7.76542 12.2658L7.76522 12.266L7.76502 12.2662L7.76482 12.2664L7.76462 12.2666L7.76442 12.2668L7.76422 12.267L7.76402 12.2672L7.76381 12.2674L7.76361 12.2676L7.76341 12.2678L7.76321 12.268L7.76301 12.2682L7.76281 12.2684L7.76261 12.2686L7.76241 12.2688L7.76221 12.269L7.76201 12.2692L7.7618 12.2694L7.7616 12.2696L7.7614 12.2699L7.7612 12.2701L7.761 12.2703L7.7608 12.2705L7.7606 12.2707L7.7604 12.2709L7.7602 12.2711L7.75999 12.2713L7.75979 12.2715L7.75959 12.2717L7.75939 12.2719L7.75919 12.2721L7.75899 12.2723L7.75879 12.2725L7.75859 12.2727L7.75839 12.2729L7.75819 12.2731L7.75799 12.2733L7.75778 12.2735L7.75758 12.2737L7.75738 12.2739L7.75718 12.2741L7.75698 12.2743L7.75678 12.2745L7.75658 12.2747L7.75638 12.2749L7.75618 12.2751L7.75598 12.2753L7.75577 12.2755L7.75557 12.2757L7.75537 12.2759L7.75517 12.2761L7.75497 12.2763L7.75477 12.2765L7.75457 12.2767L7.75437 12.2769L7.75417 12.2771L7.75396 12.2773L7.75376 12.2775L7.75356 12.2777L7.75336 12.2779L7.75316 12.2781L7.75296 12.2783L7.75276 12.2785L7.75256 12.2787L7.75236 12.2789L7.75216 12.2791L7.75196 12.2793L7.75175 12.2795L7.75155 12.2797L7.75135 12.2799L7.75115 12.2801L7.75095 12.2803L7.75075 12.2805L7.75055 12.2807L7.75035 12.2809L7.75015 12.2811L7.74995 12.2813L7.74974 12.2815L7.74954 12.2817L7.74934 12.2819L7.74914 12.2821L7.74894 12.2823L7.74874 12.2825L7.74854 12.2827L7.74834 12.2829L7.74814 12.2831L7.74793 12.2833L7.74773 12.2835L7.74753 12.2837L7.74733 12.2839L7.74713 12.2841L7.74693 12.2843L7.74673 12.2845L7.74653 12.2847L7.74633 12.2849L7.74613 12.2851L7.74593 12.2853L7.74572 12.2855L7.74552 12.2857L7.74532 12.2859L7.74512 12.2861L7.74492 12.2863L7.74472 12.2865L7.74452 12.2867L7.74432 12.2869L7.74412 12.2871L7.74392 12.2873L7.74371 12.2875L7.74351 12.2877L7.74331 12.2879L7.74311 12.2881L7.74291 12.2883L7.74271 12.2885L7.74251 12.2887L7.74231 12.2889L7.74211 12.2891L7.7419 12.2893L7.7417 12.2895L7.7415 12.2898L7.7413 12.29L7.7411 12.2902L7.7409 12.2904L7.7407 12.2906L7.7405 12.2908L7.7403 12.291L7.7401 12.2912L7.7399 12.2914L7.73969 12.2916L7.73949 12.2918L7.73929 12.292L7.73909 12.2922L7.73889 12.2924L7.73869 12.2926L7.73849 12.2928L7.73829 12.293L7.73809 12.2932L7.73788 12.2934L7.73768 12.2936L7.73748 12.2938L7.73728 12.294L7.73708 12.2942L7.73688 12.2944L7.73668 12.2946L7.73648 12.2948L7.73628 12.295L7.73608 12.2952L7.73587 12.2954L7.73567 12.2956L7.73547 12.2958L7.73527 12.296L7.73507 12.2962L7.73487 12.2964L7.73467 12.2966L7.73447 12.2968L7.73427 12.297L7.73407 12.2972L7.73387 12.2974L7.73366 12.2976L7.73346 12.2978L7.73326 12.298L7.73306 12.2982L7.73286 12.2984L7.73266 12.2986L7.73246 12.2988L7.73226 12.299L7.73206 12.2992L7.73185 12.2994L7.73165 12.2996L7.73145 12.2998L7.73125 12.3L7.73105 12.3002L7.73085 12.3004L7.73065 12.3006L7.73045 12.3008L7.73025 12.301L7.73005 12.3012L7.72984 12.3014L7.72964 12.3016L7.72944 12.3018L7.72924 12.302L7.72904 12.3022L7.72884 12.3024L7.72864 12.3026L7.72844 12.3028L7.72824 12.303L7.72804 12.3032L7.72784 12.3034L7.72763 12.3036L7.72743 12.3038L7.72723 12.304L7.72703 12.3042L7.72683 12.3044L7.72663 12.3046L7.72643 12.3048L7.72623 12.305L7.72603 12.3052L7.72582 12.3054L7.72562 12.3056L7.72542 12.3058L7.72522 12.306L7.72502 12.3062L7.72482 12.3064L7.72462 12.3066L7.72442 12.3068L7.72422 12.307L7.72402 12.3072L7.72382 12.3074L7.72361 12.3076L7.72341 12.3078L7.72321 12.308L7.72301 12.3082L7.72281 12.3084L7.72261 12.3086L7.72241 12.3088L7.72221 12.309L7.72201 12.3092L7.72181 12.3094L7.7216 12.3096L7.7214 12.3098L7.7212 12.3101L7.721 12.3103L7.7208 12.3105L7.7206 12.3107L7.7204 12.3109L7.7202 12.3111L7.72 12.3113L7.71979 12.3115L7.71959 12.3117L7.71939 12.3119L7.71919 12.3121L7.71899 12.3123L7.71879 12.3125L7.71859 12.3127L7.71839 12.3129L7.71819 12.3131L7.71799 12.3133L7.71779 12.3135L7.71758 12.3137L7.71738 12.3139L7.71718 12.3141L7.71698 12.3143L7.71678 12.3145L7.71658 12.3147L7.71638 12.3149L7.71618 12.3151L7.71598 12.3153L7.71578 12.3155L7.71557 12.3157L7.71537 12.3159L7.71517 12.3161L7.71497 12.3163L7.71477 12.3165L7.71457 12.3167L7.71437 12.3169L7.71417 12.3171L7.71397 12.3173L7.71377 12.3175L7.71356 12.3177L7.71336 12.3179L7.71316 12.3181L7.71296 12.3183L7.71276 12.3185L7.71256 12.3187L7.71236 12.3189L7.71216 12.3191L7.71196 12.3193L7.71176 12.3195L7.71155 12.3197L7.71135 12.3199L7.71115 12.3201L7.71095 12.3203L7.71075 12.3205L7.71055 12.3207L7.71035 12.3209L7.71015 12.3211L7.70995 12.3213L7.70975 12.3215L7.70954 12.3217L7.70934 12.3219L7.70914 12.3221L7.70894 12.3223L7.70874 12.3225L7.70854 12.3227L7.70834 12.3229L7.70814 12.3231L7.70794 12.3233L7.70774 12.3235L7.70753 12.3237L7.70733 12.3239L7.70713 12.3241L7.70693 12.3243L7.70673 12.3245L7.70653 12.3247L7.70633 12.3249L7.70613 12.3251L7.70593 12.3253L7.70573 12.3255L7.70552 12.3257L7.70532 12.3259L7.70512 12.3261L7.70492 12.3263L7.70472 12.3265L7.70452 12.3267L7.70432 12.3269L7.70412 12.3271L7.70392 12.3273L7.70372 12.3275L7.70351 12.3277L7.70331 12.3279L7.70311 12.3281L7.70291 12.3283L7.70271 12.3285L7.70251 12.3287L7.70231 12.3289L7.70211 12.3291L7.70191 12.3293L7.70171 12.3295L7.7015 12.3297L7.7013 12.3299L7.7011 12.3302L7.7009 12.3304L7.7007 12.3306L7.7005 12.3308L7.7003 12.331L7.7001 12.3312L7.6999 12.3314L7.6997 12.3316L7.69949 12.3318L7.69929 12.332L7.69909 12.3322L7.69889 12.3324L7.69869 12.3326L7.69849 12.3328L7.69829 12.333L7.69809 12.3332L7.69789 12.3334L7.69769 12.3336L7.69748 12.3338L7.69728 12.334L7.69708 12.3342L7.69688 12.3344L7.69668 12.3346L7.69648 12.3348L7.69628 12.335L7.69608 12.3352L7.69588 12.3354L7.69568 12.3356L7.69547 12.3358L7.69527 12.336L7.69507 12.3362L7.69487 12.3364L7.69467 12.3366L7.69447 12.3368L7.69427 12.337L7.69407 12.3372L7.69387 12.3374L7.69367 12.3376L7.69346 12.3378L7.69326 12.338L7.69306 12.3382L7.69286 12.3384L7.69266 12.3386L7.69246 12.3388L7.69226 12.339L7.69206 12.3392L7.69186 12.3394L7.69166 12.3396L7.69145 12.3398L7.69125 12.34L7.69105 12.3402L7.69085 12.3404L7.69065 12.3406L7.69045 12.3408L7.69025 12.341L7.69005 12.3412L7.68985 12.3414L7.68965 12.3416L7.68944 12.3418L7.68924 12.342L7.68904 12.3422L7.68884 12.3424L7.68864 12.3426L7.68844 12.3428L7.68824 12.343L7.68804 12.3432L7.68784 12.3434L7.68764 12.3436L7.68743 12.3438L7.68723 12.344L7.68703 12.3442L7.68683 12.3444L7.68663 12.3446L7.68643 12.3448L7.68623 12.345L7.68603 12.3452L7.68583 12.3454L7.68563 12.3456L7.68542 12.3458L7.68522 12.346L7.68502 12.3462L7.68482 12.3464L7.68462 12.3466L7.68442 12.3468L7.68422 12.347L7.68402 12.3472L7.68382 12.3474L7.68362 12.3476L7.68341 12.3478L7.68321 12.348L7.68301 12.3482L7.68281 12.3484L7.68261 12.3486L7.68241 12.3488L7.68221 12.349L7.68201 12.3492L7.68181 12.3494L7.68161 12.3496L7.6814 12.3498L7.6812 12.35L7.681 12.3503L7.6808 12.3505L7.6806 12.3507L7.6804 12.3509L7.6802 12.3511L7.68 12.3513L7.6798 12.3515L7.6796 12.3517L7.67939 12.3519L7.67919 12.3521L7.67899 12.3523L7.67879 12.3525L7.67859 12.3527L7.67839 12.3529L7.67819 12.3531L7.67799 12.3533L7.67779 12.3535L7.67759 12.3537L7.67738 12.3539L7.67718 12.3541L7.67698 12.3543L7.67678 12.3545L7.67658 12.3547L7.67638 12.3549L7.67618 12.3551L7.67598 12.3553L7.67578 12.3555L7.67558 12.3557L7.67537 12.3559L7.67517 12.3561L7.67497 12.3563L7.67477 12.3565L7.67457 12.3567L7.67437 12.3569L7.67417 12.3571L7.67397 12.3573L7.67377 12.3575L7.67357 12.3577L7.67336 12.3579L7.67316 12.3581L7.67296 12.3583L7.67276 12.3585L7.67256 12.3587L7.67236 12.3589L7.67216 12.3591L7.67196 12.3593L7.67176 12.3595L7.67156 12.3597L7.67135 12.3599L7.67115 12.3601L7.67095 12.3603L7.67075 12.3605L7.67055 12.3607L7.67035 12.3609L7.67015 12.3611L7.66995 12.3613L7.66975 12.3615L7.66955 12.3617L7.66934 12.3619L7.66914 12.3621L7.66894 12.3623L7.66874 12.3625L7.66854 12.3627L7.66834 12.3629L7.66814 12.3631L7.66794 12.3633L7.66774 12.3635L7.66753 12.3637L7.66741 12.3638C7.5535 12.5028 7.37138 12.57 7.19712 12.4908C7.04285 12.4206 6.93267 12.2862 6.93267 12.1024L6.93267 8.5575C6.93267 8.44036 6.9769 8.3346 7.05343 8.25807C7.12996 8.18154 7.23572 8.13731 7.35286 8.13731L17.5531 8.13732C17.7913 8.13732 17.9733 8.31929 17.9733 8.55749ZM12.37 13.8392L12.37 13.8406C12.37 14.6922 12.0266 15.4376 11.4716 15.9925C10.9158 16.5484 10.1591 16.8791 9.32112 16.8909L9.32112 16.8909L9.31972 16.8909C8.74757 16.8909 8.22343 16.7295 7.77305 16.4673L7.77303 18.7721L11.1265 18.7721V18.7718L11.1342 18.7724C11.3149 18.7863 11.4976 18.8996 11.5441 19.1012C11.5893 19.2971 11.4963 19.4794 11.3199 19.5676C11.0989 19.6781 10.8909 19.8208 10.7284 19.9834C10.3347 20.3771 10.083 20.9351 10.083 21.5479C10.083 22.1615 10.3238 22.7079 10.7169 23.101C11.1217 23.5058 11.6683 23.7464 12.2815 23.7464C12.8946 23.7464 13.4411 23.5059 13.846 23.101C14.2396 22.7074 14.4914 22.1493 14.4914 21.5365C14.4914 20.9233 14.2508 20.3768 13.846 19.972C13.6722 19.7982 13.4758 19.6668 13.2545 19.5562C13.0781 19.468 12.985 19.2857 13.0302 19.0897C13.074 18.9002 13.2379 18.7586 13.44 18.7721L17.1558 18.7721L17.1558 8.97769L7.79592 8.97769L7.79592 11.2099C8.22949 10.9495 8.75137 10.7903 9.31972 10.7903C10.1713 10.7903 10.9167 11.1337 11.4717 11.6887C12.0275 12.2445 12.3582 13.0012 12.37 13.8392Z" fill="#010101" stroke="#010101" stroke-width="0.2"/>
</svg>
