<svg width="30" height="30" viewBox="0 0 30 30" fill="none" xmlns="http://www.w3.org/2000/svg">
<path fill-rule="evenodd" clip-rule="evenodd" d="M20.7291 16.4929C19.5564 15.8681 18.7566 14.6326 18.7566 13.2133C18.7566 11.1652 20.4218 9.5 22.4699 9.5C24.5179 9.5 26.1831 11.1652 26.1831 13.2133C26.1831 14.6326 25.3834 15.8681 24.2107 16.4929C27.2761 17.2694 29.5608 20.0468 29.5758 23.347C29.5758 23.436 29.5402 23.5161 29.4779 23.5785C29.4155 23.6408 29.3354 23.6764 29.2464 23.6764H15.6934C15.6043 23.6764 15.5242 23.6408 15.4618 23.5785C15.3995 23.5161 15.3639 23.436 15.3639 23.347C15.379 20.0468 17.6636 17.2694 20.7291 16.4929ZM19.4066 13.2133C19.4066 11.5214 20.778 10.15 22.4699 10.15C24.1529 10.15 25.5331 11.5303 25.5331 13.2133C25.5331 14.9052 24.1618 16.2765 22.4699 16.2765C20.778 16.2765 19.4066 14.9052 19.4066 13.2133ZM28.908 23.0264H16.0228C16.2098 19.6337 19.0326 16.9267 22.4699 16.9356C25.8982 16.9356 28.721 19.6337 28.908 23.0264Z" fill="#010101"/>
<path d="M10.212 26H13.0158C13.2134 26 13.3639 25.841 13.3639 25.6423V16.6589H15.2156C15.3937 16.6589 15.5362 16.5165 15.5362 16.3295C15.5362 16.1425 15.3848 16 15.2067 16H13.3639V5.86766C13.3639 5.65899 13.2039 5.5 13.0158 5.5H10.212C10.0144 5.5 9.86389 5.65899 9.86389 5.86766C9.86389 6.07634 10.0238 6.23533 10.212 6.23533H12.6771V16H10.1934C10.0064 16 9.86389 16.1514 9.86389 16.3295C9.86389 16.5165 10.0153 16.6589 10.1934 16.6589H12.6771V25.2646H10.212C10.0144 25.2646 9.86389 25.4336 9.86389 25.6323C9.86389 25.841 10.0238 26 10.212 26Z" fill="#010101"/>
<path fill-rule="evenodd" clip-rule="evenodd" d="M5.43468 27.9267C3.46674 27.9267 1.86389 26.3239 1.86389 24.3559C1.86389 22.388 3.46674 20.7852 5.43468 20.7852C7.40262 20.7852 9.00547 22.388 9.00547 24.3559C9.00547 26.3239 7.40262 27.9267 5.43468 27.9267ZM4.9093 25.656C4.99835 25.656 5.0785 25.6204 5.14083 25.5581L7.22453 23.4744C7.34919 23.3497 7.34919 23.1449 7.22453 23.0113C7.09986 22.8867 6.89506 22.8867 6.76149 23.0113L4.9093 24.8635L4.09897 24.0532C3.97431 23.9285 3.7695 23.9285 3.63593 24.0532C3.51127 24.1779 3.51127 24.3827 3.63593 24.5162L4.67778 25.5581C4.74011 25.6204 4.82025 25.656 4.9093 25.656Z" fill="#FFB300"/>
<path d="M3.00044 17.273C2.7423 17.4585 2.42422 17.5683 2.0826 17.5732L2.08256 17.5732C1.64661 17.5793 1.25545 17.395 0.969844 17.1094C0.682731 16.8223 0.512101 16.4315 0.506016 15.9995C0.499876 15.5635 0.684245 15.1724 0.969847 14.8868C1.25104 14.6056 1.64744 14.429 2.07974 14.4229L2.07974 14.4229L2.08115 14.4229C2.42814 14.4229 2.74285 14.5356 2.99889 14.7212V13.5395C2.99889 13.4681 3.02601 13.4024 3.07393 13.3544C3.12179 13.3066 3.1874 13.2795 3.25875 13.2794L3.25867 13.2794L3.25899 13.3794V13.2794L3.00044 17.273ZM3.00044 17.273L3.01033 18.6282C3.01033 18.6283 3.01033 18.6284 3.01033 18.6286C3.01043 18.6998 3.03751 18.7654 3.08536 18.8132C3.13329 18.8612 3.19901 18.8883 3.27043 18.8883L8.58782 18.8883C8.73453 18.8883 8.84791 18.7749 8.84791 18.6282L8.8479 13.5281C8.8479 13.3814 8.73452 13.268 8.58781 13.268L6.81534 13.268C6.70016 13.268 6.61719 13.3381 6.57566 13.4295C6.5253 13.5403 6.56934 13.6522 6.636 13.7188L6.6361 13.7189L6.6362 13.719L6.6363 13.7191L6.6364 13.7192L6.6365 13.7193L6.6366 13.7194L6.6367 13.7195L6.6368 13.7196L6.6369 13.7197L6.637 13.7198L6.63711 13.7199L6.63721 13.72L6.63731 13.7201L6.63741 13.7202L6.63751 13.7203L6.63761 13.7204L6.63771 13.7205L6.63781 13.7206L6.63791 13.7207L6.63801 13.7208L6.63811 13.7209L6.63821 13.721L6.63831 13.7211L6.63841 13.7212L6.63851 13.7213L6.63861 13.7214L6.63871 13.7216L6.63881 13.7217L6.63891 13.7218L6.63902 13.7219L6.63912 13.722L6.63922 13.7221L6.63932 13.7222L6.63942 13.7223L6.63952 13.7224L6.63962 13.7225L6.63972 13.7226L6.63982 13.7227L6.63992 13.7228L6.64002 13.7229L6.64012 13.723L6.64022 13.7231L6.64032 13.7232L6.64042 13.7233L6.64052 13.7234L6.64062 13.7235L6.64072 13.7236L6.64082 13.7237L6.64092 13.7238L6.64103 13.7239L6.64113 13.724L6.64123 13.7241L6.64133 13.7242L6.64143 13.7243L6.64153 13.7244L6.64163 13.7245L6.64173 13.7246L6.64183 13.7247L6.64193 13.7248L6.64203 13.7249L6.64213 13.725L6.64223 13.7251L6.64233 13.7252L6.64243 13.7253L6.64253 13.7254L6.64263 13.7255L6.64273 13.7256L6.64283 13.7257L6.64294 13.7258L6.64304 13.7259L6.64314 13.726L6.64324 13.7261L6.64334 13.7262L6.64344 13.7263L6.64354 13.7264L6.64364 13.7265L6.64374 13.7266L6.64384 13.7267L6.64394 13.7268L6.64404 13.7269L6.64414 13.727L6.64424 13.7271L6.64434 13.7272L6.64444 13.7273L6.64454 13.7274L6.64464 13.7275L6.64474 13.7276L6.64484 13.7277L6.64495 13.7278L6.64505 13.7279L6.64515 13.728L6.64525 13.7281L6.64535 13.7282L6.64545 13.7283L6.64555 13.7284L6.64565 13.7285L6.64575 13.7286L6.64585 13.7287L6.64595 13.7288L6.64605 13.7289L6.64615 13.729L6.64625 13.7291L6.64635 13.7292L6.64645 13.7293L6.64655 13.7294L6.64665 13.7295L6.64675 13.7296L6.64686 13.7297L6.64696 13.7298L6.64706 13.7299L6.64716 13.73L6.64726 13.7301L6.64736 13.7302L6.64746 13.7303L6.64756 13.7304L6.64766 13.7305L6.64776 13.7306L6.64786 13.7307L6.64796 13.7308L6.64806 13.7309L6.64816 13.731L6.64826 13.7311L6.64836 13.7312L6.64846 13.7313L6.64856 13.7314L6.64866 13.7315L6.64877 13.7316L6.64887 13.7317L6.64897 13.7318L6.64907 13.7319L6.64917 13.732L6.64927 13.7321L6.64937 13.7322L6.64947 13.7323L6.64957 13.7324L6.64967 13.7325L6.64977 13.7326L6.64987 13.7327L6.64997 13.7328L6.65007 13.7329L6.65017 13.733L6.65027 13.7331L6.65037 13.7332L6.65047 13.7333L6.65057 13.7334L6.65068 13.7335L6.65078 13.7336L6.65088 13.7337L6.65098 13.7338L6.65108 13.7339L6.65118 13.734L6.65128 13.7341L6.65138 13.7342L6.65148 13.7343L6.65158 13.7344L6.65168 13.7345L6.65178 13.7346L6.65188 13.7347L6.65198 13.7348L6.65208 13.7349L6.65218 13.735L6.65228 13.7351L6.65238 13.7352L6.65248 13.7353L6.65259 13.7354L6.65269 13.7355L6.65279 13.7356L6.65289 13.7357L6.65299 13.7358L6.65309 13.7359L6.65319 13.736L6.65329 13.7361L6.65339 13.7362L6.65349 13.7363L6.65359 13.7364L6.65369 13.7365L6.65379 13.7366L6.65389 13.7367L6.65399 13.7368L6.65409 13.7369L6.65419 13.737L6.65429 13.7371L6.65439 13.7372L6.6545 13.7373L6.6546 13.7374L6.6547 13.7375L6.6548 13.7376L6.6549 13.7377L6.655 13.7378L6.6551 13.7379L6.6552 13.738L6.6553 13.7381L6.6554 13.7382L6.6555 13.7383L6.6556 13.7384L6.6557 13.7385L6.6558 13.7386L6.6559 13.7387L6.656 13.7388L6.6561 13.7389L6.6562 13.739L6.6563 13.7391L6.65641 13.7392L6.65651 13.7393L6.65661 13.7394L6.65671 13.7395L6.65681 13.7396L6.65691 13.7397L6.65701 13.7398L6.65711 13.7399L6.65721 13.74L6.65731 13.7401L6.65741 13.7402L6.65751 13.7403L6.65761 13.7404L6.65771 13.7405L6.65781 13.7406L6.65791 13.7407L6.65801 13.7409L6.65811 13.741L6.65821 13.7411L6.65832 13.7412L6.65842 13.7413L6.65852 13.7414L6.65862 13.7415L6.65872 13.7416L6.65882 13.7417L6.65892 13.7418L6.65902 13.7419L6.65912 13.742L6.65922 13.7421L6.65932 13.7422L6.65942 13.7423L6.65952 13.7424L6.65962 13.7425L6.65972 13.7426L6.65982 13.7427L6.65992 13.7428L6.66002 13.7429L6.66012 13.743L6.66023 13.7431L6.66033 13.7432L6.66043 13.7433L6.66053 13.7434L6.66063 13.7435L6.66073 13.7436L6.66083 13.7437L6.66093 13.7438L6.66103 13.7439L6.66113 13.744L6.66123 13.7441L6.66133 13.7442L6.66143 13.7443L6.66153 13.7444L6.66163 13.7445L6.66173 13.7446L6.66183 13.7447L6.66193 13.7448L6.66204 13.7449L6.66214 13.745L6.66224 13.7451L6.66234 13.7452L6.66244 13.7453L6.66254 13.7454L6.66264 13.7455L6.66274 13.7456L6.66284 13.7457L6.66294 13.7458L6.66304 13.7459L6.66314 13.746L6.66324 13.7461L6.66334 13.7462L6.66344 13.7463L6.66354 13.7464L6.66364 13.7465L6.66374 13.7466L6.66384 13.7467L6.66394 13.7468L6.66405 13.7469L6.66415 13.747L6.66425 13.7471L6.66435 13.7472L6.66445 13.7473L6.66455 13.7474L6.66465 13.7475L6.66475 13.7476L6.66485 13.7477L6.66495 13.7478L6.66505 13.7479L6.66515 13.748L6.66525 13.7481L6.66535 13.7482L6.66545 13.7483L6.66555 13.7484L6.66565 13.7485L6.66575 13.7486L6.66585 13.7487L6.66596 13.7488L6.66606 13.7489L6.66616 13.749L6.66626 13.7491L6.66636 13.7492L6.66646 13.7493L6.66656 13.7494L6.66666 13.7495L6.66676 13.7496L6.66686 13.7497L6.66696 13.7498L6.66706 13.7499L6.66716 13.75L6.66726 13.7501L6.66736 13.7502L6.66746 13.7503L6.66756 13.7504L6.66766 13.7505L6.66777 13.7506L6.66787 13.7507L6.66797 13.7508L6.66807 13.7509L6.66817 13.751L6.66827 13.7511L6.66837 13.7512L6.66847 13.7513L6.66857 13.7514L6.66867 13.7515L6.66877 13.7516L6.66887 13.7517L6.66897 13.7518L6.66907 13.7519L6.66917 13.752L6.66927 13.7521L6.66937 13.7522L6.66947 13.7523L6.66957 13.7524L6.66968 13.7525L6.66978 13.7526L6.66988 13.7527L6.66998 13.7528L6.67008 13.7529L6.67018 13.753L6.67028 13.7531L6.67038 13.7532L6.67048 13.7533L6.67058 13.7534L6.67068 13.7535L6.67078 13.7536L6.67088 13.7537L6.67098 13.7538L6.67108 13.7539L6.67118 13.754L6.67128 13.7541L6.67138 13.7542L6.67148 13.7543L6.67159 13.7544L6.67169 13.7545L6.67179 13.7546L6.67189 13.7547L6.67199 13.7548L6.67209 13.7549L6.67219 13.755L6.67229 13.7551L6.67239 13.7552L6.67249 13.7553L6.67259 13.7554L6.67269 13.7555L6.67279 13.7556L6.67289 13.7557L6.67299 13.7558L6.67309 13.7559L6.67319 13.756L6.67329 13.7561L6.67339 13.7562L6.67349 13.7563L6.6736 13.7564L6.6737 13.7565L6.6738 13.7566L6.6739 13.7567L6.674 13.7568L6.6741 13.7569L6.6742 13.757L6.6743 13.7571L6.6744 13.7572L6.6745 13.7573L6.6746 13.7574L6.6747 13.7575L6.6748 13.7576L6.6749 13.7577L6.675 13.7578L6.6751 13.7579L6.6752 13.758L6.6753 13.7581L6.67541 13.7582L6.67551 13.7583L6.67561 13.7584L6.67571 13.7585L6.67581 13.7586L6.67591 13.7587L6.67601 13.7588L6.67611 13.7589L6.67621 13.759L6.67631 13.7591L6.67641 13.7592L6.67651 13.7593L6.67661 13.7594L6.67671 13.7595L6.67681 13.7596L6.67691 13.7597L6.67701 13.7599L6.67711 13.76L6.67721 13.7601L6.67731 13.7602L6.67742 13.7603L6.67752 13.7604L6.67762 13.7605L6.67772 13.7606L6.67782 13.7607L6.67792 13.7608L6.67802 13.7609L6.67812 13.761L6.67822 13.7611L6.67832 13.7612L6.67842 13.7613L6.67852 13.7614L6.67862 13.7615L6.67872 13.7616L6.67882 13.7617L6.67892 13.7618L6.67902 13.7619L6.67912 13.762L6.67922 13.7621L6.67933 13.7622L6.67943 13.7623L6.67953 13.7624L6.67963 13.7625L6.67973 13.7626L6.67983 13.7627L6.67993 13.7628L6.68003 13.7629L6.68013 13.763L6.68023 13.7631L6.68033 13.7632L6.68043 13.7633L6.68053 13.7634L6.68063 13.7635L6.68073 13.7636L6.68083 13.7637L6.68093 13.7638L6.68103 13.7639L6.68113 13.764L6.68124 13.7641L6.68134 13.7642L6.68144 13.7643L6.68154 13.7644L6.68164 13.7645L6.68174 13.7646L6.68184 13.7647L6.68194 13.7648L6.68204 13.7649L6.68214 13.765L6.68224 13.7651L6.68234 13.7652L6.68244 13.7653L6.68254 13.7654L6.68264 13.7655L6.68274 13.7656L6.68284 13.7657L6.68294 13.7658L6.68304 13.7659L6.68314 13.766L6.68325 13.7661L6.68335 13.7662L6.68345 13.7663L6.68355 13.7664L6.68365 13.7665L6.68375 13.7666L6.68385 13.7667L6.68395 13.7668L6.68405 13.7669L6.68415 13.767L6.68425 13.7671L6.68435 13.7672L6.68445 13.7673L6.68455 13.7674L6.68465 13.7675L6.68475 13.7676L6.68485 13.7677L6.68495 13.7678L6.68505 13.7679L6.68516 13.768L6.68526 13.7681L6.68536 13.7682L6.68546 13.7683L6.68556 13.7684L6.68566 13.7685L6.68576 13.7686L6.68586 13.7687L6.68596 13.7688L6.68606 13.7689L6.68616 13.769L6.68626 13.7691L6.68636 13.7692L6.68646 13.7693L6.68656 13.7694L6.68666 13.7695L6.68676 13.7696L6.68686 13.7697L6.68696 13.7698L6.68706 13.7699L6.68717 13.77L6.68727 13.7701L6.68737 13.7702L6.68747 13.7703C6.88074 13.9636 6.99551 14.2242 6.99551 14.5172C6.99551 14.8098 6.87528 15.0763 6.68746 15.2641C6.49418 15.4574 6.23354 15.5722 5.94055 15.5722H5.93873L5.93873 15.5722C5.65337 15.5774 5.38742 15.4579 5.19936 15.2698C5.00608 15.0766 4.89131 14.8159 4.89131 14.5229C4.89131 14.2303 5.01154 13.9638 5.19936 13.776L5.19946 13.7759L5.19956 13.7758L5.19966 13.7757L5.19976 13.7756L5.19986 13.7755L5.19996 13.7754L5.20006 13.7753L5.20016 13.7752L5.20026 13.7751L5.20036 13.775L5.20046 13.7749L5.20056 13.7748L5.20066 13.7747L5.20076 13.7746L5.20086 13.7745L5.20096 13.7744L5.20106 13.7743L5.20117 13.7742L5.20127 13.7741L5.20137 13.774L5.20147 13.7739L5.20157 13.7738L5.20167 13.7737L5.20177 13.7736L5.20187 13.7735L5.20197 13.7734L5.20207 13.7733L5.20217 13.7732L5.20227 13.7731L5.20237 13.773L5.20247 13.7729L5.20257 13.7728L5.20267 13.7727L5.20277 13.7726L5.20287 13.7725L5.20297 13.7724L5.20307 13.7723L5.20318 13.7722L5.20328 13.7721L5.20338 13.772L5.20348 13.7719L5.20358 13.7718L5.20368 13.7717L5.20378 13.7716L5.20388 13.7715L5.20398 13.7714L5.20408 13.7713L5.20418 13.7712L5.20428 13.7711L5.20438 13.771L5.20448 13.7709L5.20458 13.7708L5.20468 13.7707L5.20478 13.7706L5.20488 13.7705L5.20498 13.7704L5.20508 13.7703L5.20519 13.7702L5.20529 13.7701L5.20539 13.77L5.20549 13.7699L5.20559 13.7698L5.20569 13.7697L5.20579 13.7696L5.20589 13.7695L5.20599 13.7694L5.20609 13.7693L5.20619 13.7692L5.20629 13.7691L5.20639 13.769L5.20649 13.7689L5.20659 13.7688L5.20669 13.7687L5.20679 13.7686L5.20689 13.7685L5.20699 13.7684L5.20709 13.7683L5.2072 13.7682L5.2073 13.7681L5.2074 13.768L5.2075 13.7679L5.2076 13.7678L5.2077 13.7677L5.2078 13.7676L5.2079 13.7675L5.208 13.7674L5.2081 13.7673L5.2082 13.7672L5.2083 13.7671L5.2084 13.767L5.2085 13.7669L5.2086 13.7668L5.2087 13.7667L5.2088 13.7666L5.2089 13.7665L5.209 13.7664L5.2091 13.7663L5.20921 13.7662L5.20931 13.7661L5.20941 13.766L5.20951 13.7659L5.20961 13.7658L5.20971 13.7657L5.20981 13.7656L5.20991 13.7655L5.21001 13.7654L5.21011 13.7653L5.21021 13.7652L5.21031 13.7651L5.21041 13.765L5.21051 13.7649L5.21061 13.7648L5.21071 13.7647L5.21081 13.7646L5.21091 13.7645L5.21101 13.7644L5.21111 13.7643L5.21122 13.7641L5.21132 13.764L5.21142 13.7639L5.21152 13.7638L5.21162 13.7637L5.21172 13.7636L5.21182 13.7635L5.21192 13.7634L5.21202 13.7633L5.21212 13.7632L5.21222 13.7631L5.21232 13.763L5.21242 13.7629L5.21252 13.7628L5.21262 13.7627L5.21272 13.7626L5.21282 13.7625L5.21292 13.7624L5.21302 13.7623L5.21312 13.7622L5.21323 13.7621L5.21333 13.762L5.21343 13.7619L5.21353 13.7618L5.21363 13.7617L5.21373 13.7616L5.21383 13.7615L5.21393 13.7614L5.21403 13.7613L5.21413 13.7612L5.21423 13.7611L5.21433 13.761L5.21443 13.7609L5.21453 13.7608L5.21463 13.7607L5.21473 13.7606L5.21483 13.7605L5.21493 13.7604L5.21503 13.7603L5.21513 13.7602L5.21524 13.7601L5.21534 13.76L5.21544 13.7599L5.21554 13.7598L5.21564 13.7597L5.21574 13.7596L5.21584 13.7595L5.21594 13.7594L5.21604 13.7593L5.21614 13.7592L5.21624 13.7591L5.21634 13.759L5.21644 13.7589L5.21654 13.7588L5.21664 13.7587L5.21674 13.7586L5.21684 13.7585L5.21694 13.7584L5.21704 13.7583L5.21714 13.7582L5.21725 13.7581L5.21735 13.758L5.21745 13.7579L5.21755 13.7578L5.21765 13.7577L5.21775 13.7576L5.21785 13.7575L5.21795 13.7574L5.21805 13.7573L5.21815 13.7572L5.21825 13.7571L5.21835 13.757L5.21845 13.7569L5.21855 13.7568L5.21865 13.7567L5.21875 13.7566L5.21885 13.7565L5.21895 13.7564L5.21905 13.7563L5.21915 13.7562L5.21926 13.7561L5.21936 13.756L5.21946 13.7559L5.21956 13.7558L5.21966 13.7557L5.21976 13.7556L5.21986 13.7555L5.21996 13.7554L5.22006 13.7553L5.22016 13.7552L5.22026 13.7551L5.22036 13.755L5.22046 13.7549L5.22056 13.7548L5.22066 13.7547L5.22076 13.7546L5.22086 13.7545L5.22096 13.7544L5.22106 13.7543L5.22116 13.7542L5.22127 13.7541L5.22137 13.754L5.22147 13.7539L5.22157 13.7538L5.22167 13.7537L5.22177 13.7536L5.22187 13.7535L5.22197 13.7534L5.22207 13.7533L5.22217 13.7532L5.22227 13.7531L5.22237 13.753L5.22247 13.7529L5.22257 13.7528L5.22267 13.7527L5.22277 13.7526L5.22287 13.7525L5.22297 13.7524L5.22307 13.7523L5.22317 13.7522L5.22328 13.7521L5.22338 13.752L5.22348 13.7519L5.22358 13.7518L5.22368 13.7517L5.22378 13.7516L5.22388 13.7515L5.22398 13.7514L5.22408 13.7513L5.22418 13.7512L5.22428 13.7511L5.22438 13.751L5.22448 13.7509L5.22458 13.7508L5.22468 13.7507L5.22478 13.7506L5.22488 13.7505L5.22498 13.7504L5.22508 13.7503L5.22518 13.7502L5.22529 13.7501L5.22539 13.75L5.22549 13.7499L5.22559 13.7498L5.22569 13.7497L5.22579 13.7496L5.22589 13.7495L5.22599 13.7494L5.22609 13.7493L5.22619 13.7492L5.22629 13.7491L5.22639 13.749L5.22649 13.7489L5.22659 13.7488L5.22669 13.7487L5.22679 13.7486L5.22689 13.7485L5.22699 13.7484L5.22709 13.7483L5.22719 13.7482L5.2273 13.7481L5.2274 13.748L5.2275 13.7479L5.2276 13.7478L5.2277 13.7477L5.2278 13.7476L5.2279 13.7475L5.228 13.7474L5.2281 13.7473L5.2282 13.7472L5.2283 13.7471L5.2284 13.747L5.2285 13.7469L5.2286 13.7468L5.2287 13.7467L5.2288 13.7466L5.2289 13.7465L5.229 13.7464L5.2291 13.7463L5.2292 13.7462L5.22931 13.7461L5.22941 13.746L5.22951 13.7459L5.22961 13.7458L5.22971 13.7457L5.22981 13.7456L5.22991 13.7455L5.23001 13.7454L5.23011 13.7453L5.23021 13.7452L5.23031 13.7451L5.23041 13.745L5.23051 13.7449L5.23061 13.7448L5.23071 13.7447L5.23081 13.7446L5.23091 13.7445L5.23101 13.7444L5.23111 13.7443L5.23121 13.7442L5.23132 13.744L5.23142 13.7439L5.23152 13.7438L5.23162 13.7437L5.23172 13.7436L5.23182 13.7435L5.23192 13.7434L5.23202 13.7433L5.23212 13.7432L5.23222 13.7431L5.23232 13.743L5.23242 13.7429L5.23252 13.7428L5.23262 13.7427L5.23272 13.7426L5.23282 13.7425L5.23292 13.7424L5.23302 13.7423L5.23312 13.7422L5.23322 13.7421L5.23333 13.742L5.23343 13.7419L5.23353 13.7418L5.23363 13.7417L5.23373 13.7416L5.23383 13.7415L5.23393 13.7414L5.23403 13.7413L5.23413 13.7412L5.23423 13.7411L5.23433 13.741L5.23443 13.7409L5.23453 13.7408L5.23463 13.7407L5.23473 13.7406L5.23483 13.7405L5.23493 13.7404L5.23503 13.7403L5.23513 13.7402L5.23523 13.7401L5.23534 13.74L5.23544 13.7399L5.23554 13.7398L5.23564 13.7397L5.23574 13.7396L5.23584 13.7395L5.23594 13.7394L5.23604 13.7393L5.23614 13.7392L5.23624 13.7391L5.23634 13.739L5.23644 13.7389L5.23654 13.7388L5.23664 13.7387L5.23674 13.7386L5.23684 13.7385L5.23694 13.7384L5.23704 13.7383L5.23714 13.7382L5.23724 13.7381L5.23735 13.738L5.23745 13.7379L5.23755 13.7378L5.23765 13.7377L5.23775 13.7376L5.23785 13.7375L5.23795 13.7374L5.23805 13.7373L5.23815 13.7372L5.23825 13.7371L5.23835 13.737L5.23845 13.7369L5.23855 13.7368L5.23865 13.7367L5.23875 13.7366L5.23885 13.7365L5.23895 13.7364L5.23905 13.7363L5.23915 13.7362L5.23925 13.7361L5.23936 13.736L5.23946 13.7359L5.23956 13.7358L5.23966 13.7357L5.23976 13.7356L5.23986 13.7355L5.23996 13.7354L5.24006 13.7353L5.24016 13.7352L5.24026 13.7351L5.24036 13.735L5.24046 13.7349L5.24056 13.7348L5.24066 13.7347L5.24076 13.7346L5.24086 13.7345L5.24096 13.7344L5.24106 13.7343L5.24116 13.7342L5.24126 13.7341L5.24137 13.734L5.24147 13.7339L5.24157 13.7338L5.24167 13.7337L5.24177 13.7336L5.24187 13.7335L5.24197 13.7334L5.24207 13.7333L5.24217 13.7332L5.24227 13.7331L5.24237 13.733L5.24247 13.7329L5.24257 13.7328L5.24267 13.7327L5.24277 13.7326L5.24287 13.7325L5.24297 13.7324L5.24307 13.7323L5.24317 13.7322L5.24327 13.7321L5.24338 13.732L5.24348 13.7319L5.24358 13.7318L5.24368 13.7317L5.24378 13.7316L5.24388 13.7315L5.24398 13.7314L5.24408 13.7313L5.24418 13.7312L5.24428 13.7311L5.24438 13.731L5.24448 13.7309L5.24458 13.7308L5.24468 13.7307L5.24478 13.7306L5.24488 13.7305L5.24498 13.7304L5.24508 13.7303L5.24518 13.7302L5.24528 13.7301L5.24539 13.73L5.24549 13.7299L5.24559 13.7298L5.24569 13.7297L5.24579 13.7296L5.24589 13.7295L5.24599 13.7294L5.24609 13.7293L5.24619 13.7292L5.24629 13.7291L5.24639 13.729L5.24649 13.7289L5.24659 13.7288L5.24669 13.7287L5.24679 13.7286L5.24689 13.7285L5.24699 13.7284L5.24709 13.7283L5.24719 13.7282L5.24729 13.7281L5.2474 13.728L5.2475 13.7279L5.2476 13.7278L5.2477 13.7277L5.2478 13.7276L5.2479 13.7275L5.248 13.7274L5.2481 13.7273L5.2482 13.7272L5.2483 13.7271L5.2484 13.727L5.2485 13.7269L5.2486 13.7268L5.2487 13.7267L5.2488 13.7266L5.2489 13.7265L5.249 13.7264L5.2491 13.7263L5.2492 13.7262L5.2493 13.7261L5.24941 13.726L5.24951 13.7259L5.24961 13.7258L5.24971 13.7257L5.24981 13.7256L5.24991 13.7255L5.25001 13.7254L5.25011 13.7253L5.25021 13.7252L5.25031 13.7251L5.25041 13.725L5.25051 13.7249L5.25061 13.7248L5.25071 13.7247L5.25081 13.7246C5.31704 13.6583 5.36097 13.5474 5.31211 13.4373M3.00044 17.273L5.31211 13.4373M5.31211 13.4373C5.3124 13.438 5.31269 13.4387 5.31298 13.4395L5.22013 13.4766M5.31211 13.4373L5.94055 15.6722C5.62608 15.6779 5.33448 15.5464 5.12865 15.3405C4.91709 15.129 4.79131 14.8431 4.79131 14.5229C4.79131 14.2027 4.92281 13.9111 5.12865 13.7053L5.1801 13.6538C5.22584 13.6081 5.24872 13.5395 5.22013 13.4766M5.31211 13.4373C5.3118 13.4366 5.31148 13.4359 5.31117 13.4352L5.22013 13.4766M5.31211 13.4373L5.07147 13.3737C5.14008 13.3737 5.19726 13.4194 5.22013 13.4766M3.50765 16.5927L3.50765 18.4019L8.31628 18.38L8.31629 13.7996L7.33264 13.7996C7.44321 14.0141 7.50986 14.2581 7.50998 14.5222C7.51591 14.9579 7.3316 15.3488 7.04615 15.6342C6.76496 15.9154 6.36854 16.092 5.93624 16.0981L5.93624 16.0981H5.93484C5.50676 16.0981 5.11005 15.9208 4.82352 15.6342C4.53641 15.3471 4.36578 14.9563 4.3597 14.5243L4.35969 14.5229C4.35969 14.2585 4.42273 14.0173 4.53557 13.8004L3.51336 13.8049L3.51336 15.4287C3.52095 15.5574 3.4241 15.6632 3.31006 15.6896C3.18929 15.7174 3.0687 15.6539 3.02019 15.5497C2.96699 15.4436 2.89883 15.3448 2.82234 15.2683C2.62907 15.075 2.36844 14.9603 2.07544 14.9603C1.78245 14.9603 1.52181 15.075 1.32854 15.2683C1.14071 15.4561 1.02049 15.7226 1.02049 16.0152C1.02049 16.3082 1.13525 16.5689 1.32853 16.7621C1.51659 16.9502 1.78254 17.0697 2.0679 17.0645V17.0645H2.06972C2.36272 17.0645 2.62336 16.9497 2.81664 16.7564C2.89893 16.6741 2.96168 16.5806 3.01517 16.4737C3.06905 16.3659 3.1827 16.3071 3.30435 16.3352C3.42412 16.3628 3.50765 16.4662 3.50765 16.5927Z" fill="#010101" stroke="#010101" stroke-width="0.2"/>
<path d="M8.77648 9.85622L7.41097 9.85623C7.59585 10.1141 7.70514 10.4316 7.71008 10.7725L7.71008 10.7726C7.71622 11.2085 7.53186 11.5997 7.24626 11.8853C6.96507 12.1665 6.56866 12.343 6.13636 12.3491L6.13636 12.3491L6.13495 12.3491C5.69502 12.3491 5.30984 12.1715 5.02362 11.8853C4.74243 11.6041 4.5659 11.2077 4.55981 10.7754L4.5598 10.7754L4.5598 10.774C4.5598 10.427 4.6725 10.1123 4.85808 9.85623L3.67637 9.85623C3.60494 9.85623 3.53922 9.82912 3.4913 9.78119C3.44337 9.73326 3.41627 9.66755 3.41627 9.59614V7.78936C3.41627 7.67598 3.49038 7.5855 3.57992 7.54873C3.69001 7.49988 3.80091 7.54378 3.86715 7.61002L3.86725 7.61012L3.86735 7.61022L3.86745 7.61032L3.86755 7.61042L3.86765 7.61052L3.86775 7.61062L3.86785 7.61072L3.86795 7.61082L3.86805 7.61093L3.86815 7.61103L3.86825 7.61113L3.86835 7.61123L3.86845 7.61133L3.86855 7.61143L3.86865 7.61153L3.86875 7.61163L3.86885 7.61173L3.86895 7.61183L3.86905 7.61193L3.86916 7.61203L3.86926 7.61213L3.86936 7.61223L3.86946 7.61233L3.86956 7.61243L3.86966 7.61253L3.86976 7.61263L3.86986 7.61273L3.86996 7.61283L3.87006 7.61294L3.87016 7.61304L3.87026 7.61314L3.87036 7.61324L3.87046 7.61334L3.87056 7.61344L3.87066 7.61354L3.87076 7.61364L3.87086 7.61374L3.87096 7.61384L3.87106 7.61394L3.87117 7.61404L3.87127 7.61414L3.87137 7.61424L3.87147 7.61434L3.87157 7.61444L3.87167 7.61454L3.87177 7.61464L3.87187 7.61474L3.87197 7.61484L3.87207 7.61495L3.87217 7.61505L3.87227 7.61515L3.87237 7.61525L3.87247 7.61535L3.87257 7.61545L3.87267 7.61555L3.87277 7.61565L3.87287 7.61575L3.87297 7.61585L3.87307 7.61595L3.87318 7.61605L3.87328 7.61615L3.87338 7.61625L3.87348 7.61635L3.87358 7.61645L3.87368 7.61655L3.87378 7.61665L3.87388 7.61675L3.87398 7.61686L3.87408 7.61696L3.87418 7.61706L3.87428 7.61716L3.87438 7.61726L3.87448 7.61736L3.87458 7.61746L3.87468 7.61756L3.87478 7.61766L3.87488 7.61776L3.87499 7.61786L3.87509 7.61796L3.87519 7.61806L3.87529 7.61816L3.87539 7.61826L3.87549 7.61836L3.87559 7.61846L3.87569 7.61856L3.87579 7.61866L3.87589 7.61877L3.87599 7.61887L3.87609 7.61897L3.87619 7.61907L3.87629 7.61917L3.87639 7.61927L3.87649 7.61937L3.87659 7.61947L3.87669 7.61957L3.87679 7.61967L3.87689 7.61977L3.877 7.61987L3.8771 7.61997L3.8772 7.62007L3.8773 7.62017L3.8774 7.62027L3.8775 7.62037L3.8776 7.62047L3.8777 7.62057L3.8778 7.62067L3.8779 7.62078L3.878 7.62088L3.8781 7.62098L3.8782 7.62108L3.8783 7.62118L3.8784 7.62128L3.8785 7.62138L3.8786 7.62148L3.8787 7.62158L3.8788 7.62168L3.87891 7.62178L3.87901 7.62188L3.87911 7.62198L3.87921 7.62208L3.87931 7.62218L3.87941 7.62228L3.87951 7.62238L3.87961 7.62248L3.87971 7.62259L3.87981 7.62269L3.87991 7.62279L3.88001 7.62289L3.88011 7.62299L3.88021 7.62309L3.88031 7.62319L3.88041 7.62329L3.88051 7.62339L3.88061 7.62349L3.88071 7.62359L3.88082 7.62369L3.88092 7.62379L3.88102 7.62389L3.88112 7.62399L3.88122 7.62409L3.88132 7.62419L3.88142 7.62429L3.88152 7.62439L3.88162 7.62449L3.88172 7.6246L3.88182 7.6247L3.88192 7.6248L3.88202 7.6249L3.88212 7.625L3.88222 7.6251L3.88232 7.6252L3.88242 7.6253L3.88252 7.6254L3.88262 7.6255L3.88273 7.6256L3.88283 7.6257L3.88293 7.6258L3.88303 7.6259L3.88313 7.626L3.88323 7.6261L3.88333 7.6262L3.88343 7.6263L3.88353 7.6264L3.88363 7.62651L3.88373 7.62661L3.88383 7.62671L3.88393 7.62681L3.88403 7.62691L3.88413 7.62701L3.88423 7.62711L3.88433 7.62721L3.88443 7.62731L3.88453 7.62741L3.88463 7.62751L3.88474 7.62761L3.88484 7.62771L3.88494 7.62781L3.88504 7.62791L3.88514 7.62801L3.88524 7.62811L3.88534 7.62821L3.88544 7.62832L3.88554 7.62842L3.88564 7.62852L3.88574 7.62862L3.88584 7.62872L3.88594 7.62882L3.88604 7.62892L3.88614 7.62902L3.88624 7.62912L3.88634 7.62922L3.88644 7.62932L3.88655 7.62942L3.88665 7.62952L3.88675 7.62962L3.88685 7.62972L3.88695 7.62982L3.88705 7.62992L3.88715 7.63002L3.88725 7.63012L3.88735 7.63022L3.88745 7.63033L3.88755 7.63043L3.88765 7.63053L3.88775 7.63063L3.88785 7.63073L3.88795 7.63083L3.88805 7.63093L3.88815 7.63103L3.88825 7.63113L3.88835 7.63123L3.88846 7.63133L3.88856 7.63143L3.88866 7.63153L3.88876 7.63163L3.88886 7.63173L3.88896 7.63183L3.88906 7.63193L3.88916 7.63203L3.88926 7.63213L3.88936 7.63224L3.88946 7.63234L3.88956 7.63244L3.88966 7.63254L3.88976 7.63264L3.88986 7.63274L3.88996 7.63284L3.89006 7.63294L3.89016 7.63304L3.89026 7.63314L3.89037 7.63324L3.89047 7.63334L3.89057 7.63344L3.89067 7.63354L3.89077 7.63364L3.89087 7.63374L3.89097 7.63384L3.89107 7.63394L3.89117 7.63404L3.89127 7.63415L3.89137 7.63425L3.89147 7.63435L3.89157 7.63445L3.89167 7.63455L3.89177 7.63465L3.89187 7.63475L3.89197 7.63485L3.89207 7.63495L3.89217 7.63505L3.89228 7.63515L3.89238 7.63525L3.89248 7.63535L3.89258 7.63545L3.89268 7.63555L3.89278 7.63565L3.89288 7.63575L3.89298 7.63585L3.89308 7.63596L3.89318 7.63606L3.89328 7.63616L3.89338 7.63626L3.89348 7.63636L3.89358 7.63646L3.89368 7.63656L3.89378 7.63666L3.89388 7.63676L3.89398 7.63686L3.89408 7.63696L3.89419 7.63706L3.89429 7.63716L3.89439 7.63726L3.89449 7.63736L3.89459 7.63746L3.89469 7.63756L3.89479 7.63766L3.89489 7.63776L3.89499 7.63787L3.89509 7.63797L3.89519 7.63807L3.89529 7.63817L3.89539 7.63827L3.89549 7.63837L3.89559 7.63847L3.89569 7.63857L3.89579 7.63867L3.89589 7.63877L3.89599 7.63887L3.8961 7.63897L3.8962 7.63907L3.8963 7.63917L3.8964 7.63927L3.8965 7.63937L3.8966 7.63947L3.8967 7.63957L3.8968 7.63967L3.8969 7.63978L3.897 7.63988L3.8971 7.63998L3.8972 7.64008L3.8973 7.64018L3.8974 7.64028L3.8975 7.64038L3.8976 7.64048L3.8977 7.64058L3.8978 7.64068L3.8979 7.64078L3.89801 7.64088L3.89811 7.64098L3.89821 7.64108L3.89831 7.64118L3.89841 7.64128L3.89851 7.64138L3.89861 7.64148L3.89871 7.64158L3.89881 7.64169L3.89891 7.64179L3.89901 7.64189L3.89911 7.64199L3.89921 7.64209L3.89931 7.64219L3.89941 7.64229L3.89951 7.64239L3.89961 7.64249L3.89971 7.64259L3.89981 7.64269L3.89992 7.64279L3.90002 7.64289L3.90012 7.64299L3.90022 7.64309L3.90032 7.64319L3.90042 7.64329L3.90052 7.64339L3.90062 7.64349L3.90072 7.6436L3.90082 7.6437L3.90092 7.6438L3.90102 7.6439L3.90112 7.644L3.90122 7.6441L3.90132 7.6442L3.90142 7.6443L3.90152 7.6444L3.90162 7.6445L3.90172 7.6446L3.90183 7.6447L3.90193 7.6448L3.90203 7.6449L3.90213 7.645L3.90223 7.6451L3.90233 7.6452L3.90243 7.6453L3.90253 7.6454L3.90263 7.64551L3.90273 7.64561L3.90283 7.64571L3.90293 7.64581L3.90303 7.64591L3.90313 7.64601L3.90323 7.64611L3.90333 7.64621L3.90343 7.64631L3.90353 7.64641L3.90364 7.64651L3.90374 7.64661L3.90384 7.64671L3.90394 7.64681L3.90404 7.64691L3.90414 7.64701L3.90424 7.64711L3.90434 7.64721L3.90444 7.64731L3.90454 7.64742L3.90464 7.64752L3.90474 7.64762L3.90484 7.64772L3.90494 7.64782L3.90504 7.64792L3.90514 7.64802L3.90524 7.64812L3.90534 7.64822L3.90544 7.64832L3.90554 7.64842L3.90565 7.64852L3.90575 7.64862L3.90585 7.64872L3.90595 7.64882L3.90605 7.64892L3.90615 7.64902L3.90625 7.64912L3.90635 7.64922L3.90645 7.64933L3.90655 7.64943L3.90665 7.64953L3.90675 7.64963L3.90685 7.64973L3.90695 7.64983L3.90705 7.64993L3.90715 7.65003L3.90725 7.65013L3.90735 7.65023L3.90745 7.65033L3.90756 7.65043L3.90766 7.65053L3.90776 7.65063L3.90786 7.65073L3.90796 7.65083L3.90806 7.65093L3.90816 7.65103L3.90826 7.65113L3.90836 7.65124L3.90846 7.65134L3.90856 7.65144L3.90866 7.65154L3.90876 7.65164L3.90886 7.65174L3.90896 7.65184L3.90906 7.65194L3.90916 7.65204L3.90926 7.65214L3.90936 7.65224L3.90947 7.65234L3.90957 7.65244L3.90967 7.65254L3.90977 7.65264L3.90987 7.65274L3.90997 7.65284L3.91007 7.65294L3.91017 7.65304L3.91027 7.65314L3.91037 7.65325L3.91047 7.65335L3.91057 7.65345L3.91067 7.65355L3.91077 7.65365L3.91087 7.65375L3.91097 7.65385L3.91107 7.65395L3.91117 7.65405L3.91127 7.65415L3.91138 7.65425L3.91148 7.65435L3.91158 7.65445L3.91168 7.65455L3.91178 7.65465L3.91188 7.65475L3.91198 7.65485L3.91208 7.65495L3.91218 7.65505L3.91228 7.65516L3.91238 7.65526L3.91248 7.65536L3.91258 7.65546L3.91268 7.65556L3.91278 7.65566L3.91288 7.65576L3.91298 7.65586L3.91308 7.65596L3.91318 7.65606L3.91329 7.65616L3.91339 7.65626L3.91349 7.65636L3.91359 7.65646L3.91369 7.65656L3.91379 7.65666L3.91389 7.65676L3.91399 7.65686L3.91409 7.65696L3.91419 7.65707L3.91429 7.65717L3.91439 7.65727L3.91449 7.65737L3.91459 7.65747L3.91469 7.65757L3.91479 7.65767L3.91489 7.65777L3.91499 7.65787L3.91509 7.65797L3.91519 7.65807L3.9153 7.65817L3.9154 7.65827L3.9155 7.65837L3.9156 7.65847L3.9157 7.65857L3.9158 7.65867L3.9159 7.65877L3.916 7.65887L3.9161 7.65897L3.9162 7.65908L3.9163 7.65918L3.9164 7.65928L3.9165 7.65938L3.9166 7.65948L3.9167 7.65958L3.9168 7.65968L3.9169 7.65978L3.917 7.65988L3.9171 7.65998L3.9172 7.66008L3.91731 7.66018L3.91741 7.66028L3.91751 7.66038L3.91761 7.66048L3.91771 7.66058L3.91781 7.66068L3.91791 7.66078L3.91801 7.66088L3.91811 7.66098L3.91821 7.66109L3.91831 7.66119L3.91841 7.66129L3.91851 7.66139L3.91861 7.66149C4.10643 7.84931 4.37288 7.96953 4.66551 7.96953C4.95851 7.96953 5.21914 7.85475 5.41242 7.66148C5.6057 7.4682 5.72047 7.20756 5.72047 6.91457C5.72047 6.62157 5.60571 6.36094 5.41243 6.16767C5.22461 5.97984 4.95815 5.85961 4.66552 5.85961C4.37252 5.85961 4.11189 5.97439 3.91861 6.16767L3.91851 6.16777L3.91841 6.16787L3.91831 6.16797L3.91821 6.16807L3.91811 6.16817L3.91801 6.16827L3.9179 6.16837L3.9178 6.16847L3.9177 6.16857L3.9176 6.16867L3.9175 6.16877L3.9174 6.16887L3.9173 6.16897L3.9172 6.16907L3.9171 6.16917L3.917 6.16928L3.9169 6.16938L3.9168 6.16948L3.9167 6.16958L3.9166 6.16968L3.9165 6.16978L3.9164 6.16988L3.9163 6.16998L3.9162 6.17008L3.9161 6.17018L3.916 6.17028L3.91589 6.17038L3.91579 6.17048L3.91569 6.17058L3.91559 6.17068L3.91549 6.17078L3.91539 6.17088L3.91529 6.17098L3.91519 6.17108L3.91509 6.17118L3.91499 6.17129L3.91489 6.17139L3.91479 6.17149L3.91469 6.17159L3.91459 6.17169L3.91449 6.17179L3.91439 6.17189L3.91429 6.17199L3.91419 6.17209L3.91409 6.17219L3.91399 6.17229L3.91388 6.17239L3.91378 6.17249L3.91368 6.17259L3.91358 6.17269L3.91348 6.17279L3.91338 6.17289L3.91328 6.17299L3.91318 6.17309L3.91308 6.1732L3.91298 6.1733L3.91288 6.1734L3.91278 6.1735L3.91268 6.1736L3.91258 6.1737L3.91248 6.1738L3.91238 6.1739L3.91228 6.174L3.91218 6.1741L3.91208 6.1742L3.91198 6.1743L3.91187 6.1744L3.91177 6.1745L3.91167 6.1746L3.91157 6.1747L3.91147 6.1748L3.91137 6.1749L3.91127 6.175L3.91117 6.1751L3.91107 6.1752L3.91097 6.17531L3.91087 6.17541L3.91077 6.17551L3.91067 6.17561L3.91057 6.17571L3.91047 6.17581L3.91037 6.17591L3.91027 6.17601L3.91017 6.17611L3.91007 6.17621L3.90997 6.17631L3.90986 6.17641L3.90976 6.17651L3.90966 6.17661L3.90956 6.17671L3.90946 6.17681L3.90936 6.17691L3.90926 6.17701L3.90916 6.17711L3.90906 6.17722L3.90896 6.17732L3.90886 6.17742L3.90876 6.17752L3.90866 6.17762L3.90856 6.17772L3.90846 6.17782L3.90836 6.17792L3.90826 6.17802L3.90816 6.17812L3.90806 6.17822L3.90795 6.17832L3.90785 6.17842L3.90775 6.17852L3.90765 6.17862L3.90755 6.17872L3.90745 6.17882L3.90735 6.17892L3.90725 6.17902L3.90715 6.17912L3.90705 6.17923L3.90695 6.17933L3.90685 6.17943L3.90675 6.17953L3.90665 6.17963L3.90655 6.17973L3.90645 6.17983L3.90635 6.17993L3.90625 6.18003L3.90615 6.18013L3.90605 6.18023L3.90595 6.18033L3.90584 6.18043L3.90574 6.18053L3.90564 6.18063L3.90554 6.18073L3.90544 6.18083L3.90534 6.18093L3.90524 6.18103L3.90514 6.18113L3.90504 6.18124L3.90494 6.18134L3.90484 6.18144L3.90474 6.18154L3.90464 6.18164L3.90454 6.18174L3.90444 6.18184L3.90434 6.18194L3.90424 6.18204L3.90414 6.18214L3.90404 6.18224L3.90394 6.18234L3.90383 6.18244L3.90373 6.18254L3.90363 6.18264L3.90353 6.18274L3.90343 6.18284L3.90333 6.18294L3.90323 6.18304L3.90313 6.18314L3.90303 6.18325L3.90293 6.18335L3.90283 6.18345L3.90273 6.18355L3.90263 6.18365L3.90253 6.18375L3.90243 6.18385L3.90233 6.18395L3.90223 6.18405L3.90213 6.18415L3.90203 6.18425L3.90193 6.18435L3.90182 6.18445L3.90172 6.18455L3.90162 6.18465L3.90152 6.18475L3.90142 6.18485L3.90132 6.18495L3.90122 6.18505L3.90112 6.18515L3.90102 6.18526L3.90092 6.18536L3.90082 6.18546L3.90072 6.18556L3.90062 6.18566L3.90052 6.18576L3.90042 6.18586L3.90032 6.18596L3.90022 6.18606L3.90012 6.18616L3.90002 6.18626L3.89992 6.18636L3.89981 6.18646L3.89971 6.18656L3.89961 6.18666L3.89951 6.18676L3.89941 6.18686L3.89931 6.18696L3.89921 6.18706L3.89911 6.18716L3.89901 6.18727L3.89891 6.18737L3.89881 6.18747L3.89871 6.18757L3.89861 6.18767L3.89851 6.18777L3.89841 6.18787L3.89831 6.18797L3.89821 6.18807L3.89811 6.18817L3.89801 6.18827L3.89791 6.18837L3.8978 6.18847L3.8977 6.18857L3.8976 6.18867L3.8975 6.18877L3.8974 6.18887L3.8973 6.18897L3.8972 6.18907L3.8971 6.18917L3.897 6.18928L3.8969 6.18938L3.8968 6.18948L3.8967 6.18958L3.8966 6.18968L3.8965 6.18978L3.8964 6.18988L3.8963 6.18998L3.8962 6.19008L3.8961 6.19018L3.896 6.19028L3.8959 6.19038L3.89579 6.19048L3.89569 6.19058L3.89559 6.19068L3.89549 6.19078L3.89539 6.19088L3.89529 6.19098L3.89519 6.19108L3.89509 6.19118L3.89499 6.19129L3.89489 6.19139L3.89479 6.19149L3.89469 6.19159L3.89459 6.19169L3.89449 6.19179L3.89439 6.19189L3.89429 6.19199L3.89419 6.19209L3.89409 6.19219L3.89399 6.19229L3.89388 6.19239L3.89378 6.19249L3.89368 6.19259L3.89358 6.19269L3.89348 6.19279L3.89338 6.19289L3.89328 6.19299L3.89318 6.19309L3.89308 6.19319L3.89298 6.1933L3.89288 6.1934L3.89278 6.1935L3.89268 6.1936L3.89258 6.1937L3.89248 6.1938L3.89238 6.1939L3.89228 6.194L3.89218 6.1941L3.89208 6.1942L3.89198 6.1943L3.89188 6.1944L3.89177 6.1945L3.89167 6.1946L3.89157 6.1947L3.89147 6.1948L3.89137 6.1949L3.89127 6.195L3.89117 6.1951L3.89107 6.1952L3.89097 6.1953L3.89087 6.19541L3.89077 6.19551L3.89067 6.19561L3.89057 6.19571L3.89047 6.19581L3.89037 6.19591L3.89027 6.19601L3.89017 6.19611L3.89007 6.19621L3.88997 6.19631L3.88987 6.19641L3.88976 6.19651L3.88966 6.19661L3.88956 6.19671L3.88946 6.19681L3.88936 6.19691L3.88926 6.19701L3.88916 6.19711L3.88906 6.19721L3.88896 6.19732L3.88886 6.19742L3.88876 6.19752L3.88866 6.19762L3.88856 6.19772L3.88846 6.19782L3.88836 6.19792L3.88826 6.19802L3.88816 6.19812L3.88806 6.19822L3.88796 6.19832L3.88786 6.19842L3.88775 6.19852L3.88765 6.19862L3.88755 6.19872L3.88745 6.19882L3.88735 6.19892L3.88725 6.19902L3.88715 6.19912L3.88705 6.19922L3.88695 6.19933L3.88685 6.19943L3.88675 6.19953L3.88665 6.19963L3.88655 6.19973L3.88645 6.19983L3.88635 6.19993L3.88625 6.20003L3.88615 6.20013L3.88605 6.20023L3.88595 6.20033L3.88585 6.20043L3.88574 6.20053L3.88564 6.20063L3.88554 6.20073L3.88544 6.20083L3.88534 6.20093L3.88524 6.20103L3.88514 6.20113L3.88504 6.20123L3.88494 6.20134L3.88484 6.20144L3.88474 6.20154L3.88464 6.20164L3.88454 6.20174L3.88444 6.20184L3.88434 6.20194L3.88424 6.20204L3.88414 6.20214L3.88404 6.20224L3.88394 6.20234L3.88384 6.20244L3.88373 6.20254L3.88363 6.20264L3.88353 6.20274L3.88343 6.20284L3.88333 6.20294L3.88323 6.20304L3.88313 6.20314L3.88303 6.20324L3.88293 6.20334L3.88283 6.20345L3.88273 6.20355L3.88263 6.20365L3.88253 6.20375L3.88243 6.20385L3.88233 6.20395L3.88223 6.20405L3.88213 6.20415L3.88203 6.20425L3.88193 6.20435L3.88183 6.20445L3.88172 6.20455L3.88162 6.20465L3.88152 6.20475L3.88142 6.20485L3.88132 6.20495L3.88122 6.20505L3.88112 6.20515L3.88102 6.20525L3.88092 6.20536L3.88082 6.20546L3.88072 6.20556L3.88062 6.20566L3.88052 6.20576L3.88042 6.20586L3.88032 6.20596L3.88022 6.20606L3.88012 6.20616L3.88002 6.20626L3.87992 6.20636L3.87982 6.20646L3.87971 6.20656L3.87961 6.20666L3.87951 6.20676L3.87941 6.20686L3.87931 6.20696L3.87921 6.20706L3.87911 6.20716L3.87901 6.20726L3.87891 6.20737L3.87881 6.20747L3.87871 6.20757L3.87861 6.20767L3.87851 6.20777L3.87841 6.20787L3.87831 6.20797L3.87821 6.20807L3.87811 6.20817L3.87801 6.20827L3.87791 6.20837L3.87781 6.20847L3.8777 6.20857L3.8776 6.20867L3.8775 6.20877L3.8774 6.20887L3.8773 6.20897L3.8772 6.20907L3.8771 6.20917L3.877 6.20927L3.8769 6.20937L3.8768 6.20948L3.8767 6.20958L3.8766 6.20968L3.8765 6.20978L3.8764 6.20988L3.8763 6.20998L3.8762 6.21008L3.8761 6.21018L3.876 6.21028L3.8759 6.21038L3.8758 6.21048L3.87569 6.21058L3.87559 6.21068L3.87549 6.21078L3.87539 6.21088L3.87529 6.21098L3.87519 6.21108L3.87509 6.21118L3.87499 6.21128L3.87489 6.21139L3.87479 6.21149L3.87469 6.21159L3.87459 6.21169L3.87449 6.21179L3.87439 6.21189L3.87429 6.21199L3.87419 6.21209L3.87409 6.21219L3.87399 6.21229L3.87389 6.21239L3.87379 6.21249L3.87368 6.21259L3.87358 6.21269L3.87348 6.21279L3.87338 6.21289L3.87328 6.21299L3.87318 6.21309L3.87308 6.21319L3.87298 6.21329L3.87288 6.2134L3.87278 6.2135L3.87268 6.2136L3.87258 6.2137L3.87248 6.2138L3.87238 6.2139L3.87228 6.214L3.87218 6.2141L3.87208 6.2142L3.87198 6.2143L3.87188 6.2144L3.87178 6.2145L3.87167 6.2146L3.87157 6.2147L3.87147 6.2148L3.87137 6.2149L3.87127 6.215L3.87117 6.2151L3.87107 6.2152L3.87097 6.2153L3.87087 6.21541L3.87077 6.21551L3.87067 6.21561L3.87066 6.21562C3.8023 6.29747 3.68895 6.34142 3.57781 6.2909C3.48643 6.24937 3.41627 6.16639 3.41627 6.05121L3.41627 4.27875C3.41627 4.20735 3.44336 4.14162 3.4913 4.09368C3.53924 4.04574 3.60496 4.01865 3.67637 4.01865L8.77649 4.01866C8.9232 4.01866 9.03657 4.13203 9.03657 4.27874L9.03657 9.59613C9.03657 9.74284 8.92319 9.85622 8.77648 9.85622ZM6.23494 6.91888L6.23495 6.92029C6.23495 7.36021 6.05734 7.74539 5.77112 8.03161C5.48401 8.31872 5.09322 8.48934 4.66121 8.49543L4.66121 8.49544H4.6598C4.39543 8.49544 4.15112 8.42877 3.93646 8.3181L3.93646 9.33604L5.56318 9.33604V9.33575L5.57085 9.33634C5.67724 9.34452 5.79136 9.41214 5.82072 9.53934C5.84879 9.66099 5.79 9.77464 5.68224 9.82852C5.57564 9.88182 5.47629 9.95024 5.39947 10.0271C5.21165 10.2149 5.09142 10.4813 5.09142 10.774C5.09142 11.0673 5.20646 11.3279 5.39375 11.5152C5.58703 11.7084 5.84767 11.8232 6.14067 11.8232C6.43366 11.8232 6.69429 11.7084 6.88757 11.5152C7.07539 11.3273 7.19563 11.0609 7.19563 10.7682C7.19563 10.4753 7.08084 10.2146 6.88757 10.0213C6.80527 9.93904 6.71179 9.87629 6.60481 9.82281C6.49705 9.76893 6.43825 9.65528 6.46633 9.53363C6.49291 9.41846 6.59395 9.32839 6.72152 9.33605L8.52783 9.33604L8.52783 4.53885L3.9479 4.53885L3.9479 5.51954C4.15613 5.41029 4.39853 5.34514 4.6598 5.34514C5.09972 5.34514 5.4849 5.52276 5.77112 5.80898C6.05824 6.09609 6.22885 6.48686 6.23494 6.91888Z" fill="#010101" stroke="#010101" stroke-width="0.2"/>
</svg>
