<svg width="60" height="60" viewBox="0 0 60 60" fill="none" xmlns="http://www.w3.org/2000/svg">
<path fill-rule="evenodd" clip-rule="evenodd" d="M28.4947 48.3661H16.2006C15.8498 48.3661 15.5491 48.0823 15.5491 47.7151V45.3116C11.4734 43.9429 7.83192 41.3056 5.24281 37.8505C2.46995 34.145 1 29.7218 1 25.0816C1 13.3142 10.5714 3.75 22.3477 3.75C34.124 3.75 43.6953 13.3142 43.6953 25.0816C43.6953 29.7218 42.2254 34.145 39.4525 37.8505C36.8634 41.3056 33.2219 43.9429 29.1462 45.3116V47.7151C29.1462 48.0823 28.8455 48.3661 28.4947 48.3661ZM16.8521 47.0808H27.8433V44.8609C27.8433 44.5771 28.027 44.3268 28.2943 44.2433C36.7298 41.6228 42.3924 33.928 42.3924 25.0983C42.3924 14.0486 33.389 5.05194 22.3309 5.05194C11.2729 5.05194 2.2695 14.0486 2.2695 25.0983C2.2695 33.928 7.93214 41.6228 16.3676 44.2433C16.6349 44.3268 16.8186 44.5771 16.8186 44.8609L16.8521 47.0808Z" fill="#010101"/>
<path fill-rule="evenodd" clip-rule="evenodd" d="M30.6328 52.2388H14.4467C14.0959 52.2388 13.7952 51.955 13.7952 51.5878V47.7154C13.7952 47.3649 14.0792 47.0645 14.4467 47.0645H30.6161C30.9669 47.0645 31.2676 47.3482 31.2676 47.7154V51.5878C31.2676 51.955 30.9836 52.2388 30.6328 52.2388ZM15.0981 50.9536H29.9814V48.3664H15.0981V50.9536Z" fill="#010101"/>
<path fill-rule="evenodd" clip-rule="evenodd" d="M30.6328 56.1275H14.4467C14.0959 56.1275 13.7952 55.8437 13.7952 55.4765V51.6041C13.7952 51.2536 14.0792 50.9531 14.4467 50.9531H30.6161C30.9669 50.9531 31.2676 51.2369 31.2676 51.6041V55.4765C31.2676 55.827 30.9836 56.1275 30.6328 56.1275ZM15.0981 54.8255H29.9814V52.2384H15.0981V54.8255Z" fill="#010101"/>
<path fill-rule="evenodd" clip-rule="evenodd" d="M26.0893 60.0005H18.5893C18.2385 60.0005 17.9378 59.7167 17.9378 59.3495V55.4771C17.9378 55.1266 18.2218 54.8262 18.5893 54.8262H26.0893C26.4401 54.8262 26.7408 55.1099 26.7408 55.4771V59.3495C26.7408 59.7167 26.4568 60.0005 26.0893 60.0005ZM19.2407 58.7153H25.4546V56.1281H19.2407V58.7153Z" fill="#010101"/>
<path fill-rule="evenodd" clip-rule="evenodd" d="M47.1213 30.2949H42.5277C42.1435 30.2949 41.8261 29.9777 41.8261 29.5938V26.3056C40.8406 26.0386 39.9052 25.6547 39.0365 25.1539L36.7147 27.474C36.5811 27.6076 36.3973 27.6743 36.2136 27.6743C36.0298 27.6743 35.8461 27.6076 35.7125 27.474L32.4719 24.2359C32.2046 23.9688 32.2046 23.5182 32.4719 23.2511L34.7937 20.931C34.2926 20.0464 33.8917 19.1117 33.6412 18.1436H30.3505C29.9663 18.1436 29.6489 17.8264 29.6489 17.4425V12.8524C29.6489 12.4685 29.9663 12.1513 30.3505 12.1513H33.6412C33.9084 11.1665 34.2926 10.2318 34.7937 9.36388L32.4719 7.04378C32.2046 6.77672 32.2046 6.32604 32.4719 6.05898L35.7125 2.82085C35.8461 2.68732 36.0298 2.62056 36.2136 2.62056C36.3973 2.62056 36.5811 2.68732 36.7147 2.82085L39.0365 5.14096C39.9219 4.64021 40.8573 4.23962 41.8261 3.98925V0.701051C41.8261 0.317149 42.1435 0 42.5277 0H47.1213C47.5055 0 47.8228 0.317149 47.8228 0.701051V3.98925C48.8084 4.25631 49.7438 4.64021 50.6124 5.14096L52.9343 2.82085C53.0679 2.68732 53.2516 2.62056 53.4354 2.62056C53.6191 2.62056 53.8029 2.68732 53.9365 2.82085L57.177 6.05898C57.4443 6.32604 57.4443 6.77672 57.177 7.04378L54.8552 9.36388C55.3563 10.2485 55.7572 11.1832 56.0078 12.1513H59.2985C59.6826 12.1513 60 12.4685 60 12.8524V17.4425C60 17.8264 59.6826 18.1436 59.2985 18.1436H56.0078C55.7405 19.1283 55.3563 20.0631 54.8552 20.931L57.177 23.2511C57.4443 23.5182 57.4443 23.9688 57.177 24.2359L53.9365 27.474C53.8029 27.6076 53.6191 27.6743 53.4354 27.6743C53.2516 27.6743 53.0679 27.6076 52.9343 27.474L50.6124 25.1539C49.7271 25.6547 48.7917 26.0553 47.8228 26.3056V29.5938C47.8228 29.9777 47.5055 30.2949 47.1213 30.2949ZM44.8328 20.2133C47.6391 20.2133 49.9108 17.9433 49.9108 15.1391C49.9108 12.3349 47.6391 10.0649 44.8328 10.0649C42.0266 10.0649 39.7548 12.3349 39.7548 15.1391C39.7548 17.9266 42.0266 20.2133 44.8328 20.2133ZM44.8328 11.4503C42.8117 11.4503 41.158 13.1028 41.158 15.1224C41.158 17.1421 42.8117 18.7945 44.8328 18.7945C46.854 18.7945 48.5077 17.1421 48.5077 15.1224C48.5077 13.1028 46.854 11.4503 44.8328 11.4503ZM44.8328 22.9507C49.1425 22.9507 52.667 19.4455 52.667 15.1224C52.667 10.816 49.1592 7.29415 44.8328 7.29415C40.5232 7.29415 36.9987 10.7993 36.9987 15.1224C36.9987 19.4455 40.5065 22.9507 44.8328 22.9507ZM44.8328 8.71292C41.2916 8.71292 38.4018 11.6005 38.4018 15.1391C38.4018 18.6777 41.2916 21.5653 44.8328 21.5653C48.3741 21.5653 51.2639 18.6777 51.2639 15.1391C51.2472 11.6005 48.3741 8.71292 44.8328 8.71292Z" fill="#FEC830"/>
</svg>
