<svg width="30" height="30" viewBox="0 0 30 30" fill="none" xmlns="http://www.w3.org/2000/svg">
<path fill-rule="evenodd" clip-rule="evenodd" d="M14.2474 24.183H8.1003C7.92491 24.183 7.77457 24.0412 7.77457 23.8576V22.6558C5.73669 21.9714 3.91596 20.6528 2.6214 18.9253C1.23498 17.0725 0.5 14.8609 0.5 12.5408C0.5 6.65709 5.28569 1.875 11.1738 1.875C17.062 1.875 21.8477 6.65709 21.8477 12.5408C21.8477 14.8609 21.1127 17.0725 19.7263 18.9253C18.4317 20.6528 16.611 21.9714 14.5731 22.6558V23.8576C14.5731 24.0412 14.4227 24.183 14.2474 24.183ZM8.42603 23.5404H13.9216V22.4304C13.9216 22.2886 14.0135 22.1634 14.1471 22.1217C18.3649 20.8114 21.1962 16.964 21.1962 12.5491C21.1962 7.0243 16.6945 2.52597 11.1655 2.52597C5.63646 2.52597 1.13475 7.0243 1.13475 12.5491C1.13475 16.964 3.96607 20.8114 8.18382 22.1217C8.31745 22.1634 8.40932 22.2886 8.40932 22.4304L8.42603 23.5404Z" fill="#010101"/>
<path fill-rule="evenodd" clip-rule="evenodd" d="M15.3164 26.1194H7.22331C7.04792 26.1194 6.89758 25.9775 6.89758 25.7939V23.8577C6.89758 23.6825 7.03957 23.5322 7.22331 23.5322H15.308C15.4834 23.5322 15.6338 23.6741 15.6338 23.8577V25.7939C15.6338 25.9775 15.4918 26.1194 15.3164 26.1194ZM7.54904 25.4768H14.9907V24.1832H7.54904V25.4768Z" fill="#010101"/>
<path fill-rule="evenodd" clip-rule="evenodd" d="M15.3164 28.0637H7.22331C7.04792 28.0637 6.89758 27.9218 6.89758 27.7382V25.802C6.89758 25.6268 7.03957 25.4766 7.22331 25.4766H15.308C15.4834 25.4766 15.6338 25.6184 15.6338 25.802V27.7382C15.6338 27.9135 15.4918 28.0637 15.3164 28.0637ZM7.54904 27.4128H14.9907V26.1192H7.54904V27.4128Z" fill="#010101"/>
<path fill-rule="evenodd" clip-rule="evenodd" d="M13.0447 30.0003H9.29466C9.11927 30.0003 8.96893 29.8584 8.96893 29.6748V27.7386C8.96893 27.5633 9.11092 27.4131 9.29466 27.4131H13.0447C13.2201 27.4131 13.3704 27.555 13.3704 27.7386V29.6748C13.3704 29.8584 13.2284 30.0003 13.0447 30.0003ZM9.62038 29.3576H12.7273V28.0641H9.62038V29.3576Z" fill="#010101"/>
<path fill-rule="evenodd" clip-rule="evenodd" d="M23.5606 15.1474H21.2638C21.0717 15.1474 20.9131 14.9889 20.9131 14.7969V13.1528C20.4203 13.0193 19.9526 12.8273 19.5183 12.577L18.3573 13.737C18.2905 13.8038 18.1987 13.8372 18.1068 13.8372C18.0149 13.8372 17.923 13.8038 17.8562 13.737L16.2359 12.118C16.1023 11.9844 16.1023 11.7591 16.2359 11.6256L17.3969 10.4655C17.1463 10.0232 16.9459 9.55583 16.8206 9.07178H15.1752C14.9831 9.07178 14.8245 8.9132 14.8245 8.72125V6.42618C14.8245 6.23423 14.9831 6.07567 15.1752 6.07567H16.8206C16.9542 5.58327 17.1463 5.11592 17.3969 4.68194L16.2359 3.52189C16.1023 3.38836 16.1023 3.16302 16.2359 3.02949L17.8562 1.41042C17.923 1.34366 18.0149 1.31028 18.1068 1.31028C18.1987 1.31028 18.2905 1.34366 18.3573 1.41042L19.5183 2.57048C19.9609 2.32011 20.4286 2.11981 20.9131 1.99462V0.350525C20.9131 0.158574 21.0717 0 21.2638 0H23.5606C23.7527 0 23.9114 0.158574 23.9114 0.350525V1.99462C24.4042 2.12815 24.8719 2.32011 25.3062 2.57048L26.4671 1.41042C26.5339 1.34366 26.6258 1.31028 26.7177 1.31028C26.8096 1.31028 26.9014 1.34366 26.9682 1.41042L28.5885 3.02949C28.7222 3.16302 28.7222 3.38836 28.5885 3.52189L27.4276 4.68194C27.6782 5.12426 27.8786 5.59162 28.0039 6.07567H29.6492C29.8413 6.07567 30 6.23423 30 6.42618V8.72125C30 8.9132 29.8413 9.07178 29.6492 9.07178H28.0039C27.8703 9.56417 27.6782 10.0315 27.4276 10.4655L28.5885 11.6256C28.7222 11.7591 28.7222 11.9844 28.5885 12.118L26.9682 13.737C26.9014 13.8038 26.8096 13.8372 26.7177 13.8372C26.6258 13.8372 26.5339 13.8038 26.4671 13.737L25.3062 12.577C24.8635 12.8273 24.3958 13.0276 23.9114 13.1528V14.7969C23.9114 14.9889 23.7527 15.1474 23.5606 15.1474ZM22.4164 10.1066C23.8195 10.1066 24.9554 8.97163 24.9554 7.56955C24.9554 6.16747 23.8195 5.03246 22.4164 5.03246C21.0133 5.03246 19.8774 6.16747 19.8774 7.56955C19.8774 8.96328 21.0133 10.1066 22.4164 10.1066ZM22.4164 5.72515C21.4058 5.72515 20.579 6.55138 20.579 7.56121C20.579 8.57104 21.4058 9.39726 22.4164 9.39726C23.427 9.39726 24.2539 8.57104 24.2539 7.56121C24.2539 6.55138 23.427 5.72515 22.4164 5.72515ZM22.4164 11.4753C24.5712 11.4753 26.3335 9.72274 26.3335 7.56121C26.3335 5.40802 24.5796 3.64707 22.4164 3.64707C20.2616 3.64707 18.4993 5.39967 18.4993 7.56121C18.4993 9.72274 20.2533 11.4753 22.4164 11.4753ZM22.4164 4.35646C20.6458 4.35646 19.2009 5.80026 19.2009 7.56955C19.2009 9.33884 20.6458 10.7826 22.4164 10.7826C24.187 10.7826 25.6319 9.33884 25.6319 7.56955C25.6236 5.80026 24.187 4.35646 22.4164 4.35646Z" fill="#FEC830"/>
</svg>
