<svg width="60" height="60" viewBox="0 0 60 60" fill="none" xmlns="http://www.w3.org/2000/svg">
<path d="M22.1561 14.5317C21.3931 15.2947 20.9422 16.3352 20.9422 17.4797C20.9422 18.6242 21.3931 19.6647 22.1561 20.4277C22.9191 21.1907 23.9595 21.6416 25.104 21.6416C26.2486 21.6416 27.289 21.1907 28.052 20.4277C28.815 19.6647 29.2659 18.6242 29.2659 17.4797C29.2659 16.3352 28.815 15.2947 28.052 14.5317C27.289 13.7687 26.2486 13.3179 25.104 13.3179C23.9595 13.3179 22.9191 13.7687 22.1561 14.5317ZM27.8786 17.445C27.8786 18.208 27.5665 18.9017 27.0809 19.3872C26.5607 19.8728 25.9017 20.1849 25.104 20.1849C24.341 20.1849 23.6474 19.8728 23.1619 19.3872C22.6416 18.9017 22.3642 18.208 22.3642 17.445C22.3642 16.682 22.6763 15.9884 23.1619 15.4681C23.6821 14.9826 24.341 14.6705 25.104 14.6705C25.8671 14.6705 26.5607 14.9826 27.0809 15.4681C27.5665 15.9884 27.8786 16.682 27.8786 17.445Z" fill="#010101"/>
<path d="M44.4913 37.5606C43.659 38.393 43.1387 39.5375 43.1387 40.8207C43.1387 42.104 43.659 43.2485 44.4913 44.0808C45.3237 44.9132 46.4682 45.4334 47.7514 45.4334C49.0347 45.4334 50.1792 44.9132 51.0116 44.0808C51.8439 43.2485 52.3642 42.104 52.3642 40.8207C52.3642 39.5375 51.8439 38.393 51.0116 37.5606C50.1792 36.7282 49.0347 36.208 47.7514 36.208C46.4682 36.208 45.3237 36.7282 44.4913 37.5606ZM50.9769 40.8207C50.9769 41.7225 50.6301 42.5201 50.0405 43.1097C49.4509 43.6993 48.6532 44.0461 47.7514 44.0461C46.8497 44.0461 46.052 43.6993 45.4624 43.1097C44.8728 42.5201 44.526 41.7225 44.526 40.8207C44.526 39.919 44.8728 39.1213 45.4624 38.5317C46.052 37.9421 46.8497 37.5953 47.7514 37.5953C48.6532 37.5953 49.4509 37.9768 50.0405 38.5317C50.6301 39.1213 50.9769 39.919 50.9769 40.8207Z" fill="#010101"/>
<path d="M5.85551 60.0003H58.5029C58.8844 60.0003 59.1965 59.6881 59.1965 59.3066C59.1965 58.9251 58.8844 58.613 58.5029 58.613H56.2139V53.8962C56.2139 52.8211 55.9711 51.8153 55.5202 50.9136C54.8613 49.5263 53.7861 48.3818 52.4335 47.5841C51.0809 46.7864 49.4509 46.3009 47.7168 46.3009C45.3931 46.3009 43.3122 47.1332 41.7515 48.4858C41.0578 49.1101 40.5029 49.8038 40.0867 50.6015C40.052 50.4974 40.0174 50.3933 39.948 50.324C39.289 48.9367 38.2139 47.7922 36.8613 46.9945C35.5087 46.1968 33.8786 45.7113 32.1445 45.7113C31.3122 45.7113 30.4798 45.8153 29.7168 46.0234V44.1506C30.4104 44.6014 31.2775 44.8442 32.1445 44.8442C33.4278 44.8442 34.5723 44.324 35.4046 43.4916C36.237 42.6593 36.7572 41.5147 36.7572 40.2315C36.7572 38.9483 36.237 37.8037 35.4046 36.9714C34.5723 36.139 33.4278 35.6188 32.1445 35.6188C31.2428 35.6188 30.4104 35.8962 29.7168 36.3124V33.4338V32.8442V26.1853H36.8266C37.4162 26.1853 37.9364 25.9425 38.3526 25.561C38.7341 25.1795 38.9769 24.6246 38.9769 24.035C38.9769 23.4454 38.7341 22.9251 38.3526 22.509C38.2832 22.4396 38.1792 22.3702 38.1098 22.3009L34.9538 10.1621C34.8497 9.78063 34.4682 9.57255 34.1214 9.6766C33.7399 9.78064 33.5318 10.1621 33.6359 10.509L36.6185 21.8847H29.0578H24.7226C22.6763 21.8847 20.8035 22.613 19.4162 23.8269C18.7226 24.4512 18.1676 25.1795 17.7861 25.9772C17.4046 26.8095 17.1965 27.7113 17.1965 28.6477V32.6361V33.4338V35.3413C17.1965 35.4454 17.1965 35.5147 17.2312 35.6188C17.0578 35.5841 16.8844 35.5841 16.6763 35.5841C15.3931 35.5841 14.2486 36.1043 13.4162 36.9367C12.5838 37.7691 12.0636 38.9483 12.0636 40.1968C12.0636 41.4801 12.5838 42.6246 13.4162 43.4569C14.2486 44.2893 15.3931 44.8095 16.6763 44.8095C17.9595 44.8095 19.1041 44.2893 19.9364 43.4569C19.9711 43.4222 20.0405 43.3529 20.0752 43.3182V46.3355C19.0347 45.9194 17.8902 45.7113 16.6763 45.7113C14.3526 45.7113 12.2717 46.5436 10.711 47.8962C9.94799 48.5899 9.32371 49.3876 8.87284 50.324C8.42197 51.2257 8.1792 52.2662 8.1792 53.3066V58.613H5.85551C5.474 58.613 5.16187 58.9251 5.16187 59.3066C5.16187 59.6881 5.474 60.0003 5.85551 60.0003ZM40.6416 53.8962C40.6416 53.0292 40.8497 52.2315 41.1965 51.5032C41.7168 50.3933 42.6185 49.4222 43.763 48.7633C44.9075 48.0696 46.2601 47.6881 47.7515 47.6881C49.7283 47.6881 51.5318 48.4165 52.7804 49.5263C53.4046 50.0812 53.9249 50.7749 54.2717 51.5032C54.6185 52.2315 54.8266 53.0639 54.8266 53.8962V58.613H51.5318V55.9425C51.5318 55.561 51.2197 55.2489 50.8382 55.2489C50.4567 55.2489 50.1445 55.561 50.1445 55.9425V58.613H45.3584V55.9425C45.3584 55.561 45.0463 55.2489 44.6648 55.2489C44.2833 55.2489 43.9711 55.561 43.9711 55.9425V58.613H40.6763V53.8962H40.6416ZM32.1792 47.0985C34.1561 47.0985 35.9596 47.8269 37.2081 48.9367C37.8324 49.4916 38.3526 50.1853 38.6994 50.9136C39.0463 51.6419 39.2543 52.4396 39.2543 53.3066V53.8962V58.613H35.9596V55.3876C35.9596 55.0061 35.6474 54.6939 35.2659 54.6939C34.8844 54.6939 34.5723 55.0061 34.5723 55.3876V58.613H29.7515V55.3876C29.7515 55.0061 29.4393 54.6939 29.0578 54.6939C28.6763 54.6939 28.3642 55.0061 28.3642 55.3876V58.613H25.0694V53.3066C25.0694 52.4396 25.2775 51.6419 25.6243 50.9136C26.1445 49.8038 27.0463 48.8327 28.1908 48.1737C29.3353 47.5147 30.6879 47.0985 32.1792 47.0985ZM29.8902 37.9425C30.4798 37.3529 31.2775 37.0061 32.1792 37.0061C33.0809 37.0061 33.8786 37.3529 34.4682 37.9425C35.0578 38.5321 35.4046 39.3298 35.4046 40.2315C35.4046 41.1332 35.0578 41.9309 34.4682 42.5205C33.8786 43.1101 33.0809 43.4569 32.1792 43.4569C31.2775 43.4569 30.4798 43.1101 29.8902 42.5205C29.3006 41.9309 28.9538 41.1332 28.9538 40.2315C28.9538 39.3298 29.3006 38.5321 29.8902 37.9425ZM18.5492 28.717C18.5492 27.9887 18.7226 27.2951 19.0347 26.6361C19.4856 25.665 20.2486 24.8327 21.2543 24.2431C22.2254 23.6535 23.4393 23.3066 24.7226 23.3066H29.0578H36.8613C36.896 23.3066 36.9306 23.3066 36.9653 23.3066L37.3121 24.6592C37.1734 24.7633 37.0347 24.798 36.8613 24.798H29.0578C28.8497 24.798 28.6763 24.8673 28.5376 25.0408C28.3989 25.1795 28.3642 25.3876 28.3642 25.5957V25.6304V32.8442V33.4338V37.665C27.8439 38.3933 27.5665 39.2951 27.5665 40.2662C27.5665 41.2373 27.8439 42.139 28.3642 42.8673V46.5783C27.5665 46.9251 26.8382 47.4107 26.2139 47.9656C26.0405 48.1043 25.9017 48.2431 25.763 48.4165V40.7171C25.763 40.3356 25.4509 40.0234 25.0694 40.0234C24.9307 40.0234 24.8266 40.0581 24.7226 40.0928C24.5145 40.1968 24.3757 40.4396 24.3757 40.6824V50.324C23.7515 49.0061 22.711 47.8962 21.3931 47.0985V35.376V34.0928V33.4685V32.8442V32.6708C21.3931 32.2893 21.0809 31.9772 20.6994 31.9772C20.3179 31.9772 20.0058 32.2893 20.0058 32.6708V32.8442V33.4685V35.376C20.0058 35.5841 19.9364 35.7575 19.7977 35.8962C19.659 36.035 19.4856 36.1043 19.2775 36.1043C19.0694 36.1043 18.896 36.035 18.7572 35.8962C18.6185 35.7575 18.5492 35.5841 18.5492 35.376V33.4685V32.6708V28.717ZM18.9306 42.5205C18.3411 43.1101 17.5434 43.4569 16.6416 43.4569C15.7399 43.4569 14.9422 43.1101 14.3526 42.5205C13.763 41.9309 13.4162 41.1332 13.4162 40.2315C13.4162 39.3298 13.763 38.5321 14.3526 37.9425C14.9422 37.3529 15.7399 37.0061 16.6416 37.0061C17.5434 37.0061 18.3411 37.3529 18.9306 37.9425C19.5202 38.5321 19.8671 39.3298 19.8671 40.2315C19.8671 41.1332 19.5202 41.9309 18.9306 42.5205ZM9.53181 53.3413C9.53181 52.4743 9.73989 51.6766 10.0867 50.9483C10.6069 49.8384 11.5087 48.8673 12.6532 48.2084C13.7977 47.5147 15.1503 47.1332 16.6416 47.1332C18.6185 47.1332 20.422 47.8616 21.6705 48.9714C22.2948 49.5263 22.815 50.2199 23.1619 50.9483C23.5087 51.6766 23.7168 52.4743 23.7168 53.3413V58.6477H20.422V55.4223C20.422 55.0408 20.1098 54.7286 19.7283 54.7286C19.3468 54.7286 19.0347 55.0408 19.0347 55.4223V58.6477H14.2486V55.4223C14.2486 55.0408 13.9364 54.7286 13.5549 54.7286C13.1734 54.7286 12.8613 55.0408 12.8613 55.4223V58.6477H9.56648V53.3413H9.53181Z" fill="#010101"/>
<path d="M1 9.01734C1 11.5145 2.00577 13.8035 3.67051 15.4335C5.30057 17.0636 7.58959 18.104 10.0867 18.104C10.3642 18.104 10.6416 18.104 10.9191 18.0694C11.6821 18.6936 12.5491 19.1445 13.4509 19.526C14.9422 20.1156 16.5029 20.4624 17.6821 20.6358C18.8613 20.8092 19.6936 20.8439 19.7283 20.8439C20.0405 20.8439 20.2832 20.6705 20.3873 20.3931C20.4913 20.1156 20.422 19.8035 20.1792 19.63C18.9306 18.5549 18.237 17.5838 17.8208 16.7861C17.4393 15.9884 17.3353 15.3295 17.3353 14.9133C17.3353 14.7052 17.3699 14.5665 17.3699 14.4624V14.4277C18.4798 12.9364 19.104 11.0636 19.104 9.08671C19.104 6.5896 18.0983 4.30058 16.4335 2.67052C14.8035 1.04047 12.5145 0 10.0173 0C7.52023 0 5.23121 1.00578 3.60116 2.67052C2.04046 4.2659 1 6.52023 1 9.01734ZM10.0867 1.35261C12.2023 1.35261 14.1098 2.21966 15.5318 3.60694C16.9191 4.99423 17.7861 6.90173 17.7861 9.05201C17.7861 10.7861 17.1965 12.3815 16.2254 13.6647C16.1907 13.7341 16.1561 13.8035 16.1214 13.8728C16.0867 13.9422 15.9827 14.289 15.9827 14.8786C15.9827 15.5029 16.1214 16.3699 16.6069 17.341C16.8844 17.9306 17.3006 18.5549 17.8555 19.2486C17.474 19.1792 17.0231 19.1098 16.5723 19.0058C15.7052 18.8324 14.7688 18.5549 13.9017 18.2081C13.0347 17.8613 12.2023 17.3757 11.578 16.8208C11.4393 16.6821 11.2312 16.6127 11.0231 16.6474C10.711 16.6821 10.3642 16.7168 10.052 16.7168C7.93642 16.7168 5.99422 15.8497 4.60693 14.4624C3.21965 13.0751 2.3526 11.1676 2.3526 9.01734C2.3526 6.90173 3.21965 4.95953 4.60693 3.57225C6.0289 2.21965 7.97109 1.35261 10.0867 1.35261Z" fill="#FEC830"/>
<path d="M10.0867 1.35261C12.2023 1.35261 14.1098 2.21966 15.5318 3.60694C16.9191 4.99423 17.7861 6.90173 17.7861 9.05201C17.7861 10.7861 17.1965 12.3815 16.2254 13.6647L16.1214 13.8728C16.0867 13.9422 15.9827 14.289 15.9827 14.8786C15.9827 15.5029 16.1214 16.3699 16.6069 17.341C16.8844 17.9306 17.3006 18.5549 17.8555 19.2486C17.474 19.1792 17.0231 19.1098 16.5723 19.0058C15.7052 18.8324 14.7688 18.5549 13.9017 18.2081C13.0347 17.8613 12.2023 17.3757 11.578 16.8208C11.4393 16.6821 11.2312 16.6127 11.0231 16.6474C10.711 16.6821 10.3642 16.7168 10.052 16.7168C7.93642 16.7168 5.99422 15.8497 4.60693 14.4624C3.21965 13.0751 2.3526 11.1676 2.3526 9.01734C2.3526 6.90173 3.21965 4.95953 4.60693 3.57225C6.0289 2.21965 7.97109 1.35261 10.0867 1.35261Z" fill="#FEC830"/>
<path d="M5.16184 6.45076H7.62427C8.00577 6.45076 8.31791 6.13862 8.31791 5.75712C8.31791 5.37562 8.00577 5.06348 7.62427 5.06348H5.16184C4.78034 5.06348 4.4682 5.37562 4.4682 5.75712C4.4682 6.13862 4.78034 6.45076 5.16184 6.45076Z" fill="white"/>
<path d="M4.50287 8.80936C4.50287 9.19087 4.81501 9.50301 5.19651 9.50301H14.8034C15.1849 9.50301 15.4971 9.19087 15.4971 8.80936C15.4971 8.42786 15.1849 8.11572 14.8034 8.11572H5.19651C4.81501 8.1504 4.50287 8.42786 4.50287 8.80936Z" fill="white"/>
<path d="M14.7688 11.2368H5.16184C4.78034 11.2368 4.4682 11.549 4.4682 11.9305C4.4682 12.312 4.78034 12.6241 5.16184 12.6241H14.7688C15.1503 12.6241 15.4624 12.312 15.4624 11.9305C15.4624 11.549 15.1503 11.2368 14.7688 11.2368Z" fill="white"/>
</svg>
