<svg width="30" height="30" viewBox="0 0 30 30" fill="none" xmlns="http://www.w3.org/2000/svg">
<path d="M11.078 7.26612C10.6965 7.64762 10.4711 8.16785 10.4711 8.7401C10.4711 9.31236 10.6965 9.83259 11.078 10.2141C11.4595 10.5956 11.9797 10.821 12.552 10.821C13.1242 10.821 13.6445 10.5956 14.026 10.2141C14.4075 9.83259 14.6329 9.31236 14.6329 8.7401C14.6329 8.16785 14.4075 7.64762 14.026 7.26612C13.6445 6.88461 13.1242 6.65918 12.552 6.65918C11.9797 6.65918 11.4595 6.88461 11.078 7.26612ZM13.9393 8.72276C13.9393 9.10426 13.7832 9.45109 13.5404 9.69386C13.2803 9.93664 12.9508 10.0927 12.552 10.0927C12.1705 10.0927 11.8237 9.93664 11.5809 9.69386C11.3208 9.45109 11.1821 9.10426 11.1821 8.72276C11.1821 8.34125 11.3381 7.99443 11.5809 7.73432C11.841 7.49154 12.1705 7.33547 12.552 7.33547C12.9335 7.33547 13.2803 7.49154 13.5404 7.73432C13.7832 7.99443 13.9393 8.34125 13.9393 8.72276Z" fill="#010101"/>
<path d="M22.2456 18.7808C21.8295 19.197 21.5693 19.7692 21.5693 20.4108C21.5693 21.0525 21.8295 21.6247 22.2456 22.0409C22.6618 22.4571 23.2341 22.7172 23.8757 22.7172C24.5173 22.7172 25.0896 22.4571 25.5057 22.0409C25.9219 21.6247 26.1821 21.0525 26.1821 20.4108C26.1821 19.7692 25.9219 19.197 25.5057 18.7808C25.0896 18.3646 24.5173 18.1045 23.8757 18.1045C23.2341 18.1045 22.6618 18.3646 22.2456 18.7808ZM25.4884 20.4108C25.4884 20.8617 25.315 21.2606 25.0202 21.5554C24.7254 21.8502 24.3266 22.0236 23.8757 22.0236C23.4248 22.0236 23.026 21.8502 22.7312 21.5554C22.4364 21.2606 22.263 20.8617 22.263 20.4108C22.263 19.96 22.4364 19.5611 22.7312 19.2663C23.026 18.9715 23.4248 18.7981 23.8757 18.7981C24.3266 18.7981 24.7254 18.9889 25.0202 19.2663C25.315 19.5611 25.4884 19.96 25.4884 20.4108Z" fill="#010101"/>
<path d="M2.92775 30.0004H29.2515C29.4422 30.0004 29.5983 29.8443 29.5983 29.6536C29.5983 29.4628 29.4422 29.3067 29.2515 29.3067H28.1069V26.9484C28.1069 26.4108 27.9856 25.9079 27.7601 25.457C27.4306 24.7634 26.8931 24.1911 26.2168 23.7923C25.5405 23.3935 24.7254 23.1507 23.8584 23.1507C22.6965 23.1507 21.6561 23.5669 20.8757 24.2432C20.5289 24.5553 20.2515 24.9021 20.0434 25.301C20.026 25.2489 20.0087 25.1969 19.974 25.1622C19.6445 24.4686 19.1069 23.8963 18.4306 23.4975C17.7543 23.0987 16.9393 22.8559 16.0723 22.8559C15.6561 22.8559 15.2399 22.9079 14.8584 23.0119V22.0755C15.2052 22.301 15.6387 22.4224 16.0723 22.4224C16.7139 22.4224 17.2861 22.1622 17.7023 21.7461C18.1185 21.3299 18.3786 20.7576 18.3786 20.116C18.3786 19.4744 18.1185 18.9021 17.7023 18.4859C17.2861 18.0697 16.7139 17.8096 16.0723 17.8096C15.6214 17.8096 15.2052 17.9484 14.8584 18.1565V16.7172V16.4224V13.0929H18.4133C18.7081 13.0929 18.9682 12.9715 19.1763 12.7807C19.3671 12.59 19.4884 12.3125 19.4884 12.0177C19.4884 11.7229 19.3671 11.4628 19.1763 11.2547C19.1416 11.22 19.0896 11.1854 19.0549 11.1507L17.4769 5.08131C17.4249 4.89056 17.2341 4.78652 17.0607 4.83854C16.87 4.89057 16.7659 5.08131 16.8179 5.25472L18.3093 10.9426H14.5289H12.3613C11.3382 10.9426 10.4017 11.3067 9.7081 11.9137C9.36128 12.2258 9.08382 12.59 8.89307 12.9888C8.70232 13.405 8.59827 13.8559 8.59827 14.3241V16.3183V16.7172V17.6709C8.59827 17.7229 8.59827 17.7576 8.61561 17.8096C8.52891 17.7923 8.4422 17.7923 8.33816 17.7923C7.69654 17.7923 7.12428 18.0524 6.7081 18.4686C6.29191 18.8848 6.0318 19.4744 6.0318 20.0987C6.0318 20.7403 6.29191 21.3125 6.7081 21.7287C7.12428 22.1449 7.69654 22.405 8.33816 22.405C8.97977 22.405 9.55203 22.1449 9.96822 21.7287C9.98556 21.7114 10.0202 21.6767 10.0376 21.6594V23.168C9.51735 22.9599 8.94509 22.8559 8.33816 22.8559C7.17631 22.8559 6.13585 23.2721 5.3555 23.9484C4.974 24.2952 4.66185 24.694 4.43642 25.1622C4.21099 25.6131 4.0896 26.1333 4.0896 26.6536V29.3067H2.92775C2.737 29.3067 2.58093 29.4628 2.58093 29.6536C2.58093 29.8443 2.737 30.0004 2.92775 30.0004ZM20.3208 26.9484C20.3208 26.5148 20.4249 26.116 20.5983 25.7518C20.8584 25.1969 21.3093 24.7114 21.8815 24.3819C22.4538 24.0351 23.1301 23.8443 23.8757 23.8443C24.8642 23.8443 25.7659 24.2085 26.3902 24.7634C26.7023 25.0408 26.9624 25.3877 27.1358 25.7518C27.3093 26.116 27.4133 26.5322 27.4133 26.9484V29.3067H25.7659V27.9715C25.7659 27.7807 25.6098 27.6247 25.4191 27.6247C25.2283 27.6247 25.0723 27.7807 25.0723 27.9715V29.3067H22.6792V27.9715C22.6792 27.7807 22.5231 27.6247 22.3324 27.6247C22.1416 27.6247 21.9856 27.7807 21.9856 27.9715V29.3067H20.3382V26.9484H20.3208ZM16.0896 23.5495C17.078 23.5495 17.9798 23.9137 18.6041 24.4686C18.9162 24.746 19.1763 25.0929 19.3497 25.457C19.5231 25.8212 19.6272 26.22 19.6272 26.6536V26.9484V29.3067H17.9798V27.694C17.9798 27.5033 17.8237 27.3472 17.633 27.3472C17.4422 27.3472 17.2861 27.5033 17.2861 27.694V29.3067H14.8757V27.694C14.8757 27.5033 14.7197 27.3472 14.5289 27.3472C14.3382 27.3472 14.1821 27.5033 14.1821 27.694V29.3067H12.5347V26.6536C12.5347 26.22 12.6387 25.8212 12.8121 25.457C13.0723 24.9021 13.5231 24.4166 14.0954 24.0871C14.6676 23.7576 15.3439 23.5495 16.0896 23.5495ZM14.9451 18.9715C15.2399 18.6767 15.6387 18.5033 16.0896 18.5033C16.5405 18.5033 16.9393 18.6767 17.2341 18.9715C17.5289 19.2663 17.7023 19.6651 17.7023 20.116C17.7023 20.5669 17.5289 20.9657 17.2341 21.2605C16.9393 21.5553 16.5405 21.7287 16.0896 21.7287C15.6387 21.7287 15.2399 21.5553 14.9451 21.2605C14.6503 20.9657 14.4769 20.5669 14.4769 20.116C14.4769 19.6651 14.6503 19.2663 14.9451 18.9715ZM9.27458 14.3588C9.27458 13.9946 9.36128 13.6478 9.51735 13.3183C9.74278 12.8328 10.1243 12.4166 10.6272 12.1218C11.1127 11.827 11.7197 11.6536 12.3613 11.6536H14.5289H18.4306C18.448 11.6536 18.4653 11.6536 18.4827 11.6536L18.6561 12.3299C18.5867 12.3819 18.5173 12.3992 18.4306 12.3992H14.5289C14.4249 12.3992 14.3382 12.4339 14.2688 12.5206C14.1994 12.59 14.1821 12.694 14.1821 12.7981V12.8154V16.4224V16.7172V18.8328C13.922 19.1969 13.7832 19.6478 13.7832 20.1333C13.7832 20.6189 13.922 21.0697 14.1821 21.4339V23.2894C13.7832 23.4628 13.4191 23.7056 13.1069 23.983C13.0202 24.0524 12.9509 24.1218 12.8815 24.2085V20.3588C12.8815 20.168 12.7254 20.012 12.5347 20.012C12.4653 20.012 12.4133 20.0293 12.3613 20.0466C12.2572 20.0986 12.1879 20.22 12.1879 20.3414V25.1622C11.8757 24.5033 11.3555 23.9484 10.6965 23.5495V17.6882V17.0466V16.7345V16.4224V16.3356C10.6965 16.1449 10.5405 15.9888 10.3497 15.9888C10.159 15.9888 10.0029 16.1449 10.0029 16.3356V16.4224V16.7345V17.6882C10.0029 17.7923 9.96821 17.879 9.89885 17.9484C9.82948 18.0177 9.74278 18.0524 9.63873 18.0524C9.53469 18.0524 9.44798 18.0177 9.37862 17.9484C9.30925 17.879 9.27458 17.7923 9.27458 17.6882V16.7345V16.3356V14.3588V14.3588ZM9.46532 21.2605C9.17053 21.5553 8.77169 21.7287 8.32082 21.7287C7.86995 21.7287 7.47111 21.5553 7.17631 21.2605C6.88151 20.9657 6.7081 20.5669 6.7081 20.116C6.7081 19.6651 6.88151 19.2663 7.17631 18.9715C7.47111 18.6767 7.86995 18.5033 8.32082 18.5033C8.77169 18.5033 9.17053 18.6767 9.46532 18.9715C9.76012 19.2663 9.93353 19.6651 9.93353 20.116C9.93353 20.5669 9.76012 20.9657 9.46532 21.2605ZM4.7659 26.6709C4.7659 26.2374 4.86995 25.8385 5.04336 25.4744C5.30347 24.9195 5.75434 24.4339 6.3266 24.1044C6.89885 23.7576 7.57515 23.5669 8.32082 23.5669C9.30926 23.5669 10.211 23.931 10.8353 24.4859C11.1474 24.7634 11.4075 25.1102 11.5809 25.4744C11.7543 25.8385 11.8584 26.2374 11.8584 26.6709V29.3241H10.211V27.7114C10.211 27.5206 10.0549 27.3646 9.86417 27.3646C9.67342 27.3646 9.51735 27.5206 9.51735 27.7114V29.3241H7.12428V27.7114C7.12428 27.5206 6.96821 27.3646 6.77746 27.3646C6.58671 27.3646 6.43064 27.5206 6.43064 27.7114V29.3241H4.78324V26.6709H4.7659Z" fill="#010101"/>
<path d="M0.5 4.50867C0.5 5.75723 1.00289 6.90173 1.83526 7.71676C2.65029 8.53179 3.79479 9.05202 5.04335 9.05202C5.18208 9.05202 5.32081 9.05202 5.45954 9.03468C5.84104 9.34682 6.27457 9.57225 6.72543 9.763C7.4711 10.0578 8.25145 10.2312 8.84104 10.3179C9.43064 10.4046 9.84682 10.422 9.86416 10.422C10.0202 10.422 10.1416 10.3353 10.1936 10.1965C10.2457 10.0578 10.211 9.90173 10.0896 9.81502C9.46532 9.27745 9.1185 8.79191 8.9104 8.39307C8.71965 7.99422 8.66763 7.66474 8.66763 7.45665C8.66763 7.3526 8.68497 7.28324 8.68497 7.23122V7.21387C9.23988 6.4682 9.55202 5.53179 9.55202 4.54335C9.55202 3.2948 9.04913 2.15029 8.21676 1.33526C7.40173 0.520233 6.25723 0 5.00867 0C3.76012 0 2.61561 0.502892 1.80058 1.33526C1.02023 2.13295 0.5 3.26012 0.5 4.50867ZM5.04335 0.676305C6.10115 0.676305 7.05491 1.10983 7.76589 1.80347C8.45954 2.49711 8.89306 3.45086 8.89306 4.52601C8.89306 5.39306 8.59826 6.19076 8.11272 6.83237C8.09537 6.86706 8.07804 6.90173 8.06069 6.93642C8.04335 6.9711 7.99133 7.14451 7.99133 7.43931C7.99133 7.75145 8.06069 8.18497 8.30347 8.67052C8.4422 8.96532 8.65029 9.27746 8.92775 9.62428C8.737 9.5896 8.51156 9.55491 8.28613 9.50289C7.8526 9.41618 7.38439 9.27746 6.95086 9.10405C6.51734 8.93064 6.10116 8.68786 5.78902 8.4104C5.71965 8.34104 5.61561 8.30636 5.51156 8.3237C5.35549 8.34104 5.18208 8.35838 5.02601 8.35838C3.96821 8.35838 2.99711 7.92486 2.30347 7.23122C1.60983 6.53757 1.1763 5.58381 1.1763 4.50867C1.1763 3.45087 1.60983 2.47977 2.30347 1.78613C3.01445 1.10982 3.98555 0.676305 5.04335 0.676305Z" fill="#FEC830"/>
<path d="M5.04335 0.676305C6.10115 0.676305 7.05491 1.10983 7.76589 1.80347C8.45954 2.49711 8.89306 3.45086 8.89306 4.52601C8.89306 5.39306 8.59826 6.19076 8.11272 6.83237L8.06069 6.93642C8.04335 6.9711 7.99133 7.14451 7.99133 7.43931C7.99133 7.75145 8.06069 8.18497 8.30347 8.67052C8.4422 8.96532 8.65029 9.27746 8.92775 9.62428C8.737 9.5896 8.51156 9.55491 8.28613 9.50289C7.8526 9.41618 7.38439 9.27746 6.95086 9.10405C6.51734 8.93064 6.10116 8.68786 5.78902 8.4104C5.71965 8.34104 5.61561 8.30636 5.51156 8.3237C5.35549 8.34104 5.18208 8.35838 5.02601 8.35838C3.96821 8.35838 2.99711 7.92486 2.30347 7.23122C1.60983 6.53757 1.1763 5.58381 1.1763 4.50867C1.1763 3.45087 1.60983 2.47977 2.30347 1.78613C3.01445 1.10982 3.98555 0.676305 5.04335 0.676305Z" fill="#FEC830"/>
<path d="M2.58095 3.22587H3.81217C4.00292 3.22587 4.15899 3.0698 4.15899 2.87905C4.15899 2.6883 4.00292 2.53223 3.81217 2.53223H2.58095C2.3902 2.53223 2.23413 2.6883 2.23413 2.87905C2.23413 3.0698 2.3902 3.22587 2.58095 3.22587Z" fill="white"/>
<path d="M2.25146 4.40444C2.25146 4.59519 2.40753 4.75126 2.59829 4.75126H7.40175C7.5925 4.75126 7.74857 4.59519 7.74857 4.40444C7.74857 4.21369 7.5925 4.05762 7.40175 4.05762H2.59829C2.40753 4.07496 2.25146 4.21369 2.25146 4.40444Z" fill="white"/>
<path d="M7.38442 5.61816H2.58095C2.3902 5.61816 2.23413 5.77423 2.23413 5.96498C2.23413 6.15574 2.3902 6.31181 2.58095 6.31181H7.38442C7.57517 6.31181 7.73124 6.15574 7.73124 5.96498C7.73124 5.77423 7.57517 5.61816 7.38442 5.61816Z" fill="white"/>
</svg>
