<svg width="30" height="30" viewBox="0 0 30 30" fill="none" xmlns="http://www.w3.org/2000/svg">
<path d="M4.04634 6.81109L14.8663 0.745234L25.6863 6.81109L23.4225 8.07626L15.0624 6.11785C14.8663 6.06586 14.6881 6.18717 14.6346 6.37782C14.5811 6.56846 14.7059 6.74177 14.902 6.79376L22.5312 8.59619L14.8663 12.9116L4.04634 6.81109Z" fill="#FEC830"/>
<path d="M29.2692 24.4021C29.2692 24.7487 28.984 25.026 28.6275 25.026H1.35472C0.998219 25.026 0.713013 24.7487 0.713013 24.4021V22.5997H29.2692V24.4021Z" fill="#FEC830"/>
<path fill-rule="evenodd" clip-rule="evenodd" d="M24.1176 8.50953H28.6453C29.3761 8.50953 29.9822 9.09879 30 9.80936V22.2357V24.3847C30 25.0953 29.3939 25.6846 28.6453 25.6846H17.041V29.3068H20.82C21.016 29.3068 21.1765 29.4627 21.1765 29.6534C21.1765 29.844 21.016 30 20.82 30H16.6845H13.2977H9.16221C8.96613 30 8.8057 29.844 8.8057 29.6534C8.8057 29.4627 8.96613 29.3068 9.16221 29.3068H12.9412V25.6846H1.3369C0.606061 25.6846 0 25.1126 0 24.3847V22.2357V9.79203C0 9.08146 0.588235 8.4922 1.3369 8.4922H5.6328L6.88057 9.18544H1.35472C0.998219 9.18544 0.713013 9.46274 0.713013 9.80936V21.9064H29.3226V9.80936C29.3226 9.46274 29.0374 9.18544 28.6809 9.18544H23.7433V11.0919C24.0998 11.3865 24.9554 12.201 24.9554 13.2062C24.9554 13.8821 24.3137 14.3501 23.3868 14.3501C22.4599 14.3501 21.8182 13.8821 21.8182 13.2062C21.8182 12.201 22.6738 11.3865 23.0303 11.0919V9.20277H22.9055L23.0275 9.10284C23.0023 8.67404 22.5645 8.59619 22.5312 8.59619L14.902 6.79376C14.7059 6.74177 14.5811 6.56846 14.6346 6.37782C14.6881 6.18717 14.8663 6.06586 15.0624 6.11785L23.4225 8.07626C23.4024 8.07155 23.6578 8.23707 23.7186 8.75L24.1176 8.50953ZM21.4438 10.0173L20.7308 10.4159L20.713 14.2114C20.713 15.0087 20.1248 15.7712 19.0909 16.3605C17.9857 16.9844 16.4884 17.331 14.902 17.331C13.3155 17.331 11.8182 16.9844 10.6952 16.3605C9.62567 15.7539 9.03743 14.9913 9.03743 14.1768V10.4159L8.34224 10L8.32442 14.1594C8.32442 15.234 9.03743 16.2218 10.3387 16.9497C11.5686 17.643 13.1907 18.0243 14.902 18.0243C16.6132 18.0243 18.2353 17.643 19.4474 16.9497C20.713 16.2392 21.426 15.2513 21.426 14.2114L21.4438 10.0173ZM24.2068 13.1889C24.2068 12.565 23.6542 11.9757 23.3512 11.6984C23.0481 11.9757 22.4955 12.5477 22.4955 13.1889C22.4955 13.5355 23.0125 13.6568 23.3512 13.6568C23.672 13.6568 24.2068 13.5182 24.2068 13.1889ZM13.6542 29.3241H16.328V25.7019H13.6542V29.3241ZM28.6275 25.026C28.984 25.026 29.2692 24.7487 29.2692 24.4021V22.5997H0.713013V24.4021C0.713013 24.7487 0.998219 25.026 1.35472 25.026H28.6275Z" fill="#010101"/>
<path d="M24.1176 8.50953L26.5954 7.12305C26.7023 7.05373 26.7736 6.94974 26.7736 6.82842C26.7736 6.70711 26.7023 6.58579 26.5954 6.5338L15.0446 0.0519931C14.9376 -0.017331 14.795 -0.017331 14.6881 0.0519931L3.15508 6.51646C3.04813 6.58579 2.97682 6.68977 2.97682 6.81109C2.97682 6.93241 3.04813 7.05373 3.15508 7.10572L5.6328 8.4922L6.88057 9.18544L8.34224 10L9.03743 10.4159L14.7059 13.5875C14.7594 13.6222 14.8128 13.6395 14.8841 13.6395C14.9376 13.6395 15.0089 13.6222 15.0624 13.5875L20.7308 10.4159L21.4438 10.0173L22.9055 9.20277L23.0275 9.10284C23.0023 8.67404 22.5645 8.59619 22.5312 8.59619L14.8663 12.9116L4.04634 6.81109L14.8663 0.745234L25.6863 6.81109L23.4225 8.07626C23.4024 8.07155 23.6578 8.23707 23.7186 8.75L24.1176 8.50953Z" fill="#FEC830"/>
</svg>
