<svg width="60" height="60" viewBox="0 0 60 60" fill="none" xmlns="http://www.w3.org/2000/svg">
<path d="M8.09269 13.6222L29.7326 1.49047L51.3726 13.6222L46.8449 16.1525L30.1248 12.2357C29.7326 12.1317 29.3761 12.3743 29.2692 12.7556C29.1622 13.1369 29.4118 13.4835 29.8039 13.5875L45.0624 17.1924L29.7326 25.8232L8.09269 13.6222Z" fill="#FEC830"/>
<path d="M58.5383 48.8042C58.5383 49.4974 57.9679 50.052 57.2549 50.052H2.70945C1.99644 50.052 1.42603 49.4974 1.42603 48.8042V45.1993H58.5383V48.8042Z" fill="#FEC830"/>
<path fill-rule="evenodd" clip-rule="evenodd" d="M48.2353 17.0191H57.2905C58.7522 17.0191 59.9643 18.1976 60 19.6187V44.4714V48.7695C60 50.1906 58.7879 51.3691 57.2905 51.3691H34.082V58.6135H41.6399C42.0321 58.6135 42.3529 58.9255 42.3529 59.3068C42.3529 59.688 42.0321 60 41.6399 60H33.369H26.5954H18.3244C17.9323 60 17.6114 59.688 17.6114 59.3068C17.6114 58.9255 17.9323 58.6135 18.3244 58.6135H25.8824V51.3691H2.6738C1.21212 51.3691 0 50.2253 0 48.7695V44.4714V19.5841C0 18.1629 1.17647 16.9844 2.6738 16.9844H11.2656L13.7611 18.3709H2.70945C1.99644 18.3709 1.42603 18.9255 1.42603 19.6187V43.8128H58.6453V19.6187C58.6453 18.9255 58.0749 18.3709 57.3619 18.3709H47.4866V22.1837C48.1996 22.773 49.9109 24.4021 49.9109 26.4125C49.9109 27.7643 48.6274 28.7002 46.7736 28.7002C44.9198 28.7002 43.6364 27.7643 43.6364 26.4125C43.6364 24.4021 45.3476 22.773 46.0606 22.1837V18.4055H45.8111L46.055 18.2057C46.0046 17.3481 45.1289 17.1924 45.0624 17.1924L29.8039 13.5875C29.4118 13.4835 29.1622 13.1369 29.2692 12.7556C29.3761 12.3743 29.7326 12.1317 30.1248 12.2357L46.8449 16.1525C46.8048 16.1431 47.3157 16.4741 47.4372 17.5L48.2353 17.0191ZM42.8877 20.0347L41.4617 20.8319L41.426 28.4229C41.426 30.0173 40.2496 31.5425 38.1818 32.721C35.9715 33.9688 32.9768 34.662 29.8039 34.662C26.631 34.662 23.6364 33.9688 21.3904 32.721C19.2513 31.5078 18.0749 29.9827 18.0749 28.3536V20.8319L16.6845 20L16.6488 28.3189C16.6488 30.4679 18.0749 32.4437 20.6774 33.8995C23.1373 35.286 26.3815 36.0485 29.8039 36.0485C33.2264 36.0485 36.4706 35.286 38.8948 33.8995C41.426 32.4783 42.852 30.5026 42.852 28.4229L42.8877 20.0347ZM48.4135 26.3778C48.4135 25.13 47.3084 23.9515 46.7023 23.3969C46.0963 23.9515 44.9911 25.0953 44.9911 26.3778C44.9911 27.0711 46.025 27.3137 46.7023 27.3137C47.344 27.3137 48.4135 27.0364 48.4135 26.3778ZM27.3084 58.6482H32.656V51.4038H27.3084V58.6482ZM57.2549 50.052C57.9679 50.052 58.5383 49.4974 58.5383 48.8042V45.1993H1.42603V48.8042C1.42603 49.4974 1.99644 50.052 2.70945 50.052H57.2549Z" fill="#010101"/>
<path d="M48.2353 17.0191L53.1907 14.2461C53.4046 14.1075 53.5472 13.8995 53.5472 13.6568C53.5472 13.4142 53.4046 13.1716 53.1907 13.0676L30.0891 0.103986C29.8752 -0.034662 29.59 -0.034662 29.3761 0.103986L6.31015 13.0329C6.09625 13.1716 5.95365 13.3795 5.95365 13.6222C5.95365 13.8648 6.09625 14.1075 6.31015 14.2114L11.2656 16.9844L13.7611 18.3709L16.6845 20L18.0749 20.8319L29.4118 27.175C29.5187 27.2444 29.6257 27.279 29.7683 27.279C29.8752 27.279 30.0178 27.2444 30.1248 27.175L41.4617 20.8319L42.8877 20.0347L45.8111 18.4055L46.055 18.2057C46.0046 17.3481 45.1289 17.1924 45.0624 17.1924L29.7326 25.8232L8.09269 13.6222L29.7326 1.49047L51.3726 13.6222L46.8449 16.1525C46.8048 16.1431 47.3157 16.4741 47.4372 17.5L48.2353 17.0191Z" fill="#FEC830"/>
</svg>
