<svg width="122" height="151" viewBox="0 0 122 151" fill="none" xmlns="http://www.w3.org/2000/svg">
<path d="M85.8043 90.2054C85.2801 89.9799 84.8687 89.4922 84.3213 89.3761C83.9497 89.2401 83.5516 89.4989 83.5251 89.8937C83.5649 90.2453 83.9133 90.4908 84.1522 90.7131C84.3479 90.869 84.5237 90.8491 84.7228 90.7197C84.9849 90.8325 85.247 90.9453 85.5323 90.9486C85.9702 91.0414 86.2853 90.3646 85.8043 90.2054Z" fill="#121920" fill-opacity="0.95"/>
<path d="M80.1647 90.0961C79.5742 89.9137 78.9173 89.7744 78.3035 89.7014C77.6898 89.6285 76.9002 89.5754 76.4358 89.8774C76.1704 90.0499 76.2533 90.4679 76.5387 90.4712C77.0861 90.5873 77.66 90.3086 78.2306 90.3152C78.8676 90.2787 79.415 90.3948 80.0718 90.5341C80.3571 90.5374 80.3837 90.1426 80.1647 90.0961Z" fill="#121920" fill-opacity="0.95"/>
<path d="M73.1565 92.3859C73.601 91.9081 74.155 91.4536 74.7522 91.0654C74.9512 90.936 74.7356 90.6043 74.5365 90.7337C73.7403 91.2513 71.8892 91.8883 71.8759 93.0295C71.8295 93.2485 72.158 93.3182 72.2906 93.2319C72.6224 93.0162 72.8679 92.6679 73.1565 92.3859Z" fill="#121920" fill-opacity="0.95"/>
<path d="M65.908 3.31202C65.3946 2.90918 64.7767 2.54629 64.1265 2.25564C63.9097 2.15876 64.0712 1.79753 64.2879 1.89441C65.1549 2.28194 67.0826 2.62351 67.273 3.74882C67.3529 3.9579 67.0393 4.07776 66.8948 4.01317C66.5336 3.8517 66.2369 3.54574 65.908 3.31202Z" fill="#121920" fill-opacity="0.95"/>
<path d="M73.0512 97.7406C72.2284 96.7653 71.4255 95.9658 71.3094 94.6255C71.2895 94.4497 71.1136 94.4696 71.1335 94.6454C71.0507 96.1151 71.4522 97.4587 72.7825 98.1985C73.0878 98.3776 73.247 97.8965 73.0512 97.7406Z" fill="#121920" fill-opacity="0.95"/>
<path d="M70.7128 9.84364C70.5919 8.57336 70.5826 7.44035 69.7064 6.41945C69.5948 6.28218 69.732 6.17051 69.8437 6.30778C70.9516 7.27704 71.6304 8.50406 71.2279 9.97208C71.1423 10.3155 70.6872 10.0926 70.7128 9.84364Z" fill="#121920" fill-opacity="0.95"/>
<path d="M79.607 100.275C79.0629 99.8736 78.406 99.7343 77.7724 99.4855C77.0292 99.2135 76.3292 99.0079 75.5629 98.8454C75.3439 98.7989 75.2079 99.1705 75.47 99.2833C76.1269 99.4226 76.6942 99.7145 77.3279 99.9633C77.9615 100.212 78.6151 100.637 79.272 100.776C79.6004 100.846 79.9122 100.454 79.607 100.275Z" fill="#121920" fill-opacity="0.95"/>
<path d="M67.9365 16.3C68.0305 15.6305 68.3907 15.0637 68.6564 14.437C68.9821 13.7158 69.3251 13.0718 69.7453 12.4106C69.8653 12.2217 70.2259 12.3846 70.1231 12.6507C69.7629 13.2175 69.5745 13.827 69.3088 14.4538C69.0431 15.0805 68.889 15.8445 68.5289 16.4113C68.3488 16.6946 67.8509 16.6434 67.9365 16.3Z" fill="#121920" fill-opacity="0.95"/>
<path d="M87.2735 101.614C86.0327 100.721 84.1715 100.327 82.6819 100.068C82.3966 100.065 82.327 100.393 82.589 100.506C83.3985 100.735 84.2512 101.03 85.0374 101.368C85.6711 101.617 86.2815 101.975 86.9384 102.115C87.3332 102.141 87.4692 101.77 87.2735 101.614Z" fill="#121920" fill-opacity="0.95"/>
<path d="M63.5291 22.7144C63.7599 21.2035 64.7804 19.5978 65.638 18.3527C65.8353 18.1466 66.1186 18.3266 66.0158 18.5928C65.6128 19.3312 65.2271 20.1469 64.9186 20.9453C64.6529 21.5721 64.4816 22.2589 64.1214 22.8256C63.8641 23.1262 63.5035 22.9633 63.5291 22.7144Z" fill="#121920" fill-opacity="0.95"/>
<path d="M82.7016 67.9404C83.7193 69.0807 85.4505 69.8698 86.8485 70.4455C87.1262 70.5107 87.2655 70.2051 87.0341 70.0382C86.2936 69.6391 85.5253 69.166 84.8312 68.6651C84.2666 68.2848 83.7484 67.8026 83.1374 67.5241C82.7578 67.4125 82.5444 67.7457 82.7016 67.9404Z" fill="#121920" fill-opacity="0.95"/>
<path d="M93.5665 105.924C92.8565 104.686 91.6157 103.794 90.5275 102.991C90.3318 102.835 90.1095 103.074 90.2389 103.273C91.3039 104.185 92.1698 105.227 92.9694 106.312C93.2514 106.6 93.7822 106.255 93.5665 105.924Z" fill="#121920" fill-opacity="0.95"/>
<path d="M62.2023 30.2261C61.8152 28.8529 62.046 27.3421 62.234 26.003C62.2596 25.754 62.5858 25.7624 62.6375 25.9942C62.5439 27.3933 62.6821 28.7408 62.8975 30.0711C62.9063 30.4746 62.2884 30.6123 62.2023 30.2261Z" fill="#121920" fill-opacity="0.95"/>
<path d="M77.4936 62.3689C77.9182 63.7308 78.9359 64.8711 79.824 65.8909C79.9812 66.0856 80.25 65.9006 80.1669 65.6782C79.3252 64.5566 78.7059 63.3519 78.1607 62.1195C77.9481 61.7766 77.3551 61.9982 77.4936 62.3689Z" fill="#121920" fill-opacity="0.95"/>
<path d="M95.5773 77.8811C94.8673 76.6437 93.6265 75.7513 92.5383 74.9485C92.3425 74.7926 92.1203 75.0315 92.2496 75.2305C93.3146 76.1428 94.1806 77.1845 94.9801 78.2693C95.2621 78.5579 95.7929 78.2128 95.5773 77.8811Z" fill="#121920" fill-opacity="0.95"/>
<path d="M94.2686 111.792C94.4511 111.202 94.5473 110.479 94.6202 109.865C94.6699 109.361 94.0131 109.221 93.8538 109.702C93.7378 110.25 93.5553 110.84 93.3729 111.431C93.1905 112.021 92.809 112.741 92.7791 113.421C92.7758 113.707 93.1474 113.843 93.3697 113.604C93.9005 113.259 94.1293 112.449 94.2686 111.792Z" fill="#121920" fill-opacity="0.95"/>
<path d="M65.905 34.8335C65.3555 34.5506 64.7715 34.1132 64.282 33.7358C63.887 33.4185 64.2472 32.8518 64.7022 33.0746C65.1745 33.3749 65.724 33.6577 66.2735 33.9406C66.8231 34.2237 67.6043 34.4548 68.111 34.9094C68.3171 35.1067 68.1542 35.4673 67.828 35.459C67.2101 35.5967 66.4717 35.1937 65.905 34.8335Z" fill="#121920" fill-opacity="0.95"/>
<path d="M78.0822 56.488C77.776 57.0249 77.5252 57.71 77.3208 58.2933C77.1628 58.7748 77.7739 59.0533 78.0336 58.6183C78.2657 58.109 78.5719 57.5722 78.8782 57.0353C79.1843 56.4983 79.713 55.8784 79.8896 55.221C79.9547 54.9432 79.6215 54.7298 79.3527 54.9148C78.7597 55.1365 78.3607 55.877 78.0822 56.488Z" fill="#121920" fill-opacity="0.95"/>
<path d="M96.2784 83.7489C96.4608 83.1584 96.557 82.4351 96.63 81.8214C96.6797 81.3171 96.0228 81.1778 95.8636 81.6589C95.7476 82.2064 95.5651 82.7968 95.3827 83.3873C95.2003 83.978 94.8187 84.6978 94.7889 85.3779C94.7856 85.6632 95.1572 85.7992 95.3794 85.5603C95.9102 85.2153 96.1391 84.4058 96.2784 83.7489Z" fill="#121920" fill-opacity="0.95"/>
<path d="M91.5033 115.382C91.7687 115.209 91.4668 114.745 91.2014 114.917C90.4948 115.282 89.8114 115.538 89.0616 115.836C88.3782 116.092 87.5654 116.148 86.9019 116.58C86.5701 116.795 86.7394 117.346 87.1574 117.263C88.6735 117.127 90.3521 116.224 91.5033 115.382Z" fill="#121920" fill-opacity="0.95"/>
<path d="M93.515 87.3392C93.7804 87.1667 93.4785 86.7024 93.2131 86.8749C92.5065 87.2399 91.8231 87.4954 91.0733 87.7939C90.3899 88.0493 89.5771 88.1058 88.9136 88.5371C88.5819 88.7527 88.7511 89.3035 89.1692 89.2206C90.6853 89.0845 92.3638 88.1819 93.515 87.3392Z" fill="#121920" fill-opacity="0.95"/>
<path d="M82.9489 116.886C82.2687 116.856 81.5887 116.826 80.9085 116.796C80.2716 116.833 79.5052 116.67 78.9312 116.949C78.6658 117.121 78.772 117.43 78.9678 117.586C79.4687 117.921 80.1953 117.732 80.7228 117.672C81.4692 117.659 82.2389 117.536 82.9853 117.522C83.4034 117.44 83.3436 116.912 82.9489 116.886Z" fill="#121920" fill-opacity="0.95"/>
<path d="M75.948 116.717C75.0291 116.465 74.1963 116.345 73.3404 116.335C72.4845 116.325 71.2769 116.355 70.6333 116.963C70.3447 117.245 70.494 117.619 70.8888 117.646C71.5689 117.676 72.2755 117.311 72.9357 117.165C73.9044 116.913 74.9362 116.903 75.9447 117.002C76.0973 117.092 76.167 116.763 75.948 116.717Z" fill="#121920" fill-opacity="0.95"/>
<path d="M66.9869 117.162C66.0679 116.909 65.1689 116.833 64.1803 116.91C63.1916 116.986 61.9607 117.125 61.2508 117.776C61.0285 118.014 61.2873 118.413 61.5295 118.35C62.3855 118.359 63.1817 117.842 64.0177 117.676C64.92 117.467 65.9518 117.457 66.9604 117.556C67.1793 117.603 67.3153 117.231 66.9869 117.162Z" fill="#121920" fill-opacity="0.95"/>
<path d="M81.4723 50.1541C82.135 49.4693 82.6339 48.7175 83.042 47.8138C83.4501 46.9101 83.9192 45.7636 83.6901 44.8285C83.5874 44.5188 83.1139 44.5545 83.0528 44.7972C82.6329 45.5432 82.7042 46.4901 82.448 47.303C82.1977 48.1947 81.7107 49.1045 81.1389 49.9412C80.9929 50.1109 81.2534 50.4087 81.4723 50.1541Z" fill="#121920" fill-opacity="0.95"/>
<path d="M56.7932 123.694C56.7565 123.057 56.6968 122.53 56.8792 121.939C57.1944 121.262 57.9043 120.612 58.5014 120.224C58.7006 120.094 58.4849 119.763 58.2858 119.892C56.9389 120.579 54.922 122.268 56.1096 123.95C56.3485 124.172 56.8329 124.046 56.7932 123.694Z" fill="#121920" fill-opacity="0.95"/>
<path d="M80.6413 38.0744C81.2174 38.3483 81.7087 38.5493 82.139 38.9931C82.5811 39.5947 82.8102 40.5297 82.8637 41.24C82.8816 41.4768 83.2761 41.4471 83.2583 41.2102C83.3032 39.699 82.7914 37.1188 80.7456 37.3521C80.4359 37.4548 80.3137 37.9402 80.6413 38.0744Z" fill="#121920" fill-opacity="0.95"/>
<path d="M59.0434 132.237C58.6354 131.464 58.0283 130.82 57.5539 130.09C57.0162 129.118 56.721 128.083 56.7774 127.008C56.7573 126.832 56.5152 126.895 56.4921 127.005C56.3362 129.088 56.6582 131.616 58.5095 132.867C58.9241 133.069 59.259 132.568 59.0434 132.237Z" fill="#121920" fill-opacity="0.95"/>
<path d="M72.0685 35.9421C72.9424 35.9556 73.7987 35.7325 74.6666 35.6671C75.7774 35.6627 76.8271 35.9012 77.7426 36.4671C77.9064 36.534 77.9675 36.2913 77.8826 36.2185C76.1304 35.0807 73.7586 34.1483 71.7722 35.1709C71.3956 35.4374 71.674 35.9718 72.0685 35.9421Z" fill="#121920" fill-opacity="0.95"/>
<path d="M67.221 134.944C66.6537 134.652 65.9968 134.512 65.32 134.197C64.7527 133.905 64.2749 133.461 63.8635 132.973C63.5814 132.684 63.117 132.986 63.3327 133.318C64.0427 134.556 65.4329 135.823 66.9921 135.753C67.4964 135.803 67.5694 135.189 67.221 134.944Z" fill="#121920" fill-opacity="0.95"/>
<path d="M72.9694 135.076C71.5461 134.774 70.0135 134.449 68.5636 134.542C68.1024 134.559 68.2054 135.152 68.6002 135.179C70.0035 135.305 71.4433 136.068 72.9164 135.866C73.2911 135.716 73.4072 135.169 72.9694 135.076Z" fill="#121920" fill-opacity="0.95"/>
<path d="M76.1381 140.095C76.4068 139.638 76.3271 138.934 76.2674 138.407C76.1645 137.813 75.8857 137.239 75.5406 136.708C75.325 136.377 74.8607 136.678 75.0763 137.01C75.3782 137.475 75.5042 137.959 75.564 138.486C75.5806 138.948 75.4214 139.429 75.4381 139.89C75.4117 140.284 75.9589 140.4 76.1381 140.095Z" fill="#121920" fill-opacity="0.95"/>
<path d="M76.1384 145.758C77.0606 143.838 78.3975 142.119 79.4723 140.288C79.9433 139.415 78.5898 138.785 78.0756 139.591C77.1369 141.051 76.0885 142.487 75.3454 144.103C74.8909 143.549 74.4364 142.995 73.9387 142.375C73.6999 142.152 73.3979 141.688 73.003 141.661L72.8937 141.638C72.8937 141.638 72.8506 141.572 72.7843 141.615C72.5653 141.569 72.3862 141.874 72.4724 142.007C72.4492 142.116 72.4924 142.183 72.5786 142.315C72.7281 142.69 73.0099 142.979 73.2687 143.377C73.8958 144.196 74.4798 144.949 74.974 145.855C75.1664 146.296 75.8697 146.216 76.1384 145.758Z" fill="#121920" fill-opacity="0.95"/>
</svg>
