<svg width="45" height="45" viewBox="0 0 45 45" fill="none" xmlns="http://www.w3.org/2000/svg"><g clip-path="url(#a)" fill="#FED847"><path d="M44.607 18.985c-.347-.773-1.097-1.818-2.694-2.412-1.624-.604-2.898-.255-3.68.143-1.896.966-2.553 3.021-2.666 3.423l-2.21 8.468a7.983 7.983 0 0 0-4.682-1.504h-2.832a8.005 8.005 0 0 0-4.455 1.347c-.548.365-.93.91-1.087 1.545a10.56 10.56 0 0 0-3.898-.033 2.604 2.604 0 0 0-1.077-1.512 8.005 8.005 0 0 0-4.455-1.346H8.04c-.377 0-.75.027-1.117.078l1.396-5.35c.239-.895.286-.846.16.048.023.93.476 1.818 1.56 2.143 1.635.49 2.646-.663 2.953-1.342l.018-.045c.121-.312.685-1.954-.08-3.65-.347-.774-1.097-1.82-2.693-2.413-1.624-.603-2.898-.255-3.68.144-1.897.965-2.554 3.02-2.666 3.422L.979 31.291A8 8 0 0 0 0 35.06a2.618 2.618 0 0 0 2.263 2.617 6.316 6.316 0 0 0 5.777 3.776h2.83a6.314 6.314 0 0 0 6.308-6.28 3.858 3.858 0 0 1 1.088-.145c.596 0 1.03.113 1.28.21a6.314 6.314 0 0 0 6.306 6.215h2.831a6.314 6.314 0 0 0 5.775-3.776 2.594 2.594 0 0 0 1.51-.76 2.597 2.597 0 0 0 .746-1.857 8.09 8.09 0 0 0-.027-.552l3.308-12.674c.267-.938.328-1.06.161.047.022.93.476 1.818 1.56 2.143.273.082.528.118.766.118 1.186 0 1.93-.895 2.186-1.46l.019-.045c.12-.312.684-1.955-.08-3.65ZM5.59 20.608c.036-.126.504-1.678 1.766-2.321.468-.238 1.242-.443 2.266-.062 1.026.381 1.492 1.017 1.702 1.483.454 1.011.124 2.061.054 2.26-.11.21-.357.51-.832.367-.394-.118-.311-.657-.266-.857.019-.06.071-.906.07-.916-.096-.573-.469-.973-1.142-1.223-.505-.188-.935-.186-1.313.007-.673.342-1.064 1.249-1.158 1.57l-1.774 6.796c-.5.207-.978.466-1.43.772l2.057-7.876ZM3.623 30.683a6.239 6.239 0 0 1 4.417-1.817h2.83c1.245 0 2.447.363 3.479 1.05a.853.853 0 0 1-.946 1.419 4.55 4.55 0 0 0-2.532-.765H8.04a4.588 4.588 0 0 0-4.573 4.525.855.855 0 0 1-.852.844h-.01a.853.853 0 0 1-.843-.861 6.24 6.24 0 0 1 1.86-4.395Zm7.248 9.007H8.04a4.548 4.548 0 0 1-4.01-2.41 2.619 2.619 0 0 0 1.2-2.166 2.82 2.82 0 0 1 2.81-2.781h2.83c.558 0 1.096.162 1.556.468a2.599 2.599 0 0 0 2.468.234c.332.63.522 1.348.522 2.11a4.55 4.55 0 0 1-4.545 4.545Zm6.065-6.275a6.276 6.276 0 0 0-.72-1.616 8.697 8.697 0 0 1 2.05-.239c.776 0 1.53.098 2.217.283a6.271 6.271 0 0 0-.708 1.619c-.43-.12-.94-.198-1.51-.198-.49 0-.939.058-1.329.151Zm11.747 6.275h-2.83a4.55 4.55 0 0 1-4.546-4.545c0-.76.188-1.477.52-2.108a2.598 2.598 0 0 0 2.462-.236c.46-.306.997-.468 1.554-.468h2.832a2.82 2.82 0 0 1 2.81 2.781c.01.91.49 1.71 1.206 2.171a4.548 4.548 0 0 1-4.008 2.405Zm6.025-4.007a.845.845 0 0 1-.597.256H34.1a.855.855 0 0 1-.852-.843 4.589 4.589 0 0 0-4.573-4.526h-2.83a4.55 4.55 0 0 0-2.533.765.846.846 0 0 1-.64.127.847.847 0 0 1-.542-.363.846.846 0 0 1-.126-.64.847.847 0 0 1 .363-.542 6.248 6.248 0 0 1 3.477-1.051h2.832c1.665 0 3.233.645 4.417 1.817a6.24 6.24 0 0 1 1.86 4.394.848.848 0 0 1-.244.606Zm8.346-13.715c-.11.21-.356.51-.832.367-.394-.118-.311-.657-.266-.857.02-.06.071-.905.07-.916-.095-.573-.469-.973-1.141-1.223-.506-.188-.936-.186-1.314.007-.672.342-1.063 1.248-1.157 1.569l-2.7 10.341a8.03 8.03 0 0 0-.89-1.29l2.442-9.358c.036-.126.504-1.678 1.766-2.32.469-.24 1.242-.444 2.267-.063 1.026.382 1.491 1.017 1.7 1.483.455 1.01.126 2.06.055 2.26Z"/><path d="M7.117 36.804a.881.881 0 0 1-.882-.88c0-.165.012-.329.036-.486a.881.881 0 1 1 1.743.264c-.01.07-.016.144-.016.22a.881.881 0 0 1-.88.882h-.001ZM23.548 36.804a.881.881 0 0 1-.881-.88c0-.165.011-.329.035-.486a.881.881 0 1 1 1.743.264c-.01.07-.016.144-.016.22a.881.881 0 0 1-.88.882h-.001ZM11 35.14a.883.883 0 0 1-.255-.037 3.846 3.846 0 0 0-1.425-.143.881.881 0 0 1-.142-1.757 5.606 5.606 0 0 1 2.075.212.881.881 0 0 1-.254 1.725ZM17.922 5.563a1.634 1.634 0 1 0-3.18-.752 1.634 1.634 0 0 0 3.18.752ZM30.918 8.532a.692.692 0 1 0-1.374-.17.692.692 0 0 0 1.374.17ZM6.72 6.004l.555 1.562a.25.25 0 0 0 .13.146l1.387.625c.196.088.196.4 0 .489l-1.387.625a.25.25 0 0 0-.13.146L6.72 11.16c-.079.22-.356.22-.434 0L5.73 9.597a.25.25 0 0 0-.13-.146l-1.387-.625c-.196-.088-.196-.4 0-.489L5.6 7.712a.25.25 0 0 0 .13-.146l.555-1.562c.079-.22.356-.22.435 0ZM25.969 12.294l.763 2.105a.34.34 0 0 0 .178.198l1.907.842c.269.12.269.54 0 .66l-1.907.842a.34.34 0 0 0-.178.197l-.763 2.105c-.108.297-.49.297-.597 0l-.763-2.105a.34.34 0 0 0-.18-.197l-1.905-.843c-.27-.119-.27-.54 0-.659l1.906-.842a.34.34 0 0 0 .179-.198l.763-2.105c.108-.297.489-.297.597 0ZM39.57 3.784l.762 2.105a.34.34 0 0 0 .18.197l1.905.843c.27.119.27.54 0 .659l-1.906.842a.34.34 0 0 0-.179.198l-.763 2.105c-.108.297-.489.297-.597 0l-.763-2.105a.34.34 0 0 0-.179-.198l-1.906-.842c-.269-.12-.269-.54 0-.66l1.906-.842a.34.34 0 0 0 .18-.197l.762-2.105c.108-.297.49-.297.597 0Z"/></g><defs><clipPath id="a"><path fill="#fff" d="M0 0h45v45H0z"/></clipPath></defs></svg>