<svg width="45" height="45" viewBox="0 0 45 45" fill="none" xmlns="http://www.w3.org/2000/svg"><g clip-path="url(#a)" fill="#2CBC67"><path d="M44.966 24.555a3.697 3.697 0 0 0-3.693-3.693H37.01v-6.628a4.054 4.054 0 0 0-4.05-4.05h-7.11a4.054 4.054 0 0 0-4.049 4.05v6.628H17.48c.047-.174.073-.356.073-.545v-1.714c0-.445-.141-.857-.38-1.195.239-.339.38-.75.38-1.195v-1.715a2.08 2.08 0 0 0-2.077-2.077h-8.43a2.938 2.938 0 0 0-2.935 2.934c0 .799.321 1.523.84 2.053a2.924 2.924 0 0 0-.482 3.454h-.741a3.697 3.697 0 0 0-3.693 3.693 3.698 3.698 0 0 0 3.142 3.651v13.88A2.917 2.917 0 0 0 6.089 45h8.598a2.917 2.917 0 0 0 2.914-2.914v-3.204l17.696-.288v3.455A2.955 2.955 0 0 0 38.25 45h.624a2.954 2.954 0 0 0 2.951-2.951V28.206a3.699 3.699 0 0 0 3.142-3.651ZM7.045 18.29h8.43c.173 0 .313.14.313.313v1.714c0 .173-.14.314-.313.314h-8.43c-.646 0-1.17-.526-1.17-1.17-.001-.646.524-1.171 1.17-1.171Zm0-4.105h8.43c.173 0 .313.14.313.313v1.714c0 .173-.14.314-.313.314h-8.43c-.646 0-1.17-.525-1.17-1.17-.001-.646.524-1.171 1.17-1.171Zm16.52.048a2.288 2.288 0 0 1 2.285-2.285h7.11a2.288 2.288 0 0 1 2.286 2.285v6.629H23.565v-6.628Zm-8.878 29.003H6.09c-.634 0-1.15-.516-1.15-1.15V28.247h10.898v13.84c0 .633-.516 1.15-1.15 1.15Zm2.914-6.118v-8.87h17.696v8.582l-17.696.288Zm21.272 6.118h-.624a1.189 1.189 0 0 1-1.188-1.187V28.247h3V42.05a1.19 1.19 0 0 1-1.188 1.187Zm2.4-16.752H3.727a1.931 1.931 0 0 1-1.93-1.93c0-1.063.866-1.929 1.93-1.929h37.546c1.064 0 1.93.866 1.93 1.93 0 1.063-.866 1.929-1.93 1.929Z"/><path d="M13.4 34.061a.529.529 0 0 0-.53.53v1.125a.53.53 0 0 0 1.058 0V34.59a.53.53 0 0 0-.529-.529ZM9.179 37.091a.53.53 0 0 0-.53.53v1.125a.53.53 0 0 0 1.06 0V37.62a.53.53 0 0 0-.53-.529ZM11.776 38.462a.53.53 0 0 0-.53.529v1.126a.53.53 0 0 0 1.06 0V38.99a.53.53 0 0 0-.53-.53ZM14.633 25.436h-.01a233.163 233.163 0 0 0-4.933 0h-.01a.882.882 0 0 1-.008-1.763c1.71-.018 3.29-.018 4.97 0a.882.882 0 0 1-.009 1.763ZM6.576 25.436h-.77a.882.882 0 0 1 0-1.763h.77a.882.882 0 0 1 0 1.764ZM8.995 4.197a1.635 1.635 0 1 1-3.27 0 1.635 1.635 0 0 1 3.27 0ZM39.102 9.05a.693.693 0 1 0 0-1.386.693.693 0 0 0 0 1.385ZM29.623.166l.555 1.562a.25.25 0 0 0 .13.146l1.389.626c.196.088.196.4 0 .489l-1.388.625a.25.25 0 0 0-.13.147l-.556 1.562c-.079.22-.356.22-.435 0l-.555-1.562a.25.25 0 0 0-.13-.147l-1.389-.625c-.196-.088-.196-.4 0-.49l1.388-.625a.25.25 0 0 0 .13-.146l.556-1.562c.079-.221.356-.221.435 0ZM19.448 4.187l.764 2.107a.34.34 0 0 0 .179.197l1.907.843c.27.12.27.54 0 .66l-1.907.843a.34.34 0 0 0-.18.197l-.763 2.106c-.108.298-.49.298-.597 0l-.763-2.106a.34.34 0 0 0-.18-.197l-1.907-.843c-.27-.12-.27-.54 0-.66l1.908-.843a.34.34 0 0 0 .179-.197l.763-2.107c.108-.297.49-.297.597 0Z"/></g><defs><clipPath id="a"><path fill="#fff" d="M0 0h45v45H0z"/></clipPath></defs></svg>