<svg width="43" height="43" viewBox="0 0 43 43" fill="none" xmlns="http://www.w3.org/2000/svg"><g clip-path="url(#a)" fill="#F55853"><path d="M40.798 12.285h-.76a1.577 1.577 0 0 0-1.247-1.08 50.117 50.117 0 0 0-16.476 0 1.578 1.578 0 0 0-.815.4c-.22-.205-.5-.348-.815-.4a50.117 50.117 0 0 0-16.476 0c-.601.1-1.072.526-1.248 1.08h-.76A2.204 2.204 0 0 0 0 14.486v25.658c0 1.214.988 2.202 2.201 2.202h17.945c.51 0 .98-.175 1.354-.468a2.19 2.19 0 0 0 1.354.468h17.944A2.204 2.204 0 0 0 43 40.144V14.486a2.204 2.204 0 0 0-2.202-2.201ZM3.902 25.853c5.95-1.337 11.549-1.339 17.09-.007v2.301c-5.549-1.296-11.153-1.293-17.09.01v-2.304Zm18.106 0c5.95-1.337 11.55-1.339 17.09-.007v2.301c-5.548-1.296-11.152-1.293-17.09.01v-2.304Zm17.09-1.052c-5.548-1.297-11.152-1.293-17.09.01v-2.455c5.95-1.336 11.55-1.338 17.09-.006v2.45Zm-18.106 0c-5.549-1.297-11.153-1.293-17.09.01v-2.455c5.95-1.336 11.549-1.338 17.09-.006v2.45Zm-17.09 4.398c5.95-1.336 11.549-1.338 17.09-.006V31.6c-5.549-1.297-11.153-1.294-17.09.01V29.2Zm18.106 0c5.95-1.336 11.55-1.338 17.09-.006V31.6c-5.548-1.297-11.152-1.294-17.09.01V29.2Zm17.09-7.894c-5.548-1.297-11.152-1.294-17.09.01v-2.41c5.95-1.336 11.55-1.338 17.09-.007v2.407Zm-18.106 0c-5.549-1.297-11.153-1.294-17.09.01v-2.41c5.95-1.336 11.549-1.338 17.09-.007v2.407ZM3.902 32.65c5.95-1.336 11.549-1.338 17.09-.006v2.257c-5.549-1.296-11.153-1.293-17.09.01v-2.26Zm18.106 0c5.95-1.336 11.55-1.338 17.09-.006v2.257c-5.548-1.296-11.152-1.293-17.09.01v-2.26Zm17.09-14.798c-5.548-1.296-11.152-1.293-17.09.01v-2.379c5.95-1.336 11.55-1.338 17.09-.006v2.375Zm-18.106 0c-5.549-1.296-11.153-1.293-17.09.01v-2.379c5.95-1.336 11.549-1.338 17.09-.006v2.375Zm-17.09 18.1c5.95-1.336 11.549-1.338 17.09-.006v1.516a.57.57 0 0 1-.69.554c-5.12-1.099-10.26-1.092-15.716.02a.569.569 0 0 1-.684-.555v-1.528Zm18.314 1.967a.564.564 0 0 1-.208-.438v-1.529c5.95-1.336 11.55-1.338 17.09-.006v1.516a.57.57 0 0 1-.69.554c-5.12-1.099-10.26-1.093-15.716.02a.567.567 0 0 1-.476-.117Zm.266-25.713a49.166 49.166 0 0 1 16.142 0 .566.566 0 0 1 .474.561v1.664c-5.548-1.296-11.152-1.293-17.09.01v-1.674c0-.279.2-.515.474-.56Zm-18.106 0a49.165 49.165 0 0 1 16.142 0 .566.566 0 0 1 .474.561v1.664c-5.549-1.296-11.153-1.293-17.09.01v-1.674c0-.279.199-.515.474-.56Zm15.77 28.444H2.2a.508.508 0 0 1-.507-.507V14.486c0-.28.228-.507.507-.507h.684v23.503c0 .477.212.924.582 1.226a1.58 1.58 0 0 0 1.322.325c5.315-1.083 10.32-1.09 15.299-.022.189.04.38.046.565.02v1.113c0 .28-.228.507-.507.507Zm21.16-.507c0 .28-.228.507-.507.507H22.854a.508.508 0 0 1-.507-.507v-1.096a1.593 1.593 0 0 0 .548-.015c5.316-1.083 10.32-1.09 15.3-.022.471.102.957-.014 1.332-.317.374-.302.588-.75.588-1.23V13.978h.684c.28 0 .507.228.507.507v25.658ZM6.9 7.608a1.571 1.571 0 1 0 0-3.142 1.571 1.571 0 0 0 0 3.142ZM30.553 2.625a.665.665 0 1 0 0-1.33.665.665 0 0 0 0 1.33ZM15.034 3.526l1.333.6a.241.241 0 0 1 .125.142l.534 1.5c.075.213.342.213.418 0l.533-1.5a.24.24 0 0 1 .125-.141l1.334-.601c.188-.085.188-.385 0-.47l-1.334-.6a.24.24 0 0 1-.125-.142l-.533-1.5c-.076-.213-.342-.213-.418 0l-.534 1.5a.24.24 0 0 1-.125.141l-1.334.601c-.188.085-.188.385 0 .47ZM34.453 6.244l1.832.81c.078.035.14.104.172.19l.733 2.024c.104.286.47.286.574 0l.733-2.024a.327.327 0 0 1 .172-.19l1.833-.81c.259-.114.259-.519 0-.633l-1.833-.81a.327.327 0 0 1-.171-.19l-.734-2.024c-.104-.285-.47-.285-.574 0l-.733 2.024a.327.327 0 0 1-.172.19l-1.832.81c-.26.114-.26.519 0 .633Z"/></g><defs><clipPath id="a"><path fill="#fff" d="M0 0h43v43H0z"/></clipPath></defs></svg>