<svg width="45" height="45" viewBox="0 0 45 45" fill="none" xmlns="http://www.w3.org/2000/svg"><g clip-path="url(#a)" fill="#F55853"><path d="M22.5 19.714a3.809 3.809 0 0 0-3.805 3.804 3.809 3.809 0 0 0 3.805 3.805 3.809 3.809 0 0 0 3.805-3.805 3.809 3.809 0 0 0-3.805-3.804Zm0 6.547a2.746 2.746 0 0 1-2.743-2.743 2.746 2.746 0 0 1 2.743-2.743 2.746 2.746 0 0 1 2.743 2.743 2.746 2.746 0 0 1-2.743 2.743Z"/><path d="M28.05 22.427c-.039-.193.11-.598.23-.924.229-.621.488-1.326.106-1.9-.382-.573-1.132-.607-1.793-.636-.347-.016-.778-.035-.941-.144-.146-.099-.319-.477-.458-.78-.28-.616-.6-1.314-1.3-1.455-.701-.141-1.265.38-1.762.838-.245.227-.55.509-.723.543-.193.037-.598-.111-.924-.23-.622-.23-1.326-.489-1.9-.107-.574.382-.607 1.132-.637 1.793-.015.347-.034.778-.144.941-.098.146-.476.32-.78.458-.616.28-1.313.6-1.454 1.3-.141.701.379 1.265.838 1.762.227.245.509.55.543.724.038.192-.111.597-.231.923-.229.621-.488 1.326-.106 1.9.382.574 1.132.607 1.793.637.347.015.778.034.941.144.146.098.319.476.458.78.28.616.6 1.313 1.3 1.454.08.016.158.024.234.024.594 0 1.087-.455 1.528-.862.245-.227.55-.509.723-.543.192-.037.598.111.924.231.621.229 1.326.488 1.9.106.574-.381.607-1.131.637-1.793.015-.347.035-.778.144-.94.098-.147.476-.32.78-.459.616-.28 1.313-.599 1.454-1.3.141-.701-.379-1.264-.838-1.762-.227-.245-.509-.55-.543-.723Zm.34 2.276c-.035.17-.548.404-.855.544-.47.214-.955.436-1.22.831-.276.41-.3.957-.324 1.486-.013.305-.039.873-.164.957-.125.083-.66-.113-.946-.219-.497-.182-1.01-.371-1.495-.276-.467.092-.86.454-1.238.804-.248.23-.662.612-.833.578-.17-.034-.404-.548-.544-.854-.214-.47-.436-.955-.831-1.221-.41-.275-.957-.3-1.485-.323-.306-.014-.874-.04-.957-.165-.084-.125.112-.659.218-.946.183-.496.371-1.01.276-1.495-.092-.467-.454-.859-.804-1.238-.23-.248-.612-.663-.578-.832.034-.17.548-.405.855-.545.47-.214.955-.436 1.22-.83.276-.41.3-.957.324-1.486.013-.305.038-.874.164-.957a.176.176 0 0 1 .094-.02c.203 0 .613.15.852.238.497.183 1.01.372 1.495.276.467-.092.859-.454 1.238-.804.248-.229.662-.61.832-.578.17.035.405.548.545.855.214.47.436.955.831 1.22.41.276.957.3 1.485.324.306.014.874.039.957.164.084.126-.113.66-.218.946-.183.497-.372 1.01-.276 1.495.092.467.454.86.804 1.239.229.247.612.662.578.832Z"/><path d="M38.24 12.52c-4.217-2.838-9.807-4.402-15.74-4.402-.096 0-.191.003-.287.003a3.133 3.133 0 0 0-2.943-2.069 3.132 3.132 0 0 0-3.095 2.683c-3.515.701-6.741 1.986-9.414 3.786C2.437 15.43.055 19.337.055 23.518c0 3.237 1.43 6.309 4.081 8.882a4.292 4.292 0 0 0-.418 1.852 4.323 4.323 0 0 0 4.318 4.317 4.312 4.312 0 0 0 3.387-1.644c3.339 1.299 7.131 1.993 11.077 1.993 5.933 0 11.523-1.564 15.74-4.402 4.323-2.912 6.705-6.817 6.705-10.998 0-4.18-2.382-8.086-6.706-10.997ZM19.27 7.822c.75 0 1.36.61 1.36 1.359s-.61 1.359-1.36 1.359a1.36 1.36 0 0 1-1.358-1.36c0-.748.61-1.358 1.358-1.358ZM8.036 36.801a2.552 2.552 0 0 1-2.549-2.55 2.552 2.552 0 0 1 2.55-2.549 2.552 2.552 0 0 1 2.548 2.55A2.552 2.552 0 0 1 8.036 36.8Zm29.215-3.753c-3.927 2.645-9.166 4.1-14.751 4.1-3.669 0-7.188-.629-10.285-1.81.09-.347.14-.711.14-1.086a4.323 4.323 0 0 0-4.319-4.318c-1.076 0-2.06.396-2.817 1.049-2.208-2.206-3.395-4.782-3.395-7.465 0-3.573 2.104-6.958 5.925-9.53 2.458-1.655 5.432-2.843 8.681-3.501a3.131 3.131 0 0 0 2.84 1.82 3.132 3.132 0 0 0 3.046-2.418l.184-.002c5.585 0 10.824 1.457 14.751 4.101 3.82 2.572 5.925 5.957 5.925 9.53 0 3.574-2.104 6.958-5.925 9.53Z"/><path d="M37.098 20.647c-.74-1.558-2.088-2.973-3.97-4.129C30.276 14.765 26.501 13.8 22.5 13.8s-7.775.965-10.628 2.718c-2.987 1.836-4.632 4.322-4.632 7s1.645 5.164 4.632 7c2.853 1.753 6.627 2.718 10.628 2.718s7.776-.965 10.628-2.718c1.547-.95 2.733-2.075 3.518-3.31a3.292 3.292 0 0 0 3.518-3.28 3.292 3.292 0 0 0-3.066-3.28Zm-4.896 8.364c-2.578 1.584-6.023 2.456-9.702 2.456-3.679 0-7.124-.872-9.702-2.456-2.443-1.502-3.789-3.452-3.789-5.493 0-2.04 1.346-3.991 3.79-5.493 2.577-1.584 6.022-2.456 9.701-2.456 3.679 0 7.124.872 9.702 2.456 1.424.876 2.475 1.904 3.105 3.013a3.286 3.286 0 0 0-.375 5.54c-.64.888-1.558 1.712-2.73 2.433Zm4.673-3.564c-.838 0-1.52-.681-1.52-1.52 0-.837.682-1.52 1.52-1.52s1.52.683 1.52 1.52c0 .838-.682 1.52-1.52 1.52ZM43.729 8.518a1.64 1.64 0 1 0-3.192-.755 1.64 1.64 0 0 0 3.192.755ZM10.127 4.142a.695.695 0 1 0 0-1.39.695.695 0 0 0 0 1.39ZM13.355 41.984a.695.695 0 1 0 0-1.39.695.695 0 0 0 0 1.39ZM3.028 5.56l.557 1.567c.024.067.071.12.13.147l1.393.628c.197.088.197.402 0 .49l-1.392.627a.251.251 0 0 0-.13.147l-.558 1.567c-.079.222-.357.222-.436 0l-.557-1.567a.252.252 0 0 0-.13-.147L.511 8.392c-.197-.088-.197-.402 0-.49l1.392-.628a.252.252 0 0 0 .13-.147l.558-1.567c.079-.221.357-.221.436 0ZM34.69.166l.556 1.567c.024.067.072.12.131.147l1.392.627c.197.089.197.402 0 .49l-1.392.628a.251.251 0 0 0-.13.147l-.558 1.567c-.079.222-.357.222-.436 0l-.557-1.567a.251.251 0 0 0-.13-.147l-1.393-.627c-.196-.089-.196-.402 0-.49l1.392-.628a.251.251 0 0 0 .131-.147l.557-1.567c.079-.221.357-.221.436 0ZM40.704 37.803l.766 2.112a.34.34 0 0 0 .18.198l1.912.846c.27.12.27.542 0 .661l-1.913.846a.34.34 0 0 0-.18.198l-.765 2.112c-.108.298-.49.298-.599 0l-.766-2.112a.341.341 0 0 0-.18-.199l-1.912-.845c-.27-.12-.27-.542 0-.661l1.913-.846a.341.341 0 0 0 .18-.198l.765-2.112c.108-.299.49-.299.599 0Z"/></g><defs><clipPath id="a"><path fill="#fff" d="M0 0h45v45H0z"/></clipPath></defs></svg>