<svg width="44" height="44" viewBox="0 0 44 44" fill="none" xmlns="http://www.w3.org/2000/svg"><g clip-path="url(#a)" fill="#2CBC67"><path d="M39.931 10.47H4.07A4.073 4.073 0 0 0 0 14.537V39.75a4.073 4.073 0 0 0 4.069 4.069H39.93A4.073 4.073 0 0 0 44 39.75V14.538a4.073 4.073 0 0 0-4.069-4.069Zm2.35 29.28a2.353 2.353 0 0 1-2.35 2.35H4.07a2.353 2.353 0 0 1-2.35-2.35V14.538a2.353 2.353 0 0 1 2.35-2.35H39.93a2.353 2.353 0 0 1 2.35 2.35V39.75Z"/><path d="M38.72 14.08H5.28c-.928 0-1.682.755-1.682 1.682v22.764c0 .928.754 1.682 1.682 1.682h33.44c.928 0 1.682-.754 1.682-1.681V15.761c0-.927-.754-1.682-1.682-1.682Zm.651 24.447c0 .358-.292.65-.65.65H5.28a.652.652 0 0 1-.651-.65V15.762c0-.359.292-.651.65-.651H38.72c.36 0 .651.292.651.65v22.766Z"/><path d="M9.185 20.025a.516.516 0 0 0-.853.39V33.66c0 .285.23.515.516.515h15.295a.515.515 0 0 0 .337-.905L9.185 20.025Zm.178 10.661h2.46v2.46h-2.46v-2.46Zm3.49 2.46V30.17a.516.516 0 0 0-.515-.515H9.363v-8.113L22.76 33.145h-9.907ZM34.825 33.942a.519.519 0 0 0-.115-.687l-1.523-1.189a.516.516 0 0 0-.634.813l.342.267h-5.907a.516.516 0 0 0 0 1.03h5.907l-.342.268a.516.516 0 0 0 .635.812l1.522-1.189a.526.526 0 0 0 .115-.125ZM35.152 18.923h-11.6a.515.515 0 0 0-.515.516v6.16l-.864-2.247a.515.515 0 0 0-.963.37l1.861 4.84a.516.516 0 0 0 .997-.185v-8.423h11.085a.515.515 0 0 0 0-1.03Z"/><path d="M26.59 27.86a.513.513 0 0 0 .722-.101l1.014-1.345 1.07 1.41a.515.515 0 1 0 .822-.623l-1.247-1.643 1.046-1.386a.516.516 0 0 0-.823-.62l-.87 1.153-.877-1.155a.515.515 0 0 0-.821.623l1.053 1.387-1.19 1.578a.516.516 0 0 0 .1.722ZM33.749 22.758a1.072 1.072 0 0 0-1.066-1.066c-.508 0-.947.362-1.045.86a.516.516 0 0 0 1.012.199.035.035 0 0 1 .066-.006.987.987 0 0 1-.144.267c-.337.482-.538.745-.646.887-.145.19-.281.368-.199.636a.53.53 0 0 0 .34.346c.067.022.106.035.554.035.17 0 .399-.002.71-.006a.516.516 0 0 0-.006-1.03H33.22l.196-.276c.16-.228.26-.44.308-.646 0 0 .025-.09.024-.2ZM13.275 18.395c-.706 0-1.407-.002-2.083-.005a.86.86 0 0 1 .004-1.718h.004c1.347.006 2.793.006 4.184 0a.86.86 0 1 1 .007 1.718c-.698.003-1.41.005-2.116.005ZM7.932 18.39h-.897a.86.86 0 1 1 0-1.718h.897a.86.86 0 1 1 0 1.718ZM28.102 3.354A1.593 1.593 0 1 0 25 2.621a1.593 1.593 0 0 0 3.1.733ZM17.389 7.497a.675.675 0 1 0-1.332-.216.675.675 0 0 0 1.332.216ZM39.201 4.221l.542 1.522c.023.065.069.117.127.143l1.352.61c.19.085.19.39 0 .476l-1.352.609a.244.244 0 0 0-.127.143L39.2 9.246c-.076.215-.347.215-.423 0l-.541-1.522a.244.244 0 0 0-.127-.143l-1.353-.61c-.19-.085-.19-.39 0-.476l1.353-.609a.244.244 0 0 0 .127-.143l.54-1.522c.077-.215.348-.215.424 0ZM4.062.398l.744 2.052a.332.332 0 0 0 .174.193l1.858.82c.263.117.263.527 0 .643l-1.858.822a.331.331 0 0 0-.175.192l-.743 2.052c-.105.29-.477.29-.582 0L2.736 5.12a.331.331 0 0 0-.174-.192L.704 4.106C.44 3.99.44 3.58.704 3.464l1.858-.821a.331.331 0 0 0 .174-.193L3.48.398c.105-.29.477-.29.582 0Z"/></g><defs><clipPath id="a"><path fill="#fff" d="M0 0h44v44H0z"/></clipPath></defs></svg>