<svg width="37" height="37" viewBox="0 0 37 37" fill="none" xmlns="http://www.w3.org/2000/svg">
<path d="M35.9537 0.935406C35.3505 0.332205 34.5485 0 33.6955 0C32.8425 0 32.0405 0.332205 31.4373 0.935334L28.8211 3.55157C26.5836 2.90949 24.0715 3.46709 22.3121 5.22647C21.5112 6.02739 20.9596 6.98433 20.6563 8.00031L12.484 12.3178L10.0716 9.90538C9.78766 9.62152 9.32747 9.62152 9.04354 9.90538C8.75968 10.1892 8.75968 10.6495 9.04354 10.9334L11.1387 13.0286L5.94428 15.7728C4.24821 16.6689 3.3102 18.4436 3.39194 20.2437L0.477896 21.9146C0.129648 22.1143 0.00925352 22.5585 0.208923 22.9068C0.343265 23.141 0.588173 23.2722 0.840236 23.2722C0.962871 23.2722 1.08717 23.2411 1.20113 23.1758L3.70571 21.7397C3.77357 21.916 3.85118 22.0904 3.94159 22.2616C4.03163 22.432 4.1857 22.5597 4.36991 22.6166C4.55346 22.6734 4.7532 22.655 4.92382 22.5648L15.2299 17.1199L19.8715 21.7615L14.4268 32.0676C14.2392 32.4226 14.3749 32.8624 14.7298 33.0499C14.9459 33.1671 15.1733 33.2762 15.3997 33.36L13.9366 35.9115C13.737 36.2597 13.8574 36.7039 14.2056 36.9036C14.3197 36.9689 14.444 37 14.5665 37C14.8185 37 15.0635 36.8688 15.1978 36.6346L16.9027 33.6613C16.9611 33.6634 17.0194 33.6648 17.0777 33.6648C18.8021 33.6648 20.4714 32.7345 21.3314 31.1067L24.0572 25.9471L25.9555 27.8455C26.0975 27.9874 26.2834 28.0584 26.4695 28.0584C26.6556 28.0584 26.8416 27.9874 26.9836 27.8455C27.2674 27.5615 27.2674 27.1013 26.9836 26.8174L24.768 24.6018L29.2539 16.1108C30.1333 15.7913 30.9584 15.281 31.6625 14.5769C33.4219 12.8175 33.9795 10.3054 33.3374 8.06788L35.9536 5.45165C37.1989 4.20651 37.1988 2.18047 35.9537 0.935406ZM6.62336 17.0582L20.3814 9.78975C20.366 10.7053 20.539 11.6229 20.9007 12.4798L4.95779 20.9025C4.55252 19.4228 5.2118 17.8041 6.62336 17.0582ZM16.5754 16.4091L21.611 13.7488C21.8189 14.0389 22.0516 14.3165 22.3121 14.5769C22.6066 14.8714 22.923 15.1305 23.2547 15.3577L20.5823 20.4162L16.5754 16.4091ZM20.046 30.4277C19.2792 31.879 17.5897 32.5352 16.0769 32.0565L24.5377 16.0419C25.3222 16.3536 26.1547 16.5104 26.9874 16.5104C27.1272 16.5104 27.2669 16.5044 27.4065 16.4956L20.046 30.4277ZM30.6346 13.5489C28.6234 15.56 25.3512 15.5599 23.3401 13.5489C21.3291 11.5378 21.3291 8.2656 23.3401 6.25452C24.3457 5.24894 25.6665 4.74619 26.9874 4.74619C28.3082 4.74619 29.629 5.24894 30.6346 6.25452C32.6456 8.2656 32.6456 11.5378 30.6346 13.5489ZM34.9257 4.42367L32.7274 6.62199C32.4423 6.12263 32.0883 5.65218 31.6626 5.22639C31.2369 4.80068 30.7664 4.44679 30.267 4.16171L32.4653 1.96338C33.1436 1.28503 34.2473 1.2851 34.9256 1.96338C35.604 2.64174 35.604 3.74538 34.9257 4.42367Z" fill="#F55853"/>
<path d="M26.9873 7.06055C26.2284 7.06055 25.5149 7.35611 24.9782 7.89276C23.8704 9.00059 23.8704 10.803 24.9782 11.9109C25.5148 12.4476 26.2284 12.7431 26.9873 12.7431C27.7463 12.7431 28.4598 12.4476 28.9964 11.9109C29.5331 11.3743 29.8287 10.6608 29.8287 9.90189C29.8287 9.14296 29.5332 8.4294 28.9964 7.89276C28.4599 7.35611 27.7463 7.06055 26.9873 7.06055ZM27.9684 10.8829C27.7064 11.1449 27.358 11.2892 26.9873 11.2892C26.6167 11.2892 26.2683 11.1449 26.0062 10.8829C25.4653 10.3419 25.4653 9.46165 26.0062 8.92081C26.2682 8.65878 26.6167 8.51439 26.9873 8.51439C27.358 8.51439 27.7064 8.6587 27.9684 8.92081C28.2305 9.18285 28.3748 9.53124 28.3748 9.90189C28.3748 10.2724 28.2305 10.6208 27.9684 10.8829Z" fill="#F55853"/>
<path d="M6.06064 3.02572C6.80519 3.02572 7.40882 2.42209 7.40882 1.67753C7.40882 0.93298 6.80526 0.329346 6.06064 0.329346C5.31601 0.329346 4.71245 0.93298 4.71245 1.67753C4.71245 2.42209 5.31601 3.02572 6.06064 3.02572Z" fill="#F55853"/>
<path d="M19.9463 3.43044C20.2616 3.43044 20.5173 3.17484 20.5173 2.85947C20.5173 2.54418 20.2617 2.28857 19.9463 2.28857C19.631 2.28857 19.3754 2.54418 19.3754 2.85947C19.3754 3.17484 19.631 3.43044 19.9463 3.43044Z" fill="#F55853"/>
<path d="M0.813718 10.4403L1.9579 10.9557C2.0069 10.9778 2.0457 11.0215 2.06536 11.0766L2.52338 12.3645C2.58806 12.5464 2.81692 12.5464 2.8816 12.3645L3.33962 11.0766C3.3592 11.0215 3.39801 10.9778 3.44701 10.9557L4.59119 10.4403C4.75284 10.3674 4.75284 10.1099 4.59119 10.037L3.44701 9.52154C3.39801 9.49942 3.3592 9.45578 3.33962 9.40064L2.8816 8.11279C2.81692 7.93083 2.58806 7.93083 2.52338 8.11279L2.06536 9.40064C2.04577 9.45578 2.0069 9.4995 1.9579 9.52154L0.813718 10.037C0.65206 10.1099 0.65206 10.3674 0.813718 10.4403Z" fill="#F55853"/>
<path d="M11.0341 3.7022L12.6063 4.39717C12.6737 4.42695 12.727 4.48584 12.7539 4.56021L13.3832 6.29631C13.472 6.54158 13.7865 6.54158 13.8754 6.29631L14.5047 4.56021C14.5317 4.48584 14.585 4.42695 14.6524 4.39717L16.2246 3.7022C16.4467 3.60406 16.4467 3.25682 16.2246 3.15869L14.6524 2.46371C14.5851 2.43393 14.5317 2.37504 14.5047 2.30068L13.8754 0.564567C13.7865 0.319298 13.472 0.319298 13.3832 0.564567L12.7539 2.30068C12.7269 2.37504 12.6736 2.43393 12.6063 2.46371L11.0341 3.15869C10.812 3.25682 10.812 3.60406 11.0341 3.7022Z" fill="#F55853"/>
</svg>
