<svg width="110" height="107" viewBox="0 0 110 107" fill="none" xmlns="http://www.w3.org/2000/svg">
<path d="M89.8566 35.2474L50.6392 42.9679C49.069 43.2771 47.6347 44.2773 46.8018 45.6433L25.9962 79.7719C25.0636 81.3015 25.0429 83.0526 25.9416 84.3416C26.8404 85.6306 28.4905 86.2167 30.2482 85.8706L46.5262 82.666L54.6011 94.2475C55.9677 96.2077 54.5155 95.7336 59.2969 89.5064C67.3829 78.9756 66.991 81.0569 71.9387 77.6073C76.8865 74.1576 78.3491 71.7858 86.4754 70.0061C93.9719 67.6729 94.9145 69.0534 93.5478 67.0932L85.4729 55.5117L89.3098 49.2178L92.1219 53.2511L91.6288 53.5949C90.3068 54.5166 89.9812 56.3418 90.9029 57.6638L94.4639 62.7712C96.0929 65.1077 99.319 65.6831 101.655 64.0541C103.992 62.4251 104.567 59.199 102.938 56.8627L99.3773 51.7553C98.4556 50.4333 96.6304 50.1077 95.3083 51.0295L94.8152 51.3733L91.1769 46.155L94.1086 41.3461C95.0411 39.8165 95.062 38.0655 94.1632 36.7764C93.2645 35.4871 91.6143 34.9013 89.8566 35.2474ZM100.245 58.7405C100.839 59.5918 100.629 60.7673 99.7775 61.3609C98.9262 61.9544 97.7507 61.7447 97.1572 60.8934L93.8025 56.0819L96.8903 53.929L100.245 58.7405ZM88.5984 65.7349C87.3186 65.934 85.8189 66.3644 84.0913 67.0267C79.9559 68.6122 74.9537 71.3851 70.0059 74.8348C65.0581 78.2845 60.7264 82.0193 57.809 85.3512C56.5902 86.7431 55.6678 88.0015 55.0383 89.1336L44.231 73.633C44.168 73.2444 44.6532 71.5174 47.6528 68.2252C50.392 65.219 54.3492 61.856 58.7955 58.756C63.242 55.6558 67.7658 53.1055 71.5337 51.575C75.6601 49.8988 77.4482 50.0409 77.7912 50.2344L88.5984 65.7349ZM83.7889 69.1523C81.0496 72.1586 74.5073 71.8139 70.061 74.9139C65.6148 78.0139 63.6759 84.272 59.908 85.8025C55.937 87.4155 57.7506 92.5356 57.3145 92.3555C57.2963 91.8842 57.8541 90.1656 60.741 86.9972C63.4802 83.991 67.4373 80.628 71.8836 77.528C76.3302 74.4278 80.8539 71.8775 84.6219 70.347C88.5929 68.7338 92.6349 67.4315 93.071 67.6116C93.0892 68.083 86.6756 65.9842 83.7889 69.1523ZM83.4215 52.569L80.4597 48.321C79.0929 46.3607 75.9996 46.339 71.0031 48.2547C66.8678 49.8401 61.8655 52.6131 56.9177 56.0628C51.9699 59.5125 47.6383 63.2472 44.7208 66.5792C41.1955 70.605 40.1462 73.515 41.5129 75.4753L44.4747 79.7233L29.6141 82.649C29.1601 82.7384 28.7758 82.6655 28.6351 82.4637C28.4943 82.2618 28.559 81.8761 28.7998 81.4809L49.6054 47.3523C49.7811 47.0643 50.0325 46.8063 50.3229 46.6038C50.6131 46.4014 50.9424 46.2546 51.2733 46.1895L82.8627 39.9706L87.2583 46.2751L83.4215 52.569ZM91.3051 39.637L89.1254 43.2125L86.3821 39.2779L90.4908 38.4691C90.945 38.3796 91.3293 38.4524 91.47 38.6543C91.6108 38.8559 91.5461 39.2417 91.3051 39.637Z" fill="#FED847"/>
<path d="M71.3198 62.8285C70.8736 63.1396 70.7641 63.7536 71.0752 64.1998L72.274 65.9192C72.5851 66.3655 73.1991 66.475 73.6453 66.1639C74.0916 65.8528 74.2011 65.2388 73.89 64.7925L72.6912 63.0731C72.3801 62.6269 71.7661 62.5174 71.3198 62.8285Z" fill="#FED847"/>
<path d="M73.5556 57.9818C73.1093 58.2929 72.9998 58.9069 73.3109 59.3532L74.5097 61.0726C74.8208 61.5188 75.4348 61.6283 75.8811 61.3172C76.3273 61.0061 76.4368 60.3921 76.1257 59.9459L74.9269 58.2265C74.6158 57.7802 74.0018 57.6707 73.5556 57.9818Z" fill="#FED847"/>
<path d="M80.2891 61.6744C79.8429 61.9856 79.7333 62.5996 80.0445 63.0458L81.2433 64.7652C81.5544 65.2114 82.1684 65.321 82.6146 65.0099C83.0609 64.6987 83.1704 64.0847 82.8593 63.6385L81.6605 61.9191C81.3493 61.4729 80.7352 61.3634 80.2891 61.6744Z" fill="#FED847"/>
<path d="M55.2881 80.9843C54.5445 81.5028 53.521 81.3203 53.0025 80.5766L51.4682 78.376C50.9496 77.6322 51.1322 76.6089 51.876 76.0903C52.6196 75.5719 53.6431 75.7543 54.1616 76.4981L55.6959 78.6987C56.2145 79.4424 56.0319 80.4658 55.2881 80.9843Z" fill="#FED847"/>
<path d="M50.9015 74.6927C50.1578 75.2112 49.1344 75.0287 48.6158 74.2849L48.0446 73.4656C47.526 72.7218 47.7086 71.6985 48.4523 71.1799C49.196 70.6615 50.2194 70.8439 50.738 71.5877L51.3093 72.407C51.8278 73.1508 51.6453 74.1741 50.9015 74.6927Z" fill="#FED847"/>
<path d="M60.4465 28.1525C61.4082 29.5319 61.0698 31.4298 59.6903 32.3916C58.3108 33.3534 56.4129 33.0149 55.4511 31.6354C54.4893 30.2559 54.8279 28.3581 56.2074 27.3963C57.5869 26.4345 59.4848 26.7732 60.4465 28.1525Z" fill="#FED847"/>
<path d="M16.3047 45.1912C16.7119 45.7753 16.5685 46.5791 15.9844 46.9863C15.4002 47.3936 14.5965 47.2502 14.1892 46.6661C13.782 46.082 13.9254 45.2782 14.5095 44.871C15.0937 44.4637 15.8974 44.6071 16.3047 45.1912Z" fill="#FED847"/>
<path d="M29.1786 27.8438L31.6905 29.638C31.7981 29.7147 31.9264 29.7456 32.0456 29.7233L34.8311 29.2004C35.2246 29.1266 35.5572 29.6036 35.3519 29.9474L33.8981 32.3802C33.8358 32.4844 33.8203 32.6154 33.8553 32.7429L34.6702 35.7202C34.7853 36.141 34.3614 36.4365 34.0065 36.183L31.4946 34.3888C31.387 34.312 31.2587 34.2812 31.1395 34.3035L28.354 34.8264C27.9605 34.9002 27.6279 34.4232 27.8332 34.0794L29.287 31.6466C29.3493 31.5424 29.3648 31.4114 29.3298 31.2839L28.5149 28.3066C28.3998 27.8858 28.8238 27.5902 29.1786 27.8438Z" fill="#FED847"/>
<path d="M61.3644 8.06185L64.7728 10.4652C64.9188 10.5682 65.0935 10.6083 65.2567 10.5765L69.067 9.83324C69.6052 9.72824 70.0537 10.3714 69.769 10.8402L67.754 14.1583C67.6677 14.3004 67.645 14.4785 67.6911 14.6509L68.7676 18.6801C68.9197 19.2493 68.3372 19.6554 67.8557 19.3159L64.4473 16.9125C64.3014 16.8097 64.1265 16.7693 63.9634 16.8012L60.1532 17.5445C59.6149 17.6495 59.1665 17.0063 59.4511 16.5376L61.4661 13.2194C61.5524 13.0773 61.5752 12.8992 61.5291 12.7268L60.4525 8.69767C60.3003 8.12835 60.8829 7.72218 61.3644 8.06185Z" fill="#FED847"/>
<path d="M18.8568 52.3887L22.2651 54.7921C22.4112 54.895 22.5859 54.9352 22.7491 54.9034L26.5593 54.1601C27.0976 54.0551 27.546 54.6982 27.2614 55.167L25.2464 58.4851C25.1601 58.6273 25.1373 58.8053 25.1834 58.9777L26.26 63.0069C26.4121 63.5761 25.8295 63.9822 25.3481 63.6427L21.9397 61.2393C21.7938 61.1365 21.6189 61.0961 21.4558 61.128L17.6456 61.8713C17.1073 61.9763 16.6588 61.333 16.9435 60.8644L18.9585 57.5462C19.0448 57.4041 19.0675 57.226 19.0214 57.0536L17.9449 53.0245C17.7928 52.4553 18.3753 52.0491 18.8568 52.3887Z" fill="#FED847"/>
</svg>
