<svg fill="none" xmlns="http://www.w3.org/2000/svg" viewBox="0 0 62 47"><path d="M5 26H1V14h4.5v3h4v6.5h5v-7h-4V7H15v3.5h5v10h-1.5v3H25V1h4v9h3v12.5h6.5V7h3v9.5H47V7h3.5v6h4v2.5h3V25H61v8h-2v6.5h2V46H5V26Z" fill="url(#a)"/><path d="M57 6.5h-6V3h6v3.5Z" fill="url(#b)"/><path d="M55 12.5v-3h5v3h-5Z" fill="url(#c)"/><path d="M1 14.5V16m0 0v10h4v20h56v-6.5h-2V33h2v-8h-3.5v-9.5h-3V13h-4V7H47v9.5h-5.5V7h-3v15.5H32V10h-3V1h-4v22.5h-6.5v-3H20v-10h-5V7h-4.5v9.5h4v7h-5V17h-4v-3H1v2ZM51 3.5v1m0 0v2h6V3h-6v1.5Zm-37.5 25v10h5v-10h-5ZM22 31v8.313h7V31h-7Zm9.5-6v4.5H36V25h-4.5Zm7 2v11.25H46V27h-7.5Zm10-8.5h6V26h-6v-7.5Zm6.5-9v3h5v-3h-5Z" stroke="#346110"/><path d="M13.5 40V29.5h5V40h-5ZM22 39.5V31h7v8.5h-7ZM31.5 29.5V25H36v4.5h-4.5ZM38.5 38V27H46v11h-7.5ZM48.5 26v-7.5h6V26h-6Z" fill="#fff"/><path d="M13.5 40V29.5h5V40h-5ZM22 39.5V31h7v8.5h-7ZM31.5 29.5V25H36v4.5h-4.5ZM38.5 38V27H46v11h-7.5ZM48.5 26v-7.5h6V26h-6Z" stroke="#346110"/><defs><radialGradient id="a" cx="0" cy="0" r="1" gradientUnits="userSpaceOnUse" gradientTransform="matrix(15.49999 41.00004 -54.66672 20.66665 27 5)"><stop stop-color="#346110"/><stop offset="1" stop-color="#2D540E"/></radialGradient><radialGradient id="b" cx="0" cy="0" r="1" gradientUnits="userSpaceOnUse" gradientTransform="matrix(15.49999 41.00004 -54.66672 20.66665 27 5)"><stop stop-color="#346110"/><stop offset="1" stop-color="#2D540E"/></radialGradient><radialGradient id="c" cx="0" cy="0" r="1" gradientUnits="userSpaceOnUse" gradientTransform="matrix(15.49999 41.00004 -54.66672 20.66665 27 5)"><stop stop-color="#346110"/><stop offset="1" stop-color="#2D540E"/></radialGradient></defs></svg>