<svg width="88" height="24" viewBox="0 0 88 24" fill="none" xmlns="http://www.w3.org/2000/svg">
<path d="M22.4068 10.9779C22.6535 10.7853 22.8365 10.5167 22.9301 10.2097C23.0237 9.9027 23.0233 9.57269 22.9289 9.26594C22.8345 8.95919 22.6508 8.6911 22.4036 8.49924C22.1565 8.30739 21.8582 8.2014 21.5506 8.19614L15.5773 7.95969C15.548 7.95757 15.5198 7.94659 15.4963 7.92808C15.4727 7.90957 15.4548 7.88432 15.4446 7.85538L13.3805 2.01371C13.2768 1.7165 13.0884 1.45987 12.8409 1.27856C12.5934 1.09724 12.2987 1 11.9967 1C11.6947 1 11.4 1.09724 11.1525 1.27856C10.9049 1.45987 10.7166 1.7165 10.6129 2.01371L8.5554 7.87624C8.54523 7.90519 8.52728 7.93044 8.50373 7.94895C8.48018 7.96745 8.45202 7.97843 8.42266 7.98056L2.44935 8.217C2.1418 8.22227 1.84353 8.32826 1.59636 8.52011C1.3492 8.71196 1.16553 8.98006 1.07112 9.2868C0.976709 9.59355 0.976285 9.92357 1.06991 10.2306C1.16353 10.5376 1.34651 10.8062 1.59318 10.9988L6.2789 14.8584C6.30235 14.8778 6.31988 14.9039 6.32932 14.9335C6.33876 14.9632 6.33969 14.9951 6.332 15.0253L4.71921 21.013C4.63563 21.318 4.64373 21.6424 4.7424 21.9424C4.84106 22.2423 5.02551 22.5031 5.27064 22.6892C5.51578 22.8754 5.8097 22.978 6.11242 22.9829C6.41514 22.9878 6.71196 22.895 6.96251 22.7169L11.9137 19.2397C11.9381 19.222 11.967 19.2126 11.9967 19.2126C12.0263 19.2126 12.0553 19.222 12.0796 19.2397L17.0308 22.7169C17.278 22.901 17.5738 23 17.8771 23C18.1804 23 18.4761 22.901 18.7233 22.7169C18.9685 22.5324 19.1531 22.2729 19.2518 21.974C19.3504 21.6751 19.3582 21.3516 19.2742 21.0478L17.6481 15.0392C17.6395 15.0091 17.6399 14.9769 17.6495 14.947C17.659 14.9171 17.677 14.8911 17.7012 14.8723L22.4068 10.9779Z" fill="#AA43A2"/>
<path d="M53.9453 10.3867L53.9369 10.3933L53.9286 10.4001L49.2284 14.2901C49.0878 14.4033 48.9874 14.554 48.9347 14.7196C48.8812 14.8879 48.8779 15.0682 48.9249 15.2381L50.5502 21.2437L50.5513 21.2479C50.5959 21.4089 50.5917 21.5811 50.5395 21.739C50.4877 21.896 50.3928 22.0265 50.2738 22.1165C50.1541 22.2052 50.0155 22.25 49.8771 22.25C49.7381 22.25 49.5989 22.2049 49.479 22.1155L49.4705 22.1092L49.4619 22.1031L44.5132 18.6277C44.3642 18.5218 44.1843 18.4626 43.9967 18.4626C43.8091 18.4626 43.6292 18.5218 43.4802 18.6276L38.5315 22.1031L38.528 22.1056C38.4056 22.1925 38.2649 22.2353 38.1247 22.233C37.9844 22.2307 37.8446 22.1833 37.7243 22.092C37.6035 22.0002 37.5073 21.8675 37.4548 21.708C37.4023 21.5483 37.3979 21.3743 37.4425 21.2113L37.4434 21.2081L39.0562 15.2204L39.0563 15.2204L39.0588 15.2103C39.101 15.0444 39.096 14.8697 39.044 14.7062L38.3293 14.9335L39.044 14.7062C38.992 14.5425 38.8936 14.3932 38.7561 14.2798L38.7557 14.2795L34.07 10.4199L34.0624 10.4136L34.0547 10.4075C33.9328 10.3125 33.8372 10.1754 33.7873 10.0118C33.7373 9.84803 33.7376 9.67104 33.7879 9.50743C33.8382 9.34404 33.9342 9.20728 34.0562 9.11257C34.1777 9.0183 34.3197 8.96933 34.4622 8.96689L34.4706 8.96675L34.479 8.96642L40.4523 8.72997L40.4646 8.72948L40.4768 8.7286C40.658 8.71549 40.8282 8.64786 40.9671 8.53864L40.9672 8.53864C41.1057 8.42973 41.2068 8.28493 41.263 8.12483L41.2631 8.1246L43.3205 2.26207L43.321 2.2608C43.376 2.10302 43.474 1.97272 43.5957 1.88359C43.7168 1.79485 43.8568 1.75 43.9967 1.75C44.1366 1.75 44.2766 1.79485 44.3977 1.88359C44.5194 1.97272 44.6173 2.10302 44.6724 2.26081L44.6733 2.26357L46.737 8.10395L47.4446 7.85538L46.7375 8.10524L46.7373 8.10482C46.7936 8.2646 46.8945 8.40907 47.0328 8.51778L47.4963 7.92808L47.0328 8.51778C47.1718 8.62701 47.342 8.69463 47.5232 8.70774L47.5354 8.70862L47.5477 8.7091L53.521 8.94555L53.5294 8.94589L53.5378 8.94603C53.6803 8.94847 53.8223 8.99743 53.9438 9.09171C54.0658 9.18642 54.1618 9.32318 54.2121 9.48656C54.2624 9.65018 54.2627 9.82716 54.2127 9.99095L54.9301 10.2097L54.2127 9.99095C54.1628 10.1545 54.0671 10.2916 53.9453 10.3867Z" stroke="#AA43A2" stroke-opacity="0.5" stroke-width="1.5"/>
<path d="M85.9453 10.3867L85.9369 10.3933L85.9286 10.4001L81.2284 14.2901C81.0878 14.4033 80.9874 14.554 80.9347 14.7196C80.8812 14.8879 80.8779 15.0682 80.9249 15.2381L82.5502 21.2437L82.5513 21.2479C82.5959 21.4089 82.5917 21.5811 82.5395 21.739C82.4877 21.896 82.3928 22.0265 82.2738 22.1165C82.1541 22.2052 82.0155 22.25 81.8771 22.25C81.7381 22.25 81.5989 22.2049 81.479 22.1155L81.4705 22.1092L81.4619 22.1031L76.5132 18.6277C76.3642 18.5218 76.1843 18.4626 75.9967 18.4626C75.8091 18.4626 75.6292 18.5218 75.4802 18.6276L70.5315 22.1031L70.528 22.1056C70.4056 22.1925 70.2649 22.2353 70.1247 22.233C69.9844 22.2307 69.8446 22.1833 69.7243 22.092C69.6035 22.0002 69.5073 21.8675 69.4548 21.708C69.4023 21.5483 69.3979 21.3743 69.4425 21.2113L69.4434 21.2081L71.0562 15.2204L71.0563 15.2204L71.0588 15.2103C71.101 15.0444 71.096 14.8697 71.044 14.7062L70.3293 14.9335L71.044 14.7062C70.992 14.5425 70.8936 14.3932 70.7561 14.2798L70.7557 14.2795L66.07 10.4199L66.0624 10.4136L66.0547 10.4075C65.9328 10.3125 65.8372 10.1754 65.7873 10.0118C65.7373 9.84803 65.7376 9.67104 65.7879 9.50743C65.8382 9.34404 65.9342 9.20728 66.0562 9.11257C66.1777 9.0183 66.3197 8.96933 66.4622 8.96689L66.4706 8.96675L66.479 8.96642L72.4523 8.72997L72.4646 8.72948L72.4768 8.7286C72.658 8.71549 72.8282 8.64786 72.9671 8.53864L72.9672 8.53864C73.1057 8.42973 73.2068 8.28493 73.263 8.12483L73.2631 8.1246L75.3205 2.26207L75.321 2.2608C75.376 2.10302 75.474 1.97272 75.5957 1.88359C75.7168 1.79485 75.8568 1.75 75.9967 1.75C76.1366 1.75 76.2766 1.79485 76.3977 1.88359C76.5194 1.97272 76.6173 2.10302 76.6724 2.26081L76.6733 2.26357L78.737 8.10395L79.4446 7.85538L78.7375 8.10524L78.7373 8.10482C78.7936 8.2646 78.8945 8.40907 79.0328 8.51778L79.4963 7.92808L79.0328 8.51778C79.1718 8.62701 79.342 8.69463 79.5232 8.70774L79.5354 8.70862L79.5477 8.7091L85.521 8.94555L85.5294 8.94589L85.5378 8.94603C85.6803 8.94847 85.8223 8.99743 85.9438 9.09171C86.0658 9.18642 86.1618 9.32318 86.2121 9.48656C86.2624 9.65018 86.2627 9.82716 86.2127 9.99095L86.9301 10.2097L86.2127 9.99095C86.1628 10.1545 86.0671 10.2916 85.9453 10.3867Z" stroke="#AA43A2" stroke-opacity="0.5" stroke-width="1.5"/>
</svg>
