<svg width="367" height="434" viewBox="0 0 367 434" fill="none" xmlns="http://www.w3.org/2000/svg">
<path d="M166.032 131.492C200.008 141.05 244.817 189.617 285.871 172.826C326.924 156.034 354.793 183.676 354.793 183.676C348.894 183.848 350.464 184.606 349.332 185.226C347.916 186.001 345.525 189.617 346.233 200.209C346.799 208.682 349.895 210.198 352.431 211.059L366.733 219.489C367.012 219.376 367.083 219.414 366.894 219.584L366.733 219.489C364.747 220.296 352.232 228.809 348.004 252.651C336.187 319.301 316.487 276.054 243.778 367.868C200.816 422.118 147.784 335.059 68.3315 419.793C37.5714 452.598 6.16844 416.779 5.46062 427.801V214.417L0 0C39.9918 20.4084 -2.88043 100.13 40.4381 141.05C59.9029 159.438 120.449 118.668 166.032 131.492Z" fill="url(#paint0_linear_107_118)"/>
<defs>
<linearGradient id="paint0_linear_107_118" x1="320.968" y1="215.968" x2="59.5314" y2="245.978" gradientUnits="userSpaceOnUse">
<stop stop-color="white" stop-opacity="0.55"/>
<stop offset="1" stop-color="#FFF9E7"/>
</linearGradient>
</defs>
</svg>
