<svg width="143" height="37" xmlns="http://www.w3.org/2000/svg"><path d="M53.804 7.053a2 2 0 011.88-2.129l82.685-4.81a2 2 0 012.111 1.849l2.006 26.973a2 2 0 01-1.872 2.145l-82.883 5.096a2 2 0 01-2.119-1.864l-1.808-27.26z" fill="#FEC830"/><path d="M3.91 34.439a2.007 2.007 0 01-2.122-1.903C1.424 25.368.481 10.893.132 5.598a1.992 1.992 0 011.879-2.119L45.043.925a2 2 0 011.701.773L56.922 14.87a2 2 0 01.123 2.267l-8.507 13.89a2 2 0 01-1.592.953L3.91 34.439z" fill="#000"/><path d="M11.125 18.712a7.19 7.19 0 01.385-2.91 7.083 7.083 0 011.436-2.432 7.45 7.45 0 012.335-1.71 8.181 8.181 0 013.017-.775c1.203-.08 2.278.025 3.226.315.97.3 1.878.766 2.683 1.38l-2.128 2.905a6.067 6.067 0 00-1.674-.876 4.894 4.894 0 00-1.848-.2 3.447 3.447 0 00-1.4.373 3.413 3.413 0 00-1.118.915c-.652.79-.94 1.726-.867 2.807.078 1.151.506 2.077 1.283 2.777.777.7 1.728 1.012 2.855.936.92-.062 1.668-.317 2.243-.763l-.12-1.771-2.832.19-.193-2.826 6.56-.439.434 6.372c-1.685 1.56-3.693 2.417-6.024 2.57-1.465.1-2.808-.123-4.03-.668a6.967 6.967 0 01-2.955-2.432c-.75-1.079-1.172-2.325-1.268-3.738zM28.6 17.564c-.07-.98.064-1.964.396-2.89a7.3 7.3 0 011.446-2.445 7.532 7.532 0 012.338-1.73 8.323 8.323 0 016.091-.411c.929.295 1.79.769 2.533 1.393a7.175 7.175 0 011.742 2.227c.45.882.713 1.845.776 2.832.07.98-.065 1.964-.396 2.89a7.264 7.264 0 01-1.441 2.448 7.493 7.493 0 01-2.332 1.726c-.94.454-1.96.72-3.004.783-1.437.096-2.765-.142-3.983-.716a7.172 7.172 0 01-4.166-6.107zm4.044-.27c.07 1.044.476 1.917 1.216 2.62.74.703 1.636 1.019 2.69.948 1.067-.07 1.913-.498 2.538-1.283.625-.784.901-1.708.829-2.771-.071-1.045-.476-1.918-1.215-2.62-.74-.704-1.644-1.02-2.713-.948-1.054.07-1.893.498-2.518 1.282-.625.784-.901 1.708-.827 2.772zM66.206 27.383l-.963-14.105 3.945-.264.966 14.106-3.948.263zM71.454 16.311l-.234-3.434 12.502-.836.234 3.434-4.282.285.729 10.675-3.945.263-.729-10.675-4.275.288zM83.691 20.75a6.077 6.077 0 01.261-2.262c.21-.69.554-1.332 1.013-1.89a5.293 5.293 0 011.682-1.33 5.622 5.622 0 012.21-.597c.92-.061 1.753.043 2.498.313a4.563 4.563 0 011.838 1.194 5.927 5.927 0 011.138 1.827c.284.726.453 1.492.499 2.27.024.347.035.61.034.788l-7.374.492c.193.587.508 1.023.945 1.307.438.284.96.405 1.567.364.858-.06 1.646-.492 2.366-1.299l2.258 1.625c-1.074 1.54-2.62 2.377-4.641 2.512-1.146.078-2.181-.09-3.106-.503a5.154 5.154 0 01-2.228-1.867c-.563-.834-.883-1.816-.96-2.945zm3.606-1.15l3.826-.257c-.115-.605-.353-1.073-.715-1.404-.361-.33-.804-.478-1.328-.444a1.679 1.679 0 00-1.22.62c-.317.38-.504.874-.563 1.484zM96.208 19.913a6.091 6.091 0 01.26-2.262c.21-.69.554-1.332 1.013-1.891a5.306 5.306 0 011.68-1.328 5.616 5.616 0 012.211-.597c.921-.062 1.754.042 2.499.312a4.552 4.552 0 011.838 1.192 5.907 5.907 0 011.138 1.826 7.46 7.46 0 01.499 2.273c.024.348.035.61.034.788l-7.374.494c.194.586.509 1.021.946 1.305.437.284.959.406 1.567.365.861-.058 1.65-.492 2.367-1.3l2.257 1.624c-1.073 1.54-2.62 2.378-4.64 2.513-1.147.077-2.182-.09-3.106-.503a5.156 5.156 0 01-2.229-1.867c-.563-.835-.883-1.816-.96-2.944zm3.605-1.15l3.826-.257c-.115-.605-.353-1.073-.715-1.404-.362-.33-.805-.479-1.328-.444a1.66 1.66 0 00-1.22.62c-.318.38-.505.875-.563 1.484zM109.542 24.486l-.742-10.9 3.865-.26.106 1.545c.862-1.257 1.919-1.928 3.173-2.011 1.166-.079 2.106.217 2.821.888.715.67 1.115 1.63 1.2 2.875l.486 7.133-3.865.258-.406-5.888c-.039-.582-.211-1.023-.515-1.32-.305-.299-.693-.433-1.164-.402-.486.033-.867.22-1.144.56-.276.34-.395.798-.357 1.374l.402 5.888-3.86.26zM121.714 22.252l1.292-2.416c1.328.725 2.617 1.045 3.87.962.649-.045.96-.268.932-.669-.013-.191-.157-.34-.429-.447-.273-.107-.743-.221-1.401-.344-.5-.094-.926-.187-1.278-.28a6.812 6.812 0 01-1.084-.387 3.435 3.435 0 01-.902-.565 2.646 2.646 0 01-.589-.806 2.951 2.951 0 01-.286-1.124c-.08-1.155.266-2.081 1.037-2.78.772-.699 1.813-1.092 3.125-1.18a8.617 8.617 0 012.43.185 7.9 7.9 0 012.203.823l-1.156 2.518a9.808 9.808 0 00-1.778-.597c-.595-.137-1.112-.19-1.548-.16-.292.019-.511.081-.656.187a.455.455 0 00-.203.417c.013.192.155.34.425.447.27.106.746.233 1.428.38.5.101.926.2 1.279.3.371.105.734.24 1.085.4.328.14.633.33.902.564.243.226.443.494.588.792.167.341.264.712.284 1.09.081 1.192-.261 2.133-1.025 2.826-.764.693-1.836 1.085-3.215 1.177-1.968.13-3.744-.307-5.33-1.313z" fill="#fff"/></svg>