<svg width="46" height="40" viewBox="0 0 46 40" fill="none" xmlns="http://www.w3.org/2000/svg">
<path d="M40.8663 1.13372C42.3957 0.751363 44.1546 1.36313 45.684 1.51608C46.0664 1.51608 46.1428 2.12785 45.684 2.20432C44.1546 2.28079 42.3193 2.20432 40.8663 1.82196C40.5603 1.66902 40.5603 1.21019 40.8663 1.13372Z" fill="#504C5C"/>
<path d="M31.6898 3.19843C32.7604 2.12783 34.4427 1.89842 35.8192 1.97489C36.1251 1.97489 36.1251 2.43372 35.8192 2.43372C35.0545 2.51019 34.3662 2.66313 33.678 2.89254C33.0662 3.12196 32.5309 3.42784 31.9192 3.65726C31.6898 3.8102 31.4603 3.42784 31.6898 3.19843Z" fill="#504C5C"/>
<path d="M23.6601 9.16322C23.966 8.47498 24.5778 7.8632 25.1896 7.40438C25.7249 6.86908 26.4131 6.41025 27.0249 6.02789C27.2543 5.87495 27.4837 6.18083 27.2543 6.33378C26.6425 6.7926 26.1072 7.3279 25.6484 7.8632C25.1131 8.3985 24.7307 9.08675 24.1954 9.62205C23.9662 9.92793 23.5073 9.54558 23.6601 9.16322Z" fill="#504C5C"/>
<path d="M22.1307 13.9044C22.3601 13.5221 22.8956 13.828 22.666 14.2103C22.5131 14.5927 22.2837 15.0515 22.1307 15.4339C21.9778 15.9692 22.0544 16.5045 21.8249 16.9633C21.7485 17.1927 21.3661 17.1927 21.2896 16.9633C20.9072 16.1221 21.6719 14.7456 22.1307 13.9044Z" fill="#504C5C"/>
<path d="M20.0661 23.4633C20.0661 22.6986 20.0661 21.9339 20.219 21.2457C20.2955 20.8633 20.7543 20.8633 20.7543 21.2457C20.8308 21.9339 20.8308 22.5457 20.8308 23.2339C20.8308 23.9222 20.9837 24.6104 20.7543 25.2987C20.6779 25.6044 20.1426 25.6044 20.0661 25.2987C19.913 24.6869 19.9895 24.0751 20.0661 23.4633Z" fill="#504C5C"/>
<path d="M21.9013 30.1928C22.2072 30.9575 22.513 31.7221 22.9719 32.4868C23.3542 33.1752 23.8895 33.8634 23.966 34.6281C24.0425 35.0105 23.5072 35.087 23.2778 34.9339C22.666 34.3987 22.36 33.481 22.0542 32.7162C21.6717 31.9515 21.4424 31.1869 21.2895 30.4222C21.213 29.9634 21.8249 29.8105 21.9013 30.1928Z" fill="#504C5C"/>
<path d="M25.3426 36.0811C25.8015 36.6163 26.2603 37.2282 26.7191 37.687C26.9485 37.9164 27.2544 38.1458 27.5603 38.2988C27.8662 38.4517 28.0191 38.4517 28.2486 38.7576C28.4015 38.987 28.2486 39.2929 28.0191 39.3694C27.3309 39.5224 26.7191 38.8341 26.2603 38.3752C25.725 37.7635 25.3426 37.0754 24.9603 36.3106C24.8837 36.0811 25.1897 35.8517 25.3426 36.0811Z" fill="#504C5C"/>
<path d="M31.2309 37.9929C31.6133 38.2988 32.0721 38.5282 32.5309 38.5282C32.9133 38.5282 33.3721 38.4517 33.678 38.7576C33.8309 38.9106 33.8309 39.14 33.678 39.2929C32.9133 40.0575 31.3838 38.987 30.925 38.3751C30.772 38.1458 31.0014 37.8398 31.2309 37.9929Z" fill="#504C5C"/>
<path d="M36.1251 36.3869C36.7369 36.3105 37.4251 36.1575 38.0369 35.9281C38.7251 35.6223 39.031 35.087 39.4134 34.4751C39.6428 34.1692 40.1016 34.2457 40.1781 34.7045C40.2545 36.7692 37.6545 37.1516 36.1251 36.9222C35.8957 36.8458 35.8957 36.3869 36.1251 36.3869Z" fill="#504C5C"/>
<path d="M39.9487 31.3399C40.5604 30.1928 40.4075 29.0458 40.6369 27.8222C40.7134 27.5165 41.1722 27.5165 41.2487 27.8222C41.4781 29.1222 41.0957 30.4987 40.331 31.5693C40.1781 31.7987 39.8721 31.6458 39.9487 31.3399Z" fill="#504C5C"/>
<path d="M39.6428 18.1868C41.0192 19.4868 41.3251 21.3987 41.2487 23.1574C41.2487 23.4633 40.7134 23.4633 40.7134 23.1574C40.6369 21.5515 40.1781 19.9456 39.1839 18.6458C38.8779 18.3398 39.3368 17.8809 39.6428 18.1868Z" fill="#504C5C"/>
<path d="M35.2073 12.6809C36.5838 13.3691 37.6544 14.6691 38.4956 15.9691C38.725 16.275 38.1897 16.5809 38.0367 16.275C37.1191 15.1279 35.972 14.2103 34.9014 13.2162C34.5955 12.9103 34.9015 12.5279 35.2073 12.6809Z" fill="#504C5C"/>
<path d="M30.6956 8.24554C31.7662 8.24554 32.9898 9.1632 33.678 9.92791C33.9839 10.2338 33.5251 10.6926 33.2192 10.3867C32.8368 10.0044 32.378 9.6985 31.9192 9.46909C31.4603 9.23967 30.925 9.08673 30.4662 8.78084C30.2368 8.6279 30.4662 8.24554 30.6956 8.24554Z" fill="#504C5C"/>
<path d="M20.4484 5.03372C21.0601 5.03372 21.6719 5.26314 22.2837 5.33961C23.0484 5.49255 23.8131 5.56902 24.5013 5.87491C24.8837 6.02785 24.7307 6.56315 24.3484 6.48668C23.6601 6.33374 22.8954 6.25727 22.2072 6.1808C21.5954 6.10432 20.8307 6.10432 20.2954 5.72197C19.9131 5.56902 20.0661 5.03372 20.4484 5.03372Z" fill="#504C5C"/>
<path d="M13.6424 4.26902C14.6365 4.0396 15.8601 4.26902 16.9307 4.34549C17.313 4.34549 17.313 4.88078 16.9307 4.88078C15.8601 4.95726 14.713 5.18667 13.6424 4.95726C13.2602 4.88078 13.2602 4.34549 13.6424 4.26902Z" fill="#504C5C"/>
<path d="M6.53054 4.65141C7.06584 4.49846 7.60114 4.57493 8.13657 4.57493C8.67174 4.57493 9.28364 4.57493 9.81894 4.65141C10.2013 4.65141 10.2013 5.26318 9.81894 5.26318C9.28364 5.26318 8.67174 5.26318 8.13657 5.33965C7.60126 5.33965 7.06596 5.41612 6.53054 5.26318C6.22465 5.26318 6.22465 4.80435 6.53054 4.65141Z" fill="#504C5C"/>
<path d="M0.18354 4.88081C1.17767 3.88668 2.1718 2.96903 3.24227 2.12784C4.00698 1.51607 5.15418 0.369002 6.1483 0.445474C6.53066 0.445474 6.83655 0.904302 6.60713 1.28666C6.14831 2.05137 5.07771 2.5102 4.38946 2.96903C3.54828 3.5808 2.7071 4.34551 1.86591 5.11022C3.39534 5.72199 4.92477 6.56318 6.37772 7.32789C6.83655 7.55731 6.53066 8.39849 5.99524 8.24555C4.08346 7.63378 2.40108 6.41024 0.412828 6.02788C-0.0458746 5.95141 -0.12247 5.26317 0.18354 4.88081Z" fill="#504C5C"/>
</svg>
