<svg width="46" height="51" viewBox="0 0 46 51" fill="none" xmlns="http://www.w3.org/2000/svg">
<g clip-path="url(#clip0)">
<path d="M41.8665 40.8662C42.2489 42.3956 41.6371 44.1545 41.4841 45.6839C41.4841 46.0663 40.8724 46.1427 40.7959 45.6839C40.7194 44.1545 40.7959 42.3192 41.1783 40.8662C41.3312 40.5602 41.79 40.5602 41.8665 40.8662Z" fill="white"/>
<path d="M39.8021 31.6895C40.8727 32.7601 41.1021 34.4424 41.0256 35.8189C41.0256 36.1248 40.5668 36.1248 40.5668 35.8189C40.4903 35.0542 40.3374 34.366 40.108 33.6777C39.8786 33.066 39.5727 32.5307 39.3433 31.9189C39.1903 31.6895 39.5727 31.4601 39.8021 31.6895Z" fill="white"/>
<path d="M33.8376 23.6599C34.5259 23.9658 35.1377 24.5776 35.5965 25.1894C36.1318 25.7247 36.5906 26.4129 36.973 27.0247C37.1259 27.2541 36.82 27.4835 36.6671 27.2541C36.2083 26.6423 35.6729 26.107 35.1376 25.6482C34.6023 25.1129 33.9141 24.7305 33.3788 24.1952C33.0729 23.9659 33.4553 23.5071 33.8376 23.6599Z" fill="white"/>
<path d="M29.0958 22.1304C29.4781 22.3598 29.1722 22.8952 28.7899 22.6657C28.4075 22.5127 27.9487 22.2833 27.5663 22.1304C27.0311 21.9774 26.4958 22.054 26.0369 21.8246C25.8075 21.7481 25.8075 21.3658 26.0369 21.2893C26.8781 20.9068 28.2546 21.6715 29.0958 22.1304Z" fill="white"/>
<path d="M19.5375 20.0662C20.3023 20.0662 21.067 20.0662 21.7552 20.2192C22.1376 20.2956 22.1376 20.7544 21.7552 20.7544C21.067 20.8309 20.4552 20.8309 19.767 20.8309C19.0787 20.8309 18.3905 20.9839 17.7022 20.7544C17.3965 20.678 17.3965 20.1427 17.7022 20.0662C18.314 19.9131 18.9258 19.9896 19.5375 20.0662Z" fill="white"/>
<path d="M12.8077 21.901C12.043 22.2069 11.2784 22.5128 10.5137 22.9716C9.82533 23.354 9.13709 23.8893 8.37238 23.9657C7.99002 24.0422 7.91355 23.5069 8.06662 23.2775C8.60179 22.6657 9.51957 22.3597 10.2843 22.0539C11.049 21.6715 11.8136 21.4422 12.5783 21.2892C13.0371 21.2128 13.1901 21.8247 12.8077 21.901Z" fill="white"/>
<path d="M6.91963 25.3426C6.38445 25.8014 5.77255 26.2602 5.31373 26.7191C5.08431 26.9485 4.8549 27.2544 4.70196 27.5602C4.54901 27.8661 4.54901 28.0191 4.24313 28.2485C4.01371 28.4014 3.70783 28.2485 3.63136 28.0191C3.47829 27.3308 4.16666 26.7191 4.62548 26.2602C5.23725 25.7249 5.92537 25.3426 6.69009 24.9602C6.91962 24.8836 7.14904 25.1896 6.91963 25.3426Z" fill="white"/>
<path d="M5.00761 31.2307C4.70173 31.613 4.47231 32.0719 4.47231 32.5307C4.47231 32.9131 4.54878 33.3719 4.24289 33.6778C4.08995 33.8307 3.86054 33.8307 3.70759 33.6778C2.943 32.9131 4.01348 31.3836 4.62538 30.9248C4.85467 30.7717 5.16068 31.0012 5.00761 31.2307Z" fill="white"/>
<path d="M6.61367 36.1251C6.69001 36.7368 6.84308 37.4251 7.0725 38.0368C7.37826 38.7251 7.91356 39.031 8.52545 39.4133C8.83134 39.6427 8.75487 40.1016 8.29604 40.178C6.23131 40.2545 5.84895 37.6545 6.07837 36.1251C6.15471 35.8956 6.61367 35.8956 6.61367 36.1251Z" fill="white"/>
<path d="M11.6602 39.9483C12.8073 40.5601 13.9544 40.4071 15.1779 40.6366C15.4837 40.713 15.4837 41.1719 15.1779 41.2483C13.8779 41.4777 12.5014 41.0954 11.4308 40.3307C11.2014 40.1777 11.3544 39.8717 11.6602 39.9483Z" fill="white"/>
<path d="M24.8132 39.6425C23.5132 41.019 21.6013 41.3249 19.8426 41.2484C19.5367 41.2484 19.5367 40.7131 19.8426 40.7131C21.4485 40.6366 23.0544 40.1778 24.3542 39.1837C24.6602 38.8777 25.1191 39.3365 24.8132 39.6425Z" fill="white"/>
<path d="M30.3197 35.2071C29.6314 36.5836 28.3314 37.6542 27.0314 38.4954C26.7255 38.7248 26.4197 38.1895 26.7255 38.0366C27.8726 37.1189 28.7903 35.9719 29.7844 34.9013C30.0903 34.5954 30.4726 34.9014 30.3197 35.2071Z" fill="white"/>
<path d="M34.7549 30.6956C34.7549 31.7662 33.8372 32.9897 33.0725 33.6779C32.7666 33.9838 32.3078 33.525 32.6137 33.2191C32.996 32.8368 33.3019 32.3779 33.5313 31.9191C33.7608 31.4603 33.9137 30.925 34.2196 30.4661C34.3725 30.2367 34.7549 30.4661 34.7549 30.6956Z" fill="white"/>
<path d="M37.9668 20.4482C37.9668 21.06 37.7374 21.6717 37.6609 22.2835C37.508 23.0482 37.4315 23.8129 37.1256 24.5012C36.9727 24.8835 36.4374 24.7306 36.5138 24.3482C36.6668 23.66 36.7433 22.8953 36.8197 22.207C36.8962 21.5953 36.8962 20.8306 37.2786 20.2953C37.4315 19.9129 37.9668 20.066 37.9668 20.4482Z" fill="white"/>
<path d="M38.7317 13.6423C38.9611 14.6364 38.7317 15.8599 38.6552 16.9305C38.6552 17.3129 38.1199 17.3129 38.1199 16.9305C38.0435 15.8599 37.8141 14.7129 38.0435 13.6423C38.1199 13.26 38.6552 13.26 38.7317 13.6423Z" fill="white"/>
<path d="M38.3487 6.53029C38.5017 7.06559 38.4252 7.6009 38.4252 8.13632C38.4252 8.6715 38.4252 9.2834 38.3487 9.8187C38.3487 10.2011 37.737 10.2011 37.737 9.8187C37.737 9.2834 37.737 8.6715 37.6605 8.13632C37.6605 7.60102 37.584 7.06572 37.737 6.53029C37.737 6.22441 38.1958 6.22441 38.3487 6.53029Z" fill="white"/>
<path d="M38.1196 0.183418C39.1137 1.17755 40.0314 2.17167 40.8726 3.24215C41.4844 4.00686 42.6314 5.15405 42.555 6.14818C42.555 6.53054 42.0961 6.83643 41.7138 6.60701C40.9491 6.14818 40.4902 5.07758 40.0314 4.38934C39.4196 3.54816 38.6549 2.70697 37.8902 1.86579C37.2784 3.39522 36.4372 4.92464 35.6725 6.3776C35.4431 6.83643 34.6019 6.53054 34.7549 5.99512C35.3666 4.08333 36.5902 2.40096 36.9725 0.412707C37.049 -0.0459964 37.7373 -0.122592 38.1196 0.183418Z" fill="white"/>
</g>
<path d="M37.5037 49.2109C36.2702 50.0889 34.5731 50.0358 33.2285 49.7319C32.9268 49.6811 33.003 49.2286 33.3046 49.2794C34.0714 49.331 34.7755 49.2944 35.4923 49.1824C36.1337 49.0578 36.7123 48.845 37.3537 48.7204C37.6053 48.6076 37.768 49.0228 37.5037 49.2109Z" fill="white"/>
<defs>
<clipPath id="clip0">
<rect width="46" height="46" fill="white" transform="matrix(-4.37114e-08 -1 -1 4.37114e-08 46 46)"/>
</clipPath>
</defs>
</svg>
