<svg width="196" height="391" viewBox="0 0 196 391" fill="none" xmlns="http://www.w3.org/2000/svg">
<path d="M115.081 81.6317C145.592 51.121 186.163 34.3196 229.313 34.3123L229.313 36.3786C141.371 36.3786 69.8354 107.915 69.8354 195.856C69.8353 238.457 86.4243 278.508 116.539 308.623C146.654 338.738 186.712 355.334 229.306 355.327L229.306 357.393C186.148 357.393 145.585 340.584 115.074 310.073C84.5632 279.563 67.7617 238.992 67.7544 195.842C67.7618 152.706 84.5705 112.142 115.081 81.6317Z" fill="#AA43A2"/>
<path d="M122.986 89.5378C150.229 62.2951 187.833 45.4277 229.305 45.4277L229.305 47.494C147.503 47.494 80.95 114.047 80.9427 195.856C80.9427 277.658 147.503 344.218 229.305 344.218L229.305 346.285C146.36 346.285 78.8765 278.801 78.8691 195.849C78.8764 154.384 95.7511 116.773 122.986 89.5378Z" fill="#AA43A2"/>
<path d="M130.798 97.3485C157.11 71.0363 192.097 56.5504 229.312 56.543L229.312 58.6093C192.647 58.6093 158.187 72.8901 132.27 98.8066C106.346 124.73 92.073 159.198 92.073 195.849C92.073 232.514 106.354 266.974 132.27 292.891C158.194 318.815 192.662 333.088 229.312 333.088L229.312 335.154C192.105 335.154 157.11 320.661 130.798 294.349C104.485 268.037 89.9994 233.049 89.9921 195.834C89.9994 158.648 104.485 123.661 130.798 97.3485Z" fill="#AA43A2"/>
<path d="M138.704 105.254C161.917 82.0416 193.966 67.6656 229.313 67.6656L229.313 69.7318C159.763 69.7318 103.182 126.313 103.182 195.863C103.182 265.413 159.763 321.994 229.313 321.994L229.313 324.061C158.62 324.061 101.108 266.549 101.116 195.863C101.116 160.516 115.492 128.467 138.704 105.254Z" fill="#AA43A2"/>
<path d="M146.558 113.11C167.756 91.9119 197.028 78.7742 229.312 78.7742L229.312 80.8404C165.888 80.8405 114.297 132.432 114.304 195.849C114.304 259.274 165.895 310.865 229.312 310.858L229.312 312.924C164.759 312.924 112.23 260.395 112.23 195.842C112.223 163.58 125.361 134.307 146.558 113.11Z" fill="#AA43A2"/>
<path d="M154.413 120.964C173.603 101.774 200.099 89.8892 229.305 89.8892L229.305 91.9555C172.021 91.9555 125.412 138.564 125.412 195.849C125.412 223.604 136.22 249.697 155.842 269.319C175.465 288.941 201.557 299.749 229.313 299.749L229.313 301.815C201.007 301.823 174.395 290.788 154.384 270.777C134.373 250.766 123.346 224.146 123.346 195.849C123.346 166.642 135.223 140.154 154.413 120.964Z" fill="#AA43A2"/>
<path d="M162.268 128.82C179.443 111.645 203.154 101.006 229.312 101.006L229.312 103.072C178.153 103.072 136.535 144.691 136.535 195.849C136.535 247.008 178.153 288.627 229.312 288.627L229.312 290.693C177.01 290.693 134.461 248.144 134.461 195.842C134.461 169.713 145.093 145.995 162.268 128.82Z" fill="#AA43A2"/>
</svg>
