<svg width="224" height="224" viewBox="0 0 224 224" fill="none" xmlns="http://www.w3.org/2000/svg">
<path d="M155.583 34.9268C181.215 44.256 201.681 63.0117 213.214 87.7321L212.03 88.2841C188.534 37.8992 128.436 16.0259 78.0515 39.5213C53.6441 50.903 35.1296 71.1077 25.9215 96.4075C16.7133 121.707 17.9071 149.092 29.291 173.493L28.1071 174.045C16.5767 149.319 15.3696 121.588 24.6988 95.9556C34.0279 70.3233 52.7836 49.8578 77.504 38.3252C102.22 26.8048 129.951 25.5977 155.583 34.9268Z" fill="#AA43A2"/>
<path d="M153.166 41.5687C176.053 49.8986 195.763 66.9365 206.844 90.6975L205.66 91.2496C183.805 44.3825 127.893 24.0328 81.0196 45.8855C34.1526 67.7404 13.8006 123.659 35.6555 170.526L34.4717 171.078C12.3113 123.556 32.9456 66.862 80.4698 44.6955C104.228 33.6215 130.285 33.2411 153.166 41.5687Z" fill="#AA43A2"/>
<path d="M150.778 48.1306C172.883 56.1759 190.53 72.3514 200.477 93.6713L199.293 94.2234C189.497 73.2163 172.108 57.2883 150.336 49.3639C128.557 41.4373 104.996 42.4682 83.9971 52.2603C62.9901 62.0562 47.0621 79.4449 39.1377 101.218C31.2111 122.996 32.242 146.557 42.034 167.556L40.8502 168.108C30.9093 146.79 29.8634 122.868 37.9088 100.763C45.9542 78.6583 62.1296 61.0111 83.4495 51.0641C104.757 41.1334 128.672 40.0852 150.778 48.1306Z" fill="#AA43A2"/>
<path d="M148.361 54.7725C167.862 61.8702 184.661 76.3916 194.105 96.643L192.921 97.195C174.339 57.3471 126.805 40.0466 86.957 58.6284C47.1092 77.2102 29.8086 124.744 48.3904 164.592L47.2066 165.144C28.3194 124.641 45.9045 76.3256 86.405 57.4445C106.656 48.001 128.86 47.6749 148.361 54.7725Z" fill="#AA43A2"/>
<path d="M145.958 61.3715C163.767 67.853 179.115 81.1142 187.74 99.6108L186.556 100.163C169.611 63.8246 126.269 48.0498 89.9365 64.9972C53.5982 81.9424 37.8234 125.285 54.7709 161.617L53.587 162.169C36.3403 125.184 52.4019 81.0539 89.3867 63.8072C107.869 55.1836 128.15 54.8899 145.958 61.3715Z" fill="#AA43A2"/>
<path d="M143.557 67.9703C159.679 73.8379 173.567 85.8428 181.37 102.576L180.186 103.128C164.881 70.3079 125.725 56.0566 92.9046 71.3613C77.0024 78.7768 64.9406 91.94 58.9408 108.425C52.9409 124.91 53.7199 142.747 61.1354 158.649L59.9515 159.201C52.385 142.986 51.5972 124.79 57.7158 107.979C63.8344 91.168 76.1397 77.7378 92.3525 70.1775C109.086 62.3744 127.435 62.1026 143.557 67.9703Z" fill="#AA43A2"/>
<path d="M141.155 74.5694C155.584 79.8209 168.014 90.5634 175.003 105.55L173.819 106.102C160.151 76.7917 125.187 64.0661 95.876 77.7342C66.5652 91.4024 53.8396 126.367 67.5077 155.677L66.3239 156.229C52.3504 126.264 65.3605 90.5178 95.3262 76.5442C110.296 69.5633 126.726 69.3178 141.155 74.5694Z" fill="#AA43A2"/>
</svg>
