<svg width="299" height="299" viewBox="0 0 299 299" fill="none" xmlns="http://www.w3.org/2000/svg">
<path d="M123.94 298.817C77.2826 298.817 33.4154 280.642 0.416992 247.655L1.99689 246.075C69.2375 313.316 178.631 313.316 245.872 246.075C278.444 213.503 296.383 170.196 296.383 124.143C296.383 78.0913 278.444 34.7732 245.872 2.21173L247.451 0.631836C280.45 33.6303 298.613 77.4974 298.613 124.155C298.613 170.812 280.439 214.679 247.451 247.678C214.464 280.654 170.597 298.817 123.94 298.817Z" fill="#AA43A2"/>
<path d="M123.94 286.727C82.2804 286.727 40.6317 270.872 8.92188 239.162L10.5018 237.582C73.0475 300.128 174.822 300.128 237.379 237.582C299.924 175.036 299.924 73.2511 237.379 10.7054L238.958 9.12549C302.378 72.5452 302.378 175.742 238.958 239.173C207.249 270.872 165.589 286.727 123.94 286.727Z" fill="#AA43A2"/>
<path d="M123.94 274.782C83.7032 274.782 45.8755 259.107 17.415 230.657L18.9949 229.078C47.0296 257.112 84.2971 272.541 123.929 272.541C163.572 272.541 200.839 257.101 228.863 229.078C256.897 201.043 272.327 163.775 272.327 124.144C272.327 84.5007 256.886 47.2332 228.863 19.2098L230.443 17.6299C258.892 46.0791 274.568 83.9181 274.568 124.155C274.568 164.392 258.892 202.219 230.443 230.68C202.005 259.107 164.177 274.782 123.94 274.782Z" fill="#AA43A2"/>
<path d="M123.939 262.692C88.4423 262.692 52.9452 249.179 25.9189 222.153L27.4988 220.573C80.6773 273.752 167.202 273.752 220.38 220.573C273.559 167.395 273.559 80.8705 220.38 27.6921L221.96 26.1122C276.012 80.1646 276.012 168.112 221.96 222.153C194.934 249.179 159.437 262.692 123.939 262.692Z" fill="#AA43A2"/>
<path d="M123.94 250.681C91.5245 250.681 59.0975 238.344 34.4131 213.66L35.993 212.08C84.4878 260.575 163.381 260.575 211.865 212.08C260.36 163.585 260.36 84.6913 211.865 36.2077L213.445 34.6278C262.803 83.9854 262.803 164.313 213.445 213.671C188.783 238.344 156.356 250.681 123.94 250.681Z" fill="#AA43A2"/>
<path d="M123.94 238.669C94.594 238.669 65.2484 227.498 42.917 205.167L44.4969 203.587C88.2968 247.387 159.571 247.387 203.371 203.587C224.593 182.365 236.28 154.151 236.28 124.144C236.28 94.1371 224.593 65.9232 203.371 44.7011L204.951 43.1212C226.599 64.7579 238.51 93.5433 238.51 124.144C238.51 154.744 226.588 183.53 204.951 205.167C182.62 227.498 153.285 238.669 123.94 238.669Z" fill="#AA43A2"/>
<path d="M123.94 226.657C97.6762 226.657 71.4119 216.662 51.4111 196.661L52.991 195.082C92.1073 234.198 155.751 234.198 194.867 195.082C233.984 155.965 233.984 92.3214 194.867 53.2051L196.447 51.6252C236.438 91.6155 236.438 156.682 196.447 196.673C176.469 216.651 150.205 226.657 123.94 226.657Z" fill="#AA43A2"/>
</svg>
