<svg width="27" height="25" viewBox="0 0 27 25" fill="none" xmlns="http://www.w3.org/2000/svg">
<path d="M25.6432 2.00347L23.3649 0.456273C23.0624 0.252683 22.6918 0.176738 22.3336 0.244952C21.9754 0.313165 21.6586 0.520022 21.4522 0.820543L10.2994 17.2685L5.173 12.1421C4.914 11.8859 4.56442 11.7422 4.20013 11.7422C3.83585 11.7422 3.48627 11.8859 3.22727 12.1421L1.28154 14.0916C1.15359 14.2194 1.05208 14.3712 0.98283 14.5382C0.913576 14.7052 0.87793 14.8843 0.87793 15.0651C0.87793 15.2459 0.913576 15.425 0.98283 15.592C1.05208 15.7591 1.15359 15.9108 1.28154 16.0386L9.16219 23.9231C9.60515 24.3635 10.2982 24.7037 10.9226 24.7037C11.5471 24.7037 12.1766 24.3102 12.5815 23.7213L26.01 3.91366C26.2142 3.61157 26.2902 3.24082 26.2215 2.88273C26.1527 2.52464 25.9447 2.20843 25.6432 2.00347Z" fill="url(#paint0_linear)"/>
<defs>
<linearGradient id="paint0_linear" x1="13.5621" y1="0.22052" x2="13.5621" y2="24.7037" gradientUnits="userSpaceOnUse">
<stop stop-color="#FEC830"/>
<stop offset="1" stop-color="#FFBD03"/>
</linearGradient>
</defs>
</svg>
