<svg width="122" height="42" viewBox="0 0 122 42" fill="none" xmlns="http://www.w3.org/2000/svg">
<path d="M83 24L96.83 40.34L110.66 24L124.49 40.34L138.32 24L152.16 40.34L166 24" stroke="url(#paint0_linear)" stroke-width="2" stroke-miterlimit="10"/>
<path d="M1 24L14.83 40.34L28.66 24L42.49 40.34L56.32 24L70.16 40.34L84 24" stroke="url(#paint1_linear)" stroke-width="2" stroke-miterlimit="10"/>
<path d="M83 2L96.83 18.34L110.66 2L124.49 18.34L138.32 2L152.16 18.34L166 2" stroke="url(#paint2_linear)" stroke-width="2" stroke-miterlimit="10"/>
<path d="M1 2L14.83 18.34L28.66 2L42.49 18.34L56.32 2L70.16 18.34L84 2" stroke="url(#paint3_linear)" stroke-width="2" stroke-miterlimit="10"/>
<defs>
<linearGradient id="paint0_linear" x1="124.5" y1="24" x2="124.5" y2="40.34" gradientUnits="userSpaceOnUse">
<stop stop-color="#FEC830"/>
<stop offset="1" stop-color="#FFBD03"/>
</linearGradient>
<linearGradient id="paint1_linear" x1="42.5" y1="24" x2="42.5" y2="40.34" gradientUnits="userSpaceOnUse">
<stop stop-color="#FEC830"/>
<stop offset="1" stop-color="#FFBD03"/>
</linearGradient>
<linearGradient id="paint2_linear" x1="124.5" y1="2" x2="124.5" y2="18.34" gradientUnits="userSpaceOnUse">
<stop stop-color="#FEC830"/>
<stop offset="1" stop-color="#FFBD03"/>
</linearGradient>
<linearGradient id="paint3_linear" x1="42.5" y1="2" x2="42.5" y2="18.34" gradientUnits="userSpaceOnUse">
<stop stop-color="#FEC830"/>
<stop offset="1" stop-color="#FFBD03"/>
</linearGradient>
</defs>
</svg>
