<svg width="88" height="126" viewBox="0 0 88 126" fill="none" xmlns="http://www.w3.org/2000/svg">
<path fill-rule="evenodd" clip-rule="evenodd" d="M72.9908 91.3789C71.7409 84.422 66.1229 91.4848 63.3025 92.4063C55.5578 97.5505 48.2629 102.785 40.9679 108.02C38.5363 109.765 33.856 111.057 34.7781 116.458C35.0448 118.746 36.7828 119.842 38.2539 118.648C48.4303 111.759 58.2179 104.047 68.3332 97.8902C70.2541 96.7873 73.5242 95.9564 72.9908 91.3789Z" fill="white"/>
<path fill-rule="evenodd" clip-rule="evenodd" d="M61.0551 58.237C50.6439 56.9625 39.8504 54.7871 28.9895 53.422C24.942 52.6062 20.4448 51.6999 16.3298 51.6944C14.5309 51.3318 12.2822 50.8786 10.3484 52.1365C8.79682 54.2953 8.90917 58.4371 10.1909 59.5193C11.4726 60.6014 12.9567 59.2529 14.2385 60.3351C29.6641 61.7963 44.4375 65.5976 59.8632 67.0589C63.5284 66.9738 64.2031 58.8714 61.0551 58.237Z" fill="white"/>
<path fill-rule="evenodd" clip-rule="evenodd" d="M64.9798 28.2811C58.2505 21.2412 51.4547 14.9997 44.2091 8.66748C41.5774 7.32491 35.0479 -2.1102 33.8657 6.58145C33.6659 8.97663 34.3655 11.5532 35.7147 11.8253C37.8967 13.0772 40.012 15.1274 42.1274 17.1777C48.9233 23.4192 55.7192 29.6608 62.4485 36.7007C65.0136 38.8417 67.928 31.3112 64.9798 28.2811Z" fill="white"/>
</svg>
