<svg width="88" height="126" viewBox="0 0 88 126" fill="none" xmlns="http://www.w3.org/2000/svg">
<path fill-rule="evenodd" clip-rule="evenodd" d="M14.851 91.3789C16.1009 84.422 21.7189 91.4848 24.5393 92.4064C32.284 97.5505 39.5789 102.785 46.8739 108.02C49.3055 109.765 53.9858 111.057 53.0637 116.458C52.797 118.746 51.059 119.842 49.5879 118.648C39.4115 111.759 29.6239 104.047 19.5086 97.8902C17.5877 96.7873 14.3176 95.9564 14.851 91.3789Z" fill="white"/>
<path fill-rule="evenodd" clip-rule="evenodd" d="M26.7867 58.237C37.1979 56.9625 47.9914 54.7871 58.8523 53.422C62.8998 52.6062 67.397 51.6999 71.512 51.6944C73.3109 51.3318 75.5596 50.8786 77.4934 52.1365C79.045 54.2953 78.9326 58.4371 77.6509 59.5193C76.3692 60.6014 74.8851 59.2529 73.6033 60.3351C58.1777 61.7963 43.4043 65.5976 27.9786 67.0589C24.3134 66.9738 23.6387 58.8714 26.7867 58.237Z" fill="white"/>
<path fill-rule="evenodd" clip-rule="evenodd" d="M22.8625 28.2811C29.5917 21.2412 36.3876 14.9997 43.6332 8.66748C46.2649 7.32491 52.7944 -2.1102 53.9766 6.58145C54.1764 8.97663 53.4768 11.5532 52.1276 11.8253C49.9456 13.0772 47.8302 15.1274 45.7149 17.1777C38.919 23.4192 32.1231 29.6608 25.3938 36.7007C22.8287 38.8417 19.9142 31.3112 22.8625 28.2811Z" fill="white"/>
</svg>
