<svg width="783" height="849" viewBox="0 0 783 849" fill="none" xmlns="http://www.w3.org/2000/svg">
<path d="M954.134 363.02C954.134 604.645 1050.62 849 809 849C848.866 359.979 312.014 726.293 71.0004 437C-56.4657 284 413.001 -103 505 78.9999C597 261 954.134 121.395 954.134 363.02Z" fill="white"/>
<path d="M789 181C716 173.333 556.4 136.2 502 49C434 -60 227.169 45.3754 168 97.5C147 116 27.1204 203 1.99981 342C-13.0002 425 90.7051 520.568 132 539C248.5 591 288.5 596 399.5 612C510.5 628 656.981 605.895 706 635C754 663.5 800.167 655.5 814.5 660.5" stroke="#AA43A2" stroke-dasharray="5 5"/>
</svg>
