<svg width="547" height="580" viewBox="0 0 547 580" fill="none" xmlns="http://www.w3.org/2000/svg">
<path d="M78.7363 29.9775C74.635 18.9997 84.3889 8.93526 88.1767 0.0836253C136.276 25.7399 184.376 51.3962 230.101 80.6435C264.622 51.8675 298.888 18.7916 343.986 8.38012C363.552 3.78077 387.475 14.459 386.12 35.2492C386.55 86.1379 386.981 137.027 389.079 186.955C438.65 222.88 477.761 271.5 520.915 315.568C531.237 329.633 550.155 343.194 545.209 361.606C541.873 363.527 535.2 367.37 532.825 370.961C505.115 369.135 477.208 378.538 449.753 381.011C425.889 385.863 400.809 384.745 376.69 385.296C368.524 436.689 367.993 485.908 356.236 534.923C351.29 553.335 343.97 575.338 321.774 579.229C300.285 580.489 283.741 563.337 274.126 546.642C242.139 487.249 219.454 424.721 195.102 363.154L192.472 362.446C155.205 359.454 116.721 350.492 82.2794 336.979C59.3186 327.971 32.315 323.514 9.15758 325.735C6.97945 318.096 4.80131 310.457 0.955037 303.779C46.8979 263.978 83.7352 216.081 128.717 174.61C111.095 124.73 87.7623 80.3621 78.7363 29.9775ZM139.177 161.916C160.353 140.826 182.49 121.406 204.628 101.985C164.162 74.1554 120.87 56.8467 82.7792 25.4257C98.4777 71.9671 120.142 117.296 139.177 161.916ZM255.24 97.291C289.485 122.034 325.397 145.816 362.978 168.638C363.765 123.718 364.551 78.7987 359.371 35.0921C317.609 43.5821 286.425 70.4366 255.24 97.291ZM150.264 188.88C170.516 239.469 189.099 291.019 211.018 340.647C259.511 343.844 305.629 350.631 352.709 359.088C356.577 307.948 363.074 257.516 364.312 205.666C317.88 179.049 273.823 148.841 231.435 117.672C202.625 140.935 175.483 163.238 150.264 188.88ZM34.6312 304.393C60.6733 307.18 85.3023 315.228 108.263 324.237C133.854 333.955 159.896 336.742 187.606 338.568C170.239 292.988 154.541 246.446 138.136 202.535C102.908 233.942 71.5269 272.026 34.6312 304.393ZM379.458 359.246C422.691 361.025 464.453 352.535 506.215 344.045C469.282 303.063 432.349 262.082 391.374 225.653C386.29 270.824 382.874 315.035 379.458 359.246ZM220.182 364.272C243.063 415.57 262.608 468.79 289.787 519.835C296.518 531.522 301.581 544.169 313.316 552.973C324.542 553.178 324.483 537.648 328.271 528.797C338.36 480.743 340.559 430.563 348.018 381.8C305.491 377.391 263.671 370.351 220.182 364.272Z" fill="white"/>
</svg>
