<svg width="798" height="772" viewBox="0 0 798 772" fill="none" xmlns="http://www.w3.org/2000/svg">
<path d="M293.241 366.192C316.091 366.192 337.036 356.945 352.269 342.149C384.639 310.708 384.639 258.924 352.269 227.483C337.036 212.688 316.091 203.44 293.241 203.44C270.392 203.44 249.446 212.688 234.213 227.483C201.843 258.924 201.843 310.708 234.213 342.149C249.446 356.945 270.392 366.192 293.241 366.192ZM293.241 233.032C306.57 233.032 319.899 238.58 329.42 247.827C338.94 257.074 344.653 270.021 344.653 282.967C344.653 295.913 338.94 308.859 329.42 318.106C319.899 327.354 306.57 332.902 293.241 332.902C279.912 332.902 266.584 327.354 257.063 318.106C247.542 308.859 241.83 295.913 241.83 282.967C241.83 270.021 247.542 257.074 257.063 247.827C266.584 238.58 279.912 233.032 293.241 233.032Z" fill="white"/>
<path d="M378.921 771.222C380.825 771.222 384.633 771.222 386.537 769.372H388.442L390.346 767.523C394.154 763.824 396.058 758.276 394.154 754.577L371.305 625.115L477.936 521.546C519.827 549.287 571.238 577.029 571.238 577.029C573.142 578.879 575.046 578.879 578.854 578.879C582.662 578.879 586.471 577.029 590.279 575.18C595.991 569.631 595.991 564.083 594.087 556.685C594.087 556.685 565.525 506.75 536.963 466.062L643.594 362.493L778.787 384.686H780.692C784.5 384.686 788.308 382.837 792.117 380.987L794.02 379.138L795.924 377.288C799.733 371.74 797.828 364.342 794.02 358.794C681.677 249.676 571.238 238.579 542.676 238.579C464.607 175.698 384.633 123.913 304.66 85.0749C302.756 85.0749 302.756 83.2253 300.852 83.2253C133.289 1.84945 20.9452 0 15.2328 0C5.71216 0 0 7.39786 0 14.7957C0 18.4946 1.90412 127.612 85.6857 292.213C85.6857 294.063 87.5899 294.063 87.5899 295.912C127.577 373.589 180.892 451.266 245.632 527.094C247.536 554.836 258.961 662.104 369.4 771.222C371.304 769.372 375.113 771.222 378.921 771.222ZM354.168 706.491C310.373 652.857 291.331 601.072 281.81 565.932C300.852 586.276 319.893 606.62 338.934 625.115L354.168 706.491ZM354.168 597.373L272.29 510.449C207.55 434.621 152.33 356.944 112.343 279.267C114.247 234.881 133.288 192.343 165.659 160.903C198.029 129.462 241.824 110.967 287.523 109.118C367.496 147.956 447.47 201.59 525.539 264.472L615.032 343.998L517.922 438.32L514.114 434.621C510.306 430.922 508.402 429.073 504.593 425.374C466.511 388.385 403.675 369.89 399.866 369.89H397.962H394.154C388.441 369.89 384.633 371.74 380.825 375.439C377.017 379.138 377.017 384.686 378.921 388.385C378.921 390.234 399.866 453.116 436.045 490.105C437.949 491.954 441.757 495.653 445.565 497.503L449.374 501.202L354.168 597.373ZM422.716 410.579C441.757 417.976 466.511 430.923 481.744 447.568C487.456 453.116 495.073 460.514 502.689 471.61C514.114 486.406 525.538 504.901 536.963 521.546C519.826 512.298 500.785 499.352 485.552 488.255C474.127 480.858 466.511 473.46 460.798 467.911C443.661 453.116 432.236 429.073 422.716 410.579ZM584.566 273.719C620.745 282.966 674.06 301.461 729.28 343.998L647.403 329.203C624.553 310.708 603.608 292.213 584.566 273.719ZM236.112 86.9245C201.837 96.1717 169.467 114.666 142.809 140.558C116.152 166.451 99.0147 196.042 87.5899 231.182C43.795 133.161 32.3701 61.0321 28.5619 31.4409C62.8362 31.4409 135.193 42.5376 236.112 86.9245Z" fill="white"/>
</svg>
