<svg width="154" height="222" viewBox="0 0 154 222" fill="none" xmlns="http://www.w3.org/2000/svg">
<path d="M126.342 132.824C125.571 132.491 124.965 131.773 124.159 131.602C123.612 131.402 123.026 131.783 122.986 132.364C123.045 132.882 123.558 133.244 123.91 133.571C124.198 133.801 124.457 133.771 124.75 133.581C125.136 133.747 125.522 133.913 125.942 133.918C126.587 134.055 127.051 133.058 126.342 132.824Z" fill="#FEC830"/>
<path d="M118.038 132.663C117.169 132.394 116.201 132.189 115.298 132.082C114.394 131.974 113.231 131.896 112.548 132.341C112.157 132.595 112.279 133.21 112.699 133.215C113.505 133.386 114.35 132.976 115.19 132.985C116.128 132.932 116.934 133.103 117.901 133.308C118.322 133.313 118.361 132.731 118.038 132.663Z" fill="#FEC830"/>
<path d="M107.72 136.034C108.375 135.331 109.191 134.662 110.07 134.09C110.363 133.899 110.045 133.411 109.752 133.601C108.58 134.364 105.854 135.302 105.835 136.982C105.766 137.304 106.25 137.407 106.445 137.28C106.934 136.962 107.295 136.449 107.72 136.034Z" fill="#FEC830"/>
<path d="M97.0476 4.87688C96.2917 4.28371 95.3818 3.74937 94.4244 3.32141C94.1053 3.17876 94.343 2.64686 94.6622 2.78951C95.9387 3.36012 98.7772 3.86307 99.0576 5.52004C99.1752 5.8279 98.7134 6.00439 98.5007 5.90929C97.9688 5.67153 97.532 5.22101 97.0476 4.87688Z" fill="#FEC830"/>
<path d="M107.564 143.918C106.353 142.482 105.171 141.305 105 139.331C104.97 139.072 104.711 139.102 104.741 139.361C104.619 141.525 105.21 143.503 107.169 144.592C107.618 144.856 107.853 144.148 107.564 143.918Z" fill="#FEC830"/>
<path d="M104.122 14.4945C103.944 12.624 103.931 10.9557 102.641 9.45249C102.476 9.25037 102.678 9.08595 102.843 9.28807C104.474 10.7153 105.474 12.522 104.881 14.6836C104.755 15.1892 104.085 14.861 104.122 14.4945Z" fill="#FEC830"/>
<path d="M117.218 147.65C116.417 147.059 115.45 146.854 114.517 146.487C113.423 146.087 112.392 145.784 111.263 145.545C110.941 145.476 110.741 146.024 111.127 146.19C112.094 146.395 112.929 146.825 113.862 147.191C114.795 147.557 115.758 148.182 116.725 148.388C117.209 148.49 117.668 147.914 117.218 147.65Z" fill="#FEC830"/>
<path d="M100.033 24.0014C100.171 23.0155 100.701 22.181 101.093 21.2582C101.572 20.1962 102.077 19.248 102.696 18.2744C102.873 17.9963 103.404 18.2361 103.252 18.628C102.722 19.4625 102.444 20.36 102.053 21.2829C101.662 22.2057 101.435 23.3307 100.905 24.1652C100.64 24.5824 99.9066 24.5071 100.033 24.0014Z" fill="#FEC830"/>
<path d="M128.506 149.622C126.679 148.308 123.939 147.727 121.745 147.346C121.325 147.341 121.222 147.825 121.608 147.991C122.8 148.328 124.056 148.763 125.214 149.261C126.147 149.627 127.045 150.155 128.013 150.36C128.594 150.399 128.794 149.852 128.506 149.622Z" fill="#FEC830"/>
<path d="M93.5447 33.4459C93.8846 31.2213 95.3872 28.8569 96.6499 27.0235C96.9404 26.72 97.3577 26.9852 97.2062 27.3771C96.6129 28.4644 96.0449 29.6654 95.5906 30.8411C95.1993 31.764 94.9472 32.7752 94.4169 33.6097C94.038 34.0523 93.507 33.8125 93.5447 33.4459Z" fill="#FEC830"/>
<path d="M121.775 100.039C123.274 101.718 125.823 102.88 127.881 103.728C128.29 103.824 128.495 103.374 128.155 103.128C127.064 102.541 125.933 101.844 124.911 101.106C124.08 100.546 123.317 99.8364 122.417 99.4263C121.858 99.2621 121.544 99.7527 121.775 100.039Z" fill="#FEC830"/>
<path d="M137.774 155.968C136.729 154.146 134.902 152.832 133.3 151.65C133.011 151.421 132.684 151.772 132.875 152.065C134.443 153.409 135.718 154.943 136.895 156.54C137.31 156.965 138.092 156.457 137.774 155.968Z" fill="#FEC830"/>
<path d="M91.5917 44.5069C91.0217 42.485 91.3616 40.2604 91.6384 38.2886C91.6761 37.922 92.1564 37.9344 92.2325 38.2756C92.0947 40.3358 92.2981 42.3199 92.6153 44.2788C92.6283 44.8728 91.7184 45.0756 91.5917 44.5069Z" fill="#FEC830"/>
<path d="M114.105 91.8356C114.73 93.8411 116.229 95.5201 117.536 97.0217C117.768 97.3083 118.164 97.036 118.041 96.7085C116.802 95.057 115.89 93.2831 115.087 91.4684C114.774 90.9635 113.901 91.2899 114.105 91.8356Z" fill="#FEC830"/>
<path d="M140.734 114.676C139.689 112.854 137.862 111.54 136.259 110.358C135.971 110.129 135.644 110.48 135.835 110.773C137.403 112.117 138.678 113.651 139.855 115.248C140.27 115.673 141.052 115.165 140.734 114.676Z" fill="#FEC830"/>
<path d="M138.806 164.61C139.075 163.74 139.216 162.675 139.324 161.771C139.397 161.029 138.43 160.824 138.195 161.532C138.024 162.338 137.756 163.208 137.487 164.077C137.219 164.947 136.657 166.007 136.613 167.008C136.608 167.428 137.155 167.629 137.482 167.277C138.264 166.769 138.601 165.577 138.806 164.61Z" fill="#FEC830"/>
<path d="M97.0428 51.2911C96.2337 50.8746 95.3739 50.2305 94.6531 49.6748C94.0715 49.2075 94.6018 48.3731 95.2718 48.7013C95.9673 49.1434 96.7764 49.5598 97.5855 49.9764C98.3947 50.3931 99.545 50.7335 100.291 51.4029C100.595 51.6934 100.355 52.2244 99.8745 52.212C98.9646 52.4148 97.8773 51.8215 97.0428 51.2911Z" fill="#FEC830"/>
<path d="M114.973 83.1762C114.522 83.9667 114.153 84.9756 113.852 85.8344C113.619 86.5434 114.519 86.9535 114.901 86.3129C115.243 85.563 115.694 84.7726 116.145 83.9821C116.596 83.1913 117.374 82.2786 117.634 81.3105C117.73 80.9015 117.239 80.5873 116.844 80.8597C115.97 81.1861 115.383 82.2765 114.973 83.1762Z" fill="#FEC830"/>
<path d="M141.766 123.317C142.035 122.448 142.176 121.383 142.284 120.479C142.357 119.737 141.39 119.531 141.155 120.24C140.984 121.046 140.716 121.915 140.447 122.785C140.179 123.654 139.617 124.714 139.573 125.716C139.568 126.136 140.115 126.336 140.442 125.984C141.224 125.476 141.561 124.284 141.766 123.317Z" fill="#FEC830"/>
<path d="M134.736 169.895C135.127 169.641 134.682 168.957 134.291 169.211C133.251 169.749 132.245 170.125 131.141 170.564C130.134 170.94 128.937 171.024 127.961 171.659C127.472 171.976 127.721 172.787 128.337 172.665C130.569 172.465 133.041 171.136 134.736 169.895Z" fill="#FEC830"/>
<path d="M137.697 128.603C138.088 128.349 137.643 127.665 137.252 127.919C136.212 128.457 135.206 128.833 134.101 129.272C133.095 129.648 131.898 129.732 130.921 130.367C130.433 130.684 130.682 131.495 131.298 131.373C133.53 131.173 136.002 129.844 137.697 128.603Z" fill="#FEC830"/>
<path d="M122.138 172.109C121.137 172.065 120.135 172.021 119.134 171.977C118.196 172.031 117.068 171.791 116.222 172.202C115.832 172.456 115.988 172.91 116.276 173.14C117.014 173.633 118.084 173.354 118.86 173.266C119.96 173.247 121.093 173.066 122.192 173.046C122.808 172.924 122.72 172.148 122.138 172.109Z" fill="#FEC830"/>
<path d="M111.83 171.86C110.477 171.489 109.251 171.313 107.991 171.298C106.73 171.284 104.952 171.328 104.005 172.222C103.58 172.637 103.799 173.189 104.381 173.228C105.382 173.272 106.423 172.734 107.395 172.52C108.821 172.148 110.34 172.133 111.825 172.28C112.05 172.412 112.153 171.928 111.83 171.86Z" fill="#FEC830"/>
<path d="M98.6366 172.515C97.2834 172.144 95.9596 172.032 94.5039 172.144C93.0482 172.256 91.2357 172.462 90.1904 173.419C89.8631 173.771 90.2442 174.357 90.6008 174.264C91.8612 174.279 93.0336 173.517 94.2646 173.272C95.5931 172.965 97.1125 172.95 98.5975 173.096C98.9199 173.165 99.1202 172.618 98.6366 172.515Z" fill="#FEC830"/>
<path d="M119.964 73.8491C120.94 72.8408 121.675 71.7338 122.275 70.4031C122.876 69.0725 123.567 67.3843 123.23 66.0075C123.079 65.5515 122.381 65.604 122.291 65.9613C121.673 67.0598 121.778 68.4541 121.401 69.6511C121.032 70.964 120.315 72.3036 119.473 73.5356C119.258 73.7855 119.642 74.224 119.964 73.8491Z" fill="#FEC830"/>
<path d="M83.626 182.134C83.5721 181.196 83.4841 180.42 83.7528 179.55C84.2168 178.553 85.2621 177.596 86.1414 177.024C86.4346 176.834 86.1171 176.345 85.8238 176.536C83.8406 177.547 80.8708 180.034 82.6196 182.51C82.9713 182.838 83.6845 182.652 83.626 182.134Z" fill="#FEC830"/>
<path d="M118.741 56.0633C119.59 56.4667 120.313 56.7627 120.947 57.4161C121.598 58.3019 121.935 59.6788 122.014 60.7245C122.04 61.0733 122.621 61.0296 122.595 60.6808C122.661 58.4556 121.907 54.6563 118.895 54.9999C118.439 55.1511 118.259 55.8658 118.741 56.0633Z" fill="#FEC830"/>
<path d="M86.9387 194.713C86.3379 193.575 85.4439 192.627 84.7454 191.552C83.9537 190.121 83.5191 188.597 83.6021 187.014C83.5726 186.755 83.216 186.848 83.1819 187.009C82.9525 190.077 83.4266 193.799 86.1525 195.641C86.763 195.939 87.2562 195.201 86.9387 194.713Z" fill="#FEC830"/>
<path d="M106.119 52.9237C107.406 52.9437 108.667 52.6152 109.945 52.5189C111.58 52.5124 113.126 52.8636 114.474 53.6968C114.715 53.7953 114.805 53.438 114.68 53.3307C112.1 51.6554 108.608 50.2825 105.683 51.7882C105.128 52.1806 105.538 52.9675 106.119 52.9237Z" fill="#FEC830"/>
<path d="M98.9797 198.698C98.1443 198.268 97.1771 198.063 96.1805 197.599C95.3452 197.169 94.6416 196.515 94.036 195.797C93.6206 195.372 92.9368 195.816 93.2544 196.305C94.2999 198.127 96.3467 199.993 98.6427 199.89C99.3853 199.964 99.4928 199.06 98.9797 198.698Z" fill="#FEC830"/>
<path d="M107.446 198.893C105.35 198.449 103.093 197.97 100.959 198.107C100.279 198.132 100.431 199.006 101.012 199.045C103.079 199.23 105.199 200.354 107.368 200.056C107.919 199.836 108.09 199.03 107.446 198.893Z" fill="#FEC830"/>
<path d="M112.111 206.284C112.507 205.61 112.389 204.575 112.301 203.798C112.15 202.924 111.739 202.079 111.231 201.297C110.914 200.809 110.23 201.253 110.548 201.741C110.992 202.425 111.178 203.139 111.266 203.915C111.29 204.595 111.056 205.303 111.08 205.982C111.041 206.563 111.847 206.734 112.111 206.284Z" fill="#FEC830"/>
<path d="M112.111 214.623C113.469 211.794 115.437 209.264 117.02 206.567C117.714 205.282 115.72 204.354 114.963 205.541C113.581 207.691 112.037 209.806 110.943 212.185C110.274 211.369 109.605 210.554 108.872 209.64C108.52 209.313 108.076 208.629 107.494 208.59L107.333 208.556C107.333 208.556 107.27 208.458 107.172 208.522C106.85 208.453 106.586 208.903 106.713 209.098C106.679 209.259 106.742 209.357 106.869 209.553C107.089 210.105 107.504 210.53 107.885 211.116C108.809 212.322 109.669 213.431 110.396 214.765C110.68 215.414 111.715 215.297 112.111 214.623Z" fill="#FEC830"/>
</svg>
