<svg width="77" height="76" viewBox="0 0 77 76" fill="none" xmlns="http://www.w3.org/2000/svg">
<path d="M67.5896 6.7747C68.2381 7.30902 69.1537 7.5191 69.6745 8.15758C70.1029 8.55244 70.0323 9.24801 69.5333 9.54872C69.0461 9.7335 68.49 9.4428 68.038 9.2798C67.702 9.12857 67.6096 8.88494 67.6449 8.53716C67.3207 8.27 66.9964 8.00284 66.7999 7.63152C66.3832 7.12073 67.057 6.25215 67.5896 6.7747Z" fill="#FEC830"/>
<path d="M71.5325 14.0849C72.1693 14.7352 72.7942 15.5013 73.3032 16.2558C73.8123 17.0102 74.4137 18.0082 74.3313 18.8197C74.2842 19.2834 73.6811 19.4564 73.4845 19.0851C72.9637 18.4466 72.9419 17.5074 72.5488 16.7648C72.1675 15.9062 71.6467 15.2677 71.0217 14.5015C70.8252 14.1302 71.3242 13.8295 71.5325 14.0849Z" fill="#FEC830"/>
<path d="M73.2552 24.8009C73.5812 23.897 73.803 22.8654 73.909 21.822C73.9443 21.4743 74.5239 21.5331 74.4886 21.8809C74.3474 23.272 74.7605 26.1249 73.2752 26.9111C73.0198 27.1194 72.7073 26.7363 72.7309 26.5045C72.7897 25.9248 73.0804 25.3687 73.2552 24.8009Z" fill="#FEC830"/>
<path d="M66.3164 28.5474C68.1477 28.9675 69.7354 29.4801 71.5684 28.7292C71.8121 28.6368 71.9045 28.8804 71.6608 28.9728C69.7925 30.0715 67.7628 30.4511 65.898 29.2076C65.4578 28.9287 65.9804 28.3961 66.3164 28.5474Z" fill="#FEC830"/>
<path d="M58.5813 21.6714C59.4734 22.1133 60.0984 22.8795 60.851 23.5415C61.7079 24.3312 62.4487 25.1092 63.1779 26.003C63.3862 26.2584 62.9913 26.6868 62.6671 26.4197C62.0421 25.6535 61.2777 25.1074 60.525 24.4454C59.7724 23.7834 58.7761 23.2137 58.1511 22.4476C57.8387 22.0645 58.1411 21.3924 58.5813 21.6714Z" fill="#FEC830"/>
<path d="M51.6618 12.5363C53.6661 13.5597 55.4368 15.7305 56.7791 17.5065C56.9757 17.8778 56.5926 18.1903 56.2683 17.9231C55.4233 17.0175 54.4623 16.1001 53.4896 15.2986C52.7369 14.6366 51.8566 14.0787 51.2316 13.3125C50.9309 12.8135 51.3258 12.3851 51.6618 12.5363Z" fill="#FEC830"/>
<path d="M41.7792 7.19964C43.8777 7.29554 45.882 8.31887 47.6662 9.20273C48.0022 9.35397 47.8392 9.80591 47.4914 9.77061C45.5795 8.9909 43.6323 8.55898 41.6733 8.24299C41.1054 8.06822 41.1995 7.1408 41.7792 7.19964Z" fill="#FEC830"/>
<path d="M33.624 10.237C34.2743 9.60028 35.1564 8.98709 35.9108 8.47806C36.5375 8.07319 37.1625 8.83937 36.6399 9.37193C36.0012 9.89271 35.3512 10.5295 34.7009 11.1662C34.0505 11.8029 33.3651 12.7874 32.4948 13.2847C32.1234 13.4812 31.695 13.0864 31.858 12.6344C31.9522 11.707 32.8578 10.862 33.624 10.237Z" fill="#FEC830"/>
<path d="M30.7855 16.2731C30.8326 15.8094 31.6439 15.8918 31.5968 16.3555C31.5951 17.5265 31.721 18.5934 31.8354 19.7762C31.9613 20.8431 32.435 21.9453 32.3173 23.1046C32.2585 23.6843 31.4235 23.8337 31.2503 23.2305C30.407 21.1538 30.4577 18.348 30.7855 16.2731Z" fill="#FEC830"/>
<path d="M34.5818 28.4879C35.0793 29.3583 35.5763 30.2286 36.0738 31.099C36.4549 31.9575 37.1841 32.8514 37.206 33.7906C37.159 34.2543 36.6835 34.3232 36.3475 34.1719C35.5713 33.7418 35.3294 32.6631 35.0522 31.9322C34.5667 30.946 34.2089 29.8556 33.7234 28.8693C33.5502 28.2661 34.2811 27.9889 34.5818 28.4879Z" fill="#FEC830"/>
<path d="M39.5191 37.5394C40.4683 38.5728 41.1857 39.5826 41.7753 40.6965C42.365 41.8105 43.1394 43.4117 42.7781 44.6634C42.6033 45.2313 42.0119 45.2883 41.7112 44.7893C41.2139 43.919 41.2157 42.7479 40.9621 41.7852C40.6396 40.347 39.9575 38.9894 39.1478 37.736C38.9277 37.5965 39.3108 37.284 39.5191 37.5394Z" fill="#FEC830"/>
<path d="M44.9738 49.571C45.923 50.6043 46.6286 51.73 47.1947 53.0759C47.7608 54.4217 48.4076 56.1272 48.0345 57.4948C47.8715 57.9468 47.1759 57.8762 47.0953 57.5166C46.5056 56.4025 46.6469 55.0113 46.3008 53.805C45.9666 52.4829 45.2845 51.1251 44.4748 49.8717C44.2665 49.6163 44.6613 49.1879 44.9738 49.571Z" fill="#FEC830"/>
<path d="M43.2894 67.3194C44.1479 66.9382 44.8788 66.661 45.529 66.0243C46.2028 65.1557 46.5759 63.7881 46.6818 62.7448C46.7172 62.3968 47.2968 62.4556 47.2615 62.8036C47.2697 65.0298 46.4177 68.8082 43.4153 68.3864C42.9633 68.2234 42.8021 67.5043 43.2894 67.3194Z" fill="#FEC830"/>
<path d="M30.5889 70.13C31.8757 70.1435 33.1276 70.5046 34.4026 70.6341C36.0375 70.6831 37.5917 70.3722 38.961 69.5742C39.2046 69.482 39.2853 69.8416 39.1576 69.9455C36.5348 71.5533 33.0079 72.835 30.1232 71.2538C29.5791 70.8472 30.0092 70.0711 30.5889 70.13Z" fill="#FEC830"/>
<path d="M21.5356 61.2463C22.3001 61.7924 22.925 62.5586 23.7936 63.2324C24.558 63.7785 25.4621 64.1045 26.3776 64.3146C26.9456 64.4893 26.8632 65.3008 26.2834 65.242C24.1849 65.1461 21.5892 64.1798 20.63 62.0914C20.2249 61.4646 20.9795 60.9554 21.5356 61.2463Z" fill="#FEC830"/>
<path d="M17.4883 53.8079C18.8424 55.468 20.3005 57.2557 21.1557 59.2165C21.4446 59.8316 20.5978 60.0968 20.2971 59.5978C19.1867 57.8454 17.2177 56.4742 16.4901 54.4093C16.4332 53.8181 17.0717 53.2973 17.4883 53.8079Z" fill="#FEC830"/>
<path d="M8.78182 53.0416C9.20022 52.3814 10.1747 52.0118 10.9056 51.7347C11.7524 51.4692 12.6916 51.4477 13.619 51.5418C14.1986 51.6006 14.1163 52.412 13.5366 52.3531C12.7251 52.2707 12.006 52.4322 11.2751 52.7093C10.66 52.9983 10.1374 53.5308 9.52271 53.8196C9.02371 54.1201 8.50308 53.4818 8.78182 53.0416Z" fill="#FEC830"/>
<path d="M1.36723 56.8564C3.26089 54.3548 4.61023 51.4466 6.2838 48.8056C7.10882 47.601 8.84599 48.9485 8.13689 50.1649C6.85819 52.3774 5.68361 54.7179 4.06888 56.7793C5.10046 57.0011 6.13204 57.223 7.27955 57.4566C7.7315 57.6196 8.543 57.702 8.84369 58.2012L8.94768 58.3287C8.94768 58.3287 9.0636 58.3404 9.05184 58.4564C9.26015 58.7118 8.98122 59.1519 8.74937 59.1284C8.62167 59.2326 8.50556 59.2208 8.27389 59.1973C7.68231 59.2541 7.1146 59.0796 6.41904 59.009C4.92374 58.74 3.5444 58.4827 2.02555 58.4458C1.3184 58.4912 0.948831 57.5167 1.36723 56.8564Z" fill="#FEC830"/>
</svg>
