<svg width="84" height="21" viewBox="0 0 84 21" fill="none" xmlns="http://www.w3.org/2000/svg">
<path d="M29.3001 17.0517H22.9953L21.8942 20.617H16.9789L23.9784 1.53223H28.3039L35.3559 20.617H30.4142L29.3001 17.0517ZM24.0963 13.4996H28.199L26.1411 6.88017L24.0963 13.4996Z" fill="#504C5C"/>
<path d="M43.5088 13.067H41.333V20.617H36.7322V1.53223H41.333V8.91186H43.1025L46.7727 1.53223H52.3434L47.1004 10.3406L52.9988 20.617H47.5591L43.5088 13.067Z" fill="#504C5C"/>
<path d="M66.2522 5.08441H60.5241V20.617H55.9233V5.08441H50.3001V1.53223H66.2522V5.08441Z" fill="#504C5C"/>
<path d="M79.3992 1.53223H84V20.617H79.3992V8.58417L72.5439 20.617H67.9431V1.53223H72.5439V13.5782L79.3992 1.53223Z" fill="#504C5C"/>
<path fill-rule="evenodd" clip-rule="evenodd" d="M18.5474 4.64013C17.0793 3.15459 15.1044 2.41182 12.6227 2.41182V0H8.19232V2.41182C5.71059 2.41182 3.72696 3.15459 2.24142 4.64013C1.5336 5.33921 0.983078 6.18247 0.589847 7.16991C0.196616 8.15736 0 9.25841 0 10.4731C0 12.7713 0.738401 14.6413 2.2152 16.0832C3.692 17.525 5.68437 18.2459 8.19232 18.2459V20.6577H12.6227V18.2459C13.9125 18.2459 15.0667 18.0498 16.0855 17.6577L20.1367 7.01754C19.769 6.1244 19.2392 5.33193 18.5474 4.64013ZM5.30862 7.26167C5.97274 6.49268 6.87718 6.10819 8.02192 6.10819H8.19232V14.5496C6.94271 14.5496 5.98585 14.1869 5.32173 13.4616C4.6576 12.7276 4.32554 11.7314 4.32554 10.4731C4.32554 9.10112 4.65324 8.03065 5.30862 7.26167ZM12.6227 14.5496V6.10819C13.8811 6.10819 14.8292 6.49705 15.4671 7.27478C16.1137 8.04376 16.4371 9.10112 16.4371 10.4468C16.4371 11.7401 16.105 12.7494 15.4409 13.4747C14.7855 14.1913 13.9116 14.5496 12.8193 14.5496H12.6227Z" fill="#504C5C"/>
</svg>
