<svg width="84" height="34" viewBox="0 0 84 34" fill="none" xmlns="http://www.w3.org/2000/svg">
<path fill-rule="evenodd" clip-rule="evenodd" d="M84 0H0V34H84V0ZM8.87543 22.0436H18.7287V24.628H5V22.5298L14.5366 8.60997H5.06332V6H18.4247V8.04703L8.87543 22.0436ZM36.1175 24.628H32.9133L24.6938 11.4118V24.628H21.4896V6H24.6938L32.9386 19.2673V6H36.1175V24.628ZM42.3281 21.9928C42.0316 21.6734 41.6562 21.5137 41.2016 21.5137C40.7471 21.5137 40.3716 21.6734 40.0752 21.9928C39.7788 22.2923 39.6306 22.6716 39.6306 23.1307C39.6306 23.51 39.7294 23.8394 39.927 24.1189C40.1246 24.3785 40.3815 24.5581 40.6977 24.6579L39.6898 29H41.1127L42.3577 24.8676C42.496 24.5082 42.5948 24.1888 42.6541 23.9093C42.7332 23.6298 42.7727 23.3703 42.7727 23.1307C42.7727 22.6716 42.6245 22.2923 42.3281 21.9928ZM59.674 6V18.4485C59.674 20.4273 59.045 21.9967 57.787 23.1567C56.5374 24.3082 54.8698 24.8839 52.7844 24.8839C50.6735 24.8839 48.9976 24.3167 47.7564 23.1823C46.5153 22.0394 45.8947 20.4572 45.8947 18.4357V6H49.0862V18.4613C49.0862 19.7066 49.3986 20.6576 50.0234 21.3144C50.6482 21.9711 51.5685 22.2995 52.7844 22.2995C55.2498 22.2995 56.4825 20.986 56.4825 18.359V6H59.674ZM64.512 24.628L66.0064 20.2909H73.1494L74.6565 24.628H78L71.0217 6H68.1468L61.1811 24.628H64.512ZM69.5779 9.95333L72.2502 17.6809H66.9056L69.5779 9.95333Z" fill="#504C5C"/>
</svg>
