<svg width="40" height="40" viewBox="0 0 40 40" fill="none" xmlns="http://www.w3.org/2000/svg">
<path fill-rule="evenodd" clip-rule="evenodd" d="M20 40C31.0457 40 40 31.0457 40 20C40 8.9543 31.0457 0 20 0C8.9543 0 0 8.9543 0 20C0 31.0457 8.9543 40 20 40ZM16.935 28.8348H17.2174H22.8452H27.0845C29.4887 28.8348 31.3252 28.4174 32.5941 27.5826C33.863 26.7311 34.4974 25.5374 34.4974 24.0014C34.4974 22.9663 34.2136 22.0814 33.6459 21.3468C33.0783 20.6122 32.2769 20.0529 31.2417 19.6689C32.0431 19.2682 32.6442 18.7423 33.0449 18.0911C33.4623 17.44 33.671 16.7054 33.671 15.8873C33.671 14.5016 33.0699 13.3913 31.8678 12.5565C30.6824 11.7217 28.921 11.3043 26.5837 11.3043H22.8452H17.2174H16.935V17.5151H11.4755V11.3043H5.56522V28.8348H11.4755V22.3736H16.935V28.8348ZM23.0275 18.041V15.4365H25.7823C27.0678 15.4365 27.7106 15.8706 27.7106 16.7388C27.7106 17.607 27.0678 18.041 25.7823 18.041H23.0275ZM28.537 23.3252C28.537 24.2435 27.8859 24.7026 26.5837 24.7026H23.0275V21.9478H26.5837C27.8859 21.9478 28.537 22.407 28.537 23.3252Z" fill="#504C5C"/>
</svg>
