<svg width="40" height="40" viewBox="0 0 40 40" fill="none" xmlns="http://www.w3.org/2000/svg">
<path fill-rule="evenodd" clip-rule="evenodd" d="M11 0C4.92487 0 0 4.92487 0 11V29C0 35.0751 4.92487 40 11 40H29C35.0751 40 40 35.0751 40 29V11C40 4.92487 35.0751 0 29 0H11ZM20.7539 15C21.3062 15 21.7539 14.5523 21.7539 14C21.7539 13.4477 21.3062 13 20.7539 13C20.2016 13 19.7539 13.4477 19.7539 14C19.7539 14.5523 20.2016 15 20.7539 15ZM15.2783 26.4473H16.9189L17.0078 22.6191H15.7432V14.0469H9.46777L9.20801 18.4629C9.13965 19.388 8.98698 20.2174 8.75 20.9512C8.51302 21.6803 8.19629 22.2363 7.7998 22.6191H7L7.05469 26.4473H8.72266V24H15.2783V26.4473ZM14.0205 22.6191H9.75488C10.4294 21.5755 10.8281 20.1172 10.9512 18.2441L11.1152 15.4414H14.0205V22.6191ZM32.302 24V16.6035H29.0686C28.1663 16.6126 27.4485 16.8382 26.9153 17.2803C26.3866 17.7178 26.1223 18.2806 26.1223 18.9688C26.1223 19.429 26.2431 19.8369 26.4846 20.1924C26.7307 20.5479 27.0816 20.8213 27.5373 21.0127L25.7942 24H27.5168L29.0959 21.2861H30.6477V24H32.302ZM28.1252 19.7686C27.8974 19.5726 27.7834 19.3197 27.7834 19.0098C27.7834 18.6953 27.9042 18.4355 28.1457 18.2305C28.3873 18.0254 28.7108 17.9229 29.1164 17.9229H30.6477V20.0557H29.0139C28.6539 20.0557 28.3577 19.96 28.1252 19.7686ZM20.7384 17.75H18.7539V16.25H21.7539C21.9919 16.25 22.2158 16.363 22.3572 16.5544C22.4986 16.7459 22.5407 16.9931 22.4707 17.2206L20.523 23.5506C20.5968 23.5203 20.7007 23.4674 20.8379 23.376C21.9933 22.6057 22.9221 21.7712 23.2236 21.4697L24.2842 22.5303C23.9191 22.8955 22.9145 23.7943 21.6699 24.624C20.9999 25.0707 20.2388 25.2962 19.6148 24.8455C19.3409 24.6477 19.1919 24.3769 19.1123 24.1512C19.0319 23.9235 19.0039 23.6929 19.0039 23.5C19.0039 23.4252 19.0151 23.3509 19.0371 23.2794L20.7384 17.75Z" fill="#504C5C"/>
</svg>
