<svg width="39" height="40" viewBox="0 0 39 40" fill="none" xmlns="http://www.w3.org/2000/svg">
<path fill-rule="evenodd" clip-rule="evenodd" d="M5.78949 0C3.75476 0 2.10529 1.64947 2.10529 3.6842V28.444C3.16876 27.7631 4.43304 27.3684 5.78951 27.3684C7.14596 27.3684 8.41022 27.7631 9.47369 28.4439V3.6842C9.47369 1.64947 7.82422 0 5.78949 0Z" fill="#504C5C"/>
<path fill-rule="evenodd" clip-rule="evenodd" d="M33.1578 40.0002C35.1925 40.0002 36.842 38.3508 36.842 36.316L36.842 11.5562C35.7785 12.2371 34.5143 12.6318 33.1578 12.6318C31.8014 12.6318 30.5371 12.2371 29.4736 11.5562L29.4736 36.316C29.4736 38.3508 31.1231 40.0002 33.1578 40.0002Z" fill="#504C5C"/>
<path fill-rule="evenodd" clip-rule="evenodd" d="M19.4736 0C17.4389 0 15.7894 1.64948 15.7894 3.68421V14.0217C16.8529 13.3749 18.1172 12.9999 19.4736 12.9999C20.8301 12.9999 22.0944 13.3749 23.1578 14.0217V3.6842C23.1578 1.64947 21.5084 0 19.4736 0ZM23.1578 24.9781C22.0944 25.6249 20.8301 25.9999 19.4736 25.9999C18.1172 25.9999 16.8529 25.6249 15.7894 24.9781V36.3157C15.7894 38.3504 17.4389 39.9999 19.4736 39.9999C21.5084 39.9999 23.1578 38.3504 23.1578 36.3157V24.9781Z" fill="#504C5C"/>
<path fill-rule="evenodd" clip-rule="evenodd" d="M5.78946 39.9998C8.98689 39.9998 11.5789 37.4078 11.5789 34.2104C11.5789 31.0129 8.98689 28.4209 5.78946 28.4209C2.59203 28.4209 0 31.0129 0 34.2104C0 37.4078 2.59203 39.9998 5.78946 39.9998ZM4.26618 34.3968C4.17407 34.4835 4.04418 34.5268 3.8765 34.5268C3.67576 34.5268 3.52933 34.455 3.43723 34.3113C3.34512 34.1677 3.29907 33.9101 3.29907 33.5384C3.29907 33.3264 3.30734 33.16 3.32387 33.0391C3.37583 32.6584 3.55649 32.468 3.86587 32.468C4.02883 32.468 4.15872 32.5193 4.25555 32.6219C4.35238 32.7245 4.40079 32.8716 4.40079 33.0631H5.52022C5.52022 32.6071 5.3738 32.2457 5.08095 31.979C4.7881 31.7122 4.39252 31.5789 3.89421 31.5789C3.52579 31.5789 3.20697 31.6564 2.93774 31.8114C2.66851 31.9642 2.46186 32.1842 2.3178 32.4715C2.1761 32.7564 2.10525 33.0859 2.10525 33.4598V33.5077C2.10525 34.105 2.26584 34.5724 2.58703 34.9098C2.90822 35.2472 3.34749 35.4159 3.90484 35.4159C4.37954 35.4159 4.76685 35.286 5.06678 35.0261C5.36907 34.7662 5.52022 34.4333 5.52022 34.0275H4.40079C4.40315 34.1848 4.35828 34.3079 4.26618 34.3968ZM8.19481 31.6473L7.55716 33.7334L6.95139 31.6473H5.67609L7.00807 35.3817L6.91242 35.628C6.86991 35.7488 6.80379 35.832 6.71404 35.8776C6.62666 35.9255 6.49913 35.9494 6.33145 35.9494H6.17558V36.7736C6.34799 36.8192 6.51212 36.842 6.66799 36.842C7.23007 36.842 7.62211 36.6026 7.8441 36.1238L7.91141 35.9665L9.47365 31.6473H8.19481Z" fill="#504C5C"/>
<path fill-rule="evenodd" clip-rule="evenodd" d="M19.4736 13.6841C16.2762 13.6841 13.6842 16.2761 13.6842 19.4735C13.6842 22.671 16.2762 25.263 19.4736 25.263C22.6711 25.263 25.2631 22.671 25.2631 19.4735C25.2631 16.2761 22.6711 13.6841 19.4736 13.6841ZM21.8532 20.7232C21.8862 20.8433 21.9239 20.9343 21.9663 20.9962H23.1578V20.9483C23.0541 20.8001 22.9999 20.5862 22.9952 20.3066V18.9585C22.9881 18.6282 22.8432 18.3684 22.5603 18.1789C22.2774 17.9894 21.8921 17.8946 21.4041 17.8946C20.9162 17.8946 20.5143 17.9865 20.1985 18.1704C19.885 18.3543 19.7282 18.5935 19.7282 18.8881H20.9197C20.9197 18.6667 21.0612 18.556 21.344 18.556C21.6481 18.556 21.8001 18.6958 21.8001 18.9754V19.1358H21.4324C20.8478 19.1358 20.4023 19.2202 20.0959 19.3891C19.7895 19.558 19.6363 19.8075 19.6363 20.1378C19.6363 20.4005 19.7624 20.6191 20.0146 20.7936C20.2668 20.9662 20.5732 21.0525 20.9339 21.0525C21.3275 21.0525 21.6339 20.9427 21.8532 20.7232ZM21.588 20.301C21.4913 20.3517 21.3688 20.377 21.2203 20.377C21.1071 20.377 21.014 20.3507 20.9409 20.2982C20.8679 20.2438 20.8313 20.1734 20.8313 20.0871C20.8313 19.7906 21.0388 19.6424 21.4536 19.6424H21.8001V20.1293C21.7577 20.1931 21.687 20.2503 21.588 20.301ZM18.1902 17.9509L17.6351 18.7896L17.0976 17.9509H15.846L16.8501 19.4341L15.7894 20.9962H17.0411L17.6315 20.0956L18.2326 20.9962H19.4772L18.42 19.4341L19.4277 17.9509H18.1902Z" fill="#504C5C"/>
<path fill-rule="evenodd" clip-rule="evenodd" d="M33.1578 0C29.9604 0 27.3683 2.59203 27.3683 5.78946C27.3683 8.98689 29.9604 11.5789 33.1578 11.5789C36.3552 11.5789 38.9473 8.98689 38.9473 5.78946C38.9473 2.59203 36.3552 0 33.1578 0ZM32.5614 6.90658C32.8257 6.62736 32.9579 6.25475 32.9579 5.78877V5.74439C32.9579 5.26731 32.8292 4.89285 32.5719 4.62103C32.3146 4.34735 31.9541 4.21052 31.4904 4.21052C31.1242 4.21052 30.8286 4.32147 30.6037 4.54336L30.569 4.26599H29.4736V8.42103H30.6455V7.0203C30.868 7.22186 31.152 7.32264 31.4974 7.32264C31.9448 7.32264 32.2995 7.18395 32.5614 6.90658ZM31.2018 4.93168C31.5913 4.93168 31.786 5.19796 31.786 5.73052V5.83037C31.7744 6.34444 31.582 6.60147 31.2088 6.60147C30.9352 6.60147 30.7475 6.51826 30.6455 6.35183V5.17023C30.7382 5.0112 30.9236 4.93168 31.2018 4.93168ZM36.842 4.26599H35.6667L34.6339 6.00789V4.26599H33.4551V7.26716H34.6339L35.6667 5.51971V7.26716H36.842V4.26599Z" fill="#504C5C"/>
</svg>
