<svg width="82" height="16" viewBox="0 0 82 16" fill="none" xmlns="http://www.w3.org/2000/svg">
<path d="M15.8955 15.8046H13.8146L10.6806 6.71756H10.5051L7.19562 15.8046H5.11466L0 0.146564H2.00575L2.28154 1.66107L6.19275 13.6305H6.36825L9.82816 4.10382L8.47428 0.146564H10.5302L10.9063 1.83206L14.8676 13.6305H15.018L19.3805 1.75878L19.7566 0.146564H21.6621L15.8955 15.8046Z" fill="#504C5C"/>
<path d="M31.113 0C33.3193 0 35.0075 0.659542 36.1775 1.97863C37.3642 3.29771 37.9576 5.19491 37.9576 7.67023C37.9576 10.341 37.3308 12.401 36.0772 13.8504C34.8236 15.2835 33.0352 16 30.7118 16C28.5389 16 26.8591 15.316 25.6724 13.9481C24.5024 12.5802 23.9174 10.6341 23.9174 8.10992C23.9174 5.50433 24.5358 3.50127 25.7727 2.10076C27.0263 0.700254 28.8064 0 31.113 0ZM30.9876 1.58779C27.6447 1.58779 25.9733 3.68855 25.9733 7.89008C25.9733 10.1211 26.3744 11.774 27.1767 12.8489C27.9957 13.9237 29.2242 14.4611 30.8623 14.4611C34.2052 14.4611 35.8766 12.3196 35.8766 8.03664C35.8766 5.85445 35.4671 4.2341 34.6481 3.17557C33.8458 2.11705 32.6256 1.58779 30.9876 1.58779Z" fill="#504C5C"/>
<path d="M58.636 15.8046H56.8308L56.4547 11.0412L55.6023 3.24886H55.4268L50.964 13.9969H49.3093L45.0721 3.24886H44.8715L44.0191 10.8947L43.5929 15.8046H41.888L43.5678 0.146564H45.8493L46.6767 2.54046L50.1617 11.4565H50.3121L53.9726 2.39389L54.8 0.146564H57.0565L58.636 15.8046Z" fill="#504C5C"/>
<path d="M69.8196 0C72.0259 0 73.7141 0.659542 74.8841 1.97863C76.0708 3.29771 76.6642 5.19491 76.6642 7.67023C76.6642 10.341 76.0374 12.401 74.7838 13.8504C73.5302 15.2835 71.7418 16 69.4184 16C67.2456 16 65.5657 15.316 64.379 13.9481C63.209 12.5802 62.624 10.6341 62.624 8.10992C62.624 5.50433 63.2424 3.50127 64.4793 2.10076C65.7329 0.700254 67.513 0 69.8196 0ZM69.6942 1.58779C66.3513 1.58779 64.6799 3.68855 64.6799 7.89008C64.6799 10.1211 65.081 11.774 65.8833 12.8489C66.7023 13.9237 67.9308 14.4611 69.5689 14.4611C72.9118 14.4611 74.5833 12.3196 74.5833 8.03664C74.5833 5.85445 74.1737 4.2341 73.3547 3.17557C72.5524 2.11705 71.3323 1.58779 69.6942 1.58779Z" fill="#504C5C"/>
<path d="M80.8968 13.655C81.2311 13.655 81.4986 13.7527 81.6991 13.9481C81.8997 14.1435 82 14.4122 82 14.7542C82 15.1125 81.8914 15.3975 81.6741 15.6092C81.4735 15.8209 81.1893 15.9267 80.8216 15.9267C80.4706 15.9267 80.1948 15.829 79.9943 15.6336C79.8104 15.4382 79.7185 15.1613 79.7185 14.8031C79.7185 14.4611 79.8188 14.1842 80.0193 13.9725C80.2366 13.7608 80.5291 13.655 80.8968 13.655Z" fill="#504C5C"/>
</svg>
