<svg width="185" height="185" viewBox="0 0 185 185" fill="none" xmlns="http://www.w3.org/2000/svg">
<path d="M131.878 48.5934C131.878 50.6024 133.502 52.2269 135.511 52.2268C137.52 52.2268 139.145 50.6021 139.145 48.5931C139.145 46.5841 137.52 44.9596 135.511 44.9597C133.52 44.9597 131.886 46.5932 131.878 48.5934ZM113.788 44.9518C115.797 44.9517 117.422 46.5763 117.422 48.5852C117.422 50.5942 115.797 52.2189 113.788 52.219C111.779 52.2191 110.155 50.5945 110.155 48.5855C110.155 46.594 111.788 44.9606 113.788 44.9518ZM92.0651 44.9614C94.0741 44.9613 95.6988 46.5859 95.6989 48.5949C95.699 50.6038 94.0744 52.2285 92.0654 52.2286C90.0565 52.2287 88.4318 50.6041 88.4317 48.5952C88.4316 46.5862 90.0562 44.9615 92.0651 44.9614ZM70.3335 44.9623C72.3424 44.9622 73.9671 46.5868 73.9672 48.5957C73.9673 50.6047 72.3427 52.2294 70.3337 52.2295C68.3248 52.2296 66.7001 50.605 66.7 48.596C66.6999 46.5871 68.3245 44.9623 70.3335 44.9623ZM48.6017 44.9631C50.6107 44.9631 52.2354 46.5876 52.2355 48.5966C52.2356 50.6056 50.611 52.2303 48.602 52.2304C46.5931 52.2305 44.9683 50.6059 44.9683 48.5969C44.9682 46.588 46.5928 44.9632 48.6017 44.9631ZM135.521 66.6826C137.53 66.6825 139.154 68.3071 139.154 70.3161C139.155 72.325 137.53 73.9497 135.521 73.9498C133.512 73.9499 131.887 72.3253 131.887 70.3164C131.878 68.3161 133.512 66.6827 135.521 66.6826ZM113.789 66.6835C115.798 66.6834 117.423 68.308 117.423 70.3169C117.423 72.3259 115.798 73.9506 113.789 73.9507C111.78 73.9508 110.156 72.3262 110.156 70.3172C110.164 68.317 111.789 66.6923 113.789 66.6835ZM92.0573 66.6843C94.0663 66.6843 95.691 68.3088 95.6911 70.3178C95.6911 72.3268 94.0665 73.9515 92.0576 73.9516C90.0486 73.9517 88.4239 72.3271 88.4238 70.3181C88.4325 68.3179 90.0571 66.6932 92.0573 66.6843ZM70.3343 66.694C72.3433 66.6939 73.968 68.3185 73.9681 70.3274C73.9682 72.3364 72.3436 73.9611 70.3346 73.9612C68.3256 73.9613 66.7009 72.3367 66.7009 70.3277C66.7008 68.3188 68.3254 66.694 70.3343 66.694ZM48.6026 66.6949C50.6116 66.6948 52.2363 68.3193 52.2364 70.3283C52.2365 72.3373 50.6119 73.962 48.6029 73.9621C46.5939 73.9622 44.9692 72.3376 44.9692 70.3286C44.9691 68.3197 46.5937 66.6949 48.6026 66.6949ZM135.522 88.4143C137.531 88.4142 139.155 90.0388 139.155 92.0478C139.155 94.0567 137.531 95.6814 135.522 95.6815C133.513 95.6816 131.888 94.057 131.888 92.0481C131.888 90.0391 133.513 88.4144 135.522 88.4143ZM113.79 88.4152C115.799 88.4151 117.424 90.0397 117.424 92.0486C117.424 94.0576 115.799 95.6823 113.79 95.6824C111.781 95.6825 110.156 94.0579 110.156 92.0489C110.156 90.04 111.781 88.4153 113.79 88.4152ZM92.0582 88.4161C94.0671 88.416 95.6918 90.0405 95.6919 92.0495C95.692 94.0585 94.0674 95.6832 92.0584 95.6833C90.0495 95.6834 88.4248 94.0588 88.4247 92.0498C88.4334 90.0496 90.058 88.4249 92.0582 88.4161ZM70.3265 88.4169C72.3354 88.4168 73.9601 90.0414 73.9602 92.0504C73.9603 94.0593 72.3357 95.6841 70.3267 95.6842C68.3178 95.6842 66.6931 94.0597 66.693 92.0507C66.7016 90.0505 68.3262 88.4257 70.3265 88.4169ZM48.6035 88.4266C50.6125 88.4265 52.2372 90.051 52.2373 92.06C52.2373 94.069 50.6127 95.6937 48.6038 95.6938C46.5948 95.6939 44.9701 94.0693 44.97 92.0603C44.9699 90.0514 46.5945 88.4266 48.6035 88.4266ZM135.522 110.146C137.531 110.146 139.156 111.77 139.156 113.779C139.156 115.788 137.532 117.413 135.523 117.413C133.514 117.413 131.889 115.789 131.889 113.78C131.889 111.771 133.514 110.146 135.522 110.146ZM113.791 110.147C115.8 110.147 117.424 111.771 117.425 113.78C117.425 115.789 115.8 117.414 113.791 117.414C111.782 117.414 110.157 115.79 110.157 113.781C110.157 111.772 111.782 110.147 113.791 110.147ZM92.0591 110.148C94.068 110.148 95.6927 111.772 95.6928 113.781C95.6929 115.79 94.0683 117.415 92.0593 117.415C90.0504 117.415 88.4257 115.79 88.4256 113.782C88.4255 111.773 90.0501 110.148 92.0591 110.148ZM70.3274 110.149C72.3363 110.149 73.961 111.773 73.9611 113.782C73.9612 115.791 72.3366 117.416 70.3276 117.416C68.3187 117.416 66.694 115.791 66.6939 113.782C66.7025 111.782 68.3271 110.157 70.3274 110.149ZM48.5956 110.15C50.6046 110.149 52.2293 111.774 52.2294 113.783C52.2295 115.792 50.6049 117.417 48.5959 117.417C46.587 117.417 44.9623 115.792 44.9622 113.783C44.9708 111.783 46.5954 110.158 48.5956 110.15ZM135.523 131.878C137.532 131.878 139.157 133.502 139.157 135.511C139.157 137.52 137.533 139.145 135.524 139.145C133.515 139.145 131.89 137.52 131.89 135.511C131.89 133.503 133.514 131.878 135.523 131.878ZM113.792 131.879C115.801 131.879 117.425 133.503 117.425 135.512C117.425 137.521 115.801 139.146 113.792 139.146C111.783 139.146 110.158 137.521 110.158 135.512C110.158 133.503 111.783 131.879 113.792 131.879ZM92.0599 131.879C94.0689 131.879 95.6936 133.504 95.6937 135.513C95.6938 137.522 94.0692 139.147 92.0602 139.147C90.0512 139.147 88.4265 137.522 88.4265 135.513C88.4264 133.504 90.051 131.88 92.0599 131.879ZM70.3282 131.88C72.3372 131.88 73.9619 133.505 73.962 135.514C73.9621 137.523 72.3375 139.147 70.3285 139.148C68.3196 139.148 66.6948 137.523 66.6948 135.514C66.6947 133.505 68.3193 131.88 70.3282 131.88ZM48.5965 131.881C50.6055 131.881 52.2302 133.506 52.2303 135.515C52.2304 137.524 50.6058 139.148 48.5968 139.148C46.5878 139.149 44.9631 137.524 44.9631 135.515C44.963 133.506 46.5963 131.89 48.5965 131.881Z" fill="#AA43A2"/>
</svg>
