<svg width="275" height="275" viewBox="0 0 275 275" fill="none" xmlns="http://www.w3.org/2000/svg">
<path d="M197.211 73.2892C197.212 76.2788 199.629 78.6963 202.619 78.6962C205.608 78.696 208.026 76.2783 208.026 73.2888C208.026 70.2993 205.608 67.8817 202.618 67.8819C199.655 67.882 197.224 70.3127 197.211 73.2892ZM170.292 67.8702C173.282 67.87 175.7 70.2876 175.7 73.2771C175.7 76.2666 173.282 78.6843 170.293 78.6845C167.303 78.6846 164.886 76.2671 164.886 73.2775C164.885 70.314 167.316 67.8833 170.292 67.8702ZM137.967 67.8845C140.956 67.8844 143.374 70.3019 143.374 73.2914C143.374 76.2809 140.957 78.6987 137.967 78.6988C134.977 78.6989 132.56 76.2814 132.56 73.2918C132.56 70.3023 134.977 67.8846 137.967 67.8845ZM105.628 67.8857C108.617 67.8856 111.035 70.3032 111.035 73.2927C111.035 76.2822 108.618 78.7 105.628 78.7001C102.639 78.7002 100.221 76.2827 100.221 73.2932C100.221 70.3036 102.638 67.8859 105.628 67.8857ZM73.2888 67.8871C76.2783 67.8869 78.6961 70.3045 78.6962 73.294C78.6963 76.2835 76.2787 78.7013 73.2892 78.7014C70.2997 78.7015 67.882 76.284 67.8818 73.2945C67.8817 70.3049 70.2993 67.8872 73.2888 67.8871ZM202.633 100.208C205.622 100.208 208.04 102.625 208.04 105.615C208.04 108.604 205.623 111.022 202.633 111.022C199.644 111.022 197.226 108.605 197.226 105.615C197.213 102.639 199.643 100.208 202.633 100.208ZM170.294 100.209C173.283 100.209 175.701 102.626 175.701 105.616C175.701 108.606 173.284 111.023 170.294 111.023C167.305 111.023 164.887 108.606 164.887 105.616C164.9 102.64 167.317 100.222 170.294 100.209ZM137.955 100.21C140.944 100.21 143.362 102.628 143.362 105.617C143.362 108.607 140.945 111.025 137.955 111.025C134.966 111.025 132.548 108.607 132.548 105.618C132.561 102.641 134.978 100.223 137.955 100.21ZM105.629 100.225C108.619 100.225 111.036 102.642 111.036 105.632C111.037 108.621 108.619 111.039 105.629 111.039C102.64 111.039 100.222 108.622 100.222 105.632C100.222 102.643 102.639 100.225 105.629 100.225ZM73.2901 100.226C76.2797 100.226 78.6974 102.643 78.6975 105.633C78.6976 108.622 76.28 111.04 73.2905 111.04C70.301 111.04 67.8833 108.623 67.8831 105.633C67.883 102.644 70.3006 100.226 73.2901 100.226ZM202.634 132.547C205.623 132.547 208.041 134.964 208.041 137.954C208.041 140.943 205.624 143.361 202.634 143.361C199.645 143.361 197.227 140.944 197.227 137.954C197.227 134.964 199.644 132.547 202.634 132.547ZM170.295 132.548C173.285 132.548 175.702 134.965 175.702 137.955C175.703 140.944 173.285 143.362 170.296 143.362C167.306 143.362 164.888 140.945 164.888 137.955C164.888 134.966 167.306 132.548 170.295 132.548ZM137.956 132.549C140.946 132.549 143.363 134.967 143.364 137.956C143.364 140.946 140.946 143.363 137.957 143.364C134.967 143.364 132.549 140.946 132.549 137.957C132.562 134.98 134.98 132.562 137.956 132.549ZM105.617 132.551C108.607 132.55 111.025 134.968 111.025 137.957C111.025 140.947 108.607 143.365 105.618 143.365C102.628 143.365 100.21 140.947 100.21 137.958C100.223 134.981 102.641 132.564 105.617 132.551ZM73.2914 132.565C76.281 132.565 78.6987 134.982 78.6988 137.972C78.6989 140.961 76.2814 143.379 73.2918 143.379C70.3023 143.379 67.8846 140.962 67.8845 137.972C67.8843 134.983 70.3019 132.565 73.2914 132.565ZM202.635 164.885C205.625 164.885 208.043 167.303 208.043 170.292C208.043 173.282 205.625 175.7 202.636 175.7C199.646 175.7 197.228 173.282 197.228 170.293C197.228 167.303 199.646 164.886 202.635 164.885ZM170.296 164.887C173.286 164.887 175.704 167.304 175.704 170.294C175.704 173.283 173.286 175.701 170.297 175.701C167.307 175.701 164.89 173.284 164.889 170.294C164.889 167.305 167.307 164.887 170.296 164.887ZM137.958 164.888C140.947 164.888 143.365 167.306 143.365 170.295C143.365 173.285 140.947 175.702 137.958 175.702C134.968 175.703 132.551 173.285 132.551 170.296C132.55 167.306 134.968 164.888 137.958 164.888ZM105.619 164.889C108.608 164.889 111.026 167.307 111.026 170.296C111.026 173.286 108.609 175.704 105.619 175.704C102.63 175.704 100.212 173.286 100.212 170.297C100.225 167.32 102.642 164.903 105.619 164.889ZM73.2797 164.891C76.2692 164.891 78.687 167.308 78.6871 170.298C78.6872 173.287 76.2697 175.705 73.2801 175.705C70.2906 175.705 67.8729 173.288 67.8728 170.298C67.8856 167.322 70.3032 164.904 73.2797 164.891ZM202.637 197.224C205.626 197.224 208.044 199.642 208.044 202.631C208.044 205.621 205.627 208.039 202.637 208.039C199.647 208.039 197.23 205.621 197.23 202.632C197.23 199.642 199.647 197.225 202.637 197.224ZM170.298 197.226C173.287 197.226 175.705 199.643 175.705 202.633C175.705 205.622 173.288 208.04 170.298 208.04C167.309 208.04 164.891 205.623 164.891 202.633C164.891 199.644 167.308 197.226 170.298 197.226ZM137.959 197.227C140.948 197.227 143.366 199.644 143.366 202.634C143.366 205.623 140.949 208.041 137.959 208.041C134.97 208.041 132.552 205.624 132.552 202.634C132.552 199.645 134.969 197.227 137.959 197.227ZM105.62 197.228C108.609 197.228 111.027 199.646 111.027 202.635C111.027 205.625 108.61 208.043 105.62 208.043C102.631 208.043 100.213 205.625 100.213 202.636C100.213 199.646 102.63 197.228 105.62 197.228ZM73.281 197.23C76.2706 197.23 78.6883 199.647 78.6884 202.637C78.6885 205.626 76.271 208.044 73.2814 208.044C70.2919 208.044 67.8742 205.627 67.8741 202.637C67.874 199.648 70.3045 197.243 73.281 197.23Z" fill="#AA43A2"/>
</svg>
