<svg width="369" height="360" viewBox="0 0 369 360" fill="none" xmlns="http://www.w3.org/2000/svg">
<path d="M232.302 171.481C221.65 171.481 211.886 167.176 204.785 160.288C189.695 145.652 189.695 121.545 204.785 106.908C211.886 100.021 221.65 95.7158 232.302 95.7158C242.954 95.7158 252.718 100.021 259.819 106.908C274.909 121.545 274.909 145.652 259.819 160.288C252.718 167.176 242.954 171.481 232.302 171.481ZM232.302 109.491C226.089 109.491 219.875 112.074 215.437 116.379C210.999 120.684 208.336 126.711 208.336 132.737C208.336 138.764 210.999 144.791 215.437 149.096C219.875 153.401 226.089 155.983 232.302 155.983C238.515 155.983 244.729 153.401 249.167 149.096C253.605 144.791 256.268 138.764 256.268 132.737C256.268 126.711 253.605 120.684 249.167 116.379C244.729 112.074 238.515 109.491 232.302 109.491Z" fill="white"/>
<path d="M192.36 359.371C191.473 359.371 189.697 359.371 188.81 358.51H187.922L187.034 357.649C185.259 355.927 184.372 353.345 185.259 351.623L195.911 291.355L146.203 243.141C126.675 256.055 102.709 268.97 102.709 268.97C101.821 269.831 100.934 269.831 99.1583 269.831C97.383 269.831 95.6077 268.97 93.8324 268.109C91.1695 265.526 91.1696 262.943 92.0573 259.499C92.0573 259.499 105.372 236.253 118.686 217.312L68.9787 169.098L5.95634 179.429H5.06865C3.29337 179.429 1.51805 178.568 -0.25723 177.707L-1.14465 176.846L-2.03234 175.985C-3.80762 173.403 -2.91993 169.959 -1.14465 167.376C51.226 116.579 102.709 111.413 116.023 111.413C152.416 82.1401 189.697 58.033 226.978 39.9527C227.866 39.9527 227.866 39.0916 228.753 39.0916C306.865 1.20911 359.236 0.348145 361.899 0.348145C366.337 0.348145 369 3.79204 369 7.2359C369 8.95784 368.112 59.7549 329.056 136.381C329.056 137.242 328.169 137.242 328.169 138.103C309.528 174.263 284.674 210.424 254.495 245.724C253.607 258.638 248.281 308.574 196.798 359.371C195.911 358.51 194.135 359.371 192.36 359.371ZM203.899 329.238C224.315 304.27 233.192 280.162 237.63 263.804C228.753 273.275 219.877 282.745 211.001 291.355L203.899 329.238ZM203.899 278.44L242.068 237.975C272.248 202.675 297.989 166.515 316.629 130.354C315.742 109.691 306.866 89.8888 291.776 75.2523C276.686 60.6159 256.27 52.0062 234.967 51.1453C197.686 69.2256 160.405 94.1935 124.012 123.466L82.2932 160.488L127.563 204.397L129.338 202.675C131.113 200.953 132.001 200.092 133.776 198.37C151.529 181.151 180.821 172.541 182.596 172.541H183.484H185.259C187.922 172.541 189.697 173.402 191.473 175.124C193.248 176.846 193.248 179.429 192.36 181.151C192.36 182.012 182.596 211.285 165.731 228.504C164.843 229.365 163.068 231.087 161.293 231.948L159.518 233.67L203.899 278.44ZM171.945 191.483C163.068 194.927 151.529 200.953 144.428 208.702C141.765 211.285 138.214 214.729 134.664 219.895C129.338 226.782 124.012 235.392 118.686 243.141C126.675 238.836 135.551 232.809 142.652 227.643C147.978 224.2 151.529 220.756 154.192 218.173C162.181 211.285 167.506 200.093 171.945 191.483ZM96.4955 127.771C79.6304 132.076 54.7765 140.686 29.035 160.488L67.2033 153.6C77.8549 144.991 87.6191 136.381 96.4955 127.771ZM258.933 40.8137C274.91 45.1185 290 53.7281 302.427 65.7817C314.854 77.8352 322.843 91.6106 328.169 107.969C348.584 62.3377 353.91 28.7602 355.685 14.9847C339.708 14.9847 305.978 20.1505 258.933 40.8137Z" fill="white"/>
</svg>
