<svg aria-hidden="true" xmlns="http://www.w3.org/2000/svg">
  <defs>
    <symbol id="close-icon" viewBox="0 0 32 32">
      <path d="m26.667 7.303-1.97-1.97-7.808 7.808-7.808-7.808-1.97 1.97 7.808 7.808-7.808 7.808 1.97 1.97 7.808-7.808 7.808 7.808 1.97-1.97-7.808-7.808 7.808-7.808z"/>
    </symbol>
    <symbol id="fb" viewBox="0 0 32 32">
      <path d="M28.444 16.34c0-7.078-5.792-12.822-12.929-12.822S2.586 9.263 2.586 16.339c0 6.206 4.447 11.375 10.343 12.567v-8.721h-2.585v-3.847h2.585v-3.206c0-2.475 2.031-4.488 4.526-4.488h3.232v3.847h-2.585c-.712 0-1.294.577-1.294 1.283v2.564h3.879v3.847h-3.879v8.912c6.53-.64 11.636-6.103 11.636-12.758z"/>
    </symbol>
    <symbol id="insta" viewBox="0 0 32 32">
      <path d="M20.242 3.838h-9.455c-4.351 0-7.879 3.5-7.879 7.815v9.377c0 4.315 3.528 7.814 7.879 7.814h9.455c4.351 0 7.879-3.499 7.879-7.814v-9.377c0-4.315-3.528-7.813-7.879-7.813zm5.516 17.191c0 3.016-2.475 5.469-5.516 5.469h-9.455c-3.041 0-5.516-2.453-5.516-5.469v-9.377c0-3.016 2.475-5.469 5.516-5.469h9.455c3.041 0 5.516 2.453 5.516 5.469v9.377z"/>
      <path d="M15.515 10.09c-3.481 0-6.303 2.799-6.303 6.251s2.822 6.252 6.303 6.252 6.303-2.8 6.303-6.252-2.822-6.251-6.303-6.251zm0 10.157c-2.172 0-3.94-1.753-3.94-3.907s1.769-3.907 3.94-3.907c2.172 0 3.94 1.752 3.94 3.908 0 2.153-1.769 3.906-3.94 3.906zm6.776-9.794h.004a.836.836 0 0 0 .836-.833.837.837 0 0 0-.837-.832h-.006a.838.838 0 0 0-.837.832c0 .461.375.834.84.834z"/>
    </symbol>
    <symbol id="tg" viewBox="0 0 32 32">
      <path d="M28.312 6.355c-.316-.382-.787-.593-1.329-.593a2.62 2.62 0 0 0-.928.184l-21.84 8.267c-1.159.439-1.315 1.098-1.305 1.452s.204 1.002 1.387 1.374l.02.007 3.064.869 14.916-7.558a.757.757 0 0 1 1.016.323l.002.004a.738.738 0 0 1-.124.853v.002l-8.293 8.74-.238.95 7.077 5.651c.452.347.945.531 1.427.531.941 0 1.69-.691 1.908-1.76L28.65 8.127c.145-.703.023-1.332-.339-1.772z"/>
      <path d="M13.477 19.727a.745.745 0 0 1 .184-.334l5.442-5.736-10.098 5.117 2.292 6.504c.131.37.326.687.566.933l1.615-6.484zm-.207 7.087c.545-.005 1.08-.233 1.55-.661l1.678-1.532-2.237-1.786-.99 3.98z"/>
    </symbol>
    <symbol id="ytube" viewBox="0 0 50 50">
      <path d="M44.898 14.5c-.398-2.2-2.296-3.8-4.5-4.3C37.102 9.5 31 9 24.398 9c-6.597 0-12.796.5-16.097 1.2-2.2.5-4.102 2-4.5 4.3C3.398 17 3 20.5 3 25s.398 8 .898 10.5c.403 2.2 2.301 3.8 4.5 4.3 3.5.7 9.5 1.2 16.102 1.2s12.602-.5 16.102-1.2c2.199-.5 4.097-2 4.5-4.3.398-2.5.898-6.102 1-10.5-.204-4.5-.704-8-1.204-10.5zM19 32V18l12.2 7z"/>
    </symbol>
    <symbol id="visa" viewBox="0 0 34 34">
      <path d="M34 27.485c0 1.101-.9 1.994-2.01 1.994H2.01C.9 29.479 0 28.585 0 27.485V8.217c0-1.1.9-1.993 2.01-1.993h29.98c1.11 0 2.01.893 2.01 1.993v19.268z" fill="#fff"/>
      <path d="m7.546 17.986-.798-3.799c-.136-.523-.534-.68-1.03-.7h-3.66l-.032.174c2.85.685 4.737 2.339 5.52 4.325z" fill="#F79F1A"/>
      <path d="M16.027 13.563h-2.365l-1.477 8.597h2.361l1.481-8.597zm-7.039 8.588 3.72-8.582h-2.504L7.89 19.433l-.246-.886c-.454-1.065-1.75-2.598-3.272-3.563l2.115 7.17 2.5-.003zm13.785-2.801c.009-.976-.623-1.72-1.985-2.335-.827-.398-1.332-.662-1.326-1.065 0-.356.427-.739 1.353-.739a4.395 4.395 0 0 1 1.768.33l.214.097.32-1.863A6.17 6.17 0 0 0 21 13.416c-2.335 0-3.978 1.166-3.993 2.837-.015 1.235 1.175 1.924 2.07 2.336.92.42 1.229.688 1.223 1.065-.006.575-.733.838-1.412.838-.946 0-1.448-.13-2.225-.45l-.302-.138-.332 1.926c.551.239 1.571.448 2.63.457 2.483 0 4.097-1.15 4.115-2.937zm2.809 1.521 3.026.003c.071.3.288 1.289.288 1.289h2.192l-1.914-8.59H27.35c-.567 0-.988.152-1.237.711l-3.51 7.879h2.484s.403-1.06.495-1.292zm1.62-4.163c-.012.024.196-.497.314-.82l.16.74.546 2.484h-1.96c.195-.494.94-2.404.94-2.404zM31.99 6.224H2.01C.9 6.224 0 7.117 0 8.217v2.07h34v-2.07c0-1.1-.9-1.993-2.01-1.993z" fill="#059BBF"/>
      <path d="M31.99 29.479H2.01C.9 29.479 0 28.585 0 27.485v-2.069h34v2.07c0 1.1-.9 1.992-2.01 1.992z" fill="#F79F1A"/>
      <path opacity=".15" d="M1.429 27.485V8.217c0-1.1.9-1.993 2.01-1.993h-1.43A2.002 2.002 0 0 0 0 8.217v19.268c0 1.101.9 1.994 2.01 1.994h1.429c-1.11 0-2.01-.893-2.01-1.994z" fill="#202121"/>
    </symbol>
    <symbol id="mastercard" viewBox="0 0 34 34">
      <path d="M34 27.485c0 1.101-.9 1.994-2.01 1.994H2.01C.9 29.479 0 28.585 0 27.485V8.217c0-1.1.9-1.993 2.01-1.993h29.98c1.11 0 2.01.893 2.01 1.993v19.268z" fill="#fff"/>
      <path opacity=".15" d="M1.429 27.485V8.217c0-1.1.9-1.993 2.01-1.993h-1.43A2.002 2.002 0 0 0 0 8.217v19.268c0 1.101.9 1.994 2.01 1.994h1.429c-1.11 0-2.01-.893-2.01-1.994z" fill="#202121"/>
      <path d="M28.073 17.02c0 3.13-2.55 5.69-5.738 5.69-3.157 0-5.737-2.56-5.737-5.69 0-3.131 2.55-5.69 5.707-5.69 3.218 0 5.768 2.559 5.768 5.69z" fill="#FFB600"/>
      <path d="M22.335 11.33c3.157 0 5.738 2.559 5.738 5.69 0 3.13-2.55 5.69-5.738 5.69-3.157 0-5.737-2.56-5.737-5.69" fill="#F7981D"/>
      <path d="M22.335 11.33c3.157 0 5.737 2.559 5.737 5.69 0 3.13-2.55 5.69-5.737 5.69" fill="#FF8500"/>
      <path d="M14.624 11.33c-3.127.03-5.677 2.559-5.677 5.69 0 3.13 2.55 5.69 5.738 5.69 1.487 0 2.823-.572 3.855-1.475.213-.181.395-.392.577-.602h-1.184a6.922 6.922 0 0 1-.425-.572h2.034c.121-.181.243-.392.334-.603h-2.702a3.569 3.569 0 0 1-.243-.602h3.157a5.934 5.934 0 0 0 .304-1.806c0-.422-.06-.813-.121-1.204h-3.522c.03-.211.091-.392.152-.603h3.157a3.569 3.569 0 0 0-.243-.602h-2.671c.09-.21.212-.391.334-.602h2.034a2.863 2.863 0 0 0-.456-.602h-1.123a5.15 5.15 0 0 1 .577-.572c-1.002-.933-2.368-1.475-3.856-1.475 0-.06 0-.06-.03-.06z" fill="#FF5050"/>
      <path d="M8.947 17.02c0 3.131 2.55 5.69 5.738 5.69 1.487 0 2.823-.572 3.855-1.475.213-.18.395-.391.577-.602h-1.184a6.94 6.94 0 0 1-.425-.572h2.034a3.84 3.84 0 0 0 .334-.602h-2.702a3.567 3.567 0 0 1-.243-.602h3.157a5.935 5.935 0 0 0 .304-1.807c0-.421-.06-.813-.121-1.204h-3.522c.03-.21.091-.392.152-.602h3.157a3.564 3.564 0 0 0-.243-.602h-2.671c.09-.211.212-.392.334-.602h2.034a2.866 2.866 0 0 0-.456-.603h-1.123c.182-.21.364-.391.577-.572-1.002-.933-2.368-1.475-3.856-1.475h-.03" fill="#E52836"/>
      <path d="M14.685 22.71c1.487 0 2.823-.572 3.855-1.475.213-.18.395-.391.577-.602h-1.184a6.94 6.94 0 0 1-.425-.572h2.034a3.84 3.84 0 0 0 .334-.602h-2.702a3.567 3.567 0 0 1-.243-.602h3.158a5.935 5.935 0 0 0 .303-1.807c0-.421-.06-.813-.121-1.204h-3.522c.03-.21.091-.392.152-.602h3.157a3.564 3.564 0 0 0-.243-.602h-2.671c.091-.211.212-.392.334-.602h2.034a2.866 2.866 0 0 0-.456-.603h-1.123c.182-.21.364-.391.577-.572-1.002-.933-2.368-1.475-3.855-1.475h-.03" fill="#CB2026"/>
      <path d="m16.718 18.465.091-.512c-.03 0-.09.03-.151.03-.213 0-.243-.12-.213-.18l.182-1.054h.334l.091-.572h-.303l.06-.362h-.607s-.364 1.987-.364 2.228c0 .362.213.512.486.512.182 0 .334-.06.394-.09zm.213-.964c0 .843.577 1.054 1.063 1.054.455 0 .637-.09.637-.09l.122-.572s-.334.15-.638.15c-.668 0-.546-.482-.546-.482h1.244s.091-.391.091-.541c0-.392-.212-.874-.88-.874-.638-.06-1.093.602-1.093 1.355zm1.063-.873c.334 0 .273.392.273.422h-.668c0-.03.06-.422.395-.422zm3.855 1.837.121-.663s-.303.151-.516.151c-.425 0-.607-.331-.607-.692 0-.723.364-1.114.79-1.114.303 0 .546.18.546.18l.09-.632s-.363-.15-.697-.15c-.699 0-1.397.602-1.397 1.746 0 .752.365 1.264 1.093 1.264.243 0 .577-.09.577-.09zm-8.469-2.379c-.426 0-.73.12-.73.12l-.09.513s.273-.12.667-.12c.213 0 .395.03.395.21 0 .12-.03.15-.03.15h-.273c-.517 0-1.093.211-1.093.904 0 .542.364.662.576.662.425 0 .608-.27.638-.27l-.03.24h.546l.243-1.656c0-.723-.607-.753-.82-.753zm.12 1.355c0 .09-.06.572-.424.572-.182 0-.243-.15-.243-.24 0-.151.09-.362.546-.362.091.03.122.03.122.03zm1.276 1.084c.152 0 .91.03.91-.783 0-.753-.728-.602-.728-.903 0-.15.121-.21.334-.21.09 0 .425.03.425.03l.09-.543s-.212-.06-.576-.06c-.455 0-.91.18-.91.783 0 .692.758.632.758.903 0 .18-.212.21-.364.21-.273 0-.546-.09-.546-.09l-.091.543c.03.06.182.12.698.12zm12.112-2.92-.121.813s-.243-.301-.577-.301c-.546 0-1.032.662-1.032 1.445 0 .482.243.993.759.993.364 0 .577-.24.577-.24l-.03.21h.606l.456-2.89-.638-.03zm-.273 1.596c0 .33-.152.752-.486.752-.212 0-.334-.18-.334-.481 0-.482.213-.783.486-.783.213 0 .334.15.334.512zM10.07 18.495l.365-2.168.06 2.168h.425l.79-2.168-.334 2.168h.637l.486-2.89h-1.002l-.607 1.776-.03-1.776h-.88l-.486 2.89h.576zm9.41 0c.183-.994.213-1.807.638-1.656.061-.391.152-.542.213-.692h-.122c-.273 0-.485.36-.485.36l.06-.33h-.576l-.395 2.348h.668v-.03zm3.765-2.409c-.425 0-.728.12-.728.12l-.091.513s.273-.12.667-.12c.213 0 .395.03.395.21 0 .12-.03.15-.03.15h-.274c-.516 0-1.092.211-1.092.904 0 .542.364.662.576.662.425 0 .608-.27.638-.27l-.03.24h.546l.243-1.656c.03-.723-.607-.753-.82-.753zm.152 1.355c0 .09-.06.572-.425.572-.182 0-.243-.15-.243-.24 0-.151.091-.362.547-.362.09.03.09.03.12.03zm1.184 1.054c.182-.994.213-1.807.638-1.656.06-.391.151-.542.212-.692h-.121c-.274 0-.486.36-.486.36l.06-.33h-.576l-.395 2.348h.668v-.03z" fill="#fff"/>
      <path d="M15.777 18.043c0 .362.213.512.486.512.213 0 .395-.06.455-.09l.092-.512c-.03 0-.091.03-.152.03-.213 0-.243-.12-.213-.18l.183-1.054h.333l.091-.572h-.303l.06-.362m.426 1.686c0 .843.273 1.054.759 1.054.455 0 .637-.09.637-.09l.122-.572s-.334.15-.638.15c-.668 0-.546-.482-.546-.482h1.244s.091-.391.091-.541c0-.392-.212-.874-.88-.874-.637-.06-.79.602-.79 1.355zm.759-.873c.334 0 .394.392.394.422H17.6c0-.03.06-.422.395-.422zm3.855 1.837.121-.663s-.303.151-.516.151c-.425 0-.607-.331-.607-.692 0-.723.364-1.114.79-1.114.303 0 .546.18.546.18l.09-.632s-.363-.15-.697-.15c-.699 0-1.093.602-1.093 1.746 0 .752.06 1.264.79 1.264.242 0 .576-.09.576-.09zm-9.289-1.716s.273-.12.667-.12c.213 0 .395.03.395.21 0 .12-.03.15-.03.15h-.273c-.517 0-1.093.211-1.093.904 0 .542.364.662.576.662.425 0 .608-.27.638-.27l-.03.24h.546l.243-1.656c0-.692-.607-.723-.85-.723l-.79.603zm1.244.692c0 .09-.364.572-.728.572-.182 0-.243-.15-.243-.24 0-.151.09-.362.546-.362.091.03.425.03.425.03zm.304 1.024s.182.06.698.06c.152 0 .91.03.91-.783 0-.753-.728-.602-.728-.903 0-.15.122-.21.334-.21.091 0 .425.03.425.03l.091-.543s-.212-.06-.577-.06c-.455 0-.607.18-.607.783 0 .692.456.632.456.903 0 .18-.213.21-.365.21m12.022-1.534s-.243-.301-.577-.301c-.547 0-.729.662-.729 1.445 0 .482-.06.994.456.994.364 0 .576-.241.576-.241l-.03.21h.607l.456-2.89-.76.783zm-.03.783c0 .331-.274.752-.608.752-.212 0-.334-.18-.334-.481 0-.482.213-.783.486-.783.213 0 .455.15.455.512zM10.07 18.495l.365-2.168.06 2.168h.425l.79-2.168-.334 2.168h.637l.486-2.89h-.759l-.85 1.776-.03-1.776h-.334l-1.032 2.89h.576zm8.774 0h.637c.182-.994.213-1.807.638-1.656.06-.391.151-.542.212-.692h-.121c-.274 0-.486.36-.486.36l.06-.33m2.641.572s.274-.12.668-.12c.213 0 .395.03.395.21 0 .12-.03.15-.03.15h-.274c-.516 0-1.092.211-1.092.904 0 .542.364.662.576.662.425 0 .608-.27.638-.27l-.03.24h.546l.243-1.656c0-.692-.607-.723-.85-.723l-.79.603zm1.245.692c0 .09-.364.572-.728.572-.183 0-.243-.15-.243-.24 0-.151.09-.362.546-.362.122.03.425.03.425.03zm.274 1.054h.637c.182-.994.213-1.807.638-1.656.06-.391.151-.542.212-.692h-.121c-.273 0-.486.36-.486.36l.06-.33" fill="#DCE5E5"/>
    </symbol>
    <symbol id="icon-amazon" viewBox="0 0 100 30" fill="none">
      <g clip-path="url(#clip0)" fill-rule="evenodd" clip-rule="evenodd">
        <path d="M62.038 23.46C56.227 27.726 47.804 30 40.552 30c-10.168 0-19.323-3.744-26.248-9.971-.544-.49-.057-1.157.596-.776 7.474 4.33 16.715 6.933 26.261 6.933 6.438 0 13.52-1.326 20.033-4.077.983-.416 1.806.641.844 1.352Z" fill="#F90"/>
        <path d="M64.454 20.709c-.74-.945-4.91-.446-6.782-.225-.57.069-.657-.425-.144-.78 3.322-2.327 8.771-1.656 9.407-.876.635.785-.166 6.223-3.287 8.819-.478.398-.936.186-.722-.343.7-1.742 2.272-5.646 1.528-6.595Z" fill="#F90"/>
        <path d="M57.803 3.276V1.014a.56.56 0 0 1 .574-.572H68.55c.326 0 .588.234.588.572V2.95c-.005.325-.279.75-.767 1.421l-5.27 7.493c1.958-.048 4.026.242 5.802 1.239.4.225.509.555.54.88v2.413c0 .33-.366.715-.75.516-3.13-1.634-7.286-1.811-10.747.017-.352.191-.722-.19-.722-.52v-2.292c0-.368.004-.997.374-1.556l6.107-8.718H58.39c-.326 0-.587-.23-.587-.568ZM20.694 17.39h-3.095a.583.583 0 0 1-.553-.524V1.053a.58.58 0 0 1 .596-.567h2.886c.3.013.54.242.562.528v2.067h.056c.753-1.997 2.168-2.93 4.075-2.93 1.937 0 3.147.933 4.017 2.93.75-1.997 2.451-2.93 4.275-2.93 1.297 0 2.716.534 3.583 1.73.979 1.33.779 3.263.779 4.957l-.005 9.98a.583.583 0 0 1-.596.572h-3.09a.587.587 0 0 1-.558-.572v-8.38c0-.668.061-2.332-.087-2.965-.23-1.061-.923-1.36-1.82-1.36-.748 0-1.532.498-1.85 1.295-.317.798-.287 2.132-.287 3.03v8.38a.583.583 0 0 1-.596.572h-3.09a.584.584 0 0 1-.558-.572l-.004-8.38c0-1.764.291-4.36-1.907-4.36-2.224 0-2.137 2.53-2.137 4.36v8.38a.583.583 0 0 1-.596.572M77.896.152c4.592 0 7.078 3.926 7.078 8.918 0 4.823-2.747 8.65-7.078 8.65-4.51 0-6.965-3.927-6.965-8.819 0-4.923 2.486-8.75 6.965-8.75Zm.026 3.228c-2.281 0-2.425 3.094-2.425 5.023 0 1.932-.03 6.058 2.399 6.058 2.398 0 2.511-3.328 2.511-5.356 0-1.335-.056-2.93-.46-4.195-.35-1.1-1.041-1.53-2.025-1.53ZM90.929 17.39h-3.082a.587.587 0 0 1-.557-.572l-.005-15.817a.584.584 0 0 1 .597-.515h2.868c.27.013.492.195.553.442v2.418h.056C92.227 1.183 93.44.152 95.578.152c1.388 0 2.742.498 3.612 1.863.81 1.266.81 3.393.81 4.923v9.954c-.035.277-.292.498-.596.498H96.3c-.283-.022-.518-.23-.548-.498v-8.59c0-1.728.2-4.259-1.937-4.259-.754 0-1.446.503-1.79 1.266-.435.966-.491 1.928-.491 2.994v8.515a.594.594 0 0 1-.605.572M49.693 9.837c0 1.2.03 2.201-.579 3.267-.492.867-1.275 1.4-2.142 1.4-1.188 0-1.884-.902-1.884-2.232 0-2.626 2.363-3.103 4.605-3.103v.668Zm3.121 7.51a.649.649 0 0 1-.731.073c-1.027-.85-1.215-1.244-1.776-2.054-1.698 1.725-2.904 2.24-5.102 2.24-2.607 0-4.631-1.599-4.631-4.8 0-2.501 1.358-4.204 3.3-5.036 1.68-.737 4.026-.867 5.82-1.07v-.4c0-.732.056-1.598-.38-2.231-.374-.568-1.096-.802-1.736-.802-1.18 0-2.23.603-2.486 1.85-.052.278-.257.551-.54.564l-2.999-.32c-.252-.057-.535-.26-.461-.646C41.78 1.092 45.07 0 48.012 0c1.507 0 3.474.399 4.663 1.534 1.506 1.4 1.362 3.267 1.362 5.3v4.801c0 1.443.601 2.076 1.167 2.856.196.277.24.61-.013.819-.631.524-1.754 1.5-2.373 2.045l-.004-.009M9.12 9.837c0 1.2.03 2.201-.58 3.267-.491.867-1.27 1.4-2.141 1.4-1.189 0-1.88-.902-1.88-2.232 0-2.626 2.363-3.103 4.6-3.103v.668Zm3.12 7.51a.649.649 0 0 1-.73.073c-1.028-.85-1.211-1.244-1.777-2.054-1.697 1.725-2.899 2.24-5.101 2.24-2.604 0-4.632-1.599-4.632-4.8 0-2.501 1.362-4.204 3.3-5.036 1.68-.737 4.026-.867 5.82-1.07v-.4c0-.732.056-1.598-.375-2.231-.379-.568-1.101-.802-1.737-.802-1.18 0-2.233.603-2.49 1.85-.052.278-.256.551-.535.564l-3.004-.32C.727 5.303.45 5.1.518 4.714 1.21 1.092 4.497 0 7.439 0c1.506 0 3.474.399 4.662 1.534 1.506 1.4 1.363 3.267 1.363 5.3v4.801c0 1.443.6 2.076 1.166 2.856.2.277.244.61-.009.819-.63.524-1.754 1.5-2.372 2.045l-.008-.009" fill="#000"/>
      </g>
      <defs>
        <clipPath id="clip0">
          <path fill="#fff" d="M0 0h100v30H0z"/>
        </clipPath>
      </defs>
    </symbol>
    <symbol id="icon-apple" viewBox="0 0 36 44">
      <path d="M35.245 34.29a24.135 24.135 0 0 1-2.297 4.253c-1.209 1.773-2.198 3-2.96 3.682-1.182 1.12-2.448 1.692-3.805 1.725-.973 0-2.147-.285-3.514-.864-1.37-.575-2.63-.86-3.783-.86-1.208 0-2.504.285-3.89.86-1.388.579-2.506.88-3.361.91-1.3.057-2.597-.532-3.89-1.77-.826-.742-1.859-2.013-3.096-3.814-1.328-1.923-2.42-4.152-3.274-6.695C.459 28.972 0 26.313 0 23.738c0-2.948.619-5.492 1.859-7.623.974-1.712 2.27-3.062 3.892-4.053a10.248 10.248 0 0 1 5.263-1.53c1.033 0 2.387.33 4.07.976 1.678.649 2.756.978 3.229.978.353 0 1.55-.385 3.58-1.152 1.919-.71 3.539-1.005 4.866-.89 3.595.3 6.297 1.759 8.093 4.388-3.215 2.006-4.806 4.816-4.775 8.42.03 2.807 1.019 5.144 2.963 6.999A9.716 9.716 0 0 0 36 32.25a33.588 33.588 0 0 1-.755 2.04ZM27 .88c0 2.2-.781 4.255-2.338 6.157-1.878 2.26-4.15 3.567-6.614 3.361a7.049 7.049 0 0 1-.05-.834c0-2.112.894-4.373 2.48-6.221.792-.936 1.8-1.715 3.02-2.335C24.718.396 25.87.058 26.955 0c.031.294.045.588.045.88Z" fill="#666"/>
    </symbol>
    <symbol id="icon-google" viewBox="0 0 108 37" fill="none">
      <path d="M45.96 18.974c0 5.136-3.967 8.92-8.835 8.92s-8.834-3.784-8.834-8.92c0-5.171 3.966-8.92 8.834-8.92 4.868 0 8.835 3.748 8.835 8.92Zm-3.868 0c0-3.209-2.299-5.405-4.967-5.405-2.668 0-4.967 2.196-4.967 5.405 0 3.178 2.299 5.406 4.967 5.406 2.668 0 4.967-2.232 4.967-5.406Z" fill="#EA4335"/>
      <path d="M65.018 18.974c0 5.136-3.966 8.92-8.834 8.92-4.868 0-8.835-3.784-8.835-8.92 0-5.168 3.967-8.92 8.835-8.92s8.834 3.748 8.834 8.92Zm-3.867 0c0-3.209-2.3-5.405-4.967-5.405-2.669 0-4.967 2.196-4.967 5.405 0 3.178 2.298 5.406 4.967 5.406 2.668 0 4.967-2.232 4.967-5.406Z" fill="#FBBC05"/>
      <path d="M83.283 10.593v16.015c0 6.587-3.836 9.278-8.37 9.278-4.269 0-6.837-2.892-7.806-5.257l3.367-1.42c.6 1.453 2.068 3.166 4.435 3.166 2.902 0 4.701-1.814 4.701-5.228v-1.283h-.135c-.865 1.081-2.533 2.027-4.638 2.027-4.403 0-8.437-3.885-8.437-8.884 0-5.036 4.034-8.953 8.437-8.953 2.1 0 3.769.945 4.638 1.995h.135v-1.452h3.673v-.004Zm-3.399 8.414c0-3.141-2.069-5.438-4.701-5.438-2.668 0-4.904 2.297-4.904 5.438 0 3.108 2.236 5.373 4.904 5.373 2.632 0 4.701-2.265 4.701-5.373Z" fill="#4285F4"/>
      <path d="M89.338 1.207v26.14h-3.772V1.208h3.772Z" fill="#34A853"/>
      <path d="m104.038 21.91 3.001 2.027c-.969 1.452-3.303 3.954-7.337 3.954-5.003 0-8.74-3.917-8.74-8.92 0-5.305 3.769-8.92 8.307-8.92 4.57 0 6.805 3.683 7.536 5.674l.401 1.013-11.773 4.94c.902 1.789 2.303 2.702 4.269 2.702 1.969 0 3.335-.982 4.336-2.47Zm-9.24-3.209 7.87-3.31c-.433-1.114-1.735-1.89-3.268-1.89-1.966 0-4.701 1.757-4.602 5.2Z" fill="#EA4335"/>
      <path d="M14.012 16.654V12.87h12.591c.123.66.187 1.44.187 2.284 0 2.84-.767 6.35-3.236 8.852-2.403 2.533-5.472 3.885-9.538 3.885C6.48 27.89.143 21.673.143 14.04.143 6.407 6.48.189 14.016.189c4.17 0 7.14 1.657 9.37 3.817l-2.636 2.67c-1.6-1.52-3.768-2.703-6.738-2.703-5.503 0-9.807 4.493-9.807 10.067s4.304 10.066 9.807 10.066c3.57 0 5.603-1.452 6.905-2.77 1.056-1.07 1.751-2.599 2.025-4.686l-8.93.004Z" fill="#4285F4"/>
    </symbol>
    <symbol id="icon-microsoft" viewBox="0 0 120 26" fill="none">
      <g clip-path="url(#clip0)">
        <path d="m42.358 14.975-.716 2.056h-.06a14.736 14.736 0 0 0-.695-2.015L37.053 5.24h-3.755v15.58h2.483v-9.614c0-.604 0-1.29-.02-2.136-.02-.423-.06-.746-.079-.988h.06c.119.605.258 1.048.357 1.33l4.61 11.368h1.748l4.57-11.468c.099-.262.198-.786.297-1.23h.06c-.06 1.15-.1 2.177-.12 2.802v9.876h2.643V5.2h-3.616l-3.933 9.775ZM52.41 9.594h2.583V20.76H52.41V9.594Zm1.312-4.716c-.437 0-.795.16-1.093.443a1.44 1.44 0 0 0-.457 1.088c0 .424.159.786.457 1.069.298.282.656.423 1.093.423.437 0 .814-.161 1.092-.423.298-.283.457-.645.457-1.069 0-.423-.159-.786-.457-1.088-.258-.282-.635-.443-1.092-.443Zm10.43 4.615a7.106 7.106 0 0 0-1.45-.161c-1.172 0-2.245.262-3.14.786-.893.524-1.608 1.25-2.066 2.156-.476.928-.715 1.996-.715 3.225a6.05 6.05 0 0 0 .696 2.882c.457.847 1.092 1.532 1.947 1.996.814.463 1.768.705 2.84.705 1.232 0 2.285-.262 3.12-.745l.02-.02v-2.42l-.1.081a4.418 4.418 0 0 1-1.251.665c-.457.162-.874.242-1.232.242-1.033 0-1.848-.302-2.424-.967-.596-.645-.894-1.532-.894-2.64 0-1.15.298-2.056.914-2.721.616-.665 1.43-1.008 2.424-1.008.834 0 1.689.282 2.464.847l.099.08v-2.56l-.02-.02c-.338-.14-.715-.302-1.232-.403Zm8.523-.08c-.635 0-1.231.201-1.748.624-.437.363-.735.887-.993 1.512h-.02V9.594H67.33V20.76h2.583v-5.704c0-.967.198-1.774.635-2.358.438-.605.994-.907 1.67-.907.238 0 .476.06.774.1.278.081.477.162.616.263l.1.08v-2.62l-.06-.02c-.179-.121-.537-.181-.974-.181Zm7.034-.061c-1.809 0-3.259.544-4.272 1.612-1.033 1.069-1.53 2.54-1.53 4.394 0 1.734.517 3.144 1.51 4.172.993 1.008 2.344 1.532 4.033 1.532 1.768 0 3.179-.544 4.192-1.632 1.033-1.089 1.53-2.54 1.53-4.334 0-1.773-.477-3.184-1.45-4.212-.934-1.028-2.305-1.532-4.013-1.532Zm2.066 8.586c-.477.625-1.232.927-2.166.927-.934 0-1.689-.302-2.225-.967-.537-.625-.795-1.532-.795-2.68 0-1.19.278-2.097.795-2.742.536-.645 1.272-.967 2.205-.967.914 0 1.63.302 2.146.927s.795 1.531.795 2.72c-.04 1.21-.259 2.157-.755 2.782Zm9.159-3.708c-.815-.343-1.331-.605-1.57-.827-.199-.201-.298-.484-.298-.846a.94.94 0 0 1 .417-.806c.298-.202.636-.303 1.133-.303.437 0 .894.08 1.33.202.438.12.835.302 1.153.544l.1.08V9.816l-.06-.02a7.089 7.089 0 0 0-1.172-.343 7.854 7.854 0 0 0-1.272-.121c-1.232 0-2.245.302-3.04.967-.794.625-1.172 1.472-1.172 2.46 0 .523.08.987.259 1.37.178.383.437.745.794 1.048.358.282.874.604 1.59.907.596.262 1.053.463 1.33.625.279.16.458.342.597.483.1.162.159.363.159.625 0 .746-.556 1.109-1.689 1.109-.437 0-.894-.08-1.43-.262a5.495 5.495 0 0 1-1.45-.746l-.1-.08v2.559l.06.02c.377.182.834.302 1.39.444.556.1 1.053.181 1.49.181 1.331 0 2.424-.302 3.199-.968.795-.644 1.212-1.47 1.212-2.539 0-.746-.199-1.41-.636-1.915a8.03 8.03 0 0 0-2.324-1.39Zm9.774-4.878c-1.808 0-3.258.544-4.271 1.612-1.013 1.069-1.53 2.54-1.53 4.394 0 1.734.517 3.144 1.51 4.172.993 1.008 2.344 1.532 4.033 1.532 1.768 0 3.179-.544 4.192-1.632 1.033-1.089 1.53-2.54 1.53-4.334 0-1.773-.477-3.184-1.45-4.212-.934-1.028-2.305-1.532-4.014-1.532Zm2.047 8.586c-.477.625-1.232.927-2.166.927-.953 0-1.689-.302-2.225-.967-.536-.625-.795-1.532-.795-2.68 0-1.19.278-2.097.795-2.742.536-.645 1.272-.967 2.205-.967.894 0 1.63.302 2.146.927.517.625.795 1.531.795 2.72 0 1.21-.258 2.157-.755 2.782Zm17.225-6.187V9.594h-2.603V6.288l-.079.02-2.464.746-.059.02v2.52h-3.894v-1.41c0-.646.159-1.15.437-1.472.278-.323.695-.484 1.212-.484.357 0 .735.08 1.152.262l.099.06V4.273l-.059-.02c-.358-.121-.835-.202-1.451-.202a4.6 4.6 0 0 0-2.066.484 3.465 3.465 0 0 0-1.41 1.431c-.338.605-.517 1.29-.517 2.076v1.552h-1.808v2.136h1.808v9.03h2.603v-9.01h3.894v5.745c0 2.358 1.092 3.547 3.278 3.547.357 0 .735-.06 1.093-.121.377-.08.655-.181.814-.262l.02-.02v-2.157l-.099.08c-.159.102-.298.182-.537.243a1.79 1.79 0 0 1-.516.08c-.517 0-.875-.12-1.133-.423-.238-.282-.357-.746-.357-1.43V11.75h2.642Z" fill="#737373"/>
        <path d="M0 0h12.179v12.355H0V0Z" fill="#F25022"/>
        <path d="M13.45 0H25.63v12.355H13.45V0Z" fill="#7FBA00"/>
        <path d="M0 13.645h12.179V26H0V13.645Z" fill="#00A4EF"/>
        <path d="M13.45 13.645H25.63V26H13.45V13.645Z" fill="#FFB900"/>
      </g>
      <defs>
        <clipPath id="clip0">
          <path fill="#fff" d="M0 0h120v26H0z"/>
        </clipPath>
      </defs>
    </symbol>
    
    <symbol id="check-circle" viewBox="0 0 58 58">
      <g filter="url(#blur)" >
        <circle cx="29" cy="29" r="19"/>
      </g>
      <g >
        <circle cx="29" cy="29" r="19"/>
      </g>
      <path d="m22.667 28.659 5.104 5.105a.2.2 0 0 0 .297-.016l7.46-9.181" stroke="#fff" stroke-width="1.5" stroke-linecap="round"/>
    </symbol>
 
   
    <linearGradient id="gradient" x1="1" y1="0" x2="0" y2="0" gradientUnits="userSpaceOnUse">
      <stop offset="0" stop-color="#FCA342"/>
      <stop offset="1" stop-color="#FD5639"/>
    </linearGradient>
    <filter id="blur" x="0" y="0" width="58" height="58" filterUnits="userSpaceOnUse" color-interpolation-filters="sRGB">
      <feFlood flood-opacity="0" result="BackgroundImageFix"/>
      <feBlend in="SourceGraphic" in2="BackgroundImageFix" result="shape"/>
      <feGaussianBlur stdDeviation="5" result="effect1_foregroundBlur"/>
    </filter>


    <!-- ======================header============= -->
    <symbol id="icon-header" viewBox="0 0 18 18"  >
<path d="M0 9C0 4.02944 4.02944 0 9 0C13.9706 0 18 4.02944 18 9V18H9C4.02944 18 0 13.9706 0 9Z" />
<path d="M14.6495 5.13929C14.6929 5.18306 14.7271 5.23495 14.7504 5.29197C14.7736 5.34899 14.7854 5.41004 14.7851 5.47163C14.7847 5.53321 14.7722 5.59412 14.7483 5.65088C14.7244 5.70763 14.6896 5.75913 14.6458 5.80241L7.69267 12.6774C7.60536 12.7637 7.48767 12.8123 7.3649 12.8128C7.24212 12.8133 7.12407 12.7656 7.0361 12.6799L4.14548 9.86741C4.1006 9.82467 4.06464 9.77344 4.03968 9.71671C4.01472 9.65998 4.00126 9.59886 4.00008 9.53689C3.99891 9.47492 4.01003 9.41333 4.03281 9.35569C4.05559 9.29805 4.08957 9.24549 4.13279 9.20107C4.17602 9.15665 4.22762 9.12124 4.28462 9.09689C4.34162 9.07255 4.40288 9.05975 4.46486 9.05923C4.52683 9.05872 4.5883 9.0705 4.64569 9.09389C4.70309 9.11729 4.75527 9.15184 4.79923 9.19554L7.36017 11.6874L13.9864 5.13554C14.0302 5.09222 14.0821 5.05796 14.1391 5.0347C14.1961 5.01145 14.2572 4.99966 14.3188 5.00001C14.3803 5.00036 14.4413 5.01284 14.498 5.03673C14.5548 5.06063 14.6063 5.09548 14.6495 5.13929Z" fill="white"/>
</symbol>

  </defs>
</svg>
