<svg aria-hidden="true" style="position:absolute;width:0;height:0" xmlns="http://www.w3.org/2000/svg" overflow="hidden">
  <defs>
    <symbol id="icon-dots" viewBox="0 0 156 32">
      <path fill="var(--color1, #4d6fd3)" d="M16.02 31.983c8.84 0 16.006-7.16 16.006-15.992S24.86-.001 16.02-.001.014 7.159.014 15.991 7.18 31.983 16.02 31.983z"/>
      <path fill="var(--color2, #fd9029)" d="M76.006 31.983c8.84 0 16.006-7.16 16.006-15.992S84.846-.001 76.006-.001 60 7.159 60 15.991s7.166 15.992 16.006 15.992z"/>
      <path fill="var(--color3, #d24cb1)" d="M136.006 31.983c8.84 0 16.006-7.16 16.006-15.992S144.846-.001 136.006-.001 120 7.159 120 15.991s7.166 15.992 16.006 15.992z"/>
    </symbol>
    <symbol id="icon-mobile-menu" viewBox="0 0 53 32">
      <path fill="var(--color1, #4141e4)" d="M0 0h52.437v3.429H0V0zm0 14.117h52.437v3.429H0v-3.429zm52.437 14.119H0v3.429h52.437v-3.429z"/>
    </symbol>
    <symbol id="icon-close-menu" viewBox="0 0 32 32">
      <path d="M23.959 22.043l-6.23-6.193 6.089-6.089c.531-.531.531-1.385 0-1.915s-1.385-.531-1.915 0l-6.052 6.09-5.949-5.949c-.531-.531-1.385-.531-1.915 0s-.53 1.385 0 1.915l5.939 5.939-6.071 6.071c-.53.53-.531 1.385 0 1.915s1.385.53 1.915 0l6.071-6.071 6.202 6.202c.531.531 1.385.53 1.915 0s.526-1.39 0-1.916z"/>
    </symbol>
    <symbol id="icon-menu" viewBox="0 0 66 32">
      <path d="M62.002 4H2.001a2 2 0 010-4h60.001a2 2 0 010 4zM2.001 14h60.001a2 2 0 010 4H2.001a2 2 0 010-4zm0 14h40.001a2 2 0 010 4H2.001a2 2 0 010-4z"/>
    </symbol>
    <symbol id="icon-shuttle" viewBox="0 0 32 32">
      <path fill="var(--color1, #e45a6e)" d="M13.862 8.72a.939.939 0 00-.877-.453l-7.618.588a2.477 2.477 0 00-1.885 1.109L.285 14.8c-.324.489-.375 1.102-.138 1.638s.725.91 1.305 1l6.177.957a.94.94 0 00.934-.422l5.285-8.268a.937.937 0 00.014-.986z"/>
      <path fill="var(--color2, #d82e44)" d="M23.279 18.137a.938.938 0 00-.987.014l-8.268 5.285a.939.939 0 00-.422.933l.957 6.178a1.709 1.709 0 001.695 1.452c.33 0 .658-.096.944-.285l4.836-3.197a2.474 2.474 0 001.109-1.885l.589-7.618a.94.94 0 00-.453-.877z"/>
      <path fill="var(--color3, #f1f1fb)" d="M12.054 25.766c.373.373.903.548 1.424.461 7.632-1.276 13.671-7.595 15.97-12.04 2.553-4.936 2.648-10.152 2.514-12.598A1.644 1.644 0 0030.41.037c-2.446-.133-7.662-.039-12.598 2.514-4.445 2.299-10.764 8.338-12.04 15.97-.087.52.088 1.051.461 1.424l5.821 5.821z"/>
      <path fill="var(--color4, #d7d6fb)" d="M31.484.515l-22.34 22.34 2.911 2.911c.373.373.903.548 1.424.461 7.632-1.276 13.671-7.595 15.97-12.04 2.553-4.936 2.648-10.152 2.514-12.598a1.637 1.637 0 00-.479-1.073z"/>
      <path fill="var(--color5, #466288)" d="M21.92 14.764a4.67 4.67 0 01-3.314-1.371c-.885-.885-1.373-2.063-1.373-3.315s.488-2.429 1.373-3.314a4.692 4.692 0 016.629 0c.885.885 1.373 2.063 1.373 3.314s-.488 2.429-1.373 3.315a4.673 4.673 0 01-3.315 1.371zm-2.651-7.337zM5.772 18.521c-.087.52.088 1.051.461 1.424l5.821 5.821c.373.373.903.548 1.424.461a18.752 18.752 0 004.734-1.478L7.251 13.788a18.717 18.717 0 00-1.478 4.733z"/>
      <path fill="var(--color6, #fdb43a)" d="M.957 26.37c.24 0 .48-.092.663-.275l3.061-3.061a.938.938 0 00-1.326-1.326L.294 24.769a.938.938 0 00.663 1.601zM7.485 24.514a.938.938 0 00-1.326 0L.274 30.399A.938.938 0 001.6 31.725l5.885-5.885a.938.938 0 000-1.326z"/>
      <path fill="var(--color7, #f57a21)" d="M10.29 27.319a.938.938 0 00-1.326 0L5.903 30.38a.938.938 0 001.326 1.326l3.061-3.061a.938.938 0 000-1.326zM.275 31.724a.935.935 0 001.326 0l5.885-5.885a.938.938 0 000-1.326l-7.21 7.211z"/>
      <path fill="var(--color8, #354a67)" d="M9.143 22.856l2.911 2.911c.373.373.903.548 1.424.461a18.752 18.752 0 004.734-1.478l-5.48-5.481-3.588 3.587zM18.606 13.393c.914.914 2.114 1.371 3.315 1.371s2.401-.457 3.315-1.371c.885-.885 1.373-2.063 1.373-3.315s-.488-2.429-1.373-3.315l-6.629 6.629z"/>
      <path fill="var(--color9, #4bbefd)" d="M21.92 7.267a2.807 2.807 0 00-2.813 2.811 2.814 2.814 0 005.625 0c0-.751-.293-1.457-.824-1.989a2.803 2.803 0 00-1.989-.822z"/>
      <path fill="var(--color10, #0590fb)" d="M23.909 8.09l-3.977 3.977a2.814 2.814 0 004.801-1.989c0-.751-.293-1.457-.824-1.989z"/>
    </symbol>
    <symbol id="icon-css" viewBox="0 0 32 32">
      <path fill="var(--color1, #cfd2fc)" d="M24.5 30.5h-17a3.004 3.004 0 01-3-3v-23a3.004 3.004 0 013-3h14l6 6v20a3.004 3.004 0 01-3 3z"/>
      <path fill="var(--color2, #d24cb1)" d="M4.5 22.5h23v5a3.004 3.004 0 01-3 3h-17a3.004 3.004 0 01-3-3v-5z"/>
      <path fill="var(--color3, #8690fa)" d="M27.5 7.5h-3a3.004 3.004 0 01-3-3v-3l6 6zM16 13a.5.5 0 100-1 .5.5 0 000 1zM16 15a.5.5 0 100-1 .5.5 0 000 1zM9.5 14a.498.498 0 01-.5-.5.498.498 0 01.5-.5c.133 0 .26-.053.353-.147s.146-.221.147-.353v-2A1.5 1.5 0 0111.5 9a.498.498 0 01.5.5.498.498 0 01-.5.5c-.133 0-.26.053-.353.147s-.146.221-.147.353v2A1.5 1.5 0 019.5 14z"/>
      <path fill="var(--color3, #8690fa)" d="M11.5 18a1.5 1.5 0 01-1.5-1.5v-2c0-.133-.053-.26-.147-.353S9.632 14.001 9.5 14a.498.498 0 01-.5-.5.498.498 0 01.5-.5 1.5 1.5 0 011.5 1.5v2c0 .133.053.26.147.353s.221.146.353.147a.498.498 0 01.5.5.498.498 0 01-.5.5zM20.5 18a.498.498 0 01-.5-.5.498.498 0 01.5-.5c.133 0 .26-.053.353-.147s.146-.221.147-.353v-2a1.5 1.5 0 011.5-1.5.498.498 0 01.5.5.498.498 0 01-.5.5c-.133 0-.26.053-.353.147s-.146.221-.147.353v2a1.5 1.5 0 01-1.5 1.5z"/>
      <path fill="var(--color3, #8690fa)" d="M22.5 14a1.5 1.5 0 01-1.5-1.5v-2c0-.133-.053-.26-.147-.353s-.221-.146-.353-.147a.498.498 0 01-.5-.5.498.498 0 01.5-.5 1.5 1.5 0 011.5 1.5v2c0 .133.053.26.147.353s.221.146.353.147a.498.498 0 01.5.5.498.498 0 01-.5.5z"/>
      <path fill="var(--color4, #fff)" d="M16 25h1a.498.498 0 00.5-.5.498.498 0 00-.5-.5h-1a1.503 1.503 0 00-1.5 1.5A1.503 1.503 0 0016 27a.498.498 0 01.5.5.498.498 0 01-.5.5h-1a.498.498 0 00-.5.5.498.498 0 00.5.5h1a1.503 1.503 0 001.5-1.5A1.503 1.503 0 0016 26a.498.498 0 01-.5-.5.498.498 0 01.5-.5zM20 25h1a.498.498 0 00.5-.5.498.498 0 00-.5-.5h-1a1.503 1.503 0 00-1.5 1.5A1.503 1.503 0 0020 27a.498.498 0 01.5.5.498.498 0 01-.5.5h-1a.498.498 0 00-.5.5.498.498 0 00.5.5h1a1.503 1.503 0 001.5-1.5A1.503 1.503 0 0020 26a.498.498 0 01-.5-.5.498.498 0 01.5-.5zM12.5 25c.099 0 .197.023.287.066a.501.501 0 00.683-.621.497.497 0 00-.257-.283 1.66 1.66 0 00-.713-.161c-1.103 0-2 1.121-2 2.5s.897 2.5 2 2.5c.247 0 .49-.055.713-.161a.497.497 0 00.287-.476.492.492 0 00-.163-.346.506.506 0 00-.549-.083.666.666 0 01-.287.066c-.542 0-1-.687-1-1.5s.458-1.5 1-1.5z"/>
    </symbol>
    <symbol id="icon-js" viewBox="0 0 32 32">
      <path fill="var(--color1, #cfd2fc)" d="M24.5 30.5h-17a3.004 3.004 0 01-3-3v-23a3.004 3.004 0 013-3h14l6 6v20a3.004 3.004 0 01-3 3z"/>
      <path fill="var(--color5, #ff7111)" d="M4.5 22.5h23v5a3.004 3.004 0 01-3 3h-17a3.004 3.004 0 01-3-3v-5z"/>
      <path fill="var(--color3, #8690fa)" d="M27.5 7.5h-3a3.004 3.004 0 01-3-3v-3l6 6zM18 14a.5.5 0 100-1 .5.5 0 000 1zM14 14a.5.5 0 100-1 .5.5 0 000 1zM16 14a.5.5 0 100-1 .5.5 0 000 1zM11.5 17c-.133 0-.26-.053-.353-.147s-.146-.221-.147-.353v-2c0-.369-.136-.725-.383-1 .247-.275.383-.631.383-1v-2c0-.133.053-.26.147-.353s.221-.146.353-.147a.498.498 0 00.5-.5.498.498 0 00-.5-.5 1.5 1.5 0 00-1.5 1.5v2c0 .133-.053.26-.147.353s-.221.146-.353.147a.498.498 0 00-.5.5.498.498 0 00.5.5c.133 0 .26.053.353.147s.146.221.147.353v2a1.5 1.5 0 001.5 1.5.498.498 0 00.5-.5.498.498 0 00-.5-.5zM22.5 13c-.133 0-.26-.053-.353-.147s-.146-.221-.147-.353v-2A1.5 1.5 0 0020.5 9a.498.498 0 00-.5.5.498.498 0 00.5.5c.133 0 .26.053.353.147s.146.221.147.353v2c0 .369.136.726.383 1a1.494 1.494 0 00-.383 1v2c0 .133-.053.26-.147.353s-.221.146-.353.147a.498.498 0 00-.5.5.498.498 0 00.5.5 1.5 1.5 0 001.5-1.5v-2c0-.133.053-.26.147-.353s.221-.146.353-.147a.498.498 0 00.5-.5.498.498 0 00-.5-.5z"/>
      <path fill="var(--color4, #fff)" d="M15 24a.498.498 0 00-.5.5v3a.498.498 0 01-.5.5.498.498 0 01-.5-.5.498.498 0 00-.5-.5.498.498 0 00-.5.5A1.503 1.503 0 0014 29a1.503 1.503 0 001.5-1.5v-3a.498.498 0 00-.5-.5zM18 25h1a.498.498 0 00.5-.5.498.498 0 00-.5-.5h-1a1.503 1.503 0 00-1.5 1.5A1.503 1.503 0 0018 27a.498.498 0 01.5.5.498.498 0 01-.5.5h-1a.498.498 0 00-.5.5.498.498 0 00.5.5h1a1.503 1.503 0 001.5-1.5A1.503 1.503 0 0018 26a.498.498 0 01-.5-.5.498.498 0 01.5-.5z"/>
    </symbol>
    <symbol id="icon-php" viewBox="0 0 32 32">
      <path fill="var(--color1, #cfd2fc)" d="M24.5 30.5h-17a3.004 3.004 0 01-3-3v-23a3.004 3.004 0 013-3h14l6 6v20a3.004 3.004 0 01-3 3z"/>
      <path fill="var(--color6, #5153ff)" d="M4.5 22.5h23v5a3.004 3.004 0 01-3 3h-17a3.004 3.004 0 01-3-3v-5z"/>
      <path fill="var(--color3, #8690fa)" d="M27.5 7.5h-3a3.004 3.004 0 01-3-3v-3l6 6zM12 17a.497.497 0 01-.353-.146l-3-3a.505.505 0 01-.108-.544.495.495 0 01.108-.162l3-3a.5.5 0 01.854.354c0 .133-.053.26-.146.354l-2.646 2.646 2.646 2.646a.498.498 0 01-.075.769.5.5 0 01-.278.084zM20 17a.5.5 0 01-.353-.853l2.646-2.646-2.646-2.646a.5.5 0 01.354-.854c.133 0 .26.053.354.146l3 3a.505.505 0 01.108.544.505.505 0 01-.108.162l-3 3a.497.497 0 01-.353.147zM16 18a.5.5 0 100-1 .5.5 0 000 1zM16 16a.498.498 0 01-.5-.5v-2a.498.498 0 01.5-.5 1.495 1.495 0 001.385-.926 1.496 1.496 0 00-.325-1.635 1.497 1.497 0 00-2.308.227 1.5 1.5 0 00-.253.833.498.498 0 01-.5.5.498.498 0 01-.5-.5 2.498 2.498 0 014.871-.791 2.5 2.5 0 01-1.872 3.241v1.55a.498.498 0 01-.5.5z"/>
      <path fill="var(--color4, #fff)" d="M20 24h-1a.498.498 0 00-.5.5v4a.498.498 0 00.5.5.498.498 0 00.5-.5V27h.5a1.503 1.503 0 001.5-1.5A1.503 1.503 0 0020 24zm0 2h-.5v-1h.5a.498.498 0 01.5.5.498.498 0 01-.5.5zM12 24h-1a.498.498 0 00-.5.5v4a.498.498 0 00.5.5.498.498 0 00.5-.5V27h.5a1.503 1.503 0 001.5-1.5A1.503 1.503 0 0012 24zm0 2h-.5v-1h.5a.498.498 0 01.5.5.498.498 0 01-.5.5zM17 24a.498.498 0 00-.5.5V26h-1v-1.5a.498.498 0 00-.5-.5.498.498 0 00-.5.5v4a.498.498 0 00.5.5.498.498 0 00.5-.5V27h1v1.5a.498.498 0 00.5.5.498.498 0 00.5-.5v-4a.498.498 0 00-.5-.5z"/>
    </symbol>
    <symbol id="icon-blue" viewBox="0 0 32 32">
      <path fill="var(--color1, #4d6fd3)" d="M32 16c0 8.837-7.163 16-16 16S0 24.837 0 16 7.163 0 16 0s16 7.163 16 16z"/>
    </symbol>
    <symbol id="icon-orange" viewBox="0 0 32 32">
      <path fill="var(--color2, #fd9029)" d="M32 16c0 8.837-7.163 16-16 16S0 24.837 0 16 7.163 0 16 0s16 7.163 16 16z"/>
    </symbol>
    <symbol id="icon-pink" viewBox="0 0 32 32">
      <path fill="var(--color3, #d24cb1)" d="M32 16c0 8.837-7.163 16-16 16S0 24.837 0 16 7.163 0 16 0s16 7.163 16 16z"/>
    </symbol>
    <symbol id="icon-decor" viewBox="0 0 387 113">
      <path d="M.997 1c48.333 68.667 185 175.6 385 58" stroke="#AA43A2" stroke-dasharray="3 5"/>
    </symbol>
    <symbol id="visa" viewBox="0 0 34 34">
      <path d="M34 27.485c0 1.101-.9 1.994-2.01 1.994H2.01C.9 29.479 0 28.585 0 27.485V8.217c0-1.1.9-1.993 2.01-1.993h29.98c1.11 0 2.01.893 2.01 1.993v19.268z" fill="#fff"/>
      <path d="M7.546 17.986l-.798-3.799c-.136-.523-.534-.68-1.03-.7h-3.66l-.032.174c2.85.685 4.737 2.339 5.52 4.325z" fill="#F79F1A"/>
      <path d="M16.027 13.563h-2.365l-1.477 8.597h2.361l1.481-8.597zm-7.039 8.588l3.72-8.582h-2.504L7.89 19.433l-.246-.886c-.454-1.065-1.75-2.598-3.272-3.563l2.115 7.17 2.5-.003zm13.785-2.801c.009-.976-.623-1.72-1.985-2.335-.827-.398-1.332-.662-1.326-1.065 0-.356.427-.739 1.353-.739a4.395 4.395 0 011.768.33l.214.097.32-1.863A6.17 6.17 0 0021 13.416c-2.335 0-3.978 1.166-3.993 2.837-.015 1.235 1.175 1.924 2.07 2.336.92.42 1.229.688 1.223 1.065-.006.575-.733.838-1.412.838-.946 0-1.448-.13-2.225-.45l-.302-.138-.332 1.926c.551.239 1.571.448 2.63.457 2.483 0 4.097-1.15 4.115-2.937zm2.809 1.521l3.026.003c.071.3.288 1.289.288 1.289h2.192l-1.914-8.59H27.35c-.567 0-.988.152-1.237.711l-3.51 7.879h2.484s.403-1.06.495-1.292zm1.62-4.163c-.012.024.196-.497.314-.82l.16.74.546 2.484h-1.96c.195-.494.94-2.404.94-2.404zM31.99 6.224H2.01C.9 6.224 0 7.117 0 8.217v2.07h34v-2.07c0-1.1-.9-1.993-2.01-1.993z" fill="#059BBF"/>
      <path d="M31.99 29.479H2.01C.9 29.479 0 28.585 0 27.485v-2.069h34v2.07c0 1.1-.9 1.992-2.01 1.992z" fill="#F79F1A"/>
      <path opacity=".15" d="M1.429 27.485V8.217c0-1.1.9-1.993 2.01-1.993h-1.43A2.002 2.002 0 000 8.217v19.268c0 1.101.9 1.994 2.01 1.994h1.429c-1.11 0-2.01-.893-2.01-1.994z" fill="#202121"/>
    </symbol>
    <symbol id="mastercard" viewBox="0 0 34 34">
      <path d="M34 27.485c0 1.101-.9 1.994-2.01 1.994H2.01C.9 29.479 0 28.585 0 27.485V8.217c0-1.1.9-1.993 2.01-1.993h29.98c1.11 0 2.01.893 2.01 1.993v19.268z" fill="#fff"/>
      <path opacity=".15" d="M1.429 27.485V8.217c0-1.1.9-1.993 2.01-1.993h-1.43A2.002 2.002 0 000 8.217v19.268c0 1.101.9 1.994 2.01 1.994h1.429c-1.11 0-2.01-.893-2.01-1.994z" fill="#202121"/>
      <path d="M28.073 17.02c0 3.13-2.55 5.69-5.738 5.69-3.157 0-5.737-2.56-5.737-5.69 0-3.131 2.55-5.69 5.707-5.69 3.218 0 5.768 2.559 5.768 5.69z" fill="#FFB600"/>
      <path d="M22.335 11.33c3.157 0 5.738 2.559 5.738 5.69 0 3.13-2.55 5.69-5.738 5.69-3.157 0-5.737-2.56-5.737-5.69" fill="#F7981D"/>
      <path d="M22.335 11.33c3.157 0 5.737 2.559 5.737 5.69 0 3.13-2.55 5.69-5.737 5.69" fill="#FF8500"/>
      <path d="M14.624 11.33c-3.127.03-5.677 2.559-5.677 5.69 0 3.13 2.55 5.69 5.738 5.69 1.487 0 2.823-.572 3.855-1.475.213-.181.395-.392.577-.602h-1.184a6.922 6.922 0 01-.425-.572h2.034c.121-.181.243-.392.334-.603h-2.702a3.569 3.569 0 01-.243-.602h3.157a5.934 5.934 0 00.304-1.806c0-.422-.06-.813-.121-1.204h-3.522c.03-.211.091-.392.152-.603h3.157a3.569 3.569 0 00-.243-.602h-2.671c.09-.21.212-.391.334-.602h2.034a2.863 2.863 0 00-.456-.602h-1.123a5.15 5.15 0 01.577-.572c-1.002-.933-2.368-1.475-3.856-1.475 0-.06 0-.06-.03-.06z" fill="#FF5050"/>
      <path d="M8.947 17.02c0 3.131 2.55 5.69 5.738 5.69 1.487 0 2.823-.572 3.855-1.475.213-.18.395-.391.577-.602h-1.184a6.94 6.94 0 01-.425-.572h2.034a3.84 3.84 0 00.334-.602h-2.702a3.567 3.567 0 01-.243-.602h3.157a5.935 5.935 0 00.304-1.807c0-.421-.06-.813-.121-1.204h-3.522c.03-.21.091-.392.152-.602h3.157a3.564 3.564 0 00-.243-.602h-2.671c.09-.211.212-.392.334-.602h2.034a2.866 2.866 0 00-.456-.603h-1.123c.182-.21.364-.391.577-.572-1.002-.933-2.368-1.475-3.856-1.475h-.03" fill="#E52836"/>
      <path d="M14.685 22.71c1.487 0 2.823-.572 3.855-1.475.213-.18.395-.391.577-.602h-1.184a6.94 6.94 0 01-.425-.572h2.034a3.84 3.84 0 00.334-.602h-2.702a3.567 3.567 0 01-.243-.602h3.158a5.935 5.935 0 00.303-1.807c0-.421-.06-.813-.121-1.204h-3.522c.03-.21.091-.392.152-.602h3.157a3.564 3.564 0 00-.243-.602h-2.671c.091-.211.212-.392.334-.602h2.034a2.866 2.866 0 00-.456-.603h-1.123c.182-.21.364-.391.577-.572-1.002-.933-2.368-1.475-3.855-1.475h-.03" fill="#CB2026"/>
      <path d="M16.718 18.465l.091-.512c-.03 0-.09.03-.151.03-.213 0-.243-.12-.213-.18l.182-1.054h.334l.091-.572h-.303l.06-.362h-.607s-.364 1.987-.364 2.228c0 .362.213.512.486.512.182 0 .334-.06.394-.09zm.213-.964c0 .843.577 1.054 1.063 1.054.455 0 .637-.09.637-.09l.122-.572s-.334.15-.638.15c-.668 0-.546-.482-.546-.482h1.244s.091-.391.091-.541c0-.392-.212-.874-.88-.874-.638-.06-1.093.602-1.093 1.355zm1.063-.873c.334 0 .273.392.273.422h-.668c0-.03.06-.422.395-.422zm3.855 1.837l.121-.663s-.303.151-.516.151c-.425 0-.607-.331-.607-.692 0-.723.364-1.114.79-1.114.303 0 .546.18.546.18l.09-.632s-.363-.15-.697-.15c-.699 0-1.397.602-1.397 1.746 0 .752.365 1.264 1.093 1.264.243 0 .577-.09.577-.09zm-8.469-2.379c-.426 0-.73.12-.73.12l-.09.513s.273-.12.667-.12c.213 0 .395.03.395.21 0 .12-.03.15-.03.15h-.273c-.517 0-1.093.211-1.093.904 0 .542.364.662.576.662.425 0 .608-.27.638-.27l-.03.24h.546l.243-1.656c0-.723-.607-.753-.82-.753zm.12 1.355c0 .09-.06.572-.424.572-.182 0-.243-.15-.243-.24 0-.151.09-.362.546-.362.091.03.122.03.122.03zm1.276 1.084c.152 0 .91.03.91-.783 0-.753-.728-.602-.728-.903 0-.15.121-.21.334-.21.09 0 .425.03.425.03l.09-.543s-.212-.06-.576-.06c-.455 0-.91.18-.91.783 0 .692.758.632.758.903 0 .18-.212.21-.364.21-.273 0-.546-.09-.546-.09l-.091.543c.03.06.182.12.698.12zm12.112-2.92l-.121.813s-.243-.301-.577-.301c-.546 0-1.032.662-1.032 1.445 0 .482.243.993.759.993.364 0 .577-.24.577-.24l-.03.21h.606l.456-2.89-.638-.03zm-.273 1.596c0 .33-.152.752-.486.752-.212 0-.334-.18-.334-.481 0-.482.213-.783.486-.783.213 0 .334.15.334.512zM10.07 18.495l.365-2.168.06 2.168h.425l.79-2.168-.334 2.168h.637l.486-2.89h-1.002l-.607 1.776-.03-1.776h-.88l-.486 2.89h.576zm9.41 0c.183-.994.213-1.807.638-1.656.061-.391.152-.542.213-.692h-.122c-.273 0-.485.36-.485.36l.06-.33h-.576l-.395 2.348h.668v-.03zm3.765-2.409c-.425 0-.728.12-.728.12l-.091.513s.273-.12.667-.12c.213 0 .395.03.395.21 0 .12-.03.15-.03.15h-.274c-.516 0-1.092.211-1.092.904 0 .542.364.662.576.662.425 0 .608-.27.638-.27l-.03.24h.546l.243-1.656c.03-.723-.607-.753-.82-.753zm.152 1.355c0 .09-.06.572-.425.572-.182 0-.243-.15-.243-.24 0-.151.091-.362.547-.362.09.03.09.03.12.03zm1.184 1.054c.182-.994.213-1.807.638-1.656.06-.391.151-.542.212-.692h-.121c-.274 0-.486.36-.486.36l.06-.33h-.576l-.395 2.348h.668v-.03z" fill="#fff"/>
      <path d="M15.777 18.043c0 .362.213.512.486.512.213 0 .395-.06.455-.09l.092-.512c-.03 0-.091.03-.152.03-.213 0-.243-.12-.213-.18l.183-1.054h.333l.091-.572h-.303l.06-.362m.426 1.686c0 .843.273 1.054.759 1.054.455 0 .637-.09.637-.09l.122-.572s-.334.15-.638.15c-.668 0-.546-.482-.546-.482h1.244s.091-.391.091-.541c0-.392-.212-.874-.88-.874-.637-.06-.79.602-.79 1.355zm.759-.873c.334 0 .394.392.394.422H17.6c0-.03.06-.422.395-.422zm3.855 1.837l.121-.663s-.303.151-.516.151c-.425 0-.607-.331-.607-.692 0-.723.364-1.114.79-1.114.303 0 .546.18.546.18l.09-.632s-.363-.15-.697-.15c-.699 0-1.093.602-1.093 1.746 0 .752.06 1.264.79 1.264.242 0 .576-.09.576-.09zm-9.289-1.716s.273-.12.667-.12c.213 0 .395.03.395.21 0 .12-.03.15-.03.15h-.273c-.517 0-1.093.211-1.093.904 0 .542.364.662.576.662.425 0 .608-.27.638-.27l-.03.24h.546l.243-1.656c0-.692-.607-.723-.85-.723l-.79.603zm1.244.692c0 .09-.364.572-.728.572-.182 0-.243-.15-.243-.24 0-.151.09-.362.546-.362.091.03.425.03.425.03zm.304 1.024s.182.06.698.06c.152 0 .91.03.91-.783 0-.753-.728-.602-.728-.903 0-.15.122-.21.334-.21.091 0 .425.03.425.03l.091-.543s-.212-.06-.577-.06c-.455 0-.607.18-.607.783 0 .692.456.632.456.903 0 .18-.213.21-.365.21m12.022-1.534s-.243-.301-.577-.301c-.547 0-.729.662-.729 1.445 0 .482-.06.994.456.994.364 0 .576-.241.576-.241l-.03.21h.607l.456-2.89-.76.783zm-.03.783c0 .331-.274.752-.608.752-.212 0-.334-.18-.334-.481 0-.482.213-.783.486-.783.213 0 .455.15.455.512zM10.07 18.495l.365-2.168.06 2.168h.425l.79-2.168-.334 2.168h.637l.486-2.89h-.759l-.85 1.776-.03-1.776h-.334l-1.032 2.89h.576zm8.774 0h.637c.182-.994.213-1.807.638-1.656.06-.391.151-.542.212-.692h-.121c-.274 0-.486.36-.486.36l.06-.33m2.641.572s.274-.12.668-.12c.213 0 .395.03.395.21 0 .12-.03.15-.03.15h-.274c-.516 0-1.092.211-1.092.904 0 .542.364.662.576.662.425 0 .608-.27.638-.27l-.03.24h.546l.243-1.656c0-.692-.607-.723-.85-.723l-.79.603zm1.245.692c0 .09-.364.572-.728.572-.183 0-.243-.15-.243-.24 0-.151.09-.362.546-.362.122.03.425.03.425.03zm.274 1.054h.637c.182-.994.213-1.807.638-1.656.06-.391.151-.542.212-.692h-.121c-.273 0-.486.36-.486.36l.06-.33" fill="#DCE5E5"/>
    </symbol>
  </defs>
</svg>
