<svg width="14" height="14" viewBox="0 0 14 14" fill="none" xmlns="http://www.w3.org/2000/svg">
<path d="M6.06026 1.58301C6.3795 0.705528 7.6205 0.705531 7.93974 1.58301L9.00353 4.507C9.10331 4.78124 9.31791 4.99822 9.59104 5.10102L12.5132 6.20081C13.3769 6.52586 13.3769 7.74758 12.5132 8.07263L9.59103 9.17242C9.31791 9.27522 9.10331 9.49219 9.00353 9.76644L7.93974 12.6904C7.6205 13.5679 6.3795 13.5679 6.06026 12.6904L4.99647 9.76644C4.89669 9.49219 4.68209 9.27522 4.40897 9.17242L1.48676 8.07263C0.623078 7.74758 0.623078 6.52586 1.48676 6.20081L4.40897 5.10102C4.6821 4.99822 4.89669 4.78124 4.99647 4.507L6.06026 1.58301Z" fill="#66F894"/>
</svg>
