<svg width="40" height="30" viewBox="0 0 40 30" fill="none" xmlns="http://www.w3.org/2000/svg">
<path d="M9.36523 0.828125C11.8848 0.828125 14.0381 1.80957 15.8252 3.77246C16.6748 4.68066 17.3486 5.79395 17.8467 7.1123C18.3447 8.40137 18.5938 9.70508 18.5938 11.0234C18.5938 13.8066 17.6855 16.6338 15.8691 19.5049C14.0527 22.3467 11.6211 24.7637 8.57422 26.7559C5.99609 28.4551 3.97461 29.3047 2.50977 29.3047C1.92383 29.3047 1.44043 29.1289 1.05957 28.7773C0.678711 28.3965 0.488281 27.9277 0.488281 27.3711C0.488281 26.4922 1.04492 25.7598 2.1582 25.1738C4.82422 23.7969 6.77246 22.4346 8.00293 21.0869C9.1748 19.8271 9.76074 18.9043 9.76074 18.3184C9.76074 17.7617 9.32129 17.4248 8.44238 17.3076L7.87109 17.2197L7.21191 17.1758C5.30762 16.8828 3.75488 16.0039 2.55371 14.5391C1.38184 13.0449 0.795898 11.2432 0.795898 9.13379C0.795898 8.1084 0.986328 7.09766 1.36719 6.10156C1.77734 5.10547 2.31934 4.24121 2.99316 3.50879C4.66309 1.72168 6.78711 0.828125 9.36523 0.828125ZM30.3711 0.828125C32.8613 0.828125 35 1.80957 36.7871 3.77246C37.6367 4.68066 38.3105 5.79395 38.8086 7.1123C39.3066 8.40137 39.5557 9.70508 39.5557 11.0234C39.5557 13.8066 38.6475 16.6338 36.8311 19.5049C35.0439 22.3467 32.627 24.7637 29.5801 26.7559C27.002 28.4551 24.9805 29.3047 23.5156 29.3047C22.9297 29.3047 22.4463 29.1289 22.0654 28.7773C21.6846 28.3965 21.4941 27.9277 21.4941 27.3711C21.4941 26.4922 22.0508 25.7598 23.1641 25.1738C25.8594 23.7383 27.8076 22.376 29.0088 21.0869C30.1514 19.8271 30.7227 18.9043 30.7227 18.3184C30.7227 17.7617 30.2832 17.4248 29.4043 17.3076L28.877 17.2197L28.1738 17.1758C26.2695 16.9121 24.7314 16.0332 23.5596 14.5391C22.3877 13.0449 21.8018 11.2432 21.8018 9.13379C21.8018 8.1377 21.9922 7.1416 22.373 6.14551C22.7832 5.12012 23.3252 4.24121 23.999 3.50879C25.6396 1.72168 27.7637 0.828125 30.3711 0.828125Z" fill="#FEC830"/>
</svg>
