<svg width="40" height="40" viewBox="0 0 40 40" fill="none" xmlns="http://www.w3.org/2000/svg">
<rect width="40" height="40" rx="6" fill="#FEC830"/>
<path d="M28.4049 24.1821V26.7321C28.4059 26.9688 28.3574 27.2031 28.2625 27.42C28.1677 27.6369 28.0286 27.8316 27.8542 27.9917C27.6797 28.1517 27.4738 28.2735 27.2495 28.3494C27.0253 28.4252 26.7877 28.4534 26.5519 28.4321C23.9363 28.1479 21.4238 27.2541 19.2164 25.8226C17.1627 24.5175 15.4214 22.7763 14.1164 20.7226C12.6799 18.5051 11.7859 15.9804 11.5069 13.3531C11.4857 13.118 11.5136 12.8811 11.5889 12.6575C11.6643 12.4338 11.7853 12.2283 11.9445 12.054C12.1036 11.8797 12.2972 11.7404 12.5131 11.645C12.729 11.5497 12.9624 11.5003 13.1984 11.5001H15.7484C16.1609 11.496 16.5608 11.6421 16.8736 11.9111C17.1864 12.1801 17.3907 12.5536 17.4484 12.9621C17.556 13.7781 17.7556 14.5794 18.0434 15.3506C18.1578 15.6548 18.1825 15.9855 18.1147 16.3033C18.0469 16.6212 17.8894 16.913 17.6609 17.1441L16.5814 18.2236C17.7914 20.3516 19.5534 22.1136 21.6814 23.3236L22.7609 22.2441C22.992 22.0155 23.2838 21.8581 23.6017 21.7903C23.9195 21.7225 24.2502 21.7472 24.5544 21.8616C25.3256 22.1493 26.1268 22.349 26.9429 22.4566C27.3558 22.5148 27.7329 22.7228 28.0025 23.041C28.272 23.3591 28.4152 23.7652 28.4049 24.1821Z" stroke="black" stroke-width="1.5" stroke-linecap="round" stroke-linejoin="round"/>
</svg>
