<svg width="63" height="37" viewBox="0 0 63 37" fill="none" xmlns="http://www.w3.org/2000/svg">
<path d="M59.5345 1.73278C59.5345 0.773719 60.3162 0 61.2672 0C62.2263 0 63 0.781778 63 1.73278C63 2.68379 62.2182 3.46552 61.2672 3.46552C60.3082 3.46552 59.5345 2.69185 59.5345 1.73278Z" fill="#504C5C"/>
<path d="M44.6487 1.73278C44.6487 0.773719 45.4305 0 46.3815 0C47.3406 0 48.1143 0.781778 48.1143 1.73278C48.1143 2.68379 47.3325 3.46552 46.3815 3.46552C45.4305 3.46552 44.6487 2.69185 44.6487 1.73278Z" fill="#504C5C"/>
<path d="M44.6487 18.053C44.6487 17.0939 45.4305 16.3202 46.3815 16.3202C47.3406 16.3202 48.1143 17.102 48.1143 18.053C48.1143 19.0121 47.3325 19.7857 46.3815 19.7857C45.4305 19.7938 44.6487 19.0121 44.6487 18.053Z" fill="#504C5C"/>
<path d="M29.763 1.73278C29.763 0.773719 30.5448 0 31.4958 0C32.4548 0 33.2285 0.781778 33.2285 1.73278C33.2285 2.68379 32.4468 3.46552 31.4958 3.46552C30.5448 3.46552 29.763 2.69185 29.763 1.73278Z" fill="#504C5C"/>
<path d="M29.763 18.053C29.763 17.0939 30.5448 16.3202 31.4958 16.3202C32.4548 16.3202 33.2285 17.102 33.2285 18.053C33.2285 19.0121 32.4468 19.7857 31.4958 19.7857C30.5448 19.7938 29.763 19.0121 29.763 18.053Z" fill="#504C5C"/>
<path d="M29.763 34.3732C29.763 33.4142 30.5448 32.6404 31.4958 32.6404C32.4548 32.6404 33.2285 33.4222 33.2285 34.3732C33.2285 35.3323 32.4468 36.106 31.4958 36.106C30.5448 36.114 29.763 35.3323 29.763 34.3732Z" fill="#504C5C"/>
<path d="M14.8856 1.73278C14.8856 0.773719 15.6673 0 16.6183 0C17.5774 0 18.3511 0.781778 18.3511 1.73278C18.3511 2.68379 17.5693 3.46552 16.6183 3.46552C15.6593 3.46552 14.8856 2.69185 14.8856 1.73278Z" fill="#504C5C"/>
<path d="M14.8856 18.053C14.8856 17.0939 15.6673 16.3202 16.6183 16.3202C17.5774 16.3202 18.3511 17.102 18.3511 18.053C18.3511 19.0121 17.5693 19.7857 16.6183 19.7857C15.6593 19.7938 14.8856 19.0121 14.8856 18.053Z" fill="#504C5C"/>
<path d="M-0.000211 1.73278C-0.000211 2.68976 0.775569 3.46552 1.73255 3.46552C2.68953 3.46552 3.46533 2.68976 3.46533 1.73278C3.46533 0.775805 2.68953 0 1.73255 0C0.775569 0 -0.000211 0.775805 -0.000211 1.73278Z" fill="#504C5C"/>
</svg>
