<svg width="46" height="46" viewBox="0 0 46 46" fill="none" xmlns="http://www.w3.org/2000/svg">
<g clip-path="url(#clip0)">
<path d="M40.8662 4.13369C42.3956 3.75133 44.1545 4.3631 45.6839 4.51605C46.0663 4.51605 46.1427 5.12782 45.6839 5.20429C44.1545 5.28076 42.3192 5.20429 40.8662 4.82193C40.5602 4.66899 40.5602 4.21016 40.8662 4.13369Z" fill="#504C5C"/>
<path d="M31.6895 6.19841C32.7601 5.12782 34.4424 4.8984 35.8189 4.97488C36.1248 4.97488 36.1248 5.4337 35.8189 5.4337C35.0542 5.51017 34.366 5.66312 33.6777 5.89253C33.066 6.12194 32.5307 6.42783 31.9189 6.65724C31.6895 6.81018 31.4601 6.42783 31.6895 6.19841Z" fill="#504C5C"/>
<path d="M23.6599 12.1632C23.9658 11.475 24.5776 10.8632 25.1894 10.4044C25.7247 9.86906 26.4129 9.41023 27.0247 9.02787C27.2541 8.87493 27.4835 9.18082 27.2541 9.33376C26.6423 9.79259 26.107 10.3279 25.6482 10.8632C25.1129 11.3985 24.7305 12.0867 24.1952 12.622C23.9659 12.9279 23.5071 12.5456 23.6599 12.1632Z" fill="#504C5C"/>
<path d="M22.1304 16.9044C22.3598 16.5221 22.8952 16.8279 22.6657 17.2103C22.5127 17.5927 22.2833 18.0515 22.1304 18.4338C21.9774 18.9691 22.054 19.5044 21.8246 19.9633C21.7481 20.1927 21.3658 20.1927 21.2893 19.9633C20.9068 19.1221 21.6715 17.7456 22.1304 16.9044Z" fill="#504C5C"/>
<path d="M20.0662 26.4633C20.0662 25.6986 20.0662 24.9339 20.2192 24.2457C20.2956 23.8633 20.7544 23.8633 20.7544 24.2457C20.8309 24.9339 20.8309 25.5457 20.8309 26.2339C20.8309 26.9222 20.9839 27.6104 20.7544 28.2987C20.678 28.6044 20.1427 28.6044 20.0662 28.2987C19.9131 27.6869 19.9896 27.0751 20.0662 26.4633Z" fill="#504C5C"/>
<path d="M21.901 33.1928C22.2069 33.9575 22.5128 34.7221 22.9716 35.4868C23.354 36.1752 23.8893 36.8634 23.9657 37.6281C24.0422 38.0105 23.5069 38.087 23.2775 37.9339C22.6657 37.3987 22.3597 36.481 22.0539 35.7162C21.6715 34.9515 21.4422 34.1869 21.2892 33.4222C21.2128 32.9634 21.8247 32.8105 21.901 33.1928Z" fill="#504C5C"/>
<path d="M25.3426 39.0811C25.8014 39.6163 26.2602 40.2281 26.7191 40.687C26.9485 40.9164 27.2544 41.1458 27.5602 41.2987C27.8661 41.4517 28.0191 41.4517 28.2485 41.7576C28.4014 41.987 28.2485 42.2929 28.0191 42.3693C27.3308 42.5224 26.7191 41.834 26.2602 41.3752C25.7249 40.7634 25.3426 40.0753 24.9602 39.3106C24.8836 39.0811 25.1896 38.8517 25.3426 39.0811Z" fill="#504C5C"/>
<path d="M31.2307 40.9929C31.613 41.2988 32.0719 41.5282 32.5307 41.5282C32.9131 41.5282 33.3719 41.4517 33.6778 41.7576C33.8307 41.9105 33.8307 42.14 33.6778 42.2929C32.9131 43.0575 31.3836 41.987 30.9248 41.3751C30.7717 41.1458 31.0012 40.8398 31.2307 40.9929Z" fill="#504C5C"/>
<path d="M36.1251 39.3869C36.7368 39.3105 37.4251 39.1574 38.0368 38.928C38.7251 38.6223 39.031 38.087 39.4133 37.4751C39.6427 37.1692 40.1016 37.2457 40.178 37.7045C40.2545 39.7692 37.6545 40.1516 36.1251 39.9222C35.8956 39.8458 35.8956 39.3869 36.1251 39.3869Z" fill="#504C5C"/>
<path d="M39.9483 34.3399C40.5601 33.1928 40.4071 32.0457 40.6366 30.8222C40.713 30.5164 41.1719 30.5164 41.2483 30.8222C41.4777 32.1222 41.0954 33.4987 40.3307 34.5693C40.1777 34.7987 39.8717 34.6457 39.9483 34.3399Z" fill="#504C5C"/>
<path d="M39.6425 21.1868C41.019 22.4868 41.3249 24.3987 41.2484 26.1574C41.2484 26.4633 40.7131 26.4633 40.7131 26.1574C40.6366 24.5515 40.1778 22.9456 39.1837 21.6458C38.8777 21.3398 39.3365 20.8809 39.6425 21.1868Z" fill="#504C5C"/>
<path d="M35.2071 15.6809C36.5836 16.3691 37.6542 17.6691 38.4954 18.9691C38.7248 19.275 38.1895 19.5809 38.0366 19.275C37.1189 18.1279 35.9719 17.2103 34.9013 16.2162C34.5954 15.9103 34.9014 15.5279 35.2071 15.6809Z" fill="#504C5C"/>
<path d="M30.6956 11.2455C31.7662 11.2455 32.9897 12.1632 33.6779 12.9279C33.9838 13.2338 33.525 13.6926 33.2191 13.3867C32.8368 13.0044 32.3779 12.6985 31.9191 12.4691C31.4603 12.2397 30.925 12.0867 30.4661 11.7808C30.2367 11.6279 30.4661 11.2455 30.6956 11.2455Z" fill="#504C5C"/>
<path d="M20.4482 8.03372C21.06 8.03372 21.6717 8.26314 22.2835 8.33961C23.0482 8.49255 23.8129 8.56902 24.5012 8.87491C24.8835 9.02785 24.7306 9.56315 24.3482 9.48668C23.66 9.33374 22.8953 9.25727 22.207 9.1808C21.5953 9.10432 20.8306 9.10432 20.2953 8.72197C19.9129 8.56902 20.066 8.03372 20.4482 8.03372Z" fill="#504C5C"/>
<path d="M13.6423 7.26902C14.6364 7.0396 15.8599 7.26902 16.9305 7.34549C17.3129 7.34549 17.3129 7.88078 16.9305 7.88078C15.8599 7.95726 14.7129 8.18667 13.6423 7.95726C13.26 7.88078 13.26 7.34549 13.6423 7.26902Z" fill="#504C5C"/>
<path d="M6.53029 7.65138C7.06559 7.49843 7.6009 7.5749 8.13632 7.5749C8.6715 7.5749 9.2834 7.5749 9.8187 7.65138C10.2011 7.65138 10.2011 8.26315 9.8187 8.26315C9.2834 8.26315 8.6715 8.26315 8.13632 8.33962C7.60102 8.33962 7.06572 8.41609 6.53029 8.26315C6.22441 8.26315 6.22441 7.80432 6.53029 7.65138Z" fill="#504C5C"/>
<path d="M0.183418 7.8808C1.17755 6.88667 2.17167 5.96901 3.24215 5.12783C4.00686 4.51606 5.15405 3.36899 6.14818 3.44546C6.53054 3.44546 6.83643 3.90429 6.60701 4.28664C6.14818 5.05136 5.07758 5.51018 4.38934 5.96901C3.54816 6.58078 2.70697 7.3455 1.86579 8.11021C3.39522 8.72198 4.92464 9.56316 6.3776 10.3279C6.83643 10.5573 6.53054 11.3985 5.99512 11.2455C4.08333 10.6338 2.40096 9.41022 0.412706 9.02786C-0.0459967 8.95139 -0.122592 8.26315 0.183418 7.8808Z" fill="#504C5C"/>
</g>
<defs>
<clipPath id="clip0">
<rect width="46" height="46" fill="white" transform="matrix(-1 0 0 1 46 0)"/>
</clipPath>
</defs>
</svg>
