

<svg width="18" height="19" viewBox="0 0 18 19" fill="none" xmlns="http://www.w3.org/2000/svg">
<path d="M17.9531 7.36029C17.8353 6.99581 17.512 6.73694 17.1295 6.70247L11.9342 6.23073L9.87984 1.4223C9.72837 1.06991 9.38339 0.841797 9.00009 0.841797C8.6168 0.841797 8.27182 1.06991 8.12034 1.42313L6.06598 6.23073L0.869863 6.70247C0.488078 6.73776 0.165621 6.99581 0.0471028 7.36029C-0.0714153 7.72477 0.0380389 8.12455 0.326849 8.37655L4.25388 11.8206L3.09589 16.9215C3.01115 17.2966 3.15673 17.6843 3.46792 17.9092C3.63519 18.0301 3.83089 18.0916 4.02824 18.0916C4.19839 18.0916 4.36718 18.0457 4.51865 17.9551L9.00009 15.2767L13.4799 17.9551C13.8077 18.1523 14.2209 18.1343 14.5314 17.9092C14.8428 17.6836 14.9882 17.2958 14.9035 16.9215L13.7455 11.8206L17.6725 8.37724C17.9613 8.12455 18.0716 7.72546 17.9531 7.36029Z" fill="#AA43A2"/>
</svg>
