<svg width="141" height="283" viewBox="0 0 141 283" fill="none" xmlns="http://www.w3.org/2000/svg">
<path d="M135.901 13.4861C138.989 16.574 143.984 16.574 147.072 13.4861C150.16 10.3982 150.16 5.40385 147.072 2.31594C143.984 -0.771965 138.989 -0.771964 135.901 2.31594C132.84 5.377 132.84 10.3982 135.901 13.4861ZM102.498 35.6922C105.586 32.6043 110.581 32.6043 113.669 35.6922C116.756 38.7801 116.756 43.7744 113.669 46.8623C110.581 49.9503 105.586 49.9503 102.498 46.8623C99.4373 43.8013 99.4373 38.7801 102.498 35.6922ZM69.1221 69.0953C72.21 66.0074 77.2044 66.0074 80.2923 69.0953C83.3802 72.1832 83.3802 77.1775 80.2923 80.2655C77.2044 83.3534 72.21 83.3534 69.1221 80.2655C66.0342 77.1775 66.0342 72.1832 69.1221 69.0953ZM35.719 102.498C38.8069 99.4104 43.8013 99.4104 46.8892 102.498C49.9771 105.586 49.9771 110.581 46.8892 113.669C43.8013 116.756 38.8069 116.756 35.719 113.669C32.6311 110.581 32.6311 105.586 35.719 102.498ZM2.3159 135.901C5.40382 132.814 10.3982 132.814 13.4861 135.901C16.574 138.989 16.574 143.984 13.4861 147.072C10.3982 150.16 5.40382 150.16 2.3159 147.072C-0.771991 143.984 -0.771991 138.989 2.3159 135.901ZM169.305 35.6922C172.392 32.6043 177.387 32.6043 180.475 35.6922C183.563 38.7801 183.563 43.7744 180.475 46.8623C177.387 49.9502 172.392 49.9502 169.305 46.8623C166.217 43.8013 166.217 38.7801 169.305 35.6922ZM135.901 69.0953C138.989 66.0074 143.984 66.0074 147.072 69.0953C150.16 72.1832 150.16 77.1775 147.072 80.2654C143.984 83.3534 138.989 83.3534 135.901 80.2654C132.84 77.1775 132.84 72.1832 135.901 69.0953ZM102.498 102.498C105.586 99.4104 110.581 99.4104 113.669 102.498C116.756 105.586 116.756 110.581 113.669 113.669C110.581 116.756 105.586 116.756 102.498 113.669C99.4373 110.581 99.4373 105.586 102.498 102.498ZM69.1221 135.901C72.21 132.813 77.2044 132.813 80.2923 135.901C83.3802 138.989 83.3802 143.984 80.2923 147.072C77.2044 150.16 72.21 150.16 69.1221 147.072C66.0342 143.984 66.0342 138.989 69.1221 135.901ZM35.719 169.304C38.8069 166.217 43.8013 166.217 46.8892 169.304C49.9771 172.392 49.9771 177.387 46.8892 180.475C43.8013 183.563 38.8069 183.563 35.719 180.475C32.6311 177.387 32.6311 172.392 35.719 169.304ZM202.708 69.0953C205.796 66.0074 210.79 66.0074 213.878 69.0953C216.966 72.1832 216.966 77.1775 213.878 80.2654C210.79 83.3533 205.796 83.3533 202.708 80.2654C199.62 77.1775 199.62 72.1832 202.708 69.0953ZM169.305 102.498C172.392 99.4104 177.387 99.4104 180.475 102.498C183.563 105.586 183.563 110.581 180.475 113.669C177.387 116.756 172.392 116.756 169.305 113.669C166.217 110.581 166.217 105.586 169.305 102.498ZM135.901 135.901C138.989 132.813 143.984 132.813 147.072 135.901C150.16 138.989 150.16 143.984 147.072 147.072C143.984 150.16 138.989 150.16 135.901 147.072C132.84 143.984 132.84 138.989 135.901 135.901ZM102.498 169.304C105.586 166.217 110.581 166.217 113.669 169.304C116.756 172.392 116.756 177.387 113.669 180.475C110.581 183.563 105.586 183.563 102.498 180.475C99.4373 177.387 99.4373 172.392 102.498 169.304ZM69.1221 202.708C72.21 199.62 77.2044 199.62 80.2923 202.708C83.3802 205.796 83.3802 210.79 80.2923 213.878C77.2044 216.966 72.21 216.966 69.1221 213.878C66.0342 210.79 66.0342 205.796 69.1221 202.708ZM236.111 102.498C239.199 99.4104 244.193 99.4104 247.281 102.498C250.369 105.586 250.369 110.581 247.281 113.669C244.193 116.756 239.199 116.756 236.111 113.669C233.023 110.581 233.023 105.586 236.111 102.498ZM202.708 135.901C205.796 132.813 210.79 132.813 213.878 135.901C216.966 138.989 216.966 143.984 213.878 147.072C210.79 150.16 205.796 150.16 202.708 147.072C199.62 143.984 199.62 138.989 202.708 135.901ZM169.305 169.304C172.392 166.217 177.387 166.217 180.475 169.304C183.563 172.392 183.563 177.387 180.475 180.475C177.387 183.563 172.392 183.563 169.305 180.475C166.217 177.387 166.217 172.392 169.305 169.304ZM135.901 202.708C138.989 199.62 143.984 199.62 147.072 202.708C150.16 205.796 150.16 210.79 147.072 213.878C143.984 216.966 138.989 216.966 135.901 213.878C132.84 210.79 132.84 205.796 135.901 202.708ZM102.498 236.111C105.586 233.023 110.581 233.023 113.669 236.111C116.756 239.199 116.756 244.193 113.669 247.281C110.581 250.369 105.586 250.369 102.498 247.281C99.4373 244.193 99.4373 239.199 102.498 236.111ZM269.514 135.901C272.602 132.813 277.596 132.813 280.684 135.901C283.772 138.989 283.772 143.984 280.684 147.072C277.596 150.16 272.602 150.16 269.514 147.072C266.426 143.984 266.426 138.989 269.514 135.901ZM236.111 169.304C239.199 166.217 244.193 166.217 247.281 169.304C250.369 172.392 250.369 177.387 247.281 180.475C244.193 183.563 239.199 183.563 236.111 180.475C233.023 177.387 233.023 172.392 236.111 169.304ZM202.708 202.708C205.796 199.62 210.79 199.62 213.878 202.708C216.966 205.796 216.966 210.79 213.878 213.878C210.79 216.966 205.796 216.966 202.708 213.878C199.62 210.79 199.62 205.796 202.708 202.708ZM169.305 236.111C172.392 233.023 177.387 233.023 180.475 236.111C183.563 239.199 183.563 244.193 180.475 247.281C177.387 250.369 172.392 250.369 169.305 247.281C166.217 244.193 166.217 239.199 169.305 236.111ZM135.901 269.514C138.989 266.426 143.984 266.426 147.072 269.514C150.16 272.602 150.16 277.596 147.072 280.684C143.984 283.772 138.989 283.772 135.901 280.684C132.814 277.596 132.84 272.602 135.901 269.514Z" fill="#AA43A2"/>
</svg>
