<svg width="142" height="283" viewBox="0 0 142 283" fill="none" xmlns="http://www.w3.org/2000/svg">
<path d="M-5.09854 13.4861C-2.01063 16.574 2.98374 16.574 6.07164 13.4861C9.15955 10.3982 9.15955 5.40385 6.07164 2.31594C2.98373 -0.771965 -2.01064 -0.771964 -5.09854 2.31594C-8.15959 5.377 -8.15959 10.3982 -5.09854 13.4861ZM-38.5017 35.6922C-35.4138 32.6043 -30.4194 32.6043 -27.3315 35.6922C-24.2436 38.7801 -24.2436 43.7744 -27.3315 46.8623C-30.4194 49.9503 -35.4138 49.9503 -38.5017 46.8623C-41.5627 43.8013 -41.5627 38.7801 -38.5017 35.6922ZM-71.8779 69.0953C-68.79 66.0074 -63.7956 66.0074 -60.7077 69.0953C-57.6198 72.1832 -57.6198 77.1775 -60.7077 80.2655C-63.7956 83.3534 -68.79 83.3534 -71.8779 80.2655C-74.9658 77.1775 -74.9658 72.1832 -71.8779 69.0953ZM-105.281 102.498C-102.193 99.4104 -97.1987 99.4104 -94.1108 102.498C-91.0229 105.586 -91.0229 110.581 -94.1108 113.669C-97.1987 116.756 -102.193 116.756 -105.281 113.669C-108.369 110.581 -108.369 105.586 -105.281 102.498ZM-138.684 135.901C-135.596 132.814 -130.602 132.814 -127.514 135.901C-124.426 138.989 -124.426 143.984 -127.514 147.072C-130.602 150.16 -135.596 150.16 -138.684 147.072C-141.772 143.984 -141.772 138.989 -138.684 135.901ZM28.3046 35.6922C31.3925 32.6043 36.3868 32.6043 39.4747 35.6922C42.5627 38.7801 42.5627 43.7744 39.4748 46.8623C36.3868 49.9502 31.3925 49.9502 28.3046 46.8623C25.2167 43.8013 25.2167 38.7801 28.3046 35.6922ZM-5.09854 69.0953C-2.01063 66.0074 2.98374 66.0074 6.07165 69.0953C9.15955 72.1832 9.15955 77.1775 6.07165 80.2654C2.98374 83.3534 -2.01063 83.3534 -5.09853 80.2654C-8.15958 77.1775 -8.15959 72.1832 -5.09854 69.0953ZM-38.5017 102.498C-35.4137 99.4104 -30.4194 99.4104 -27.3315 102.498C-24.2436 105.586 -24.2436 110.581 -27.3315 113.669C-30.4194 116.756 -35.4137 116.756 -38.5017 113.669C-41.5627 110.581 -41.5627 105.586 -38.5017 102.498ZM-71.8779 135.901C-68.79 132.813 -63.7956 132.813 -60.7077 135.901C-57.6198 138.989 -57.6198 143.984 -60.7077 147.072C-63.7956 150.16 -68.79 150.16 -71.8779 147.072C-74.9658 143.984 -74.9658 138.989 -71.8779 135.901ZM-105.281 169.304C-102.193 166.217 -97.1987 166.217 -94.1108 169.304C-91.0229 172.392 -91.0229 177.387 -94.1108 180.475C-97.1987 183.563 -102.193 183.563 -105.281 180.475C-108.369 177.387 -108.369 172.392 -105.281 169.304ZM61.7077 69.0953C64.7956 66.0074 69.79 66.0074 72.8779 69.0953C75.9658 72.1832 75.9658 77.1775 72.8779 80.2654C69.79 83.3533 64.7956 83.3533 61.7077 80.2654C58.6198 77.1775 58.6198 72.1832 61.7077 69.0953ZM28.3046 102.498C31.3925 99.4104 36.3868 99.4104 39.4748 102.498C42.5627 105.586 42.5627 110.581 39.4748 113.669C36.3869 116.756 31.3925 116.756 28.3046 113.669C25.2167 110.581 25.2167 105.586 28.3046 102.498ZM-5.09853 135.901C-2.01062 132.813 2.98375 132.813 6.07165 135.901C9.15956 138.989 9.15956 143.984 6.07165 147.072C2.98375 150.16 -2.01062 150.16 -5.09853 147.072C-8.15958 143.984 -8.15958 138.989 -5.09853 135.901ZM-38.5016 169.304C-35.4137 166.217 -30.4194 166.217 -27.3315 169.304C-24.2435 172.392 -24.2435 177.387 -27.3315 180.475C-30.4194 183.563 -35.4137 183.563 -38.5016 180.475C-41.5627 177.387 -41.5627 172.392 -38.5016 169.304ZM-71.8779 202.708C-68.79 199.62 -63.7956 199.62 -60.7077 202.708C-57.6198 205.796 -57.6198 210.79 -60.7077 213.878C-63.7956 216.966 -68.79 216.966 -71.8779 213.878C-74.9658 210.79 -74.9658 205.796 -71.8779 202.708ZM95.1108 102.498C98.1987 99.4104 103.193 99.4104 106.281 102.498C109.369 105.586 109.369 110.581 106.281 113.669C103.193 116.756 98.1987 116.756 95.1108 113.669C92.0229 110.581 92.0229 105.586 95.1108 102.498ZM61.7077 135.901C64.7956 132.813 69.79 132.813 72.8779 135.901C75.9658 138.989 75.9658 143.984 72.8779 147.072C69.79 150.16 64.7956 150.16 61.7077 147.072C58.6198 143.984 58.6198 138.989 61.7077 135.901ZM28.3046 169.304C31.3925 166.217 36.3869 166.217 39.4748 169.304C42.5627 172.392 42.5627 177.387 39.4748 180.475C36.3869 183.563 31.3925 183.563 28.3046 180.475C25.2167 177.387 25.2167 172.392 28.3046 169.304ZM-5.09852 202.708C-2.01062 199.62 2.98375 199.62 6.07166 202.708C9.15956 205.796 9.15956 210.79 6.07166 213.878C2.98375 216.966 -2.01062 216.966 -5.09852 213.878C-8.15957 210.79 -8.15957 205.796 -5.09852 202.708ZM-38.5016 236.111C-35.4137 233.023 -30.4194 233.023 -27.3314 236.111C-24.2435 239.199 -24.2435 244.193 -27.3314 247.281C-30.4194 250.369 -35.4137 250.369 -38.5016 247.281C-41.5627 244.193 -41.5627 239.199 -38.5016 236.111ZM128.514 135.901C131.602 132.813 136.596 132.813 139.684 135.901C142.772 138.989 142.772 143.984 139.684 147.072C136.596 150.16 131.602 150.16 128.514 147.072C125.426 143.984 125.426 138.989 128.514 135.901ZM95.1108 169.304C98.1987 166.217 103.193 166.217 106.281 169.304C109.369 172.392 109.369 177.387 106.281 180.475C103.193 183.563 98.1987 183.563 95.1108 180.475C92.0229 177.387 92.0229 172.392 95.1108 169.304ZM61.7077 202.708C64.7956 199.62 69.79 199.62 72.8779 202.708C75.9658 205.796 75.9658 210.79 72.8779 213.878C69.79 216.966 64.7956 216.966 61.7077 213.878C58.6198 210.79 58.6198 205.796 61.7077 202.708ZM28.3046 236.111C31.3925 233.023 36.3869 233.023 39.4748 236.111C42.5627 239.199 42.5627 244.193 39.4748 247.281C36.3869 250.369 31.3925 250.369 28.3046 247.281C25.2167 244.193 25.2167 239.199 28.3046 236.111ZM-5.09852 269.514C-2.01061 266.426 2.98376 266.426 6.07166 269.514C9.15957 272.602 9.15957 277.596 6.07166 280.684C2.98376 283.772 -2.01061 283.772 -5.09852 280.684C-8.18642 277.596 -8.15957 272.602 -5.09852 269.514Z" fill="#AA43A2"/>
</svg>
