<svg width="39" height="79" viewBox="0 0 39 79" fill="none" xmlns="http://www.w3.org/2000/svg">
<path d="M37.9372 3.76468C38.7991 4.62667 40.1933 4.62667 41.0553 3.76468C41.9173 2.90268 41.9173 1.50849 41.0553 0.6465C40.1933 -0.215495 38.7991 -0.215495 37.9372 0.6465C37.0827 1.501 37.0827 2.90268 37.9372 3.76468ZM28.6126 9.96354C29.4746 9.10154 30.8688 9.10154 31.7308 9.96354C32.5928 10.8255 32.5928 12.2197 31.7308 13.0817C30.8688 13.9437 29.4746 13.9437 28.6126 13.0817C27.7581 12.2272 27.7581 10.8255 28.6126 9.96354ZM19.2956 19.2881C20.1576 18.4261 21.5518 18.4261 22.4137 19.2881C23.2757 20.1501 23.2757 21.5443 22.4137 22.4063C21.5518 23.2683 20.1576 23.2683 19.2956 22.4063C18.4336 21.5443 18.4336 20.1501 19.2956 19.2881ZM9.97103 28.6126C10.833 27.7506 12.2272 27.7506 13.0892 28.6126C13.9512 29.4746 13.9512 30.8688 13.0892 31.7308C12.2272 32.5928 10.833 32.5928 9.97103 31.7308C9.10903 30.8688 9.10903 29.4746 9.97103 28.6126ZM0.646488 37.9371C1.50848 37.0751 2.90267 37.0751 3.76466 37.9371C4.62666 38.7991 4.62666 40.1933 3.76466 41.0553C2.90267 41.9173 1.50848 41.9173 0.646488 41.0553C-0.215512 40.1933 -0.215512 38.7991 0.646488 37.9371ZM47.2617 9.96354C48.1237 9.10154 49.5179 9.10154 50.3799 9.96354C51.2419 10.8255 51.2419 12.2197 50.3799 13.0817C49.5179 13.9437 48.1237 13.9437 47.2617 13.0817C46.3997 12.2272 46.3997 10.8255 47.2617 9.96354ZM37.9372 19.2881C38.7992 18.4261 40.1933 18.4261 41.0553 19.2881C41.9173 20.1501 41.9173 21.5443 41.0553 22.4063C40.1933 23.2682 38.7992 23.2682 37.9372 22.4063C37.0827 21.5443 37.0827 20.1501 37.9372 19.2881ZM28.6126 28.6126C29.4746 27.7506 30.8688 27.7506 31.7308 28.6126C32.5928 29.4746 32.5928 30.8688 31.7308 31.7308C30.8688 32.5928 29.4746 32.5928 28.6126 31.7308C27.7581 30.8688 27.7581 29.4746 28.6126 28.6126ZM19.2956 37.9371C20.1576 37.0751 21.5518 37.0751 22.4137 37.9371C23.2757 38.7991 23.2757 40.1933 22.4137 41.0553C21.5518 41.9173 20.1576 41.9173 19.2956 41.0553C18.4336 40.1933 18.4336 38.7991 19.2956 37.9371ZM9.97103 47.2617C10.833 46.3997 12.2272 46.3997 13.0892 47.2617C13.9512 48.1237 13.9512 49.5179 13.0892 50.3799C12.2272 51.2419 10.833 51.2419 9.97103 50.3799C9.10904 49.5179 9.10904 48.1237 9.97103 47.2617ZM56.5862 19.2881C57.4482 18.4261 58.8424 18.4261 59.7044 19.2881C60.5664 20.1501 60.5664 21.5443 59.7044 22.4063C58.8424 23.2682 57.4482 23.2682 56.5862 22.4063C55.7242 21.5443 55.7242 20.1501 56.5862 19.2881ZM47.2617 28.6126C48.1237 27.7506 49.5179 27.7506 50.3799 28.6126C51.2419 29.4746 51.2419 30.8688 50.3799 31.7308C49.5179 32.5928 48.1237 32.5928 47.2617 31.7308C46.3997 30.8688 46.3997 29.4746 47.2617 28.6126ZM37.9372 37.9371C38.7992 37.0751 40.1933 37.0751 41.0553 37.9371C41.9173 38.7991 41.9173 40.1933 41.0553 41.0553C40.1933 41.9173 38.7992 41.9173 37.9372 41.0553C37.0827 40.1933 37.0827 38.7991 37.9372 37.9371ZM28.6126 47.2617C29.4746 46.3997 30.8688 46.3997 31.7308 47.2617C32.5928 48.1237 32.5928 49.5179 31.7308 50.3799C30.8688 51.2419 29.4746 51.2419 28.6126 50.3799C27.7581 49.5179 27.7581 48.1237 28.6126 47.2617ZM19.2956 56.5862C20.1576 55.7242 21.5518 55.7242 22.4138 56.5862C23.2757 57.4482 23.2757 58.8424 22.4138 59.7044C21.5518 60.5664 20.1576 60.5664 19.2956 59.7044C18.4336 58.8424 18.4336 57.4482 19.2956 56.5862ZM65.9108 28.6126C66.7728 27.7506 68.167 27.7506 69.029 28.6126C69.891 29.4746 69.891 30.8688 69.029 31.7308C68.167 32.5928 66.7728 32.5928 65.9108 31.7308C65.0488 30.8688 65.0488 29.4746 65.9108 28.6126ZM56.5862 37.9371C57.4482 37.0751 58.8424 37.0751 59.7044 37.9371C60.5664 38.7991 60.5664 40.1933 59.7044 41.0553C58.8424 41.9173 57.4482 41.9173 56.5862 41.0553C55.7242 40.1933 55.7242 38.7991 56.5862 37.9371ZM47.2617 47.2617C48.1237 46.3997 49.5179 46.3997 50.3799 47.2617C51.2419 48.1237 51.2419 49.5179 50.3799 50.3799C49.5179 51.2419 48.1237 51.2419 47.2617 50.3799C46.3997 49.5179 46.3997 48.1237 47.2617 47.2617ZM37.9372 56.5862C38.7992 55.7242 40.1933 55.7242 41.0553 56.5862C41.9173 57.4482 41.9173 58.8424 41.0553 59.7044C40.1933 60.5664 38.7992 60.5664 37.9372 59.7044C37.0827 58.8424 37.0827 57.4482 37.9372 56.5862ZM28.6126 65.9108C29.4746 65.0488 30.8688 65.0488 31.7308 65.9108C32.5928 66.7728 32.5928 68.167 31.7308 69.029C30.8688 69.891 29.4746 69.891 28.6126 69.029C27.7581 68.167 27.7581 66.7728 28.6126 65.9108ZM75.2353 37.9371C76.0973 37.0751 77.4915 37.0751 78.3535 37.9371C79.2155 38.7991 79.2155 40.1933 78.3535 41.0553C77.4915 41.9173 76.0973 41.9173 75.2353 41.0553C74.3733 40.1933 74.3733 38.7991 75.2353 37.9371ZM65.9108 47.2617C66.7728 46.3997 68.167 46.3997 69.029 47.2617C69.891 48.1237 69.891 49.5179 69.029 50.3799C68.167 51.2419 66.7728 51.2419 65.9108 50.3799C65.0488 49.5179 65.0488 48.1237 65.9108 47.2617ZM56.5862 56.5862C57.4482 55.7242 58.8424 55.7242 59.7044 56.5862C60.5664 57.4482 60.5664 58.8424 59.7044 59.7044C58.8424 60.5664 57.4482 60.5664 56.5862 59.7044C55.7243 58.8424 55.7243 57.4482 56.5862 56.5862ZM47.2617 65.9108C48.1237 65.0488 49.5179 65.0488 50.3799 65.9108C51.2419 66.7728 51.2419 68.167 50.3799 69.029C49.5179 69.891 48.1237 69.891 47.2617 69.029C46.3997 68.167 46.3997 66.7728 47.2617 65.9108ZM37.9372 75.2353C38.7992 74.3733 40.1933 74.3733 41.0553 75.2353C41.9173 76.0973 41.9173 77.4915 41.0553 78.3535C40.1933 79.2155 38.7992 79.2155 37.9372 78.3535C37.0752 77.4915 37.0827 76.0973 37.9372 75.2353Z" fill="#AA43A2"/>
</svg>
