<svg width="67" height="135" viewBox="0 0 67 135" fill="none" xmlns="http://www.w3.org/2000/svg">
<path d="M-3.17068 6.43331C-1.69765 7.90634 0.684815 7.90634 2.15785 6.43331C3.63088 4.96028 3.63087 2.57781 2.15784 1.10478C0.684814 -0.368252 -1.69765 -0.368251 -3.17068 1.10478C-4.6309 2.565 -4.6309 4.96028 -3.17068 6.43331ZM-19.105 17.0263C-17.632 15.5533 -15.2495 15.5533 -13.7765 17.0263C-12.3035 18.4993 -12.3035 20.8818 -13.7765 22.3548C-15.2495 23.8279 -17.632 23.8279 -19.105 22.3548C-20.5653 20.8946 -20.5653 18.4993 -19.105 17.0263ZM-35.0266 32.9606C-33.5535 31.4876 -31.1711 31.4876 -29.698 32.9606C-28.225 34.4337 -28.225 36.8161 -29.698 38.2892C-31.1711 39.7622 -33.5535 39.7622 -35.0266 38.2892C-36.4996 36.8161 -36.4996 34.4337 -35.0266 32.9606ZM-50.9609 48.8949C-49.4879 47.4219 -47.1054 47.4219 -45.6324 48.8949C-44.1593 50.368 -44.1593 52.7505 -45.6324 54.2235C-47.1054 55.6965 -49.4879 55.6965 -50.9609 54.2235C-52.4339 52.7505 -52.4339 50.368 -50.9609 48.8949ZM-66.8952 64.8293C-65.4222 63.3563 -63.0397 63.3563 -61.5667 64.8293C-60.0937 66.3023 -60.0937 68.6848 -61.5667 70.1579C-63.0397 71.6309 -65.4222 71.6309 -66.8952 70.1579C-68.3683 68.6848 -68.3683 66.3023 -66.8952 64.8293ZM12.7637 17.0263C14.2367 15.5533 16.6192 15.5533 18.0922 17.0263C19.5652 18.4993 19.5652 20.8818 18.0922 22.3548C16.6192 23.8279 14.2367 23.8279 12.7637 22.3548C11.2906 20.8946 11.2906 18.4993 12.7637 17.0263ZM-3.17068 32.9606C-1.69765 31.4876 0.684817 31.4876 2.15785 32.9606C3.63088 34.4337 3.63088 36.8161 2.15785 38.2892C0.684818 39.7622 -1.69765 39.7622 -3.17068 38.2892C-4.6309 36.8161 -4.6309 34.4337 -3.17068 32.9606ZM-19.105 48.8949C-17.632 47.4219 -15.2495 47.4219 -13.7765 48.8949C-12.3035 50.368 -12.3035 52.7505 -13.7765 54.2235C-15.2495 55.6965 -17.632 55.6965 -19.105 54.2235C-20.5652 52.7505 -20.5652 50.368 -19.105 48.8949ZM-35.0266 64.8293C-33.5535 63.3563 -31.1711 63.3563 -29.698 64.8293C-28.225 66.3023 -28.225 68.6848 -29.698 70.1579C-31.1711 71.6309 -33.5535 71.6309 -35.0266 70.1579C-36.4996 68.6848 -36.4996 66.3023 -35.0266 64.8293ZM-50.9609 80.7636C-49.4879 79.2906 -47.1054 79.2906 -45.6324 80.7636C-44.1593 82.2367 -44.1593 84.6192 -45.6324 86.0922C-47.1054 87.5652 -49.4879 87.5652 -50.9609 86.0922C-52.4339 84.6192 -52.4339 82.2367 -50.9609 80.7636ZM28.698 32.9606C30.171 31.4876 32.5535 31.4876 34.0265 32.9606C35.4996 34.4337 35.4996 36.8161 34.0265 38.2892C32.5535 39.7622 30.171 39.7622 28.698 38.2892C27.225 36.8161 27.225 34.4337 28.698 32.9606ZM12.7637 48.8949C14.2367 47.4219 16.6192 47.4219 18.0922 48.8949C19.5652 50.368 19.5652 52.7505 18.0922 54.2235C16.6192 55.6965 14.2367 55.6965 12.7637 54.2235C11.2906 52.7505 11.2906 50.368 12.7637 48.8949ZM-3.17068 64.8293C-1.69765 63.3563 0.68482 63.3563 2.15785 64.8293C3.63088 66.3023 3.63088 68.6848 2.15785 70.1579C0.684821 71.6309 -1.69765 71.6309 -3.17068 70.1579C-4.6309 68.6848 -4.6309 66.3023 -3.17068 64.8293ZM-19.105 80.7636C-17.632 79.2906 -15.2495 79.2906 -13.7765 80.7636C-12.3035 82.2367 -12.3035 84.6192 -13.7765 86.0922C-15.2495 87.5652 -17.632 87.5652 -19.105 86.0922C-20.5652 84.6192 -20.5652 82.2367 -19.105 80.7636ZM-35.0265 96.698C-33.5535 95.2249 -31.1711 95.2249 -29.698 96.698C-28.225 98.171 -28.225 100.554 -29.698 102.027C-31.171 103.5 -33.5535 103.5 -35.0265 102.027C-36.4996 100.554 -36.4996 98.171 -35.0265 96.698ZM44.6324 48.8949C46.1054 47.4219 48.4879 47.4219 49.9609 48.8949C51.4339 50.368 51.4339 52.7505 49.9609 54.2235C48.4879 55.6965 46.1054 55.6965 44.6324 54.2235C43.1593 52.7505 43.1593 50.368 44.6324 48.8949ZM28.698 64.8293C30.171 63.3563 32.5535 63.3562 34.0265 64.8293C35.4996 66.3023 35.4996 68.6848 34.0265 70.1578C32.5535 71.6309 30.171 71.6309 28.698 70.1578C27.225 68.6848 27.225 66.3023 28.698 64.8293ZM12.7637 80.7636C14.2367 79.2906 16.6192 79.2906 18.0922 80.7636C19.5652 82.2367 19.5652 84.6192 18.0922 86.0922C16.6192 87.5652 14.2367 87.5652 12.7637 86.0922C11.2906 84.6192 11.2906 82.2367 12.7637 80.7636ZM-3.17068 96.698C-1.69765 95.2249 0.684823 95.2249 2.15785 96.698C3.63088 98.171 3.63088 100.554 2.15785 102.027C0.684824 103.5 -1.69765 103.5 -3.17068 102.027C-4.6309 100.554 -4.6309 98.171 -3.17068 96.698ZM-19.105 112.632C-17.632 111.159 -15.2495 111.159 -13.7765 112.632C-12.3035 114.105 -12.3035 116.488 -13.7765 117.961C-15.2495 119.434 -17.632 119.434 -19.105 117.961C-20.5652 116.488 -20.5652 114.105 -19.105 112.632ZM60.5667 64.8293C62.0397 63.3562 64.4222 63.3562 65.8952 64.8293C67.3683 66.3023 67.3683 68.6848 65.8952 70.1578C64.4222 71.6309 62.0397 71.6309 60.5667 70.1578C59.0937 68.6848 59.0937 66.3023 60.5667 64.8293ZM44.6324 80.7636C46.1054 79.2906 48.4879 79.2906 49.9609 80.7636C51.4339 82.2366 51.4339 84.6192 49.9609 86.0922C48.4879 87.5652 46.1054 87.5652 44.6324 86.0922C43.1593 84.6192 43.1593 82.2367 44.6324 80.7636ZM28.698 96.698C30.171 95.2249 32.5535 95.2249 34.0265 96.698C35.4996 98.171 35.4996 100.554 34.0265 102.027C32.5535 103.5 30.171 103.5 28.698 102.027C27.225 100.554 27.225 98.171 28.698 96.698ZM12.7637 112.632C14.2367 111.159 16.6192 111.159 18.0922 112.632C19.5652 114.105 19.5652 116.488 18.0922 117.961C16.6192 119.434 14.2367 119.434 12.7637 117.961C11.2906 116.488 11.2906 114.105 12.7637 112.632ZM-3.17067 128.567C-1.69764 127.094 0.684826 127.094 2.15786 128.567C3.63089 130.04 3.63089 132.422 2.15786 133.895C0.684826 135.368 -1.69764 135.368 -3.17067 133.895C-4.6437 132.422 -4.63089 130.04 -3.17067 128.567Z" fill="#AA43A2"/>
</svg>
