<svg width="323" height="192" viewBox="0 0 323 192" fill="none" xmlns="http://www.w3.org/2000/svg">
<path d="M319.572 123.565C241.592 193.119 174.195 118.663 165.179 103.123C156.162 87.5823 180.399 64.3479 193.553 82.821C206.708 101.294 133.587 160.567 48.6602 97.2714" stroke="#fec830" stroke-width="1.5" stroke-linecap="round" stroke-linejoin="round" stroke-dasharray="2 5"/>
<path d="M43.3948 93.6561L49.241 91.6113L10.1766 67.0509L43.3948 93.6561Z" fill="#fec830" fill-opacity="0.6"/>
<path d="M49.8696 80.8262L56.2137 75.8338L10.1535 67.0369L13.1572 68.912L49.8696 80.8262Z" fill="#fec830" fill-opacity="0.6"/>
<path d="M53.8799 65.4376L56.226 75.833L10.1347 67.0342L53.8799 65.4376Z" fill="#fec830"/>
<g filter="url(#filter0_d)">
<path d="M57.7651 83.5105L62.863 100.188L10.1758 67.0444L57.7651 83.5105Z" fill="#fec830"/>
</g>
<defs>
<filter id="filter0_d" x="0.175797" y="57.0439" width="92.6872" height="73.1434" filterUnits="userSpaceOnUse" color-interpolation-filters="sRGB">
<feFlood flood-opacity="0" result="BackgroundImageFix"/>
<feColorMatrix in="SourceAlpha" type="matrix" values="0 0 0 0 0 0 0 0 0 0 0 0 0 0 0 0 0 0 127 0" result="hardAlpha"/>
<feOffset dx="10" dy="10"/>
<feGaussianBlur stdDeviation="10"/>
<feColorMatrix type="matrix" values="0 0 0 0 0 0 0 0 0 0 0 0 0 0 0 0 0 0 0.25 0"/>
<feBlend mode="normal" in2="BackgroundImageFix" result="effect1_dropShadow"/>
<feBlend mode="normal" in="SourceGraphic" in2="effect1_dropShadow" result="shape"/>
</filter>
</defs>
</svg>
