<svg width="956" height="146" viewBox="0 0 956 146" fill="none" xmlns="http://www.w3.org/2000/svg">
<path d="M46.0002 134.5C23.5002 125 -18.5999 97.4 11.0001 41C48.0001 -29.5 134.5 12 147 26C159.423 39.9137 250.5 129 259 116C267.5 103 250.812 94.5004 241.5 98.5004C232.189 102.5 230.5 119 237.5 129.5C244.5 140 284 145 306.5 145C326.748 145 404 142 459 139.5C514 137 541 67 531 57.5003C521.24 48.2278 511.5 55.5003 515 64.5003C518.5 73.5003 549.949 87.0921 569.5 72C598 49.9997 562.891 7.49999 662.5 7.49999C778.5 7.49999 756.5 70 799 114C808.782 124.127 865.445 102.951 850 97.5C841.5 94.5 830 97 835.5 107C842.84 120.346 867 144.5 955.5 135.5" stroke="#AA43A2" stroke-dasharray="8 8"/>
</svg>
