<svg width="126" height="124" viewBox="0 0 126 124" fill="none" xmlns="http://www.w3.org/2000/svg">
<path d="M97.0013 119.801C95.3051 117.784 89.6509 114.757 87.0358 113.496C87.0358 115.598 79.6147 116.438 77.0703 113.496C74.5259 110.553 73.4658 116.438 69.6492 117.91C65.8326 119.381 64.5604 115.387 64.5604 111.394C64.5604 107.401 62.4401 108.872 60.7439 111.394C59.0476 113.916 54.1709 111.604 52.6866 107.821C51.2024 104.038 50.9904 100.465 47.3858 100.675C43.7813 100.885 38.6925 99.8344 37.6324 96.8919C36.5722 93.9494 39.9647 94.1596 38.6925 89.956C37.4203 85.7525 31.2714 88.0644 31.4834 89.956C31.6955 91.8476 29.5751 94.1596 26.3947 94.1596C23.2142 94.1596 20.0337 88.6949 21.942 87.0135C23.8503 85.3321 23.8503 84.2812 21.942 81.5489C20.0337 78.8166 14.9449 81.7591 13.2487 80.2878C11.5524 78.8166 10.9163 76.0843 7.31179 75.8741C3.70725 75.664 6.03963 73.5622 7.31179 70.6197C8.58395 67.6772 6.03963 64.7347 4.13135 61.7922C2.22306 58.8498 7.94789 53.5953 7.31179 51.4935C6.67569 49.3917 6.03963 44.5577 6.03963 43.2966C6.03963 42.0355 -2.86574 35.9404 0.95084 33.2081C4.76742 30.4757 4.13135 26.062 3.07117 22.6992C2.01099 19.3363 4.13135 18.4956 6.03963 19.5465C7.94792 20.5974 9.22009 20.3872 9.85619 18.4956C10.4923 16.604 6.03963 15.7633 4.13135 15.5531C2.22306 15.343 3.91931 11.77 6.03963 13.4514C8.15995 15.1328 14.3089 11.77 20.0337 11.77C25.7586 11.77 39.1166 4.8341 43.1452 2.94249C47.1738 1.05088 54.595 0 57.5634 0C60.5318 0 64.5604 4.8341 62.4401 5.88498C60.3199 6.93587 60.1077 2.52214 57.5634 4.8341C55.019 7.14605 60.7438 13.4514 64.5604 11.77C68.377 10.0885 72.1936 10.5089 74.738 10.7191C77.2823 10.9293 87.0358 10.7191 91.0644 13.4514C95.093 16.1837 106.331 12.1903 110.995 13.4514C115.66 14.7124 118.417 22.0687 118.417 27.3231C118.417 32.5775 119.901 38.6727 121.597 44.5577C123.293 50.4426 118.417 51.9139 114.176 53.5953C109.935 55.2767 115.66 59.0599 118.417 61.7922C121.173 64.5245 118.205 72.9316 118.417 75.8741C118.629 78.8166 125.202 84.9118 123.717 85.5423C122.233 86.1728 123.717 88.4848 125.202 89.956C126.686 91.4273 126.05 92.8985 123.717 94.1596C121.385 95.4206 112.268 104.038 108.875 106.35C105.483 108.662 105.695 111.184 107.603 116.438C109.511 121.693 109.723 121.693 107.603 123.374C105.483 125.056 104.422 122.954 102.938 121.693C101.454 120.432 99.1216 122.323 97.0013 119.801Z" fill="#FEC830"/>
<path d="M58.7646 67.06L55.7646 58.6H56.7966L59.1966 65.596L61.5006 58.576H62.2806L64.5846 65.596L66.9846 58.6H67.9806L64.9806 67.06H64.1766L61.8726 60.244L59.5566 67.06H58.7646ZM70.5499 67.132C69.9179 67.132 69.3739 66.96 68.9179 66.616C68.4619 66.272 68.2339 65.792 68.2339 65.176C68.2339 64.528 68.4739 64.028 68.9539 63.676C69.4339 63.324 70.0779 63.148 70.8859 63.148C71.5259 63.148 72.1579 63.236 72.7819 63.412V63.22C72.7819 62.676 72.6219 62.26 72.3019 61.972C71.9819 61.684 71.5299 61.54 70.9459 61.54C70.3379 61.54 69.7099 61.688 69.0619 61.984L68.7859 61.228C69.5539 60.876 70.3059 60.7 71.0419 60.7C71.9219 60.7 72.5899 60.928 73.0459 61.384C73.4779 61.816 73.6939 62.424 73.6939 63.208V67H72.7819V66.076C72.2299 66.78 71.4859 67.132 70.5499 67.132ZM70.7299 66.388C71.3059 66.388 71.7939 66.232 72.1939 65.92C72.5939 65.608 72.7939 65.208 72.7939 64.72V64.144C72.1859 63.968 71.5819 63.88 70.9819 63.88C70.4139 63.88 69.9699 63.996 69.6499 64.228C69.3299 64.452 69.1699 64.76 69.1699 65.152C69.1699 65.528 69.3179 65.828 69.6139 66.052C69.9179 66.276 70.2899 66.388 70.7299 66.388ZM75.6511 67V60.796H76.5751V62.416C76.8151 61.88 77.1551 61.452 77.5951 61.132C78.0351 60.812 78.5391 60.664 79.1071 60.688V61.684H79.0351C78.3231 61.684 77.7351 61.932 77.2711 62.428C76.8071 62.924 76.5751 63.624 76.5751 64.528V67H75.6511ZM82.5664 67.12C82.1184 67.12 81.6624 67.04 81.1984 66.88C80.7424 66.712 80.3424 66.488 79.9984 66.208L80.4664 65.548C81.1704 66.076 81.8864 66.34 82.6144 66.34C82.9904 66.34 83.2984 66.248 83.5384 66.064C83.7784 65.88 83.8984 65.636 83.8984 65.332C83.8984 65.052 83.7664 64.836 83.5024 64.684C83.2464 64.532 82.8624 64.384 82.3504 64.24C82.0384 64.152 81.7904 64.072 81.6064 64C81.4224 63.928 81.2144 63.828 80.9824 63.7C80.7504 63.564 80.5784 63.396 80.4664 63.196C80.3544 62.988 80.2984 62.744 80.2984 62.464C80.2984 61.936 80.4944 61.508 80.8864 61.18C81.2864 60.852 81.7944 60.688 82.4104 60.688C83.2104 60.688 83.9544 60.916 84.6424 61.372L84.2224 62.068C83.6064 61.668 82.9944 61.468 82.3864 61.468C82.0264 61.468 81.7344 61.556 81.5104 61.732C81.2944 61.9 81.1864 62.12 81.1864 62.392C81.1864 62.504 81.2184 62.608 81.2824 62.704C81.3464 62.8 81.4184 62.88 81.4984 62.944C81.5784 63.008 81.7024 63.076 81.8704 63.148C82.0464 63.22 82.1864 63.272 82.2904 63.304C82.3944 63.336 82.5584 63.388 82.7824 63.46C83.0784 63.548 83.3224 63.632 83.5144 63.712C83.7064 63.792 83.9104 63.9 84.1264 64.036C84.3424 64.172 84.5024 64.344 84.6064 64.552C84.7184 64.752 84.7744 64.988 84.7744 65.26C84.7744 65.836 84.5664 66.292 84.1504 66.628C83.7344 66.956 83.2064 67.12 82.5664 67.12ZM86.0138 67V66.412L90.1298 61.576H86.1578V60.796H91.3898V61.384L87.2618 66.22H91.3898V67H86.0138ZM94.8898 67.132C94.2578 67.132 93.7138 66.96 93.2578 66.616C92.8018 66.272 92.5738 65.792 92.5738 65.176C92.5738 64.528 92.8138 64.028 93.2938 63.676C93.7738 63.324 94.4178 63.148 95.2258 63.148C95.8658 63.148 96.4978 63.236 97.1218 63.412V63.22C97.1218 62.676 96.9618 62.26 96.6418 61.972C96.3218 61.684 95.8698 61.54 95.2858 61.54C94.6778 61.54 94.0498 61.688 93.4018 61.984L93.1258 61.228C93.8938 60.876 94.6458 60.7 95.3818 60.7C96.2618 60.7 96.9298 60.928 97.3858 61.384C97.8178 61.816 98.0338 62.424 98.0338 63.208V67H97.1218V66.076C96.5698 66.78 95.8258 67.132 94.8898 67.132ZM95.0698 66.388C95.6458 66.388 96.1338 66.232 96.5338 65.92C96.9338 65.608 97.1338 65.208 97.1338 64.72V64.144C96.5258 63.968 95.9218 63.88 95.3218 63.88C94.7538 63.88 94.3098 63.996 93.9898 64.228C93.6698 64.452 93.5098 64.76 93.5098 65.152C93.5098 65.528 93.6578 65.828 93.9538 66.052C94.2578 66.276 94.6298 66.388 95.0698 66.388ZM101.401 67.048L99.2286 60.796H100.213L101.845 65.776L103.513 60.772H104.281L105.961 65.776L107.593 60.796H108.553L106.369 67.048H105.565L103.897 62.152L102.217 67.048H101.401ZM111.706 67.132C111.074 67.132 110.53 66.96 110.074 66.616C109.618 66.272 109.39 65.792 109.39 65.176C109.39 64.528 109.63 64.028 110.11 63.676C110.59 63.324 111.234 63.148 112.042 63.148C112.682 63.148 113.314 63.236 113.938 63.412V63.22C113.938 62.676 113.778 62.26 113.458 61.972C113.138 61.684 112.686 61.54 112.102 61.54C111.494 61.54 110.866 61.688 110.218 61.984L109.942 61.228C110.71 60.876 111.462 60.7 112.198 60.7C113.078 60.7 113.746 60.928 114.202 61.384C114.634 61.816 114.85 62.424 114.85 63.208V67H113.938V66.076C113.386 66.78 112.642 67.132 111.706 67.132ZM111.886 66.388C112.462 66.388 112.95 66.232 113.35 65.92C113.75 65.608 113.95 65.208 113.95 64.72V64.144C113.342 63.968 112.738 63.88 112.138 63.88C111.57 63.88 111.126 63.996 110.806 64.228C110.486 64.452 110.326 64.76 110.326 65.152C110.326 65.528 110.474 65.828 110.77 66.052C111.074 66.276 111.446 66.388 111.886 66.388Z" fill="#AA43A2"/>
<path d="M85.4999 47.7232C87.2308 47.7232 88.6338 49.1262 88.6338 50.8571C88.6338 52.1814 87.7033 53.6246 85.8663 55.2022C85.7642 55.29 85.6339 55.3381 85.4993 55.338C85.3646 55.3379 85.2345 55.2895 85.1325 55.2016L85.011 55.0961C83.2554 53.5597 82.366 52.1518 82.366 50.8571C82.366 49.1262 83.769 47.7232 85.4999 47.7232ZM85.4999 48.2053C84.7966 48.2053 84.1221 48.4847 83.6248 48.982C83.1275 49.4793 82.8481 50.1538 82.8481 50.8571C82.8481 51.9828 83.6671 53.2797 85.3276 54.7326L85.4475 54.8364C85.4621 54.849 85.4807 54.8558 85.4999 54.8558C85.5191 54.8558 85.5377 54.849 85.5523 54.8364C87.2931 53.3411 88.1517 52.0095 88.1517 50.8571C88.1517 50.5089 88.0831 50.1641 87.9498 49.8423C87.8166 49.5206 87.6212 49.2283 87.375 48.982C87.1287 48.7358 86.8364 48.5405 86.5147 48.4072C86.193 48.2739 85.8481 48.2053 85.4999 48.2053V48.2053ZM85.4999 49.6518C85.8196 49.6518 86.1262 49.7788 86.3522 50.0048C86.5783 50.2309 86.7053 50.5375 86.7053 50.8571C86.7053 51.1768 86.5783 51.4834 86.3522 51.7095C86.1262 51.9355 85.8196 52.0625 85.4999 52.0625C85.1802 52.0625 84.8736 51.9355 84.6476 51.7095C84.4215 51.4834 84.2945 51.1768 84.2945 50.8571C84.2945 50.5375 84.4215 50.2309 84.6476 50.0048C84.8736 49.7788 85.1802 49.6518 85.4999 49.6518V49.6518ZM85.4999 50.1339C85.3081 50.1339 85.1241 50.2101 84.9885 50.3457C84.8529 50.4814 84.7767 50.6653 84.7767 50.8571C84.7767 51.0489 84.8529 51.2329 84.9885 51.3685C85.1241 51.5042 85.3081 51.5803 85.4999 51.5803C85.6917 51.5803 85.8757 51.5042 86.0113 51.3685C86.1469 51.2329 86.2231 51.0489 86.2231 50.8571C86.2231 50.6653 86.1469 50.4814 86.0113 50.3457C85.8757 50.2101 85.6917 50.1339 85.4999 50.1339V50.1339Z" fill="#AA43A2"/>
</svg>
