<svg width="126" height="124" viewBox="0 0 126 124" fill="none" xmlns="http://www.w3.org/2000/svg">
<path d="M97.0013 119.801C95.3051 117.784 89.6509 114.757 87.0358 113.496C87.0358 115.598 79.6147 116.438 77.0703 113.496C74.5259 110.553 73.4658 116.438 69.6492 117.91C65.8326 119.381 64.5604 115.387 64.5604 111.394C64.5604 107.401 62.4401 108.872 60.7439 111.394C59.0476 113.916 54.1709 111.604 52.6866 107.821C51.2024 104.038 50.9904 100.465 47.3858 100.675C43.7813 100.885 38.6925 99.8344 37.6324 96.8919C36.5722 93.9494 39.9647 94.1596 38.6925 89.956C37.4203 85.7525 31.2714 88.0644 31.4834 89.956C31.6955 91.8476 29.5751 94.1596 26.3947 94.1596C23.2142 94.1596 20.0337 88.6949 21.942 87.0135C23.8503 85.3321 23.8503 84.2812 21.942 81.5489C20.0337 78.8166 14.9449 81.7591 13.2487 80.2878C11.5524 78.8166 10.9163 76.0843 7.31179 75.8741C3.70725 75.664 6.03963 73.5622 7.31179 70.6197C8.58395 67.6772 6.03963 64.7347 4.13135 61.7922C2.22306 58.8498 7.94789 53.5953 7.31179 51.4935C6.67569 49.3917 6.03963 44.5577 6.03963 43.2966C6.03963 42.0355 -2.86574 35.9404 0.95084 33.2081C4.76742 30.4757 4.13135 26.062 3.07117 22.6992C2.01099 19.3363 4.13135 18.4956 6.03963 19.5465C7.94792 20.5974 9.22009 20.3872 9.85619 18.4956C10.4923 16.604 6.03963 15.7633 4.13135 15.5531C2.22306 15.343 3.91931 11.77 6.03963 13.4514C8.15995 15.1328 14.3089 11.77 20.0337 11.77C25.7586 11.77 39.1166 4.8341 43.1452 2.94249C47.1738 1.05088 54.595 0 57.5634 0C60.5318 0 64.5604 4.8341 62.4401 5.88498C60.3199 6.93587 60.1077 2.52214 57.5634 4.8341C55.019 7.14605 60.7438 13.4514 64.5604 11.77C68.377 10.0885 72.1936 10.5089 74.738 10.7191C77.2823 10.9293 87.0358 10.7191 91.0644 13.4514C95.093 16.1837 106.331 12.1903 110.995 13.4514C115.66 14.7124 118.417 22.0687 118.417 27.3231C118.417 32.5775 119.901 38.6727 121.597 44.5577C123.293 50.4426 118.417 51.9139 114.176 53.5953C109.935 55.2767 115.66 59.0599 118.417 61.7922C121.173 64.5245 118.205 72.9316 118.417 75.8741C118.629 78.8166 125.202 84.9118 123.717 85.5423C122.233 86.1728 123.717 88.4848 125.202 89.956C126.686 91.4273 126.05 92.8985 123.717 94.1596C121.385 95.4206 112.268 104.038 108.875 106.35C105.483 108.662 105.695 111.184 107.603 116.438C109.511 121.693 109.723 121.693 107.603 123.374C105.483 125.056 104.422 122.954 102.938 121.693C101.454 120.432 99.1216 122.323 97.0013 119.801Z" fill="#FEC830"/>
<path d="M66.1835 67.06L62.5715 58.6H63.6275L66.6155 65.836L69.6155 58.6H70.6355L67.0235 67.06H66.1835ZM73.1398 67.132C72.5078 67.132 71.9638 66.96 71.5078 66.616C71.0518 66.272 70.8238 65.792 70.8238 65.176C70.8238 64.528 71.0638 64.028 71.5438 63.676C72.0238 63.324 72.6678 63.148 73.4758 63.148C74.1158 63.148 74.7478 63.236 75.3718 63.412V63.22C75.3718 62.676 75.2118 62.26 74.8918 61.972C74.5718 61.684 74.1198 61.54 73.5358 61.54C72.9278 61.54 72.2998 61.688 71.6518 61.984L71.3758 61.228C72.1438 60.876 72.8958 60.7 73.6318 60.7C74.5118 60.7 75.1798 60.928 75.6358 61.384C76.0678 61.816 76.2838 62.424 76.2838 63.208V67H75.3718V66.076C74.8198 66.78 74.0758 67.132 73.1398 67.132ZM73.3198 66.388C73.8958 66.388 74.3838 66.232 74.7838 65.92C75.1838 65.608 75.3838 65.208 75.3838 64.72V64.144C74.7758 63.968 74.1718 63.88 73.5718 63.88C73.0038 63.88 72.5598 63.996 72.2398 64.228C71.9198 64.452 71.7598 64.76 71.7598 65.152C71.7598 65.528 71.9078 65.828 72.2038 66.052C72.5078 66.276 72.8798 66.388 73.3198 66.388ZM78.241 67V60.796H79.165V62.416C79.405 61.88 79.745 61.452 80.185 61.132C80.625 60.812 81.129 60.664 81.697 60.688V61.684H81.625C80.913 61.684 80.325 61.932 79.861 62.428C79.397 62.924 79.165 63.624 79.165 64.528V67H78.241ZM87.2803 65.224C87.2803 65.848 87.0483 66.32 86.5843 66.64C86.1203 66.96 85.4963 67.12 84.7123 67.12C84.2643 67.12 83.8763 67.084 83.5483 67.012C83.2283 66.94 82.9443 66.84 82.6963 66.712V65.752C82.9523 65.88 83.2603 66 83.6203 66.112C83.9883 66.216 84.3603 66.268 84.7363 66.268C85.2723 66.268 85.6603 66.184 85.9003 66.016C86.1403 65.84 86.2603 65.608 86.2603 65.32C86.2603 65.16 86.2163 65.016 86.1283 64.888C86.0403 64.76 85.8803 64.632 85.6483 64.504C85.4243 64.376 85.1003 64.232 84.6763 64.072C84.2603 63.912 83.9043 63.752 83.6083 63.592C83.3123 63.432 83.0843 63.24 82.9243 63.016C82.7643 62.792 82.6843 62.504 82.6843 62.152C82.6843 61.608 82.9043 61.188 83.3443 60.892C83.7923 60.596 84.3763 60.448 85.0963 60.448C85.4883 60.448 85.8523 60.488 86.1883 60.568C86.5323 60.64 86.8523 60.744 87.1483 60.88L86.7883 61.72C86.5163 61.608 86.2323 61.512 85.9363 61.432C85.6403 61.352 85.3363 61.312 85.0243 61.312C84.5923 61.312 84.2603 61.384 84.0283 61.528C83.8043 61.664 83.6923 61.852 83.6923 62.092C83.6923 62.268 83.7443 62.42 83.8483 62.548C83.9523 62.668 84.1243 62.788 84.3643 62.908C84.6123 63.02 84.9403 63.156 85.3483 63.316C85.7563 63.468 86.1043 63.624 86.3923 63.784C86.6803 63.944 86.9003 64.14 87.0523 64.372C87.2043 64.596 87.2803 64.88 87.2803 65.224ZM86.1643 68.668C86.1643 69.052 86.0163 69.348 85.7203 69.556C85.4243 69.772 84.9803 69.88 84.3883 69.88C84.1323 69.88 83.9323 69.86 83.7883 69.82V69.16C83.8603 69.176 83.9563 69.188 84.0763 69.196C84.1963 69.212 84.3123 69.22 84.4243 69.22C84.7123 69.22 84.9323 69.18 85.0843 69.1C85.2363 69.028 85.3123 68.892 85.3123 68.692C85.3123 68.484 85.2043 68.332 84.9883 68.236C84.7803 68.14 84.5243 68.072 84.2203 68.032L84.7363 67H85.4323L85.1203 67.636C85.4083 67.7 85.6523 67.812 85.8523 67.972C86.0603 68.132 86.1643 68.364 86.1643 68.668ZM93.9945 66.196C93.3705 66.828 92.5985 67.144 91.6785 67.144C90.7585 67.144 89.9905 66.828 89.3745 66.196C88.7665 65.564 88.4625 64.8 88.4625 63.904C88.4625 63.016 88.7705 62.256 89.3865 61.624C90.0105 60.984 90.7825 60.664 91.7025 60.664C92.6225 60.664 93.3905 60.98 94.0065 61.612C94.6225 62.244 94.9305 63.008 94.9305 63.904C94.9305 64.792 94.6185 65.556 93.9945 66.196ZM91.7025 66.316C92.3665 66.316 92.9105 66.084 93.3345 65.62C93.7665 65.156 93.9825 64.584 93.9825 63.904C93.9825 63.232 93.7585 62.66 93.3105 62.188C92.8705 61.716 92.3265 61.48 91.6785 61.48C91.0145 61.48 90.4705 61.716 90.0465 62.188C89.6225 62.652 89.4105 63.224 89.4105 63.904C89.4105 64.576 89.6305 65.148 90.0705 65.62C90.5105 66.084 91.0545 66.316 91.7025 66.316ZM98.317 67.048L95.629 60.796H96.649L98.737 65.944L100.837 60.796H101.833L99.133 67.048H98.317ZM104.827 67.132C104.195 67.132 103.651 66.96 103.195 66.616C102.739 66.272 102.511 65.792 102.511 65.176C102.511 64.528 102.751 64.028 103.231 63.676C103.711 63.324 104.355 63.148 105.163 63.148C105.803 63.148 106.435 63.236 107.059 63.412V63.22C107.059 62.676 106.899 62.26 106.579 61.972C106.259 61.684 105.807 61.54 105.223 61.54C104.615 61.54 103.987 61.688 103.339 61.984L103.063 61.228C103.831 60.876 104.583 60.7 105.319 60.7C106.199 60.7 106.867 60.928 107.323 61.384C107.755 61.816 107.971 62.424 107.971 63.208V67H107.059V66.076C106.507 66.78 105.763 67.132 104.827 67.132ZM105.007 66.388C105.583 66.388 106.071 66.232 106.471 65.92C106.871 65.608 107.071 65.208 107.071 64.72V64.144C106.463 63.968 105.859 63.88 105.259 63.88C104.691 63.88 104.247 63.996 103.927 64.228C103.607 64.452 103.447 64.76 103.447 65.152C103.447 65.528 103.595 65.828 103.891 66.052C104.195 66.276 104.567 66.388 105.007 66.388Z" fill="#AA43A2"/>
<path d="M85.5 47.7233C87.2308 47.7233 88.6339 49.1263 88.6339 50.8572C88.6339 52.1815 87.7033 53.6247 85.8664 55.2023C85.7642 55.29 85.634 55.3382 85.4994 55.3381C85.3647 55.338 85.2346 55.2895 85.1326 55.2016L85.0111 55.0962C83.2554 53.5598 82.366 52.1519 82.366 50.8572C82.366 49.1263 83.7691 47.7233 85.5 47.7233ZM85.5 48.2054C84.7967 48.2054 84.1222 48.4848 83.6249 48.9821C83.1276 49.4794 82.8482 50.1539 82.8482 50.8572C82.8482 51.9828 83.6672 53.2798 85.3277 54.7327L85.4476 54.8365C85.4621 54.849 85.4807 54.8559 85.5 54.8559C85.5192 54.8559 85.5378 54.849 85.5523 54.8365C87.2932 53.3412 88.1517 52.0095 88.1517 50.8572C88.1517 50.509 88.0832 50.1641 87.9499 49.8424C87.8166 49.5207 87.6213 49.2283 87.3751 48.9821C87.1288 48.7359 86.8365 48.5405 86.5148 48.4073C86.193 48.274 85.8482 48.2054 85.5 48.2054ZM85.5 49.6518C85.8196 49.6518 86.1262 49.7788 86.3523 50.0049C86.5783 50.2309 86.7053 50.5375 86.7053 50.8572C86.7053 51.1769 86.5783 51.4835 86.3523 51.7095C86.1262 51.9356 85.8196 52.0626 85.5 52.0626C85.1803 52.0626 84.8737 51.9356 84.6476 51.7095C84.4216 51.4835 84.2946 51.1769 84.2946 50.8572C84.2946 50.5375 84.4216 50.2309 84.6476 50.0049C84.8737 49.7788 85.1803 49.6518 85.5 49.6518ZM85.5 50.134C85.3081 50.134 85.1242 50.2102 84.9886 50.3458C84.8529 50.4814 84.7767 50.6654 84.7767 50.8572C84.7767 51.049 84.8529 51.233 84.9886 51.3686C85.1242 51.5042 85.3081 51.5804 85.5 51.5804C85.6918 51.5804 85.8757 51.5042 86.0113 51.3686C86.147 51.233 86.2232 51.049 86.2232 50.8572C86.2232 50.6654 86.147 50.4814 86.0113 50.3458C85.8757 50.2102 85.6918 50.134 85.5 50.134Z" fill="#AA43A2"/>
</svg>
