<svg width="70" height="70" viewBox="0 0 70 70" fill="none" xmlns="http://www.w3.org/2000/svg">
<path d="M53.8896 67.6297C52.9473 66.4907 49.806 64.7822 48.3532 64.0703C48.3532 65.2568 44.2304 65.7313 42.8168 64.0703C41.4033 62.4092 40.8143 65.7313 38.694 66.5619C36.5737 67.3924 35.8669 65.1381 35.8669 62.8838C35.8669 60.6294 34.689 61.46 33.7466 62.8838C32.8042 64.3076 30.0949 63.0024 29.2704 60.8667C28.4458 58.7311 28.328 56.714 26.3255 56.8327C24.3229 56.9513 21.4958 56.3581 20.9069 54.697C20.3179 53.0359 22.2026 53.1546 21.4958 50.7816C20.7891 48.4086 17.373 49.7138 17.4908 50.7816C17.6086 51.8495 16.4306 53.1546 14.6637 53.1546C12.8968 53.1546 11.1299 50.0697 12.19 49.1205C13.2501 48.1713 13.2502 47.5781 12.19 46.0357C11.1298 44.4932 8.30275 46.1543 7.36038 45.3238C6.41802 44.4932 6.06463 42.9508 4.06211 42.8322C2.05958 42.7135 3.35535 41.527 4.06211 39.8659C4.76886 38.2049 3.35535 36.5438 2.29519 34.8827C1.23503 33.2216 4.41549 30.2554 4.06211 29.0689C3.70872 27.8824 3.35535 25.1535 3.35535 24.4416C3.35535 23.7297 -1.59208 20.2889 0.528245 18.7465C2.64856 17.2041 2.29519 14.7124 1.7062 12.8141C1.11721 10.9157 2.29519 10.4411 3.35535 11.0343C4.41551 11.6276 5.12227 11.5089 5.47566 10.4411C5.82905 9.37324 3.35535 8.89865 2.29519 8.78C1.23503 8.66135 2.1774 6.64433 3.35535 7.59352C4.53331 8.54271 7.94938 6.64433 11.1299 6.64433C14.3103 6.64433 21.7315 2.72892 23.9696 1.66108C26.2077 0.593237 30.3305 0 31.9796 0C33.6288 0 35.8669 2.72893 34.689 3.32217C33.511 3.91541 33.3932 1.42379 31.9796 2.72892C30.5661 4.03406 33.7466 7.59352 35.8669 6.64433C37.9872 5.69515 40.1075 5.93244 41.5211 6.05109C42.9346 6.16974 48.3532 6.05109 50.5913 7.59352C52.8295 9.13595 59.0726 6.88163 61.6641 7.59352C64.2556 8.30541 65.787 12.4581 65.787 15.4243C65.787 18.3905 66.6115 21.8314 67.5539 25.1535C68.4963 28.4757 65.787 29.3062 63.4311 30.2554C61.0751 31.2046 64.2556 33.3403 65.787 34.8827C67.3183 36.4251 65.6692 41.1711 65.787 42.8322C65.9048 44.4932 69.5564 47.9341 68.7319 48.29C67.9073 48.6459 68.7319 49.9511 69.5564 50.7816C70.381 51.6122 70.0276 52.4427 68.7319 53.1546C67.4361 53.8665 62.3709 58.7311 60.4862 60.0362C58.6014 61.3413 58.7192 62.7651 59.7794 65.7313C60.8396 68.6976 60.9573 68.6976 59.7794 69.6468C58.6014 70.5959 58.0125 69.4095 57.1879 68.6976C56.3633 67.9857 55.0676 69.0535 53.8896 67.6297Z" fill="#FEC830"/>
</svg>
