<svg width="126" height="133" viewBox="0 0 126 133" fill="none" xmlns="http://www.w3.org/2000/svg">
<path d="M97.0013 119.801C95.3051 117.784 89.6509 114.757 87.0358 113.496C87.0358 115.598 79.6147 116.438 77.0703 113.496C74.5259 110.553 73.4658 116.438 69.6492 117.91C65.8326 119.381 64.5604 115.387 64.5604 111.394C64.5604 107.401 62.4401 108.872 60.7439 111.394C59.0476 113.916 54.1709 111.604 52.6866 107.821C51.2024 104.038 50.9904 100.465 47.3858 100.675C43.7813 100.885 38.6925 99.8344 37.6324 96.8919C36.5722 93.9494 39.9647 94.1596 38.6925 89.956C37.4203 85.7525 31.2714 88.0644 31.4834 89.956C31.6955 91.8476 29.5751 94.1596 26.3947 94.1596C23.2142 94.1596 20.0337 88.6949 21.942 87.0135C23.8503 85.3321 23.8503 84.2812 21.942 81.5489C20.0337 78.8166 14.9449 81.7591 13.2487 80.2878C11.5524 78.8166 10.9163 76.0843 7.31179 75.8741C3.70725 75.664 6.03963 73.5622 7.31179 70.6197C8.58395 67.6772 6.03963 64.7347 4.13135 61.7922C2.22306 58.8498 7.94789 53.5953 7.31179 51.4935C6.67569 49.3917 6.03963 44.5577 6.03963 43.2966C6.03963 42.0355 -2.86574 35.9404 0.95084 33.2081C4.76742 30.4757 4.13135 26.062 3.07117 22.6992C2.01099 19.3363 4.13135 18.4956 6.03963 19.5465C7.94792 20.5974 9.22009 20.3872 9.85619 18.4956C10.4923 16.604 6.03963 15.7633 4.13135 15.5531C2.22306 15.343 3.91931 11.77 6.03963 13.4514C8.15995 15.1328 14.3089 11.77 20.0337 11.77C25.7586 11.77 39.1166 4.8341 43.1452 2.94249C47.1738 1.05088 54.595 0 57.5634 0C60.5318 0 64.5604 4.8341 62.4401 5.88498C60.3199 6.93587 60.1077 2.52214 57.5634 4.8341C55.019 7.14605 60.7438 13.4514 64.5604 11.77C68.377 10.0885 72.1936 10.5089 74.738 10.7191C77.2823 10.9293 87.0358 10.7191 91.0644 13.4514C95.093 16.1837 106.331 12.1903 110.995 13.4514C115.66 14.7124 118.417 22.0687 118.417 27.3231C118.417 32.5775 119.901 38.6727 121.597 44.5577C123.293 50.4426 118.417 51.9139 114.176 53.5953C109.935 55.2767 115.66 59.0599 118.417 61.7922C121.173 64.5245 118.205 72.9316 118.417 75.8741C118.629 78.8166 125.202 84.9118 123.717 85.5423C122.233 86.1728 123.717 88.4848 125.202 89.956C126.686 91.4273 126.05 92.8985 123.717 94.1596C121.385 95.4206 112.268 104.038 108.875 106.35C105.483 108.662 105.695 111.184 107.603 116.438C109.511 121.693 109.723 121.693 107.603 123.374C105.483 125.056 104.422 122.954 102.938 121.693C101.454 120.432 99.1216 122.323 97.0013 119.801Z" fill="#FEC830"/>
<path d="M58.4849 67V58.6H62.0609C63.0449 58.6 63.7769 58.848 64.2569 59.344C64.6169 59.72 64.7969 60.176 64.7969 60.712C64.7969 61.624 64.3529 62.272 63.4649 62.656C64.6649 63.016 65.2649 63.7 65.2649 64.708C65.2649 65.42 64.9889 65.98 64.4369 66.388C63.8849 66.796 63.1449 67 62.2169 67H58.4849ZM59.4209 66.148H62.2409C62.8809 66.148 63.3849 66.016 63.7529 65.752C64.1209 65.48 64.3049 65.104 64.3049 64.624C64.3049 64.16 64.1129 63.804 63.7289 63.556C63.3529 63.308 62.8009 63.184 62.0729 63.184H59.4209V66.148ZM59.4209 62.344H61.9049C62.4889 62.344 62.9569 62.212 63.3089 61.948C63.6609 61.684 63.8369 61.308 63.8369 60.82C63.8369 60.396 63.6729 60.064 63.3449 59.824C63.0249 59.576 62.5689 59.452 61.9769 59.452H59.4209V62.344ZM68.837 67.132C68.205 67.132 67.661 66.96 67.205 66.616C66.749 66.272 66.521 65.792 66.521 65.176C66.521 64.528 66.761 64.028 67.241 63.676C67.721 63.324 68.365 63.148 69.173 63.148C69.813 63.148 70.445 63.236 71.069 63.412V63.22C71.069 62.676 70.909 62.26 70.589 61.972C70.269 61.684 69.817 61.54 69.233 61.54C68.625 61.54 67.997 61.688 67.349 61.984L67.073 61.228C67.841 60.876 68.593 60.7 69.329 60.7C70.209 60.7 70.877 60.928 71.333 61.384C71.765 61.816 71.981 62.424 71.981 63.208V67H71.069V66.076C70.517 66.78 69.773 67.132 68.837 67.132ZM69.017 66.388C69.593 66.388 70.081 66.232 70.481 65.92C70.881 65.608 71.081 65.208 71.081 64.72V64.144C70.473 63.968 69.869 63.88 69.269 63.88C68.701 63.88 68.257 63.996 67.937 64.228C67.617 64.452 67.457 64.76 67.457 65.152C67.457 65.528 67.605 65.828 67.901 66.052C68.205 66.276 68.577 66.388 69.017 66.388ZM73.9383 68.92V60.796H74.8623V62.044C75.4863 61.124 76.2783 60.664 77.2383 60.664C78.0303 60.664 78.7223 60.96 79.3143 61.552C79.9063 62.136 80.2023 62.92 80.2023 63.904C80.2023 64.872 79.9063 65.652 79.3143 66.244C78.7223 66.836 78.0303 67.132 77.2383 67.132C76.2623 67.132 75.4703 66.692 74.8623 65.812V68.92H73.9383ZM77.0703 66.304C77.6943 66.304 78.2143 66.088 78.6303 65.656C79.0463 65.216 79.2543 64.628 79.2543 63.892C79.2543 63.18 79.0423 62.604 78.6183 62.164C78.1943 61.716 77.6783 61.492 77.0703 61.492C76.4703 61.492 75.9463 61.72 75.4983 62.176C75.0503 62.632 74.8263 63.208 74.8263 63.904C74.8263 64.6 75.0503 65.176 75.4983 65.632C75.9463 66.08 76.4703 66.304 77.0703 66.304ZM81.907 67V60.796H82.831V66.184H85.855V60.796H86.779V66.184H89.803V60.796H90.739V67H81.907ZM94.6534 67.132C94.0214 67.132 93.4774 66.96 93.0214 66.616C92.5654 66.272 92.3374 65.792 92.3374 65.176C92.3374 64.528 92.5774 64.028 93.0574 63.676C93.5374 63.324 94.1814 63.148 94.9894 63.148C95.6294 63.148 96.2614 63.236 96.8854 63.412V63.22C96.8854 62.676 96.7254 62.26 96.4054 61.972C96.0854 61.684 95.6334 61.54 95.0494 61.54C94.4414 61.54 93.8134 61.688 93.1654 61.984L92.8894 61.228C93.6574 60.876 94.4094 60.7 95.1454 60.7C96.0254 60.7 96.6934 60.928 97.1494 61.384C97.5814 61.816 97.7974 62.424 97.7974 63.208V67H96.8854V66.076C96.3334 66.78 95.5894 67.132 94.6534 67.132ZM94.8334 66.388C95.4094 66.388 95.8974 66.232 96.2974 65.92C96.6974 65.608 96.8974 65.208 96.8974 64.72V64.144C96.2894 63.968 95.6854 63.88 95.0854 63.88C94.5174 63.88 94.0734 63.996 93.7534 64.228C93.4334 64.452 93.2734 64.76 93.2734 65.152C93.2734 65.528 93.4214 65.828 93.7174 66.052C94.0214 66.276 94.3934 66.388 94.8334 66.388ZM99.7547 67V60.796H102.755C103.371 60.796 103.863 60.936 104.231 61.216C104.599 61.496 104.783 61.872 104.783 62.344C104.783 63.008 104.439 63.484 103.751 63.772C104.663 64.02 105.119 64.532 105.119 65.308C105.119 65.828 104.915 66.24 104.507 66.544C104.099 66.848 103.551 67 102.863 67H99.7547ZM100.679 66.208H102.743C103.183 66.208 103.531 66.116 103.787 65.932C104.043 65.748 104.171 65.492 104.171 65.164C104.171 64.86 104.035 64.624 103.763 64.456C103.499 64.288 103.119 64.204 102.623 64.204H100.679V66.208ZM100.679 63.46H102.587C102.971 63.46 103.275 63.376 103.499 63.208C103.731 63.032 103.847 62.784 103.847 62.464C103.847 62.2 103.739 61.988 103.523 61.828C103.307 61.668 103.003 61.588 102.611 61.588H100.679V63.46ZM108.634 67.132C108.002 67.132 107.458 66.96 107.002 66.616C106.546 66.272 106.318 65.792 106.318 65.176C106.318 64.528 106.558 64.028 107.038 63.676C107.518 63.324 108.162 63.148 108.97 63.148C109.61 63.148 110.242 63.236 110.866 63.412V63.22C110.866 62.676 110.706 62.26 110.386 61.972C110.066 61.684 109.614 61.54 109.03 61.54C108.422 61.54 107.794 61.688 107.146 61.984L106.87 61.228C107.638 60.876 108.39 60.7 109.126 60.7C110.006 60.7 110.674 60.928 111.13 61.384C111.562 61.816 111.778 62.424 111.778 63.208V67H110.866V66.076C110.314 66.78 109.57 67.132 108.634 67.132ZM108.814 66.388C109.39 66.388 109.878 66.232 110.278 65.92C110.678 65.608 110.878 65.208 110.878 64.72V64.144C110.27 63.968 109.666 63.88 109.066 63.88C108.498 63.88 108.054 63.996 107.734 64.228C107.414 64.452 107.254 64.76 107.254 65.152C107.254 65.528 107.402 65.828 107.698 66.052C108.002 66.276 108.374 66.388 108.814 66.388Z" fill="#AA43A2"/>
<path d="M85.4999 47.7232C87.2308 47.7232 88.6338 49.1262 88.6338 50.8571C88.6338 52.1814 87.7033 53.6246 85.8663 55.2022C85.7642 55.29 85.6339 55.3381 85.4993 55.338C85.3646 55.3379 85.2345 55.2895 85.1325 55.2016L85.011 55.0961C83.2554 53.5597 82.366 52.1518 82.366 50.8571C82.366 49.1262 83.769 47.7232 85.4999 47.7232ZM85.4999 48.2053C84.7966 48.2053 84.1221 48.4847 83.6248 48.982C83.1275 49.4793 82.8481 50.1538 82.8481 50.8571C82.8481 51.9828 83.6671 53.2797 85.3276 54.7326L85.4475 54.8364C85.4621 54.849 85.4807 54.8558 85.4999 54.8558C85.5191 54.8558 85.5377 54.849 85.5523 54.8364C87.2931 53.3411 88.1517 52.0095 88.1517 50.8571C88.1517 50.5089 88.0831 50.1641 87.9498 49.8423C87.8166 49.5206 87.6212 49.2283 87.375 48.982C87.1287 48.7358 86.8364 48.5405 86.5147 48.4072C86.193 48.2739 85.8481 48.2053 85.4999 48.2053ZM85.4999 49.6518C85.8196 49.6518 86.1262 49.7788 86.3522 50.0048C86.5783 50.2309 86.7053 50.5375 86.7053 50.8571C86.7053 51.1768 86.5783 51.4834 86.3522 51.7095C86.1262 51.9355 85.8196 52.0625 85.4999 52.0625C85.1802 52.0625 84.8736 51.9355 84.6476 51.7095C84.4215 51.4834 84.2945 51.1768 84.2945 50.8571C84.2945 50.5375 84.4215 50.2309 84.6476 50.0048C84.8736 49.7788 85.1802 49.6518 85.4999 49.6518ZM85.4999 50.1339C85.3081 50.1339 85.1241 50.2101 84.9885 50.3457C84.8529 50.4814 84.7767 50.6653 84.7767 50.8571C84.7767 51.0489 84.8529 51.2329 84.9885 51.3685C85.1241 51.5042 85.3081 51.5803 85.4999 51.5803C85.6917 51.5803 85.8757 51.5042 86.0113 51.3685C86.1469 51.2329 86.2231 51.0489 86.2231 50.8571C86.2231 50.6653 86.1469 50.4814 86.0113 50.3457C85.8757 50.2101 85.6917 50.1339 85.4999 50.1339Z" fill="#AA43A2"/>
</svg>
