<svg width="119" height="50" viewBox="0 0 119 50" fill="none" xmlns="http://www.w3.org/2000/svg">
<path d="M61.5387 43.9296C59.918 44.8509 56.1363 43.5458 54.4481 42.7781C53.0975 42.2309 51.2404 45.4102 50.7339 48.0423C50.2274 50.6743 47.1886 48.0423 43.3056 49.1938C39.4226 50.3453 35.5396 43.9296 31.9943 42.7781C28.449 41.6266 27.7737 43.9296 25.7478 46.5617C23.7219 49.1938 18.4883 46.5617 18.3195 43.9296C18.1507 41.2976 16.4624 41.7911 15.4495 42.7781C14.4365 43.7651 11.7353 42.7781 11.7353 40.804C11.7353 38.83 9.70942 41.7911 6.16405 40.804C2.61869 39.817 7.00822 37.0204 7.00822 35.5399C7.00822 34.0593 6.16405 32.0853 2.44993 32.0853C-1.2642 32.0853 -0.082473 25.0116 1.60578 25.8341C3.29403 26.6566 6.5017 26.8211 6.16405 25.0116C5.8264 23.202 4.81351 22.0505 4.81351 19.0894C4.81351 16.1283 2.44993 18.2669 1.60578 17.2799C0.761627 16.2928 7.34583 13.9898 8.5276 12.8383C9.70938 11.6867 17.3066 12.8383 20.1765 12.8383C23.0465 12.8383 23.0466 11.8512 22.0336 9.71267C21.0206 7.57411 12.9171 6.09356 11.7353 8.89014C10.5536 11.6867 2.70314 12.8883 4.81351 11.8512C6.66859 10.9396 5.82643 9.71267 2.44993 9.71267C-0.926573 9.71267 1.77463 7.2451 2.44993 6.09356C3.12523 4.94203 5.15115 4.44852 4.81351 2.14545C4.47586 -0.157613 9.03413 -0.322118 11.7353 0.335901C14.4365 0.993919 16.2916 1.97406 17.811 5.09964C19.3305 8.22523 20.0078 4.44852 27.7737 7.2451C35.5397 10.0417 35.8773 7.2451 39.085 4.44852C42.2927 1.65194 50.5651 2.96797 53.0975 2.14545C55.6298 1.32293 56.8116 3.29698 58.331 4.44852C59.8505 5.60005 61.5387 3.13248 62.8893 6.09356C64.2399 9.05465 66.7723 7.2451 68.2917 7.2451C69.8111 7.2451 70.3176 8.56113 73.5253 9.71267C76.7329 10.8642 76.0576 7.2451 80.2783 9.71267C84.4989 12.1802 87.7066 8.89014 91.7584 7.2451C95.8102 5.60005 95.6413 4.44851 97.1608 6.09356C98.6802 7.73861 101.213 4.77752 102.901 4.44852C104.589 4.11951 108.472 7.5741 109.316 11.8512C110.16 16.1283 112.524 14.3188 114.212 15.3058C115.9 16.2928 114.212 19.7474 112.524 20.57C110.836 21.3925 114.212 23.8601 114.212 26.8211C114.212 29.7822 113.874 29.7822 114.212 32.0853C114.55 34.3884 117.589 34.3884 118.77 37.0204C119.952 39.6525 116.238 38.9945 115.225 38.172C114.212 37.3494 110.329 36.3624 108.472 38.172C106.615 39.9815 103.238 39.9815 100.368 38.9945C97.4984 38.0075 92.7713 40.475 88.8883 42.7781C85.0054 45.0812 80.6159 42.7781 78.2524 41.7911C75.8888 40.804 73.6941 45.0812 70.3176 43.9296C66.9411 42.7781 66.7723 43.9296 66.7723 48.0423C66.7723 52.1549 60.6946 48.8648 61.5387 46.5617C62.3828 44.2586 63.5646 42.7781 61.5387 43.9296Z" fill="#FEC830"/>
</svg>
