<svg width="261" height="112" viewBox="0 0 261 112" fill="none" xmlns="http://www.w3.org/2000/svg">
<path d="M134.971 98.4024C131.417 100.466 123.122 97.5426 119.42 95.8229C116.457 94.5973 112.384 101.719 111.273 107.615C110.163 113.51 103.498 107.615 94.9812 110.194C86.4647 112.773 77.9483 98.4024 70.1724 95.8229C62.3965 93.2435 60.9154 98.4024 56.472 104.298C52.0286 110.194 40.55 104.298 40.1797 98.4024C39.8094 92.5065 36.1066 93.612 33.885 95.8229C31.6633 98.0339 25.7388 95.8229 25.7388 91.401C25.7388 86.9791 21.2954 93.612 13.5195 91.401C5.74351 89.1901 15.371 82.9258 15.371 79.6094C15.371 76.2929 13.5195 71.8711 5.37337 71.8711C-2.77274 71.8711 -0.180886 56.026 3.52191 57.8684C7.22471 59.7109 14.26 60.0794 13.5195 56.026C12.7789 51.9726 10.5574 49.3931 10.5574 42.7603C10.5574 36.1275 5.37337 40.9179 3.52191 38.7069C1.67046 36.496 16.1114 31.3371 18.7034 28.7577C21.2954 26.1782 37.9581 28.7577 44.2527 28.7577C50.5474 28.7577 50.5475 26.5467 48.3258 21.7564C46.1041 16.966 28.3307 13.6496 25.7388 19.9139C23.147 26.1782 5.92874 28.8699 10.5574 26.5467C14.6261 24.5046 12.779 21.7564 5.37337 21.7564C-2.03223 21.7564 3.89225 16.229 5.37337 13.6496C6.85449 11.0701 11.2979 9.96467 10.5574 4.80581C9.81679 -0.353053 19.8144 -0.721544 25.7388 0.752418C31.6633 2.22638 35.732 4.42189 39.0645 11.4232C42.3971 18.4245 43.8826 9.96467 60.9154 16.229C77.9483 22.4934 78.6889 16.229 85.7242 9.96467C92.7595 3.70034 110.903 6.64826 116.457 4.80581C122.012 2.96336 124.604 7.38524 127.936 9.96467C131.269 12.5441 134.971 7.01675 137.934 13.6496C140.896 20.2824 146.45 16.229 149.783 16.229C153.115 16.229 154.226 19.1769 161.261 21.7564C168.297 24.3358 166.816 16.229 176.073 21.7564C185.33 27.2837 192.365 19.9139 201.252 16.229C210.138 12.5441 209.768 9.96467 213.101 13.6496C216.433 17.3345 221.987 10.7017 225.69 9.96467C229.393 9.22769 237.909 16.966 239.761 26.5467C241.612 36.1275 246.796 32.0741 250.499 34.285C254.202 36.496 250.499 44.2343 246.796 46.0767C243.093 47.9192 250.499 53.4465 250.499 60.0794C250.499 66.7122 249.758 66.7122 250.499 71.8711C251.239 77.0299 257.904 77.0299 260.496 82.9258C263.088 88.8216 254.942 87.3477 252.72 85.5052C250.499 83.6627 241.982 81.4518 237.909 85.5052C233.836 89.5586 226.431 89.5586 220.136 87.3477C213.841 85.1367 203.473 90.6641 194.957 95.8229C186.44 100.982 176.813 95.8229 171.629 93.612C166.445 91.4011 161.632 100.982 154.226 98.4024C146.82 95.8229 146.45 98.4024 146.45 107.615C146.45 116.827 133.12 109.457 134.971 104.298C136.823 99.1394 139.415 95.8229 134.971 98.4024Z" fill="#FEC830"/>
<path d="M37.5016 34.12C36.2136 34.12 35.0696 33.672 34.0696 32.776L34.6576 32.08C35.1056 32.488 35.5536 32.788 36.0016 32.98C36.4576 33.172 36.9696 33.268 37.5376 33.268C38.0976 33.268 38.5496 33.136 38.8936 32.872C39.2376 32.6 39.4096 32.248 39.4096 31.816C39.4096 31.408 39.2576 31.084 38.9536 30.844C38.6496 30.604 38.0736 30.396 37.2256 30.22C36.2256 30.004 35.5056 29.712 35.0656 29.344C34.6256 28.976 34.4056 28.452 34.4056 27.772C34.4056 27.108 34.6656 26.56 35.1856 26.128C35.7056 25.696 36.3656 25.48 37.1656 25.48C38.2776 25.48 39.2616 25.824 40.1176 26.512L39.5656 27.244C38.8216 26.636 38.0136 26.332 37.1416 26.332C36.6056 26.332 36.1736 26.464 35.8456 26.728C35.5176 26.984 35.3536 27.312 35.3536 27.712C35.3536 28.128 35.5096 28.456 35.8216 28.696C36.1416 28.936 36.7456 29.152 37.6336 29.344C38.5856 29.552 39.2776 29.844 39.7096 30.22C40.1496 30.588 40.3696 31.096 40.3696 31.744C40.3696 32.456 40.1016 33.032 39.5656 33.472C39.0296 33.904 38.3416 34.12 37.5016 34.12ZM44.2174 34.108C43.6814 34.108 43.2534 33.968 42.9334 33.688C42.6214 33.4 42.4654 32.956 42.4654 32.356V28.612H41.6014V27.796H42.4654V25.924H43.3894V27.796H45.3574V28.612H43.3894V32.236C43.3894 32.924 43.7374 33.268 44.4334 33.268C44.7374 33.268 45.0374 33.196 45.3334 33.052V33.844C44.9974 34.02 44.6254 34.108 44.2174 34.108ZM48.8409 34.132C48.2089 34.132 47.6649 33.96 47.2089 33.616C46.7529 33.272 46.5249 32.792 46.5249 32.176C46.5249 31.528 46.7649 31.028 47.2449 30.676C47.7249 30.324 48.3689 30.148 49.1769 30.148C49.8169 30.148 50.4489 30.236 51.0729 30.412V30.22C51.0729 29.676 50.9129 29.26 50.5929 28.972C50.2729 28.684 49.8209 28.54 49.2369 28.54C48.6289 28.54 48.0009 28.688 47.3529 28.984L47.0769 28.228C47.8449 27.876 48.5969 27.7 49.3329 27.7C50.2129 27.7 50.8809 27.928 51.3369 28.384C51.7689 28.816 51.9849 29.424 51.9849 30.208V34H51.0729V33.076C50.5209 33.78 49.7769 34.132 48.8409 34.132ZM49.0209 33.388C49.5969 33.388 50.0849 33.232 50.4849 32.92C50.8849 32.608 51.0849 32.208 51.0849 31.72V31.144C50.4769 30.968 49.8729 30.88 49.2729 30.88C48.7049 30.88 48.2609 30.996 47.9409 31.228C47.6209 31.452 47.4609 31.76 47.4609 32.152C47.4609 32.528 47.6089 32.828 47.9049 33.052C48.2089 33.276 48.5809 33.388 49.0209 33.388ZM53.9422 34V27.796H54.8662V28.84C55.3862 28.056 56.0542 27.664 56.8702 27.664C57.7982 27.664 58.4622 28.076 58.8622 28.9C59.3982 28.076 60.1262 27.664 61.0462 27.664C61.7582 27.664 62.3182 27.888 62.7262 28.336C63.1422 28.784 63.3502 29.392 63.3502 30.16V34H62.4262V30.376C62.4262 29.776 62.2822 29.316 61.9942 28.996C61.7142 28.668 61.3222 28.504 60.8182 28.504C60.3302 28.504 59.9222 28.676 59.5942 29.02C59.2662 29.364 59.1022 29.832 59.1022 30.424V34H58.1902V30.352C58.1902 29.776 58.0462 29.324 57.7582 28.996C57.4782 28.668 57.0902 28.504 56.5942 28.504C56.0982 28.504 55.6862 28.688 55.3582 29.056C55.0302 29.424 54.8662 29.892 54.8662 30.46V34H53.9422ZM68.6562 34.132C67.6802 34.132 66.8882 33.692 66.2802 32.812V34H65.3562V25.24H66.2802V29.044C66.9042 28.124 67.6962 27.664 68.6562 27.664C69.4482 27.664 70.1402 27.96 70.7322 28.552C71.3242 29.136 71.6202 29.92 71.6202 30.904C71.6202 31.872 71.3242 32.652 70.7322 33.244C70.1402 33.836 69.4482 34.132 68.6562 34.132ZM68.4882 33.304C69.1122 33.304 69.6322 33.088 70.0482 32.656C70.4642 32.216 70.6722 31.628 70.6722 30.892C70.6722 30.18 70.4602 29.604 70.0362 29.164C69.6122 28.716 69.0962 28.492 68.4882 28.492C67.8882 28.492 67.3642 28.72 66.9162 29.176C66.4682 29.632 66.2442 30.208 66.2442 30.904C66.2442 31.6 66.4682 32.176 66.9162 32.632C67.3642 33.08 67.8882 33.304 68.4882 33.304ZM75.605 34.132C74.869 34.132 74.289 33.908 73.865 33.46C73.441 33.004 73.229 32.4 73.229 31.648V27.796H74.153V31.42C74.153 32.004 74.301 32.464 74.597 32.8C74.901 33.128 75.325 33.292 75.869 33.292C76.405 33.292 76.849 33.112 77.201 32.752C77.553 32.392 77.729 31.924 77.729 31.348V27.796H78.641V34H77.729V32.92C77.225 33.728 76.517 34.132 75.605 34.132ZM81.1755 34V30.148L80.2635 30.436V29.536L81.1755 29.26V25.24H82.0875V28.984L82.9995 28.696V29.596L82.0875 29.884V34H81.1755Z" fill="#AA43A2"/>
<path d="M58.4999 14.7232C60.2308 14.7232 61.6338 16.1262 61.6338 17.8571C61.6338 19.1814 60.7033 20.6246 58.8663 22.2022C58.7642 22.29 58.6339 22.3381 58.4993 22.338C58.3646 22.3379 58.2345 22.2895 58.1325 22.2016L58.011 22.0961C56.2554 20.5597 55.366 19.1518 55.366 17.8571C55.366 16.1262 56.769 14.7232 58.4999 14.7232ZM58.4999 15.2053C57.7966 15.2053 57.1221 15.4847 56.6248 15.982C56.1275 16.4793 55.8481 17.1538 55.8481 17.8571C55.8481 18.9828 56.6671 20.2797 58.3276 21.7326L58.4475 21.8364C58.4621 21.849 58.4807 21.8558 58.4999 21.8558C58.5191 21.8558 58.5377 21.849 58.5523 21.8364C60.2931 20.3411 61.1517 19.0095 61.1517 17.8571C61.1517 17.5089 61.0831 17.1641 60.9498 16.8423C60.8166 16.5206 60.6212 16.2283 60.375 15.982C60.1287 15.7358 59.8364 15.5405 59.5147 15.4072C59.193 15.2739 58.8481 15.2053 58.4999 15.2053ZM58.4999 16.6518C58.8196 16.6518 59.1262 16.7788 59.3522 17.0048C59.5783 17.2309 59.7053 17.5375 59.7053 17.8571C59.7053 18.1768 59.5783 18.4834 59.3522 18.7095C59.1262 18.9355 58.8196 19.0625 58.4999 19.0625C58.1802 19.0625 57.8736 18.9355 57.6476 18.7095C57.4215 18.4834 57.2945 18.1768 57.2945 17.8571C57.2945 17.5375 57.4215 17.2309 57.6476 17.0048C57.8736 16.7788 58.1802 16.6518 58.4999 16.6518ZM58.4999 17.1339C58.3081 17.1339 58.1241 17.2101 57.9885 17.3457C57.8529 17.4814 57.7767 17.6653 57.7767 17.8571C57.7767 18.0489 57.8529 18.2329 57.9885 18.3685C58.1241 18.5042 58.3081 18.5803 58.4999 18.5803C58.6917 18.5803 58.8757 18.5042 59.0113 18.3685C59.1469 18.2329 59.2231 18.0489 59.2231 17.8571C59.2231 17.6653 59.1469 17.4814 59.0113 17.3457C58.8757 17.2101 58.6917 17.1339 58.4999 17.1339Z" fill="#AA43A2"/>
</svg>
