<svg width="261" height="127" viewBox="0 0 261 127" fill="none" xmlns="http://www.w3.org/2000/svg">
<path d="M134.971 98.4024C131.417 100.466 123.122 97.5426 119.42 95.8229C116.457 94.5973 112.384 101.719 111.273 107.615C110.163 113.51 103.498 107.615 94.9812 110.194C86.4647 112.773 77.9483 98.4024 70.1724 95.8229C62.3965 93.2435 60.9154 98.4024 56.472 104.298C52.0286 110.194 40.55 104.298 40.1797 98.4024C39.8094 92.5065 36.1066 93.612 33.885 95.8229C31.6633 98.0339 25.7388 95.8229 25.7388 91.401C25.7388 86.9791 21.2954 93.612 13.5195 91.401C5.74351 89.1901 15.371 82.9258 15.371 79.6094C15.371 76.2929 13.5195 71.8711 5.37337 71.8711C-2.77274 71.8711 -0.180886 56.026 3.52191 57.8684C7.22471 59.7109 14.26 60.0794 13.5195 56.026C12.7789 51.9726 10.5574 49.3931 10.5574 42.7603C10.5574 36.1275 5.37337 40.9179 3.52191 38.7069C1.67046 36.496 16.1114 31.3371 18.7034 28.7577C21.2954 26.1782 37.9581 28.7577 44.2527 28.7577C50.5474 28.7577 50.5475 26.5467 48.3258 21.7564C46.1041 16.966 28.3307 13.6496 25.7388 19.9139C23.147 26.1782 5.92874 28.8699 10.5574 26.5467C14.6261 24.5046 12.779 21.7564 5.37337 21.7564C-2.03223 21.7564 3.89225 16.229 5.37337 13.6496C6.85449 11.0701 11.2979 9.96467 10.5574 4.80581C9.81679 -0.353053 19.8144 -0.721544 25.7388 0.752418C31.6633 2.22638 35.732 4.42189 39.0645 11.4232C42.3971 18.4245 43.8826 9.96467 60.9154 16.229C77.9483 22.4934 78.6889 16.229 85.7242 9.96467C92.7595 3.70034 110.903 6.64826 116.457 4.80581C122.012 2.96336 124.604 7.38524 127.936 9.96467C131.269 12.5441 134.971 7.01675 137.934 13.6496C140.896 20.2824 146.45 16.229 149.783 16.229C153.115 16.229 154.226 19.1769 161.261 21.7564C168.297 24.3358 166.816 16.229 176.073 21.7564C185.33 27.2837 192.365 19.9139 201.252 16.229C210.138 12.5441 209.768 9.96467 213.101 13.6496C216.433 17.3345 221.987 10.7017 225.69 9.96467C229.393 9.22769 237.909 16.966 239.761 26.5467C241.612 36.1275 246.796 32.0741 250.499 34.285C254.202 36.496 250.499 44.2343 246.796 46.0767C243.093 47.9192 250.499 53.4465 250.499 60.0794C250.499 66.7122 249.758 66.7122 250.499 71.8711C251.239 77.0299 257.904 77.0299 260.496 82.9258C263.088 88.8216 254.942 87.3477 252.72 85.5052C250.499 83.6627 241.982 81.4518 237.909 85.5052C233.836 89.5586 226.431 89.5586 220.136 87.3477C213.841 85.1367 203.473 90.6641 194.957 95.8229C186.44 100.982 176.813 95.8229 171.629 93.612C166.445 91.4011 161.632 100.982 154.226 98.4024C146.82 95.8229 146.45 98.4024 146.45 107.615C146.45 116.827 133.12 109.457 134.971 104.298C136.823 99.1394 139.415 95.8229 134.971 98.4024Z" fill="#FEC830"/>
<path d="M37.2956 34.144C36.0876 34.144 35.0836 33.728 34.2836 32.896C33.4836 32.056 33.0836 31.024 33.0836 29.8C33.0836 28.592 33.4876 27.568 34.2956 26.728C35.1036 25.88 36.1156 25.456 37.3316 25.456C38.0356 25.456 38.6356 25.572 39.1316 25.804C39.6276 26.028 40.1116 26.364 40.5836 26.812L39.9596 27.484C39.1516 26.716 38.2716 26.332 37.3196 26.332C36.3916 26.332 35.6156 26.664 34.9916 27.328C34.3756 27.992 34.0676 28.816 34.0676 29.8C34.0676 30.776 34.3796 31.6 35.0036 32.272C35.6276 32.936 36.3996 33.268 37.3196 33.268C37.8636 33.268 38.3436 33.168 38.7596 32.968C39.1756 32.768 39.5996 32.464 40.0316 32.056L40.6556 32.716C40.1836 33.188 39.6876 33.544 39.1676 33.784C38.6476 34.024 38.0236 34.144 37.2956 34.144ZM43.659 34V28.612H41.439V27.796H46.815V28.612H44.595V34H43.659ZM50.007 34.132C49.375 34.132 48.831 33.96 48.375 33.616C47.919 33.272 47.691 32.792 47.691 32.176C47.691 31.528 47.931 31.028 48.411 30.676C48.891 30.324 49.535 30.148 50.343 30.148C50.983 30.148 51.615 30.236 52.239 30.412V30.22C52.239 29.676 52.079 29.26 51.759 28.972C51.439 28.684 50.987 28.54 50.403 28.54C49.795 28.54 49.167 28.688 48.519 28.984L48.243 28.228C49.011 27.876 49.763 27.7 50.499 27.7C51.379 27.7 52.047 27.928 52.503 28.384C52.935 28.816 53.151 29.424 53.151 30.208V34H52.239V33.076C51.687 33.78 50.943 34.132 50.007 34.132ZM50.187 33.388C50.763 33.388 51.251 33.232 51.651 32.92C52.051 32.608 52.251 32.208 52.251 31.72V31.144C51.643 30.968 51.039 30.88 50.439 30.88C49.871 30.88 49.427 30.996 49.107 31.228C48.787 31.452 48.627 31.76 48.627 32.152C48.627 32.528 48.775 32.828 49.071 33.052C49.375 33.276 49.747 33.388 50.187 33.388ZM55.1082 34V27.796H55.9842L58.3002 31.06L60.6162 27.796H61.5042V34H60.5682V29.272L58.2762 32.416L56.0082 29.272V34H55.1082ZM66.4851 34.144C65.5331 34.144 64.7691 33.832 64.1931 33.208C63.6251 32.576 63.3411 31.724 63.3411 30.652C63.3411 30.26 63.3491 29.928 63.3651 29.656C63.3811 29.376 63.4131 29.068 63.4611 28.732C63.5091 28.396 63.5851 28.108 63.6891 27.868C63.7931 27.628 63.9251 27.392 64.0851 27.16C64.2531 26.928 64.4691 26.732 64.7331 26.572C64.9971 26.412 65.3051 26.292 65.6571 26.212L69.1131 25.396L69.2931 26.176L65.9331 27.004C65.3091 27.164 64.8611 27.42 64.5891 27.772C64.3251 28.116 64.1691 28.596 64.1211 29.212C64.6491 28.316 65.5051 27.868 66.6891 27.868C67.5051 27.868 68.2051 28.172 68.7891 28.78C69.3731 29.38 69.6651 30.104 69.6651 30.952C69.6651 31.832 69.3611 32.584 68.7531 33.208C68.1451 33.832 67.3891 34.144 66.4851 34.144ZM66.5091 33.316C67.1411 33.316 67.6651 33.092 68.0811 32.644C68.4971 32.188 68.7051 31.632 68.7051 30.976C68.7051 30.328 68.4891 29.776 68.0571 29.32C67.6331 28.864 67.1091 28.636 66.4851 28.636C65.8531 28.636 65.3291 28.864 64.9131 29.32C64.4971 29.768 64.2891 30.32 64.2891 30.976C64.2891 31.624 64.5011 32.176 64.9251 32.632C65.3571 33.088 65.8851 33.316 66.5091 33.316ZM72.2986 35.956C71.8506 35.956 71.4106 35.852 70.9786 35.644L71.2906 34.912C71.5866 35.064 71.9106 35.14 72.2626 35.14C72.5426 35.14 72.7786 35.052 72.9706 34.876C73.1626 34.708 73.3506 34.408 73.5346 33.976L70.7146 27.796H71.7346L73.9906 32.968L75.9826 27.796H76.9666L74.3626 34.204C74.0986 34.836 73.8066 35.284 73.4866 35.548C73.1666 35.82 72.7706 35.956 72.2986 35.956ZM78.1285 34.096C77.8885 34.096 77.6405 34.064 77.3845 34L77.4925 33.208C77.6765 33.264 77.8245 33.292 77.9365 33.292C78.1125 33.292 78.2565 33.272 78.3685 33.232C78.4805 33.184 78.6005 33.068 78.7285 32.884C78.8645 32.692 78.9685 32.424 79.0405 32.08C79.1125 31.736 79.1725 31.248 79.2205 30.616C79.2765 29.984 79.3045 29.216 79.3045 28.312V27.796H83.6965V34H82.7725V28.612H80.1805V28.756C80.1805 29.7 80.1445 30.504 80.0725 31.168C80.0005 31.832 79.9085 32.352 79.7965 32.728C79.6925 33.104 79.5445 33.396 79.3525 33.604C79.1605 33.812 78.9725 33.944 78.7885 34C78.6125 34.064 78.3925 34.096 78.1285 34.096Z" fill="#AA43A2"/>
<path d="M58.4999 14.7232C60.2308 14.7232 61.6338 16.1262 61.6338 17.8571C61.6338 19.1814 60.7033 20.6246 58.8663 22.2022C58.7642 22.29 58.6339 22.3381 58.4993 22.338C58.3646 22.3379 58.2345 22.2895 58.1325 22.2016L58.011 22.0961C56.2554 20.5597 55.366 19.1518 55.366 17.8571C55.366 16.1262 56.769 14.7232 58.4999 14.7232ZM58.4999 15.2053C57.7966 15.2053 57.1221 15.4847 56.6248 15.982C56.1275 16.4793 55.8481 17.1538 55.8481 17.8571C55.8481 18.9828 56.6671 20.2797 58.3276 21.7326L58.4475 21.8364C58.4621 21.849 58.4807 21.8558 58.4999 21.8558C58.5191 21.8558 58.5377 21.849 58.5523 21.8364C60.2931 20.3411 61.1517 19.0095 61.1517 17.8571C61.1517 17.5089 61.0831 17.1641 60.9498 16.8423C60.8166 16.5206 60.6212 16.2283 60.375 15.982C60.1287 15.7358 59.8364 15.5405 59.5147 15.4072C59.193 15.2739 58.8481 15.2053 58.4999 15.2053ZM58.4999 16.6518C58.8196 16.6518 59.1262 16.7788 59.3522 17.0048C59.5783 17.2309 59.7053 17.5375 59.7053 17.8571C59.7053 18.1768 59.5783 18.4834 59.3522 18.7095C59.1262 18.9355 58.8196 19.0625 58.4999 19.0625C58.1802 19.0625 57.8736 18.9355 57.6476 18.7095C57.4215 18.4834 57.2945 18.1768 57.2945 17.8571C57.2945 17.5375 57.4215 17.2309 57.6476 17.0048C57.8736 16.7788 58.1802 16.6518 58.4999 16.6518ZM58.4999 17.1339C58.3081 17.1339 58.1241 17.2101 57.9885 17.3457C57.8529 17.4814 57.7767 17.6653 57.7767 17.8571C57.7767 18.0489 57.8529 18.2329 57.9885 18.3685C58.1241 18.5042 58.3081 18.5803 58.4999 18.5803C58.6917 18.5803 58.8757 18.5042 59.0113 18.3685C59.1469 18.2329 59.2231 18.0489 59.2231 17.8571C59.2231 17.6653 59.1469 17.4814 59.0113 17.3457C58.8757 17.2101 58.6917 17.1339 58.4999 17.1339Z" fill="#AA43A2"/>
</svg>
