<svg width="261" height="112" viewBox="0 0 261 112" fill="none" xmlns="http://www.w3.org/2000/svg">
<path d="M134.971 98.4024C131.417 100.466 123.122 97.5426 119.42 95.8229C116.457 94.5973 112.384 101.719 111.273 107.615C110.163 113.51 103.498 107.615 94.9812 110.194C86.4647 112.773 77.9483 98.4024 70.1724 95.8229C62.3965 93.2435 60.9154 98.4024 56.472 104.298C52.0286 110.194 40.55 104.298 40.1797 98.4024C39.8094 92.5065 36.1066 93.612 33.885 95.8229C31.6633 98.0339 25.7388 95.8229 25.7388 91.401C25.7388 86.9791 21.2954 93.612 13.5195 91.401C5.74351 89.1901 15.371 82.9258 15.371 79.6094C15.371 76.2929 13.5195 71.8711 5.37337 71.8711C-2.77274 71.8711 -0.180886 56.026 3.52191 57.8684C7.22471 59.7109 14.26 60.0794 13.5195 56.026C12.7789 51.9726 10.5574 49.3931 10.5574 42.7603C10.5574 36.1275 5.37337 40.9179 3.52191 38.7069C1.67046 36.496 16.1114 31.3371 18.7034 28.7577C21.2954 26.1782 37.9581 28.7577 44.2527 28.7577C50.5474 28.7577 50.5475 26.5467 48.3258 21.7564C46.1041 16.966 28.3307 13.6496 25.7388 19.9139C23.147 26.1782 5.92874 28.8699 10.5574 26.5467C14.6261 24.5046 12.779 21.7564 5.37337 21.7564C-2.03223 21.7564 3.89225 16.229 5.37337 13.6496C6.85449 11.0701 11.2979 9.96467 10.5574 4.80581C9.81679 -0.353053 19.8144 -0.721544 25.7388 0.752418C31.6633 2.22638 35.732 4.42189 39.0645 11.4232C42.3971 18.4245 43.8826 9.96467 60.9154 16.229C77.9483 22.4934 78.6889 16.229 85.7242 9.96467C92.7595 3.70034 110.903 6.64826 116.457 4.80581C122.012 2.96336 124.604 7.38524 127.936 9.96467C131.269 12.5441 134.971 7.01675 137.934 13.6496C140.896 20.2824 146.45 16.229 149.783 16.229C153.115 16.229 154.226 19.1769 161.261 21.7564C168.297 24.3358 166.816 16.229 176.073 21.7564C185.33 27.2837 192.365 19.9139 201.252 16.229C210.138 12.5441 209.768 9.96467 213.101 13.6496C216.433 17.3345 221.987 10.7017 225.69 9.96467C229.393 9.22769 237.909 16.966 239.761 26.5467C241.612 36.1275 246.796 32.0741 250.499 34.285C254.202 36.496 250.499 44.2343 246.796 46.0767C243.093 47.9192 250.499 53.4465 250.499 60.0794C250.499 66.7122 249.758 66.7122 250.499 71.8711C251.239 77.0299 257.904 77.0299 260.496 82.9258C263.088 88.8216 254.942 87.3477 252.72 85.5052C250.499 83.6627 241.982 81.4518 237.909 85.5052C233.836 89.5586 226.431 89.5586 220.136 87.3477C213.841 85.1367 203.473 90.6641 194.957 95.8229C186.44 100.982 176.813 95.8229 171.629 93.612C166.445 91.4011 161.632 100.982 154.226 98.4024C146.82 95.8229 146.45 98.4024 146.45 107.615C146.45 116.827 133.12 109.457 134.971 104.298C136.823 99.1394 139.415 95.8229 134.971 98.4024Z" fill="#FEC830"/>
<path d="M37.7576 34H34.6616V33.376L35.6696 33.148V26.296L34.6616 26.056V25.432H37.7576V26.056L36.7496 26.296V33.148L37.7576 33.376V34ZM36.2576 23.02C36.4176 23.02 36.5576 23.076 36.6776 23.188C36.8056 23.292 36.8696 23.46 36.8696 23.692C36.8696 23.916 36.8056 24.084 36.6776 24.196C36.5576 24.308 36.4176 24.364 36.2576 24.364C36.0816 24.364 35.9336 24.308 35.8136 24.196C35.6936 24.084 35.6336 23.916 35.6336 23.692C35.6336 23.46 35.6936 23.292 35.8136 23.188C35.9336 23.076 36.0816 23.02 36.2576 23.02ZM41.332 34.12C40.884 34.12 40.428 34.04 39.964 33.88C39.508 33.712 39.108 33.488 38.764 33.208L39.232 32.548C39.936 33.076 40.652 33.34 41.38 33.34C41.756 33.34 42.064 33.248 42.304 33.064C42.544 32.88 42.664 32.636 42.664 32.332C42.664 32.052 42.532 31.836 42.268 31.684C42.012 31.532 41.628 31.384 41.116 31.24C40.804 31.152 40.556 31.072 40.372 31C40.188 30.928 39.98 30.828 39.748 30.7C39.516 30.564 39.344 30.396 39.232 30.196C39.12 29.988 39.064 29.744 39.064 29.464C39.064 28.936 39.26 28.508 39.652 28.18C40.052 27.852 40.56 27.688 41.176 27.688C41.976 27.688 42.72 27.916 43.408 28.372L42.988 29.068C42.372 28.668 41.76 28.468 41.152 28.468C40.792 28.468 40.5 28.556 40.276 28.732C40.06 28.9 39.952 29.12 39.952 29.392C39.952 29.504 39.984 29.608 40.048 29.704C40.112 29.8 40.184 29.88 40.264 29.944C40.344 30.008 40.468 30.076 40.636 30.148C40.812 30.22 40.952 30.272 41.056 30.304C41.16 30.336 41.324 30.388 41.548 30.46C41.844 30.548 42.088 30.632 42.28 30.712C42.472 30.792 42.676 30.9 42.892 31.036C43.108 31.172 43.268 31.344 43.372 31.552C43.484 31.752 43.54 31.988 43.54 32.26C43.54 32.836 43.332 33.292 42.916 33.628C42.5 33.956 41.972 34.12 41.332 34.12ZM47.2154 34.108C46.6794 34.108 46.2514 33.968 45.9314 33.688C45.6194 33.4 45.4634 32.956 45.4634 32.356V28.612H44.5994V27.796H45.4634V25.924H46.3874V27.796H48.3554V28.612H46.3874V32.236C46.3874 32.924 46.7354 33.268 47.4314 33.268C47.7354 33.268 48.0354 33.196 48.3314 33.052V33.844C47.9954 34.02 47.6234 34.108 47.2154 34.108ZM51.839 34.132C51.207 34.132 50.663 33.96 50.207 33.616C49.751 33.272 49.523 32.792 49.523 32.176C49.523 31.528 49.763 31.028 50.243 30.676C50.723 30.324 51.367 30.148 52.175 30.148C52.815 30.148 53.447 30.236 54.071 30.412V30.22C54.071 29.676 53.911 29.26 53.591 28.972C53.271 28.684 52.819 28.54 52.235 28.54C51.627 28.54 50.999 28.688 50.351 28.984L50.075 28.228C50.843 27.876 51.595 27.7 52.331 27.7C53.211 27.7 53.879 27.928 54.335 28.384C54.767 28.816 54.983 29.424 54.983 30.208V34H54.071V33.076C53.519 33.78 52.775 34.132 51.839 34.132ZM52.019 33.388C52.595 33.388 53.083 33.232 53.483 32.92C53.883 32.608 54.083 32.208 54.083 31.72V31.144C53.475 30.968 52.871 30.88 52.271 30.88C51.703 30.88 51.259 30.996 50.939 31.228C50.619 31.452 50.459 31.76 50.459 32.152C50.459 32.528 50.607 32.828 50.903 33.052C51.207 33.276 51.579 33.388 52.019 33.388ZM56.9402 34V27.796H57.8642V28.876C58.3522 28.068 59.0602 27.664 59.9882 27.664C60.7242 27.664 61.3042 27.892 61.7282 28.348C62.1522 28.796 62.3642 29.396 62.3642 30.148V34H61.4402V30.376C61.4402 29.792 61.2882 29.336 60.9842 29.008C60.6882 28.672 60.2682 28.504 59.7242 28.504C59.1882 28.504 58.7442 28.684 58.3922 29.044C58.0402 29.404 57.8642 29.872 57.8642 30.448V34H56.9402ZM67.6347 34.132C66.6587 34.132 65.8667 33.692 65.2587 32.812V34H64.3347V25.24H65.2587V29.044C65.8827 28.124 66.6747 27.664 67.6347 27.664C68.4267 27.664 69.1187 27.96 69.7107 28.552C70.3027 29.136 70.5987 29.92 70.5987 30.904C70.5987 31.872 70.3027 32.652 69.7107 33.244C69.1187 33.836 68.4267 34.132 67.6347 34.132ZM67.4667 33.304C68.0907 33.304 68.6107 33.088 69.0267 32.656C69.4427 32.216 69.6507 31.628 69.6507 30.892C69.6507 30.18 69.4387 29.604 69.0147 29.164C68.5907 28.716 68.0747 28.492 67.4667 28.492C66.8667 28.492 66.3427 28.72 65.8947 29.176C65.4467 29.632 65.2227 30.208 65.2227 30.904C65.2227 31.6 65.4467 32.176 65.8947 32.632C66.3427 33.08 66.8667 33.304 67.4667 33.304ZM74.5835 34.132C73.8475 34.132 73.2675 33.908 72.8435 33.46C72.4195 33.004 72.2075 32.4 72.2075 31.648V27.796H73.1315V31.42C73.1315 32.004 73.2795 32.464 73.5755 32.8C73.8795 33.128 74.3035 33.292 74.8475 33.292C75.3835 33.292 75.8275 33.112 76.1795 32.752C76.5315 32.392 76.7075 31.924 76.7075 31.348V27.796H77.6195V34H76.7075V32.92C76.2035 33.728 75.4955 34.132 74.5835 34.132ZM79.782 34V25.24H80.706V34H79.782Z" fill="#AA43A2"/>
<path d="M58.5 14.7233C60.2308 14.7233 61.6339 16.1263 61.6339 17.8572C61.6339 19.1815 60.7033 20.6247 58.8664 22.2023C58.7642 22.29 58.634 22.3382 58.4994 22.3381C58.3647 22.338 58.2346 22.2895 58.1326 22.2016L58.0111 22.0962C56.2554 20.5598 55.366 19.1519 55.366 17.8572C55.366 16.1263 56.7691 14.7233 58.5 14.7233ZM58.5 15.2054C57.7967 15.2054 57.1222 15.4848 56.6249 15.9821C56.1276 16.4794 55.8482 17.1539 55.8482 17.8572C55.8482 18.9828 56.6672 20.2798 58.3277 21.7327L58.4476 21.8365C58.4621 21.849 58.4807 21.8559 58.5 21.8559C58.5192 21.8559 58.5378 21.849 58.5523 21.8365C60.2932 20.3412 61.1517 19.0095 61.1517 17.8572C61.1517 17.509 61.0832 17.1641 60.9499 16.8424C60.8166 16.5207 60.6213 16.2283 60.3751 15.9821C60.1288 15.7359 59.8365 15.5405 59.5148 15.4073C59.193 15.274 58.8482 15.2054 58.5 15.2054ZM58.5 16.6518C58.8196 16.6518 59.1262 16.7788 59.3523 17.0049C59.5783 17.2309 59.7053 17.5375 59.7053 17.8572C59.7053 18.1769 59.5783 18.4835 59.3523 18.7095C59.1262 18.9356 58.8196 19.0626 58.5 19.0626C58.1803 19.0626 57.8737 18.9356 57.6476 18.7095C57.4216 18.4835 57.2946 18.1769 57.2946 17.8572C57.2946 17.5375 57.4216 17.2309 57.6476 17.0049C57.8737 16.7788 58.1803 16.6518 58.5 16.6518ZM58.5 17.134C58.3081 17.134 58.1242 17.2102 57.9886 17.3458C57.8529 17.4814 57.7767 17.6654 57.7767 17.8572C57.7767 18.049 57.8529 18.233 57.9886 18.3686C58.1242 18.5042 58.3081 18.5804 58.5 18.5804C58.6918 18.5804 58.8757 18.5042 59.0113 18.3686C59.147 18.233 59.2232 18.049 59.2232 17.8572C59.2232 17.6654 59.147 17.4814 59.0113 17.3458C58.8757 17.2102 58.6918 17.134 58.5 17.134Z" fill="#AA43A2"/>
</svg>
