<svg width="180" height="133" viewBox="0 0 180 133" fill="none" xmlns="http://www.w3.org/2000/svg">
<path d="M113.934 98.6557C112.244 99.6031 111.196 97.8661 110.883 96.8792C110.062 97.8267 105.602 96.8792 102.316 96.8792C99.0306 96.8792 95.2752 95.1027 96.0967 91.9051C96.9182 88.7075 100.673 93.3263 103.138 91.1945C105.602 89.0628 101.847 89.5365 97.5049 89.5365C93.1629 89.5365 91.1679 89.5365 86.9432 91.1945C82.7186 92.8526 86.3565 94.0369 83.0706 99.84C79.7847 105.643 77.9071 102.801 76.6162 106.472C75.3254 110.144 76.4989 108.604 75.6774 111.802C74.8559 114.999 74.3865 111.802 73.5651 108.604C72.7436 105.406 70.9833 107.538 64.529 110.736C58.0746 113.933 58.6613 108.485 58.1919 105.525C57.7225 102.564 60.4216 104.696 62.4166 102.209C64.4115 99.7216 66.0545 99.84 67.3454 96.8792C68.6363 93.9184 66.5239 91.5498 70.9833 91.1945C75.4427 90.8392 75.4427 91.9051 77.9071 93.3263C80.3715 94.7475 79.0806 91.6682 77.9071 88.3522C76.7336 85.0361 73.6824 83.6149 74.3865 81.3647C75.0906 79.1145 70.9833 77.9302 68.6363 74.9694C66.2893 72.0086 70.0445 72.3639 69.3404 69.0478C68.6363 65.7318 66.7586 66.9161 64.529 66.9161C62.2993 66.9161 61.7125 67.982 59.6002 64.3106C57.4878 60.6392 53.6152 61.7051 49.6252 61.8235C45.6352 61.942 43.9923 63.6 42.1147 66.9161C40.2371 70.2322 35.1909 66.9161 32.0224 67.982C28.8539 69.0478 28.5018 71.298 26.5068 70.5875C24.5119 69.8769 24.9812 66.2055 21.1086 66.9161C17.236 67.6267 16.8839 67.2714 14.6542 65.4949C12.4245 63.7184 10.0775 64.6659 5.03134 62.8894C-0.014802 61.1129 -0.836268 55.6651 0.689311 54.4808C2.21489 53.2965 3.97517 50.5725 4.32723 48.2039C4.67929 45.8353 6.32222 47.6118 7.8478 48.2039C9.37338 48.7961 7.96514 46.309 7.14368 42.8745C6.32221 39.44 10.4295 33.8737 14.6542 31.3867C18.8789 28.8996 21.578 28.3074 22.2821 24.7545C22.9862 21.2016 19.9351 18.5961 18.1748 12.5561C16.4145 6.51608 21.9301 9.12157 23.3383 9.95059C24.7465 10.7796 25.6853 7.22667 28.5018 5.80549C31.3182 4.38431 42.5841 5.80549 43.9923 7.22667C45.4005 8.64784 59.2481 12.5561 62.4166 12.5561C65.5851 12.5561 68.871 11.6086 70.9833 11.7271C73.0956 11.8455 71.6874 16.109 74.3865 15.8722C77.0856 15.6353 78.6112 12.5561 80.6062 14.5694C82.6012 16.5827 82.1318 17.8855 84.3615 17.0565C86.5911 16.2274 86.9432 7.22667 89.6423 5.80549C92.3414 4.38431 96.4487 7.22667 99.0305 5.80549C101.612 4.38431 102.199 2.60784 105.25 3.08157C108.301 3.55529 111.939 0.120783 113.934 0.00235113C115.929 -0.11608 117.455 4.26588 119.919 7.22667C122.384 10.1874 121.21 10.6612 119.098 12.5561C116.985 14.451 120.389 18.3592 124.613 17.8855C128.838 17.4118 130.95 21.7937 132.006 24.7545C133.063 27.7153 129.542 27.8337 132.711 29.9655C135.879 32.0973 136.818 29.1365 139.048 29.9655C141.277 30.7945 142.216 31.3867 146.441 29.1365C150.665 26.8863 152.778 31.2682 153.834 33.8737C154.89 36.4792 158.997 32.6894 160.992 33.8737C162.987 35.058 171.319 36.8345 174.723 36.2424C178.126 35.6502 180.825 41.4533 179.065 43.5851C177.304 45.7169 176.366 46.6643 178.009 47.4933C179.651 48.3224 179.769 49.7435 178.009 50.2173C176.248 50.691 175.075 45.9537 179.065 56.3757C183.055 66.7977 173.197 65.3765 169.794 66.3239C166.391 67.2714 168.972 68.4557 166.039 69.2847C163.105 70.1137 164.161 72.6008 164.63 75.7984C165.1 78.9961 163.222 79.7067 160.288 78.5223C157.355 77.338 157.237 78.9961 155.36 81.3647C153.482 83.7333 151.604 84.0886 148.905 84.7992C146.206 85.5098 142.216 87.8784 139.634 89.5365C137.053 91.1945 132.006 92.7341 129.542 95.1027C127.078 97.4714 130.833 99.84 132.006 105.525C133.18 111.209 138.93 107.538 142.216 106.472C145.502 105.406 148.084 107.538 147.732 110.736C147.38 113.933 141.277 112.394 137.874 111.802C134.471 111.209 136.231 113.933 132.945 115.828C129.659 117.723 127.078 116.894 125.904 119.736C124.731 122.579 120.623 124 117.455 124C114.286 124 113.934 120.802 116.164 119.026C118.394 117.249 117.455 115.71 116.164 113.104C114.873 110.499 111.705 111.802 109.24 109.315C106.776 106.827 106.541 109.433 105.602 107.538C104.663 105.643 114.638 100.906 117.455 99.84C120.271 98.7741 116.047 97.4714 113.934 98.6557Z" fill="#FEC830"/>
<path d="M78.188 38V29.6H79.136V34.616L83.96 29.6H85.184L81.584 33.272L85.34 38H84.152L80.924 33.932L79.136 35.744V38H78.188ZM86.657 38V31.796H87.581V36.704L91.265 31.796H92.165V38H91.241V33.092L87.545 38H86.657ZM93.1833 30.86V29.72H94.2633V30.86H93.1833ZM95.2953 30.86V29.72H96.3753V30.86H95.2953ZM94.3113 38V31.796H95.2353V38H94.3113ZM97.3797 38V31.796H100.38C100.996 31.796 101.488 31.936 101.856 32.216C102.224 32.496 102.408 32.872 102.408 33.344C102.408 34.008 102.064 34.484 101.376 34.772C102.288 35.02 102.744 35.532 102.744 36.308C102.744 36.828 102.54 37.24 102.132 37.544C101.724 37.848 101.176 38 100.488 38H97.3797ZM98.3037 37.208H100.368C100.808 37.208 101.156 37.116 101.412 36.932C101.668 36.748 101.796 36.492 101.796 36.164C101.796 35.86 101.66 35.624 101.388 35.456C101.124 35.288 100.744 35.204 100.248 35.204H98.3037V37.208ZM98.3037 34.46H100.212C100.596 34.46 100.9 34.376 101.124 34.208C101.356 34.032 101.472 33.784 101.472 33.464C101.472 33.2 101.364 32.988 101.148 32.828C100.932 32.668 100.628 32.588 100.236 32.588H98.3037V34.46Z" fill="#AA43A2"/>
<path d="M90.4999 18.7232C92.2308 18.7232 93.6338 20.1262 93.6338 21.8571C93.6338 23.1814 92.7033 24.6246 90.8663 26.2022C90.7642 26.29 90.6339 26.3381 90.4993 26.338C90.3646 26.3379 90.2345 26.2895 90.1325 26.2016L90.011 26.0961C88.2554 24.5597 87.366 23.1518 87.366 21.8571C87.366 20.1262 88.769 18.7232 90.4999 18.7232ZM90.4999 19.2053C89.7966 19.2053 89.1221 19.4847 88.6248 19.982C88.1275 20.4793 87.8481 21.1538 87.8481 21.8571C87.8481 22.9828 88.6671 24.2797 90.3276 25.7326L90.4475 25.8364C90.4621 25.849 90.4807 25.8558 90.4999 25.8558C90.5191 25.8558 90.5377 25.849 90.5523 25.8364C92.2931 24.3411 93.1517 23.0095 93.1517 21.8571C93.1517 21.5089 93.0831 21.1641 92.9498 20.8423C92.8166 20.5206 92.6212 20.2283 92.375 19.982C92.1287 19.7358 91.8364 19.5405 91.5147 19.4072C91.193 19.2739 90.8481 19.2053 90.4999 19.2053ZM90.4999 20.6518C90.8196 20.6518 91.1262 20.7788 91.3522 21.0048C91.5783 21.2309 91.7053 21.5375 91.7053 21.8571C91.7053 22.1768 91.5783 22.4834 91.3522 22.7095C91.1262 22.9355 90.8196 23.0625 90.4999 23.0625C90.1802 23.0625 89.8736 22.9355 89.6476 22.7095C89.4215 22.4834 89.2945 22.1768 89.2945 21.8571C89.2945 21.5375 89.4215 21.2309 89.6476 21.0048C89.8736 20.7788 90.1802 20.6518 90.4999 20.6518ZM90.4999 21.1339C90.3081 21.1339 90.1241 21.2101 89.9885 21.3457C89.8529 21.4814 89.7767 21.6653 89.7767 21.8571C89.7767 22.0489 89.8529 22.2329 89.9885 22.3685C90.1241 22.5042 90.3081 22.5803 90.4999 22.5803C90.6917 22.5803 90.8757 22.5042 91.0113 22.3685C91.1469 22.2329 91.2231 22.0489 91.2231 21.8571C91.2231 21.6653 91.1469 21.4814 91.0113 21.3457C90.8757 21.2101 90.6917 21.1339 90.4999 21.1339Z" fill="#AA43A2"/>
<path d="M60.188 63V54.6H63.764C64.748 54.6 65.48 54.848 65.96 55.344C66.32 55.72 66.5 56.176 66.5 56.712C66.5 57.624 66.056 58.272 65.168 58.656C66.368 59.016 66.968 59.7 66.968 60.708C66.968 61.42 66.692 61.98 66.14 62.388C65.588 62.796 64.848 63 63.92 63H60.188ZM61.124 62.148H63.944C64.584 62.148 65.088 62.016 65.456 61.752C65.824 61.48 66.008 61.104 66.008 60.624C66.008 60.16 65.816 59.804 65.432 59.556C65.056 59.308 64.504 59.184 63.776 59.184H61.124V62.148ZM61.124 58.344H63.608C64.192 58.344 64.66 58.212 65.012 57.948C65.364 57.684 65.54 57.308 65.54 56.82C65.54 56.396 65.376 56.064 65.048 55.824C64.728 55.576 64.272 55.452 63.68 55.452H61.124V58.344ZM68.7762 63V56.796H69.7002V63H68.7762ZM68.7162 55.44V54.42H69.7722V55.44H68.7162ZM71.8445 63V56.796H72.7685V59.472H76.3445V56.796H77.2685V63H76.3445V60.288H72.7685V63H71.8445ZM79.3328 63V56.796H80.2568V59.472H83.8328V56.796H84.7568V63H83.8328V60.288H80.2568V63H79.3328ZM86.8211 63V56.796H87.7451V61.704L91.4291 56.796H92.3291V63H91.4051V58.092L87.7091 63H86.8211ZM99.7434 64.548V63H94.3914V56.796H95.3154V62.184H98.7954V56.796H99.7194V62.184H100.655L100.511 64.548H99.7434ZM101.375 63L103.271 60.6C102.783 60.488 102.383 60.268 102.071 59.94C101.767 59.612 101.615 59.208 101.615 58.728C101.615 58.152 101.823 57.688 102.239 57.336C102.655 56.976 103.227 56.796 103.955 56.796H106.871V63H105.947V60.744H104.231C104.159 60.84 103.911 61.168 103.487 61.728C103.063 62.288 102.739 62.712 102.515 63H101.375ZM104.027 59.964H105.947V57.612H104.003C103.547 57.612 103.187 57.716 102.923 57.924C102.667 58.124 102.539 58.404 102.539 58.764C102.539 59.132 102.675 59.424 102.947 59.64C103.227 59.856 103.587 59.964 104.027 59.964Z" fill="#AA43A2"/>
<path d="M83.4999 43.7232C85.2308 43.7232 86.6338 45.1262 86.6338 46.8571C86.6338 48.1814 85.7033 49.6246 83.8663 51.2022C83.7642 51.29 83.6339 51.3381 83.4993 51.338C83.3646 51.3379 83.2345 51.2895 83.1325 51.2016L83.011 51.0961C81.2554 49.5597 80.366 48.1518 80.366 46.8571C80.366 45.1262 81.769 43.7232 83.4999 43.7232ZM83.4999 44.2053C82.7966 44.2053 82.1221 44.4847 81.6248 44.982C81.1275 45.4793 80.8481 46.1538 80.8481 46.8571C80.8481 47.9828 81.6671 49.2797 83.3276 50.7326L83.4475 50.8364C83.4621 50.849 83.4807 50.8558 83.4999 50.8558C83.5191 50.8558 83.5377 50.849 83.5523 50.8364C85.2931 49.3411 86.1517 48.0095 86.1517 46.8571C86.1517 46.5089 86.0831 46.1641 85.9498 45.8423C85.8166 45.5206 85.6212 45.2283 85.375 44.982C85.1287 44.7358 84.8364 44.5405 84.5147 44.4072C84.193 44.2739 83.8481 44.2053 83.4999 44.2053ZM83.4999 45.6518C83.8196 45.6518 84.1262 45.7788 84.3522 46.0048C84.5783 46.2309 84.7053 46.5375 84.7053 46.8571C84.7053 47.1768 84.5783 47.4834 84.3522 47.7095C84.1262 47.9355 83.8196 48.0625 83.4999 48.0625C83.1802 48.0625 82.8736 47.9355 82.6476 47.7095C82.4215 47.4834 82.2945 47.1768 82.2945 46.8571C82.2945 46.5375 82.4215 46.2309 82.6476 46.0048C82.8736 45.7788 83.1802 45.6518 83.4999 45.6518ZM83.4999 46.1339C83.3081 46.1339 83.1241 46.2101 82.9885 46.3457C82.8529 46.4814 82.7767 46.6653 82.7767 46.8571C82.7767 47.0489 82.8529 47.2329 82.9885 47.3685C83.1241 47.5042 83.3081 47.5803 83.4999 47.5803C83.6917 47.5803 83.8757 47.5042 84.0113 47.3685C84.1469 47.2329 84.2231 47.0489 84.2231 46.8571C84.2231 46.6653 84.1469 46.4814 84.0113 46.3457C83.8757 46.2101 83.6917 46.1339 83.4999 46.1339Z" fill="#AA43A2"/>
<path d="M12.0789 58.096C11.7029 58.096 11.3389 58.028 10.9869 57.892L11.1789 57.124C11.3549 57.204 11.6029 57.244 11.9229 57.244C12.0829 57.244 12.2269 57.22 12.3549 57.172C12.4829 57.116 12.6349 56.972 12.8109 56.74C12.9869 56.5 13.1309 56.176 13.2429 55.768C13.3549 55.352 13.4509 54.748 13.5309 53.956C13.6189 53.156 13.6629 52.212 13.6629 51.124V49.6H19.0989V58H18.1509V50.464H14.5749V51.376C14.5749 52.512 14.5269 53.496 14.4309 54.328C14.3429 55.16 14.2229 55.816 14.0709 56.296C13.9269 56.768 13.7389 57.144 13.5069 57.424C13.2829 57.704 13.0589 57.888 12.8349 57.976C12.6189 58.056 12.3669 58.096 12.0789 58.096ZM21.3133 58V51.796H22.2373V54.124H23.8933C24.6133 54.124 25.2013 54.28 25.6573 54.592C26.1133 54.896 26.3412 55.36 26.3412 55.984C26.3412 56.6 26.1293 57.092 25.7053 57.46C25.2813 57.82 24.7133 58 24.0013 58H21.3133ZM22.2373 57.184H23.9173C24.3893 57.184 24.7533 57.084 25.0093 56.884C25.2733 56.684 25.4053 56.392 25.4053 56.008C25.4053 55.656 25.2693 55.388 24.9973 55.204C24.7333 55.012 24.3613 54.916 23.8813 54.916H22.2373V57.184ZM27.7703 58V51.796H30.7703C31.3863 51.796 31.8783 51.936 32.2463 52.216C32.6143 52.496 32.7983 52.872 32.7983 53.344C32.7983 54.008 32.4543 54.484 31.7663 54.772C32.6783 55.02 33.1343 55.532 33.1343 56.308C33.1343 56.828 32.9303 57.24 32.5223 57.544C32.1143 57.848 31.5663 58 30.8783 58H27.7703ZM28.6943 57.208H30.7583C31.1983 57.208 31.5463 57.116 31.8023 56.932C32.0583 56.748 32.1863 56.492 32.1863 56.164C32.1863 55.86 32.0503 55.624 31.7783 55.456C31.5143 55.288 31.1343 55.204 30.6383 55.204H28.6943V57.208ZM28.6943 54.46H30.6023C30.9863 54.46 31.2903 54.376 31.5143 54.208C31.7463 54.032 31.8623 53.784 31.8623 53.464C31.8623 53.2 31.7543 52.988 31.5383 52.828C31.3223 52.668 31.0183 52.588 30.6263 52.588H28.6943V54.46ZM34.8855 58V51.796H35.8095V58H34.8855ZM34.8255 50.44V49.42H35.8815V50.44H34.8255ZM37.9539 58V51.796H40.9539C41.5699 51.796 42.0619 51.936 42.4299 52.216C42.7979 52.496 42.9819 52.872 42.9819 53.344C42.9819 54.008 42.6379 54.484 41.9499 54.772C42.8619 55.02 43.3179 55.532 43.3179 56.308C43.3179 56.828 43.1139 57.24 42.7059 57.544C42.2979 57.848 41.7499 58 41.0619 58H37.9539ZM38.8779 57.208H40.9419C41.3819 57.208 41.7299 57.116 41.9859 56.932C42.2419 56.748 42.3699 56.492 42.3699 56.164C42.3699 55.86 42.2339 55.624 41.9619 55.456C41.6979 55.288 41.3179 55.204 40.8219 55.204H38.8779V57.208ZM38.8779 54.46H40.7859C41.1699 54.46 41.4739 54.376 41.6979 54.208C41.9299 54.032 42.0459 53.784 42.0459 53.464C42.0459 53.2 41.9379 52.988 41.7219 52.828C41.5059 52.668 41.2019 52.588 40.8099 52.588H38.8779V54.46Z" fill="#AA43A2"/>
<path d="M28.4999 38.7232C30.2308 38.7232 31.6338 40.1262 31.6338 41.8571C31.6338 43.1814 30.7033 44.6246 28.8663 46.2022C28.7642 46.29 28.6339 46.3381 28.4993 46.338C28.3646 46.3379 28.2345 46.2895 28.1325 46.2016L28.011 46.0961C26.2554 44.5597 25.366 43.1518 25.366 41.8571C25.366 40.1262 26.769 38.7232 28.4999 38.7232ZM28.4999 39.2053C27.7966 39.2053 27.1221 39.4847 26.6248 39.982C26.1275 40.4793 25.8481 41.1538 25.8481 41.8571C25.8481 42.9828 26.6671 44.2797 28.3276 45.7326L28.4475 45.8364C28.4621 45.849 28.4807 45.8558 28.4999 45.8558C28.5191 45.8558 28.5377 45.849 28.5523 45.8364C30.2931 44.3411 31.1517 43.0095 31.1517 41.8571C31.1517 41.5089 31.0831 41.1641 30.9498 40.8423C30.8166 40.5206 30.6212 40.2283 30.375 39.982C30.1287 39.7358 29.8364 39.5405 29.5147 39.4072C29.193 39.2739 28.8481 39.2053 28.4999 39.2053ZM28.4999 40.6518C28.8196 40.6518 29.1262 40.7788 29.3522 41.0048C29.5783 41.2309 29.7053 41.5375 29.7053 41.8571C29.7053 42.1768 29.5783 42.4834 29.3522 42.7095C29.1262 42.9355 28.8196 43.0625 28.4999 43.0625C28.1802 43.0625 27.8736 42.9355 27.6476 42.7095C27.4215 42.4834 27.2945 42.1768 27.2945 41.8571C27.2945 41.5375 27.4215 41.2309 27.6476 41.0048C27.8736 40.7788 28.1802 40.6518 28.4999 40.6518ZM28.4999 41.1339C28.3081 41.1339 28.1241 41.2101 27.9885 41.3457C27.8529 41.4814 27.7767 41.6653 27.7767 41.8571C27.7767 42.0489 27.8529 42.2329 27.9885 42.3685C28.1241 42.5042 28.3081 42.5803 28.4999 42.5803C28.6917 42.5803 28.8757 42.5042 29.0113 42.3685C29.1469 42.2329 29.2231 42.0489 29.2231 41.8571C29.2231 41.6653 29.1469 41.4814 29.0113 41.3457C28.8757 41.2101 28.6917 41.1339 28.4999 41.1339Z" fill="#AA43A2"/>
<path d="M129.749 49L132.977 44.716L129.869 40.6H130.985L133.565 44.032L136.121 40.6H137.225L134.117 44.704L137.345 49H136.217L133.529 45.388L130.841 49H129.749ZM140.773 49.132C140.141 49.132 139.597 48.96 139.141 48.616C138.685 48.272 138.457 47.792 138.457 47.176C138.457 46.528 138.697 46.028 139.177 45.676C139.657 45.324 140.301 45.148 141.109 45.148C141.749 45.148 142.381 45.236 143.005 45.412V45.22C143.005 44.676 142.845 44.26 142.525 43.972C142.205 43.684 141.753 43.54 141.169 43.54C140.561 43.54 139.933 43.688 139.285 43.984L139.009 43.228C139.777 42.876 140.529 42.7 141.265 42.7C142.145 42.7 142.813 42.928 143.269 43.384C143.701 43.816 143.917 44.424 143.917 45.208V49H143.005V48.076C142.453 48.78 141.709 49.132 140.773 49.132ZM140.953 48.388C141.529 48.388 142.017 48.232 142.417 47.92C142.817 47.608 143.017 47.208 143.017 46.72V46.144C142.409 45.968 141.805 45.88 141.205 45.88C140.637 45.88 140.193 45.996 139.873 46.228C139.553 46.452 139.393 46.76 139.393 47.152C139.393 47.528 139.541 47.828 139.837 48.052C140.141 48.276 140.513 48.388 140.953 48.388ZM145.874 50.92V42.796H146.798V44.044C147.422 43.124 148.214 42.664 149.174 42.664C149.966 42.664 150.658 42.96 151.25 43.552C151.842 44.136 152.138 44.92 152.138 45.904C152.138 46.872 151.842 47.652 151.25 48.244C150.658 48.836 149.966 49.132 149.174 49.132C148.198 49.132 147.406 48.692 146.798 47.812V50.92H145.874ZM149.006 48.304C149.63 48.304 150.15 48.088 150.566 47.656C150.982 47.216 151.19 46.628 151.19 45.892C151.19 45.18 150.978 44.604 150.554 44.164C150.13 43.716 149.614 43.492 149.006 43.492C148.406 43.492 147.882 43.72 147.434 44.176C146.986 44.632 146.762 45.208 146.762 45.904C146.762 46.6 146.986 47.176 147.434 47.632C147.882 48.08 148.406 48.304 149.006 48.304ZM153.843 49V42.796H154.767V46.372L158.163 42.796H159.303L156.711 45.484L159.375 49H158.283L156.075 46.156L154.767 47.5V49H153.843ZM160.735 49V42.796H161.659V49H160.735ZM160.675 41.44V40.42H161.731V41.44H160.675ZM163.803 49V42.796H166.803C167.419 42.796 167.911 42.936 168.279 43.216C168.647 43.496 168.831 43.872 168.831 44.344C168.831 45.008 168.487 45.484 167.799 45.772C168.711 46.02 169.167 46.532 169.167 47.308C169.167 47.828 168.963 48.24 168.555 48.544C168.147 48.848 167.599 49 166.911 49H163.803ZM164.727 48.208H166.791C167.231 48.208 167.579 48.116 167.835 47.932C168.091 47.748 168.219 47.492 168.219 47.164C168.219 46.86 168.083 46.624 167.811 46.456C167.547 46.288 167.167 46.204 166.671 46.204H164.727V48.208ZM164.727 45.46H166.635C167.019 45.46 167.323 45.376 167.547 45.208C167.779 45.032 167.895 44.784 167.895 44.464C167.895 44.2 167.787 43.988 167.571 43.828C167.355 43.668 167.051 43.588 166.659 43.588H164.727V45.46Z" fill="#AA43A2"/>
<path d="M149.5 29.7232C151.231 29.7232 152.634 31.1262 152.634 32.8571C152.634 34.1814 151.703 35.6246 149.866 37.2022C149.764 37.29 149.634 37.3381 149.499 37.338C149.365 37.3379 149.234 37.2895 149.133 37.2016L149.011 37.0961C147.255 35.5597 146.366 34.1518 146.366 32.8571C146.366 31.1262 147.769 29.7232 149.5 29.7232ZM149.5 30.2053C148.797 30.2053 148.122 30.4847 147.625 30.982C147.127 31.4793 146.848 32.1538 146.848 32.8571C146.848 33.9828 147.667 35.2797 149.328 36.7326L149.448 36.8364C149.462 36.849 149.481 36.8558 149.5 36.8558C149.519 36.8558 149.538 36.849 149.552 36.8364C151.293 35.3411 152.152 34.0095 152.152 32.8571C152.152 32.5089 152.083 32.1641 151.95 31.8423C151.817 31.5206 151.621 31.2283 151.375 30.982C151.129 30.7358 150.836 30.5405 150.515 30.4072C150.193 30.2739 149.848 30.2053 149.5 30.2053ZM149.5 31.6518C149.82 31.6518 150.126 31.7788 150.352 32.0048C150.578 32.2309 150.705 32.5375 150.705 32.8571C150.705 33.1768 150.578 33.4834 150.352 33.7095C150.126 33.9355 149.82 34.0625 149.5 34.0625C149.18 34.0625 148.874 33.9355 148.648 33.7095C148.422 33.4834 148.295 33.1768 148.295 32.8571C148.295 32.5375 148.422 32.2309 148.648 32.0048C148.874 31.7788 149.18 31.6518 149.5 31.6518ZM149.5 32.1339C149.308 32.1339 149.124 32.2101 148.989 32.3457C148.853 32.4814 148.777 32.6653 148.777 32.8571C148.777 33.0489 148.853 33.2329 148.989 33.3685C149.124 33.5042 149.308 33.5803 149.5 33.5803C149.692 33.5803 149.876 33.5042 150.011 33.3685C150.147 33.2329 150.223 33.0489 150.223 32.8571C150.223 32.6653 150.147 32.4814 150.011 32.3457C149.876 32.2101 149.692 32.1339 149.5 32.1339Z" fill="#AA43A2"/>
</svg>
