<svg width="180" height="124" viewBox="0 0 180 124" fill="none" xmlns="http://www.w3.org/2000/svg">
<path d="M113.934 98.6557C112.244 99.6031 111.196 97.8661 110.883 96.8792C110.062 97.8267 105.602 96.8792 102.316 96.8792C99.0306 96.8792 95.2752 95.1027 96.0967 91.9051C96.9182 88.7075 100.673 93.3263 103.138 91.1945C105.602 89.0628 101.847 89.5365 97.5049 89.5365C93.1629 89.5365 91.1679 89.5365 86.9432 91.1945C82.7186 92.8526 86.3565 94.0369 83.0706 99.84C79.7847 105.643 77.9071 102.801 76.6162 106.472C75.3254 110.144 76.4989 108.604 75.6774 111.802C74.8559 114.999 74.3865 111.802 73.5651 108.604C72.7436 105.406 70.9833 107.538 64.529 110.736C58.0746 113.933 58.6613 108.485 58.1919 105.525C57.7225 102.564 60.4216 104.696 62.4166 102.209C64.4115 99.7216 66.0545 99.84 67.3454 96.8792C68.6363 93.9184 66.5239 91.5498 70.9833 91.1945C75.4427 90.8392 75.4427 91.9051 77.9071 93.3263C80.3715 94.7475 79.0806 91.6682 77.9071 88.3522C76.7336 85.0361 73.6824 83.6149 74.3865 81.3647C75.0906 79.1145 70.9833 77.9302 68.6363 74.9694C66.2893 72.0086 70.0445 72.3639 69.3404 69.0478C68.6363 65.7318 66.7586 66.9161 64.529 66.9161C62.2993 66.9161 61.7125 67.982 59.6002 64.3106C57.4878 60.6392 53.6152 61.7051 49.6252 61.8235C45.6352 61.942 43.9923 63.6 42.1147 66.9161C40.2371 70.2322 35.1909 66.9161 32.0224 67.982C28.8539 69.0478 28.5018 71.298 26.5068 70.5875C24.5119 69.8769 24.9812 66.2055 21.1086 66.9161C17.236 67.6267 16.8839 67.2714 14.6542 65.4949C12.4245 63.7184 10.0775 64.6659 5.03134 62.8894C-0.014802 61.1129 -0.836268 55.6651 0.689311 54.4808C2.21489 53.2965 3.97517 50.5725 4.32723 48.2039C4.67929 45.8353 6.32222 47.6118 7.8478 48.2039C9.37338 48.7961 7.96514 46.309 7.14368 42.8745C6.32221 39.44 10.4295 33.8737 14.6542 31.3867C18.8789 28.8996 21.578 28.3074 22.2821 24.7545C22.9862 21.2016 19.9351 18.5961 18.1748 12.5561C16.4145 6.51608 21.9301 9.12157 23.3383 9.95059C24.7465 10.7796 25.6853 7.22667 28.5018 5.80549C31.3182 4.38431 42.5841 5.80549 43.9923 7.22667C45.4005 8.64784 59.2481 12.5561 62.4166 12.5561C65.5851 12.5561 68.871 11.6086 70.9833 11.7271C73.0956 11.8455 71.6874 16.109 74.3865 15.8722C77.0856 15.6353 78.6112 12.5561 80.6062 14.5694C82.6012 16.5827 82.1318 17.8855 84.3615 17.0565C86.5911 16.2274 86.9432 7.22667 89.6423 5.80549C92.3414 4.38431 96.4487 7.22667 99.0305 5.80549C101.612 4.38431 102.199 2.60784 105.25 3.08157C108.301 3.55529 111.939 0.120783 113.934 0.00235113C115.929 -0.11608 117.455 4.26588 119.919 7.22667C122.384 10.1874 121.21 10.6612 119.098 12.5561C116.985 14.451 120.389 18.3592 124.613 17.8855C128.838 17.4118 130.95 21.7937 132.006 24.7545C133.063 27.7153 129.542 27.8337 132.711 29.9655C135.879 32.0973 136.818 29.1365 139.048 29.9655C141.277 30.7945 142.216 31.3867 146.441 29.1365C150.665 26.8863 152.778 31.2682 153.834 33.8737C154.89 36.4792 158.997 32.6894 160.992 33.8737C162.987 35.058 171.319 36.8345 174.723 36.2424C178.126 35.6502 180.825 41.4533 179.065 43.5851C177.304 45.7169 176.366 46.6643 178.009 47.4933C179.651 48.3224 179.769 49.7435 178.009 50.2173C176.248 50.691 175.075 45.9537 179.065 56.3757C183.055 66.7977 173.197 65.3765 169.794 66.3239C166.391 67.2714 168.972 68.4557 166.039 69.2847C163.105 70.1137 164.161 72.6008 164.63 75.7984C165.1 78.9961 163.222 79.7067 160.288 78.5223C157.355 77.338 157.237 78.9961 155.36 81.3647C153.482 83.7333 151.604 84.0886 148.905 84.7992C146.206 85.5098 142.216 87.8784 139.634 89.5365C137.053 91.1945 132.006 92.7341 129.542 95.1027C127.078 97.4714 130.833 99.84 132.006 105.525C133.18 111.209 138.93 107.538 142.216 106.472C145.502 105.406 148.084 107.538 147.732 110.736C147.38 113.933 141.277 112.394 137.874 111.802C134.471 111.209 136.231 113.933 132.945 115.828C129.659 117.723 127.078 116.894 125.904 119.736C124.731 122.579 120.623 124 117.455 124C114.286 124 113.934 120.802 116.164 119.026C118.394 117.249 117.455 115.71 116.164 113.104C114.873 110.499 111.705 111.802 109.24 109.315C106.776 106.827 106.541 109.433 105.602 107.538C104.663 105.643 114.638 100.906 117.455 99.84C120.271 98.7741 116.047 97.4714 113.934 98.6557Z" fill="#FEC830"/>
<path d="M80.188 38V29.6H81.136V34.616L85.96 29.6H87.184L83.584 33.272L87.34 38H86.152L82.924 33.932L81.136 35.744V38H80.188ZM88.681 30.44V29.42H89.737V30.44H88.681ZM88.741 38V31.796H89.665V38H88.741ZM92.3613 35.276C92.4253 35.908 92.6613 36.412 93.0693 36.788C93.4853 37.156 93.9773 37.34 94.5453 37.34C95.2893 37.34 95.9413 37.048 96.5013 36.464L97.0773 36.98C96.3813 37.756 95.5293 38.144 94.5213 38.144C93.6493 38.144 92.9133 37.844 92.3133 37.244C91.7213 36.636 91.4253 35.856 91.4253 34.904C91.4253 34 91.7093 33.236 92.2773 32.612C92.8453 31.98 93.5533 31.664 94.4013 31.664C95.2893 31.664 95.9933 31.976 96.5133 32.6C97.0333 33.224 97.2933 34.008 97.2933 34.952C97.2933 35.072 97.2893 35.18 97.2813 35.276H92.3613ZM92.3613 34.532H96.3573C96.3013 33.932 96.1013 33.436 95.7573 33.044C95.4213 32.644 94.9613 32.444 94.3773 32.444C93.8493 32.444 93.3973 32.64 93.0213 33.032C92.6453 33.424 92.4253 33.924 92.3613 34.532ZM100.682 38.048L97.9942 31.796H99.0142L101.102 36.944L103.202 31.796H104.198L101.498 38.048H100.682Z" fill="#AA43A2"/>
<path d="M90.4999 18.7233C92.2308 18.7233 93.6338 20.1263 93.6338 21.8572C93.6338 23.1815 92.7033 24.6247 90.8663 26.2023C90.7642 26.29 90.6339 26.3382 90.4993 26.3381C90.3646 26.338 90.2345 26.2895 90.1325 26.2016L90.011 26.0962C88.2554 24.5598 87.366 23.1519 87.366 21.8572C87.366 20.1263 88.769 18.7233 90.4999 18.7233ZM90.4999 19.2054C89.7966 19.2054 89.1221 19.4848 88.6248 19.9821C88.1275 20.4794 87.8481 21.1539 87.8481 21.8572C87.8481 22.9828 88.6671 24.2798 90.3276 25.7327L90.4475 25.8365C90.4621 25.849 90.4807 25.8559 90.4999 25.8559C90.5191 25.8559 90.5377 25.849 90.5523 25.8365C92.2931 24.3412 93.1517 23.0095 93.1517 21.8572C93.1517 21.509 93.0831 21.1641 92.9498 20.8424C92.8166 20.5207 92.6212 20.2283 92.375 19.9821C92.1287 19.7359 91.8364 19.5405 91.5147 19.4073C91.193 19.274 90.8481 19.2054 90.4999 19.2054ZM90.4999 20.6518C90.8196 20.6518 91.1262 20.7788 91.3522 21.0049C91.5783 21.2309 91.7053 21.5375 91.7053 21.8572C91.7053 22.1769 91.5783 22.4835 91.3522 22.7095C91.1262 22.9356 90.8196 23.0626 90.4999 23.0626C90.1802 23.0626 89.8736 22.9356 89.6476 22.7095C89.4215 22.4835 89.2945 22.1769 89.2945 21.8572C89.2945 21.5375 89.4215 21.2309 89.6476 21.0049C89.8736 20.7788 90.1802 20.6518 90.4999 20.6518ZM90.4999 21.134C90.3081 21.134 90.1241 21.2102 89.9885 21.3458C89.8529 21.4814 89.7767 21.6654 89.7767 21.8572C89.7767 22.049 89.8529 22.233 89.9885 22.3686C90.1241 22.5042 90.3081 22.5804 90.4999 22.5804C90.6917 22.5804 90.8757 22.5042 91.0113 22.3686C91.1469 22.233 91.2231 22.049 91.2231 21.8572C91.2231 21.6654 91.1469 21.4814 91.0113 21.3458C90.8757 21.2102 90.6917 21.134 90.4999 21.134Z" fill="#AA43A2"/>
<path d="M63.08 63.06L59.468 54.6H60.524L63.512 61.836L66.512 54.6H67.532L63.92 63.06H63.08ZM68.8216 55.44V54.42H69.8776V55.44H68.8216ZM68.8816 63V56.796H69.8056V63H68.8816ZM71.95 63V56.796H72.874V57.876C73.362 57.068 74.07 56.664 74.998 56.664C75.734 56.664 76.314 56.892 76.738 57.348C77.162 57.796 77.374 58.396 77.374 59.148V63H76.45V59.376C76.45 58.792 76.298 58.336 75.994 58.008C75.698 57.672 75.278 57.504 74.734 57.504C74.198 57.504 73.754 57.684 73.402 58.044C73.05 58.404 72.874 58.872 72.874 59.448V63H71.95ZM79.3445 63V56.796H80.2685V57.876C80.7565 57.068 81.4645 56.664 82.3925 56.664C83.1285 56.664 83.7085 56.892 84.1325 57.348C84.5565 57.796 84.7685 58.396 84.7685 59.148V63H83.8445V59.376C83.8445 58.792 83.6925 58.336 83.3885 58.008C83.0925 57.672 82.6725 57.504 82.1285 57.504C81.5925 57.504 81.1485 57.684 80.7965 58.044C80.4445 58.404 80.2685 58.872 80.2685 59.448V63H79.3445ZM86.763 55.44V54.42H87.819V55.44H86.763ZM86.823 63V56.796H87.747V63H86.823ZM91.9674 63.108C91.4314 63.108 91.0034 62.968 90.6834 62.688C90.3714 62.4 90.2154 61.956 90.2154 61.356V57.612H89.3514V56.796H90.2154V54.924H91.1394V56.796H93.1074V57.612H91.1394V61.236C91.1394 61.924 91.4874 62.268 92.1834 62.268C92.4874 62.268 92.7874 62.196 93.0834 62.052V62.844C92.7474 63.02 92.3754 63.108 91.9674 63.108ZM96.7949 63.12C96.3469 63.12 95.8909 63.04 95.4269 62.88C94.9709 62.712 94.5709 62.488 94.2269 62.208L94.6949 61.548C95.3989 62.076 96.1149 62.34 96.8429 62.34C97.2189 62.34 97.5269 62.248 97.7669 62.064C98.0069 61.88 98.1269 61.636 98.1269 61.332C98.1269 61.052 97.9949 60.836 97.7309 60.684C97.4749 60.532 97.0909 60.384 96.5789 60.24C96.2669 60.152 96.0189 60.072 95.8349 60C95.6509 59.928 95.4429 59.828 95.2109 59.7C94.9789 59.564 94.8069 59.396 94.6949 59.196C94.5829 58.988 94.5269 58.744 94.5269 58.464C94.5269 57.936 94.7229 57.508 95.1149 57.18C95.5149 56.852 96.0229 56.688 96.6389 56.688C97.4389 56.688 98.1829 56.916 98.8709 57.372L98.4509 58.068C97.8349 57.668 97.2229 57.468 96.6149 57.468C96.2549 57.468 95.9629 57.556 95.7389 57.732C95.5229 57.9 95.4149 58.12 95.4149 58.392C95.4149 58.504 95.4469 58.608 95.5109 58.704C95.5749 58.8 95.6469 58.88 95.7269 58.944C95.8069 59.008 95.9309 59.076 96.0989 59.148C96.2749 59.22 96.4149 59.272 96.5189 59.304C96.6229 59.336 96.7869 59.388 97.0109 59.46C97.3069 59.548 97.5509 59.632 97.7429 59.712C97.9349 59.792 98.1389 59.9 98.3549 60.036C98.5709 60.172 98.7309 60.344 98.8349 60.552C98.9469 60.752 99.0029 60.988 99.0029 61.26C99.0029 61.836 98.7949 62.292 98.3789 62.628C97.9629 62.956 97.4349 63.12 96.7949 63.12ZM101.504 64.956C101.056 64.956 100.616 64.852 100.184 64.644L100.496 63.912C100.792 64.064 101.116 64.14 101.468 64.14C101.748 64.14 101.984 64.052 102.176 63.876C102.368 63.708 102.556 63.408 102.74 62.976L99.9197 56.796H100.94L103.196 61.968L105.188 56.796H106.172L103.568 63.204C103.304 63.836 103.012 64.284 102.692 64.548C102.372 64.82 101.976 64.956 101.504 64.956ZM109.177 63.132C108.545 63.132 108.001 62.96 107.545 62.616C107.089 62.272 106.861 61.792 106.861 61.176C106.861 60.528 107.101 60.028 107.581 59.676C108.061 59.324 108.705 59.148 109.513 59.148C110.153 59.148 110.785 59.236 111.409 59.412V59.22C111.409 58.676 111.249 58.26 110.929 57.972C110.609 57.684 110.157 57.54 109.573 57.54C108.965 57.54 108.337 57.688 107.689 57.984L107.413 57.228C108.181 56.876 108.933 56.7 109.669 56.7C110.549 56.7 111.217 56.928 111.673 57.384C112.105 57.816 112.321 58.424 112.321 59.208V63H111.409V62.076C110.857 62.78 110.113 63.132 109.177 63.132ZM109.357 62.388C109.933 62.388 110.421 62.232 110.821 61.92C111.221 61.608 111.421 61.208 111.421 60.72V60.144C110.813 59.968 110.209 59.88 109.609 59.88C109.041 59.88 108.597 59.996 108.277 60.228C107.957 60.452 107.797 60.76 107.797 61.152C107.797 61.528 107.945 61.828 108.241 62.052C108.545 62.276 108.917 62.388 109.357 62.388Z" fill="#AA43A2"/>
<path d="M83.4999 43.7233C85.2308 43.7233 86.6338 45.1263 86.6338 46.8572C86.6338 48.1815 85.7033 49.6247 83.8663 51.2023C83.7642 51.29 83.6339 51.3382 83.4993 51.3381C83.3646 51.338 83.2345 51.2895 83.1325 51.2016L83.011 51.0962C81.2554 49.5598 80.366 48.1519 80.366 46.8572C80.366 45.1263 81.769 43.7233 83.4999 43.7233ZM83.4999 44.2054C82.7966 44.2054 82.1221 44.4848 81.6248 44.9821C81.1275 45.4794 80.8481 46.1539 80.8481 46.8572C80.8481 47.9828 81.6671 49.2798 83.3276 50.7327L83.4475 50.8365C83.4621 50.849 83.4807 50.8559 83.4999 50.8559C83.5191 50.8559 83.5377 50.849 83.5523 50.8365C85.2931 49.3412 86.1517 48.0095 86.1517 46.8572C86.1517 46.509 86.0831 46.1641 85.9498 45.8424C85.8166 45.5207 85.6212 45.2283 85.375 44.9821C85.1287 44.7359 84.8364 44.5405 84.5147 44.4073C84.193 44.274 83.8481 44.2054 83.4999 44.2054ZM83.4999 45.6518C83.8196 45.6518 84.1262 45.7788 84.3522 46.0049C84.5783 46.2309 84.7053 46.5375 84.7053 46.8572C84.7053 47.1769 84.5783 47.4835 84.3522 47.7095C84.1262 47.9356 83.8196 48.0626 83.4999 48.0626C83.1802 48.0626 82.8736 47.9356 82.6476 47.7095C82.4215 47.4835 82.2945 47.1769 82.2945 46.8572C82.2945 46.5375 82.4215 46.2309 82.6476 46.0049C82.8736 45.7788 83.1802 45.6518 83.4999 45.6518ZM83.4999 46.134C83.3081 46.134 83.1241 46.2102 82.9885 46.3458C82.8529 46.4814 82.7767 46.6654 82.7767 46.8572C82.7767 47.049 82.8529 47.233 82.9885 47.3686C83.1241 47.5042 83.3081 47.5804 83.4999 47.5804C83.6917 47.5804 83.8757 47.5042 84.0113 47.3686C84.1469 47.233 84.2231 47.049 84.2231 46.8572C84.2231 46.6654 84.1469 46.4814 84.0113 46.3458C83.8757 46.2102 83.6917 46.134 83.4999 46.134Z" fill="#AA43A2"/>
<path d="M16.2114 58V49.6H17.1594V57.124H21.8874V58H16.2114ZM24.8463 58.048L22.1583 51.796H23.1783L25.2663 56.944L27.3663 51.796H28.3623L25.6623 58.048H24.8463ZM29.8373 50.44V49.42H30.8933V50.44H29.8373ZM29.8973 58V51.796H30.8213V58H29.8973ZM35.0416 58.048L32.3536 51.796H33.3736L35.4616 56.944L37.5616 51.796H38.5576L35.8576 58.048H35.0416Z" fill="#AA43A2"/>
<path d="M28.4999 38.7233C30.2308 38.7233 31.6338 40.1263 31.6338 41.8572C31.6338 43.1815 30.7033 44.6247 28.8663 46.2023C28.7642 46.29 28.6339 46.3382 28.4993 46.3381C28.3646 46.338 28.2345 46.2895 28.1325 46.2016L28.011 46.0962C26.2554 44.5598 25.366 43.1519 25.366 41.8572C25.366 40.1263 26.769 38.7233 28.4999 38.7233ZM28.4999 39.2054C27.7966 39.2054 27.1221 39.4848 26.6248 39.9821C26.1275 40.4794 25.8481 41.1539 25.8481 41.8572C25.8481 42.9828 26.6671 44.2798 28.3276 45.7327L28.4475 45.8365C28.4621 45.849 28.4807 45.8559 28.4999 45.8559C28.5191 45.8559 28.5377 45.849 28.5523 45.8365C30.2931 44.3412 31.1517 43.0095 31.1517 41.8572C31.1517 41.509 31.0831 41.1641 30.9498 40.8424C30.8166 40.5207 30.6212 40.2283 30.375 39.9821C30.1287 39.7359 29.8364 39.5405 29.5147 39.4073C29.193 39.274 28.8481 39.2054 28.4999 39.2054ZM28.4999 40.6518C28.8196 40.6518 29.1262 40.7788 29.3522 41.0049C29.5783 41.2309 29.7053 41.5375 29.7053 41.8572C29.7053 42.1769 29.5783 42.4835 29.3522 42.7095C29.1262 42.9356 28.8196 43.0626 28.4999 43.0626C28.1802 43.0626 27.8736 42.9356 27.6476 42.7095C27.4215 42.4835 27.2945 42.1769 27.2945 41.8572C27.2945 41.5375 27.4215 41.2309 27.6476 41.0049C27.8736 40.7788 28.1802 40.6518 28.4999 40.6518ZM28.4999 41.134C28.3081 41.134 28.1241 41.2102 27.9885 41.3458C27.8529 41.4814 27.7767 41.6654 27.7767 41.8572C27.7767 42.049 27.8529 42.233 27.9885 42.3686C28.1241 42.5042 28.3081 42.5804 28.4999 42.5804C28.6917 42.5804 28.8757 42.5042 29.0113 42.3686C29.1469 42.233 29.2231 42.049 29.2231 41.8572C29.2231 41.6654 29.1469 41.4814 29.0113 41.3458C28.8757 41.2102 28.6917 41.134 28.4999 41.134Z" fill="#AA43A2"/>
<path d="M129.241 49V40.6H130.189V44.332H135.037V40.6H135.985V49H135.037V45.22H130.189V49H129.241ZM140.05 49.132C139.418 49.132 138.874 48.96 138.418 48.616C137.962 48.272 137.734 47.792 137.734 47.176C137.734 46.528 137.974 46.028 138.454 45.676C138.934 45.324 139.578 45.148 140.386 45.148C141.026 45.148 141.658 45.236 142.282 45.412V45.22C142.282 44.676 142.122 44.26 141.802 43.972C141.482 43.684 141.03 43.54 140.446 43.54C139.838 43.54 139.21 43.688 138.562 43.984L138.286 43.228C139.054 42.876 139.806 42.7 140.542 42.7C141.422 42.7 142.09 42.928 142.546 43.384C142.978 43.816 143.194 44.424 143.194 45.208V49H142.282V48.076C141.73 48.78 140.986 49.132 140.05 49.132ZM140.23 48.388C140.806 48.388 141.294 48.232 141.694 47.92C142.094 47.608 142.294 47.208 142.294 46.72V46.144C141.686 45.968 141.082 45.88 140.482 45.88C139.914 45.88 139.47 45.996 139.15 46.228C138.83 46.452 138.67 46.76 138.67 47.152C138.67 47.528 138.818 47.828 139.114 48.052C139.418 48.276 139.79 48.388 140.23 48.388ZM145.151 49V42.796H146.075V44.416C146.315 43.88 146.655 43.452 147.095 43.132C147.535 42.812 148.039 42.664 148.607 42.688V43.684H148.535C147.823 43.684 147.235 43.932 146.771 44.428C146.307 44.924 146.075 45.624 146.075 46.528V49H145.151ZM150.014 49V40.24H150.938V46.288L154.286 42.796H155.438L152.834 45.46L155.522 49H154.418L152.198 46.108L150.938 47.38V49H150.014ZM161.69 48.196C161.066 48.828 160.294 49.144 159.374 49.144C158.454 49.144 157.686 48.828 157.07 48.196C156.462 47.564 156.158 46.8 156.158 45.904C156.158 45.016 156.466 44.256 157.082 43.624C157.706 42.984 158.478 42.664 159.398 42.664C160.318 42.664 161.086 42.98 161.702 43.612C162.318 44.244 162.626 45.008 162.626 45.904C162.626 46.792 162.314 47.556 161.69 48.196ZM159.398 48.316C160.062 48.316 160.606 48.084 161.03 47.62C161.462 47.156 161.678 46.584 161.678 45.904C161.678 45.232 161.454 44.66 161.006 44.188C160.566 43.716 160.022 43.48 159.374 43.48C158.71 43.48 158.166 43.716 157.742 44.188C157.318 44.652 157.106 45.224 157.106 45.904C157.106 46.576 157.326 47.148 157.766 47.62C158.206 48.084 158.75 48.316 159.398 48.316ZM166.012 49.048L163.324 42.796H164.344L166.432 47.944L168.532 42.796H169.528L166.828 49.048H166.012Z" fill="#AA43A2"/>
<path d="M149.5 29.7233C151.231 29.7233 152.634 31.1263 152.634 32.8572C152.634 34.1815 151.703 35.6247 149.866 37.2023C149.764 37.29 149.634 37.3382 149.499 37.3381C149.365 37.338 149.234 37.2895 149.133 37.2016L149.011 37.0962C147.255 35.5598 146.366 34.1519 146.366 32.8572C146.366 31.1263 147.769 29.7233 149.5 29.7233ZM149.5 30.2054C148.797 30.2054 148.122 30.4848 147.625 30.9821C147.127 31.4794 146.848 32.1539 146.848 32.8572C146.848 33.9828 147.667 35.2798 149.328 36.7327L149.448 36.8365C149.462 36.849 149.481 36.8559 149.5 36.8559C149.519 36.8559 149.538 36.849 149.552 36.8365C151.293 35.3412 152.152 34.0095 152.152 32.8572C152.152 32.509 152.083 32.1641 151.95 31.8424C151.817 31.5207 151.621 31.2283 151.375 30.9821C151.129 30.7359 150.836 30.5405 150.515 30.4073C150.193 30.274 149.848 30.2054 149.5 30.2054ZM149.5 31.6518C149.82 31.6518 150.126 31.7788 150.352 32.0049C150.578 32.2309 150.705 32.5375 150.705 32.8572C150.705 33.1769 150.578 33.4835 150.352 33.7095C150.126 33.9356 149.82 34.0626 149.5 34.0626C149.18 34.0626 148.874 33.9356 148.648 33.7095C148.422 33.4835 148.295 33.1769 148.295 32.8572C148.295 32.5375 148.422 32.2309 148.648 32.0049C148.874 31.7788 149.18 31.6518 149.5 31.6518ZM149.5 32.134C149.308 32.134 149.124 32.2102 148.989 32.3458C148.853 32.4814 148.777 32.6654 148.777 32.8572C148.777 33.049 148.853 33.233 148.989 33.3686C149.124 33.5042 149.308 33.5804 149.5 33.5804C149.692 33.5804 149.876 33.5042 150.011 33.3686C150.147 33.233 150.223 33.049 150.223 32.8572C150.223 32.6654 150.147 32.4814 150.011 32.3458C149.876 32.2102 149.692 32.134 149.5 32.134Z" fill="#AA43A2"/>
</svg>
