<svg width="180" height="124" viewBox="0 0 180 124" fill="none" xmlns="http://www.w3.org/2000/svg">
<path d="M113.934 98.6557C112.244 99.6031 111.196 97.8661 110.883 96.8792C110.062 97.8267 105.602 96.8792 102.316 96.8792C99.0306 96.8792 95.2752 95.1027 96.0967 91.9051C96.9182 88.7075 100.673 93.3263 103.138 91.1945C105.602 89.0628 101.847 89.5365 97.5049 89.5365C93.1629 89.5365 91.1679 89.5365 86.9432 91.1945C82.7186 92.8526 86.3565 94.0369 83.0706 99.84C79.7847 105.643 77.9071 102.801 76.6162 106.472C75.3254 110.144 76.4989 108.604 75.6774 111.802C74.8559 114.999 74.3865 111.802 73.5651 108.604C72.7436 105.406 70.9833 107.538 64.529 110.736C58.0746 113.933 58.6613 108.485 58.1919 105.525C57.7225 102.564 60.4216 104.696 62.4166 102.209C64.4115 99.7216 66.0545 99.84 67.3454 96.8792C68.6363 93.9184 66.5239 91.5498 70.9833 91.1945C75.4427 90.8392 75.4427 91.9051 77.9071 93.3263C80.3715 94.7475 79.0806 91.6682 77.9071 88.3522C76.7336 85.0361 73.6824 83.6149 74.3865 81.3647C75.0906 79.1145 70.9833 77.9302 68.6363 74.9694C66.2893 72.0086 70.0445 72.3639 69.3404 69.0478C68.6363 65.7318 66.7586 66.9161 64.529 66.9161C62.2993 66.9161 61.7125 67.982 59.6002 64.3106C57.4878 60.6392 53.6152 61.7051 49.6252 61.8235C45.6352 61.942 43.9923 63.6 42.1147 66.9161C40.2371 70.2322 35.1909 66.9161 32.0224 67.982C28.8539 69.0478 28.5018 71.298 26.5068 70.5875C24.5119 69.8769 24.9812 66.2055 21.1086 66.9161C17.236 67.6267 16.8839 67.2714 14.6542 65.4949C12.4245 63.7184 10.0775 64.6659 5.03134 62.8894C-0.014802 61.1129 -0.836268 55.6651 0.689311 54.4808C2.21489 53.2965 3.97517 50.5725 4.32723 48.2039C4.67929 45.8353 6.32222 47.6118 7.8478 48.2039C9.37338 48.7961 7.96514 46.309 7.14368 42.8745C6.32221 39.44 10.4295 33.8737 14.6542 31.3867C18.8789 28.8996 21.578 28.3074 22.2821 24.7545C22.9862 21.2016 19.9351 18.5961 18.1748 12.5561C16.4145 6.51608 21.9301 9.12157 23.3383 9.95059C24.7465 10.7796 25.6853 7.22667 28.5018 5.80549C31.3182 4.38431 42.5841 5.80549 43.9923 7.22667C45.4005 8.64784 59.2481 12.5561 62.4166 12.5561C65.5851 12.5561 68.871 11.6086 70.9833 11.7271C73.0956 11.8455 71.6874 16.109 74.3865 15.8722C77.0856 15.6353 78.6112 12.5561 80.6062 14.5694C82.6012 16.5827 82.1318 17.8855 84.3615 17.0565C86.5911 16.2274 86.9432 7.22667 89.6423 5.80549C92.3414 4.38431 96.4487 7.22667 99.0305 5.80549C101.612 4.38431 102.199 2.60784 105.25 3.08157C108.301 3.55529 111.939 0.120783 113.934 0.00235113C115.929 -0.11608 117.455 4.26588 119.919 7.22667C122.384 10.1874 121.21 10.6612 119.098 12.5561C116.985 14.451 120.389 18.3592 124.613 17.8855C128.838 17.4118 130.95 21.7937 132.006 24.7545C133.063 27.7153 129.542 27.8337 132.711 29.9655C135.879 32.0973 136.818 29.1365 139.048 29.9655C141.277 30.7945 142.216 31.3867 146.441 29.1365C150.665 26.8863 152.778 31.2682 153.834 33.8737C154.89 36.4792 158.997 32.6894 160.992 33.8737C162.987 35.058 171.319 36.8345 174.723 36.2424C178.126 35.6502 180.825 41.4533 179.065 43.5851C177.304 45.7169 176.366 46.6643 178.009 47.4933C179.651 48.3224 179.769 49.7435 178.009 50.2173C176.248 50.691 175.075 45.9537 179.065 56.3757C183.055 66.7977 173.197 65.3765 169.794 66.3239C166.391 67.2714 168.972 68.4557 166.039 69.2847C163.105 70.1137 164.161 72.6008 164.63 75.7984C165.1 78.9961 163.222 79.7067 160.288 78.5223C157.355 77.338 157.237 78.9961 155.36 81.3647C153.482 83.7333 151.604 84.0886 148.905 84.7992C146.206 85.5098 142.216 87.8784 139.634 89.5365C137.053 91.1945 132.006 92.7341 129.542 95.1027C127.078 97.4714 130.833 99.84 132.006 105.525C133.18 111.209 138.93 107.538 142.216 106.472C145.502 105.406 148.084 107.538 147.732 110.736C147.38 113.933 141.277 112.394 137.874 111.802C134.471 111.209 136.231 113.933 132.945 115.828C129.659 117.723 127.078 116.894 125.904 119.736C124.731 122.579 120.623 124 117.455 124C114.286 124 113.934 120.802 116.164 119.026C118.394 117.249 117.455 115.71 116.164 113.104C114.873 110.499 111.705 111.802 109.24 109.315C106.776 106.827 106.541 109.433 105.602 107.538C104.663 105.643 114.638 100.906 117.455 99.84C120.271 98.7741 116.047 97.4714 113.934 98.6557Z" fill="#FEC830"/>
<path d="M78.188 38V29.6H79.136V34.616L83.96 29.6H85.184L81.584 33.272L85.34 38H84.152L80.924 33.932L79.136 35.744V38H78.188ZM86.657 38V31.796H87.581V36.704L91.265 31.796H92.165V38H91.241V33.092L87.545 38H86.657ZM96.9393 38.144C96.0673 38.144 95.3313 37.844 94.7313 37.244C94.1393 36.636 93.8433 35.856 93.8433 34.904C93.8433 34 94.1273 33.236 94.6953 32.612C95.2633 31.98 95.9713 31.664 96.8193 31.664C97.7073 31.664 98.4113 31.976 98.9313 32.6C99.4513 33.224 99.7113 34.008 99.7113 34.952C99.7113 35.072 99.7073 35.18 99.6993 35.276H94.7793C94.8433 35.908 95.0793 36.412 95.4873 36.788C95.9033 37.156 96.3953 37.34 96.9633 37.34C97.7073 37.34 98.3593 37.048 98.9193 36.464L99.4953 36.98C98.7993 37.756 97.9473 38.144 96.9393 38.144ZM94.7793 34.532H98.7753C98.7193 33.932 98.5193 33.436 98.1753 33.044C97.8393 32.644 97.3793 32.444 96.7953 32.444C96.2673 32.444 95.8153 32.64 95.4393 33.032C95.0633 33.424 94.8433 33.924 94.7793 34.532ZM101.329 38V31.796H104.329C104.945 31.796 105.437 31.936 105.805 32.216C106.173 32.496 106.357 32.872 106.357 33.344C106.357 34.008 106.013 34.484 105.325 34.772C106.237 35.02 106.693 35.532 106.693 36.308C106.693 36.828 106.489 37.24 106.081 37.544C105.673 37.848 105.125 38 104.437 38H101.329ZM102.253 37.208H104.317C104.757 37.208 105.105 37.116 105.361 36.932C105.617 36.748 105.745 36.492 105.745 36.164C105.745 35.86 105.609 35.624 105.337 35.456C105.073 35.288 104.693 35.204 104.197 35.204H102.253V37.208ZM102.253 34.46H104.161C104.545 34.46 104.849 34.376 105.073 34.208C105.305 34.032 105.421 33.784 105.421 33.464C105.421 33.2 105.313 32.988 105.097 32.828C104.881 32.668 104.577 32.588 104.185 32.588H102.253V34.46Z" fill="#AA43A2"/>
<path d="M90.4999 18.7232C92.2308 18.7232 93.6338 20.1262 93.6338 21.8571C93.6338 23.1814 92.7033 24.6246 90.8663 26.2022C90.7642 26.29 90.6339 26.3381 90.4993 26.338C90.3646 26.3379 90.2345 26.2895 90.1325 26.2016L90.011 26.0961C88.2554 24.5597 87.366 23.1518 87.366 21.8571C87.366 20.1262 88.769 18.7232 90.4999 18.7232ZM90.4999 19.2053C89.7966 19.2053 89.1221 19.4847 88.6248 19.982C88.1275 20.4793 87.8481 21.1538 87.8481 21.8571C87.8481 22.9828 88.6671 24.2797 90.3276 25.7326L90.4475 25.8364C90.4621 25.849 90.4807 25.8558 90.4999 25.8558C90.5191 25.8558 90.5377 25.849 90.5523 25.8364C92.2931 24.3411 93.1517 23.0095 93.1517 21.8571C93.1517 21.5089 93.0831 21.1641 92.9498 20.8423C92.8166 20.5206 92.6212 20.2283 92.375 19.982C92.1287 19.7358 91.8364 19.5405 91.5147 19.4072C91.193 19.2739 90.8481 19.2053 90.4999 19.2053V19.2053ZM90.4999 20.6518C90.8196 20.6518 91.1262 20.7788 91.3522 21.0048C91.5783 21.2309 91.7053 21.5375 91.7053 21.8571C91.7053 22.1768 91.5783 22.4834 91.3522 22.7095C91.1262 22.9355 90.8196 23.0625 90.4999 23.0625C90.1802 23.0625 89.8736 22.9355 89.6476 22.7095C89.4215 22.4834 89.2945 22.1768 89.2945 21.8571C89.2945 21.5375 89.4215 21.2309 89.6476 21.0048C89.8736 20.7788 90.1802 20.6518 90.4999 20.6518V20.6518ZM90.4999 21.1339C90.3081 21.1339 90.1241 21.2101 89.9885 21.3457C89.8529 21.4814 89.7767 21.6653 89.7767 21.8571C89.7767 22.0489 89.8529 22.2329 89.9885 22.3685C90.1241 22.5042 90.3081 22.5803 90.4999 22.5803C90.6917 22.5803 90.8757 22.5042 91.0113 22.3685C91.1469 22.2329 91.2231 22.0489 91.2231 21.8571C91.2231 21.6653 91.1469 21.4814 91.0113 21.3457C90.8757 21.2101 90.6917 21.1339 90.4999 21.1339V21.1339Z" fill="#AA43A2"/>
<path d="M60.188 63V54.6H63.764C64.748 54.6 65.48 54.848 65.96 55.344C66.32 55.72 66.5 56.176 66.5 56.712C66.5 57.624 66.056 58.272 65.168 58.656C66.368 59.016 66.968 59.7 66.968 60.708C66.968 61.42 66.692 61.98 66.14 62.388C65.588 62.796 64.848 63 63.92 63H60.188ZM61.124 62.148H63.944C64.584 62.148 65.088 62.016 65.456 61.752C65.824 61.48 66.008 61.104 66.008 60.624C66.008 60.16 65.816 59.804 65.432 59.556C65.056 59.308 64.504 59.184 63.776 59.184H61.124V62.148ZM61.124 58.344H63.608C64.192 58.344 64.66 58.212 65.012 57.948C65.364 57.684 65.54 57.308 65.54 56.82C65.54 56.396 65.376 56.064 65.048 55.824C64.728 55.576 64.272 55.452 63.68 55.452H61.124V58.344ZM68.6922 63V56.796H69.6162V61.704L73.3002 56.796H74.2002V63H73.2762V58.092L69.5802 63H68.6922ZM76.2625 63V56.796H77.1865V59.472H80.7625V56.796H81.6865V63H80.7625V60.288H77.1865V63H76.2625ZM83.7508 63V56.796H84.6748V59.472H88.2508V56.796H89.1748V63H88.2508V60.288H84.6748V63H83.7508ZM91.239 63V56.796H92.163V61.704L95.847 56.796H96.747V63H95.823V58.092L92.127 63H91.239ZM104.161 64.548V63H98.8093V56.796H99.7333V62.184H103.213V56.796H104.137V62.184H105.073L104.929 64.548H104.161ZM108.193 63.132C107.561 63.132 107.017 62.96 106.561 62.616C106.105 62.272 105.877 61.792 105.877 61.176C105.877 60.528 106.117 60.028 106.597 59.676C107.077 59.324 107.721 59.148 108.529 59.148C109.169 59.148 109.801 59.236 110.425 59.412V59.22C110.425 58.676 110.265 58.26 109.945 57.972C109.625 57.684 109.173 57.54 108.589 57.54C107.981 57.54 107.353 57.688 106.705 57.984L106.429 57.228C107.197 56.876 107.949 56.7 108.685 56.7C109.565 56.7 110.233 56.928 110.689 57.384C111.121 57.816 111.337 58.424 111.337 59.208V63H110.425V62.076C109.873 62.78 109.129 63.132 108.193 63.132ZM108.373 62.388C108.949 62.388 109.437 62.232 109.837 61.92C110.237 61.608 110.437 61.208 110.437 60.72V60.144C109.829 59.968 109.225 59.88 108.625 59.88C108.057 59.88 107.613 59.996 107.293 60.228C106.973 60.452 106.812 60.76 106.812 61.152C106.812 61.528 106.961 61.828 107.257 62.052C107.561 62.276 107.933 62.388 108.373 62.388Z" fill="#AA43A2"/>
<path d="M83.4999 43.7232C85.2308 43.7232 86.6338 45.1262 86.6338 46.8571C86.6338 48.1814 85.7033 49.6246 83.8663 51.2022C83.7642 51.29 83.6339 51.3381 83.4993 51.338C83.3646 51.3379 83.2345 51.2895 83.1325 51.2016L83.011 51.0961C81.2554 49.5597 80.366 48.1518 80.366 46.8571C80.366 45.1262 81.769 43.7232 83.4999 43.7232ZM83.4999 44.2053C82.7966 44.2053 82.1221 44.4847 81.6248 44.982C81.1275 45.4793 80.8481 46.1538 80.8481 46.8571C80.8481 47.9828 81.6671 49.2797 83.3276 50.7326L83.4475 50.8364C83.4621 50.849 83.4807 50.8558 83.4999 50.8558C83.5191 50.8558 83.5377 50.849 83.5523 50.8364C85.2931 49.3411 86.1517 48.0095 86.1517 46.8571C86.1517 46.5089 86.0831 46.1641 85.9498 45.8423C85.8166 45.5206 85.6212 45.2283 85.375 44.982C85.1287 44.7358 84.8364 44.5405 84.5147 44.4072C84.193 44.2739 83.8481 44.2053 83.4999 44.2053V44.2053ZM83.4999 45.6518C83.8196 45.6518 84.1262 45.7788 84.3522 46.0048C84.5783 46.2309 84.7053 46.5375 84.7053 46.8571C84.7053 47.1768 84.5783 47.4834 84.3522 47.7095C84.1262 47.9355 83.8196 48.0625 83.4999 48.0625C83.1802 48.0625 82.8736 47.9355 82.6476 47.7095C82.4215 47.4834 82.2945 47.1768 82.2945 46.8571C82.2945 46.5375 82.4215 46.2309 82.6476 46.0048C82.8736 45.7788 83.1802 45.6518 83.4999 45.6518V45.6518ZM83.4999 46.1339C83.3081 46.1339 83.1241 46.2101 82.9885 46.3457C82.8529 46.4814 82.7767 46.6653 82.7767 46.8571C82.7767 47.0489 82.8529 47.2329 82.9885 47.3685C83.1241 47.5042 83.3081 47.5803 83.4999 47.5803C83.6917 47.5803 83.8757 47.5042 84.0113 47.3685C84.1469 47.2329 84.2231 47.0489 84.2231 46.8571C84.2231 46.6653 84.1469 46.4814 84.0113 46.3457C83.8757 46.2101 83.6917 46.1339 83.4999 46.1339V46.1339Z" fill="#AA43A2"/>
<path d="M9.27614 58.096C8.90014 58.096 8.53614 58.028 8.18414 57.892L8.37614 57.124C8.55214 57.204 8.80014 57.244 9.12014 57.244C9.28014 57.244 9.42414 57.22 9.55214 57.172C9.68014 57.116 9.83214 56.972 10.0081 56.74C10.1841 56.5 10.3281 56.176 10.4401 55.768C10.5521 55.352 10.6481 54.748 10.7281 53.956C10.8161 53.156 10.8601 52.212 10.8601 51.124V49.6H16.2961V58H15.3481V50.464H11.7721V51.376C11.7721 52.512 11.7241 53.496 11.6281 54.328C11.5401 55.16 11.4201 55.816 11.2681 56.296C11.1241 56.768 10.9361 57.144 10.7041 57.424C10.4801 57.704 10.2561 57.888 10.0321 57.976C9.81614 58.056 9.56414 58.096 9.27614 58.096ZM18.5105 58V51.796H19.4345V54.124H21.0905C21.8105 54.124 22.3985 54.28 22.8545 54.592C23.3105 54.896 23.5385 55.36 23.5385 55.984C23.5385 56.6 23.3265 57.092 22.9025 57.46C22.4785 57.82 21.9105 58 21.1985 58H18.5105ZM19.4345 57.184H21.1145C21.5865 57.184 21.9505 57.084 22.2065 56.884C22.4705 56.684 22.6025 56.392 22.6025 56.008C22.6025 55.656 22.4665 55.388 22.1945 55.204C21.9305 55.012 21.5585 54.916 21.0785 54.916H19.4345V57.184ZM24.9675 58V51.796H27.9675C28.5835 51.796 29.0755 51.936 29.4435 52.216C29.8115 52.496 29.9955 52.872 29.9955 53.344C29.9955 54.008 29.6515 54.484 28.9635 54.772C29.8755 55.02 30.3315 55.532 30.3315 56.308C30.3315 56.828 30.1275 57.24 29.7195 57.544C29.3115 57.848 28.7635 58 28.0755 58H24.9675ZM25.8915 57.208H27.9555C28.3955 57.208 28.7435 57.116 28.9995 56.932C29.2555 56.748 29.3835 56.492 29.3835 56.164C29.3835 55.86 29.2475 55.624 28.9755 55.456C28.7115 55.288 28.3315 55.204 27.8355 55.204H25.8915V57.208ZM25.8915 54.46H27.7995C28.1835 54.46 28.4875 54.376 28.7115 54.208C28.9435 54.032 29.0595 53.784 29.0595 53.464C29.0595 53.2 28.9515 52.988 28.7355 52.828C28.5195 52.668 28.2155 52.588 27.8235 52.588H25.8915V54.46ZM37.1468 57.196C36.5228 57.828 35.7508 58.144 34.8308 58.144C33.9108 58.144 33.1428 57.828 32.5268 57.196C31.9188 56.564 31.6148 55.8 31.6148 54.904C31.6148 54.016 31.9228 53.256 32.5388 52.624C33.1628 51.984 33.9348 51.664 34.8548 51.664C35.7748 51.664 36.5428 51.98 37.1588 52.612C37.7748 53.244 38.0828 54.008 38.0828 54.904C38.0828 55.792 37.7708 56.556 37.1468 57.196ZM34.8548 57.316C35.5188 57.316 36.0628 57.084 36.4868 56.62C36.9188 56.156 37.1348 55.584 37.1348 54.904C37.1348 54.232 36.9108 53.66 36.4628 53.188C36.0228 52.716 35.4788 52.48 34.8308 52.48C34.1668 52.48 33.6228 52.716 33.1988 53.188C32.7748 53.652 32.5628 54.224 32.5628 54.904C32.5628 55.576 32.7828 56.148 33.2228 56.62C33.6628 57.084 34.2068 57.316 34.8548 57.316ZM39.7566 58V51.796H42.7566C43.3726 51.796 43.8646 51.936 44.2326 52.216C44.6006 52.496 44.7846 52.872 44.7846 53.344C44.7846 54.008 44.4406 54.484 43.7526 54.772C44.6646 55.02 45.1206 55.532 45.1206 56.308C45.1206 56.828 44.9166 57.24 44.5086 57.544C44.1006 57.848 43.5526 58 42.8646 58H39.7566ZM40.6806 57.208H42.7446C43.1846 57.208 43.5326 57.116 43.7886 56.932C44.0446 56.748 44.1726 56.492 44.1726 56.164C44.1726 55.86 44.0366 55.624 43.7646 55.456C43.5006 55.288 43.1206 55.204 42.6246 55.204H40.6806V57.208ZM40.6806 54.46H42.5886C42.9726 54.46 43.2766 54.376 43.5006 54.208C43.7326 54.032 43.8486 53.784 43.8486 53.464C43.8486 53.2 43.7406 52.988 43.5246 52.828C43.3086 52.668 43.0046 52.588 42.6126 52.588H40.6806V54.46Z" fill="#AA43A2"/>
<path d="M28.4999 38.7232C30.2308 38.7232 31.6338 40.1262 31.6338 41.8571C31.6338 43.1814 30.7033 44.6246 28.8663 46.2022C28.7642 46.29 28.6339 46.3381 28.4993 46.338C28.3646 46.3379 28.2345 46.2895 28.1325 46.2016L28.011 46.0961C26.2554 44.5597 25.366 43.1518 25.366 41.8571C25.366 40.1262 26.769 38.7232 28.4999 38.7232ZM28.4999 39.2053C27.7966 39.2053 27.1221 39.4847 26.6248 39.982C26.1275 40.4793 25.8481 41.1538 25.8481 41.8571C25.8481 42.9828 26.6671 44.2797 28.3276 45.7326L28.4475 45.8364C28.4621 45.849 28.4807 45.8558 28.4999 45.8558C28.5191 45.8558 28.5377 45.849 28.5523 45.8364C30.2931 44.3411 31.1517 43.0095 31.1517 41.8571C31.1517 41.5089 31.0831 41.1641 30.9498 40.8423C30.8166 40.5206 30.6212 40.2283 30.375 39.982C30.1287 39.7358 29.8364 39.5405 29.5147 39.4072C29.193 39.2739 28.8481 39.2053 28.4999 39.2053V39.2053ZM28.4999 40.6518C28.8196 40.6518 29.1262 40.7788 29.3522 41.0048C29.5783 41.2309 29.7053 41.5375 29.7053 41.8571C29.7053 42.1768 29.5783 42.4834 29.3522 42.7095C29.1262 42.9355 28.8196 43.0625 28.4999 43.0625C28.1802 43.0625 27.8736 42.9355 27.6476 42.7095C27.4215 42.4834 27.2945 42.1768 27.2945 41.8571C27.2945 41.5375 27.4215 41.2309 27.6476 41.0048C27.8736 40.7788 28.1802 40.6518 28.4999 40.6518V40.6518ZM28.4999 41.1339C28.3081 41.1339 28.1241 41.2101 27.9885 41.3457C27.8529 41.4814 27.7767 41.6653 27.7767 41.8571C27.7767 42.0489 27.8529 42.2329 27.9885 42.3685C28.1241 42.5042 28.3081 42.5803 28.4999 42.5803C28.6917 42.5803 28.8757 42.5042 29.0113 42.3685C29.1469 42.2329 29.2231 42.0489 29.2231 41.8571C29.2231 41.6653 29.1469 41.4814 29.0113 41.3457C28.8757 41.2101 28.6917 41.1339 28.4999 41.1339V41.1339Z" fill="#AA43A2"/>
<path d="M123.718 49L126.946 44.716L123.838 40.6H124.954L127.534 44.032L130.09 40.6H131.194L128.086 44.704L131.314 49H130.186L127.498 45.388L124.81 49H123.718ZM134.741 49.132C134.109 49.132 133.565 48.96 133.109 48.616C132.653 48.272 132.425 47.792 132.425 47.176C132.425 46.528 132.665 46.028 133.145 45.676C133.625 45.324 134.269 45.148 135.077 45.148C135.717 45.148 136.349 45.236 136.973 45.412V45.22C136.973 44.676 136.813 44.26 136.493 43.972C136.173 43.684 135.721 43.54 135.137 43.54C134.529 43.54 133.901 43.688 133.253 43.984L132.977 43.228C133.745 42.876 134.497 42.7 135.233 42.7C136.113 42.7 136.781 42.928 137.237 43.384C137.669 43.816 137.885 44.424 137.885 45.208V49H136.973V48.076C136.421 48.78 135.677 49.132 134.741 49.132ZM134.921 48.388C135.497 48.388 135.985 48.232 136.385 47.92C136.785 47.608 136.985 47.208 136.985 46.72V46.144C136.377 45.968 135.773 45.88 135.173 45.88C134.605 45.88 134.161 45.996 133.841 46.228C133.521 46.452 133.361 46.76 133.361 47.152C133.361 47.528 133.509 47.828 133.805 48.052C134.109 48.276 134.481 48.388 134.921 48.388ZM139.843 50.92V42.796H140.767V44.044C141.391 43.124 142.183 42.664 143.143 42.664C143.935 42.664 144.627 42.96 145.219 43.552C145.811 44.136 146.107 44.92 146.107 45.904C146.107 46.872 145.811 47.652 145.219 48.244C144.627 48.836 143.935 49.132 143.143 49.132C142.167 49.132 141.375 48.692 140.767 47.812V50.92H139.843ZM142.975 48.304C143.599 48.304 144.119 48.088 144.535 47.656C144.951 47.216 145.159 46.628 145.159 45.892C145.159 45.18 144.947 44.604 144.523 44.164C144.099 43.716 143.583 43.492 142.975 43.492C142.375 43.492 141.851 43.72 141.403 44.176C140.955 44.632 140.731 45.208 140.731 45.904C140.731 46.6 140.955 47.176 141.403 47.632C141.851 48.08 142.375 48.304 142.975 48.304ZM147.811 49V42.796H148.735V45.124H150.391C151.111 45.124 151.699 45.28 152.155 45.592C152.611 45.896 152.839 46.36 152.839 46.984C152.839 47.6 152.627 48.092 152.203 48.46C151.779 48.82 151.211 49 150.499 49H147.811ZM148.735 48.184H150.415C150.887 48.184 151.251 48.084 151.507 47.884C151.771 47.684 151.903 47.392 151.903 47.008C151.903 46.656 151.767 46.388 151.495 46.204C151.231 46.012 150.859 45.916 150.379 45.916H148.735V48.184ZM154.268 49V42.796H155.192V46.372L158.588 42.796H159.728L157.136 45.484L159.8 49H158.708L156.5 46.156L155.192 47.5V49H154.268ZM166.225 48.196C165.601 48.828 164.829 49.144 163.909 49.144C162.989 49.144 162.221 48.828 161.605 48.196C160.997 47.564 160.693 46.8 160.693 45.904C160.693 45.016 161.001 44.256 161.617 43.624C162.241 42.984 163.013 42.664 163.933 42.664C164.853 42.664 165.621 42.98 166.237 43.612C166.853 44.244 167.161 45.008 167.161 45.904C167.161 46.792 166.849 47.556 166.225 48.196ZM163.933 48.316C164.597 48.316 165.141 48.084 165.565 47.62C165.997 47.156 166.213 46.584 166.213 45.904C166.213 45.232 165.989 44.66 165.541 44.188C165.101 43.716 164.557 43.48 163.909 43.48C163.245 43.48 162.701 43.716 162.277 44.188C161.853 44.652 161.641 45.224 161.641 45.904C161.641 46.576 161.861 47.148 162.301 47.62C162.741 48.084 163.285 48.316 163.933 48.316ZM168.835 49V42.796H171.835C172.451 42.796 172.943 42.936 173.311 43.216C173.679 43.496 173.863 43.872 173.863 44.344C173.863 45.008 173.519 45.484 172.831 45.772C173.743 46.02 174.199 46.532 174.199 47.308C174.199 47.828 173.995 48.24 173.587 48.544C173.179 48.848 172.631 49 171.943 49H168.835ZM169.759 48.208H171.823C172.263 48.208 172.611 48.116 172.867 47.932C173.123 47.748 173.251 47.492 173.251 47.164C173.251 46.86 173.115 46.624 172.843 46.456C172.579 46.288 172.199 46.204 171.703 46.204H169.759V48.208ZM169.759 45.46H171.667C172.051 45.46 172.355 45.376 172.579 45.208C172.811 45.032 172.927 44.784 172.927 44.464C172.927 44.2 172.819 43.988 172.603 43.828C172.387 43.668 172.083 43.588 171.691 43.588H169.759V45.46Z" fill="#AA43A2"/>
<path d="M149.5 29.7232C151.231 29.7232 152.634 31.1262 152.634 32.8571C152.634 34.1814 151.703 35.6246 149.866 37.2022C149.764 37.29 149.634 37.3381 149.499 37.338C149.365 37.3379 149.234 37.2895 149.133 37.2016L149.011 37.0961C147.255 35.5597 146.366 34.1518 146.366 32.8571C146.366 31.1262 147.769 29.7232 149.5 29.7232ZM149.5 30.2053C148.797 30.2053 148.122 30.4847 147.625 30.982C147.127 31.4793 146.848 32.1538 146.848 32.8571C146.848 33.9828 147.667 35.2797 149.328 36.7326L149.448 36.8364C149.462 36.849 149.481 36.8558 149.5 36.8558C149.519 36.8558 149.538 36.849 149.552 36.8364C151.293 35.3411 152.152 34.0095 152.152 32.8571C152.152 32.5089 152.083 32.1641 151.95 31.8423C151.817 31.5206 151.621 31.2283 151.375 30.982C151.129 30.7358 150.836 30.5405 150.515 30.4072C150.193 30.2739 149.848 30.2053 149.5 30.2053V30.2053ZM149.5 31.6518C149.82 31.6518 150.126 31.7788 150.352 32.0048C150.578 32.2309 150.705 32.5375 150.705 32.8571C150.705 33.1768 150.578 33.4834 150.352 33.7095C150.126 33.9355 149.82 34.0625 149.5 34.0625C149.18 34.0625 148.874 33.9355 148.648 33.7095C148.422 33.4834 148.295 33.1768 148.295 32.8571C148.295 32.5375 148.422 32.2309 148.648 32.0048C148.874 31.7788 149.18 31.6518 149.5 31.6518V31.6518ZM149.5 32.1339C149.308 32.1339 149.124 32.2101 148.989 32.3457C148.853 32.4814 148.777 32.6653 148.777 32.8571C148.777 33.0489 148.853 33.2329 148.989 33.3685C149.124 33.5042 149.308 33.5803 149.5 33.5803C149.692 33.5803 149.876 33.5042 150.011 33.3685C150.147 33.2329 150.223 33.0489 150.223 32.8571C150.223 32.6653 150.147 32.4814 150.011 32.3457C149.876 32.2101 149.692 32.1339 149.5 32.1339V32.1339Z" fill="#AA43A2"/>
</svg>
