<svg width="180" height="124" viewBox="0 0 180 124" fill="none" xmlns="http://www.w3.org/2000/svg">
<path d="M113.934 98.6557C112.244 99.6031 111.196 97.8661 110.883 96.8792C110.062 97.8267 105.602 96.8792 102.316 96.8792C99.0306 96.8792 95.2752 95.1027 96.0967 91.9051C96.9182 88.7075 100.673 93.3263 103.138 91.1945C105.602 89.0628 101.847 89.5365 97.5049 89.5365C93.1629 89.5365 91.1679 89.5365 86.9432 91.1945C82.7186 92.8526 86.3565 94.0369 83.0706 99.84C79.7847 105.643 77.9071 102.801 76.6162 106.472C75.3254 110.144 76.4989 108.604 75.6774 111.802C74.8559 114.999 74.3865 111.802 73.5651 108.604C72.7436 105.406 70.9833 107.538 64.529 110.736C58.0746 113.933 58.6613 108.485 58.1919 105.525C57.7225 102.564 60.4216 104.696 62.4166 102.209C64.4115 99.7216 66.0545 99.84 67.3454 96.8792C68.6363 93.9184 66.5239 91.5498 70.9833 91.1945C75.4427 90.8392 75.4427 91.9051 77.9071 93.3263C80.3715 94.7475 79.0806 91.6682 77.9071 88.3522C76.7336 85.0361 73.6824 83.6149 74.3865 81.3647C75.0906 79.1145 70.9833 77.9302 68.6363 74.9694C66.2893 72.0086 70.0445 72.3639 69.3404 69.0478C68.6363 65.7318 66.7586 66.9161 64.529 66.9161C62.2993 66.9161 61.7125 67.982 59.6002 64.3106C57.4878 60.6392 53.6152 61.7051 49.6252 61.8235C45.6352 61.942 43.9923 63.6 42.1147 66.9161C40.2371 70.2322 35.1909 66.9161 32.0224 67.982C28.8539 69.0478 28.5018 71.298 26.5068 70.5875C24.5119 69.8769 24.9812 66.2055 21.1086 66.9161C17.236 67.6267 16.8839 67.2714 14.6542 65.4949C12.4245 63.7184 10.0775 64.6659 5.03134 62.8894C-0.014802 61.1129 -0.836268 55.6651 0.689311 54.4808C2.21489 53.2965 3.97517 50.5725 4.32723 48.2039C4.67929 45.8353 6.32222 47.6118 7.8478 48.2039C9.37338 48.7961 7.96514 46.309 7.14368 42.8745C6.32221 39.44 10.4295 33.8737 14.6542 31.3867C18.8789 28.8996 21.578 28.3074 22.2821 24.7545C22.9862 21.2016 19.9351 18.5961 18.1748 12.5561C16.4145 6.51608 21.9301 9.12157 23.3383 9.95059C24.7465 10.7796 25.6853 7.22667 28.5018 5.80549C31.3182 4.38431 42.5841 5.80549 43.9923 7.22667C45.4005 8.64784 59.2481 12.5561 62.4166 12.5561C65.5851 12.5561 68.871 11.6086 70.9833 11.7271C73.0956 11.8455 71.6874 16.109 74.3865 15.8722C77.0856 15.6353 78.6112 12.5561 80.6062 14.5694C82.6012 16.5827 82.1318 17.8855 84.3615 17.0565C86.5911 16.2274 86.9432 7.22667 89.6423 5.80549C92.3414 4.38431 96.4487 7.22667 99.0305 5.80549C101.612 4.38431 102.199 2.60784 105.25 3.08157C108.301 3.55529 111.939 0.120783 113.934 0.00235113C115.929 -0.11608 117.455 4.26588 119.919 7.22667C122.384 10.1874 121.21 10.6612 119.098 12.5561C116.985 14.451 120.389 18.3592 124.613 17.8855C128.838 17.4118 130.95 21.7937 132.006 24.7545C133.063 27.7153 129.542 27.8337 132.711 29.9655C135.879 32.0973 136.818 29.1365 139.048 29.9655C141.277 30.7945 142.216 31.3867 146.441 29.1365C150.665 26.8863 152.778 31.2682 153.834 33.8737C154.89 36.4792 158.997 32.6894 160.992 33.8737C162.987 35.058 171.319 36.8345 174.723 36.2424C178.126 35.6502 180.825 41.4533 179.065 43.5851C177.304 45.7169 176.366 46.6643 178.009 47.4933C179.651 48.3224 179.769 49.7435 178.009 50.2173C176.248 50.691 175.075 45.9537 179.065 56.3757C183.055 66.7977 173.197 65.3765 169.794 66.3239C166.391 67.2714 168.972 68.4557 166.039 69.2847C163.105 70.1137 164.161 72.6008 164.63 75.7984C165.1 78.9961 163.222 79.7067 160.288 78.5223C157.355 77.338 157.237 78.9961 155.36 81.3647C153.482 83.7333 151.604 84.0886 148.905 84.7992C146.206 85.5098 142.216 87.8784 139.634 89.5365C137.053 91.1945 132.006 92.7341 129.542 95.1027C127.078 97.4714 130.833 99.84 132.006 105.525C133.18 111.209 138.93 107.538 142.216 106.472C145.502 105.406 148.084 107.538 147.732 110.736C147.38 113.933 141.277 112.394 137.874 111.802C134.471 111.209 136.231 113.933 132.945 115.828C129.659 117.723 127.078 116.894 125.904 119.736C124.731 122.579 120.623 124 117.455 124C114.286 124 113.934 120.802 116.164 119.026C118.394 117.249 117.455 115.71 116.164 113.104C114.873 110.499 111.705 111.802 109.24 109.315C106.776 106.827 106.541 109.433 105.602 107.538C104.663 105.643 114.638 100.906 117.455 99.84C120.271 98.7741 116.047 97.4714 113.934 98.6557Z" fill="#FEC830"/>
<path d="M78.188 38V29.6H79.136V34.616L83.96 29.6H85.184L81.584 33.272L85.34 38H84.152L80.924 33.932L79.136 35.744V38H78.188ZM86.681 30.44V29.42H87.737V30.44H86.681ZM86.741 38V31.796H87.665V38H86.741ZM89.8333 30.44V29.42H90.8893V30.44H89.8333ZM89.3053 39.956C89.0893 39.956 88.8973 39.936 88.7293 39.896V39.14C88.8733 39.164 89.0253 39.176 89.1853 39.176C89.6573 39.176 89.8933 38.9 89.8933 38.348V31.796H90.8173V38.36C90.8173 38.896 90.6853 39.296 90.4213 39.56C90.1573 39.824 89.7853 39.956 89.3053 39.956ZM98.1097 37.196C97.4857 37.828 96.7137 38.144 95.7937 38.144C94.8737 38.144 94.1057 37.828 93.4897 37.196C92.8817 36.564 92.5777 35.8 92.5777 34.904C92.5777 34.016 92.8857 33.256 93.5017 32.624C94.1257 31.984 94.8977 31.664 95.8177 31.664C96.7377 31.664 97.5057 31.98 98.1217 32.612C98.7377 33.244 99.0457 34.008 99.0457 34.904C99.0457 35.792 98.7337 36.556 98.1097 37.196ZM95.8177 37.316C96.4817 37.316 97.0257 37.084 97.4497 36.62C97.8817 36.156 98.0977 35.584 98.0977 34.904C98.0977 34.232 97.8737 33.66 97.4257 33.188C96.9857 32.716 96.4417 32.48 95.7937 32.48C95.1297 32.48 94.5857 32.716 94.1617 33.188C93.7377 33.652 93.5257 34.224 93.5257 34.904C93.5257 35.576 93.7457 36.148 94.1857 36.62C94.6257 37.084 95.1697 37.316 95.8177 37.316ZM95.4457 30.86L96.5857 29.12L97.5457 29.564L96.1897 30.86H95.4457ZM102.364 38.048L100.192 31.796H101.176L102.808 36.776L104.476 31.772H105.244L106.924 36.776L108.556 31.796H109.516L107.332 38.048H106.528L104.86 33.152L103.18 38.048H102.364Z" fill="#AA43A2"/>
<path d="M90.4999 18.7232C92.2308 18.7232 93.6338 20.1262 93.6338 21.8571C93.6338 23.1814 92.7033 24.6246 90.8663 26.2022C90.7642 26.29 90.6339 26.3381 90.4993 26.338C90.3646 26.3379 90.2345 26.2895 90.1325 26.2016L90.011 26.0961C88.2554 24.5597 87.366 23.1518 87.366 21.8571C87.366 20.1262 88.769 18.7232 90.4999 18.7232ZM90.4999 19.2053C89.7966 19.2053 89.1221 19.4847 88.6248 19.982C88.1275 20.4793 87.8481 21.1538 87.8481 21.8571C87.8481 22.9828 88.6671 24.2797 90.3276 25.7326L90.4475 25.8364C90.4621 25.849 90.4807 25.8558 90.4999 25.8558C90.5191 25.8558 90.5377 25.849 90.5523 25.8364C92.2931 24.3411 93.1517 23.0095 93.1517 21.8571C93.1517 21.5089 93.0831 21.1641 92.9498 20.8423C92.8166 20.5206 92.6212 20.2283 92.375 19.982C92.1287 19.7358 91.8364 19.5405 91.5147 19.4072C91.193 19.2739 90.8481 19.2053 90.4999 19.2053ZM90.4999 20.6518C90.8196 20.6518 91.1262 20.7788 91.3522 21.0048C91.5783 21.2309 91.7053 21.5375 91.7053 21.8571C91.7053 22.1768 91.5783 22.4834 91.3522 22.7095C91.1262 22.9355 90.8196 23.0625 90.4999 23.0625C90.1802 23.0625 89.8736 22.9355 89.6476 22.7095C89.4215 22.4834 89.2945 22.1768 89.2945 21.8571C89.2945 21.5375 89.4215 21.2309 89.6476 21.0048C89.8736 20.7788 90.1802 20.6518 90.4999 20.6518ZM90.4999 21.1339C90.3081 21.1339 90.1241 21.2101 89.9885 21.3457C89.8529 21.4814 89.7767 21.6653 89.7767 21.8571C89.7767 22.0489 89.8529 22.2329 89.9885 22.3685C90.1241 22.5042 90.3081 22.5803 90.4999 22.5803C90.6917 22.5803 90.8757 22.5042 91.0113 22.3685C91.1469 22.2329 91.2231 22.0489 91.2231 21.8571C91.2231 21.6653 91.1469 21.4814 91.0113 21.3457C90.8757 21.2101 90.6917 21.1339 90.4999 21.1339Z" fill="#AA43A2"/>
<path d="M62.54 63.06L59.54 54.6H60.572L62.972 61.596L65.276 54.576H66.056L68.36 61.596L70.76 54.6H71.756L68.756 63.06H67.952L65.648 56.244L63.332 63.06H62.54ZM73.1693 55.44V54.42H74.2253V55.44H73.1693ZM73.2293 63V56.796H74.1533V63H73.2293ZM76.2976 63V56.796H77.2216V57.876C77.7096 57.068 78.4176 56.664 79.3456 56.664C80.0816 56.664 80.6616 56.892 81.0856 57.348C81.5096 57.796 81.7216 58.396 81.7216 59.148V63H80.7976V59.376C80.7976 58.792 80.6456 58.336 80.3416 58.008C80.0456 57.672 79.6256 57.504 79.0816 57.504C78.5456 57.504 78.1016 57.684 77.7496 58.044C77.3976 58.404 77.2216 58.872 77.2216 59.448V63H76.2976ZM83.6922 63V56.796H84.6162V57.876C85.1042 57.068 85.8122 56.664 86.7402 56.664C87.4762 56.664 88.0562 56.892 88.4802 57.348C88.9042 57.796 89.1162 58.396 89.1162 59.148V63H88.1922V59.376C88.1922 58.792 88.0402 58.336 87.7362 58.008C87.4402 57.672 87.0202 57.504 86.4762 57.504C85.9402 57.504 85.4962 57.684 85.1442 58.044C84.7922 58.404 84.6162 58.872 84.6162 59.448V63H83.6922ZM91.1107 55.44V54.42H92.1667V55.44H91.1107ZM91.1707 63V56.796H92.0947V63H91.1707ZM97.035 63.144C96.139 63.144 95.383 62.828 94.767 62.196C94.159 61.556 93.855 60.792 93.855 59.904C93.855 59.016 94.159 58.256 94.767 57.624C95.383 56.984 96.139 56.664 97.035 56.664C97.995 56.664 98.823 57.032 99.519 57.768L98.931 58.392C98.355 57.784 97.719 57.48 97.023 57.48C96.399 57.48 95.871 57.716 95.439 58.188C95.015 58.652 94.803 59.224 94.803 59.904C94.803 60.576 95.019 61.148 95.451 61.62C95.891 62.084 96.435 62.316 97.083 62.316C97.747 62.316 98.371 62.004 98.955 61.38L99.567 61.944C98.847 62.744 98.003 63.144 97.035 63.144ZM102.943 63.132C102.311 63.132 101.767 62.96 101.311 62.616C100.855 62.272 100.627 61.792 100.627 61.176C100.627 60.528 100.867 60.028 101.347 59.676C101.827 59.324 102.471 59.148 103.279 59.148C103.919 59.148 104.551 59.236 105.175 59.412V59.22C105.175 58.676 105.015 58.26 104.695 57.972C104.375 57.684 103.923 57.54 103.339 57.54C102.731 57.54 102.103 57.688 101.455 57.984L101.179 57.228C101.947 56.876 102.699 56.7 103.435 56.7C104.315 56.7 104.983 56.928 105.439 57.384C105.871 57.816 106.087 58.424 106.087 59.208V63H105.175V62.076C104.623 62.78 103.879 63.132 102.943 63.132ZM103.123 62.388C103.699 62.388 104.187 62.232 104.587 61.92C104.987 61.608 105.187 61.208 105.187 60.72V60.144C104.579 59.968 103.975 59.88 103.375 59.88C102.807 59.88 102.363 59.996 102.043 60.228C101.723 60.452 101.562 60.76 101.562 61.152C101.562 61.528 101.711 61.828 102.007 62.052C102.311 62.276 102.683 62.388 103.123 62.388Z" fill="#AA43A2"/>
<path d="M83.4999 43.7232C85.2308 43.7232 86.6338 45.1262 86.6338 46.8571C86.6338 48.1814 85.7033 49.6246 83.8663 51.2022C83.7642 51.29 83.6339 51.3381 83.4993 51.338C83.3646 51.3379 83.2345 51.2895 83.1325 51.2016L83.011 51.0961C81.2554 49.5597 80.366 48.1518 80.366 46.8571C80.366 45.1262 81.769 43.7232 83.4999 43.7232ZM83.4999 44.2053C82.7966 44.2053 82.1221 44.4847 81.6248 44.982C81.1275 45.4793 80.8481 46.1538 80.8481 46.8571C80.8481 47.9828 81.6671 49.2797 83.3276 50.7326L83.4475 50.8364C83.4621 50.849 83.4807 50.8558 83.4999 50.8558C83.5191 50.8558 83.5377 50.849 83.5523 50.8364C85.2931 49.3411 86.1517 48.0095 86.1517 46.8571C86.1517 46.5089 86.0831 46.1641 85.9498 45.8423C85.8166 45.5206 85.6212 45.2283 85.375 44.982C85.1287 44.7358 84.8364 44.5405 84.5147 44.4072C84.193 44.2739 83.8481 44.2053 83.4999 44.2053ZM83.4999 45.6518C83.8196 45.6518 84.1262 45.7788 84.3522 46.0048C84.5783 46.2309 84.7053 46.5375 84.7053 46.8571C84.7053 47.1768 84.5783 47.4834 84.3522 47.7095C84.1262 47.9355 83.8196 48.0625 83.4999 48.0625C83.1802 48.0625 82.8736 47.9355 82.6476 47.7095C82.4215 47.4834 82.2945 47.1768 82.2945 46.8571C82.2945 46.5375 82.4215 46.2309 82.6476 46.0048C82.8736 45.7788 83.1802 45.6518 83.4999 45.6518ZM83.4999 46.1339C83.3081 46.1339 83.1241 46.2101 82.9885 46.3457C82.8529 46.4814 82.7767 46.6653 82.7767 46.8571C82.7767 47.0489 82.8529 47.2329 82.9885 47.3685C83.1241 47.5042 83.3081 47.5803 83.4999 47.5803C83.6917 47.5803 83.8757 47.5042 84.0113 47.3685C84.1469 47.2329 84.2231 47.0489 84.2231 46.8571C84.2231 46.6653 84.1469 46.4814 84.0113 46.3457C83.8757 46.2101 83.6917 46.1339 83.4999 46.1339Z" fill="#AA43A2"/>
<path d="M10.5571 58V49.6H11.5051V57.124H16.2331V58H10.5571ZM18.8772 58.048L16.7052 51.796H17.6892L19.3212 56.776L20.9892 51.772H21.7572L23.4372 56.776L25.0692 51.796H26.0292L23.8452 58.048H23.0412L21.3732 53.152L19.6932 58.048H18.8772ZM32.7171 57.196C32.0931 57.828 31.3211 58.144 30.4011 58.144C29.4811 58.144 28.7131 57.828 28.0971 57.196C27.4891 56.564 27.1851 55.8 27.1851 54.904C27.1851 54.016 27.4931 53.256 28.1091 52.624C28.7331 51.984 29.5051 51.664 30.4251 51.664C31.3451 51.664 32.1131 51.98 32.7291 52.612C33.3451 53.244 33.6531 54.008 33.6531 54.904C33.6531 55.792 33.3411 56.556 32.7171 57.196ZM30.4251 57.316C31.0891 57.316 31.6331 57.084 32.0571 56.62C32.4891 56.156 32.7051 55.584 32.7051 54.904C32.7051 54.232 32.4811 53.66 32.0331 53.188C31.5931 52.716 31.0491 52.48 30.4011 52.48C29.7371 52.48 29.1931 52.716 28.7691 53.188C28.3451 53.652 28.1331 54.224 28.1331 54.904C28.1331 55.576 28.3531 56.148 28.7931 56.62C29.2331 57.084 29.7771 57.316 30.4251 57.316ZM30.0531 50.86L31.1931 49.12L32.1531 49.564L30.7971 50.86H30.0531ZM36.9709 58.048L34.7989 51.796H35.7829L37.4149 56.776L39.0829 51.772H39.8509L41.5309 56.776L43.1629 51.796H44.1229L41.9389 58.048H41.1349L39.4669 53.152L37.7869 58.048H36.9709Z" fill="#AA43A2"/>
<path d="M28.4999 38.7232C30.2308 38.7232 31.6338 40.1262 31.6338 41.8571C31.6338 43.1814 30.7033 44.6246 28.8663 46.2022C28.7642 46.29 28.6339 46.3381 28.4993 46.338C28.3646 46.3379 28.2345 46.2895 28.1325 46.2016L28.011 46.0961C26.2554 44.5597 25.366 43.1518 25.366 41.8571C25.366 40.1262 26.769 38.7232 28.4999 38.7232ZM28.4999 39.2053C27.7966 39.2053 27.1221 39.4847 26.6248 39.982C26.1275 40.4793 25.8481 41.1538 25.8481 41.8571C25.8481 42.9828 26.6671 44.2797 28.3276 45.7326L28.4475 45.8364C28.4621 45.849 28.4807 45.8558 28.4999 45.8558C28.5191 45.8558 28.5377 45.849 28.5523 45.8364C30.2931 44.3411 31.1517 43.0095 31.1517 41.8571C31.1517 41.5089 31.0831 41.1641 30.9498 40.8423C30.8166 40.5206 30.6212 40.2283 30.375 39.982C30.1287 39.7358 29.8364 39.5405 29.5147 39.4072C29.193 39.2739 28.8481 39.2053 28.4999 39.2053ZM28.4999 40.6518C28.8196 40.6518 29.1262 40.7788 29.3522 41.0048C29.5783 41.2309 29.7053 41.5375 29.7053 41.8571C29.7053 42.1768 29.5783 42.4834 29.3522 42.7095C29.1262 42.9355 28.8196 43.0625 28.4999 43.0625C28.1802 43.0625 27.8736 42.9355 27.6476 42.7095C27.4215 42.4834 27.2945 42.1768 27.2945 41.8571C27.2945 41.5375 27.4215 41.2309 27.6476 41.0048C27.8736 40.7788 28.1802 40.6518 28.4999 40.6518ZM28.4999 41.1339C28.3081 41.1339 28.1241 41.2101 27.9885 41.3457C27.8529 41.4814 27.7767 41.6653 27.7767 41.8571C27.7767 42.0489 27.8529 42.2329 27.9885 42.3685C28.1241 42.5042 28.3081 42.5803 28.4999 42.5803C28.6917 42.5803 28.8757 42.5042 29.0113 42.3685C29.1469 42.2329 29.2231 42.0489 29.2231 41.8571C29.2231 41.6653 29.1469 41.4814 29.0113 41.3457C28.8757 41.2101 28.6917 41.1339 28.4999 41.1339Z" fill="#AA43A2"/>
<path d="M128.032 49.144C126.824 49.144 125.82 48.728 125.02 47.896C124.22 47.056 123.82 46.024 123.82 44.8C123.82 43.592 124.224 42.568 125.032 41.728C125.84 40.88 126.852 40.456 128.068 40.456C128.772 40.456 129.372 40.572 129.868 40.804C130.364 41.028 130.848 41.364 131.32 41.812L130.696 42.484C129.888 41.716 129.008 41.332 128.056 41.332C127.128 41.332 126.352 41.664 125.728 42.328C125.112 42.992 124.804 43.816 124.804 44.8C124.804 45.776 125.116 46.6 125.74 47.272C126.364 47.936 127.136 48.268 128.056 48.268C128.6 48.268 129.08 48.168 129.496 47.968C129.912 47.768 130.336 47.464 130.768 47.056L131.392 47.716C130.92 48.188 130.424 48.544 129.904 48.784C129.384 49.024 128.76 49.144 128.032 49.144ZM132.895 49V40.24H133.819V43.876C134.307 43.068 135.015 42.664 135.943 42.664C136.679 42.664 137.259 42.892 137.683 43.348C138.107 43.796 138.319 44.396 138.319 45.148V49H137.395V45.376C137.395 44.792 137.243 44.336 136.939 44.008C136.643 43.672 136.223 43.504 135.679 43.504C135.143 43.504 134.699 43.684 134.347 44.044C133.995 44.404 133.819 44.872 133.819 45.448V49H132.895ZM142.138 49.132C141.506 49.132 140.962 48.96 140.506 48.616C140.05 48.272 139.822 47.792 139.822 47.176C139.822 46.528 140.062 46.028 140.542 45.676C141.022 45.324 141.666 45.148 142.474 45.148C143.114 45.148 143.746 45.236 144.37 45.412V45.22C144.37 44.676 144.21 44.26 143.89 43.972C143.57 43.684 143.118 43.54 142.534 43.54C141.926 43.54 141.298 43.688 140.65 43.984L140.374 43.228C141.142 42.876 141.894 42.7 142.63 42.7C143.51 42.7 144.178 42.928 144.634 43.384C145.066 43.816 145.282 44.424 145.282 45.208V49H144.37V48.076C143.818 48.78 143.074 49.132 142.138 49.132ZM142.318 48.388C142.894 48.388 143.382 48.232 143.782 47.92C144.182 47.608 144.382 47.208 144.382 46.72V46.144C143.774 45.968 143.17 45.88 142.57 45.88C142.002 45.88 141.558 45.996 141.238 46.228C140.918 46.452 140.758 46.76 140.758 47.152C140.758 47.528 140.906 47.828 141.202 48.052C141.506 48.276 141.878 48.388 142.318 48.388ZM147.239 49V42.796H148.163V44.416C148.403 43.88 148.743 43.452 149.183 43.132C149.623 42.812 150.127 42.664 150.695 42.688V43.684H150.623C149.911 43.684 149.323 43.932 148.859 44.428C148.395 44.924 148.163 45.624 148.163 46.528V49H147.239ZM152.102 49V40.24H153.026V46.288L156.374 42.796H157.526L154.922 45.46L157.61 49H156.506L154.286 46.108L153.026 47.38V49H152.102ZM164.082 48.196C163.458 48.828 162.686 49.144 161.766 49.144C160.846 49.144 160.078 48.828 159.462 48.196C158.854 47.564 158.55 46.8 158.55 45.904C158.55 45.016 158.858 44.256 159.474 43.624C160.098 42.984 160.87 42.664 161.79 42.664C162.71 42.664 163.478 42.98 164.094 43.612C164.71 44.244 165.018 45.008 165.018 45.904C165.018 46.792 164.706 47.556 164.082 48.196ZM161.79 48.316C162.454 48.316 162.998 48.084 163.422 47.62C163.854 47.156 164.07 46.584 164.07 45.904C164.07 45.232 163.846 44.66 163.398 44.188C162.958 43.716 162.414 43.48 161.766 43.48C161.102 43.48 160.558 43.716 160.134 44.188C159.71 44.652 159.498 45.224 159.498 45.904C159.498 46.576 159.718 47.148 160.158 47.62C160.598 48.084 161.142 48.316 161.79 48.316ZM161.418 41.86L162.558 40.12L163.518 40.564L162.162 41.86H161.418ZM168.336 49.048L166.164 42.796H167.148L168.78 47.776L170.448 42.772H171.216L172.896 47.776L174.528 42.796H175.488L173.304 49.048H172.5L170.832 44.152L169.152 49.048H168.336Z" fill="#AA43A2"/>
<path d="M149.5 29.7232C151.231 29.7232 152.634 31.1262 152.634 32.8571C152.634 34.1814 151.703 35.6246 149.866 37.2022C149.764 37.29 149.634 37.3381 149.499 37.338C149.365 37.3379 149.234 37.2895 149.133 37.2016L149.011 37.0961C147.255 35.5597 146.366 34.1518 146.366 32.8571C146.366 31.1262 147.769 29.7232 149.5 29.7232ZM149.5 30.2053C148.797 30.2053 148.122 30.4847 147.625 30.982C147.127 31.4793 146.848 32.1538 146.848 32.8571C146.848 33.9828 147.667 35.2797 149.328 36.7326L149.448 36.8364C149.462 36.849 149.481 36.8558 149.5 36.8558C149.519 36.8558 149.538 36.849 149.552 36.8364C151.293 35.3411 152.152 34.0095 152.152 32.8571C152.152 32.5089 152.083 32.1641 151.95 31.8423C151.817 31.5206 151.621 31.2283 151.375 30.982C151.129 30.7358 150.836 30.5405 150.515 30.4072C150.193 30.2739 149.848 30.2053 149.5 30.2053ZM149.5 31.6518C149.82 31.6518 150.126 31.7788 150.352 32.0048C150.578 32.2309 150.705 32.5375 150.705 32.8571C150.705 33.1768 150.578 33.4834 150.352 33.7095C150.126 33.9355 149.82 34.0625 149.5 34.0625C149.18 34.0625 148.874 33.9355 148.648 33.7095C148.422 33.4834 148.295 33.1768 148.295 32.8571C148.295 32.5375 148.422 32.2309 148.648 32.0048C148.874 31.7788 149.18 31.6518 149.5 31.6518ZM149.5 32.1339C149.308 32.1339 149.124 32.2101 148.989 32.3457C148.853 32.4814 148.777 32.6653 148.777 32.8571C148.777 33.0489 148.853 33.2329 148.989 33.3685C149.124 33.5042 149.308 33.5803 149.5 33.5803C149.692 33.5803 149.876 33.5042 150.011 33.3685C150.147 33.2329 150.223 33.0489 150.223 32.8571C150.223 32.6653 150.147 32.4814 150.011 32.3457C149.876 32.2101 149.692 32.1339 149.5 32.1339Z" fill="#AA43A2"/>
</svg>
