<svg width="94" height="66" viewBox="0 0 94 66" fill="none" xmlns="http://www.w3.org/2000/svg">
<path d="M59.499 52.5103C58.6165 53.0146 58.069 52.09 57.9056 51.5647C57.4766 52.069 55.1478 51.5647 53.4319 51.5647C51.716 51.5647 49.7548 50.6192 50.1838 48.9172C50.6128 47.2153 52.5739 49.6737 53.8609 48.539C55.1478 47.4044 53.1868 47.6565 50.9192 47.6565C48.6517 47.6565 47.6099 47.6565 45.4037 48.539C43.1975 49.4215 45.0973 50.0519 43.3813 53.1406C41.6654 56.2294 40.6848 54.7166 40.0107 56.6707C39.3366 58.6248 39.9494 57.8053 39.5204 59.5073C39.0914 61.2093 38.8463 59.5073 38.4173 57.8053C37.9883 56.1033 37.0691 57.238 33.6985 58.94C30.3279 60.6419 30.6343 57.7423 30.3891 56.1664C30.144 54.5905 31.5535 55.7251 32.5953 54.4014C33.6371 53.0776 34.4951 53.1406 35.1693 51.5647C35.8434 49.9888 34.7403 48.7281 37.0691 48.539C39.3978 48.3499 39.3979 48.9172 40.6848 49.6737C41.9718 50.4301 41.2977 48.7912 40.6848 47.0262C40.072 45.2611 38.4786 44.5047 38.8463 43.307C39.214 42.1093 37.0691 41.479 35.8434 39.9031C34.6177 38.3272 36.5788 38.5163 36.2111 36.7513C35.8434 34.9863 34.8629 35.6166 33.6985 35.6166C32.5341 35.6166 32.2276 36.1839 31.1245 34.2298C30.0214 32.2757 27.999 32.843 25.9154 32.9061C23.8317 32.9691 22.9737 33.8516 21.9932 35.6166C21.0127 37.3816 18.3775 35.6166 16.7228 36.1839C15.0681 36.7513 14.8843 37.949 13.8425 37.5707C12.8006 37.1925 13.0458 35.2384 11.0234 35.6166C9.00102 35.9948 8.81717 35.8057 7.65276 34.8602C6.48835 33.9146 5.26269 34.4189 2.62748 33.4734C-0.00772993 32.5279 -0.436718 29.6282 0.359974 28.9978C1.15667 28.3675 2.07592 26.9176 2.25978 25.6569C2.44363 24.3962 3.3016 25.3417 4.09829 25.6569C4.89499 25.9721 4.15957 24.6483 3.73059 22.8203C3.3016 20.9923 5.44654 18.0296 7.65276 16.7058C9.85898 15.382 11.2685 15.0669 11.6362 13.1758C12.0039 11.2847 10.4105 9.89791 9.49128 6.68307C8.57202 3.46824 11.4524 4.85503 12.1878 5.29628C12.9232 5.73753 13.4135 3.84645 14.8843 3.09002C16.3551 2.33358 22.2383 3.09002 22.9737 3.84645C23.7092 4.60288 30.9407 6.68307 32.5953 6.68307C34.25 6.68307 35.9659 6.17878 37.0691 6.24182C38.1722 6.30486 37.4368 8.57415 38.8463 8.44808C40.2558 8.32201 41.0525 6.68307 42.0943 7.75469C43.1362 8.8263 42.891 9.5197 44.0554 9.07844C45.2198 8.63719 45.4037 3.84645 46.8132 3.09002C48.2227 2.33358 50.3677 3.84645 51.7159 3.09002C53.0642 2.33358 53.3706 1.38804 54.964 1.64019C56.5574 1.89233 58.4572 0.0642875 59.499 0.00125141C60.5408 -0.0617847 61.3375 2.27055 62.6245 3.84645C63.9114 5.42235 63.2986 5.6745 62.1955 6.68307C61.0924 7.69165 62.8696 9.77184 65.0758 9.5197C67.2821 9.26755 68.3852 11.5999 68.9367 13.1758C69.4883 14.7517 67.6497 14.8147 69.3044 15.9494C70.9591 17.084 71.4494 15.5081 72.6137 15.9494C73.7781 16.3906 74.2684 16.7058 76.4746 15.5081C78.6809 14.3104 79.784 16.6428 80.3355 18.0296C80.8871 19.4164 83.032 17.3992 84.0739 18.0296C85.1157 18.6599 89.4668 19.6055 91.2441 19.2903C93.0213 18.9751 94.4308 22.0639 93.5116 23.1985C92.5923 24.3332 92.102 24.8375 92.96 25.2787C93.818 25.72 93.8793 26.4764 92.96 26.7285C92.0408 26.9807 91.4279 24.4592 93.5116 30.0064C95.5952 35.5536 90.4474 34.7972 88.6701 35.3014C86.8929 35.8057 88.2412 36.4361 86.7091 36.8773C85.177 37.3186 85.7285 38.6424 85.9736 40.3443C86.2188 42.0463 85.2382 42.4245 83.7061 41.7942C82.174 41.1638 82.1128 42.0463 81.1322 43.307C80.1517 44.5677 79.1711 44.7569 77.7616 45.1351C76.3521 45.5133 74.2684 46.774 72.9202 47.6565C71.5719 48.539 68.9367 49.3585 67.6497 50.6192C66.3628 51.8799 68.3239 53.1406 68.9367 56.1664C69.5496 59.1921 72.5525 57.238 74.2684 56.6707C75.9844 56.1033 77.3326 57.238 77.1488 58.94C76.9649 60.6419 73.7781 59.8225 72.0009 59.5073C70.2237 59.1921 71.1429 60.6419 69.427 61.6505C67.711 62.6591 66.3628 62.2178 65.75 63.7307C65.1371 65.2436 62.9922 66 61.3375 66C59.6828 66 59.499 64.298 60.6634 63.3525C61.8278 62.4069 61.3375 61.5875 60.6634 60.2007C59.9893 58.8139 58.3346 59.5073 57.0476 58.1835C55.7607 56.8598 55.6381 58.2466 55.1478 57.238C54.6575 56.2294 59.8667 53.708 61.3375 53.1406C62.8083 52.5733 60.6021 51.8799 59.499 52.5103Z" fill="#FEC830"/>
</svg>
