<svg width="145" height="191" viewBox="0 0 145 191" fill="none" xmlns="http://www.w3.org/2000/svg">
<path d="M0.340435 49.3539C0.340435 51.381 1.98405 53.0338 4.02031 53.0338C6.05658 53.0338 7.7002 51.3901 7.7002 49.3539C7.7002 47.3268 6.05658 45.674 4.02032 45.674C1.98405 45.674 0.340435 47.3176 0.340435 49.3539Z" fill="url(#paint0_linear)"/>
<path d="M0.340435 64.5851C0.340435 62.5528 1.98797 60.9052 4.02032 60.9052C6.05266 60.9052 7.7002 62.5528 7.7002 64.5851C7.7002 66.6175 6.05266 68.265 4.02031 68.265C1.98797 68.265 0.340435 66.6175 0.340435 64.5851Z" fill="url(#paint1_linear)"/>
<path d="M0.340435 79.8249C0.340435 77.7926 1.98797 76.145 4.02032 76.145C6.05266 76.145 7.7002 77.7926 7.7002 79.8249C7.7002 81.8573 6.05266 83.5048 4.02031 83.5048C1.98797 83.5048 0.340435 81.8573 0.340435 79.8249Z" fill="url(#paint2_linear)"/>
<path d="M0.340435 95.0651C0.340435 93.0327 1.98797 91.3852 4.02032 91.3852C6.05266 91.3852 7.7002 93.0327 7.7002 95.0651C7.7002 97.0974 6.05266 98.745 4.02031 98.745C1.98797 98.745 0.340435 97.0974 0.340435 95.0651Z" fill="url(#paint3_linear)"/>
<path d="M0.340435 110.296C0.340435 108.264 1.98797 106.616 4.02032 106.616C6.05266 106.616 7.7002 108.264 7.7002 110.296C7.7002 112.328 6.05266 113.976 4.02031 113.976C1.98797 113.976 0.340435 112.328 0.340435 110.296Z" stroke="url(#paint4_linear)" stroke-miterlimit="10"/>
<path d="M97.193 125.512C97.193 127.539 98.8366 129.192 100.873 129.192C102.909 129.192 104.553 127.548 104.553 125.512C104.553 123.485 102.909 121.832 100.873 121.832C98.8366 121.832 97.193 123.476 97.193 125.512Z" fill="url(#paint5_linear)"/>
<path d="M77.4791 125.512C77.4791 127.539 79.1227 129.192 81.159 129.192C83.1952 129.192 84.8389 127.548 84.8389 125.512C84.8389 123.485 83.1952 121.832 81.159 121.832C79.1227 121.832 77.4791 123.476 77.4791 125.512Z" fill="#504C5C"/>
<path d="M57.7554 125.512C57.7554 127.539 59.3991 129.192 61.4353 129.192C63.4625 129.192 65.1152 127.548 65.1152 125.512C65.1152 123.485 63.4716 121.832 61.4353 121.832C59.3991 121.832 57.7554 123.476 57.7554 125.512Z" fill="url(#paint6_linear)"/>
<path d="M38.0318 125.512C38.0318 127.539 39.6755 129.192 41.7117 129.192C43.748 129.192 45.3916 127.548 45.3916 125.512C45.3916 123.485 43.748 121.832 41.7117 121.832C39.6755 121.832 38.0318 123.476 38.0318 125.512Z" fill="url(#paint7_linear)"/>
<path d="M18.3092 125.512C18.3092 127.539 19.9528 129.192 21.9891 129.192C24.0253 129.192 25.6689 127.548 25.6689 125.512C25.6689 123.485 24.0253 121.832 21.9891 121.832C19.9528 121.832 18.3092 123.476 18.3092 125.512Z" fill="#504C5C"/>
<path d="M116.917 140.743C116.917 142.77 118.56 144.423 120.596 144.423C122.624 144.423 124.276 142.78 124.276 140.743C124.276 138.716 122.633 137.063 120.596 137.063C118.569 137.063 116.917 138.716 116.917 140.743Z" stroke="url(#paint8_linear)" stroke-miterlimit="10"/>
<path d="M97.193 140.743C97.193 138.711 98.8405 137.063 100.873 137.063C102.905 137.063 104.553 138.711 104.553 140.743C104.553 142.776 102.905 144.423 100.873 144.423C98.8405 144.423 97.193 142.776 97.193 140.743Z" fill="url(#paint9_linear)"/>
<path d="M77.4703 140.743C77.4703 138.711 79.1179 137.063 81.1502 137.063C83.1825 137.063 84.8301 138.711 84.8301 140.743C84.8301 142.776 83.1825 144.423 81.1502 144.423C79.1179 144.423 77.4703 142.776 77.4703 140.743Z" fill="url(#paint10_linear)"/>
<path d="M57.7554 140.743C57.7554 142.77 59.3991 144.423 61.4353 144.423C63.4625 144.423 65.1152 142.78 65.1152 140.743C65.1152 138.716 63.4716 137.063 61.4353 137.063C59.3991 137.063 57.7554 138.716 57.7554 140.743Z" fill="url(#paint11_linear)"/>
<path d="M38.0231 140.743C38.0231 138.711 39.6706 137.063 41.7029 137.063C43.7353 137.063 45.3828 138.711 45.3828 140.743C45.3828 142.776 43.7353 144.423 41.7029 144.423C39.6706 144.423 38.0231 142.776 38.0231 140.743Z" stroke="url(#paint12_linear)" stroke-miterlimit="10"/>
<path d="M18.2994 140.743C18.2994 138.711 19.947 137.063 21.9793 137.063C24.0116 137.063 25.6592 138.711 25.6592 140.743C25.6592 142.776 24.0116 144.423 21.9793 144.423C19.947 144.423 18.2994 142.776 18.2994 140.743Z" fill="url(#paint13_linear)"/>
<path d="M136.64 155.983C136.64 153.951 138.288 152.303 140.32 152.303C142.352 152.303 144 153.951 144 155.983C144 158.015 142.352 159.663 140.32 159.663C138.288 159.663 136.64 158.015 136.64 155.983Z" fill="url(#paint14_linear)"/>
<path d="M116.917 155.983C116.917 158.01 118.56 159.663 120.596 159.663C122.624 159.663 124.276 158.019 124.276 155.983C124.276 153.947 122.633 152.303 120.596 152.303C118.569 152.303 116.917 153.947 116.917 155.983Z" fill="url(#paint15_linear)"/>
<path d="M97.193 155.983C97.193 153.951 98.8405 152.303 100.873 152.303C102.905 152.303 104.553 153.951 104.553 155.983C104.553 158.015 102.905 159.663 100.873 159.663C98.8405 159.663 97.193 158.015 97.193 155.983Z" fill="url(#paint16_linear)"/>
<path d="M77.4703 155.983C77.4703 153.951 79.1179 152.303 81.1502 152.303C83.1825 152.303 84.8301 153.951 84.8301 155.983C84.8301 158.015 83.1825 159.663 81.1502 159.663C79.1179 159.663 77.4703 158.015 77.4703 155.983Z" fill="url(#paint17_linear)"/>
<path d="M57.7554 155.983C57.7554 158.01 59.3991 159.663 61.4353 159.663C63.4625 159.663 65.1152 158.019 65.1152 155.983C65.1152 153.947 63.4716 152.303 61.4353 152.303C59.3991 152.303 57.7554 153.947 57.7554 155.983Z" fill="#504C5C"/>
<path d="M38.0231 155.983C38.0231 153.951 39.6706 152.303 41.7029 152.303C43.7353 152.303 45.3828 153.951 45.3828 155.983C45.3828 158.015 43.7353 159.663 41.7029 159.663C39.6706 159.663 38.0231 158.015 38.0231 155.983Z" fill="url(#paint18_linear)"/>
<path d="M18.2994 155.983C18.2994 153.951 19.947 152.303 21.9793 152.303C24.0116 152.303 25.6592 153.951 25.6592 155.983C25.6592 158.015 24.0116 159.663 21.9793 159.663C19.947 159.663 18.2994 158.015 18.2994 155.983Z" fill="url(#paint19_linear)"/>
<path d="M136.64 171.223C136.64 169.191 138.288 167.543 140.32 167.543C142.352 167.543 144 169.191 144 171.223C144 173.256 142.352 174.903 140.32 174.903C138.288 174.903 136.64 173.256 136.64 171.223Z" fill="url(#paint20_linear)"/>
<path d="M116.917 171.223C116.917 173.25 118.56 174.903 120.596 174.903C122.624 174.903 124.276 173.26 124.276 171.223C124.276 169.187 122.633 167.543 120.596 167.543C118.569 167.543 116.917 169.187 116.917 171.223Z" fill="#504C5C"/>
<path d="M97.193 171.223C97.193 169.191 98.8405 167.543 100.873 167.543C102.905 167.543 104.553 169.191 104.553 171.223C104.553 173.256 102.905 174.903 100.873 174.903C98.8405 174.903 97.193 173.256 97.193 171.223Z" fill="url(#paint21_linear)"/>
<path d="M77.4703 171.223C77.4703 169.191 79.1179 167.543 81.1502 167.543C83.1825 167.543 84.8301 169.191 84.8301 171.223C84.8301 173.256 83.1825 174.903 81.1502 174.903C79.1179 174.903 77.4703 173.256 77.4703 171.223Z" stroke="url(#paint22_linear)" stroke-miterlimit="10"/>
<path d="M57.7554 171.223C57.7554 173.25 59.3991 174.903 61.4353 174.903C63.4625 174.903 65.1152 173.26 65.1152 171.223C65.1152 169.187 63.4716 167.543 61.4353 167.543C59.3991 167.543 57.7554 169.187 57.7554 171.223Z" fill="url(#paint23_linear)"/>
<path d="M38.0231 171.223C38.0231 169.191 39.6706 167.543 41.7029 167.543C43.7353 167.543 45.3828 169.191 45.3828 171.223C45.3828 173.256 43.7353 174.903 41.7029 174.903C39.6706 174.903 38.0231 173.256 38.0231 171.223Z" fill="url(#paint24_linear)"/>
<path d="M18.2994 171.223C18.2994 169.191 19.947 167.543 21.9793 167.543C24.0116 167.543 25.6592 169.191 25.6592 171.223C25.6592 173.256 24.0116 174.903 21.9793 174.903C19.947 174.903 18.2994 173.256 18.2994 171.223Z" fill="url(#paint25_linear)"/>
<path d="M136.64 186.454C136.64 184.422 138.288 182.774 140.32 182.774C142.352 182.774 144 184.422 144 186.454C144 188.486 142.352 190.134 140.32 190.134C138.288 190.134 136.64 188.486 136.64 186.454Z" stroke="url(#paint26_linear)" stroke-miterlimit="10"/>
<path d="M116.917 186.454C116.917 188.481 118.56 190.134 120.596 190.134C122.624 190.134 124.276 188.49 124.276 186.454C124.276 184.427 122.633 182.774 120.596 182.774C118.569 182.774 116.917 184.427 116.917 186.454Z" fill="url(#paint27_linear)"/>
<path d="M97.193 186.454C97.193 184.422 98.8405 182.774 100.873 182.774C102.905 182.774 104.553 184.422 104.553 186.454C104.553 188.486 102.905 190.134 100.873 190.134C98.8405 190.134 97.193 188.486 97.193 186.454Z" fill="url(#paint28_linear)"/>
<path d="M77.4693 186.454C77.4693 184.422 79.1169 182.774 81.1492 182.774C83.1816 182.774 84.8291 184.422 84.8291 186.454C84.8291 188.486 83.1816 190.134 81.1492 190.134C79.1169 190.134 77.4693 188.486 77.4693 186.454Z" fill="url(#paint29_linear)"/>
<path d="M57.7554 186.454C57.7554 188.481 59.3991 190.134 61.4353 190.134C63.4625 190.134 65.1152 188.49 65.1152 186.454C65.1152 184.427 63.4716 182.774 61.4353 182.774C59.3991 182.774 57.7554 184.427 57.7554 186.454Z" fill="url(#paint30_linear)"/>
<path d="M38.0231 186.454C38.0231 184.422 39.6706 182.774 41.7029 182.774C43.7353 182.774 45.3828 184.422 45.3828 186.454C45.3828 188.486 43.7353 190.134 41.7029 190.134C39.6706 190.134 38.0231 188.486 38.0231 186.454Z" fill="url(#paint31_linear)"/>
<path d="M18.2994 186.454C18.2994 184.422 19.947 182.774 21.9793 182.774C24.0116 182.774 25.6592 184.422 25.6592 186.454C25.6592 188.486 24.0116 190.134 21.9793 190.134C19.947 190.134 18.2994 188.486 18.2994 186.454Z" fill="url(#paint32_linear)"/>
<path d="M25.4359 64.5961C25.4359 62.5638 23.7884 60.9162 21.7561 60.9162C19.7237 60.9162 18.0762 62.5638 18.0762 64.5961C18.0762 66.6285 19.7237 68.276 21.7561 68.276C23.7884 68.276 25.4359 66.6285 25.4359 64.5961Z" fill="url(#paint33_linear)"/>
<path d="M25.4359 79.8359C25.4359 77.8036 23.7884 76.156 21.7561 76.156C19.7237 76.156 18.0762 77.8036 18.0762 79.8359C18.0762 81.8683 19.7237 83.5158 21.7561 83.5158C23.7884 83.5158 25.4359 81.8683 25.4359 79.8359Z" fill="url(#paint34_linear)"/>
<path d="M45.1596 79.8359C45.1596 81.863 43.5159 83.5158 41.4797 83.5158C39.4526 83.5158 37.7998 81.8722 37.7998 79.8359C37.7998 77.7997 39.4434 76.156 41.4797 76.156C43.5068 76.156 45.1596 77.7997 45.1596 79.8359Z" fill="url(#paint35_linear)"/>
<path d="M25.4359 95.0761C25.4359 93.0437 23.7884 91.3962 21.7561 91.3962C19.7237 91.3962 18.0762 93.0437 18.0762 95.0761C18.0762 97.1084 19.7237 98.756 21.7561 98.756C23.7884 98.756 25.4359 97.1084 25.4359 95.0761Z" fill="url(#paint36_linear)"/>
<path d="M45.1596 95.0761C45.1596 97.1032 43.5159 98.756 41.4797 98.756C39.4526 98.756 37.7998 97.1123 37.7998 95.0761C37.7998 93.0398 39.4434 91.3962 41.4797 91.3962C43.5068 91.3962 45.1596 93.0398 45.1596 95.0761Z" fill="#504C5C"/>
<path d="M64.8832 95.0761C64.8832 93.0437 63.2357 91.3962 61.2033 91.3962C59.171 91.3962 57.5234 93.0437 57.5234 95.0761C57.5234 97.1084 59.171 98.756 61.2033 98.756C63.2357 98.756 64.8832 97.1084 64.8832 95.0761Z" fill="url(#paint37_linear)"/>
<path d="M25.4359 110.307C25.4359 108.275 23.7884 106.627 21.7561 106.627C19.7237 106.627 18.0762 108.275 18.0762 110.307C18.0762 112.339 19.7237 113.987 21.7561 113.987C23.7884 113.987 25.4359 112.339 25.4359 110.307Z" stroke="url(#paint38_linear)" stroke-miterlimit="10"/>
<path d="M45.1596 110.307C45.1596 112.334 43.5159 113.987 41.4797 113.987C39.4526 113.987 37.7998 112.343 37.7998 110.307C37.7998 108.28 39.4434 106.627 41.4797 106.627C43.5068 106.627 45.1596 108.28 45.1596 110.307Z" fill="url(#paint39_linear)"/>
<path d="M64.8832 110.307C64.8832 108.275 63.2357 106.627 61.2033 106.627C59.171 106.627 57.5234 108.275 57.5234 110.307C57.5234 112.339 59.171 113.987 61.2033 113.987C63.2357 113.987 64.8832 112.339 64.8832 110.307Z" fill="url(#paint40_linear)"/>
<path d="M84.6068 110.307C84.6068 108.275 82.9593 106.627 80.927 106.627C78.8946 106.627 77.2471 108.275 77.2471 110.307C77.2471 112.339 78.8946 113.987 80.927 113.987C82.9593 113.987 84.6068 112.339 84.6068 110.307Z" fill="url(#paint41_linear)"/>
<path d="M0.340435 140.741C0.340435 138.709 1.98797 137.061 4.02032 137.061C6.05266 137.061 7.7002 138.709 7.7002 140.741C7.7002 142.773 6.05266 144.421 4.02031 144.421C1.98797 144.421 0.340435 142.773 0.340435 140.741Z" fill="url(#paint42_linear)"/>
<path d="M0.340435 155.981C0.340435 153.948 1.98797 152.301 4.02032 152.301C6.05266 152.301 7.7002 153.948 7.7002 155.981C7.7002 158.013 6.05266 159.661 4.02031 159.661C1.98797 159.661 0.340435 158.013 0.340435 155.981Z" fill="url(#paint43_linear)"/>
<path d="M0.340435 171.221C0.340435 169.189 1.98797 167.541 4.02032 167.541C6.05266 167.541 7.7002 169.189 7.7002 171.221C7.7002 173.253 6.05266 174.901 4.02031 174.901C1.98797 174.901 0.340435 173.253 0.340435 171.221Z" fill="url(#paint44_linear)"/>
<path d="M0.340435 186.452C0.340435 184.419 1.98797 182.772 4.02032 182.772C6.05266 182.772 7.7002 184.419 7.7002 186.452C7.7002 188.484 6.05266 190.132 4.02031 190.132C1.98797 190.132 0.340435 188.484 0.340435 186.452Z" stroke="url(#paint45_linear)" stroke-miterlimit="10"/>
<path d="M0.340435 125.499C0.340435 127.526 1.98405 129.179 4.02031 129.179C6.05658 129.179 7.7002 127.535 7.7002 125.499C7.7002 123.472 6.05658 121.819 4.02032 121.819C1.98405 121.819 0.340435 123.463 0.340435 125.499Z" fill="url(#paint46_linear)"/>
<defs>
<linearGradient id="paint0_linear" x1="7.7002" y1="49.3539" x2="0.340435" y2="49.3539" gradientUnits="userSpaceOnUse">
<stop stop-color="#FEC830"/>
<stop offset="1" stop-color="#FFBD03"/>
</linearGradient>
<linearGradient id="paint1_linear" x1="7.7002" y1="64.5851" x2="0.340435" y2="64.5851" gradientUnits="userSpaceOnUse">
<stop stop-color="#FEC830"/>
<stop offset="1" stop-color="#FFBD03"/>
</linearGradient>
<linearGradient id="paint2_linear" x1="7.7002" y1="79.8249" x2="0.340435" y2="79.8249" gradientUnits="userSpaceOnUse">
<stop stop-color="#FEC830"/>
<stop offset="1" stop-color="#FFBD03"/>
</linearGradient>
<linearGradient id="paint3_linear" x1="7.7002" y1="95.0651" x2="0.340435" y2="95.0651" gradientUnits="userSpaceOnUse">
<stop stop-color="#FEC830"/>
<stop offset="1" stop-color="#FFBD03"/>
</linearGradient>
<linearGradient id="paint4_linear" x1="7.7002" y1="110.296" x2="0.340435" y2="110.296" gradientUnits="userSpaceOnUse">
<stop stop-color="#FEC830"/>
<stop offset="1" stop-color="#FFBD03"/>
</linearGradient>
<linearGradient id="paint5_linear" x1="104.553" y1="125.512" x2="97.193" y2="125.512" gradientUnits="userSpaceOnUse">
<stop stop-color="#FEC830"/>
<stop offset="1" stop-color="#FFBD03"/>
</linearGradient>
<linearGradient id="paint6_linear" x1="65.1152" y1="125.512" x2="57.7554" y2="125.512" gradientUnits="userSpaceOnUse">
<stop stop-color="#FEC830"/>
<stop offset="1" stop-color="#FFBD03"/>
</linearGradient>
<linearGradient id="paint7_linear" x1="45.3916" y1="125.512" x2="38.0318" y2="125.512" gradientUnits="userSpaceOnUse">
<stop stop-color="#FEC830"/>
<stop offset="1" stop-color="#FFBD03"/>
</linearGradient>
<linearGradient id="paint8_linear" x1="124.276" y1="140.743" x2="116.917" y2="140.743" gradientUnits="userSpaceOnUse">
<stop stop-color="#FEC830"/>
<stop offset="1" stop-color="#FFBD03"/>
</linearGradient>
<linearGradient id="paint9_linear" x1="104.553" y1="140.743" x2="97.193" y2="140.743" gradientUnits="userSpaceOnUse">
<stop stop-color="#FEC830"/>
<stop offset="1" stop-color="#FFBD03"/>
</linearGradient>
<linearGradient id="paint10_linear" x1="84.8301" y1="140.743" x2="77.4703" y2="140.743" gradientUnits="userSpaceOnUse">
<stop stop-color="#FEC830"/>
<stop offset="1" stop-color="#FFBD03"/>
</linearGradient>
<linearGradient id="paint11_linear" x1="65.1152" y1="140.743" x2="57.7554" y2="140.743" gradientUnits="userSpaceOnUse">
<stop stop-color="#FEC830"/>
<stop offset="1" stop-color="#FFBD03"/>
</linearGradient>
<linearGradient id="paint12_linear" x1="45.3828" y1="140.743" x2="38.0231" y2="140.743" gradientUnits="userSpaceOnUse">
<stop stop-color="#FEC830"/>
<stop offset="1" stop-color="#FFBD03"/>
</linearGradient>
<linearGradient id="paint13_linear" x1="25.6592" y1="140.743" x2="18.2994" y2="140.743" gradientUnits="userSpaceOnUse">
<stop stop-color="#FEC830"/>
<stop offset="1" stop-color="#FFBD03"/>
</linearGradient>
<linearGradient id="paint14_linear" x1="144" y1="155.983" x2="136.64" y2="155.983" gradientUnits="userSpaceOnUse">
<stop stop-color="#FEC830"/>
<stop offset="1" stop-color="#FFBD03"/>
</linearGradient>
<linearGradient id="paint15_linear" x1="124.276" y1="155.983" x2="116.917" y2="155.983" gradientUnits="userSpaceOnUse">
<stop stop-color="#FEC830"/>
<stop offset="1" stop-color="#FFBD03"/>
</linearGradient>
<linearGradient id="paint16_linear" x1="104.553" y1="155.983" x2="97.193" y2="155.983" gradientUnits="userSpaceOnUse">
<stop stop-color="#FEC830"/>
<stop offset="1" stop-color="#FFBD03"/>
</linearGradient>
<linearGradient id="paint17_linear" x1="84.8301" y1="155.983" x2="77.4703" y2="155.983" gradientUnits="userSpaceOnUse">
<stop stop-color="#FEC830"/>
<stop offset="1" stop-color="#FFBD03"/>
</linearGradient>
<linearGradient id="paint18_linear" x1="45.3828" y1="155.983" x2="38.0231" y2="155.983" gradientUnits="userSpaceOnUse">
<stop stop-color="#FEC830"/>
<stop offset="1" stop-color="#FFBD03"/>
</linearGradient>
<linearGradient id="paint19_linear" x1="25.6592" y1="155.983" x2="18.2994" y2="155.983" gradientUnits="userSpaceOnUse">
<stop stop-color="#FEC830"/>
<stop offset="1" stop-color="#FFBD03"/>
</linearGradient>
<linearGradient id="paint20_linear" x1="144" y1="171.223" x2="136.64" y2="171.223" gradientUnits="userSpaceOnUse">
<stop stop-color="#FEC830"/>
<stop offset="1" stop-color="#FFBD03"/>
</linearGradient>
<linearGradient id="paint21_linear" x1="104.553" y1="171.223" x2="97.193" y2="171.223" gradientUnits="userSpaceOnUse">
<stop stop-color="#FEC830"/>
<stop offset="1" stop-color="#FFBD03"/>
</linearGradient>
<linearGradient id="paint22_linear" x1="84.8301" y1="171.223" x2="77.4703" y2="171.223" gradientUnits="userSpaceOnUse">
<stop stop-color="#FEC830"/>
<stop offset="1" stop-color="#FFBD03"/>
</linearGradient>
<linearGradient id="paint23_linear" x1="65.1152" y1="171.223" x2="57.7554" y2="171.223" gradientUnits="userSpaceOnUse">
<stop stop-color="#FEC830"/>
<stop offset="1" stop-color="#FFBD03"/>
</linearGradient>
<linearGradient id="paint24_linear" x1="45.3828" y1="171.223" x2="38.0231" y2="171.223" gradientUnits="userSpaceOnUse">
<stop stop-color="#FEC830"/>
<stop offset="1" stop-color="#FFBD03"/>
</linearGradient>
<linearGradient id="paint25_linear" x1="25.6592" y1="171.223" x2="18.2994" y2="171.223" gradientUnits="userSpaceOnUse">
<stop stop-color="#FEC830"/>
<stop offset="1" stop-color="#FFBD03"/>
</linearGradient>
<linearGradient id="paint26_linear" x1="144" y1="186.454" x2="136.64" y2="186.454" gradientUnits="userSpaceOnUse">
<stop stop-color="#FEC830"/>
<stop offset="1" stop-color="#FFBD03"/>
</linearGradient>
<linearGradient id="paint27_linear" x1="124.276" y1="186.454" x2="116.917" y2="186.454" gradientUnits="userSpaceOnUse">
<stop stop-color="#FEC830"/>
<stop offset="1" stop-color="#FFBD03"/>
</linearGradient>
<linearGradient id="paint28_linear" x1="104.553" y1="186.454" x2="97.193" y2="186.454" gradientUnits="userSpaceOnUse">
<stop stop-color="#FEC830"/>
<stop offset="1" stop-color="#FFBD03"/>
</linearGradient>
<linearGradient id="paint29_linear" x1="84.8291" y1="186.454" x2="77.4693" y2="186.454" gradientUnits="userSpaceOnUse">
<stop stop-color="#FEC830"/>
<stop offset="1" stop-color="#FFBD03"/>
</linearGradient>
<linearGradient id="paint30_linear" x1="65.1152" y1="186.454" x2="57.7554" y2="186.454" gradientUnits="userSpaceOnUse">
<stop stop-color="#FEC830"/>
<stop offset="1" stop-color="#FFBD03"/>
</linearGradient>
<linearGradient id="paint31_linear" x1="45.3828" y1="186.454" x2="38.0231" y2="186.454" gradientUnits="userSpaceOnUse">
<stop stop-color="#FEC830"/>
<stop offset="1" stop-color="#FFBD03"/>
</linearGradient>
<linearGradient id="paint32_linear" x1="25.6592" y1="186.454" x2="18.2994" y2="186.454" gradientUnits="userSpaceOnUse">
<stop stop-color="#FEC830"/>
<stop offset="1" stop-color="#FFBD03"/>
</linearGradient>
<linearGradient id="paint33_linear" x1="18.0762" y1="64.5961" x2="25.4359" y2="64.5961" gradientUnits="userSpaceOnUse">
<stop stop-color="#FEC830"/>
<stop offset="1" stop-color="#FFBD03"/>
</linearGradient>
<linearGradient id="paint34_linear" x1="18.0762" y1="79.8359" x2="25.4359" y2="79.8359" gradientUnits="userSpaceOnUse">
<stop stop-color="#FEC830"/>
<stop offset="1" stop-color="#FFBD03"/>
</linearGradient>
<linearGradient id="paint35_linear" x1="37.7998" y1="79.8359" x2="45.1596" y2="79.8359" gradientUnits="userSpaceOnUse">
<stop stop-color="#FEC830"/>
<stop offset="1" stop-color="#FFBD03"/>
</linearGradient>
<linearGradient id="paint36_linear" x1="18.0762" y1="95.0761" x2="25.4359" y2="95.0761" gradientUnits="userSpaceOnUse">
<stop stop-color="#FEC830"/>
<stop offset="1" stop-color="#FFBD03"/>
</linearGradient>
<linearGradient id="paint37_linear" x1="57.5234" y1="95.0761" x2="64.8832" y2="95.0761" gradientUnits="userSpaceOnUse">
<stop stop-color="#FEC830"/>
<stop offset="1" stop-color="#FFBD03"/>
</linearGradient>
<linearGradient id="paint38_linear" x1="18.0762" y1="110.307" x2="25.4359" y2="110.307" gradientUnits="userSpaceOnUse">
<stop stop-color="#FEC830"/>
<stop offset="1" stop-color="#FFBD03"/>
</linearGradient>
<linearGradient id="paint39_linear" x1="37.7998" y1="110.307" x2="45.1596" y2="110.307" gradientUnits="userSpaceOnUse">
<stop stop-color="#FEC830"/>
<stop offset="1" stop-color="#FFBD03"/>
</linearGradient>
<linearGradient id="paint40_linear" x1="57.5234" y1="110.307" x2="64.8832" y2="110.307" gradientUnits="userSpaceOnUse">
<stop stop-color="#FEC830"/>
<stop offset="1" stop-color="#FFBD03"/>
</linearGradient>
<linearGradient id="paint41_linear" x1="77.2471" y1="110.307" x2="84.6068" y2="110.307" gradientUnits="userSpaceOnUse">
<stop stop-color="#FEC830"/>
<stop offset="1" stop-color="#FFBD03"/>
</linearGradient>
<linearGradient id="paint42_linear" x1="7.7002" y1="140.741" x2="0.340435" y2="140.741" gradientUnits="userSpaceOnUse">
<stop stop-color="#FEC830"/>
<stop offset="1" stop-color="#FFBD03"/>
</linearGradient>
<linearGradient id="paint43_linear" x1="7.7002" y1="155.981" x2="0.340435" y2="155.981" gradientUnits="userSpaceOnUse">
<stop stop-color="#FEC830"/>
<stop offset="1" stop-color="#FFBD03"/>
</linearGradient>
<linearGradient id="paint44_linear" x1="7.7002" y1="171.221" x2="0.340435" y2="171.221" gradientUnits="userSpaceOnUse">
<stop stop-color="#FEC830"/>
<stop offset="1" stop-color="#FFBD03"/>
</linearGradient>
<linearGradient id="paint45_linear" x1="7.7002" y1="186.452" x2="0.340435" y2="186.452" gradientUnits="userSpaceOnUse">
<stop stop-color="#FEC830"/>
<stop offset="1" stop-color="#FFBD03"/>
</linearGradient>
<linearGradient id="paint46_linear" x1="7.7002" y1="125.499" x2="0.340435" y2="125.499" gradientUnits="userSpaceOnUse">
<stop stop-color="#FEC830"/>
<stop offset="1" stop-color="#FFBD03"/>
</linearGradient>
</defs>
</svg>
