<svg width="637" height="70" viewBox="0 0 637 70" fill="none" xmlns="http://www.w3.org/2000/svg">
<path d="M0 19.5699C116.31 1.12224 446.051 -1.57742 566.668 0.6723C623.061 1.75216 673.971 11.3809 600.347 17.3202C561.969 20.3798 506.751 22.8095 480.904 23.9794C417.854 26.769 333.265 31.7184 267.474 38.4675C215.78 43.7769 229.487 42.607 281.18 40.3573C323.475 38.4675 372.035 36.3978 404.148 36.2178C413.938 36.1278 422.554 36.3078 429.603 36.7578C451.533 38.1076 453.1 41.7971 436.652 44.4968C400.231 50.616 352.454 53.3157 314.468 58.715C293.32 61.6846 253.375 68.5237 310.551 68.8837C320.733 68.9737 330.915 68.7937 337.965 68.9737V69.8736C331.699 69.6036 230.662 72.4833 284.705 60.6947C317.209 53.5856 364.986 50.436 403.756 45.3967C425.686 42.517 437.043 41.1672 404.931 41.3472C374.776 41.5272 327.391 43.5969 285.88 45.3967C237.319 47.4664 196.591 49.2662 189.542 46.2966C174.269 39.8174 307.027 29.3787 333.265 27.4889C383.392 23.7994 433.519 20.9198 481.688 18.76C501.268 17.8601 539.647 15.9704 570.976 14.4406C607.396 12.7308 622.278 10.931 566.277 9.85115C451.533 7.69143 137.849 11.6509 26.6299 29.2887L0 19.5699Z" fill="white"/>
</svg>
