<svg width="114" height="185" viewBox="0 0 114 185" fill="none" xmlns="http://www.w3.org/2000/svg">
<path fill-rule="evenodd" clip-rule="evenodd" d="M5.36439 54.0984C8.70015 64.6468 15.9409 52.554 20.1067 50.5567C31.0172 41.0149 41.2154 31.4229 51.4136 21.8309C54.813 18.6335 61.7739 15.6878 59.2586 7.48908C58.3841 3.98973 55.4808 2.63876 53.452 4.78711C39.1421 17.5262 25.5986 31.4652 11.2346 43.0547C8.49347 45.1527 3.61543 47.0997 5.36439 54.0984Z" fill="white"/>
<path fill-rule="evenodd" clip-rule="evenodd" d="M30.4849 103.149C46.8083 103.035 63.9039 104.243 80.9396 104.18C87.3504 104.633 94.4734 105.136 100.824 104.318C103.674 104.519 107.235 104.771 109.965 102.429C111.923 98.7664 110.912 92.3594 108.715 90.9371C106.518 89.5148 104.501 91.9064 102.304 90.4841C78.2048 91.3154 54.6388 88.3832 30.5397 89.2145C24.901 90.0832 25.4987 102.796 30.4849 103.149Z" fill="white"/>
<path fill-rule="evenodd" clip-rule="evenodd" d="M30.483 150.446C42.2923 160.02 54.0427 168.342 66.5055 176.714C70.8382 178.269 82.8243 191.602 82.8887 177.872C82.712 174.114 81.1106 170.255 78.9737 170.104C75.3532 168.599 71.6739 165.842 67.9945 163.085C56.2441 154.763 44.4936 146.441 32.6843 136.867C28.2926 134.059 25.3201 146.335 30.483 150.446Z" fill="white"/>
</svg>
