<svg width="38" height="71" viewBox="0 0 38 71" fill="none" xmlns="http://www.w3.org/2000/svg">
<path fill-rule="evenodd" clip-rule="evenodd" d="M1.62358 18.5568C2.78999 22.1118 5.1574 17.9838 6.54274 17.2879C10.1508 14.006 13.5201 10.7105 16.8895 7.41499C18.0126 6.31649 20.3293 5.28624 19.4486 2.52281C19.1394 1.34239 18.161 0.898864 17.4918 1.63575C12.7607 6.01611 8.29172 10.799 3.53706 14.7905C2.62917 15.5137 1.00512 16.196 1.62358 18.5568Z" fill="white"/>
<path fill-rule="evenodd" clip-rule="evenodd" d="M10.2642 43.0418C15.7288 42.9257 21.4582 43.2534 27.1616 43.151C29.3101 43.2739 31.6973 43.4104 33.8198 43.1032C34.7747 43.1578 35.9683 43.2261 36.8712 42.4206C37.5094 41.1713 37.1408 39.0073 36.3986 38.5362C35.6565 38.0652 34.9923 38.8844 34.2501 38.4133C26.1855 38.8093 18.2816 37.9286 10.217 38.3246C8.33324 38.6454 8.59311 42.9462 10.2642 43.0418Z" fill="white"/>
<path fill-rule="evenodd" clip-rule="evenodd" d="M10.4869 59.0513C14.4856 62.2366 18.4586 64.998 22.6704 67.7732C24.1283 68.279 28.2037 72.7356 28.161 68.0875C28.0843 66.8161 27.5301 65.5174 26.8139 65.4764C25.5947 64.9843 24.3499 64.0683 23.1052 63.1524C19.1321 60.3909 15.159 57.6295 11.1604 54.4442C9.67687 53.5146 8.73911 57.6843 10.4869 59.0513Z" fill="white"/>
</svg>
