<svg width="45" height="75" viewBox="0 0 45 75" fill="none" xmlns="http://www.w3.org/2000/svg">
<path fill-rule="evenodd" clip-rule="evenodd" d="M43.5531 22.137C42.1345 26.4373 39.2552 21.4438 37.5703 20.6019C33.1821 16.6319 29.0842 12.6454 24.9864 8.65892C23.6204 7.33008 20.8028 6.08381 21.8739 2.74094C22.25 1.313 23.4399 0.776474 24.2538 1.66787C30.0079 6.96672 35.4431 12.7525 41.2259 17.5809C42.3301 18.4558 44.3053 19.2811 43.5531 22.137Z" fill="white"/>
<path fill-rule="evenodd" clip-rule="evenodd" d="M33.0437 42.0713C26.3974 41.9322 19.4293 42.33 12.4927 42.2075C9.87968 42.3566 6.97635 42.5223 4.39482 42.1512C3.23347 42.2175 1.78177 42.3004 0.683422 41.3262C-0.093091 39.8151 0.354718 37.1972 1.25723 36.6272C2.15974 36.0572 2.96778 37.048 3.87029 36.4781C13.6788 36.9551 23.2914 35.8879 33.0998 36.365C35.391 36.7527 35.076 41.9553 33.0437 42.0713Z" fill="white"/>
<path fill-rule="evenodd" clip-rule="evenodd" d="M32.7735 61.4456C27.9102 65.2986 23.0779 68.6389 17.9554 71.9958C16.1822 72.6076 11.2254 77.9985 11.2775 72.3758C11.3709 70.8378 12.045 69.2668 12.916 69.2172C14.3989 68.622 15.9128 67.514 17.4268 66.4061C22.259 63.0657 27.0913 59.7254 31.9547 55.8724C33.759 54.748 34.8993 59.7919 32.7735 61.4456Z" fill="white"/>
</svg>
