<svg width="597" height="72" viewBox="0 0 597 72" fill="none" xmlns="http://www.w3.org/2000/svg">
<path d="M0 20.1291C109.006 1.15431 418.041 -1.62249 531.085 0.691508C583.936 1.80223 631.649 11.7061 562.649 17.8151C526.68 20.9621 474.93 23.4612 450.706 24.6645C391.615 27.5338 312.338 32.6246 250.678 39.5666C202.231 45.0276 215.076 43.8244 263.524 41.5104C303.162 39.5666 348.673 37.4377 378.769 37.2526C387.945 37.16 396.02 37.3452 402.626 37.808C423.179 39.1964 424.647 42.9913 409.232 45.7681C375.099 52.0622 330.322 54.839 294.721 60.3925C274.901 63.447 237.465 70.4815 291.05 70.8518C300.593 70.9443 310.136 70.7592 316.742 70.9444V71.8699C310.87 71.5923 216.178 74.5542 266.827 62.4289C297.29 55.1166 342.067 51.8771 378.402 46.6937C398.956 43.7318 409.599 42.3434 379.503 42.5285C351.243 42.7136 306.833 44.8425 267.928 46.6937C222.417 48.8226 184.246 50.6738 177.64 47.6193C163.326 40.955 287.747 30.2181 312.338 28.2743C359.317 24.4794 406.296 21.5175 451.44 19.296C469.791 18.3704 505.76 16.4267 535.122 14.8531C569.255 13.0945 583.202 11.2433 530.718 10.1326C423.179 7.91118 129.193 11.9838 24.9577 30.1255L0 20.1291Z" fill="white"/>
</svg>
