<svg viewBox="0 0 1600 565" fill="none" xmlns="http://www.w3.org/2000/svg">
  <path fill-rule="evenodd" clip-rule="evenodd" d="M1600 468.864V123.5c-26.09-18.576-56.73-29.275-89.5-29.275-95.27 0-172.5 90.419-172.5 201.957s77.23 201.957 172.5 201.957c32.77 0 63.41-10.698 89.5-29.275Z" fill="#C4E0F5"/>
  <path d="m1458.42 96.572 1.73-.154 2.35-1.227 1.93-2.502 1.05-3.441-.52-3.215-1.65-2.343-2.19-.862-1.43.485-.72-1.606-2.39-3.264-2.93-2.524-2.62-1.397-3.24-.877-3.35-.1-1.87.633-1.6 1.466-1.06 2.147-.54 3.145.25 4.232 1.25 3.712.72 2.16 1.55 2.621 1.92 1.88.52.257-.83.28-2.15.727-.58 1.37.3 1.626.66 1.995 1.22 1.623 1.48 1.104 1.99.253 1.14-.078 1.67-1.243 1.15-1.132-.13-2.236-1.68-3.158 1.65.145 2.65-.896 1.48-.873 1.52.846 1.3.42Z" fill="#C4E0F5"/>
  <path d="M1449.05 105.053a4.634 4.634 0 0 0 1.97-1.285c.8-.898 1.14-2.044.97-3.226-.24-1.59-1.02-2.895-2.26-3.774a.437.437 0 1 0-.5.716c1.05.749 1.69 1.821 1.89 3.188.14.919-.13 1.811-.75 2.511-.74.824-1.87 1.29-3.02 1.246-1.34-.051-2.75-1.026-3.79-2.609-.96-1.47-1.35-3.108-.98-4.078.29-.748 1.62-1.292 3.16-1.294.24 0 .44-.197.44-.439a.44.44 0 0 0-.44-.438c-1.95.002-3.54.748-3.97 1.854-.48 1.24-.06 3.154 1.06 4.877 1.19 1.818 2.87 2.942 4.49 3.004.59.022 1.18-.067 1.73-.253Z" fill="#C4E0F5"/>
  <path d="M1456.72 105.219a.437.437 0 0 0 .05-.808l-7.32-3.65a.43.43 0 0 0-.58.198.44.44 0 0 0 .19.588l7.32 3.65c.11.053.23.058.34.022ZM1452.97 97.053c1.02-.344 2.01-.861 2.94-1.55.2-.143.24-.417.09-.612a.434.434 0 0 0-.61-.094c-3.04 2.244-6.61 2.528-9.56.757-3.38-2.032-6.1-8.273-6.07-13.914.03-3.395 1.07-5.866 2.94-6.957 1.86-1.077 4.63-1.035 7.61.116 4.28 1.648 7.81 5.091 8.99 8.772.08.23.32.357.55.282l.01-.002a.444.444 0 0 0 .27-.55c-1.26-3.923-4.99-7.582-9.5-9.32-3.24-1.247-6.28-1.267-8.36-.057-2.15 1.253-3.35 3.991-3.38 7.71-.02 2.734.63 5.844 1.77 8.53 1.21 2.862 2.89 5.043 4.72 6.143 2.3 1.38 5.02 1.614 7.59.746Z" fill="#C4E0F5"/>
  <path d="M1460.52 96.901c1.03-.35 1.97-1.04 2.8-2.055 2.13-2.608 2.95-5.676 2.24-8.42-.46-1.794-1.52-3.183-2.84-3.715-.73-.291-1.56-.282-2.46.025-2.46.832-5.2 3.84-6.1 6.706-.73 2.285-.19 4.678 1.4 6.245 1.37 1.348 3.22 1.802 4.96 1.214Zm.01-13.334c.71-.24 1.34-.253 1.86-.042 1.05.422 1.94 1.618 2.33 3.12.63 2.47-.13 5.256-2.08 7.645-.72.885-1.53 1.484-2.4 1.78-1.42.48-2.94.103-4.07-1.01-1.35-1.333-1.8-3.384-1.18-5.353.81-2.587 3.35-5.399 5.54-6.14ZM1454.41 110.438l.47-.158a.731.731 0 0 0 .46-.925.727.727 0 0 0-.92-.46l-.47.158a.732.732 0 0 0-.46.926c.13.382.54.588.92.459ZM1458.05 109.206a.732.732 0 0 0 .46-.925l-6.24-18.613a.726.726 0 0 0-.92-.46.74.74 0 0 0-.46.927l6.24 18.612c.13.382.54.588.92.459Z" fill="#C4E0F5"/>
  <path d="M1455.64 102.005a.41.41 0 0 0 .25-.22l3.81-7.71a.435.435 0 0 0-.2-.588.43.43 0 0 0-.58.198l-3.81 7.71c-.11.217-.02.48.2.588.11.053.22.058.33.022Z" fill="#C4E0F5"/>
  <ellipse rx="104.02" ry="140.64" transform="matrix(-.97963 .20081 .19899 .98 1311.11 208.146)" fill="#C4E0F5"/>
  <ellipse rx="104.02" ry="140.64" transform="matrix(-.97963 .20081 .19899 .98 355.113 174.988)" fill="#C4E0F5"/>
  <path d="m344.518 28.44 1.641.568 2.645-.159 2.772-1.497 2.36-2.71.824-3.152-.553-2.813-1.652-1.684-1.506-.144-.009-1.762-.853-3.957-1.656-3.505-1.824-2.347-2.604-2.127-3.018-1.463-1.969-.187-2.052.685-1.839 1.527-1.77 2.65-1.486 3.969-.368 3.899-.214 2.27.356 3.028.991 2.502.367.446-.869-.082-2.259-.216-1.089 1.012-.386 1.607-.197 2.095.455 1.982.9 1.612 1.713 1.044 1.073.396 2.03-.452 1.514-.56.782-2.098-.247-3.57 1.443.806 2.781.266 1.712-.19 1.038 1.392 1.023.92Z" fill="#C4E0F5"/>
  <path d="M332.52 32.351a4.594 4.594 0 0 0 2.317-.37 3.889 3.889 0 0 0 2.193-2.548c.43-1.548.247-3.06-.529-4.37a.435.435 0 0 0-.598-.153.44.44 0 0 0-.152.6c.66 1.116.808 2.357.439 3.688a3.032 3.032 0 0 1-1.709 1.984c-1.006.452-2.224.416-3.259-.096-1.201-.594-2.099-2.064-2.402-3.933-.282-1.736.023-3.393.758-4.125.566-.566 2-.52 3.409.11a.439.439 0 0 0 .354-.801c-1.78-.796-3.539-.768-4.378.068-.94.936-1.335 2.856-1.004 4.89.348 2.147 1.424 3.859 2.877 4.578a4.848 4.848 0 0 0 1.684.478Z" fill="#C4E0F5"/>
  <path d="M339.456 35.64a.44.44 0 0 0 .377-.716l-5.207-6.328a.435.435 0 0 0-.614-.059.44.44 0 0 0-.058.617l5.207 6.33a.433.433 0 0 0 .295.157ZM339.341 26.648c1.069.102 2.185.036 3.316-.21a.438.438 0 0 0-.185-.857c-3.689.804-7.07-.4-9.043-3.223-2.266-3.24-2.22-10.054.101-15.19 1.398-3.092 3.353-4.92 5.506-5.15 2.127-.227 4.643.947 6.902 3.22 3.236 3.254 5.062 7.842 4.652 11.689a.438.438 0 0 0 .393.483c.237.022.45-.151.475-.39.437-4.1-1.488-8.968-4.902-12.402-2.447-2.461-5.222-3.727-7.612-3.472-2.473.263-4.678 2.273-6.208 5.66-1.126 2.49-1.798 5.592-1.845 8.514-.05 3.11.598 5.789 1.824 7.542 1.539 2.201 3.93 3.529 6.626 3.786Z" fill="#C4E0F5"/>
  <path d="M346.296 29.598c1.085.104 2.227-.142 3.394-.73 3-1.51 4.991-3.978 5.462-6.771.308-1.827-.101-3.53-1.094-4.558-.543-.562-1.303-.893-2.258-.984-2.582-.247-6.301 1.38-8.288 3.628-1.586 1.792-2.065 4.197-1.25 6.277.701 1.791 2.209 2.964 4.034 3.138Zm5.422-12.17c.743.07 1.32.313 1.714.722.788.815 1.117 2.271.86 3.8-.424 2.515-2.244 4.75-4.993 6.134-1.018.513-2.001.729-2.92.641-1.491-.142-2.727-1.109-3.305-2.586-.693-1.77-.276-3.83 1.09-5.373 1.795-2.03 5.254-3.558 7.554-3.338ZM335.236 39.464l.49.047c.4.038.755-.257.793-.659a.73.73 0 0 0-.655-.796l-.49-.047a.728.728 0 0 0-.793.659.73.73 0 0 0 .655.796ZM339.06 39.829c.4.038.755-.257.793-.658l1.847-19.552a.73.73 0 0 0-.655-.796.728.728 0 0 0-.793.658l-1.847 19.551a.73.73 0 0 0 .655.797Z" fill="#C4E0F5"/>
  <path d="M339.775 32.264a.434.434 0 0 0 .319-.098l6.603-5.484a.441.441 0 0 0 .058-.617.435.435 0 0 0-.614-.059l-6.603 5.484a.44.44 0 0 0 .237.774Z" fill="#C4E0F5"/>
  <path fill-rule="evenodd" clip-rule="evenodd" d="M0 123.59v238.736c40.478 32.906 97.906 47.864 156.796 35.793 98.419-20.175 163.65-108.208 145.696-196.628C284.539 113.07 190.2 57.746 91.78 77.921 56 85.256 24.605 101.56 0 123.59Z" fill="#C4E0F5"/>
  <path d="M108 56.463c-1.667 2.68-5.5 9.847-7.5 17.08-2 7.235-.833 6.364 0 5.025M114 64.43c-2.352 2.097-8.043 7.885-11.995 14.258-3.951 6.373-2.587 5.868-1.411 4.82" stroke="#C4E0F5" stroke-width="2" stroke-linecap="round" stroke-linejoin="round"/>
  <ellipse rx="243.791" ry="140.663" transform="matrix(-.99692 -.07837 -.07763 .99698 1069.04 250.974)" fill="#C4E0F5"/>
  <path d="M1099 92.634c-1.67 2.68-5.5 9.847-7.5 17.081-2 7.235-.83 6.364 0 5.024M1105 100.602c-2.35 2.097-8.04 7.885-11.99 14.258-3.96 6.373-2.59 5.868-1.42 4.819M1513.21 74.031c.57 3.107 1.52 11.189.73 18.655-.79 7.467-1.55 6.226-1.84 4.673M1504.72 79.226c1.42 2.82 4.59 10.304 5.94 17.69 1.34 7.385.26 6.412-.45 5.003" stroke="#C4E0F5" stroke-width="2" stroke-linecap="round" stroke-linejoin="round"/>
  <ellipse rx="243.791" ry="140.663" transform="matrix(-.99692 -.07837 -.07763 .99698 502.039 275.088)" fill="#C4E0F5"/>
  <ellipse rx="88.854" ry="70.887" transform="matrix(-.88355 .46833 .46486 .88538 926.54 153.805)" fill="#C4E0F5"/>
  <ellipse rx="88.854" ry="70.887" transform="matrix(.88355 .46833 -.46486 .88538 644.54 153.805)" fill="#C4E0F5"/>
  <ellipse rx="166.398" ry="133.022" transform="matrix(-.99883 .04836 .0479 .99885 781.54 174.904)" fill="#C4E0F5"/>
  <g filter="url(#filter0_d)">
    <ellipse rx="254.5" ry="130.628" transform="matrix(-1 0 0 1 1269.5 265.445)" fill="#2CBC67"/>
    <path d="M1324 115.744c-1.67 2.68-5.5 9.847-7.5 17.081s-.83 6.364 0 5.024M1330 123.711c-2.35 2.097-8.04 7.886-11.99 14.258-3.96 6.373-2.59 5.869-1.42 4.82" stroke="#2CBC67" stroke-width="2" stroke-linecap="round" stroke-linejoin="round"/>
    <ellipse rx="187.5" ry="72.708" transform="matrix(-1 0 0 1 225.5 256.819)" fill="#2CBC67"/>
    <ellipse rx="216" ry="130.628" transform="matrix(-1 0 0 1 675 238.334)" fill="#2CBC67"/>
    <path d="M701 86.606c-1.667 2.68-5.5 9.847-7.5 17.081s-.833 6.363 0 5.024M707 94.573c-2.352 2.098-8.043 7.886-11.995 14.259-3.951 6.372-2.587 5.868-1.411 4.819M319.179 172.009c.282 3.147.48 11.281-.988 18.643-1.467 7.362-2.117 6.055-2.258 4.482M310.244 176.394c1.155 2.938 3.631 10.685 4.292 18.164.66 7.479-.33 6.41-.907 4.941" stroke="#2CBC67" stroke-width="2" stroke-linecap="round" stroke-linejoin="round"/>
    <ellipse rx="182.5" ry="110.294" transform="matrix(-1 0 0 1 867.5 285.778)" fill="#2CBC67"/>
    <path d="m910.519 170.112 1.641.568 2.645-.159 2.771-1.497 2.36-2.711.824-3.151-.553-2.813-1.652-1.684-1.506-.144-.009-1.762-.853-3.957-1.656-3.505-1.824-2.347-2.604-2.127-3.018-1.463-1.969-.188-2.052.685-1.839 1.528-1.77 2.65-1.485 3.968-.369 3.9-.214 2.269.356 3.029.991 2.502.367.446-.869-.083-2.258-.215-1.09 1.012-.385 1.607-.198 2.095.455 1.981.9 1.613 1.713 1.044 1.073.396 2.03-.452 1.514-.56.783-2.098-.248-3.569 1.444.805 2.78.266 1.713-.189 1.037 1.391 1.024.919Z" fill="#2CBC67"/>
    <path d="M898.52 174.023a4.604 4.604 0 0 0 2.317-.37 3.888 3.888 0 0 0 2.193-2.549c.43-1.548.247-3.059-.529-4.37a.436.436 0 1 0-.75.448c.66 1.116.808 2.356.439 3.687a3.032 3.032 0 0 1-1.709 1.984c-1.006.452-2.224.417-3.259-.095-1.201-.595-2.099-2.065-2.402-3.934-.282-1.735.023-3.393.758-4.125.566-.565 2-.519 3.409.111a.44.44 0 0 0 .354-.802c-1.78-.795-3.539-.768-4.378.068-.94.937-1.335 2.856-1.004 4.89.348 2.147 1.424 3.859 2.877 4.578a4.872 4.872 0 0 0 1.684.479Z" fill="#2CBC67"/>
    <path d="M905.456 177.312a.432.432 0 0 0 .319-.098.441.441 0 0 0 .059-.618l-5.207-6.329a.436.436 0 0 0-.615-.059.441.441 0 0 0-.058.618l5.207 6.329a.434.434 0 0 0 .295.157ZM905.341 168.32c1.069.102 2.186.035 3.317-.211a.439.439 0 0 0-.186-.857c-3.689.805-7.069-.4-9.042-3.223-2.266-3.24-2.221-10.054.101-15.189 1.397-3.092 3.353-4.921 5.505-5.151 2.128-.226 4.643.947 6.903 3.22 3.235 3.254 5.061 7.842 4.652 11.689a.437.437 0 1 0 .868.093c.436-4.1-1.488-8.968-4.903-12.402-2.447-2.461-5.221-3.726-7.611-3.472-2.473.264-4.678 2.274-6.209 5.66-1.125 2.49-1.797 5.593-1.844 8.514-.05 3.11.597 5.789 1.824 7.542 1.539 2.202 3.93 3.529 6.625 3.787Z" fill="#2CBC67"/>
    <path d="M912.296 171.27c1.085.103 2.227-.142 3.394-.73 3-1.511 4.991-3.979 5.462-6.772.308-1.826-.101-3.53-1.094-4.558-.543-.562-1.303-.893-2.258-.984-2.582-.246-6.301 1.381-8.288 3.628-1.586 1.792-2.065 4.198-1.25 6.278.701 1.79 2.209 2.963 4.034 3.138Zm5.422-12.171c.743.071 1.32.314 1.714.722.788.815 1.117 2.272.86 3.801-.424 2.514-2.244 4.75-4.993 6.134-1.018.513-2.001.728-2.92.641-1.491-.143-2.727-1.109-3.305-2.586-.693-1.771-.276-3.83 1.09-5.374 1.795-2.029 5.254-3.558 7.554-3.338ZM901.236 181.135l.49.047c.4.038.755-.256.793-.658a.73.73 0 0 0-.655-.797l-.49-.046a.727.727 0 0 0-.793.658.729.729 0 0 0 .655.796ZM905.06 181.5c.4.039.755-.256.793-.658l1.847-19.552a.73.73 0 0 0-.655-.796.729.729 0 0 0-.793.658l-1.847 19.552a.729.729 0 0 0 .655.796Z" fill="#2CBC67"/>
    <path d="M905.775 173.936a.432.432 0 0 0 .319-.098l6.603-5.484a.439.439 0 0 0 .058-.617.434.434 0 0 0-.614-.059l-6.603 5.484a.439.439 0 0 0 .237.774Z" fill="#2CBC67"/>
  </g>
  <path fill-rule="evenodd" clip-rule="evenodd" d="M1600 466.108V158.122c-65.76-13.284-144.96-7.371-225.79 24.682-192.64-15.143-357.84 88.765-369 232.085-7.175 92.103 57.3 82.51 155.42 67.911 54.56-8.118 119.53-17.785 188.37-12.373 86.36 6.789 176.65 8.63 251-4.319Z" fill="#8ABCE4"/>
  <ellipse rx="182.5" ry="179.852" transform="matrix(-1 0 0 1 1032.5 331.769)" fill="#8ABCE4"/>
  <path fill-rule="evenodd" clip-rule="evenodd" d="M0 158.095v347.349c142.861-20.634 248-90.572 248-173.675 0-83.103-105.139-153.041-248-173.674Z" fill="#8ABCE4"/>
  <ellipse rx="120.5" ry="179.852" transform="matrix(-1 0 0 1 234.5 385.022)" fill="#8ABCE4"/>
  <path d="M215 415.164c0 124.301 167.669 91.434 374.5 91.434S964 539.465 964 415.164c0-124.301-167.669-225.066-374.5-225.066S215 290.863 215 415.164ZM651.971 179.158l2.442.845 3.935-.237 4.124-2.227 3.512-4.034 1.225-4.688-.822-4.185-2.459-2.506-2.24-.214-.013-2.622-1.27-5.888-2.464-5.215-2.713-3.492-3.875-3.165-4.49-2.176-2.93-.279-3.053 1.019-2.736 2.273-2.634 3.942-2.21 5.905-.548 5.802-.319 3.377.53 4.506 1.475 3.723.546.664-1.293-.124-3.361-.32-1.621 1.505-.573 2.392-.295 3.117.678 2.948 1.338 2.399 2.549 1.554 1.597.589 3.02-.673 2.253-.833 1.164-3.122-.368-5.31 2.148 1.199 4.136.394 2.549-.281 1.543 2.07 1.523 1.368Z" fill="#8ABCE4"/>
  <path d="M634.12 184.976a6.84 6.84 0 0 0 3.447-.549c1.63-.733 2.789-2.08 3.263-3.793.639-2.303.367-4.552-.788-6.502a.647.647 0 0 0-.89-.228.655.655 0 0 0-.226.894c.983 1.66 1.203 3.506.653 5.486a4.512 4.512 0 0 1-2.543 2.952c-1.495.673-3.308.62-4.849-.142-1.786-.884-3.122-3.072-3.573-5.852-.419-2.583.034-5.049 1.127-6.139.844-.84 2.977-.771 5.073.165a.648.648 0 0 0 .857-.331.654.654 0 0 0-.33-.861c-2.649-1.183-5.267-1.143-6.514.101-1.399 1.394-1.986 4.249-1.495 7.275.519 3.195 2.12 5.742 4.282 6.812a7.2 7.2 0 0 0 2.506.712Z" fill="#8ABCE4"/>
  <path d="M644.439 189.871a.649.649 0 0 0 .475-.146.656.656 0 0 0 .087-.919l-7.748-9.417a.647.647 0 0 0-.914-.088.656.656 0 0 0-.087.919l7.748 9.417a.645.645 0 0 0 .439.234ZM644.268 176.491c1.591.152 3.252.053 4.935-.314a.652.652 0 0 0-.276-1.275c-5.489 1.197-10.518-.595-13.455-4.795-3.371-4.82-3.303-14.959.151-22.6 2.079-4.601 4.989-7.322 8.192-7.664 3.165-.337 6.907 1.409 10.269 4.791 4.815 4.842 7.532 11.669 6.922 17.392-.038.358.22.68.577.718l.008.001a.65.65 0 0 0 .706-.58c.65-6.1-2.213-13.343-7.294-18.453-3.641-3.662-7.769-5.545-11.325-5.166-3.679.392-6.96 3.383-9.237 8.421-1.675 3.704-2.675 8.322-2.745 12.668-.074 4.628.89 8.614 2.714 11.222 2.29 3.276 5.847 5.251 9.858 5.634Z" fill="#8ABCE4"/>
  <path d="M654.617 180.88c1.613.154 3.313-.211 5.049-1.085 4.464-2.248 7.426-5.92 8.127-10.076.458-2.718-.151-5.253-1.628-6.782-.808-.836-1.938-1.328-3.359-1.464-3.843-.367-9.375 2.055-12.333 5.399-2.358 2.666-3.071 6.245-1.859 9.34 1.043 2.664 3.287 4.409 6.003 4.668Zm8.066-18.108c1.106.105 1.964.467 2.551 1.074 1.172 1.214 1.662 3.38 1.279 5.655-.631 3.741-3.338 7.068-7.428 9.127-1.516.763-2.978 1.084-4.346.953-2.218-.211-4.056-1.65-4.917-3.847-1.031-2.635-.41-5.699 1.622-7.996 2.67-3.018 7.817-5.293 11.239-4.966ZM638.16 195.559l.729.07a1.084 1.084 0 0 0 1.18-.98 1.086 1.086 0 0 0-.975-1.185l-.729-.069a1.083 1.083 0 0 0-1.18.979c-.056.598.38 1.129.975 1.185ZM643.85 196.102a1.083 1.083 0 0 0 1.179-.979l2.749-29.091a1.083 1.083 0 1 0-2.154-.205l-2.749 29.09c-.057.598.38 1.128.975 1.185Z" fill="#8ABCE4"/>
  <path d="M644.914 184.847a.649.649 0 0 0 .475-.146l9.824-8.159a.655.655 0 0 0 .086-.919.648.648 0 0 0-.914-.087l-9.824 8.159a.652.652 0 0 0 .353 1.152ZM1380.91 173.245l1.65.567 2.64-.159 2.77-1.497 2.36-2.711.83-3.151-.56-2.812-1.65-1.685-1.5-.143-.01-1.763-.86-3.957-1.65-3.505-1.83-2.347-2.6-2.127-3.02-1.462-1.97-.188-2.05.685-1.84 1.527-1.77 2.65-1.48 3.969-.37 3.899-.22 2.27.36 3.028.99 2.503.37.446-.87-.083-2.26-.216-1.09 1.012-.39 1.607-.19 2.095.45 1.982.9 1.612 1.72 1.045 1.07.395 2.03-.452 1.51-.56.78-2.098-.24-3.569 1.44.806 2.78.265 1.71-.189 1.04 1.391 1.02.92Z" fill="#8ABCE4"/>
  <path d="M1368.92 177.155c.79.076 1.6-.046 2.31-.369a3.895 3.895 0 0 0 2.2-2.549c.43-1.549.24-3.06-.53-4.371a.438.438 0 1 0-.75.449c.66 1.115.81 2.356.44 3.687a3.048 3.048 0 0 1-1.71 1.983c-1.01.453-2.23.417-3.26-.095-1.2-.594-2.1-2.065-2.4-3.933-.29-1.736.02-3.394.75-4.126.57-.565 2-.518 3.41.111a.44.44 0 0 0 .58-.223c.1-.221 0-.48-.22-.578-1.78-.796-3.54-.768-4.38.068-.94.936-1.34 2.855-1 4.889.34 2.148 1.42 3.859 2.87 4.579.54.263 1.11.423 1.69.478Z" fill="#8ABCE4"/>
  <path d="M1375.85 180.445a.44.44 0 0 0 .38-.716l-5.21-6.329a.43.43 0 0 0-.61-.059.44.44 0 0 0-.06.618l5.21 6.329c.07.093.18.146.29.157ZM1375.74 171.452c1.07.102 2.18.036 3.31-.211a.44.44 0 0 0 .34-.521.44.44 0 0 0-.52-.336c-3.69.805-7.07-.4-9.04-3.222-2.27-3.24-2.22-10.054.1-15.19 1.39-3.092 3.35-4.921 5.5-5.151 2.13-.226 4.65.947 6.9 3.22 3.24 3.254 5.07 7.843 4.66 11.689a.43.43 0 0 0 .38.483h.01c.24.023.45-.151.47-.39.44-4.099-1.48-8.967-4.9-12.402-2.44-2.461-5.22-3.726-7.61-3.472-2.47.264-4.68 2.274-6.21 5.66-1.12 2.49-1.8 5.593-1.84 8.514-.05 3.111.6 5.789 1.82 7.543 1.54 2.201 3.93 3.529 6.63 3.786Z" fill="#8ABCE4"/>
  <path d="M1382.69 174.402c1.09.104 2.23-.142 3.4-.729 3-1.511 4.99-3.979 5.46-6.772.31-1.827-.1-3.531-1.1-4.558-.54-.562-1.3-.893-2.25-.984-2.59-.247-6.3 1.381-8.29 3.628-1.59 1.792-2.07 4.198-1.25 6.278.7 1.79 2.21 2.963 4.03 3.137Zm5.42-12.17c.75.071 1.32.314 1.72.722.79.815 1.12 2.272.86 3.801-.43 2.514-2.25 4.75-4.99 6.134-1.02.512-2.01.728-2.92.64-1.5-.142-2.73-1.109-3.31-2.585-.69-1.771-.28-3.83 1.09-5.374 1.8-2.029 5.25-3.558 7.55-3.338ZM1371.63 184.268l.49.047c.4.038.76-.257.8-.658a.74.74 0 0 0-.66-.797l-.49-.047a.727.727 0 0 0-.79.659c-.04.402.25.758.65.796ZM1375.46 184.633c.4.038.75-.257.79-.659l1.85-19.551a.74.74 0 0 0-.66-.797.727.727 0 0 0-.79.659l-1.85 19.551c-.04.402.26.759.66.797Z" fill="#8ABCE4"/>
  <path d="M1376.17 177.068c.11.011.23-.021.32-.098l6.6-5.484c.19-.154.21-.43.06-.617a.43.43 0 0 0-.61-.059l-6.61 5.484a.438.438 0 0 0-.05.617c.07.094.18.147.29.157ZM36.407 157.381l1.265.438 2.038-.122 2.136-1.154 1.818-2.089.635-2.428-.426-2.167-1.273-1.298-1.16-.111-.007-1.358-.658-3.049-1.276-2.7-1.405-1.809-2.007-1.639-2.325-1.127-1.517-.144-1.581.527-1.417 1.177-1.364 2.042-1.145 3.058-.284 3.005-.165 1.748.275 2.334.763 1.928.283.344-.67-.064-1.74-.166-.839.78-.297 1.238-.153 1.614.351 1.527.694 1.243 1.32.804.826.305 1.564-.348 1.167-.432.603-1.617-.19-2.749 1.112.62 2.142.205 1.32-.146.799 1.072.788.708Z" fill="#8ABCE4"/>
  <path d="M27.163 160.395a3.544 3.544 0 0 0 1.785-.285 2.998 2.998 0 0 0 1.69-1.964c.33-1.193.19-2.357-.408-3.367a.335.335 0 0 0-.46-.118.339.339 0 0 0-.118.463c.509.86.623 1.816.338 2.841a2.336 2.336 0 0 1-1.317 1.529c-.774.348-1.713.321-2.51-.074-.926-.458-1.618-1.59-1.852-3.03-.217-1.338.018-2.615.584-3.179.437-.436 1.542-.4 2.627.085a.336.336 0 0 0 .444-.171.338.338 0 0 0-.17-.446c-1.372-.613-2.728-.592-3.374.052-.725.722-1.029 2.2-.774 3.767.268 1.655 1.097 2.974 2.217 3.528.41.203.852.326 1.298.369Z" fill="#8ABCE4"/>
  <path d="M32.507 162.93a.338.338 0 0 0 .291-.551l-4.013-4.877a.335.335 0 0 0-.473-.045.338.338 0 0 0-.045.475l4.012 4.877c.06.072.142.113.228.121ZM32.418 156.001a8.28 8.28 0 0 0 2.556-.163.337.337 0 0 0-.143-.66c-2.843.62-5.447-.308-6.968-2.483-1.746-2.496-1.71-7.747.078-11.704 1.077-2.382 2.584-3.792 4.243-3.969 1.638-.174 3.577.73 5.318 2.481 2.493 2.508 3.9 6.043 3.584 9.007a.337.337 0 0 0 .299.372h.004a.336.336 0 0 0 .366-.3c.336-3.159-1.146-6.91-3.777-9.556-1.886-1.897-4.024-2.872-5.865-2.675-1.906.203-3.605 1.751-4.784 4.361-.867 1.918-1.385 4.309-1.421 6.56-.039 2.397.46 4.461 1.405 5.812 1.186 1.696 3.028 2.719 5.105 2.917Z" fill="#8ABCE4"/>
  <path d="M37.778 158.274c.835.08 1.715-.109 2.614-.562 2.312-1.164 3.846-3.066 4.21-5.218.236-1.407-.079-2.72-.844-3.512-.418-.433-1.004-.688-1.74-.758-1.99-.19-4.855 1.064-6.386 2.795-1.222 1.381-1.59 3.235-.963 4.837.54 1.38 1.702 2.284 3.109 2.418Zm4.177-9.378c.572.055 1.017.242 1.32.557.608.628.862 1.75.663 2.928-.326 1.938-1.729 3.66-3.847 4.727-.785.395-1.542.561-2.25.493-1.149-.109-2.1-.854-2.546-1.992-.535-1.365-.213-2.951.84-4.141 1.382-1.563 4.048-2.741 5.82-2.572ZM29.255 165.876l.378.036a.562.562 0 0 0 .61-.508.562.562 0 0 0-.504-.613l-.378-.036a.563.563 0 0 0-.106 1.121ZM32.202 166.157a.562.562 0 0 0 .61-.508l1.424-15.065a.56.56 0 1 0-1.116-.106l-1.423 15.065c-.03.31.197.584.505.614Z" fill="#8ABCE4"/>
  <path d="M32.752 160.328a.333.333 0 0 0 .246-.076l5.088-4.225a.338.338 0 0 0 .045-.475.336.336 0 0 0-.474-.046l-5.087 4.226a.338.338 0 0 0 .182.596Z" fill="#8ABCE4"/>
  <path d="M525.279 175.026c1.667 2.68 5.5 9.847 7.5 17.081 2 7.235.834 6.364 0 5.024M519.279 182.993c2.352 2.098 8.043 7.886 11.995 14.259 3.951 6.372 2.587 5.868 1.412 4.819M130.279 180.05c1.667 2.68 5.5 9.847 7.5 17.081 2 7.235.833 6.364 0 5.024M124.279 188.018c2.352 2.097 8.043 7.885 11.995 14.258 3.951 6.373 2.587 5.868 1.411 4.819M1530.28 173.017c1.67 2.679 5.5 9.846 7.5 17.081 2 7.234.83 6.363 0 5.023M1524.28 180.983c2.35 2.098 8.04 7.886 11.99 14.259 3.96 6.372 2.59 5.868 1.42 4.819" stroke="#8ABCE4" stroke-width="2" stroke-linecap="round" stroke-linejoin="round"/>
  <path fill="#8ABCE4" d="M1600 315H0v250h1600z"/>
  <defs>
    <filter id="filter0_d" x="18" y="79.606" width="1506" height="330.467" filterUnits="userSpaceOnUse" color-interpolation-filters="sRGB">
      <feFlood flood-opacity="0" result="BackgroundImageFix"/>
      <feColorMatrix in="SourceAlpha" values="0 0 0 0 0 0 0 0 0 0 0 0 0 0 0 0 0 0 127 0" result="hardAlpha"/>
      <feOffset dx="-10" dy="4"/>
      <feGaussianBlur stdDeviation="5"/>
      <feComposite in2="hardAlpha" operator="out"/>
      <feColorMatrix values="0 0 0 0 0.0883333 0 0 0 0 0.441667 0 0 0 0 0.233102 0 0 0 0.2 0"/>
      <feBlend in2="BackgroundImageFix" result="effect1_dropShadow"/>
      <feBlend in="SourceGraphic" in2="effect1_dropShadow" result="shape"/>
    </filter>
  </defs>
</svg>
