<svg width="320" height="334" viewBox="0 0 320 334" fill="none" xmlns="http://www.w3.org/2000/svg">
<path d="M320 28.6918C287.321 14.7156 245.859 7 201.5 7C161.68 7 124.806 14.8973 94.6564 28.3265C94.6494 28.2829 94.6419 28.2382 94.6338 28.1923C94.5294 27.5937 94.3336 26.7569 94.0156 25.6119C92.7345 20.9999 90.2865 16.4459 89.2169 14.7345C89.0705 14.5003 88.762 14.4292 88.5279 14.5755C88.2937 14.7219 88.2225 15.0303 88.3689 15.2645C89.4063 16.9245 91.8047 21.3889 93.0521 25.8796C93.3662 27.0103 93.5523 27.8117 93.6487 28.3642L93.6587 28.4223C93.5306 28.3893 93.3898 28.4068 93.2688 28.4824C93.1544 28.5539 93.0789 28.6642 93.0487 28.7855L93.0066 28.7179C90.4754 24.6552 86.8413 20.9776 85.332 19.6379C85.1255 19.4546 84.8094 19.4734 84.6261 19.6799C84.4428 19.8864 84.4616 20.2024 84.6681 20.3857C86.1321 21.6853 89.6933 25.2909 92.1579 29.2467C92.1927 29.3026 92.2269 29.3577 92.2604 29.4119C46.6177 50.4379 17 84.3037 17 122.5C17 186.289 99.6035 238 201.5 238C245.859 238 287.321 226.115 320 207.43V28.6918Z" fill="#2CBC67"/>
<path d="M0 28.8504V248.15C10.2894 251.304 21.2001 253 32.5 253C94.632 253 145 201.737 145 138.5C145 75.2634 94.632 24 32.5 24C21.2001 24 10.2894 25.6956 0 28.8504Z" fill="#2CBC67"/>
<path d="M320 59.3727C310.469 46.3229 297.901 36.8108 282.178 32.7426C227.23 18.5253 168.877 60.3691 151.843 126.203C134.809 192.038 165.545 256.932 220.493 271.15C262.384 281.989 297.926 269.434 320 233.684V59.3727Z" fill="white"/>
<path d="M61 334C159.307 334 239 270.648 239 192.5C239 114.352 159.307 51 61 51C39.5714 51 19.0272 54.0101 0 59.5274V325.473C19.0272 330.99 39.5714 334 61 334Z" fill="white"/>
<path d="M320 75.2485V310.334C293.576 318.331 261.311 322 224.5 322C118.737 322 33 260.215 33 184C33 107.785 118.737 46 224.5 46C261.311 46 293.576 57.3005 320 75.2485Z" fill="#8ABCE4"/>
<path d="M39.5 322C105.498 322 159 265.14 159 195C159 124.86 105.498 68 39.5 68C25.6575 68 12.3647 70.5013 0 75.1019V314.898C12.3647 319.499 25.6575 322 39.5 322Z" fill="#8ABCE4"/>
<rect y="85" width="320" height="249" fill="#8ABCE4"/>
<path d="M18.7081 23.5089L18.1523 23.8527L17.168 24.0145L16.0265 23.6976L14.9356 22.9029L14.3726 21.8197L14.3428 20.7459L14.8104 19.993L15.3515 19.8154L15.2089 19.1705L15.1951 17.6535L15.5132 16.2349L15.9889 15.2257L16.7692 14.2318L17.7564 13.4466L18.464 13.2143L19.2741 13.2942L20.0758 13.6996L20.9449 14.521L21.8185 15.848L22.5427 18.0541L22.6622 19.1906L22.5053 20.1874L22.4075 20.3809L23.5313 20.012L24.0149 20.2913L24.2895 20.8467L24.5354 21.5959L24.5319 22.3578L24.335 23.0219L23.7923 23.5459L23.431 23.7798L22.6483 23.7831L22.046 23.7042L21.5851 23.0025L21.3807 21.6776L20.9173 22.092L19.9183 22.4199L19.2738 22.4932L19.0078 23.0877L18.7081 23.5089Z" fill="#2CBC67"/>
<path d="M23.4371 23.941C23.1514 24.0348 22.8461 24.057 22.5558 23.9986C22.1128 23.9095 21.752 23.6435 21.5397 23.2493C21.2539 22.7191 21.1962 22.1516 21.3727 21.608C21.4007 21.5217 21.4934 21.4745 21.5797 21.5026C21.666 21.5306 21.7132 21.6232 21.6852 21.7096C21.5349 22.1722 21.5833 22.6378 21.8289 23.0935C21.994 23.4 22.2752 23.6071 22.6205 23.6765C23.0271 23.7582 23.4716 23.644 23.8094 23.3708C24.2011 23.0539 24.4093 22.442 24.3661 21.7338C24.326 21.0761 24.0771 20.4955 23.7467 20.289C23.4918 20.1295 22.9692 20.2657 22.5039 20.6127C22.4312 20.667 22.3283 20.652 22.274 20.5793C22.2198 20.5066 22.2348 20.4036 22.3075 20.3494C22.8955 19.9107 23.5438 19.7745 23.9209 20.0104C24.3436 20.2745 24.6471 20.9432 24.6941 21.7138C24.7437 22.5277 24.4902 23.2427 24.016 23.6263C23.8422 23.7667 23.6448 23.8728 23.4371 23.941Z" fill="#2CBC67"/>
<path d="M21.1625 25.7197C21.1226 25.7328 21.0776 25.7307 21.0371 25.7102C20.9561 25.6693 20.9237 25.5704 20.9646 25.4895L22.3532 22.7436C22.3942 22.6627 22.493 22.6302 22.574 22.6711C22.6549 22.7121 22.6874 22.8109 22.6464 22.8919L21.2579 25.6378C21.2373 25.6782 21.2024 25.7066 21.1625 25.7197Z" fill="#2CBC67"/>
<path d="M20.4609 22.4235C20.0768 22.5497 19.6614 22.6182 19.2257 22.622C19.135 22.6228 19.0608 22.5499 19.06 22.4592C19.0592 22.3685 19.1322 22.2943 19.2228 22.2935C20.644 22.281 21.7858 21.5599 22.277 20.3644C22.841 18.992 22.2608 16.5055 20.9837 14.8214C20.2148 13.8076 19.3455 13.3015 18.536 13.3965C17.7362 13.4905 16.9095 14.1284 16.2677 15.1467C15.3487 16.6049 15.0575 18.4335 15.5261 19.8053C15.5554 19.8911 15.5096 19.9845 15.4237 20.0138C15.4231 20.014 15.4224 20.0142 15.4218 20.0145C15.3365 20.0425 15.2443 19.9967 15.2151 19.9115C14.7158 18.4494 15.0198 16.5104 15.9897 14.9715C16.6847 13.8688 17.5989 13.1758 18.4976 13.0702C19.4274 12.961 20.4033 13.5125 21.2454 14.6229C21.8645 15.4392 22.368 16.5175 22.6268 17.5812C22.9024 18.7138 22.8861 19.7466 22.5809 20.4893C22.1978 21.4217 21.4295 22.1055 20.4609 22.4235Z" fill="#2CBC67"/>
<path d="M18.1509 24.0797C17.7611 24.2076 17.3215 24.2128 16.8443 24.0949C15.6177 23.7922 14.6825 23.0556 14.2786 22.074C14.0145 21.432 14.0238 20.7753 14.3034 20.3173C14.4564 20.0667 14.7079 19.8826 15.0511 19.77C15.9791 19.4653 17.4791 19.7512 18.3948 20.4073C19.1251 20.9306 19.4999 21.7698 19.3729 22.5976C19.2636 23.3103 18.8067 23.8644 18.1509 24.0797ZM15.1535 20.0822C14.8866 20.1698 14.6949 20.3065 14.5838 20.4885C14.3619 20.852 14.3614 21.4116 14.5824 21.949C14.946 22.8327 15.7991 23.4986 16.9229 23.776C17.3394 23.8787 17.7181 23.8759 18.0484 23.7675C18.5842 23.5916 18.9579 23.1356 19.0481 22.5478C19.1562 21.843 18.8326 21.1252 18.2034 20.6744C17.3767 20.0821 15.98 19.8109 15.1535 20.0822Z" fill="#2CBC67"/>
<path d="M23.0282 26.7663L22.8521 26.8241C22.7085 26.8713 22.5538 26.793 22.5066 26.6493C22.4594 26.5057 22.5377 26.351 22.6813 26.3038L22.8574 26.246C23.0011 26.1988 23.1558 26.2771 23.2029 26.4208C23.2501 26.5644 23.1719 26.7191 23.0282 26.7663Z" fill="#2CBC67"/>
<path d="M21.6542 27.2173C21.5105 27.2645 21.3558 27.1863 21.3086 27.0426L19.0133 20.0506C18.9662 19.907 19.0444 19.7523 19.1881 19.7051C19.3318 19.6579 19.4865 19.7362 19.5336 19.8798L21.8289 26.8718C21.8761 27.0155 21.7978 27.1702 21.6542 27.2173Z" fill="#2CBC67"/>
<path d="M20.7661 24.5122C20.7262 24.5253 20.6813 24.5232 20.6407 24.5027L17.7627 23.0473C17.6818 23.0063 17.6493 22.9075 17.6902 22.8265C17.7312 22.7455 17.83 22.7131 17.911 22.754L20.789 24.2095C20.87 24.2504 20.9024 24.3492 20.8615 24.4302C20.841 24.4707 20.8061 24.4991 20.7661 24.5122Z" fill="#2CBC67"/>
<path d="M295.395 14.8699L294.504 14.6835L293.355 13.902L292.507 12.4864L292.168 10.6372L292.64 9.0033L293.64 7.89078L294.835 7.57952L295.552 7.9196L296.027 7.13183L297.469 5.58711L299.152 4.46052L300.601 3.89835L302.342 3.64404L304.093 3.79901L305.03 4.24373L305.771 5.10194L306.191 6.28068L306.28 7.94396L305.888 10.1221L304.502 13.0442L303.531 14.3062L302.416 15.1618L302.132 15.2632L303.62 15.9695L303.84 16.7156L303.584 17.5398L303.114 18.5322L302.379 19.298L301.542 19.7793L300.492 19.7874L299.903 19.6767L299.109 18.9287L298.577 18.2709L298.785 17.1202L299.851 15.5866L298.985 15.5601L297.662 14.9323L296.941 14.3876L296.102 14.7325L295.395 14.8699Z" fill="#2CBC67"/>
<path d="M299.754 19.8454C299.375 19.6658 299.046 19.3952 298.809 19.0576C298.447 18.5425 298.338 17.9275 298.502 17.3258C298.723 16.5164 299.209 15.888 299.909 15.5088C300.02 15.4485 300.159 15.4899 300.219 15.601C300.28 15.7121 300.238 15.851 300.127 15.9112C299.532 16.2339 299.133 16.7504 298.944 17.4461C298.816 17.9141 298.901 18.393 299.183 18.7946C299.515 19.2673 300.074 19.5786 300.677 19.6271C301.377 19.6832 302.174 19.2652 302.81 18.5089C303.401 17.8065 303.707 16.9815 303.572 16.456C303.468 16.0503 302.809 15.6861 302.007 15.5899C301.881 15.5749 301.792 15.461 301.807 15.3355C301.822 15.21 301.936 15.1205 302.061 15.1355C303.076 15.2571 303.861 15.7419 304.015 16.3419C304.188 17.0143 303.853 17.9806 303.161 18.8036C302.429 19.6728 301.487 20.1512 300.64 20.0833C300.33 20.0582 300.029 19.9759 299.754 19.8454Z" fill="#2CBC67"/>
<path d="M295.751 19.4575C295.698 19.4324 295.654 19.3871 295.633 19.3276C295.591 19.2085 295.653 19.0776 295.772 19.0352L299.809 17.5962C299.928 17.5538 300.059 17.6159 300.102 17.7349C300.144 17.854 300.082 17.9849 299.963 18.0274L295.925 19.4663C295.866 19.4875 295.803 19.4826 295.751 19.4575Z" fill="#2CBC67"/>
<path d="M298.206 15.4568C297.697 15.2155 297.212 14.886 296.769 14.4716C296.676 14.3853 296.671 14.2405 296.758 14.1482C296.844 14.0558 296.989 14.051 297.081 14.1372C298.528 15.4888 300.372 15.8567 302.016 15.1214C303.902 14.2774 305.703 11.2105 306.031 8.28465C306.228 6.52311 305.836 5.17792 304.928 4.49682C304.03 3.82394 302.583 3.67439 300.958 4.08633C298.631 4.67616 296.581 6.24263 295.738 8.0771C295.685 8.19194 295.549 8.24221 295.434 8.18936C295.433 8.18896 295.433 8.18855 295.432 8.18815C295.319 8.13453 295.27 7.99982 295.322 7.88581C296.221 5.93063 298.389 4.2651 300.845 3.64262C302.605 3.19659 304.193 3.37456 305.202 4.1306C306.245 4.91288 306.701 6.40623 306.485 8.33549C306.327 9.75374 305.8 11.3255 305.04 12.6477C304.231 14.0555 303.224 15.0824 302.203 15.5391C300.921 16.1127 299.489 16.0655 298.206 15.4568Z" fill="#2CBC67"/>
<path d="M294.285 14.9112C293.768 14.6662 293.32 14.2495 292.951 13.6724C292.003 12.1895 291.766 10.5483 292.301 9.1697C292.65 8.26814 293.29 7.61409 294.012 7.42019C294.407 7.31413 294.838 7.36969 295.292 7.58535C296.521 8.16861 297.761 9.89702 298.056 11.4382C298.291 12.6674 297.863 13.8744 296.941 14.5881C296.146 15.2026 295.153 15.3234 294.285 14.9112ZM295.096 7.99883C294.742 7.83109 294.418 7.78516 294.131 7.86216C293.558 8.01606 293.02 8.58049 292.727 9.33511C292.246 10.5762 292.468 12.0673 293.337 13.4259C293.658 13.9295 294.043 14.29 294.481 14.4976C295.19 14.8344 296.005 14.7328 296.661 14.226C297.446 13.6184 297.809 12.5831 297.606 11.5241C297.34 10.1327 296.191 8.51828 295.096 7.99883Z" fill="#2CBC67"/>
<path d="M296.629 22.3048L296.396 22.1941C296.206 22.1038 296.125 21.8764 296.215 21.686C296.305 21.4957 296.533 21.4147 296.723 21.505L296.956 21.6156C297.146 21.7059 297.228 21.9333 297.137 22.1237C297.047 22.314 296.819 22.3951 296.629 22.3048Z" fill="#2CBC67"/>
<path d="M294.809 21.4411C294.619 21.3508 294.538 21.1234 294.628 20.9331L299.023 11.6718C299.113 11.4815 299.34 11.4004 299.531 11.4907C299.721 11.581 299.802 11.8085 299.712 11.9988L295.317 21.26C295.227 21.4504 295 21.5314 294.809 21.4411Z" fill="#2CBC67"/>
<path d="M296.509 17.8579C296.457 17.8328 296.413 17.7876 296.392 17.728L294.884 13.4963C294.841 13.3773 294.903 13.2464 295.022 13.2039C295.142 13.1615 295.272 13.2236 295.315 13.3426L296.823 17.5743C296.866 17.6934 296.803 17.8243 296.684 17.8668C296.625 17.888 296.562 17.883 296.509 17.8579Z" fill="#2CBC67"/>
<path d="M204.478 38.3823C205.023 39.6322 206.213 42.9359 206.612 46.1514C207.011 49.3669 206.566 48.9209 206.294 48.296M201.4 41.4011C202.275 42.4463 204.349 45.2796 205.64 48.2516C206.931 51.2236 206.378 50.9214 205.94 50.3988" stroke="white" stroke-linecap="round" stroke-linejoin="round"/>
<path d="M128.741 52.3823C128.196 53.6322 127.006 56.9359 126.607 60.1514C126.207 63.3669 126.653 62.9209 126.925 62.296M131.819 55.4011C130.943 56.4463 128.869 59.2796 127.578 62.2516C126.288 65.2236 126.841 64.9214 127.278 64.3988" stroke="white" stroke-linecap="round" stroke-linejoin="round"/>
<path d="M58.2491 46.9683L57.3643 47.1819L55.9912 46.9683L54.6182 46.0529L53.5197 44.5273L53.2451 42.8491L53.6723 41.415L54.6182 40.6217H55.4115L55.503 39.7064L56.1438 37.6925L57.1812 35.9533L58.2491 34.8244L59.7137 33.848L61.3614 33.2377H62.3988L63.4362 33.6954L64.3211 34.5803L65.1144 36.0449L65.6941 38.1807V41.415L65.3585 42.9712L64.7177 44.2222L64.5042 44.4358H66.1518L66.6705 45.0155L66.7926 45.8698V46.9683L66.4569 47.9752L65.9077 48.7685L64.9618 49.2262L64.3821 49.3788L63.3447 49.0431L62.5819 48.677L62.2768 47.548L62.5819 45.7058L61.7886 46.0529H60.324L59.4391 45.8698L58.8289 46.5411L58.2491 46.9683Z" fill="white"/>
<path d="M64.3201 49.5949C63.9011 49.5949 63.4876 49.4916 63.1287 49.2882C62.5811 48.9779 62.2191 48.4689 62.1094 47.855C61.9615 47.0292 62.1317 46.253 62.6015 45.6104C62.6761 45.5083 62.8192 45.4861 62.9213 45.5607C63.0233 45.6353 63.0456 45.7784 62.9709 45.8805C62.5711 46.4274 62.4328 47.0647 62.5599 47.7745C62.6453 48.2519 62.9274 48.6481 63.3543 48.8901C63.8569 49.1749 64.4947 49.2167 65.0606 49.002C65.7166 48.7528 66.258 48.0333 66.5085 47.0773C66.7412 46.1894 66.664 45.3129 66.3165 44.8961C66.0484 44.5743 65.2976 44.5274 64.5311 44.7846C64.4113 44.8248 64.2816 44.7603 64.2414 44.6404C64.2011 44.5206 64.2657 44.3909 64.3855 44.3507C65.3543 44.0256 66.2715 44.127 66.6681 44.603C67.1127 45.1363 67.2239 46.1531 66.9513 47.1933C66.6633 48.2921 66.0172 49.1282 65.223 49.4298C64.9319 49.5402 64.6246 49.5949 64.3201 49.5949Z" fill="white"/>
<path d="M60.537 50.9606C60.4785 50.9606 60.4199 50.9382 60.3751 50.8936C60.2858 50.8042 60.2858 50.6593 60.3751 50.5699L63.4059 47.5392C63.4953 47.4498 63.6401 47.4498 63.7295 47.5392C63.8189 47.6286 63.8189 47.7734 63.7295 47.8628L60.6988 50.8936C60.6541 50.9382 60.5955 50.9606 60.537 50.9606Z" fill="white"/>
<path d="M61.0405 46.2935C60.4774 46.2936 59.8978 46.2038 59.3196 46.0196C59.1991 45.9812 59.1326 45.8525 59.171 45.7321C59.2093 45.6116 59.3382 45.5452 59.4584 45.5835C61.3448 46.1845 63.1691 45.7261 64.3386 44.3573C65.6814 42.7861 65.9938 39.2432 65.0352 36.4595C64.4581 34.7836 63.5274 33.7363 62.4148 33.5103C61.3155 33.2871 59.9443 33.7722 58.6524 34.8411C56.8026 36.3717 55.6229 38.6653 55.647 40.6843C55.6485 40.8107 55.5473 40.9144 55.4209 40.9159C55.42 40.9159 55.419 40.9159 55.4181 40.9159C55.293 40.9159 55.1908 40.8152 55.1893 40.6898C55.1636 38.5379 56.4084 36.1037 58.3606 34.4884C59.7595 33.331 61.2705 32.8111 62.5058 33.0617C63.7839 33.3212 64.8358 34.475 65.4679 36.3105C65.9326 37.6598 66.1304 39.3057 66.0108 40.8259C65.8835 42.4446 65.4132 43.8043 64.6865 44.6547C63.7745 45.7222 62.4606 46.2935 61.0405 46.2935Z" fill="white"/>
<path d="M57.2637 47.4816C56.6922 47.4816 56.1082 47.2974 55.5278 46.9341C54.0359 46.0006 53.1183 44.6194 53.0103 43.1447C52.9396 42.1804 53.2372 41.3152 53.8063 40.8306C54.1176 40.5655 54.5304 40.4311 55.0335 40.4311C56.3941 40.4311 58.2551 41.4612 59.182 42.7273C59.9212 43.7371 60.0526 45.0107 59.5249 46.0511C59.0705 46.9468 58.2252 47.4816 57.2637 47.4816ZM55.0335 40.8888C54.6422 40.8888 54.3291 40.9865 54.103 41.179C53.6513 41.5637 53.4075 42.3041 53.4666 43.1113C53.5639 44.4388 54.4036 45.6908 55.7705 46.5461C56.277 46.8631 56.7794 47.0238 57.2636 47.0238C58.0492 47.0238 58.7419 46.5827 59.1166 45.844C59.5659 44.9583 59.4495 43.8676 58.8126 42.9977C57.9758 41.8546 56.2452 40.8888 55.0335 40.8888Z" fill="white"/>
<path d="M62.5513 53.1563H62.2933C62.0826 53.1563 61.9119 52.9856 61.9119 52.7749C61.9119 52.5643 62.0826 52.3935 62.2933 52.3935H62.5513C62.762 52.3935 62.9327 52.5643 62.9327 52.7749C62.9327 52.9856 62.762 53.1563 62.5513 53.1563Z" fill="white"/>
<path d="M60.537 53.1562C60.3264 53.1562 60.1556 52.9854 60.1556 52.7748V42.5239C60.1556 42.3132 60.3264 42.1425 60.537 42.1425C60.7477 42.1425 60.9184 42.3132 60.9184 42.5239V52.7748C60.9184 52.9854 60.7476 53.1562 60.537 53.1562Z" fill="white"/>
<path d="M60.537 49.1901C60.4784 49.1901 60.4198 49.1678 60.3751 49.1231L57.1985 45.9465C57.1091 45.8571 57.1091 45.7122 57.1985 45.6228C57.2879 45.5335 57.4328 45.5335 57.5222 45.6228L60.6988 48.7994C60.7881 48.8888 60.7881 49.0337 60.6988 49.1231C60.6541 49.1678 60.5955 49.1901 60.537 49.1901Z" fill="white"/>
<path d="M234.433 30.6405L235.341 30.7138L236.664 30.2891L237.877 29.1712L238.725 27.4932L238.735 25.7927L238.09 24.4426L237.032 23.8062L236.248 23.9297L236.016 23.0397L235.069 21.1501L233.774 19.5936L232.543 18.6446L230.944 17.9081L229.222 17.5617L228.197 17.7231L227.244 18.3367L226.507 19.3485L225.951 20.9187L225.711 23.1188L226.215 26.3137L226.788 27.7986L227.616 28.9346L227.86 29.1124L226.233 29.3688L225.81 30.0222L225.823 30.8851L225.994 31.9702L226.482 32.9126L227.148 33.6108L228.154 33.9157L228.75 33.9761L229.723 33.4831L230.419 33.0027L230.545 31.84L229.957 30.0678L230.794 30.2872L232.241 30.0592L233.087 29.7407L233.794 30.3088L234.433 30.6405Z" fill="white"/>
<path d="M228.845 34.18C229.259 34.1148 229.651 33.9484 229.974 33.6916C230.467 33.2999 230.745 32.7408 230.758 32.1173C230.776 31.2785 230.487 30.5382 229.923 29.9765C229.833 29.8873 229.688 29.8877 229.599 29.9772C229.51 30.0668 229.51 30.2117 229.6 30.3008C230.08 30.7789 230.315 31.3869 230.3 32.1078C230.29 32.5927 230.073 33.028 229.689 33.3334C229.237 33.693 228.614 33.8336 228.021 33.7096C227.334 33.5655 226.688 32.939 226.291 32.0337C225.923 31.1928 225.863 30.315 226.142 29.8491C226.356 29.4896 227.091 29.3264 227.888 29.4611C228.012 29.4822 228.131 29.3983 228.152 29.2737C228.173 29.1491 228.089 29.031 227.964 29.0099C226.957 28.8395 226.066 29.0825 225.749 29.6144C225.392 30.2103 225.441 31.232 225.872 32.2172C226.328 33.2578 227.096 33.9831 227.927 34.1575C228.232 34.2212 228.544 34.2274 228.845 34.18Z" fill="white"/>
<path d="M232.795 34.9402C232.852 34.9311 232.907 34.9 232.944 34.8489C233.018 34.7466 232.996 34.6035 232.894 34.5291L229.428 32.007C229.326 31.9327 229.183 31.9552 229.108 32.0574C229.034 32.1596 229.057 32.3027 229.159 32.3771L232.624 34.8992C232.675 34.9364 232.737 34.9493 232.795 34.9402Z" fill="white"/>
<path d="M231.571 30.4084C232.127 30.3208 232.686 30.142 233.228 29.87C233.341 29.8133 233.387 29.6758 233.33 29.5629C233.274 29.4499 233.136 29.4043 233.023 29.4608C231.253 30.3481 229.38 30.1792 228.012 29.0092C226.441 27.666 225.581 24.2149 226.094 21.316C226.404 19.5707 227.16 18.3912 228.224 17.9949C229.275 17.6033 230.705 17.8691 232.147 18.7239C234.213 19.9479 235.735 22.0299 236.026 24.0281C236.044 24.1532 236.16 24.2399 236.285 24.2217C236.286 24.2215 236.287 24.2214 236.288 24.2212C236.411 24.2018 236.497 24.0865 236.479 23.9623C236.169 21.8326 234.561 19.6219 232.381 18.3301C230.819 17.4045 229.245 17.1261 228.064 17.5659C226.842 18.0212 225.982 19.3246 225.644 21.2361C225.395 22.6413 225.455 24.2979 225.81 25.781C226.188 27.3601 226.864 28.6301 227.714 29.357C228.781 30.2696 230.168 30.6294 231.571 30.4084Z" fill="white"/>
<path d="M235.487 30.9942C236.051 30.9052 236.599 30.6324 237.116 30.1832C238.444 29.0289 239.136 27.5217 239.013 26.0482C238.933 25.0846 238.504 24.2763 237.867 23.8861C237.518 23.6727 237.089 23.6042 236.592 23.6825C235.248 23.8943 233.57 25.2015 232.852 26.5964C232.279 27.709 232.347 28.9875 233.03 29.9331C233.618 30.7472 234.537 31.1438 235.487 30.9942ZM236.663 24.1346C237.05 24.0737 237.374 24.1215 237.628 24.2765C238.134 24.5862 238.49 25.2796 238.557 26.0862C238.668 27.4127 238.033 28.7801 236.816 29.8377C236.365 30.2297 235.894 30.4666 235.415 30.542C234.639 30.6643 233.886 30.3364 233.401 29.665C232.82 28.8599 232.765 27.7644 233.259 26.806C233.907 25.5466 235.466 24.3232 236.663 24.1346Z" fill="white"/>
<path d="M231.147 37.4227L231.401 37.3826C231.61 37.3498 231.752 37.1545 231.719 36.9465C231.686 36.7384 231.491 36.5963 231.283 36.6291L231.028 36.6692C230.82 36.702 230.678 36.8973 230.71 37.1053C230.743 37.3134 230.938 37.4555 231.147 37.4227Z" fill="white"/>
<path d="M233.136 37.1091C233.344 37.0763 233.486 36.8811 233.454 36.673L231.858 26.547C231.825 26.3389 231.63 26.1968 231.422 26.2296C231.214 26.2624 231.072 26.4577 231.105 26.6657L232.7 36.7917C232.733 36.9998 232.928 37.1419 233.136 37.1091Z" fill="white"/>
<path d="M232.519 33.1913C232.577 33.1822 232.631 33.1511 232.668 33.1L235.312 29.4676C235.386 29.3654 235.364 29.2223 235.262 29.1479C235.159 29.0736 235.016 29.0961 234.942 29.1983L232.298 32.8306C232.224 32.9328 232.247 33.0759 232.349 33.1503C232.4 33.1875 232.461 33.2004 232.519 33.1913Z" fill="white"/>
</svg>
