<svg width="53" height="52" viewBox="0 0 53 52" fill="none" xmlns="http://www.w3.org/2000/svg">
<g clip-path="url(#clip0)">
<path d="M7.19382 46.2105C7.55888 46.6136 7.72237 47.1993 8.15092 47.5168C8.41916 47.7818 8.86675 47.7151 9.0461 47.3834C9.15086 47.0628 8.9461 46.712 8.82706 46.4247C8.71913 46.2121 8.55882 46.1597 8.33503 46.193C8.15249 45.9914 7.96996 45.7899 7.72395 45.674C7.38111 45.42 6.83987 45.8819 7.19382 46.2105Z" fill="#504C5C"/>
<path d="M12.0397 48.5388C12.4794 48.9308 12.9936 49.3118 13.4968 49.6181C13.9999 49.9244 14.6634 50.2831 15.1856 50.2054C15.484 50.1609 15.5776 49.7657 15.3316 49.6498C14.903 49.3324 14.2951 49.3467 13.8031 49.1149C13.2365 48.8943 12.8079 48.5769 12.2936 48.196C12.0476 48.0801 11.8683 48.4118 12.0397 48.5388Z" fill="#504C5C"/>
<path d="M19.0202 49.3295C18.4456 49.5676 17.7853 49.7422 17.1139 49.8422C16.8901 49.8755 16.9457 50.2485 17.1695 50.2152C18.0647 50.0818 19.9217 50.2628 20.3852 49.2787C20.5122 49.1073 20.255 48.9168 20.1058 48.939C19.7328 48.9946 19.3821 49.1993 19.0202 49.3295Z" fill="#504C5C"/>
<path d="M21.2329 44.7296C21.5598 45.9009 21.9392 46.912 21.5091 48.1199C21.4567 48.2802 21.617 48.3325 21.6694 48.1722C22.3233 46.931 22.5074 45.6073 21.6471 44.4391C21.4535 44.1629 21.1249 44.5169 21.2329 44.7296Z" fill="#504C5C"/>
<path d="M16.5537 39.9363C16.8663 40.4997 17.3806 40.8807 17.8314 41.3473C18.3679 41.8774 18.8932 42.3329 19.4932 42.7774C19.6646 42.9043 19.9297 42.6361 19.7471 42.4345C19.2329 42.0536 18.8567 41.5758 18.4059 41.1092C17.9552 40.6426 17.5568 40.0156 17.0425 39.6347C16.7854 39.4442 16.36 39.6601 16.5537 39.9363Z" fill="#504C5C"/>
<path d="M10.4381 35.7379C11.1603 37.0029 12.6174 38.0822 13.8062 38.8964C14.0522 39.0123 14.2427 38.7551 14.0601 38.5536C13.4491 38.0345 12.8269 37.4409 12.2793 36.8362C11.8285 36.3696 11.4412 35.8172 10.927 35.4363C10.5952 35.2569 10.3302 35.5252 10.4381 35.7379Z" fill="#504C5C"/>
<path d="M6.68906 29.5096C6.81446 30.8635 7.53665 32.1285 8.16201 33.2554C8.26994 33.4681 8.55723 33.349 8.5239 33.1252C7.96202 31.9126 7.62393 30.6666 7.36045 29.4096C7.2303 29.0477 6.63351 29.1366 6.68906 29.5096Z" fill="#504C5C"/>
<path d="M8.40639 24.1452C8.01435 24.5848 7.64453 25.1737 7.3382 25.6768C7.09536 26.0943 7.60962 26.4752 7.93817 26.1212C8.25559 25.6926 8.64765 25.253 9.03969 24.8134C9.43171 24.3736 10.0476 23.9007 10.3428 23.323C10.4586 23.077 10.1904 22.8119 9.90312 22.9309C9.30633 23.0198 8.78732 23.6309 8.40639 24.1452Z" fill="#504C5C"/>
<path d="M12.2236 22.1274C11.9252 22.1719 12.003 22.6939 12.3014 22.6495C13.0585 22.613 13.7521 22.6622 14.5203 22.7004C15.2139 22.7496 15.9409 23.0226 16.6869 22.9115C17.0599 22.8559 17.1313 22.3115 16.7361 22.2177C15.3679 21.7352 13.5553 21.8528 12.2236 22.1274Z" fill="#504C5C"/>
<path d="M20.236 24.2132C20.8137 24.5085 21.3915 24.8036 21.9692 25.0989C22.5358 25.3194 23.1358 25.7639 23.7437 25.7497C24.0421 25.7052 24.0723 25.3957 23.9644 25.183C23.6628 24.6942 22.9581 24.5704 22.4771 24.4133C21.8248 24.1291 21.109 23.9308 20.4566 23.6466C20.0614 23.5529 19.9042 24.0338 20.236 24.2132Z" fill="#504C5C"/>
<path d="M26.2373 27.132C26.9341 27.7145 27.6087 28.1478 28.3467 28.4954C29.0848 28.843 30.1434 29.2954 30.9418 29.0239C31.3037 28.8938 31.3227 28.5097 30.991 28.3303C30.4133 28.0351 29.6562 28.0716 29.026 27.9367C28.0864 27.7716 27.188 27.3717 26.3532 26.886C26.2563 26.7479 26.0659 27.005 26.2373 27.132Z" fill="#504C5C"/>
<path d="M34.1811 30.2952C34.8779 30.8777 35.6271 31.2999 36.5143 31.6252C37.4016 31.9506 38.5239 32.3172 39.3968 32.0347C39.6841 31.9157 39.6175 31.4681 39.3826 31.4268C38.6444 31.0792 37.7492 31.2126 36.9588 31.0253C36.0938 30.8491 35.1954 30.4491 34.3605 29.9634C34.1891 29.8365 33.924 30.1047 34.1811 30.2952Z" fill="#504C5C"/>
<path d="M45.6058 28.6699C45.3853 29.2365 45.2282 29.7175 44.8361 30.1571C44.2949 30.619 43.4219 30.9015 42.7505 31.0015C42.5266 31.0349 42.5822 31.4079 42.8061 31.3745C44.2457 31.3126 46.6629 30.6476 46.2995 28.7191C46.1805 28.4318 45.7107 28.3493 45.6058 28.6699Z" fill="#504C5C"/>
<path d="M47.0392 20.3733C47.0868 21.2049 47.3581 22.0034 47.4803 22.8239C47.5614 23.8795 47.4073 24.8937 46.9327 25.8032C46.8805 25.9635 47.1154 26.0048 47.1787 25.9191C48.139 24.1747 48.8612 21.8557 47.7517 20.0383C47.4724 19.6988 46.9836 20.0003 47.0392 20.3733Z" fill="#504C5C"/>
<path d="M41.022 14.7883C41.3981 15.266 41.9124 15.6469 42.3743 16.1882C42.7505 16.6659 42.9886 17.2406 43.152 17.8262C43.2822 18.1882 43.8044 18.1104 43.7488 17.7373C43.6234 16.3834 42.9203 14.7343 41.541 14.1772C41.1235 13.9342 40.8171 14.4375 41.022 14.7883Z" fill="#504C5C"/>
<path d="M36.0904 12.3965C37.2046 13.2219 38.4045 14.1106 39.6981 14.6043C40.1046 14.7726 40.2505 14.2171 39.9187 14.0377C38.7521 13.3727 37.8062 12.141 36.4491 11.733C36.0651 11.714 35.7477 12.1426 36.0904 12.3965Z" fill="#504C5C"/>
<path d="M35.3318 6.79011C34.9175 7.08057 34.708 7.72181 34.5509 8.20273C34.4048 8.75826 34.4193 9.36614 34.5081 9.96293C34.5637 10.3359 35.0858 10.2582 35.0302 9.88517C34.9524 9.36298 35.0351 8.89315 35.1922 8.41222C35.3604 8.00577 35.689 7.65183 35.8571 7.24564C36.0364 6.91393 35.608 6.59659 35.3318 6.79011Z" fill="#504C5C"/>
<path d="M37.5745 1.88125C36.0142 3.18119 34.1747 4.14146 32.5176 5.30331C31.7637 5.87312 32.6875 6.9556 33.4525 6.46038C34.8444 5.56679 36.3222 4.73666 37.6062 3.63036C37.7808 4.29064 37.9554 4.95092 38.1411 5.6858C38.2602 5.97308 38.3379 6.49528 38.6698 6.67461L38.7554 6.738C38.7554 6.738 38.7665 6.81259 38.8411 6.80148C39.0125 6.92846 39.2887 6.73482 39.2664 6.58562C39.3299 6.49991 39.3188 6.42519 39.2966 6.27611C39.3155 5.89191 39.1855 5.53012 39.1188 5.08253C38.8998 4.12386 38.6917 3.2398 38.622 2.25889C38.63 1.8003 37.9887 1.59079 37.5745 1.88125Z" fill="#504C5C"/>
</g>
<defs>
<clipPath id="clip0">
<rect width="44.9906" height="44.9906" fill="white" transform="translate(7.61182 51.7529) rotate(-98.4715)"/>
</clipPath>
</defs>
</svg>
