<svg aria-hidden="true" style="position:absolute;width:0;height:0;overflow:hidden" xmlns="http://www.w3.org/2000/svg">
  <defs>
    <symbol id="name-icon" viewBox="0 0 32 32">
      <path d="M16 16c4.42 0 8-3.58 8-8s-3.58-8-8-8-8 3.58-8 8 3.58 8 8 8zm0 4c-5.34 0-16 2.68-16 8v2c0 1.1.9 2 2 2h28c1.1 0 2-.9 2-2v-2c0-5.32-10.66-8-16-8z"/>
    </symbol>
    <symbol id="phone-icon" viewBox="0 0 32 32">
      <path d="M24.881 19.774l-3.268-.373a2.561 2.561 0 00-2.11.733l-2.367 2.367a19.357 19.357 0 01-8.478-8.478l2.38-2.38a2.561 2.561 0 00.733-2.11l-.373-3.242a2.575 2.575 0 00-2.56-2.277H6.612c-1.454 0-2.663 1.209-2.573 2.663.682 10.987 9.469 19.761 20.443 20.443 1.454.09 2.663-1.119 2.663-2.573v-2.226a2.55 2.55 0 00-2.264-2.547z"/>
    </symbol>
    <symbol id="close-icon" viewBox="0 0 32 32">
      <path d="M26.667 7.303l-1.97-1.97-7.808 7.808-7.808-7.808-1.97 1.97 7.808 7.808-7.808 7.808 1.97 1.97 7.808-7.808 7.808 7.808 1.97-1.97-7.808-7.808 7.808-7.808z"/>
    </symbol>
    <symbol id="location" viewBox="0 0 18 18">
      <path d="M9 1.446a6.268 6.268 0 016.268 6.268c0 2.649-1.861 5.535-5.535 8.69a1.125 1.125 0 01-1.468 0l-.243-.212c-3.511-3.073-5.29-5.888-5.29-8.478A6.268 6.268 0 019 1.446zm0 .965a5.304 5.304 0 00-5.304 5.303c0 2.252 1.638 4.845 4.96 7.751l.24.208a.16.16 0 00.209 0c3.481-2.99 5.199-5.654 5.199-7.959A5.304 5.304 0 009 2.411zm0 2.893a2.41 2.41 0 110 4.821 2.41 2.41 0 010-4.821zm0 .964A1.446 1.446 0 109 9.16a1.446 1.446 0 000-2.893z"/>
    </symbol>
    <symbol id="lamp" viewBox="0 0 72 72" fill="none">
      <circle cx="36" cy="36" r="35" stroke="#FEC830" stroke-width="1.5" stroke-linecap="round" stroke-linejoin="round" stroke-dasharray="2 5"/>
      <circle cx="36" cy="36" r="26.923" fill="#AA43A2"/>
      <g clip-path="url(#clip0)" fill="#FEC830">
        <path d="M36.033 22.672c-6.12 0-11.119 5-11.119 11.119 0 3.2 1.4 6.28 3.76 8.359 1.76 1.76 1.6 5.52 1.56 5.56 0 .2.04.36.2.52.12.12.32.2.48.2h10.199c.2 0 .36-.08.48-.2.12-.12.2-.32.2-.52 0-.04-.2-3.8 1.56-5.56l.12-.12c2.32-2.12 3.679-5.12 3.679-8.24 0-6.119-5-11.118-11.119-11.118zm6.4 18.438c-.04.04-.12.12-.12.16-1.56 1.68-1.84 4.44-1.88 5.76h-8.84c-.04-1.32-.32-4.2-2-5.92a9.748 9.748 0 01-3.359-7.36c0-5.399 4.36-9.758 9.76-9.758 5.399 0 9.758 4.36 9.758 9.759 0 2.84-1.2 5.52-3.32 7.359z"/>
        <path d="M35.993 25.512a.7.7 0 00-.68.68c0 .36.32.68.68.68 4.04 0 7.28 3.28 7.28 7.279 0 .36.32.68.679.68a.7.7 0 00.68-.68c.04-4.76-3.84-8.64-8.64-8.64zM40.433 49.19h-8.88c-.92 0-1.68.759-1.68 1.679s.76 1.68 1.68 1.68h8.84c.96-.04 1.72-.76 1.72-1.68 0-.92-.76-1.68-1.68-1.68zm0 1.959h-8.88c-.16 0-.32-.12-.32-.32s.12-.32.32-.32h8.84c.16 0 .32.12.32.32s-.12.32-.28.32zM39.113 53.229h-6.24c-.92 0-1.68.76-1.68 1.68 0 .92.76 1.68 1.68 1.68h6.24c.92 0 1.68-.76 1.68-1.68 0-.96-.76-1.68-1.68-1.68zm0 1.96h-6.24c-.16 0-.32-.12-.32-.32s.12-.32.32-.32h6.24c.16 0 .32.12.32.32s-.16.32-.32.32zM35.993 19.352c.4 0 .68-.32.68-.68v-4.64a.7.7 0 00-.68-.679.7.7 0 00-.68.68v4.64c0 .36.32.68.68.68zM47.312 16.793c-.32-.24-.72-.12-.92.16l-2.56 3.84c-.24.32-.16.76.16.96.12.08.24.12.36.12.24 0 .44-.12.56-.32l2.56-3.84c.24-.28.16-.72-.16-.92zM27.874 21.712c.12 0 .24-.04.36-.12.32-.2.4-.64.2-.96l-2.48-3.88c-.2-.32-.64-.4-.96-.2-.32.2-.4.64-.2.96l2.48 3.88c.16.24.36.32.6.32zM23.035 25.952l-4.04-2.2c-.32-.16-.76-.04-.92.28-.2.32-.08.76.28.92l4.04 2.2c.12.04.2.08.32.08.24 0 .48-.12.6-.36.16-.32.04-.76-.28-.92zM53.951 24.032c-.16-.32-.6-.44-.92-.28l-4.08 2.2c-.32.16-.44.6-.28.92.12.24.36.36.6.36.12 0 .24-.04.32-.08l4.08-2.2c.32-.16.44-.6.28-.92z"/>
      </g>
      <defs>
        <clipPath id="clip0">
          <path fill="white" transform="translate(14.382 13.353)" d="M0 0h43.235v43.235H0z"/>
        </clipPath>
      </defs>
    </symbol>
    <symbol id="menthor" viewBox="0 0 72 72" fill="none">
      <circle cx="36" cy="36" r="35" stroke="#FEC830" stroke-width="1.5" stroke-linecap="round" stroke-linejoin="round" stroke-dasharray="2 5"/>
      <circle cx="36" cy="36" r="26.923" fill="#AA43A2"/>
      <path d="M31.435 33.178a.657.657 0 00.658-.657v-1.574a.657.657 0 10-1.315 0v1.574c0 .363.294.657.657.657zM39.779 30.29a.657.657 0 00-.657.657v1.574a.657.657 0 001.314 0v-1.574a.657.657 0 00-.657-.657zM35.607 38.452a2.475 2.475 0 002.473-2.472.657.657 0 00-1.315 0 1.16 1.16 0 01-2.316 0 .657.657 0 00-1.314 0 2.475 2.475 0 002.472 2.472z" fill="#FEC830"/>
      <path d="M43.29 44.103h-.981l-2.503-1.36v-1.174a9.207 9.207 0 004.775-6.134 3.565 3.565 0 003.133-3.535c0-.965-.386-1.842-1.012-2.484a.655.655 0 00.147-.415v-5.15c0-2.849-2.227-5.218-5.031-5.437a4.272 4.272 0 00-3.43-1.725h-6.952a7.08 7.08 0 00-7.071 7.072V29c0 .156.054.298.145.411a3.565 3.565 0 002.124 6.023 9.207 9.207 0 004.774 6.134v1.174l-2.503 1.36h-.954a4.499 4.499 0 00-4.494 4.493v6.58c0 .363.294.657.657.657h2.696a.657.657 0 100-1.314h-2.038v-5.922a3.183 3.183 0 013.179-3.18h.903l4.049 3.018c.14.104.325.152.508.12l.365 1.432-.89 4.532h-3.008a.657.657 0 000 1.314h17.248a.657.657 0 00.658-.657v-6.58a4.499 4.499 0 00-4.494-4.493zm-2.364.744l-2.934 2.187-1.368-1.428 2.56-1.706 1.742.947zm-4.23 2.734l-.442 1.73H34.96l-.442-1.73 1.088-1.136 1.088 1.136zm-3.973-4.8v-.66c.935.31 1.935.463 2.884.463.962 0 1.96-.156 2.884-.462v.66l-2.884 1.922-2.884-1.922zm10.656-9.19a.119.119 0 01-.118.118H38.03a.118.118 0 01-.119-.118v-3.814c0-.066.054-.119.119-.119h5.23c.066 0 .12.053.12.119v3.814zm3.02-1.69a2.249 2.249 0 01-1.8 2.2c.06-.159.095-.33.095-.51v-3.814c0-.02-.002-.038-.003-.056A2.249 2.249 0 0146.4 31.9zm-.864-8.05v4.493h-.96c-.331-1.438-1.07-2.856-1.922-3.844l.002-.025c.015-.263.01-.156.01-3.51 0-.328-.044-.72-.141-1.088l-.002-.009c1.734.496 3.013 2.102 3.013 3.984zm-3.263 2.35c.416.654.737 1.371.948 2.143h-2.488a5.491 5.491 0 001.54-2.144zm-17.457 5.7c0-1.057.721-1.942 1.709-2.181-.001.019-.003.037-.003.057v3.814c0 .18.034.351.095.51a2.249 2.249 0 01-1.801-2.2zm.864-3.557V23.76a5.763 5.763 0 015.757-5.756h6.953a2.964 2.964 0 012.961 2.961v3.191a4.192 4.192 0 01-4.187 4.188H25.68zm8.932 1.314h1.992c-.008.1-.006-.016-.006 1.368h-1.98c0-1.384.003-1.267-.006-1.368zm-6.776 3.933v-3.814c0-.066.053-.119.119-.119h5.23c.066 0 .119.053.119.119v3.814a.119.119 0 01-.119.118h-5.23a.119.119 0 01-.119-.118zm.054 1.43c.021 0 .043.003.065.003h5.23c.79 0 1.433-.643 1.433-1.433v-1.25h1.98v1.25c0 .79.643 1.433 1.433 1.433h5.23c.023 0 .044-.002.066-.003-.783 3.72-4.054 6.249-7.719 6.249-3.68 0-6.938-2.54-7.718-6.25zm5.334 12.013l-2.934-2.187 1.742-.947 2.559 1.706-1.367 1.428zm1.003 7.485l.765-3.894h1.233l.764 3.894h-2.762zm12.243 0h-8.141l-.89-4.531.365-1.433a.662.662 0 00.509-.12l4.048-3.018h.93a3.183 3.183 0 013.179 3.18v5.922z" fill="#FEC830"/>
    </symbol>
    <symbol id="children" viewBox="0 0 72 72" fill="none">
      <circle cx="36" cy="36" r="35" stroke="#FEC830" stroke-width="1.5" stroke-linecap="round" stroke-linejoin="round" stroke-dasharray="2 5"/>
      <circle cx="36" cy="36" r="26.923" fill="#AA43A2"/>
      <g clip-path="url(#clip0)" fill="#FEC830">
        <path d="M44.743 39.405A1.909 1.909 0 0046.65 37.5a.581.581 0 10-1.163 0 .745.745 0 01-1.489 0 .581.581 0 10-1.162 0c0 1.05.856 1.906 1.907 1.906zM47.79 36.146c.32 0 .58-.26.58-.581v-.607A.581.581 0 0048.3 33.8h-.51c-.32 0-.58.26-.58.581v1.184c0 .32.26.58.58.58zM41.115 34.958v.607a.581.581 0 101.163 0V34.38a.581.581 0 00-.581-.581h-.51a.581.581 0 00-.072 1.158z"/>
        <path d="M53.427 35.67a2.689 2.689 0 00-.419-2.935.578.578 0 00.107-.335c0-1.716.085-2.734-.43-4.21a.58.58 0 10-1.098.384c.422 1.206.365 2.043.365 3.245h-3.579a3.052 3.052 0 01-3.049-3.049.581.581 0 10-1.162 0 3.052 3.052 0 01-3.05 3.05H37.534v-1.083a6.556 6.556 0 016.55-6.55.08.08 0 01.079.08.581.581 0 001.162 0 .08.08 0 01.08-.08c1.893.001 3.692.82 4.938 2.248a.581.581 0 00.876-.764 7.712 7.712 0 00-5.814-2.645c-.243 0-.47.07-.661.19a1.235 1.235 0 00-.66-.19c-4.253 0-7.712 3.459-7.712 7.71V32.4c0 .125.04.24.107.335-.196.22-.355.473-.47.75a2.938 2.938 0 00-1.148-2.102v-2.214c0-4.358-3.546-7.904-7.904-7.904-1.082 0-.648-.019-2.145.098a6.6 6.6 0 00-5.031 2.985l-1.75-.56a.581.581 0 00-.757.526c-.008.175-.184 4.067.526 6.777a2.953 2.953 0 00-1.632 2.638 2.954 2.954 0 002.565 2.925 7.571 7.571 0 003.48 4.766H20.99a3.647 3.647 0 00-3.644 3.643v5.092c0 .321.26.581.581.581h.966a.581.581 0 100-1.162h-.385v-4.51a2.484 2.484 0 012.482-2.482h1.69a3.477 3.477 0 003.648 2.885 3.476 3.476 0 003.198-2.885h1.69a2.484 2.484 0 012.482 2.481v4.511H21.604a.581.581 0 100 1.162H34.28c.321 0 .581-.26.581-.58v-5.093c0-.483-.095-.945-.267-1.368h.933c.585 0 1.142-.117 1.652-.327a3.527 3.527 0 00-.568 1.922v4.865c0 .321.26.581.581.581h15.143c.32 0 .58-.26.58-.58V45.29c0-.7-.203-1.351-.553-1.901a4.32 4.32 0 001.599.306h1.292c.321 0 .581-.26.581-.581v-3.559c0-1.655-.96-3.16-2.406-3.886zM41.113 32.98a4.213 4.213 0 003.63-2.078 4.213 4.213 0 003.63 2.078h2.612c.848 0 1.538.69 1.538 1.539 0 .415-.166.79-.434 1.068-.306.316-.73.486-1.166.468a.58.58 0 00-.598.485 5.651 5.651 0 01-5.582 4.72 5.652 5.652 0 01-4.913-2.84.573.573 0 00-.033-.07 5.62 5.62 0 01-.536-1.337l-.007-.028a5.41 5.41 0 01-.093-.445.58.58 0 00-.598-.485c-.87.036-1.6-.666-1.6-1.536 0-.849.69-1.539 1.538-1.539l.064.002c.025.001.049 0 .073-.002h2.475zm3.64 11.886c-1.106 0-2.005-.9-2.005-2.005v-.736c.659.202 1.348.297 1.995.297.668 0 1.365-.102 2.014-.303v.742a2.008 2.008 0 01-2.004 2.005zM40.16 41.74h-.001c-.398 0-.781.067-1.139.189.36-.486.62-1.049.752-1.658a6.807 6.807 0 001.814 1.377v.092H40.16zm7.76-.102a6.767 6.767 0 001.795-1.367c.13.602.386 1.159.738 1.64-.663-.214-1.01-.171-2.533-.171v-.102zM18.415 25.132l1.45.463a.581.581 0 00.684-.273 5.443 5.443 0 014.352-2.8c1.461-.114 1.018-.095 2.055-.095a6.75 6.75 0 016.742 6.742v1.678c-.508-.109-.347-.065-8.316-.065a3.886 3.886 0 01-3.813-3.135.582.582 0 00-.995-.286 7.565 7.565 0 00-1.742 3.059c-.4-1.807-.432-4.114-.417-5.288zM19.786 36a.581.581 0 00-.597-.485 1.79 1.79 0 01-1.86-1.786c0-.969.772-1.753 1.723-1.786h.007a1.8 1.8 0 01.132 0h.005a.58.58 0 00.59-.484 6.337 6.337 0 01.991-2.492 5.06 5.06 0 004.605 2.977h7.77c.283.013.576.098.83.249l.014.007a1.79 1.79 0 01-.927 3.317l-.074-.002A.583.583 0 0032.4 36a6.376 6.376 0 01-6.306 5.331A6.375 6.375 0 0119.785 36zm6.2 8.31a2.313 2.313 0 01-2.18-2.07l-.002-.025a2.088 2.088 0 01-.006-.076 7.648 7.648 0 002.295.355c.745 0 1.549-.114 2.316-.362a2.313 2.313 0 01-2.422 2.178zm5.23-2.89h-1.243a7.57 7.57 0 003.48-4.766 2.958 2.958 0 002.363-1.852c.032.307.116.6.243.867a4.372 4.372 0 00-2.406 3.886v2.802a3.629 3.629 0 00-2.436-.937zm3.599 1.113v-2.978c0-1.293.799-2.461 1.977-2.945.386.315.851.513 1.316.582.134.56.345 1.108.6 1.59v.569a3.186 3.186 0 01-3.182 3.182h-.711zm16.938 7.041h-13.98V45.29a2.39 2.39 0 012.387-2.388h1.426a3.172 3.172 0 003.167 3.127 3.171 3.171 0 003.166-3.127h1.446a2.39 2.39 0 012.387 2.388v4.284zm2.918-7.041h-.711a3.186 3.186 0 01-3.182-3.182v-.569c.259-.49.468-1.037.6-1.59a2.699 2.699 0 001.26-.54c.019-.014.038-.027.056-.042a3.202 3.202 0 011.977 2.945v2.978z"/>
        <path d="M26.093 39.131a2.065 2.065 0 002.062-2.062.581.581 0 10-1.162 0 .902.902 0 01-1.801 0 .581.581 0 10-1.162 0c0 1.137.925 2.062 2.063 2.062zM22.687 33.022c-.32 0-.58.26-.58.581v1.285a.581.581 0 101.161 0v-1.285c0-.32-.26-.58-.58-.58zM29.498 35.469c.32 0 .58-.26.58-.581v-1.285a.581.581 0 10-1.161 0v1.285c0 .32.26.581.58.581z"/>
      </g>
      <defs>
        <clipPath id="clip0">
          <path fill="white" transform="translate(16.167 16.167)" d="M0 0h39.667v39.667H0z"/>
        </clipPath>
      </defs>
    </symbol>
    <symbol id="folder" viewBox="0 0 72 72" fill="none">
      <circle cx="36" cy="36" r="35" stroke="#FEC830" stroke-width="1.5" stroke-linecap="round" stroke-linejoin="round" stroke-dasharray="2 5"/>
      <circle cx="36" cy="36" r="26.923" fill="#AA43A2"/>
      <g clip-path="url(#clip0)" fill="#FEC830">
        <path d="M27.912 32.86h-6.05a.547.547 0 000 1.093h6.05a.547.547 0 100-1.094zM27.912 30.141h-6.05a.547.547 0 000 1.094h6.05a.547.547 0 100-1.094zM53.347 41.275a.224.224 0 01-.214-.152 7.288 7.288 0 00-.375-.905.225.225 0 01.043-.26 1.322 1.322 0 000-1.866L51.56 36.85a1.322 1.322 0 00-1.867 0 .225.225 0 01-.26.044 7.28 7.28 0 00-.904-.376.224.224 0 01-.152-.213c0-.728-.593-1.32-1.32-1.32H45.3c-.728 0-1.32.592-1.32 1.32a.224.224 0 01-.152.213c-.308.104-.613.23-.905.375a.225.225 0 01-.26-.043 1.322 1.322 0 00-1.866 0l-1.242 1.242a1.322 1.322 0 000 1.867.225.225 0 01.043.26c-.144.291-.27.596-.375.904a.224.224 0 01-.213.152c-.728 0-1.32.592-1.32 1.32v1.756c0 .727.592 1.32 1.32 1.32.097 0 .183.06.213.151.104.309.23.613.375.905a.225.225 0 01-.043.26 1.32 1.32 0 000 1.867l1.242 1.241a1.32 1.32 0 001.867 0 .225.225 0 01.26-.043c.291.145.596.271.904.375.09.03.152.117.152.214 0 .727.592 1.32 1.32 1.32h1.756c.727 0 1.32-.593 1.32-1.32 0-.097.06-.183.151-.214.309-.104.613-.23.906-.375a.225.225 0 01.259.043 1.32 1.32 0 001.867 0l1.241-1.241a1.32 1.32 0 000-1.867.225.225 0 01-.043-.26 7.32 7.32 0 00.375-.905.225.225 0 01.214-.151c.727 0 1.32-.592 1.32-1.32v-1.756c0-.728-.593-1.32-1.32-1.32zm.226 3.076a.227.227 0 01-.226.226c-.567 0-1.07.36-1.25.895a6.2 6.2 0 01-.319.77 1.318 1.318 0 00.25 1.518.226.226 0 010 .32l-1.242 1.242a.226.226 0 01-.32 0c-.4-.401-1.011-.502-1.518-.25-.248.123-.507.23-.77.319-.535.18-.895.683-.895 1.25a.227.227 0 01-.226.226H45.3a.227.227 0 01-.227-.226c0-.567-.36-1.07-.895-1.25a6.245 6.245 0 01-.77-.319 1.315 1.315 0 00-1.518.25.226.226 0 01-.32 0L40.33 48.08a.226.226 0 010-.32c.4-.4.5-1.01.25-1.518a6.216 6.216 0 01-.32-.77 1.317 1.317 0 00-1.249-.895.227.227 0 01-.226-.226v-1.756c0-.125.101-.227.226-.227.566 0 1.069-.36 1.25-.895.088-.262.195-.521.318-.77a1.318 1.318 0 00-.25-1.518.227.227 0 010-.32l1.242-1.242a.227.227 0 01.32 0c.401.402 1.011.502 1.519.25.248-.123.507-.23.77-.318.535-.181.894-.684.894-1.25 0-.125.102-.226.227-.226h1.756c.124 0 .226.101.226.226 0 .566.36 1.069.895 1.25.263.088.521.195.77.319a1.319 1.319 0 001.518-.25.227.227 0 01.32 0l1.242 1.241a.227.227 0 010 .32c-.401.401-.501 1.011-.25 1.519.123.248.23.507.319.77.18.535.683.895 1.25.895.124 0 .226.101.226.226v1.756z"/>
        <path d="M46.179 39.742a3.735 3.735 0 00-3.73 3.73 3.735 3.735 0 003.73 3.731 3.735 3.735 0 003.73-3.73 3.735 3.735 0 00-3.73-3.731zm0 6.368a2.64 2.64 0 01-2.637-2.637 2.64 2.64 0 012.637-2.637 2.64 2.64 0 012.637 2.637 2.64 2.64 0 01-2.637 2.637z"/>
        <path d="M37.301 47.989l-17.464.005c-.78 0-1.41-.63-1.41-1.41v-18.02c0-.776.633-1.409 1.41-1.409h16.826a2.51 2.51 0 002.277-1.462l1.707-3.735c.229-.5.732-.824 1.282-.824l7.752-.001c.78 0 1.41.63 1.41 1.41l.001 12.371a.547.547 0 101.094 0l-.001-12.372a2.502 2.502 0 00-2.504-2.503l-7.752.002a2.51 2.51 0 00-2.277 1.462l-.29.635-19.525-.005a2.502 2.502 0 00-2.504 2.503v21.949a2.502 2.502 0 002.504 2.503l17.464-.006a.547.547 0 000-1.093zM19.837 23.227l19.025.005-.917 2.006c-.229.5-.732.823-1.282.823H19.837a2.49 2.49 0 00-1.41.436v-1.86c0-.78.63-1.41 1.41-1.41z"/>
      </g>
      <defs>
        <clipPath id="clip0">
          <path fill="white" transform="translate(17.333 17.333)" d="M0 0h37.333v37.333H0z"/>
        </clipPath>
      </defs>
    </symbol>
    <symbol id="age-8-9" viewBox="0 0 270 9" fill="none">
      <rect y="3" width="270" height="3" rx="1.5" fill="#FEC830"/>
      <rect x="27" y="3" width="33" height="3" rx="1.5" fill="#AA43A2"/>
      <circle cx="56.5" cy="4.5" r="4.5" fill="#FEC830"/>
      <circle cx="27.5" cy="4.5" r="4.5" fill="#FEC830"/>
    </symbol>
    <symbol id="age-9-10" viewBox="0 0 270 9" fill="none">
      <rect y="3" width="270" height="3" rx="1.5" fill="#FEC830"/>
      <rect x="54" y="3" width="32" height="3" rx="1.5" fill="#AA43A2"/>
      <circle cx="86.5" cy="4.5" r="4.5" fill="#FEC830"/>
      <circle cx="56.5" cy="4.5" r="4.5" fill="#FEC830"/>
    </symbol>
    <symbol id="age-8-10" viewBox="0 0 270 9" fill="none">
      <rect y="3" width="270" height="3" rx="1.5" fill="#FEC830"/>
      <rect x="27" y="3" width="59" height="3" rx="1.5" fill="#AA43A2"/>
      <circle cx="86.5" cy="4.5" r="4.5" fill="#FEC830"/>
      <circle cx="27.5" cy="4.5" r="4.5" fill="#FEC830"/>
    </symbol>
    <symbol id="age-10" viewBox="0 0 270 9" fill="none">
      <rect y="3" width="270" height="3" rx="1.5" fill="#FEC830"/>
      <rect x="86" y="3" width="184" height="3" rx="1.5" fill="#AA43A2"/>
      <circle cx="86.5" cy="4.5" r="4.5" fill="#FEC830"/>
    </symbol>
    <symbol id="age-11" viewBox="0 0 270 9" fill="none">
      <rect y="3" width="270" height="3" rx="1.5" fill="#FEC830"/>
      <rect x="115" y="3" width="155" height="3" rx="1.5" fill="#AA43A2"/>
      <circle cx="116.5" cy="4.5" r="4.5" fill="#FEC830"/>
    </symbol>
    <symbol id="age-13" viewBox="0 0 270 10" fill="none">
      <rect y="3.001" width="270" height="3" rx="1.5" fill="#FEC830"/>
      <rect x="174" y="3.001" width="96" height="3" rx="1.5" fill="#AA43A2"/>
      <circle cx="175.5" cy="4.501" r="4.5" fill="#FEC830"/>
    </symbol>
    <symbol id="initial" viewBox="0 0 270 9" fill="none">
      <rect y="3" width="270" height="3" rx="1.5" fill="#FEC830"/>
      <rect y="3" width="70" height="3" rx="1.5" fill="#AA43A2"/>
      <circle cx="65.5" cy="4.5" r="4.5" fill="#FEC830"/>
    </symbol>
    <symbol id="average" viewBox="0 0 270 9" fill="none">
      <rect y="3" width="270" height="3" rx="1.5" fill="#FEC830"/>
      <rect y="3" width="139" height="3" rx="1.5" fill="#AA43A2"/>
      <circle cx="134.5" cy="4.5" r="4.5" fill="#FEC830"/>
    </symbol>
    <symbol id="difficult" viewBox="0 0 270 10" fill="none">
      <rect y="3.001" width="270" height="3" rx="1.5" fill="#FEC830"/>
      <rect y="3.001" width="209" height="3" rx="1.5" fill="#AA43A2"/>
      <circle cx="204.5" cy="4.501" r="4.5" fill="#FEC830"/>
    </symbol>
    <symbol id="pr-online" viewBox="0 0 270 3" fill="none">
      <rect width="270" height="3" rx="1.5" fill="#AA43A2"/>
    </symbol>
    <symbol id="partner-1" viewBox="0 0 39 40" fill="none">
      <path fill-rule="evenodd" clip-rule="evenodd" d="M5.79 0a3.684 3.684 0 00-3.685 3.684v24.76a6.81 6.81 0 013.685-1.076 6.81 6.81 0 013.684 1.076V3.684A3.684 3.684 0 005.789 0zM33.158 40a3.684 3.684 0 003.684-3.684v-24.76a6.81 6.81 0 01-3.684 1.076 6.81 6.81 0 01-3.684-1.076v24.76A3.684 3.684 0 0033.158 40zM19.474 0a3.684 3.684 0 00-3.685 3.684v10.338A7.074 7.074 0 0119.474 13c1.356 0 2.62.375 3.684 1.022V3.684A3.684 3.684 0 0019.474 0zm3.684 24.978A7.073 7.073 0 0119.474 26a7.074 7.074 0 01-3.685-1.022v11.338a3.684 3.684 0 007.369 0V24.978z" fill="#504C5C"/>
      <path fill-rule="evenodd" clip-rule="evenodd" d="M5.79 40a5.79 5.79 0 100-11.579A5.79 5.79 0 005.79 40zm-1.524-5.603c-.092.087-.222.13-.39.13-.2 0-.347-.072-.439-.216-.092-.143-.138-.4-.138-.773 0-.212.008-.378.025-.499.052-.38.232-.571.542-.571a.51.51 0 01.39.154c.096.102.145.25.145.441h1.12c0-.456-.147-.817-.44-1.084-.293-.267-.688-.4-1.187-.4-.368 0-.687.077-.956.232-.27.153-.476.373-.62.66a2.192 2.192 0 00-.213.989v.048c0 .597.16 1.064.482 1.402.321.337.76.506 1.318.506.475 0 .862-.13 1.162-.39.302-.26.453-.593.453-.998H4.4a.479.479 0 01-.134.369zm3.929-2.75l-.638 2.086-.606-2.086H5.676l1.332 3.735-.096.246a.418.418 0 01-.198.25c-.087.047-.215.071-.383.071h-.155v.825c.172.045.336.068.492.068.562 0 .954-.24 1.176-.718l.067-.157 1.563-4.32h-1.28zM19.474 13.684a5.79 5.79 0 100 11.579 5.79 5.79 0 000-11.579zm2.38 7.04a.93.93 0 00.112.272h1.192v-.048c-.104-.148-.158-.362-.163-.641v-1.348a.916.916 0 00-.435-.78c-.282-.19-.668-.284-1.156-.284-.488 0-.89.092-1.206.276-.313.183-.47.423-.47.717h1.192c0-.221.141-.332.424-.332.304 0 .456.14.456.42v.16h-.368c-.584 0-1.03.084-1.336.253-.306.17-.46.419-.46.749 0 .263.126.481.379.656.252.172.558.259.919.259.393 0 .7-.11.92-.33zm-.266-.423a.787.787 0 01-.368.076.467.467 0 01-.279-.079.252.252 0 01-.11-.21c0-.297.208-.446.623-.446h.346v.487a.547.547 0 01-.212.172zm-3.398-2.35l-.555.839-.537-.839h-1.252l1.004 1.483-1.06 1.562h1.251l.59-.9.602.9h1.244l-1.057-1.562 1.008-1.483H18.19zM33.158 0a5.79 5.79 0 100 11.579 5.79 5.79 0 000-11.579zm-.597 6.907c.265-.28.397-.652.397-1.118v-.045c0-.477-.129-.851-.386-1.123-.257-.274-.618-.41-1.082-.41-.366 0-.661.11-.886.332l-.035-.277h-1.095v4.155h1.171v-1.4c.223.2.507.302.852.302.448 0 .803-.14 1.064-.416zm-1.36-1.975c.39 0 .585.266.585.799v.1c-.012.513-.204.77-.577.77-.274 0-.462-.083-.564-.25v-1.18c.093-.16.279-.24.557-.24zm5.641-.666h-1.175l-1.033 1.742V4.266h-1.179v3.001h1.179l1.033-1.747v1.747h1.175V4.266z" fill="#504C5C"/>
    </symbol>
    <symbol id="partner-2" viewBox="0 0 84 34" fill="none">
      <path fill-rule="evenodd" clip-rule="evenodd" d="M84 0H0v34h84V0zM8.875 22.044h9.854v2.584H5V22.53l9.537-13.92H5.063V6h13.362v2.047l-9.55 13.997zm27.242 2.584h-3.204l-8.22-13.216v13.216H21.49V6h3.204l8.245 13.267V6h3.178v18.628zm6.211-2.635a1.47 1.47 0 00-1.126-.48c-.455 0-.83.16-1.127.48-.296.3-.444.679-.444 1.138 0 .379.098.708.296.988.198.26.455.44.77.539L39.69 29h1.423l1.245-4.132a6.44 6.44 0 00.296-.959c.08-.28.119-.539.119-.778 0-.46-.149-.839-.445-1.138zM59.674 6v12.448c0 1.98-.629 3.549-1.887 4.709-1.25 1.151-2.917 1.727-5.003 1.727-2.11 0-3.786-.567-5.028-1.702-1.24-1.143-1.861-2.725-1.861-4.746V6h3.191v12.461c0 1.246.313 2.197.937 2.853.625.657 1.545.985 2.761.985 2.466 0 3.699-1.313 3.699-3.94V6h3.191zm4.838 18.628l1.494-4.337h7.143l1.507 4.337H78L71.022 6h-2.875L61.18 24.628h3.331zm5.066-14.675l2.672 7.728h-5.344l2.672-7.728z" fill="#504C5C"/>
    </symbol>
    <symbol id="partner-3" viewBox="0 0 40 40" fill="none">
      <path fill-rule="evenodd" clip-rule="evenodd" d="M20 40c11.046 0 20-8.954 20-20S31.046 0 20 0 0 8.954 0 20s8.954 20 20 20zm-3.065-11.165h10.15c2.404 0 4.24-.418 5.51-1.252 1.268-.852 1.902-2.046 1.902-3.582 0-1.035-.283-1.92-.851-2.654-.568-.735-1.37-1.294-2.404-1.678.801-.4 1.402-.927 1.803-1.578.417-.651.626-1.386.626-2.204 0-1.385-.601-2.496-1.803-3.33-1.186-.835-2.947-1.253-5.284-1.253H16.935v6.211h-5.46v-6.21h-5.91v17.53h5.91v-6.461h5.46v6.46zm6.093-10.794v-2.604h2.754c1.286 0 1.929.434 1.929 1.302 0 .868-.643 1.302-1.929 1.302h-2.755zm5.509 5.284c0 .919-.651 1.378-1.953 1.378h-3.556v-2.755h3.556c1.302 0 1.953.459 1.953 1.377z" fill="#504C5C"/>
    </symbol>
    <symbol id="partner-4" viewBox="0 0 82 16" fill="none">
      <path d="M15.896 15.805h-2.081L10.68 6.718h-.176l-3.31 9.087h-2.08L0 .147h2.006l.276 1.514 3.91 11.97h.176l3.46-9.527L8.474.147h2.056l.376 1.685 3.962 11.798h.15L19.381 1.76l.376-1.612h1.905l-5.766 15.658zM31.113 0c2.206 0 3.895.66 5.065 1.979 1.186 1.319 1.78 3.216 1.78 5.691 0 2.671-.627 4.731-1.88 6.18-1.254 1.434-3.043 2.15-5.366 2.15-2.173 0-3.853-.684-5.04-2.052-1.17-1.368-1.755-3.314-1.755-5.838 0-2.606.619-4.609 1.856-6.01C27.026.7 28.806 0 31.113 0zm-.125 1.588c-3.343 0-5.015 2.1-5.015 6.302 0 2.231.401 3.884 1.204 4.959.819 1.075 2.047 1.612 3.685 1.612 3.343 0 5.015-2.141 5.015-6.424 0-2.183-.41-3.803-1.229-4.861-.802-1.059-2.022-1.588-3.66-1.588zM58.636 15.805h-1.805l-.376-4.764-.853-7.792h-.175l-4.463 10.748h-1.655L45.072 3.249h-.2l-.853 7.646-.426 4.91h-1.705L43.568.147h2.281l.828 2.393 3.485 8.917h.15l3.66-9.063L54.8.147h2.257l1.579 15.658zM69.82 0c2.206 0 3.894.66 5.064 1.979 1.187 1.319 1.78 3.216 1.78 5.691 0 2.671-.627 4.731-1.88 6.18C73.53 15.284 71.742 16 69.418 16c-2.172 0-3.852-.684-5.039-2.052-1.17-1.368-1.755-3.314-1.755-5.838 0-2.606.618-4.609 1.855-6.01C65.733.7 67.513 0 69.82 0zm-.126 1.588c-3.343 0-5.014 2.1-5.014 6.302 0 2.231.401 3.884 1.203 4.959.82 1.075 2.048 1.612 3.686 1.612 3.343 0 5.014-2.141 5.014-6.424 0-2.183-.41-3.803-1.228-4.861-.803-1.059-2.023-1.588-3.66-1.588zM80.897 13.655c.334 0 .602.098.802.293.2.195.301.464.301.806 0 .359-.109.644-.326.855-.2.212-.485.318-.852.318-.351 0-.627-.098-.828-.293-.184-.196-.275-.473-.275-.83 0-.343.1-.62.3-.832.218-.211.51-.317.878-.317z" fill="#504C5C"/>
    </symbol>
    <symbol id="partner-5" viewBox="0 0 40 40" fill="none">
      <path fill-rule="evenodd" clip-rule="evenodd" d="M11 0C4.925 0 0 4.925 0 11v18c0 6.075 4.925 11 11 11h18c6.075 0 11-4.925 11-11V11c0-6.075-4.925-11-11-11H11zm9.754 15a1 1 0 100-2 1 1 0 000 2zm-5.476 11.447h1.64l.09-3.828h-1.265v-8.572H9.468l-.26 4.416c-.068.925-.221 1.754-.458 2.488-.237.73-.554 1.285-.95 1.668H7l.055 3.828h1.668V24h6.555v2.447zM14.02 22.62H9.756c.674-1.043 1.073-2.502 1.196-4.375l.164-2.803h2.905v7.178zM32.303 24v-7.396h-3.233c-.903.009-1.62.234-2.154.676-.528.438-.793 1-.793 1.689 0 .46.121.868.363 1.223.246.356.597.63 1.052.82L25.794 24h1.723l1.579-2.714h1.552V24h1.654zm-4.177-4.231a.955.955 0 01-.342-.76c0-.314.121-.573.363-.779.241-.205.565-.307.97-.307h1.532v2.133h-1.634c-.36 0-.656-.096-.889-.287zm-7.387-2.019h-1.984v-1.5h3a.75.75 0 01.717.97l-1.948 6.33a1.85 1.85 0 00.315-.174c1.155-.77 2.084-1.605 2.386-1.906l1.06 1.06c-.365.365-1.37 1.264-2.614 2.094-.67.447-1.431.672-2.055.222a1.433 1.433 0 01-.503-.695 1.982 1.982 0 01-.108-.651.75.75 0 01.033-.22l1.701-5.53z" fill="#504C5C"/>
    </symbol>
    <symbol id="partner-6" viewBox="0 0 84 21" fill="none">
      <path d="M29.3 17.052h-6.305l-1.1 3.565h-4.916l7-19.085h4.325l7.052 19.085h-4.942L29.3 17.052zM24.096 13.5H28.2l-2.058-6.62-2.045 6.62zM43.509 13.067h-2.176v7.55h-4.6V1.532h4.6v7.38h1.77l3.67-7.38h5.57L47.1 10.341 53 20.617h-5.44l-4.05-7.55z" fill="#504C5C"/>
      <path d="M66.252 5.084h-5.728v15.533h-4.6V5.084H50.3V1.532h15.952v3.552zM79.4 1.532H84v19.085h-4.6V8.584l-6.856 12.033h-4.6V1.532h4.6v12.046l6.855-12.046z" fill="#504C5C"/>
      <path fill-rule="evenodd" clip-rule="evenodd" d="M18.547 4.64c-1.468-1.485-3.443-2.228-5.924-2.228V0h-4.43v2.412c-2.482 0-4.466.743-5.952 2.228A7.303 7.303 0 00.59 7.17C.197 8.157 0 9.258 0 10.473c0 2.298.738 4.168 2.215 5.61 1.477 1.442 3.47 2.163 5.977 2.163v2.412h4.43v-2.412c1.29 0 2.445-.196 3.463-.588l4.052-10.64a7.22 7.22 0 00-1.59-2.378zM5.31 7.262c.664-.77 1.568-1.154 2.713-1.154h.17v8.442c-1.25 0-2.206-.363-2.87-1.088-.664-.734-.996-1.73-.996-2.989 0-1.372.327-2.442.983-3.211zm7.314 7.288V6.108c1.258 0 2.206.39 2.844 1.167.647.769.97 1.826.97 3.172 0 1.293-.332 2.302-.996 3.028-.655.716-1.53 1.075-2.622 1.075h-.196z" fill="#504C5C"/>
    </symbol>
    <symbol id="icon-play-btn" viewBox="0 0 32 32">
      <path d="M13.762 10.756c-.989-.567-1.791-.103-1.791 1.037v8.412c0 1.141.802 1.605 1.791 1.038l7.353-4.217c.989-.568.989-1.487 0-2.055l-7.353-4.217z"/>
    </symbol>
    <symbol  id="soft-skills-line" viewBox="0 0 100 2">
<path d="M0 1H100" stroke="#AA43A2"/>
</symbol>
  </defs>
</svg>
