<?xml version="1.0" encoding="utf-8"?><svg viewBox="0 0 74 32" xmlns="http://www.w3.org/2000/svg" xmlns:xlink="http://www.w3.org/1999/xlink"><style>:root>svg{display:none}:root>svg:target{display:block}</style><svg viewBox="0 0 32 32" id="icon-close-menu" xmlns="http://www.w3.org/2000/svg"><path d="m23.959 22.043-6.23-6.193 6.089-6.089c.531-.531.531-1.385 0-1.915s-1.385-.531-1.915 0l-6.052 6.09-5.949-5.949c-.531-.531-1.385-.531-1.915 0s-.53 1.385 0 1.915l5.939 5.939-6.071 6.071c-.53.53-.531 1.385 0 1.915s1.385.53 1.915 0l6.071-6.071 6.202 6.202c.531.531 1.385.53 1.915 0s.526-1.39 0-1.916z"/></svg><svg fill="none" viewBox="0 0 74 24" id="icon-goit-logo" xmlns="http://www.w3.org/2000/svg"><g clip-path="url(#ba)"><path d="M24.814 8.932c-1.488 0-2.611 1.29-2.611 3.003 0 1.714 1.134 3.004 2.638 3.004 1.488 0 2.61-1.29 2.61-3.004 0-1.713-1.133-3.003-2.637-3.003ZM32.358 0H0v24h32.358L40 12.026 32.358 0ZM16.92 15.735l-.075.07c-1.208 1.12-2.607 1.688-4.157 1.688-1.465 0-2.788-.56-3.722-1.577-.927-1.009-1.438-2.422-1.438-3.98 0-1.497.52-2.89 1.463-3.923a4.922 4.922 0 0 1 3.686-1.634c1.604 0 2.713.426 3.834 1.468l.16.148-1.577 2.076-.163-.149c-.688-.627-1.289-.99-2.324-.99-1.373 0-2.49 1.347-2.49 3.003 0 1.758 1.109 3.034 2.637 3.034.673 0 1.271-.175 1.738-.508v-1.117h-2.084v-2.421h4.512v4.812Zm11.64.126a5.037 5.037 0 0 1-3.746 1.632c-1.444 0-2.771-.576-3.732-1.621-.947-1.03-1.468-2.426-1.468-3.937a5.931 5.931 0 0 1 .379-2.126 5.538 5.538 0 0 1 1.102-1.799 5.035 5.035 0 0 1 3.746-1.63c1.445 0 2.771.577 3.732 1.622.946 1.03 1.468 2.426 1.468 3.936a5.931 5.931 0 0 1-.38 2.125 5.534 5.534 0 0 1-1.102 1.798Z" fill="#202020"/><path fill-rule="evenodd" clip-rule="evenodd" d="M74 0H41v24h33V0ZM51 6.7h3v11.1h-3V6.7Zm5 2.181h3.122v8.932h3.256V8.881H65.5V6.65H56v2.231Z" fill="#FF6C00"/></g><defs><clipPath id="ba"><path fill="#fff" d="M0 0h74v24H0z"/></clipPath></defs></svg></svg>