<svg width="87" height="209" viewBox="0 0 87 209" fill="none" xmlns="http://www.w3.org/2000/svg">
<path d="M34.9375 8.14033C35.0225 8.44429 35.0434 8.70236 35.3102 8.94201C36.3351 9.82148 37.1778 10.9109 38.0313 11.9109C41.0614 15.49 43.7059 19.3766 44.8733 24.1024C45.8605 28.0183 45.9816 31.8979 44.3921 35.6714C44.3383 35.8274 44.2311 35.9938 44.3483 36.175C44.796 36.9331 45.2437 37.6912 45.7234 38.4722C45.5176 34.143 46.8183 30.4544 49.2515 27.1876C50.1091 26.0023 50.9988 24.8399 52.2512 24.1317C52.8506 23.7827 53.001 23.4041 53.077 22.7777C53.2838 20.7862 54.2386 19.087 54.7021 17.1332C54.9369 17.3499 54.8831 17.506 54.8829 17.6516C54.7615 19.6557 54.6296 21.6036 54.5083 23.6077C54.5077 23.8991 54.4002 24.2112 54.5922 24.4944C54.976 25.061 55.0496 25.7458 55.0911 26.4076C55.194 28.5722 55.329 30.7598 55.4104 32.9576C55.4802 35.6821 55.379 38.3813 54.7432 41.0383C54.7 41.2506 54.5714 41.4502 54.7313 41.7106C55.5245 40.6251 56.2963 39.5729 57.2069 38.6686C57.9996 37.8744 58.7283 37.0345 59.8834 36.8401C60.1508 36.7884 60.1725 36.6095 60.1622 36.4076C60.0593 34.243 61.0038 32.3418 61.4246 30.3089C61.5109 29.8845 61.5652 29.4371 61.8549 28.915C62.0457 29.781 61.9054 30.5072 61.872 31.2127C61.7917 34.17 61.5938 37.0919 62.358 40.1189C63.3028 43.81 62.9108 47.614 61.9737 51.3196C61.909 51.5651 61.716 51.8646 61.8651 52.2144C63.2578 50.78 64.6822 49.5141 66.3733 48.6337C68.1928 47.6992 69.56 48.4833 69.6523 50.5917C69.8261 54.898 69.8823 59.1688 69.0939 63.3699C68.1975 68.1744 66.276 72.2452 61.8557 74.5273C61.6309 74.6582 61.5451 74.7913 61.6195 75.0391C62.0341 76.357 62.4166 77.6519 62.8097 79.0031C63.1094 78.8286 63.035 78.5809 63.0782 78.3686C63.6608 75.5763 64.8203 73.051 66.4712 70.7802C68.1755 68.4991 70.232 66.6158 72.747 65.4012C74.6734 64.4461 75.9977 65.2967 76.0578 67.5279C76.0985 68.6268 76.0643 69.7694 75.9981 70.889C75.8398 75.4925 75.2113 79.954 73.311 84.1371C73.0748 84.6489 72.8601 85.1273 72.5918 85.6161C73.7484 84.6933 74.8622 83.6915 76.0399 82.8811C76.7037 82.4323 77.3889 81.9503 78.1591 81.7722C79.3572 81.5113 80.2862 82.1763 80.4442 83.4564C80.5286 84.0518 80.4741 84.6449 80.3875 85.215C79.7596 89.3851 78.7575 93.4819 77.2427 97.3575C76.179 100.097 74.763 102.585 72.877 104.785C71.784 106.045 70.435 106.975 69.2033 108.087C69.064 108.231 68.8287 108.306 68.8816 108.587C69.0399 109.721 69.1768 110.889 69.335 112.023C69.3885 112.013 69.4205 112.036 69.506 112.048C69.6241 111.793 69.7208 111.57 69.8389 111.314C70.3973 110.012 71.0518 108.778 71.8666 107.66C74.6327 103.659 78.5296 101.099 82.6716 98.958C82.8963 98.8271 83.1637 98.7754 83.4311 98.7237C84.4153 98.5042 85.2482 99.1004 85.4708 100.135C85.5555 100.585 85.5547 101.022 85.5004 101.469C85.2605 104.02 84.967 106.582 84.417 109.106C83.4893 113.451 81.8246 117.413 78.5364 120.409C76.405 122.336 74.0073 123.731 71.1307 123.909C70.4998 123.944 70.4566 124.156 70.4984 124.672C71.081 133.356 71.1612 142.02 70.7709 150.688C70.7491 150.867 70.6525 151.089 70.9088 151.273C70.9411 151.15 70.984 151.084 71.0163 150.961C72.8471 143.908 75.2549 137.121 78.4106 130.627C80.085 127.158 82.4637 124.484 85.7283 122.688C86.4027 122.295 86.5946 122.578 86.6576 123.207C86.7103 123.634 86.7309 124.037 86.6981 124.452C86.6639 125.594 86.5762 126.747 86.51 127.867C85.8731 136.844 84.3279 145.561 81.3182 154.007C78.9857 160.604 75.7024 166.715 72.5473 172.918C70.4439 177.053 68.5862 181.315 67.2947 185.788C66.5951 188.254 65.7995 190.65 65.2494 193.174C64.3652 197.161 62.7331 200.855 60.8873 204.445C60.2219 205.768 59.4819 206.989 58.4641 208.06C58.6796 207.144 58.9272 206.252 59.1962 205.326C61.747 196.357 62.9401 187.242 61.7494 177.831C60.7798 170.184 57.9803 163.415 52.6977 157.883C51.2464 156.358 49.6557 154.976 47.915 153.827C47.7754 154.116 47.8713 154.331 47.9351 154.522C49.6949 162.687 51.1338 170.914 52.0593 179.211C52.5746 183.859 52.983 188.527 52.6749 193.218C52.6423 193.486 52.7273 193.79 52.4593 194.133C52.1406 193.03 51.8751 192.062 51.599 191.038C51.1638 189.316 50.3756 187.633 50.2079 185.86C49.8397 182.582 49.525 179.293 49.1034 176.025C48.0489 168.073 46.5986 160.228 44.8488 152.411C44.7639 152.107 44.6895 151.859 44.3797 151.686C41.335 150.236 38.1934 149.154 34.7714 149.379C33.2956 149.49 31.7883 149.286 30.3012 149.778C31.2247 147.618 31.9346 145.355 33.3387 143.54C35.2573 141.071 37.9219 139.915 40.8419 139.379C41.3233 139.286 41.5907 139.235 41.4101 138.57C39.8062 132.851 38.0738 127.186 36.1061 121.596C35.9785 121.213 35.8724 120.797 35.6163 120.467C35.4244 120.184 35.3068 120.149 35.0392 120.346C33.3473 121.664 31.4442 121.566 29.5313 120.975C26.7956 120.135 24.6069 118.374 22.8148 116.07C20.404 112.982 19.2667 109.299 18.3863 105.509C18.174 104.676 17.8756 104.122 17.1386 103.74C15.3226 102.781 14.3208 100.994 13.1048 99.394C14.6322 100.293 16.1167 101.258 17.6012 102.223C17.8254 102.384 18.0494 102.69 18.392 102.449C18.9594 102.077 19.4937 102.265 20.06 102.476C23.6609 103.789 27.0151 105.558 30.2618 107.639C30.454 107.776 30.6245 108.093 30.9777 107.908C30.2751 106.238 29.6045 104.591 28.8913 102.865C27.4131 104.287 25.7771 104.283 24.0568 103.684C23.6721 103.554 23.3088 103.391 22.9456 103.229C21.3644 102.486 19.9335 101.51 18.6097 100.368C15.7485 97.9797 13.2837 95.1943 11.7077 91.6835C11.5266 91.3107 11.2598 91.0711 10.918 90.8751C8.96304 89.9134 7.70469 88.0888 5.97506 86.7048C6.47785 86.5785 6.76616 86.7848 7.04389 86.935C8.21887 87.5815 9.47967 88.095 10.5154 88.885C11.7753 89.8355 13.07 89.352 14.374 89.6532C14.2567 89.472 14.1286 89.3803 14.0004 89.2886C11.0532 87.179 8.43796 84.7721 6.79763 81.3612C6.66976 81.1238 6.47754 80.9862 6.28532 80.8486C4.80112 79.7376 3.68127 78.2066 2.44357 76.7858C2.40095 76.7066 2.2728 76.6149 2.42266 76.5277C2.77558 76.4885 3.04246 76.7282 3.29874 76.9116C4.37735 77.6351 5.40245 78.3688 6.48105 79.0922C6.64123 79.2069 6.83317 79.4902 7.04737 79.3031C7.78635 78.665 8.70561 78.8368 9.61481 78.6609C8.48326 77.6564 7.39433 76.7311 6.54105 75.5854C5.04761 73.6898 3.73605 71.7298 3.4841 69.2154C3.44201 68.8449 3.20719 68.6282 2.97236 68.4115C2.03329 67.3989 1.53321 66.0684 0.82979 64.8355C1.54569 65.1048 2.05798 65.6174 2.6452 66.0864C3.36056 66.647 3.89323 67.7091 5.05952 67.2796C5.16649 67.2589 5.31607 67.3174 5.44421 67.4091C7.20695 68.2332 9.14208 68.3541 10.9792 69.4259C10.0209 67.2812 8.8266 65.5024 8.29584 63.4206C7.44635 60.2353 6.68237 57.0626 7.55462 53.7482C7.61923 53.5027 7.51283 53.232 7.47047 53.0072C7.02496 51.0836 6.98586 49.1106 6.77572 47.1123C7.50032 48.4577 8.14998 49.8466 8.51079 51.3205C8.78663 52.4905 9.45883 53.2634 10.3129 53.972C13.1635 56.3042 15.1146 59.3055 16.4876 62.7682C17.1049 64.2798 17.4869 65.8662 17.302 67.5331C17.1606 68.842 16.6027 69.8528 15.3615 70.3259C15.1581 70.4235 14.9122 70.4419 15.1147 70.7814C15.4771 71.3812 15.7646 72.0246 16.309 72.5602C17.0528 69.2997 18.6399 66.8374 21.4334 65.3358C21.6368 65.2383 21.7226 65.1052 21.7337 64.87C21.7883 64.2769 22.078 63.7549 22.3462 63.2661C22.8074 62.4778 23.0764 61.552 23.7834 60.891C23.6631 62.3123 23.4468 63.6649 23.2089 65.0507C23.1655 65.4086 23.1435 65.7333 23.3461 66.0727C25.1797 69.0385 26.2322 72.2719 26.3433 75.8039C26.3322 76.039 26.2141 76.2949 26.5024 76.5013C27.1238 75.8277 27.5639 74.927 28.5586 74.7637C28.7725 74.7224 28.7196 74.4413 28.7413 74.2624C28.9587 72.3271 30.2445 70.9133 30.9536 69.0868C31.1987 69.5054 31.0057 69.8049 30.9731 70.0733C30.7136 71.6381 30.3686 73.1903 30.1946 74.7677C30.1294 75.3046 30.1927 75.7875 30.4055 76.3289C31.0014 77.8738 31.501 79.4957 31.8935 81.1383C32.3602 83.1742 32.613 85.2516 32.6195 87.4931C33.8303 86.1229 34.5603 84.5545 35.8776 83.4551C35.9739 83.3782 35.9957 83.1992 36.028 83.0765C36.449 80.8979 37.6606 79.0907 38.4129 77.052C38.2818 78.5628 38.0437 80.0943 37.827 81.5925C37.6433 82.6766 37.267 83.7689 38.0136 84.7895C38.0883 84.8916 38.12 85.0602 38.1197 85.2059C38.689 89.5522 39.0339 93.8836 37.9352 98.203C37.9029 98.3258 37.8171 98.4589 37.9988 98.5402C38.706 97.7335 39.3065 96.8018 40.1098 96.0639C41.5342 94.7981 43.0304 95.2369 43.3475 97.2144C44.0773 101.53 44.39 105.838 43.5159 110.172C42.8038 113.601 41.3976 116.582 38.635 118.689C38.1531 119.074 38.035 119.33 38.2584 119.927C40.3006 125.765 42.1928 131.691 43.7962 137.701C44.0511 138.613 44.3821 138.899 45.291 138.868C50.7337 138.777 55.5311 140.703 59.5657 144.612C63.0664 148.042 65.3575 152.259 66.9099 156.969C67.1224 157.656 67.335 158.343 67.5796 159.053C67.8047 158.776 67.7838 158.518 67.7949 158.283C68.5401 148.556 68.7078 138.854 68.2554 129.096C68.1729 127.481 68.0583 125.843 67.9758 124.228C67.9443 123.914 67.9769 123.645 67.5493 123.582C63.7545 123.006 60.6788 120.95 58.0001 118.206C54.158 114.289 52.1784 109.371 51.2368 103.931C51.1839 103.65 51.163 103.392 50.9282 103.175C49.4336 101.863 48.5923 100.045 47.5796 98.3473C47.4944 98.189 47.2702 98.0285 47.4097 97.7394C47.6983 97.8001 47.8796 98.0272 48.0504 98.198C49.2672 99.3607 50.484 100.523 51.6259 101.73C51.9994 102.094 52.288 102.155 52.727 101.837C50.2828 99.4556 48.8876 96.4632 47.5782 93.3378C47.1737 92.3674 46.7372 91.3742 46.3112 90.4372C46.0131 89.7375 45.6295 89.0253 45.6738 88.2303C45.6849 87.9951 45.5782 87.8702 45.418 87.7555C44.2224 86.7052 43.2304 85.4116 42.1526 84.2511C41.8325 83.8761 41.384 83.5551 41.1712 83.0137C41.5884 82.8747 41.8339 83.1477 42.0902 83.3311C42.9977 84.0294 44.0232 84.6175 44.8129 85.4259C46.0723 86.6678 47.5261 86.8817 49.1941 86.9086C48.7564 86.4981 48.3188 86.0876 47.9667 85.6897C44.9255 82.3458 42.73 78.4888 41.5086 74.0648C41.4342 73.817 41.2955 73.6691 41.1138 73.5877C39.426 72.72 38.2207 71.1764 36.7579 70.0321C36.6618 69.9633 36.4802 69.882 36.5339 69.7259C36.5771 69.5137 36.7801 69.5618 36.9191 69.564C37.0902 69.5892 37.2932 69.6373 37.4534 69.752C38.8635 70.4695 40.2627 71.2766 41.6191 72.1502C41.8113 72.2878 42.0032 72.571 42.26 72.4631C42.9664 72.0935 43.7684 72.084 44.5915 72.1869C44.5063 72.0286 44.4957 71.9724 44.4957 71.9724C41.5167 69.6942 38.9126 67.0522 36.598 64.0338C36.4486 63.8297 36.235 63.7254 35.9893 63.5981C35.0065 63.0892 33.9808 62.6468 33.0195 62.1046C31.7805 61.4122 30.4876 60.8758 29.3132 59.9379C29.7416 59.5638 30.1583 59.7162 30.511 59.8227C32.4879 60.4598 34.4863 61.0635 36.3343 62.0459C36.548 62.1502 36.7508 62.344 36.997 62.1799C38.2496 61.3259 39.7034 61.5399 41.1257 61.4396C41.8101 61.3946 42.4837 61.439 43.3711 61.4421C43.0614 61.269 42.9973 61.2232 42.8798 61.1877C38.4565 59.3345 34.5482 56.5369 30.8758 53.3734C29.883 52.5169 28.8791 51.8955 27.725 51.507C27.4258 51.3902 27.1052 51.3065 26.806 51.1896C25.2566 50.6155 23.7073 50.0414 22.1045 49.4776C22.5011 48.9349 22.9607 49.0207 23.3883 49.0837C25.5691 49.3318 27.7497 49.7255 29.7796 50.6436C30.0253 50.7709 30.2389 50.8752 30.5281 50.6445C30.9885 50.2933 31.5553 50.2128 32.0902 50.1093C33.2988 49.9047 34.4754 49.6771 35.6626 49.5057C35.6099 49.079 35.4069 49.0309 35.2467 48.9162C33.6981 47.9051 32.3318 46.6839 31.1047 45.3193C28.8744 42.8962 27.0296 40.1656 25.0136 37.5555C24.8322 37.3284 24.6403 37.0452 24.6515 36.81C24.6319 35.8235 23.9374 35.5209 23.2644 35.185C22.9226 34.989 22.5273 34.8033 22.207 34.574C20.8612 33.7566 19.6762 32.7625 18.3308 31.7994C18.8338 31.5274 19.1865 31.6339 19.5391 31.7405C21.4414 32.2754 23.1183 33.2327 24.7844 34.2794C25.0622 34.4295 25.2756 34.6795 25.65 34.6071C26.88 34.3692 28.0987 34.5121 29.3174 34.6551C34.0105 35.1454 38.5636 36.2162 42.6646 38.8599C42.7287 38.9058 42.7928 38.9517 42.868 38.7624C42.4844 38.0501 42.0902 37.2817 41.4068 36.7439C39.0577 35.0138 37.03 32.9303 35.2059 30.6034C33.211 28.1057 31.6977 25.3692 30.9337 22.1965C30.0213 18.3827 30.7551 14.7746 32.1089 11.2215C32.4097 10.4642 32.5824 9.61528 33.1289 8.9853C33.4289 8.66513 33.4508 8.34048 33.3447 7.92411C32.973 6.53966 32.7618 5.12419 32.7431 3.7006C32.7346 2.4789 32.6407 1.24462 32.6002 -6.48896e-06C33.536 2.76079 34.2582 5.41729 34.9375 8.14033ZM14.7153 67.043C14.8025 66.1815 14.6222 65.3717 14.3885 64.5723C13.4958 61.5992 11.9608 59.0417 9.83702 56.8893C10.0447 60.1988 10.5413 63.4231 12.4715 66.1663C12.8554 66.7329 13.3036 67.1996 13.8697 67.5561C14.4145 67.8003 14.6928 67.6591 14.7153 67.043ZM14.4743 75.9151C14.1553 74.9574 13.5366 74.1741 12.8001 73.501C10.9746 71.9026 8.82719 70.949 6.36918 70.2594C7.27404 72.4145 8.54351 74.0039 10.0592 75.4292C10.9665 76.2732 11.9381 77.0173 13.1242 77.4287C13.541 77.5811 14.0538 77.8023 14.3967 77.4156C14.8145 76.9852 14.6551 76.4335 14.4743 75.9151ZM23.3008 78.9264C24.0096 77.2456 23.9488 75.4515 23.6955 73.6655C23.4528 71.9357 22.8677 70.3013 22.2077 68.7104C22.0055 68.2253 21.7918 68.121 21.3955 68.518C20.8598 69.0585 20.3562 69.6219 19.981 70.1314C18.1257 73.0826 18.5034 76.9999 20.7765 79.3564C21.8652 80.4274 22.6995 80.2952 23.3008 78.9264ZM15.0331 80.2052C16.4643 81.0351 17.7566 81.8629 18.9631 82.8237C19.006 82.7572 19.0594 82.7468 19.1023 82.6803C18.3989 81.4474 17.7061 80.2707 17.0027 79.0378C16.8748 78.8004 16.7358 78.7981 16.5856 79.031C16.2319 79.5072 15.718 79.8688 15.0331 80.2052ZM10.3264 81.2612C10.1768 81.2027 10.0272 81.1443 9.813 81.3313C10.6872 82.7351 11.8291 83.9415 13.0353 85.048C14.7111 86.5879 16.5051 87.872 18.6316 88.5675C19.1339 88.7325 19.8389 89.0913 20.1177 88.6587C20.45 88.2158 19.8951 87.6241 19.5644 87.1929C17.1322 84.139 14.0137 82.1499 10.3264 81.2612ZM23.6149 82.5065C23.1121 82.6329 22.7163 82.7385 22.267 82.8546C22.3202 82.9899 22.3734 83.1253 22.4267 83.2606C22.6504 83.7125 22.8955 84.1311 23.2365 84.7642C23.3771 83.8923 23.4531 83.2659 23.6149 82.5065ZM29.912 88.7158C30.5174 85.1618 29.7645 81.7539 28.6379 78.1271C26.3862 81.4753 24.99 84.8037 26.4903 88.7951C26.7669 89.5281 27.1719 90.207 27.7163 90.7425C28.3247 91.3239 28.7631 91.2973 29.2135 90.5985C29.5995 89.9996 29.7825 89.3525 29.912 88.7158ZM20.6148 91.5918C21.9929 92.2864 23.3709 92.9811 24.8239 93.6321C24.1634 92.3326 23.5563 91.0228 22.8106 89.5651C22.3485 90.7904 21.6098 91.2828 20.6148 91.5918ZM28.9485 95.077C29.2825 93.76 29.2825 93.76 27.8387 93.8936C27.9345 94.1081 28.009 94.3559 28.1368 94.5933C28.2859 94.9431 28.4564 95.2596 28.7333 95.8469C28.8196 95.4224 28.8733 95.2663 28.9485 95.077ZM26.695 99.445C26.2691 98.508 25.5754 97.7683 24.796 97.1618C21.9986 94.965 18.8041 93.6023 15.47 92.5287C15.3844 92.5161 15.3095 92.5597 15.2026 92.5804C16.1726 94.1986 17.3676 95.5403 18.6591 96.8051C20.3561 98.4575 22.2033 99.8769 24.3508 100.831C24.682 100.97 25.0666 101.1 25.4408 101.173C25.9324 101.282 26.5202 101.459 26.8419 100.96C27.2171 100.451 26.9508 99.9199 26.695 99.445ZM35.6059 97.3137C36.3066 94.2655 36.2161 91.1373 35.9438 88.0734C35.9332 88.0172 35.8906 87.9381 35.7733 87.7569C33.9183 90.5623 31.8605 93.174 31.266 96.6386C30.9524 98.5051 31.0773 100.345 32.2612 101.922C32.8479 102.682 32.9334 102.695 33.4908 101.975C34.5626 100.603 35.2071 99.0219 35.6059 97.3137ZM34.716 104.36C34.1166 104.709 33.6241 105.037 33.1531 105.332C32.9283 105.463 32.96 105.631 33.0238 105.823C33.2261 106.308 33.4284 106.793 33.6944 107.47C34.0707 106.378 34.3612 105.419 34.716 104.36ZM29.7968 110.467C27.1381 108.418 24.2647 106.847 21.081 105.395C22.249 109.829 23.6743 113.865 27.2405 116.612C28.6072 117.687 30.1134 118.474 31.8775 118.569C33.631 118.609 34.3599 117.623 33.9141 115.845C33.6595 114.788 33.1906 113.917 32.5398 113.111C31.7077 112.078 30.8004 111.234 29.7968 110.467ZM40.2079 112.327C41.2495 109.912 41.5324 107.294 41.5373 104.671C41.5514 102.834 41.405 101.027 41.1094 99.0163C39.5983 100.852 38.4508 102.705 37.5169 104.663C36.7869 106.231 36.3026 107.927 35.9893 109.648C35.5359 111.949 36.1202 114.02 37.0039 116.063C37.2167 116.604 37.4312 116.272 37.6454 116.085C38.7487 115.027 39.5637 113.762 40.2079 112.327ZM60.4225 149.602C56.85 144.468 52.0007 141.677 45.8848 141.579C44.8263 141.551 43.7349 141.936 42.6764 141.908C40.2919 141.903 38.1733 142.721 36.3527 144.238C35.5603 144.887 34.9066 145.683 34.2955 146.558C34.6587 146.721 34.969 146.603 35.2684 146.574C38.3158 146.567 41.2232 147.141 43.947 148.653C45.5278 149.541 47.2159 150.263 48.7753 151.185C51.8195 152.926 54.3277 155.354 56.536 158.102C61.2726 163.972 63.6763 170.847 64.5926 178.359C64.6241 178.673 64.5701 178.975 64.8047 179.338C65.4606 177.376 65.8919 175.399 66.1202 173.374C66.9596 164.736 65.392 156.709 60.4225 149.602ZM72.3086 157.527C71.391 162.219 70.7514 166.915 70.0049 171.633C69.9832 171.812 69.9829 171.957 69.95 172.371C74.5429 163.502 79.0606 154.823 81.3882 145.11C82.8105 139.272 83.6342 133.345 84.0623 127.379C84.0625 127.233 84.0843 127.054 84.0636 126.65C82.8952 128.245 81.9835 129.732 81.1894 131.255C76.8971 139.513 74.1006 148.355 72.3086 157.527ZM51.2536 43.1114C51.8335 41.7759 52.2102 40.3923 52.4375 38.9503C53.054 35.161 52.7295 31.3791 52.4586 27.5868C50.1339 29.9588 48.6958 32.7709 48.4008 36.2067C48.2254 38.5125 48.5848 40.7149 49.2438 42.8884C49.2758 42.9114 49.2544 42.9447 49.2864 42.9676C49.5739 43.611 49.8826 44.3669 50.4703 44.5444C50.7589 44.6051 51.0494 43.646 51.2536 43.1114ZM48.4907 51.1022C48.8111 51.3315 49.0779 51.5712 49.3986 51.6548C49.3149 50.6224 49.2829 50.5995 48.4907 51.1022ZM59.2469 51.4102C60.2799 47.919 60.5003 44.3812 59.951 40.7301C59.9193 40.5614 59.8875 40.3928 59.8557 40.2242C59.8451 40.168 59.7705 40.0659 59.6958 39.9639C58.7535 40.6995 58.0355 41.5957 57.3815 42.5378C54.2193 46.7903 53.0772 51.4676 55.1418 56.6897C55.195 56.825 55.2803 56.9833 55.3441 57.1749C55.5355 57.7495 55.7386 57.7976 56.1458 57.3111C57.6031 55.6311 58.5799 53.6072 59.2469 51.4102ZM57.9061 59.4463C56.5891 60.4001 56.5028 60.8246 57.4193 62.4532C57.5817 61.4023 57.7331 60.441 57.9061 59.4463ZM54.2025 61.5608C53.4201 62.5568 52.4783 63.0011 51.3981 63.1518C52.9043 63.9381 54.325 64.7119 55.7989 65.621C55.2453 64.3009 54.7452 62.9704 54.2025 61.5608ZM65.6779 66.1277C66.473 64.0224 66.8086 61.8313 66.9945 59.5817C67.213 57.0636 67.175 54.5078 67.169 51.975C67.1587 51.7731 67.2662 51.461 67.0311 51.39C66.9136 51.3545 66.7208 51.5082 66.5495 51.6288C64.8579 52.8006 63.4437 54.2684 62.2536 56.0423C60.0125 59.4467 59.6526 63.2737 60.0728 67.2701C60.188 68.6168 60.517 69.9221 60.6856 71.2585C60.7803 72.0557 61.1012 71.9936 61.6151 71.6321C63.5209 70.2731 64.829 68.3891 65.6779 66.1277ZM59.4675 76.5621C59.3825 76.2582 59.2006 76.3225 59.0508 76.4097C58.1625 76.8437 57.1895 76.828 56.2056 76.9018C57.6795 77.8109 59.0033 78.953 60.4983 79.9745C60.1155 78.8252 59.7968 77.7218 59.4675 76.5621ZM71.2504 82.4677C72.8934 78.6838 73.3715 74.601 73.5395 70.4907C73.5729 69.7852 73.5848 69.113 73.5862 68.3846C73.5971 68.2951 73.5544 68.216 73.512 67.9911C70.8572 69.6406 68.7256 71.7131 67.2876 74.5253C65.034 78.8933 64.6938 83.5611 65.5295 88.4384C65.646 89.0567 65.8491 89.1048 66.288 88.7869C68.6431 87.3119 70.123 85.0159 71.2504 82.4677ZM61.191 92.7728C62.1623 93.6626 63.1231 94.4962 64.1048 95.5879C64.0426 94.5222 63.7768 93.6998 63.618 92.8567C63.5651 92.5757 63.3726 92.5838 63.1907 92.6481C62.5704 92.739 61.8968 92.6945 61.191 92.7728ZM69.3653 89.9684C68.6695 90.3942 68.0483 90.9221 67.374 91.3147C66.9779 91.5661 66.2403 91.4757 66.1537 92.0459C66.0459 92.5037 66.3657 93.0243 66.4289 93.5072C66.5557 94.3274 66.629 95.1579 66.7344 96.0113C66.8734 96.0136 66.9803 95.9929 67.1193 95.9951C67.551 93.8728 68.3353 91.8569 69.3653 89.9684ZM76.6343 91.0382C77.1511 89.0741 77.5825 87.0974 77.8963 85.0852C72.3538 87.1476 67.5217 98.1309 69.3917 104.527C70.6231 103.56 71.6198 102.377 72.4882 101.102C74.5148 98.0308 75.6974 94.5981 76.6343 91.0382ZM66.2637 107.637C66.2534 107.435 66.1896 107.243 65.9651 107.228C65.1311 107.215 64.2865 107.145 63.2814 107.107C64.5197 108.236 65.5657 109.228 66.6329 110.332C66.517 109.423 66.4011 108.513 66.2637 107.637ZM70.5708 120.202C70.6653 121.145 70.8361 121.316 71.7453 121.14C73.3177 120.806 74.7091 120.1 75.994 119.124C78.5639 117.17 80.1941 114.496 81.2371 111.352C82.2478 108.331 82.6279 105.2 82.9867 101.955C76.2228 105.332 71.8185 110.494 70.6705 118.377C70.5304 118.957 70.5079 119.573 70.5708 120.202ZM60.3123 116.798C62.2016 118.588 64.3268 120.011 66.7848 120.701C67.7252 120.985 67.6931 120.962 67.6736 119.976C67.6708 115.695 65.3347 112.71 62.5276 110.019C60.2221 107.786 57.4769 106.307 54.5812 105.207C54.4637 105.171 54.3996 105.125 54.2606 105.123C54.2286 105.1 54.1536 105.144 54.0467 105.165C55.1182 109.676 56.95 113.661 60.3123 116.798ZM55.0818 100.508C57.9107 103.019 61.2231 104.272 64.8688 104.499C65.8204 104.548 65.7883 104.525 65.405 103.667C65.3518 103.531 65.288 103.34 65.2562 103.171C64.9087 100.297 63.2979 98.2197 61.3232 96.4172C57.7578 93.2329 53.6019 91.328 49.1993 89.8786C49.1138 89.866 49.0603 89.8763 48.8678 89.8844C50.5608 93.7221 51.89 97.6884 55.0818 100.508ZM54.0908 87.1557C56.0455 88.2631 58.0219 89.1915 60.1807 89.7642C60.8755 89.9211 61.5596 90.0218 62.2226 90.0101C62.7465 89.9961 62.9713 89.8653 62.8443 89.1908C62.2291 86.5136 61.1534 84.1876 59.0717 82.4058C54.8762 78.8192 50.101 76.4223 44.8858 74.9261C44.7683 74.8906 44.6293 74.8884 44.3728 74.8506C46.416 80.106 49.3162 84.4675 54.0908 87.1557ZM40.522 64.1195C40.4365 64.1069 40.3615 64.1505 40.1796 64.2148C42.484 67.0313 45.0995 69.2925 48.0901 71.0442C50.1836 72.2995 52.395 73.2989 54.7998 73.8532C55.6656 74.0353 56.5314 74.2174 57.4191 74.0748C58.2319 73.9758 58.3718 73.541 57.9776 72.7726C56.7314 70.13 54.9603 68.0842 52.4607 66.7327C49.16 64.9536 45.6649 64.2024 42.0404 64.088C41.5379 64.0686 41.0459 64.1055 40.522 64.1195ZM35.7935 53.8785C39.6589 56.7426 43.7604 59.095 48.4204 60.1451C49.1152 60.302 49.8528 60.3923 50.5478 60.4036C51.6812 60.3882 52.0239 60.1472 52.4107 59.1112C52.4968 58.8324 52.3475 58.6283 52.2516 58.4138C51.5487 56.8895 50.4604 55.6728 49.1684 54.6994C45.4846 51.9167 38.4507 50.9179 34.085 52.607C34.6937 53.0427 35.2168 53.4658 35.7935 53.8785ZM34.2935 38.2655C32.3054 37.8636 30.3173 37.4617 28.1042 37.3364C30.2375 40.1277 32.1143 42.8812 34.6122 45.1069C37.0461 47.2866 39.8451 48.6094 43.0201 48.9856C44.2708 49.1514 45.5326 49.0821 46.7521 48.788C47.3084 48.6513 47.3516 48.439 47.0638 47.9413C44.015 42.9386 40.0226 39.4001 34.2935 38.2655ZM34.3839 12.5581C32.6972 16.8456 32.4969 21.0786 34.7345 25.3061C36.4074 28.4486 38.5731 31.1172 41.1028 33.5114C41.1668 33.5573 41.2094 33.6364 41.2735 33.6823C41.8181 34.0721 42.3318 33.8563 42.5042 33.153C43.302 29.5908 42.9235 26.1106 41.6467 22.7167C40.1571 18.7814 37.6396 15.5693 34.9508 12.4776C34.6948 12.1485 34.5558 12.1462 34.3839 12.5581Z" fill="#9CC3FF"/>
</svg>
