<svg width="99" height="211" viewBox="0 0 99 211" fill="none" xmlns="http://www.w3.org/2000/svg">
<path d="M72.234 8.01799C72.0998 8.31773 72.0386 8.58011 71.7271 8.7857C70.5371 9.53315 69.5023 10.5247 68.4701 11.4226C64.8013 14.6398 61.4819 18.233 59.5537 22.9168C57.9355 26.795 57.2142 30.769 58.2696 34.8969C58.3009 35.0657 58.3857 35.2535 58.2371 35.4219C57.6598 36.1332 57.0825 36.8445 56.4687 37.5745C57.3463 33.1508 56.5751 29.1548 54.5734 25.4186C53.8731 24.0668 53.1363 22.7338 51.9564 21.8123C51.3932 21.3609 51.2967 20.9481 51.3148 20.2918C51.4082 18.2105 50.6869 16.3149 50.5105 14.233C50.2355 14.4199 50.2668 14.5887 50.2447 14.7387C50.0613 16.8198 49.8975 18.8447 49.7141 20.9259C49.6699 21.2258 49.7325 21.5635 49.4914 21.8255C49.0092 22.3495 48.8282 23.0429 48.6836 23.7177C48.2448 25.9296 47.7695 28.16 47.3476 30.4094C46.8568 33.2025 46.5458 35.9959 46.7914 38.8281C46.8032 39.0532 46.9049 39.2785 46.7003 39.5218C46.0509 38.2827 45.4185 37.0811 44.6205 36.0104C43.9268 35.0712 43.3061 34.0947 42.1472 33.7171C41.8799 33.6227 41.8851 33.4352 41.9268 33.229C42.3656 31.0172 41.686 28.9154 41.5656 26.7585C41.5421 26.3084 41.555 25.8396 41.3372 25.2578C41.0076 26.1197 41.0404 26.8886 40.9662 27.6198C40.594 30.6757 40.3483 33.7131 39.0962 36.7107C37.5562 40.364 37.3745 44.3392 37.769 48.2969C37.7978 48.5595 37.9504 48.8973 37.7432 49.2344C36.5305 47.544 35.2593 46.0222 33.6544 44.8559C31.9256 43.6144 30.398 44.2111 29.9787 46.3667C29.1375 50.7717 28.4228 55.1583 28.588 59.603C28.7715 64.6854 30.123 69.1702 34.321 72.1988C34.5322 72.368 34.6 72.5182 34.4853 72.7617C33.856 74.0543 33.2632 75.3281 32.6508 76.6582C32.3692 76.4325 32.4838 76.189 32.4721 75.9639C32.302 73.0006 31.4971 70.2235 30.1474 67.6326C28.7442 65.0229 26.9175 62.7685 24.516 61.1316C22.6804 59.8524 21.1867 60.5241 20.7818 62.8111C20.5708 63.9357 20.4303 65.1168 20.3262 66.2793C19.7811 71.0412 19.7416 75.7293 21.054 80.3266C21.2183 80.8896 21.3657 81.415 21.5666 81.9592C20.5183 80.8318 19.5261 79.6294 18.4387 78.6143C17.8246 78.0504 17.1936 77.4489 16.4283 77.1471C15.2355 76.6944 14.1772 77.2359 13.8177 78.529C13.6392 79.1287 13.6041 79.7474 13.6055 80.3475C13.6104 84.7357 14.0115 89.1059 14.9744 93.3274C15.6476 96.3106 16.7223 99.0884 18.3249 101.642C19.2559 103.107 20.5011 104.273 21.5976 105.606C21.7189 105.775 21.9496 105.888 21.8519 106.17C21.5146 107.313 21.1941 108.493 20.8567 109.637C20.8033 109.618 20.7668 109.636 20.6769 109.636C20.5947 109.355 20.5294 109.111 20.4473 108.829C20.0729 107.403 19.589 106.033 18.9226 104.757C16.6913 100.213 13.0746 96.9799 9.1412 94.1395C8.92999 93.9703 8.66277 93.8759 8.39552 93.7816C7.41649 93.4043 6.4676 93.8898 6.07936 94.9203C5.92303 95.37 5.85663 95.82 5.84369 96.2887C5.69825 98.9513 5.60629 101.633 5.78413 104.315C6.07057 108.929 7.17427 113.263 10.0976 116.851C11.9947 119.162 14.2476 120.967 17.1807 121.593C17.8247 121.725 17.8364 121.95 17.714 122.475C15.7788 131.322 14.3637 140.226 13.4323 149.207C13.4271 149.394 13.4923 149.638 13.2004 149.788C13.186 149.656 13.1521 149.581 13.1377 149.45C12.3384 141.91 10.9042 134.555 8.65543 127.387C7.4658 123.559 5.42904 120.441 2.34568 118.09C1.71205 117.583 1.47097 117.845 1.30946 118.482C1.18963 118.913 1.10627 119.325 1.07638 119.756C0.935843 120.938 0.848742 122.137 0.744703 123.3C0.0192847 132.637 0.268924 141.845 2.06712 151.001C3.45298 158.148 5.892 164.942 8.18506 171.811C9.71376 176.39 10.97 181.062 11.6111 185.864C11.9519 188.509 12.4021 191.098 12.58 193.78C12.8768 198.019 13.9882 202.072 15.3356 206.05C15.8169 207.514 16.3908 208.884 17.2735 210.143C17.1925 209.167 17.075 208.211 16.9405 207.217C15.6949 197.594 15.8689 188.03 18.5418 178.529C20.7158 170.807 24.638 164.271 30.9253 159.391C32.6535 158.045 34.503 156.867 36.4711 155.953C36.5703 156.272 36.4386 156.478 36.3435 156.665C33.2767 164.797 30.5306 173.042 28.302 181.438C27.0568 186.142 25.9185 190.884 25.5141 195.759C25.5063 196.04 25.3721 196.34 25.5951 196.734C26.0928 195.648 26.515 194.692 26.9567 193.681C27.6694 191.976 28.7392 190.365 29.1847 188.566C30.0678 185.249 30.8974 181.913 31.834 178.614C34.1422 170.593 36.8415 162.742 39.8445 154.966C39.9787 154.667 40.0933 154.423 40.4388 154.293C43.7952 153.269 47.1946 152.639 50.6818 153.397C52.1835 153.738 53.766 153.76 55.2209 154.494C54.6025 152.13 54.2201 149.692 53.0543 147.607C51.4595 144.772 48.8951 143.172 45.9723 142.172C45.4913 142.002 45.2241 141.908 45.512 141.252C48.0423 135.613 50.6964 130.05 53.5813 124.599C53.7716 124.224 53.9448 123.812 54.2589 123.513C54.5 123.251 54.6265 123.232 54.8716 123.477C56.4101 125.093 58.3837 125.285 60.4432 124.971C63.3878 124.527 65.9112 123.051 68.1098 120.956C71.0656 118.15 72.8025 114.534 74.2916 110.768C74.6382 109.944 75.0305 109.42 75.8477 109.14C77.8641 108.432 79.1699 106.747 80.6674 105.288C78.9573 105.978 77.2811 106.743 75.6049 107.508C75.3494 107.639 75.0718 107.92 74.7563 107.619C74.2296 107.149 73.6509 107.26 73.0356 107.39C69.1278 108.188 65.4038 109.492 61.7425 111.134C61.5236 111.246 61.2995 111.546 60.9644 111.301C61.9443 109.691 62.8877 108.099 63.8872 106.432C65.1898 108.123 66.874 108.37 68.7367 108.018C69.1525 107.944 69.5514 107.832 69.9502 107.721C71.6916 107.199 73.3144 106.415 74.8523 105.444C78.1642 103.426 81.1293 100.938 83.2911 97.5677C83.5348 97.2119 83.8463 97.0064 84.2282 96.8572C86.388 96.1682 87.9637 94.4839 89.9565 93.3257C89.4585 93.1183 89.1301 93.2864 88.8212 93.3982C87.5125 93.8828 86.136 94.2173 84.9486 94.871C83.5058 95.6554 82.2477 94.9588 80.8595 95.0682C81.0081 94.8997 81.154 94.8251 81.3 94.7504C84.6576 93.0326 87.7191 90.9579 89.9319 87.6999C90.1 87.4752 90.319 87.3632 90.538 87.2511C92.2363 86.336 93.6242 84.9327 95.1165 83.6608C95.1725 83.586 95.3185 83.5113 95.1777 83.3984C94.8205 83.3039 94.509 83.5095 94.2171 83.6588C92.9958 84.2374 91.8279 84.8349 90.6066 85.4135C90.4242 85.5069 90.1831 85.7689 89.9914 85.5434C89.329 84.7731 88.3566 84.8085 87.4479 84.4876C88.7669 83.628 90.0299 82.8431 91.0843 81.7953C92.9128 80.0742 94.564 78.2588 95.21 75.7099C95.3103 75.3351 95.5853 75.1482 95.8603 74.9613C96.9825 74.0636 97.7017 72.7713 98.6153 71.6107C97.8371 71.7777 97.2311 72.2264 96.5546 72.6187C95.7322 73.0857 95.0206 74.0968 93.8864 73.4754C93.7795 73.4377 93.6166 73.4748 93.4706 73.5495C91.5298 74.1265 89.5197 73.9533 87.4642 74.7738C88.7803 72.7139 90.283 71.067 91.1494 69.0062C92.5135 65.8588 93.7877 62.7112 93.3998 59.1661C93.3711 58.9035 93.5222 58.6413 93.6004 58.4164C94.3548 56.5053 94.6985 54.4808 95.2221 52.4567C94.2694 53.7298 93.3872 55.0592 92.7892 56.5206C92.3254 57.6822 91.5147 58.3743 90.5268 58.9722C87.2344 60.9338 84.7648 63.7225 82.8194 67.0749C81.9515 68.5356 81.3144 70.1094 81.2483 71.8533C81.1925 73.2221 81.6112 74.3482 82.8158 75.026C83.0101 75.1577 83.2604 75.2145 82.9997 75.5327C82.5345 76.0942 82.1396 76.7122 81.4971 77.1796C81.2331 73.7098 79.9785 70.9316 77.3345 68.9566C77.1402 68.8249 77.0724 68.6748 77.0971 68.4311C77.1322 67.8123 76.9143 67.2305 76.7135 66.6862C76.36 65.804 76.2256 64.8098 75.5997 64.0208C75.5049 65.5021 75.5195 66.9273 75.5511 68.3901C75.5408 68.7651 75.5134 69.1026 75.2528 69.4208C72.9096 72.191 71.3291 75.3567 70.6716 78.9745C70.6469 79.2182 70.729 79.4997 70.4006 79.6677C69.8646 78.8789 69.5503 77.8843 68.5517 77.5633C68.3379 77.4878 68.4356 77.2067 68.4408 77.0192C68.5147 74.9941 67.409 73.3414 66.9601 71.3526C66.6434 71.7457 66.796 72.0836 66.7883 72.3649C66.8147 74.0152 66.931 75.6657 66.8675 77.3158C66.852 77.8783 66.7126 78.3656 66.4103 78.89C65.5594 80.3883 64.7958 81.9806 64.1392 83.6106C63.3458 85.6341 62.7662 87.7331 62.4147 90.0389C61.3793 88.4426 60.8693 86.7162 59.6828 85.3821C59.5954 85.2882 59.6006 85.1007 59.5862 84.9694C59.488 82.6626 58.519 80.6164 58.0584 78.4025C57.961 79.9775 57.9705 81.5903 57.963 83.1655C57.9854 84.3095 58.2046 85.4914 57.2793 86.4269C57.1867 86.5205 57.1281 86.6891 57.106 86.8391C55.8516 91.2244 54.8306 95.629 55.2969 100.243C55.3113 100.375 55.379 100.525 55.1796 100.581C54.5759 99.6415 54.1012 98.5903 53.388 97.7074C52.1167 96.1856 50.5095 96.407 49.879 98.3934C48.4642 102.722 47.4797 107.108 47.7127 111.703C47.9181 115.341 48.9069 118.625 51.4258 121.219C51.8626 121.689 51.9448 121.97 51.623 122.551C48.6234 128.245 45.7647 134.052 43.1901 139.991C42.7875 140.89 42.403 141.133 41.4723 140.962C35.8851 140.031 30.6516 141.275 25.8983 144.678C21.7681 147.669 18.7617 151.657 16.4397 156.265C16.1153 156.939 15.7908 157.613 15.4299 158.306C15.2408 157.987 15.302 157.725 15.3268 157.481C16.0559 147.356 17.3756 137.345 19.3419 127.373C19.6752 125.724 20.0451 124.056 20.3784 122.406C20.4592 122.087 20.4669 121.806 20.9167 121.807C24.9107 121.797 28.3921 120.155 31.5709 117.743C36.1274 114.302 38.9212 109.546 40.7267 104.093C40.8244 103.811 40.8856 103.549 41.1606 103.362C42.9006 102.241 44.0461 100.499 45.3493 98.9084C45.4614 98.7586 45.7168 98.6279 45.6177 98.3089C45.3114 98.327 45.0898 98.5327 44.8878 98.6823C43.4567 99.6918 42.0256 100.701 40.665 101.767C40.2244 102.085 39.9181 102.103 39.5152 101.708C42.3969 99.6331 44.293 96.7682 46.1212 93.7531C46.6868 92.8167 47.2888 91.8617 47.8713 90.9629C48.2857 90.2887 48.79 89.6147 48.8667 88.7898C48.8914 88.546 49.0205 88.4338 49.2029 88.3405C50.5949 87.4434 51.8148 86.2647 53.1025 85.2362C53.4896 84.8995 54.0005 84.6381 54.3028 84.1137C53.8948 83.9065 53.6002 84.1497 53.3083 84.299C52.2669 84.8781 51.1211 85.3256 50.184 86.0361C48.6969 87.1204 47.1679 87.117 45.4472 86.8881C45.9607 86.533 46.4742 86.1778 46.8978 85.8225C50.5418 82.8489 53.3945 79.2173 55.332 74.8522C55.4466 74.6087 55.6122 74.4778 55.8116 74.422C57.682 73.7886 59.1599 72.3854 60.8413 71.4328C60.9508 71.3768 61.1502 71.3209 61.1189 71.1521C61.1071 70.927 60.8907 70.9453 60.7474 70.9262C60.5675 70.9258 60.3511 70.9441 60.1686 71.0375C58.6071 71.5591 57.043 72.1744 55.5128 72.8648C55.2938 72.9769 55.0527 73.2389 54.805 73.0883C54.1348 72.5992 53.311 72.4661 52.448 72.4454C52.5601 72.2957 52.5797 72.2395 52.5797 72.2395C55.9958 70.3531 59.0821 68.0346 61.9285 65.2843C62.1135 65.0972 62.3495 65.0227 62.6219 64.9296C63.7116 64.5569 64.8352 64.2594 65.9079 63.8492C67.2895 63.3272 68.7025 62.9741 70.0554 62.1895C69.6721 61.7386 69.2197 61.8313 68.8404 61.8867C66.7079 62.2383 64.5584 62.5523 62.5055 63.2791C62.2696 63.3536 62.0311 63.5218 61.8029 63.315C60.6452 62.2435 59.1161 62.2401 57.6678 61.9181C56.9704 61.7665 56.2704 61.7087 55.3566 61.5754C55.702 61.4449 55.7749 61.4076 55.9014 61.3891C60.7386 60.1622 65.191 57.8843 69.4569 55.1934C70.6104 54.4646 71.7392 53.9796 72.9866 53.7573C73.3125 53.6831 73.6553 53.6463 73.9812 53.572C75.664 53.2195 77.3467 52.8669 79.083 52.5333C78.7582 51.9137 78.272 51.9314 77.8223 51.9304C75.5398 51.8503 73.2352 51.9201 71.0049 52.5528C70.7325 52.6459 70.4966 52.7204 70.2345 52.4385C69.8147 52.0063 69.2437 51.8362 68.7092 51.6475C67.4969 51.251 66.321 50.8358 65.1255 50.4769C65.2454 50.0458 65.4618 50.0275 65.6443 49.9342C67.3934 49.1317 68.9874 48.0851 70.4602 46.8695C73.1281 44.7189 75.4466 42.1924 77.9228 39.8164C78.1443 39.6106 78.3854 39.3486 78.4101 39.1049C78.582 38.0926 79.3432 37.888 80.0875 37.6459C80.4694 37.4967 80.9048 37.3664 81.2697 37.1797C82.7804 36.5455 84.1528 35.7047 85.6856 34.9205C85.2097 34.5631 84.8304 34.6185 84.4511 34.674C82.4111 34.9319 80.5381 35.6591 78.6625 36.48C78.3536 36.5919 78.0955 36.8163 77.7214 36.6842C76.492 36.2502 75.2159 36.2098 73.9397 36.1695C69.0344 35.9523 64.1841 36.354 59.5569 38.444C59.4839 38.4814 59.4109 38.5187 59.3627 38.3123C59.867 37.6383 60.3909 36.9082 61.1768 36.4598C63.8605 35.0406 66.2677 33.2082 68.5029 31.0942C70.94 28.8305 72.9183 26.2471 74.1925 23.0995C75.7181 19.3148 75.5179 15.4888 74.671 11.6239C74.478 10.7984 74.4308 9.89813 73.9653 9.16575C73.7058 8.79011 73.7331 8.45263 73.9064 8.04045C74.5019 6.67284 74.9369 5.24861 75.1752 3.78644C75.3717 2.53045 75.6583 1.27466 75.8913 -5.90004e-06C74.5036 2.69728 73.3518 5.3201 72.234 8.01799ZM83.9857 71.7469C84.0285 70.8468 84.3386 70.0412 84.7021 69.2544C86.0781 66.332 88.0511 63.9361 90.5678 62.0477C89.8451 65.4215 88.8381 68.6635 86.4297 71.1897C85.9475 71.7137 85.4145 72.1251 84.7771 72.405C84.1788 72.5724 83.9142 72.3843 83.9857 71.7469ZM82.8692 80.9144C83.3448 79.9779 84.102 79.2669 84.9635 78.6875C87.088 77.3233 89.4446 76.6722 92.0803 76.3406C90.8176 78.4193 89.2667 79.8598 87.4876 81.0935C86.4241 81.8225 85.3097 82.4388 84.0258 82.6797C83.5735 82.7725 83.0117 82.9213 82.7183 82.4706C82.3545 81.9634 82.6034 81.4202 82.8692 80.9144ZM73.3224 82.6559C72.8515 80.8171 73.19 78.9801 73.7254 77.181C74.2412 75.4382 75.0947 73.8461 76.0186 72.3105C76.3014 71.8423 76.5373 71.7678 76.8841 72.2374C77.3522 72.876 77.7839 73.5333 78.0916 74.1153C79.5471 77.4378 78.5559 81.4111 75.8541 83.4867C74.569 84.4214 73.7307 84.157 73.3224 82.6559ZM81.6343 85.2435C80.0337 85.8776 78.5765 86.5306 77.1871 87.3339C77.1532 87.2588 77.0998 87.24 77.0658 87.1649C77.9794 86.0042 78.8734 84.8998 79.7869 83.7392C79.955 83.5145 80.0984 83.5336 80.2171 83.7964C80.5079 84.3409 80.9812 84.792 81.6343 85.2435ZM86.3157 87.0542C86.4787 87.0171 86.6416 86.9799 86.8332 87.2054C85.7177 88.5156 84.357 89.5815 82.9455 90.5347C80.9839 91.8618 78.9402 92.9073 76.6448 93.296C76.1025 93.3886 75.3218 93.6494 75.1014 93.1613C74.8275 92.6544 75.4896 92.1308 75.8962 91.7379C78.869 88.9692 82.3843 87.4018 86.3157 87.0542ZM72.4485 86.292C72.9465 86.4994 73.3376 86.669 73.7822 86.8575C73.7066 86.9886 73.631 87.1197 73.5554 87.2508C73.2557 87.6815 72.939 88.0746 72.4907 88.6737C72.4801 87.7548 72.4982 87.0984 72.4485 86.292ZM65.013 91.7137C64.9366 87.963 66.2355 84.5716 67.9528 81.0125C69.7551 84.8045 70.6801 88.4446 68.5222 92.3216C68.1248 93.0333 67.6035 93.6697 66.961 94.1371C66.2454 94.6418 65.7983 94.5471 65.4423 93.7586C65.1371 93.0829 65.0483 92.3888 65.013 91.7137ZM74.1387 96.1034C72.6136 96.6063 71.0886 97.1092 69.4931 97.5557C70.3728 96.32 71.199 95.0654 72.1907 93.6799C72.4777 95.012 73.1622 95.6324 74.1387 96.1034ZM65.0261 98.4084C64.8851 97.0016 64.8851 97.0016 66.3503 97.3612C66.2187 97.5672 66.104 97.8107 65.9359 98.0354C65.7287 98.3725 65.5045 98.672 65.1292 99.2337C65.1057 98.7836 65.0744 98.6148 65.0261 98.4084ZM66.6735 103.25C67.256 102.351 68.0836 101.697 68.979 101.193C72.1958 99.362 75.693 98.4509 79.2893 97.8588C79.3792 97.859 79.4496 97.9155 79.5566 97.9532C78.3094 99.4694 76.8732 100.666 75.3495 101.769C73.3489 103.209 71.2296 104.386 68.8729 105.037C68.5106 105.13 68.0948 105.204 67.6985 105.222C67.1758 105.258 66.5436 105.35 66.2893 104.787C65.9815 104.205 66.3373 103.7 66.6735 103.25ZM57.8308 99.6863C57.5786 96.4415 58.1528 93.2361 58.9043 90.1248C58.9238 90.0686 58.9799 89.9937 59.1284 89.8253C60.606 92.9978 62.322 96.002 62.401 99.659C62.4366 101.628 62.0251 103.502 60.5642 104.943C59.8435 105.635 59.7535 105.635 59.2906 104.809C58.3986 103.232 57.9785 101.506 57.8308 99.6863ZM57.6629 107.074C58.2261 107.526 58.6825 107.939 59.1218 108.315C59.333 108.485 59.2745 108.653 59.1793 108.841C58.8966 109.309 58.6138 109.777 58.2359 110.432C58.0166 109.251 57.8652 108.219 57.6629 107.074ZM61.7862 114.116C64.8374 112.416 68.0361 111.242 71.5359 110.237C69.6519 114.621 67.5644 118.554 63.4718 120.833C61.8999 121.73 60.2289 122.307 58.3987 122.134C56.588 121.905 55.9894 120.779 56.7217 119.018C57.1464 117.969 57.7628 117.145 58.5565 116.415C59.5718 115.48 60.6353 114.751 61.7862 114.116ZM50.7857 114.429C50.0851 111.783 50.1967 109.046 50.595 106.346C50.8631 104.453 51.2916 102.616 51.9052 100.592C53.1779 102.714 54.0738 104.797 54.7339 106.955C55.2439 108.682 55.4815 110.501 55.5393 112.32C55.6519 114.759 54.732 116.801 53.5084 118.767C53.2061 119.291 53.0366 118.916 52.8449 118.69C51.8722 117.432 51.2279 116.005 50.7857 114.429ZM24.2491 149.681C28.7154 144.947 34.135 142.821 40.4443 143.66C41.538 143.794 42.6018 144.359 43.6955 144.492C46.1502 144.854 48.2048 146.021 49.8451 147.863C50.5609 148.652 51.1111 149.572 51.6054 150.567C51.2065 150.679 50.9054 150.509 50.6016 150.434C47.4665 149.958 44.3863 150.101 41.3506 151.238C39.587 151.909 37.7387 152.393 35.9921 153.101C32.5915 154.425 29.6368 156.538 26.9416 159.026C21.1641 164.339 17.6329 171.044 15.5345 178.634C15.4538 178.953 15.463 179.272 15.1658 179.609C14.7926 177.489 14.6526 175.388 14.7291 173.269C15.1939 164.25 18.0418 156.231 24.2491 149.681ZM10.7979 156.008C11.0206 160.978 10.9564 165.91 10.9992 170.879C10.994 171.067 10.9719 171.217 10.942 171.648C7.57944 161.814 4.26513 152.187 3.36351 141.833C2.79778 135.606 2.86162 129.38 3.33873 123.174C3.36085 123.024 3.36603 122.837 3.44937 122.425C4.40655 124.246 5.11604 125.916 5.69908 127.605C8.84643 136.764 10.3644 146.293 10.7979 156.008ZM50.0639 41.4983C49.6725 40.0347 49.4976 38.5529 49.4855 37.0339C49.4338 33.0394 50.3494 29.1972 51.2115 25.3361C53.2391 28.1347 54.2865 31.25 54.0618 34.8313C53.8876 37.2312 53.1789 39.4424 52.1665 41.578C52.13 41.5967 52.147 41.6342 52.1105 41.6529C51.7156 42.2708 51.2817 43.0012 50.6495 43.0936C50.3432 43.1116 50.1917 42.0799 50.0639 41.4983ZM51.6782 50.1469C51.3132 50.3336 51.0017 50.5392 50.6589 50.5759C50.9038 49.5263 50.9402 49.5076 51.6782 50.1469ZM40.5613 48.8094C40.0352 45.0577 40.3525 41.3829 41.4793 37.7099C41.5379 37.5412 41.5966 37.3726 41.6552 37.2039C41.6747 37.1477 41.7672 37.0542 41.8598 36.9606C42.7164 37.8627 43.3176 38.8954 43.8457 39.9655C46.446 44.8282 46.9019 49.8174 43.9739 54.8741C43.8984 55.0052 43.7863 55.155 43.6912 55.3423C43.4058 55.9042 43.1894 55.9225 42.8452 55.3592C41.6038 53.4061 40.9099 51.173 40.5613 48.8094ZM40.7052 57.2859C41.9138 58.47 41.9374 58.9201 40.7437 60.4552C40.7382 59.3488 40.7302 58.3361 40.7052 57.2859ZM44.1914 60.0316C44.8434 61.1769 45.7443 61.779 46.8329 62.1002C45.1618 62.6778 43.5807 63.2557 41.9241 63.9646C42.6968 62.6911 43.4161 61.3988 44.1914 60.0316ZM31.6794 62.9666C31.1848 60.6777 31.1766 58.3711 31.3312 56.0273C31.4936 53.4023 31.9258 50.7779 32.3215 48.1722C32.3632 47.966 32.3005 47.6283 32.5534 47.5914C32.6799 47.5729 32.8546 47.7608 33.0124 47.9112C34.573 49.3774 35.8026 51.1054 36.7546 53.114C38.5374 56.9623 38.3192 60.9561 37.272 65.0044C36.9464 66.3726 36.407 67.6653 36.028 69.0146C35.8078 69.8205 35.4871 69.7073 35.0139 69.2562C33.2616 67.5645 32.2052 65.4244 31.6794 62.9666ZM36.4658 74.6602C36.6 74.3604 36.7773 74.4546 36.9181 74.5674C37.7655 75.1506 38.7693 75.2841 39.7705 75.5114C38.1138 76.2203 36.5758 77.192 34.8801 78.0134C35.4508 76.8895 35.9485 75.8029 36.4658 74.6602ZM23.4313 78.9255C22.3225 74.7787 22.4584 70.5034 22.9177 66.2475C22.9918 65.5163 23.0829 64.8227 23.1936 64.0729C23.1961 63.9791 23.2522 63.9042 23.3304 63.6794C25.8088 65.7852 27.6838 68.2459 28.7312 71.3612C30.3786 76.2031 30.0107 81.0592 28.4006 85.95C28.1856 86.5684 27.9692 86.5867 27.5664 86.192C25.3695 84.3118 24.1997 81.7213 23.4313 78.9255ZM32.1989 91.078C31.0623 91.8443 29.9454 92.5544 28.7672 93.5269C28.9951 92.4398 29.3951 91.6343 29.6882 90.7911C29.7859 90.51 29.9827 90.548 30.16 90.6421C30.7845 90.831 31.4845 90.8888 32.1989 91.078ZM24.2177 86.9346C24.8683 87.4799 25.4264 88.1187 26.06 88.6264C26.429 88.9461 27.202 88.9665 27.2034 89.5666C27.2439 90.0543 26.8347 90.5409 26.6953 91.0282C26.4387 91.8527 26.2355 92.6961 25.9959 93.5582C25.8525 93.5392 25.7456 93.5014 25.6022 93.4824C25.4844 91.2318 24.9873 89.0366 24.2177 86.9346ZM16.5725 86.9176C16.3426 84.8168 16.2027 82.7161 16.1892 80.5971C21.5761 83.572 24.8596 95.6185 21.9514 101.913C20.8327 100.729 19.9891 99.3582 19.2914 97.9127C17.6781 94.4398 16.9891 90.7253 16.5725 86.9176ZM24.6922 105.595C24.7339 105.388 24.829 105.201 25.0623 105.22C25.9227 105.335 26.8026 105.393 27.8429 105.508C26.3948 106.48 25.1658 107.34 23.8976 108.312C24.1569 107.394 24.4161 106.475 24.6922 105.595ZM18.327 117.863C18.0848 118.819 17.8827 118.969 16.9741 118.648C15.4071 118.063 14.0838 117.123 12.9117 115.92C10.5674 113.514 9.30105 110.511 8.71114 107.115C8.1356 103.851 8.22618 100.57 8.35583 97.1757C14.7976 101.691 18.536 107.681 18.5052 115.97C18.5601 116.589 18.4885 117.226 18.327 117.863ZM29.408 115.938C27.1884 117.489 24.7823 118.628 22.1466 118.96C21.1351 119.107 21.1716 119.089 21.3435 118.076C22.0047 113.671 24.868 110.958 28.1707 108.621C30.8869 106.677 33.9395 105.578 37.0887 104.891C37.2152 104.872 37.2882 104.835 37.4316 104.854C37.4681 104.835 37.5385 104.892 37.6454 104.93C35.8487 109.407 33.3506 113.227 29.408 115.938ZM37.2963 99.9781C33.9988 102.127 30.3972 102.907 26.6104 102.58C25.6236 102.484 25.6601 102.465 26.1865 101.641C26.2621 101.51 26.3572 101.323 26.4159 101.154C27.2156 98.2491 29.1927 96.3595 31.5023 94.8082C35.6613 92.0796 40.2312 90.7583 44.985 89.9438C45.075 89.944 45.1284 89.9629 45.3253 90.0008C42.9927 93.6899 41.0148 97.5673 37.2963 99.9781ZM40.3698 86.3893C38.1878 87.2283 36.0111 87.8798 33.7012 88.1371C32.9621 88.1918 32.2426 88.1902 31.5621 88.0761C31.025 87.9812 30.8138 87.8119 31.0483 87.1373C32.0932 84.4768 33.5579 82.2485 35.9744 80.7349C40.8437 77.6891 46.1266 75.9569 51.7239 75.2192C51.8503 75.2008 51.9937 75.2198 52.2635 75.2204C49.3525 80.3147 45.6969 84.3571 40.3698 86.3893ZM57.8769 64.769C57.9669 64.7692 58.0373 64.8256 58.2146 64.9197C55.41 67.4638 52.3705 69.3886 49.0233 70.7313C46.6758 71.7012 44.2462 72.3897 41.6861 72.5902C40.7671 72.6444 39.8481 72.6987 38.9564 72.4154C38.1351 72.1885 38.0581 71.7195 38.582 70.9894C40.2708 68.4615 42.4083 66.6285 45.1885 65.6221C48.859 64.2988 52.5714 64.0633 56.3192 64.503C56.8393 64.5604 57.3399 64.674 57.8769 64.769ZM64.3183 54.9569C59.8998 57.3099 55.317 59.1 50.3597 59.464C49.6206 59.5186 48.8476 59.4981 48.1306 59.4027C46.9665 59.2126 46.651 58.9119 46.4122 57.7862C46.3665 57.4861 46.5516 57.2989 46.6832 57.093C47.641 55.6324 48.9482 54.5477 50.4275 53.7446C54.6466 51.4474 62.039 51.5014 66.2721 53.9111C65.5787 54.2659 64.9752 54.6209 64.3183 54.9569ZM68.2634 39.1198C70.3712 39.0119 72.479 38.9041 74.7759 39.1155C72.1511 41.66 69.7961 44.2051 66.8831 46.1114C64.0431 47.9803 60.9591 48.9111 57.6338 48.8099C56.3211 48.7883 55.0332 48.5229 53.8234 48.0326C53.2719 47.8063 53.2601 47.5813 53.6329 47.1133C57.5399 42.4338 62.1929 39.4063 68.2634 39.1198ZM72.1242 12.6496C73.2006 17.3214 72.7557 21.7086 69.8027 25.715C67.5977 28.6918 64.9585 31.105 61.9869 33.1799C61.9139 33.2173 61.8579 33.2922 61.7849 33.3295C61.1645 33.6469 60.6691 33.3458 60.5998 32.5955C60.3266 28.8069 61.2514 25.2834 63.0874 21.9871C65.2257 18.1663 68.3105 15.2478 71.5531 12.4796C71.8672 12.1803 72.0107 12.1993 72.1242 12.6496Z" fill="#9CC3FF"/>
</svg>
