<svg width="344" height="516" viewBox="0 0 344 516" fill="none" xmlns="http://www.w3.org/2000/svg">
<path d="M139.06 100.975C138.741 101.384 138.555 101.832 137.928 101.904C136.416 102.04 135.202 102.852 133.989 103.665C125.636 109.455 119.647 117.285 116.085 127.14C115.941 127.443 116.013 127.9 115.591 128.062C115.273 126.849 115.026 125.687 114.656 124.553C113.773 121.777 113.157 118.67 111.235 116.599C110.001 115.253 110.238 114.321 110.66 112.942C110.887 112.35 111.041 111.707 111.196 111.064C111.979 107.915 112.566 104.742 113.216 101.149C112.331 102.023 112.001 102.772 111.61 103.536C109.83 107.247 108.522 111.122 107.482 115.073C107.368 115.571 107.255 116.07 106.936 116.479C104.487 120.407 103.066 124.781 102.118 129.32C101.284 133.36 101.231 137.495 101.424 141.575C100.602 140.002 100.058 138.163 99.03 136.906C97.2928 134.794 96.9647 132.299 96.7395 129.645C96.5042 126.52 96.2071 123.41 96.0438 120.337C96.013 120.141 96.0337 119.866 95.7149 119.87C95.2725 120.307 95.3648 120.894 95.3234 121.444C94.9519 124.772 94.6421 128.086 94.5894 131.411C94.5063 133.322 94.2177 135.144 93.5587 137.049C91.2835 143.304 89.8103 149.785 89.3963 156.503C89.21 159.384 89.2809 162.275 89.4237 165.217C88.2318 162.509 86.1039 160.349 85.9097 157.08C85.7462 154.413 85.2125 151.828 84.617 149.258C84.1756 147.261 83.621 145.357 83.1076 143.309C82.552 143.839 82.6238 144.296 82.6339 144.767C82.7461 147.108 82.92 149.435 82.9088 151.803C82.9691 155.44 83.8317 158.897 82.5858 162.759C81.0619 167.291 80.0213 172.053 79.1762 176.839C79.135 176.983 79.104 177.193 78.7852 177.197C78.0687 168.569 76.3546 160.098 75.1341 151.515C74.9086 149.673 74.6933 147.896 74.6529 146.012C74.3782 138.57 74.9981 131.131 74.6719 123.768C74.5291 120.826 74.7566 117.801 74.7989 114.817C70.5075 122.064 67.1108 129.719 64.3103 137.917C61.946 135.066 59.736 132.384 57.5877 129.687C54.3292 125.617 50.7517 121.956 46.6702 118.746C38.8772 112.649 30.3227 107.804 21.5314 103.485C15.0948 100.329 8.22547 98.8916 1.08839 98.5962C0.769577 98.6 0.348022 98.3563 0.162732 98.8034C-0.0842688 99.2643 0.28588 99.587 0.460593 99.8859C1.36509 101.171 2.57832 101.981 3.74008 102.87C8.80868 106.67 13.9802 110.312 18.6784 114.601C35.4253 129.713 47.0697 148.941 56.3789 169.976C57.17 171.76 57.3956 173.602 57.3229 175.579C56.8863 187.439 57.8176 199.06 60.6927 210.449C61.0725 212.054 61.4524 213.659 61.9043 215.315C59.2303 215.373 58.3456 216.247 58.252 218.904C58.2102 220.671 58.2403 222.49 58.2705 224.308C58.4329 229.815 58.6672 235.373 60.4443 240.586C63.3412 248.861 68.656 254.228 76.965 255.884C77.9522 256.068 78.312 256.326 78.2396 257.491C78.2086 257.701 78.2394 257.897 78.2702 258.093C79.6174 258.129 81.0365 258.217 82.4145 258.45C82.4249 258.109 82.4251 257.704 82.4355 257.363C82.4256 256.487 82.6109 256.04 83.5159 256.108C83.773 256.118 84.1432 256.035 84.3901 255.979C91.4663 254.261 96.97 249.852 101.384 243.794C107.054 235.968 109.721 226.921 111.37 217.494C111.618 216.221 111.968 215.197 112.791 214.337C115.949 210.858 118.316 206.813 120.395 202.157C119.84 202.687 119.5 202.965 119.223 203.23C116.136 206.355 113.204 209.647 110.498 213.16C110.179 213.569 109.87 214.044 109.222 213.986C108.132 213.96 107.114 214.39 106.034 214.835C105.19 215.159 104.347 215.483 103.565 215.793C107.794 211.399 110.943 206.233 113.331 200.696C114.885 197.171 116.892 194.085 119.71 191.697C122.92 188.951 124.403 184.968 126.677 181.553C126.265 181.78 125.926 182.059 125.586 182.338C122.603 185.304 119.609 188.205 116.636 191.236C115.535 192.361 114.681 193.025 113.067 192.508C111.329 192.018 109.416 192.446 107.575 192.52C107.616 192.376 107.596 192.245 107.647 192.166C113.305 187.52 117.185 181.311 120.776 174.897C121.384 173.882 121.837 172.699 122.875 171.993C125.591 170.169 127.546 167.568 129.429 164.916C130.057 164.032 130.746 163.134 131.477 162.092C130.716 162.127 130.407 162.601 130.006 162.894C127.743 164.753 125.49 166.676 123.154 168.483C122.815 168.762 122.517 169.302 122.064 168.863C121.468 168.32 120.676 168.159 119.761 168.026C120.1 167.747 120.203 167.589 120.316 167.496C125.542 163.352 129.566 158.058 132.417 151.809C132.561 151.506 132.746 151.059 132.973 150.873C135.544 148.946 137.15 146.153 139.207 143.8C139.804 143.125 140.247 142.283 140.864 141.333C140 141.527 139.681 141.936 139.352 142.28C137.428 143.86 135.515 145.505 133.591 147.085C133.252 147.363 132.881 147.852 132.367 147.426C131.431 146.757 130.516 147.029 129.58 147.577C127.893 148.63 125.527 149.43 123.645 149.649C128.953 146.433 132.986 142.015 136.341 136.938C138.306 133.997 140.529 131.471 143.44 129.671C145.939 128.097 147.298 125.36 149.387 123.202C148.728 123.079 148.409 123.488 148.06 123.702C145.426 125.238 142.886 126.956 140.417 128.725C140.015 129.017 139.707 129.492 139.193 129.066C138.154 128.15 136.972 128.347 135.748 128.688C133.979 129.219 132.22 129.816 130.481 130.543C128.023 131.566 125.688 132.968 123.24 134.462C123.333 133.833 123.672 133.554 123.929 133.159C125.555 130.902 127.387 128.734 129.084 126.529C133.272 121.063 136.452 114.876 139.293 108.561C139.952 107.062 140.744 105.6 140.478 103.902C140.416 103.511 140.684 103.18 140.9 102.929C143.39 100.074 144.934 96.4833 147.002 93.384C147.208 93.0676 147.547 92.7888 147.455 92.201C144.482 94.8268 141.622 97.7653 139.06 100.975ZM108.95 121.572C113.06 131.062 113.036 140.261 106.872 149.414C105.138 140.001 104.586 130.796 108.95 121.572ZM115.221 152.548C112.856 153.753 110.798 154.89 108.751 156.092C109.461 154.919 110.11 153.76 110.82 152.587C110.974 152.349 111.2 152.164 111.478 152.304C112.548 152.606 113.74 152.474 115.221 152.548ZM96.3749 141.556C101.925 149.643 101.209 165.418 94.9853 170.935C92.2947 161.127 93.512 151.391 96.3749 141.556ZM101.463 174.352C100.434 175.123 99.5701 175.722 98.6546 176.4C98.9949 174.093 99.2828 173.894 101.463 174.352ZM82.2579 185.884C82.4352 179.692 83.9287 173.747 85.5251 167.644C92.4013 177.665 90.6284 187.931 85.2971 198.318C84.4335 197.7 84.002 196.579 83.5705 195.459C82.389 192.411 82.1332 189.156 82.2579 185.884ZM85.7598 224.848C86.7676 224.758 87.7448 224.471 88.7424 224.316C87.2814 225.995 85.7999 227.543 84.2874 229.301C84.473 228.043 84.6483 226.719 84.834 225.461C84.9473 224.962 85.3792 224.865 85.7598 224.848ZM80.6606 220.446C80.2692 222.021 79.724 222.21 78.5623 221.321C76.249 219.608 74.5428 217.286 73.4126 214.565C70.2687 206.751 70.5598 198.439 71.3447 190.016C74.264 193.554 77.2246 196.947 79.4649 201.042C81.2428 204.227 81.9305 207.791 81.8879 211.586C81.8353 214.505 81.4125 217.506 80.6606 220.446ZM14.3525 104.956C18.5169 106.66 22.4755 108.681 26.3929 110.846C32.6855 114.305 38.8236 118.001 44.4473 122.489C51.0066 127.645 56.0227 134.364 60.8638 141.19C62.0972 142.941 62.2097 144.471 61.5816 146.572C60.0781 151.64 59.1608 156.78 58.3772 161.958C58.3153 162.378 58.3871 162.835 58.0167 163.323C47.3919 140.419 33.9688 120.034 14.3525 104.956ZM78.2732 250.386C78.0773 251.579 77.4501 251.246 76.8537 251.109C71.599 249.784 67.8157 246.44 65.3598 241.379C63.1916 236.929 62.669 231.976 62.4653 227.02C62.3734 225.215 62.3433 223.396 62.3031 221.107C67.2789 225.537 71.8846 229.643 75.4099 235.006C78.3802 239.681 79.0569 244.803 78.2732 250.386ZM79.5551 233.334C78.9177 232.936 78.7534 232.297 78.4244 231.83C75.7316 227.701 72.2569 224.287 68.6793 221.032C67.8569 220.27 67.271 219.387 66.9115 218.318C59.3523 192.97 59.2286 167.378 67.4147 141.413C68.3517 138.432 69.4122 135.423 70.74 132.49C70.4403 136.275 70.1508 140.125 70.3036 143.944C70.558 150.85 71.7997 157.534 72.9181 164.247C74.0157 171.234 74.918 178.198 75.018 185.341C75.0281 185.812 74.9765 186.296 75.0071 186.898C74.0098 186.242 73.5474 185.332 72.8587 184.607C72.0157 183.714 71.0287 183.124 69.7533 183.545C68.5396 183.952 67.8707 184.98 67.6851 186.238C66.2002 196.305 65.7952 206.333 69.5041 215.71C71.5281 220.868 74.8175 224.728 79.9486 226.487C80.3496 226.6 80.5039 226.768 80.4522 227.253C80.0607 229.233 79.8645 231.237 79.5551 233.334ZM105.837 219.273C106.32 219.097 106.732 218.87 106.546 219.722C104.537 228.487 101.778 236.946 95.6252 243.731C92.6826 246.958 89.2982 249.405 85.2354 250.788C83.96 251.209 83.96 251.209 83.714 249.236C83.1417 239.9 85.9114 231.506 94.1102 225.548C97.721 222.914 101.763 220.996 105.837 219.273ZM109.548 196.54C110.237 196.454 110.401 196.687 110.062 197.372C105.481 208.469 98.0116 216.225 87.1089 220.017C85.6586 220.544 85.6483 220.479 85.7929 218.959C86.3297 213.837 88.1106 209.315 91.6704 205.544C95.8372 201.164 100.631 198.333 106.668 196.914C107.419 196.814 108.478 196.644 109.548 196.54ZM92.1163 196.183C91.7565 195.925 92.0138 195.53 92.0242 195.19C93.014 188.884 96.2657 183.965 100.957 180.076C105.535 176.28 110.822 174.15 116.561 172.866C111.26 184.26 102.834 191.621 92.1163 196.183ZM126.78 153.341C121.224 162.291 114.115 167.87 104.643 169.787C104.334 169.856 103.861 170.098 103.686 169.799C103.378 169.462 103.758 169.039 103.954 168.657C106.496 163.289 110.622 159.864 115.528 157.346C119.005 155.487 122.666 154.397 126.78 153.341ZM132.732 134.298C128.184 140.724 123.204 146.435 115.408 148.045C119.73 141.399 125.686 137.024 132.732 134.298ZM134.285 109.209C131.423 114.987 128.562 120.765 123.984 125.372C122.276 127.107 121.514 129.576 119.878 131.361C119.549 131.705 119.302 132.166 118.983 132.576C118.849 132.538 118.767 132.421 118.633 132.383C121.054 122.581 126.713 115.095 133.976 108.873C134.367 108.92 134.336 109.13 134.285 109.209Z" fill="#9CC3FF"/>
<path d="M296.83 172.67C296.542 173.039 296.366 173.383 295.875 173.554C294.012 174.153 292.269 175.152 290.563 176.021C284.492 179.145 278.753 182.926 274.487 188.753C270.926 193.57 268.532 198.857 268.464 205.025C268.446 205.272 268.492 205.567 268.232 205.746C267.203 206.525 266.174 207.303 265.089 208.094C267.854 202.237 268.255 196.36 266.915 190.385C266.461 188.233 265.953 186.092 264.702 184.362C264.11 183.52 264.129 182.906 264.389 181.995C265.261 179.12 264.975 176.199 265.486 173.221C265.051 173.38 265.032 173.628 264.949 173.829C263.956 176.67 263.009 179.441 262.016 182.282C261.849 182.685 261.812 183.181 261.394 183.457C260.56 184.009 260.068 184.911 259.632 185.8C258.25 188.729 256.812 191.67 255.439 194.657C253.778 198.379 252.359 202.169 251.671 206.221C251.606 206.54 251.661 206.893 251.3 207.157C250.874 205.181 250.458 203.264 249.773 201.467C249.181 199.894 248.7 198.296 247.282 197.334C246.958 197.102 247.032 196.841 247.162 196.569C248.544 193.64 248.388 190.446 249.002 187.385C249.132 186.747 249.317 186.096 249.234 185.201C248.483 186.283 248.251 187.37 247.889 188.365C246.293 192.499 244.873 196.654 242.119 200.377C238.743 204.908 237.072 210.399 236.18 216.081C236.124 216.459 236.207 216.989 235.808 217.383C234.79 214.564 233.633 211.96 231.901 209.728C230.03 207.344 227.769 207.606 226.433 210.463C223.724 216.308 221.191 222.174 219.816 228.451C218.237 235.627 218.438 242.405 222.976 248.213C223.198 248.529 223.235 248.764 222.994 249.062C221.687 250.634 220.435 252.193 219.137 253.823C218.84 253.402 219.081 253.105 219.146 252.785C219.983 248.578 219.901 244.393 219.023 240.264C218.079 236.089 216.441 232.252 213.81 229.063C211.81 226.587 209.567 226.966 208.203 230.012C207.516 231.506 206.904 233.105 206.347 234.692C203.907 241.146 202.17 247.687 202.278 254.608C202.296 255.457 202.305 256.247 202.379 257.083C201.379 255.113 200.481 253.06 199.388 251.233C198.768 250.215 198.138 249.137 197.221 248.428C195.785 247.348 194.172 247.709 193.226 249.383C192.772 250.154 192.503 251.006 192.289 251.846C190.72 257.984 189.688 264.246 189.463 270.51C189.294 274.934 189.736 279.221 190.967 283.392C191.689 285.79 192.939 287.886 193.929 290.162C194.031 290.444 194.3 290.688 194.068 291.045C193.205 292.517 192.352 294.048 191.489 295.52C191.424 295.474 191.369 295.486 191.248 295.452C191.239 295.028 191.24 294.662 191.23 294.238C191.241 292.103 191.084 290.006 190.65 287.971C189.291 280.782 185.605 274.906 181.354 269.46C181.132 269.144 180.807 268.912 180.483 268.68C179.307 267.785 177.861 268.109 176.97 269.404C176.599 269.975 176.349 270.579 176.163 271.23C175.012 274.898 173.926 278.613 173.201 282.431C171.928 288.99 171.851 295.464 174.48 301.577C176.193 305.52 178.564 308.888 182.27 310.862C183.085 311.289 183.02 311.608 182.668 312.296C176.897 323.942 171.804 335.863 167.331 348.072C167.256 348.332 167.256 348.698 166.811 348.797C166.839 348.608 166.821 348.491 166.849 348.302C168.485 337.458 169.204 326.637 168.764 315.77C168.545 309.971 166.935 304.848 163.647 300.406C162.98 299.458 162.563 299.734 162.118 300.565C161.802 301.123 161.542 301.668 161.348 302.26C160.735 303.859 160.187 305.504 159.631 307.091C155.306 319.876 152.334 332.846 151.456 346.322C150.747 356.837 151.576 367.251 152.182 377.715C152.587 384.691 152.592 391.695 151.727 398.65C151.234 402.477 150.908 406.266 150.183 410.083C149.059 416.121 149.093 422.205 149.47 428.274C149.589 430.501 149.866 432.632 150.597 434.723C150.839 433.328 151.025 431.947 151.202 430.506C152.988 416.583 156.655 403.275 163.649 390.989C169.335 381.007 176.938 373.337 187.116 368.868C189.916 367.633 192.817 366.679 195.783 366.138C195.801 366.621 195.551 366.86 195.356 367.086C188.326 377.309 181.686 387.809 175.684 398.715C172.326 404.827 169.098 411.031 166.806 417.697C166.694 418.087 166.407 418.456 166.564 419.091C167.621 417.758 168.53 416.58 169.485 415.331C171.052 413.214 173.064 411.363 174.307 409.014C176.682 404.706 178.992 400.351 181.431 396.09C187.405 385.739 193.841 375.771 200.658 366.023C200.945 365.654 201.186 365.356 201.696 365.303C206.562 365.129 211.344 365.522 215.745 367.888C217.635 368.928 219.748 369.552 221.434 371.124C221.454 367.586 221.817 364.033 221.003 360.682C219.884 356.119 217.022 352.922 213.464 350.428C212.88 350.01 212.556 349.778 213.178 348.969C218.593 342.031 224.148 335.246 229.971 328.705C230.361 328.252 230.741 327.741 231.269 327.44C231.686 327.164 231.863 327.186 232.103 327.619C233.585 330.455 236.161 331.463 239.033 331.796C243.139 332.279 247.05 331.161 250.749 329.054C255.718 326.237 259.344 321.833 262.692 317.124C263.452 316.101 264.166 315.515 265.362 315.431C268.318 315.196 270.673 313.329 273.204 311.85C270.664 312.174 268.143 312.616 265.622 313.058C265.233 313.145 264.76 313.433 264.445 312.894C263.908 312.04 263.093 311.978 262.222 311.93C256.698 311.581 251.239 312.009 245.743 312.934C245.409 313.008 245.002 313.343 244.64 312.876C246.532 310.991 248.368 309.118 250.306 307.162C251.444 310.014 253.612 310.992 256.235 311.197C256.819 311.249 257.393 311.243 257.968 311.236C260.489 311.16 262.945 310.671 265.355 309.889C270.518 308.308 275.385 305.94 279.492 302.037C279.946 301.631 280.438 301.46 281.003 301.395C284.145 301.24 286.861 299.476 289.948 298.603C289.355 298.126 288.854 298.238 288.4 298.279C286.472 298.466 284.508 298.418 282.682 298.887C280.466 299.443 279.031 297.998 277.131 297.631C277.391 297.451 277.613 297.401 277.835 297.351C282.952 296.207 287.8 294.453 291.935 290.726C292.241 290.475 292.575 290.401 292.908 290.326C295.513 289.683 297.877 288.24 300.333 287.021C300.435 286.937 300.658 286.887 300.509 286.677C300.065 286.411 299.573 286.582 299.129 286.681C297.284 287.033 295.505 287.431 293.66 287.782C293.382 287.844 292.965 288.12 292.789 287.733C292.178 286.408 290.862 286.093 289.76 285.304C291.836 284.596 293.81 283.972 295.599 282.901C298.668 281.18 301.532 279.26 303.314 275.938C303.583 275.451 304.018 275.293 304.454 275.134C306.28 274.3 307.708 272.762 309.349 271.481C308.246 271.423 307.273 271.824 306.225 272.119C304.956 272.464 303.639 273.611 302.342 272.317C302.212 272.224 301.981 272.215 301.758 272.265C298.95 272.344 296.319 271.349 293.269 271.726C295.773 269.339 298.378 267.599 300.279 265.042C303.237 261.152 306.075 257.228 306.828 252.125C306.884 251.747 307.181 251.437 307.366 251.152C309.063 248.762 310.251 246.06 311.679 243.425C309.946 244.849 308.286 246.377 306.96 248.197C305.921 249.647 304.586 250.311 303.048 250.777C297.931 252.287 293.62 255.261 289.809 259.22C288.122 260.937 286.703 262.899 285.988 265.313C285.422 267.206 285.579 268.938 286.949 270.337C287.163 270.594 287.478 270.767 287.014 271.115C286.189 271.726 285.438 272.442 284.409 272.855C285.301 267.904 284.617 263.549 281.783 259.796C281.57 259.539 281.533 259.304 281.654 258.972C281.923 258.12 281.84 257.225 281.766 256.389C281.609 255.023 281.786 253.582 281.231 252.244C280.572 254.28 280.08 256.278 279.597 258.336C279.448 258.856 279.29 259.318 278.827 259.665C274.692 262.661 271.437 266.496 269.257 271.308C269.136 271.64 269.145 272.064 268.645 272.176C268.21 270.872 268.146 269.364 266.923 268.541C266.663 268.355 266.895 267.999 266.97 267.738C267.796 264.934 266.907 262.209 267.02 259.259C266.455 259.691 266.538 260.22 266.426 260.611C265.869 262.928 265.432 265.28 264.755 267.563C264.532 268.344 264.17 268.973 263.577 269.593C261.898 271.37 260.303 273.31 258.838 275.344C257.048 277.876 255.518 280.594 254.219 283.687C253.405 281.067 253.341 278.461 252.23 276.151C252.147 275.987 252.221 275.727 252.249 275.538C252.945 272.275 252.382 269.051 252.559 265.782C251.863 267.948 251.297 270.207 250.721 272.407C250.34 274.015 250.21 275.75 248.634 276.712C248.476 276.808 248.337 277.022 248.254 277.223C244.998 282.885 242.048 288.662 241.016 295.289C240.988 295.478 241.025 295.714 240.738 295.717C240.266 294.178 240.007 292.53 239.368 291.028C238.211 288.423 235.978 288.131 234.42 290.672C230.969 296.195 228.075 301.96 226.737 308.472C225.706 313.637 225.852 318.6 228.296 323.17C228.713 323.991 228.722 324.415 228.082 325.107C222.018 331.945 216.102 338.994 210.519 346.334C209.657 347.441 209.054 347.637 207.868 347.049C200.715 343.653 193.255 343.433 185.663 346.41C179.054 349.045 173.593 353.495 168.827 359.068C168.15 359.89 167.473 360.711 166.74 361.545C166.602 361.028 166.778 360.684 166.898 360.352C171.511 346.467 176.875 332.963 183.09 319.755C184.129 317.573 185.224 315.379 186.263 313.197C186.486 312.782 186.597 312.392 187.199 312.562C192.555 314.044 197.811 313.052 202.937 310.87C210.278 307.767 215.73 302.161 220.108 295.213C220.34 294.856 220.516 294.512 220.952 294.354C223.686 293.438 225.847 291.432 228.164 289.695C228.368 289.528 228.758 289.441 228.739 288.958C228.322 288.868 227.952 289.073 227.627 289.206C225.347 290.082 223.067 290.957 220.86 291.938C220.156 292.217 219.739 292.127 219.341 291.425C223.948 289.603 227.517 286.307 231.05 282.776C232.144 281.678 233.294 280.568 234.397 279.529C235.195 278.742 236.112 277.988 236.512 276.864C236.632 276.532 236.845 276.424 237.123 276.361C239.311 275.629 241.369 274.437 243.464 273.482C244.104 273.156 244.882 272.982 245.476 272.362C245.003 271.919 244.521 272.149 244.076 272.248C242.473 272.668 240.777 272.864 239.266 273.507C236.883 274.466 234.836 273.888 232.612 272.923C233.428 272.619 234.243 272.315 234.938 271.977C240.89 269.184 246.017 265.174 250.18 259.796C250.422 259.499 250.69 259.378 250.978 259.374C253.712 259.189 256.196 257.781 258.791 257.079C258.958 257.042 259.246 257.038 259.264 256.79C259.329 256.471 259.033 256.416 258.847 256.335C258.606 256.267 258.31 256.212 258.032 256.274C255.752 256.418 253.435 256.693 251.136 257.085C250.803 257.159 250.385 257.436 250.108 257.132C249.385 256.197 248.329 255.702 247.18 255.35C247.384 255.183 247.43 255.111 247.43 255.111C252.686 253.753 257.654 251.668 262.456 248.888C262.771 248.696 263.114 248.68 263.513 248.652C265.107 248.539 266.719 248.544 268.304 248.373C270.343 248.16 272.364 248.196 274.458 247.606C274.107 246.832 273.467 246.792 272.939 246.727C269.955 246.42 266.962 246.053 263.949 246.301C263.607 246.316 263.227 246.462 262.995 246.088C261.828 244.155 259.78 243.578 257.955 242.585C257.075 242.111 256.158 241.768 254.981 241.24C255.491 241.186 255.602 241.162 255.778 241.183C262.701 241.28 269.485 239.763 276.169 237.598C277.976 237.012 279.663 236.756 281.414 236.913C281.878 236.931 282.35 237.008 282.814 237.026C285.195 237.164 287.577 237.301 290.024 237.485C289.811 236.497 289.153 236.34 288.551 236.17C285.521 235.203 282.407 234.437 279.191 234.486C278.793 234.514 278.45 234.53 278.2 234.037C277.792 233.276 277.088 232.824 276.44 232.36C274.958 231.351 273.531 230.33 272.058 229.38C272.373 228.822 272.67 228.878 272.948 228.815C275.58 228.349 278.092 227.482 280.502 226.334C284.85 224.327 288.864 221.662 293.035 219.268C293.406 219.063 293.823 218.787 293.944 218.455C294.538 217.104 295.631 217.103 296.716 217.044C297.281 216.978 297.911 216.959 298.467 216.835C300.72 216.514 302.861 215.852 305.196 215.33C304.687 214.652 304.159 214.587 303.631 214.523C300.804 214.119 298.033 214.434 295.225 214.879C294.771 214.92 294.344 215.137 293.89 214.812C292.399 213.745 290.703 213.21 289.007 212.676C282.512 210.534 275.867 209.278 268.916 210.467C268.805 210.492 268.693 210.517 268.703 210.21C269.621 209.457 270.585 208.632 271.799 208.299C275.905 207.32 279.789 205.66 283.544 203.541C287.622 201.289 291.201 198.418 294.039 194.493C297.443 189.773 298.548 184.348 298.801 178.626C298.839 177.399 299.099 176.122 298.738 174.924C298.525 174.301 298.683 173.84 299.063 173.328C300.352 171.639 301.447 169.81 302.291 167.855C303.005 166.172 303.84 164.523 304.61 162.828C301.782 166.08 299.297 169.316 296.83 172.67ZM289.695 266.19C290.075 264.948 290.78 263.937 291.55 262.973C294.443 259.402 297.948 256.791 301.998 255.093C299.818 259.54 297.305 263.697 293.17 266.327C292.336 266.879 291.474 267.254 290.519 267.407C289.657 267.417 289.37 267.055 289.695 266.19ZM284.907 278.591C285.88 277.46 287.15 276.75 288.513 276.262C291.85 275.15 295.242 275.123 298.893 275.647C296.454 278.081 293.859 279.514 291.032 280.572C289.345 281.193 287.63 281.638 285.823 281.493C285.183 281.454 284.377 281.451 284.146 280.711C283.84 279.866 284.369 279.199 284.907 278.591ZM271.487 277.45C271.517 274.702 272.63 272.26 273.993 269.945C275.311 267.701 277.026 265.794 278.816 263.993C279.363 263.444 279.706 263.429 280.002 264.215C280.4 265.284 280.742 266.364 280.946 267.294C281.703 272.485 278.948 277.67 274.582 279.56C272.524 280.386 271.496 279.702 271.487 277.45ZM281.697 284.182C279.325 284.469 277.137 284.837 274.987 285.439C274.968 285.322 274.903 285.275 274.885 285.157C276.526 283.877 278.121 282.667 279.762 281.387C280.068 281.135 280.253 281.216 280.318 281.628C280.512 282.498 280.984 283.306 281.697 284.182ZM287.321 288.469C287.552 288.478 287.784 288.487 287.96 288.874C285.994 290.288 283.788 291.269 281.554 292.073C278.449 293.194 275.335 293.89 272.119 293.573C271.359 293.5 270.219 293.572 270.099 292.807C269.914 291.995 270.989 291.511 271.675 291.114C276.654 288.356 281.927 287.481 287.321 288.469ZM269.011 282.207C269.604 282.683 270.067 283.067 270.595 283.497C270.447 283.652 270.298 283.807 270.15 283.962C269.594 284.452 269.028 284.883 268.212 285.553C268.528 284.264 268.788 283.353 269.011 282.207ZM257.099 287.002C258.344 281.729 261.302 277.473 264.882 273.139C265.935 279.117 265.868 284.554 261.584 289.167C260.796 290.014 259.869 290.708 258.84 291.121C257.7 291.559 257.134 291.259 256.94 290.023C256.774 288.963 256.904 287.96 257.099 287.002ZM267.753 296.56C265.528 296.692 263.304 296.824 261.006 296.85C262.628 295.452 264.186 294.007 266.012 292.441C265.919 294.412 266.613 295.535 267.753 296.56ZM254.713 296.369C255.029 294.349 255.029 294.349 256.864 295.401C256.613 295.639 256.372 295.937 256.066 296.188C255.668 296.582 255.26 296.917 254.555 297.562C254.685 296.923 254.704 296.676 254.713 296.369ZM255.182 303.757C256.285 302.718 257.63 302.113 259.011 301.743C263.979 300.389 268.993 300.425 274.025 300.945C274.145 300.979 274.219 301.084 274.349 301.177C272.133 302.83 269.779 303.965 267.341 304.937C264.143 306.2 260.88 307.052 257.488 307.079C256.969 307.073 256.385 307.021 255.848 306.898C255.134 306.752 254.254 306.645 254.115 305.762C253.912 304.833 254.57 304.259 255.182 303.757ZM244.612 295.46C245.439 290.828 247.359 286.561 249.484 282.492C249.53 282.42 249.632 282.337 249.892 282.157C250.732 287.147 251.953 291.991 250.746 297.134C250.087 299.901 248.862 302.368 246.387 303.835C245.173 304.533 245.052 304.499 244.728 303.17C244.099 300.631 244.156 298.059 244.612 295.46ZM241.734 305.728C242.326 306.57 242.789 307.32 243.243 308.01C243.466 308.326 243.326 308.54 243.132 308.766C242.585 309.315 242.038 309.864 241.296 310.639C241.426 308.904 241.594 307.404 241.734 305.728ZM244.731 317.12C249.43 315.886 254.138 315.443 259.189 315.349C255.09 320.773 250.881 325.492 244.578 327.145C242.149 327.809 239.703 327.991 237.312 327.064C234.968 326.065 234.57 324.265 236.184 322.077C237.13 320.769 238.252 319.848 239.577 319.125C241.274 318.197 242.961 317.577 244.731 317.12ZM229.877 313.436C229.888 309.474 231.02 305.687 232.523 302.062C233.563 299.514 234.796 297.106 236.345 294.506C237.289 297.95 237.742 301.199 237.851 304.464C237.915 307.07 237.58 309.703 237.004 312.268C236.279 315.72 234.314 318.231 231.968 320.522C231.374 321.142 231.282 320.553 231.106 320.166C230.254 318.042 229.903 315.806 229.877 313.436ZM181.656 352.788C189.342 347.841 197.368 346.899 205.522 350.437C206.939 351.034 208.162 352.222 209.58 352.819C212.739 354.245 215.074 356.647 216.611 359.836C217.286 361.208 217.693 362.701 217.999 364.277C217.424 364.284 217.081 363.934 216.701 363.715C212.671 361.875 208.492 360.921 204.015 361.373C201.411 361.651 198.76 361.635 196.165 361.971C191.132 362.548 186.414 364.395 181.909 366.865C172.259 372.129 165.119 380.183 159.581 390.011C159.358 390.426 159.256 390.875 158.737 391.235C158.998 388.131 159.565 385.141 160.428 382.206C164.29 369.769 170.986 359.621 181.656 352.788ZM161.358 356.596C159.872 363.629 158.015 370.502 156.288 377.467C156.214 377.727 156.13 377.929 155.935 378.52C154.96 363.509 153.976 348.804 156.485 333.989C157.963 325.069 160.284 316.387 163.152 307.887C163.235 307.686 163.31 307.426 163.57 306.88C164.198 309.785 164.549 312.387 164.724 314.968C165.653 328.954 164.266 342.849 161.358 356.596ZM255.097 211.181C255.098 208.988 255.396 206.85 255.925 204.721C257.29 199.116 259.897 194.087 262.439 189.01C264.151 193.684 264.436 198.432 262.849 203.356C261.754 206.647 260.01 209.473 257.887 212.08C257.831 212.093 257.84 212.152 257.785 212.164C257.034 212.88 256.19 213.739 255.309 213.631C254.892 213.542 255.06 212.042 255.097 211.181ZM254.155 223.88C253.599 224.004 253.108 224.175 252.635 224.098C253.34 222.722 253.396 222.709 254.155 223.88ZM239.738 217.844C240.38 212.401 242.125 207.381 244.953 202.667C245.093 202.453 245.232 202.239 245.371 202.025C245.417 201.954 245.575 201.858 245.732 201.762C246.556 203.344 246.991 205.013 247.315 206.708C249.053 214.482 247.873 221.63 242.133 227.604C241.985 227.759 241.781 227.926 241.586 228.152C241.002 228.831 240.705 228.776 240.446 227.859C239.484 224.663 239.356 221.28 239.738 217.844ZM236.887 229.751C238.081 231.86 237.951 232.498 235.8 234.198C236.19 232.648 236.543 231.229 236.887 229.751ZM240.573 234.897C241.035 236.743 242.026 237.923 243.37 238.78C240.923 238.961 238.597 239.177 236.122 239.547C237.615 238.056 239.043 236.519 240.573 234.897ZM222.751 234.313C222.91 230.927 223.728 227.699 224.776 224.479C225.937 220.869 227.458 217.361 228.924 213.866C229.054 213.593 229.091 213.097 229.443 213.14C229.62 213.162 229.786 213.49 229.944 213.76C231.509 216.395 232.536 219.272 233.09 222.437C234.098 228.487 232.371 233.99 229.514 239.258C228.587 241.05 227.4 242.655 226.407 244.4C225.823 245.444 225.434 245.166 224.961 244.358C223.22 241.336 222.573 237.947 222.751 234.313ZM224.967 252.459C225.254 252.09 225.458 252.288 225.606 252.498C226.532 253.632 227.829 254.194 229.09 254.887C226.615 255.258 224.205 256.04 221.637 256.554C222.806 255.196 223.863 253.863 224.967 252.459ZM205.967 253.539C205.97 247.325 207.688 241.397 209.831 235.618C210.193 234.624 210.564 233.688 210.982 232.681C211.019 232.551 211.121 232.467 211.307 232.182C213.872 236.055 215.501 240.199 215.786 244.947C216.255 252.335 214.018 258.988 210.104 265.224C209.594 266.008 209.298 265.953 208.899 265.25C206.631 261.798 205.993 257.737 205.967 253.539ZM213.353 273.818C211.555 274.464 209.803 275.038 207.875 275.957C208.571 274.522 209.396 273.545 210.092 272.476C210.323 272.12 210.574 272.247 210.777 272.445C211.546 272.943 212.464 273.286 213.353 273.818ZM204.145 265.034C204.821 266.04 205.34 267.142 206.007 268.09C206.386 268.675 207.415 268.993 207.201 269.833C207.08 270.53 206.357 271.057 205.996 271.686C205.356 272.743 204.78 273.846 204.15 274.962C203.964 274.882 203.835 274.789 203.649 274.709C204.3 271.517 204.422 268.261 204.145 265.034ZM193.906 262.145C194.352 259.121 194.919 256.131 195.662 253.163C201.813 259.342 201.887 277.417 195.73 285.13C194.656 283.055 194.017 280.822 193.601 278.539C192.686 273.078 193.097 267.626 193.906 262.145ZM198.081 291.305C198.211 291.032 198.405 290.806 198.711 290.92C199.823 291.403 200.981 291.814 202.334 292.364C200.045 293.181 198.089 293.923 196.04 294.807C196.717 293.62 197.394 292.433 198.081 291.305ZM185.145 306.076C184.477 307.322 184.153 307.456 183.05 306.667C181.16 305.262 179.725 303.451 178.586 301.329C176.308 297.087 175.689 292.413 176.118 287.444C176.519 282.663 177.819 278.109 179.211 273.411C186.223 282.138 189.081 291.916 186.064 303.495C185.915 304.381 185.59 305.246 185.145 306.076ZM200.686 307.536C197.155 308.874 193.521 309.564 189.87 309.04C188.462 308.868 188.517 308.856 189.111 307.504C191.579 301.592 196.39 298.871 201.655 296.841C205.993 295.14 210.479 294.746 214.946 294.966C215.122 294.987 215.233 294.962 215.419 295.043C215.474 295.03 215.548 295.136 215.678 295.228C211.663 300.817 206.943 305.223 200.686 307.536ZM216.988 288.174C211.798 289.944 206.691 289.684 201.734 287.808C200.446 287.304 200.502 287.291 201.503 286.336C201.651 286.181 201.846 285.955 201.985 285.741C204.1 281.979 207.428 280.077 211.08 278.773C217.633 276.516 224.232 276.381 230.895 277.023C231.016 277.057 231.081 277.103 231.331 277.23C226.88 281.515 222.837 286.196 216.988 288.174ZM225.987 270.323C222.761 270.679 219.61 270.774 216.422 270.269C215.412 270.068 214.449 269.796 213.578 269.382C212.892 269.048 212.67 268.732 213.226 267.877C215.582 264.548 218.345 261.98 222.127 260.769C229.746 258.335 237.448 257.892 245.213 258.958C245.389 258.979 245.575 259.059 245.936 259.161C240.206 265.194 233.855 269.477 225.987 270.323ZM257.212 246.65C257.332 246.684 257.406 246.789 257.61 246.987C252.938 249.494 248.174 251.046 243.206 251.67C239.712 252.147 236.208 252.199 232.706 251.52C231.455 251.252 230.204 250.983 229.11 250.253C228.091 249.628 228.156 248.943 229.121 248.118C232.292 245.216 235.814 243.454 239.901 243.088C245.295 242.613 250.355 243.675 255.22 245.694C255.896 245.969 256.526 246.316 257.212 246.65ZM269.367 235.342C262.601 236.977 255.817 237.763 249.043 236.415C248.033 236.214 247.004 235.896 246.077 235.494C244.586 234.792 244.271 234.253 244.355 232.589C244.402 232.153 244.717 231.96 244.967 231.722C246.775 230.038 248.916 229.011 251.187 228.442C257.666 226.811 267.553 229.656 272.361 234.612C271.304 234.848 270.368 235.119 269.367 235.342ZM280.341 214.674C283.204 215.313 286.068 215.952 289.07 217.108C284.639 219.683 280.569 222.36 275.981 223.934C271.504 225.483 267.036 225.629 262.616 224.242C260.865 223.72 259.234 222.866 257.789 221.727C257.131 221.204 257.196 220.885 257.864 220.37C264.78 215.291 272.103 212.8 280.341 214.674ZM295.02 179.106C294.785 186.042 292.613 192.01 287.217 196.506C283.193 199.843 278.79 202.228 274.063 204.016C273.951 204.041 273.849 204.125 273.738 204.15C272.793 204.361 272.237 203.755 272.414 202.679C273.408 197.279 275.912 192.699 279.556 188.777C283.794 184.235 288.976 181.31 294.316 178.654C294.844 178.353 295.029 178.433 295.02 179.106Z" fill="#9CC3FF"/>
<path d="M241.001 104.64C238.594 105.99 236.186 107.339 233.79 108.754C233.09 109.181 232.473 109.319 231.681 109.158C229.378 108.727 227.105 108.491 224.75 108.545C223.537 108.545 222.333 108.612 220.863 108.603C222.077 107.385 223.126 106.339 223.96 105.139C229.157 97.9603 231.948 89.6977 234.132 81.2328C234.369 80.301 234.462 79.2662 234.072 78.4071C233.681 77.5481 233.98 77.0081 234.309 76.2585C236.162 72.1939 237.954 68.143 239.735 64.0269C238.83 63.9589 238.552 64.6294 238.243 65.104C236.102 68.557 234.023 71.9962 231.934 75.37C231.677 75.7656 231.502 76.2779 230.874 76.3506C228.828 76.7406 227.171 77.9897 225.525 79.3042C219.805 83.9631 215.062 89.5528 211.089 95.9841C208.907 99.5815 207.064 103.306 205.982 107.401C205.622 108.766 205.385 110.103 205.672 111.526C206 113.21 205.661 113.895 204.025 114.869C204.417 112.888 204.685 110.936 204.881 108.931C205.336 103.692 205.226 98.5119 205.938 93.2828C206.144 91.7495 206.484 90.2539 205.683 88.8108C205.591 88.6287 205.663 88.2746 205.683 87.9995C207.424 82.8109 207.715 77.3381 208.735 72.0401C208.797 71.6206 208.869 71.2665 208.869 70.8609C208.52 71.0743 208.437 71.3631 208.345 71.5866C206.923 75.9603 205.44 80.3478 204.019 84.7214C203.463 86.4681 203.092 88.1735 201.466 89.2129C200.942 89.533 200.592 90.152 200.232 90.7057C195.415 97.8665 192.162 105.624 191.15 114.232C191.088 114.652 191.293 115.147 190.779 115.532C189.762 112.718 189.218 109.662 187.101 107.567C186.947 107.399 186.957 107.058 186.978 106.783C187.7 102.836 186.653 99.0146 186.613 95.1027C186.604 93.8205 186.543 92.6174 186.513 91.2046C185.977 91.865 186.08 92.5181 185.977 93.0819C185.44 97.393 184.975 101.756 184.438 106.067C184.397 106.617 184.417 107.153 183.831 107.487C182.36 108.289 181.567 109.751 180.908 111.25C178.767 115.92 177.89 120.915 177.6 125.982C177.424 128.928 177.628 131.857 178.151 134.782C177.565 134.71 177.483 134.188 177.246 133.903C175.777 131.865 174.194 129.921 172.385 128.162C171.789 127.62 171.182 127.012 170.411 126.981C169.321 126.955 169.043 126.408 169.013 125.401C168.83 120.575 166.879 116.28 166.079 111.592C165.605 111.833 165.657 112.159 165.687 112.355C165.85 115.834 166.023 119.378 166.248 122.842C166.35 125.118 166.894 127.362 167.129 129.676C167.375 132.054 167.116 134.478 166.982 136.874C166.65 142.491 165.876 148.14 166.377 153.773C166.51 155.434 166.818 156.987 167.074 158.62C166.879 158.596 166.755 158.623 166.745 158.558C163.877 155.346 160.979 152.344 157.061 150.584C156.722 150.457 156.599 150.079 156.537 149.687C155.624 145.903 152.54 143.753 150.844 140.279C150.721 141.118 150.967 141.469 151.101 141.912C152.107 144.661 153.052 147.424 154.007 150.253C154.151 150.761 154.418 151.242 154.058 151.796C153.337 152.904 153.46 154.093 153.521 155.296C153.644 156.891 153.767 158.486 153.889 160.081C154.298 165.532 154.521 171.025 155.557 176.404C155.865 177.958 156.235 179.498 156.614 181.103C156.008 180.9 155.874 180.457 155.628 180.106C154.497 178.602 153.398 176.887 151.794 176.029C150.046 175.068 149.173 173.573 148.515 171.828C147.17 168.14 144.312 165.805 141.938 162.888C141.67 163.624 142.05 164.012 142.246 164.442C143.602 167.383 144.968 170.39 146.386 173.318C147.053 174.723 147.711 176.063 146.476 177.556C146.312 177.728 146.291 178.003 146.26 178.213C144.096 186.403 143.28 194.629 145.148 202.864C145.568 204.731 146.226 206.476 146.708 208.329C146.132 207.917 145.608 207.426 145.156 206.986C143.131 205.073 141.219 203.067 138.597 202.234C137.517 201.867 137.055 201.362 136.819 200.265C136.029 196.859 133.541 194.847 131.65 192.16C131.444 192.882 131.69 193.233 131.803 193.545C132.646 196.061 133.549 198.563 134.453 201.065C134.802 202.068 135.059 202.889 134.246 203.815C133.711 204.475 133.546 205.458 133.36 206.311C132.866 208.855 132.638 211.475 132.4 214.029C131.903 221.035 132.466 227.872 135.496 234.157C138.64 240.755 143.193 245.753 150.288 247.411C151.286 247.661 150.926 248.215 150.833 248.844C150.812 249.119 150.73 249.408 150.709 249.683C152.015 250.269 153.279 251.001 154.585 251.587C154.688 251.024 154.802 250.525 154.905 249.961C155.049 249.253 155.08 248.638 156.047 248.692C167.081 248.996 176.329 244.427 183.954 235.625C189.469 229.254 193.411 221.815 197.199 214.209C197.591 213.445 197.838 212.579 197.458 211.785C197.078 210.991 197.407 210.647 197.983 210.248C199.433 209.315 199.619 207.651 200.443 205.98C198.324 206.724 196.863 207.997 195.454 209.191C194.888 209.656 194.291 209.924 193.52 209.894C189.807 209.845 186.156 210.188 182.515 211.003C182.269 211.058 182.042 211.244 181.806 210.958C181.796 210.893 181.847 210.814 181.847 210.814C182.187 210.535 182.516 210.191 182.855 209.913C188.925 204.635 193.875 198.323 196.399 190.391C197.171 187.987 198.323 186.783 200.124 185.637C202.912 183.864 204.291 180.852 206.349 178.093C205.485 178.287 205.166 178.696 204.703 179.002C201.864 181.26 199.014 183.452 196 185.41C195.65 185.623 195.269 186.046 194.807 185.947C192.431 185.464 190.066 185.452 187.248 185.406C189.542 183.744 191.456 182.1 193.071 180.184C198.052 174.473 201.079 167.713 203.602 160.592C203.725 160.158 203.839 159.66 203.839 159.254C203.829 158.378 204.271 157.941 204.837 157.476C206.648 155.99 208.705 154.854 210.341 153.069C212.584 150.674 214.776 148.359 217.019 145.965C217.184 145.793 217.533 145.579 217.4 145.136C217.102 145.27 216.865 145.391 216.7 145.563C212.297 148.846 207.946 152.049 203.553 155.398C202.699 156.062 202.071 156.134 201.331 155.489C201.383 155.41 201.372 155.344 201.434 155.331C201.712 155.066 202.051 154.787 202.329 154.522C207.628 150.025 212.309 144.855 215.336 138.5C216.963 135.027 219.175 132.842 222.23 131.145C224.76 129.768 226.304 126.989 228.599 124.921C227.735 124.709 227.354 125.132 226.881 125.373C223.62 127.387 220.421 129.386 217.16 131.4C216.81 131.613 216.429 132.036 216.09 131.909C215.041 131.333 213.961 131.777 212.583 131.95C213.036 131.578 213.149 131.485 213.314 131.313C216.76 128.853 220.042 126.159 223.149 123.166C226.596 119.894 230.094 116.543 233.006 112.715C233.696 111.817 234.426 111.18 235.362 110.633C237.934 109.112 239.879 106.852 241.854 104.382C241.556 104.111 241.289 104.441 241.001 104.64ZM209.736 108.116C210.745 104.781 212.248 101.741 214.09 98.8281C218.032 92.6065 222.58 86.9928 228.27 82.5436C228.671 82.2511 228.99 81.8418 229.802 81.7277C227.588 88.7799 225.353 95.7014 221.257 101.755C220.372 103.034 219.343 104.211 218.16 105.219C216.802 106.334 215.505 107.435 213.695 107.704C212.636 107.873 211.628 108.369 210.63 108.93C210.342 109.13 209.972 109.213 209.746 108.993C209.458 108.787 209.653 108.405 209.736 108.116ZM195.106 121.122C194.696 118.104 194.985 115.065 195.593 112.022C196.604 107.064 198.364 102.412 200.722 97.8967C200.876 97.6594 200.897 97.3843 201.318 97.2224C200.884 103.403 201.158 109.629 199.428 115.694C198.851 117.716 198.068 119.648 196.946 121.454C196.638 121.928 196.329 122.403 195.743 122.331C195.085 122.208 195.177 121.579 195.106 121.122ZM192.665 127.143C194.094 128.513 194.094 128.513 192.54 130.415C192.541 129.198 192.644 128.229 192.665 127.143ZM198.156 129.971C198.298 132.508 199.13 134.552 201.536 135.637C197.597 137.396 194.068 139.335 190.766 141.898C192.928 137.765 195.439 133.823 198.156 129.971ZM181.805 127.543C181.89 123.198 182.509 119.004 183.961 114.826C184.218 114.025 184.476 113.224 185.165 112.326C186.767 116.835 188.092 121.203 188.378 125.871C188.653 130.473 187.797 134.788 185.625 138.857C185.327 139.396 185.131 140.184 184.555 140.177C183.918 140.185 183.836 139.257 183.569 138.776C182.059 135.26 181.711 131.417 181.805 127.543ZM182.27 144.744C183.864 145.537 184.121 145.953 182.69 147.422C182.557 146.573 182.414 145.658 182.27 144.744ZM181.697 159.811C182.941 161.629 184.575 162.277 186.704 162.41C183.319 164.856 180.315 167.286 177.414 169.962C178.804 166.61 180.204 163.322 181.697 159.811ZM170.614 152.691C170.134 146.376 171.258 140.109 171.436 133.512C179.001 141.825 181.125 152.504 174.97 162.938C174.373 164.018 174.023 163.826 173.499 162.929C171.67 159.823 170.87 156.351 170.614 152.691ZM173.847 167.583C173.435 168.621 173.116 169.436 172.745 170.33C171.553 168.028 171.656 167.87 173.847 167.583ZM158.229 160.868C158.137 159.469 158.055 158.135 157.963 156.736C157.953 156.671 158.004 156.592 158.097 156.368C168.48 163.916 171.364 175.371 166.546 186.182C166.217 186.932 165.908 188.218 165.147 188.253C164.324 188.302 164.057 187.009 163.626 186.295C159.217 178.56 158.841 169.654 158.229 160.868ZM164.332 193.234C164.795 193.334 164.537 193.729 164.455 194.018C163.981 195.476 163.569 196.92 162.972 198.406C162.459 195.952 161.936 193.432 161.361 190.992C162.265 191.871 163.067 192.909 164.332 193.234ZM165.419 219.692C163.526 221.468 161.993 223.095 160.326 225.09C160.368 224.54 160.347 224.409 160.388 224.265C161.254 220.421 161.254 220.421 165.419 219.692ZM152.122 241.999C151.905 243.061 150.98 242.862 150.311 242.674C147.905 241.995 145.972 240.67 144.163 238.911C139.939 234.786 137.699 229.473 136.869 223.372C136.183 218.186 136.576 212.96 137.298 207.796C137.443 206.683 137.721 206.418 138.656 207.087C145.266 212.166 150.066 218.732 152.478 227.183C152.653 227.887 152.889 228.578 153.002 229.296C153.166 229.936 153.197 230.537 153.33 231.386C154.326 234.881 152.833 238.392 152.122 241.999ZM150.043 180.341C157.948 187.564 161.046 203.23 157.594 217.048C148.488 206.646 146.417 194.266 150.043 180.341ZM192.417 214.264C189.381 220.148 186.293 225.705 182.352 230.71C179.367 234.487 175.993 237.81 171.888 240.148C167.609 242.592 163.094 243.939 158.332 244.125C157.252 244.164 156.903 243.972 157.006 242.596C157.4 235.749 161.012 230.682 165.252 225.949C169.759 220.885 175.221 217.433 181.536 215.751C185.074 214.689 188.643 214.229 192.417 214.264ZM191.072 189.824C192.162 189.851 192.1 190.27 191.729 191.164C188.023 199.293 182.415 205.482 175.163 210.146C171.912 212.224 168.466 213.874 164.835 215.159C164.167 215.376 163.447 215.672 162.675 215.642C165.09 199.284 175.502 189.114 191.072 189.824ZM199.128 160.984C196.08 168.831 192.518 176.252 185.574 181.252C181.788 183.991 177.663 185.792 173.333 187.098C172.418 187.371 172.367 187.044 172.562 186.257C173.449 182.543 175.312 179.355 177.668 176.463C183.276 169.463 190.231 164.528 198.099 160.943C198.398 160.809 198.748 160.596 199.087 160.722C199.107 160.853 199.118 160.918 199.128 160.984ZM207.065 143.594C202.887 148.719 198.196 153.013 192.476 156.049C190.82 156.893 189.144 157.606 187.385 157.796C185.308 157.99 184.804 157.224 185.556 155.095C185.957 153.992 186.565 152.977 187.254 152.079C191.494 146.129 197.09 142.309 203.416 139.475C206.05 138.345 208.765 137.333 211.81 136.382C210.399 139.198 208.835 141.441 207.065 143.594ZM225.992 114.418C220.888 119.75 215.548 124.798 209.448 128.663C207.884 129.688 206.3 130.583 204.521 131.049C202.803 131.5 202.361 131.126 202.578 129.252C202.991 125.78 204.371 122.768 206.491 119.996C209.043 116.721 212.406 114.955 216.068 113.866C219.606 112.804 223.206 112.54 226.805 112.682C227 112.706 227.134 112.743 227.34 112.833C227.01 113.582 226.434 113.981 225.992 114.418Z" fill="#9CC3FF"/>
<path d="M141.596 314.924C141.534 315.343 141.677 315.852 141.451 316.038C140.969 312.968 140.415 309.847 139.975 306.634C137.874 291.623 133.623 277.567 126.482 264.631C122.382 257.233 117.429 250.905 110.263 246.761C109.975 246.555 109.718 246.139 109.07 246.487C110.159 248.948 110.826 251.57 111.503 254.257C114.521 266.562 117.23 278.935 119.507 291.404C121.691 303.286 123.187 315.254 123.767 327.495C124.276 338.467 124.147 349.447 124.08 360.413C123.98 377.267 124.002 394.094 122.945 410.959C122.033 425.494 121.316 440.052 122.317 454.565C122.92 463.285 123.965 471.975 129.813 478.711C130.358 479.333 130.563 480.639 131.365 480.46C132.352 480.239 132.343 478.957 132.58 478.025C135.63 465.716 137.703 453.288 139.118 440.736C139.314 439.138 139.51 437.539 139.644 435.954C140.177 440.567 140.524 445.221 140.8 449.824C140.83 450.425 140.923 451.013 141.2 451.559C141.477 452.106 141.878 452.624 142.495 452.486C143.112 452.348 142.866 451.592 142.866 451.187C143.776 440.708 143.792 430.227 143.303 419.791C142.55 404.412 142.557 388.998 142.76 373.608C143.25 339.7 145.93 305.91 151.047 272.184C152.13 265.25 153.285 258.367 154.625 251.443C153.32 250.856 152.055 250.125 150.749 249.538C146.553 271.229 143.653 293.035 141.596 314.924ZM138.757 357.063C138.51 378.277 138.078 399.531 136.69 420.797C135.551 437.951 133.311 455.013 130.032 471.97C130.011 472.245 129.919 472.468 129.836 472.757C128.419 468.207 127.373 463.574 126.881 458.817C125.51 445.604 125.845 432.28 126.695 418.976C128.405 391.622 128.346 364.393 128.277 337.099C128.193 319.881 126.175 302.959 122.852 286.262C120.995 276.876 119.014 267.517 116.726 258.227C116.695 258.031 116.664 257.835 116.562 257.182C119.285 261.102 121.597 264.844 123.673 268.706C129.406 279.186 132.989 290.62 135.061 302.595C138.065 320.512 138.951 338.769 138.757 357.063Z" fill="#9CC3FF"/>
<path d="M213.901 379.197C214.476 380.826 213.622 381.896 213.025 382.976C210.185 387.667 207.19 392.19 204.061 396.675C193.863 411.461 182.78 425.498 170.659 438.618C168.972 440.483 166.935 441.749 164.826 442.965C161.833 444.648 158.839 446.331 155.846 448.014C155.732 448.107 155.599 448.07 155.403 448.046C155.435 447.43 155.836 447.138 156.175 446.859C170.528 433.307 183 417.946 194.865 401.976C199.979 395.086 205.772 388.856 211.257 382.29C212.059 381.299 212.924 380.295 213.901 379.197Z" fill="#9CC3FF"/>
</svg>
