<svg width="344" height="445" viewBox="0 0 344 445" fill="none" xmlns="http://www.w3.org/2000/svg">
<path d="M139.06 29.9751C138.741 30.3845 138.555 30.8316 137.928 30.9044C136.416 31.0399 135.202 31.8524 133.989 32.6649C125.636 38.4551 119.647 46.2849 116.085 56.1404C115.941 56.443 116.013 56.9001 115.591 57.0621C115.273 55.849 115.026 54.6874 114.656 53.5533C113.773 50.7767 113.157 47.6698 111.235 45.5989C110.001 44.2526 110.238 43.3208 110.66 41.9419C110.887 41.3504 111.041 40.7075 111.196 40.0645C111.979 36.9149 112.566 33.7415 113.216 30.1487C112.331 31.0227 112.001 31.7724 111.61 32.5359C109.83 36.2468 108.522 40.1222 107.482 44.0729C107.368 44.5715 107.255 45.07 106.936 45.4794C104.487 49.4075 103.066 53.7814 102.118 58.3199C101.284 62.3598 101.231 66.4952 101.424 70.5754C100.602 69.0018 100.058 67.1633 99.03 65.9062C97.2928 63.7938 96.9647 61.2985 96.7395 58.645C96.5042 55.5205 96.2071 52.4098 96.0438 49.3368C96.013 49.1409 96.0337 48.8659 95.7149 48.8697C95.2725 49.3067 95.3648 49.8944 95.3234 50.4444C94.9519 53.7723 94.6421 57.0864 94.5894 60.4106C94.5063 62.3219 94.2177 64.1441 93.5587 66.0491C91.2835 72.3042 89.8103 78.7855 89.3963 85.5028C89.21 88.3836 89.2809 91.2745 89.4237 94.2169C88.2318 91.5093 86.1039 89.3492 85.9097 86.0803C85.7462 83.413 85.2125 80.8285 84.617 78.2578C84.1756 76.261 83.621 74.3572 83.1076 72.309C82.552 72.8389 82.6238 73.296 82.6339 73.7669C82.7461 76.1078 82.92 78.4348 82.9088 80.8033C82.9691 84.4401 83.8317 87.8974 82.5858 91.759C81.0619 96.2912 80.0213 101.053 79.1762 105.839C79.135 105.983 79.104 106.193 78.7852 106.197C78.0687 97.5695 76.3546 89.0977 75.1341 80.5154C74.9086 78.6731 74.6933 76.8961 74.6529 75.0124C74.3782 67.5704 74.9981 60.131 74.6719 52.7681C74.5291 49.8258 74.7566 46.8005 74.7989 43.8167C70.5075 51.0638 67.1108 58.7191 64.3103 66.917C61.946 64.0662 59.736 61.3837 57.5877 58.6874C54.3292 54.6172 50.7517 50.9563 46.6702 47.7463C38.8772 41.649 30.3227 36.8037 21.5314 32.4846C15.0948 29.3285 8.22547 27.8916 1.08839 27.5962C0.769577 27.6 0.348022 27.3563 0.162732 27.8034C-0.0842688 28.2643 0.28588 28.587 0.460593 28.8859C1.36509 30.1706 2.57832 30.9807 3.74008 31.8698C8.80868 35.6701 13.9802 39.3122 18.6784 43.601C35.4253 58.7129 47.0697 77.9411 56.3789 98.9764C57.17 100.76 57.3956 102.602 57.3229 104.579C56.8863 116.439 57.8176 128.06 60.6927 139.449C61.0725 141.054 61.4524 142.659 61.9043 144.315C59.2303 144.373 58.3456 145.247 58.252 147.904C58.2102 149.671 58.2403 151.49 58.2705 153.308C58.4329 158.815 58.6672 164.373 60.4443 169.586C63.3412 177.861 68.656 183.228 76.965 184.884C77.9522 185.068 78.312 185.326 78.2396 186.491C78.2086 186.701 78.2394 186.897 78.2702 187.093C79.6174 187.129 81.0365 187.217 82.4145 187.45C82.4249 187.109 82.4251 186.704 82.4355 186.363C82.4256 185.487 82.6109 185.04 83.5159 185.108C83.773 185.118 84.1432 185.035 84.3901 184.979C91.4663 183.261 96.97 178.852 101.384 172.794C107.054 164.968 109.721 155.921 111.37 146.494C111.618 145.221 111.968 144.197 112.791 143.337C115.949 139.858 118.316 135.813 120.395 131.157C119.84 131.687 119.5 131.965 119.223 132.23C116.136 135.355 113.204 138.647 110.498 142.16C110.179 142.569 109.87 143.044 109.222 142.986C108.132 142.96 107.114 143.39 106.034 143.835C105.19 144.159 104.347 144.483 103.565 144.793C107.794 140.399 110.943 135.233 113.331 129.696C114.885 126.171 116.892 123.085 119.71 120.697C122.92 117.951 124.403 113.968 126.677 110.553C126.265 110.78 125.926 111.059 125.586 111.338C122.603 114.304 119.609 117.205 116.636 120.236C115.535 121.361 114.681 122.025 113.067 121.508C111.329 121.018 109.416 121.446 107.575 121.52C107.616 121.376 107.596 121.245 107.647 121.166C113.305 116.52 117.185 110.311 120.776 103.897C121.384 102.882 121.837 101.699 122.875 100.993C125.591 99.1687 127.546 96.568 129.429 93.9158C130.057 93.0317 130.746 92.1339 131.477 91.0916C130.716 91.1267 130.407 91.6014 130.006 91.894C127.743 93.7525 125.49 95.6763 123.154 97.4834C122.815 97.7621 122.517 98.3021 122.064 97.8625C121.468 97.32 120.676 97.1592 119.761 97.0261C120.1 96.7473 120.203 96.5891 120.316 96.4962C125.542 92.3522 129.566 87.0578 132.417 80.809C132.561 80.5063 132.746 80.0593 132.973 79.8734C135.544 77.9458 137.15 75.153 139.207 72.7997C139.804 72.1253 140.247 71.2827 140.864 70.3333C140 70.5267 139.681 70.9361 139.352 71.2801C137.428 72.8599 135.515 74.5049 133.591 76.0847C133.252 76.3634 132.881 76.8519 132.367 76.4262C131.431 75.7568 130.516 76.0293 129.58 76.5768C127.893 77.6303 125.527 78.4302 123.645 78.6486C128.953 75.4327 132.986 71.0149 136.341 65.9378C138.306 62.9967 140.529 60.4714 143.44 58.6707C145.939 57.0972 147.298 54.3596 149.387 52.2022C148.728 52.0791 148.409 52.4885 148.06 52.7019C145.426 54.2377 142.886 55.9556 140.417 57.7249C140.015 58.0175 139.707 58.4922 139.193 58.0664C138.154 57.1497 136.972 57.3468 135.748 57.6883C133.979 58.2195 132.22 58.8159 130.481 59.5429C128.023 60.5663 125.688 61.9677 123.24 63.4621C123.333 62.8329 123.672 62.5541 123.929 62.1585C125.555 59.9019 127.387 57.7345 129.084 55.5293C133.272 50.0629 136.452 43.8756 139.293 37.5615C139.952 36.0621 140.744 34.6003 140.478 32.9025C140.416 32.5106 140.684 32.1804 140.9 31.9292C143.39 29.0736 144.934 25.4833 147.002 22.384C147.208 22.0676 147.547 21.7888 147.455 21.201C144.482 23.8268 141.622 26.7653 139.06 29.9751ZM108.95 50.5718C113.06 60.0622 113.036 69.261 106.872 78.4144C105.138 69.0007 104.586 59.7956 108.95 50.5718ZM115.221 81.548C112.856 82.7535 110.798 83.8899 108.751 85.0916C109.461 83.9187 110.11 82.7597 110.82 81.5867C110.974 81.3494 111.2 81.1635 111.478 81.3042C112.548 81.6056 113.74 81.4738 115.221 81.548ZM96.3749 70.5564C101.925 78.6428 101.209 94.4183 94.9853 99.9348C92.2947 90.1268 93.512 80.3905 96.3749 70.5564ZM101.463 103.352C100.434 104.123 99.5701 104.722 98.6546 105.4C98.9949 103.093 99.2828 102.894 101.463 103.352ZM82.2579 114.884C82.4352 108.692 83.9287 102.747 85.5251 96.6442C92.4013 106.665 90.6284 116.931 85.2971 127.318C84.4335 126.7 84.002 125.579 83.5705 124.459C82.389 121.411 82.1332 118.156 82.2579 114.884ZM85.7598 153.848C86.7676 153.758 87.7448 153.471 88.7424 153.316C87.2814 154.995 85.7999 156.543 84.2874 158.301C84.473 157.043 84.6483 155.719 84.834 154.461C84.9473 153.962 85.3792 153.865 85.7598 153.848ZM80.6606 149.446C80.2692 151.021 79.724 151.21 78.5623 150.321C76.249 148.608 74.5428 146.286 73.4126 143.565C70.2687 135.751 70.5598 127.439 71.3447 119.016C74.264 122.554 77.2246 125.947 79.4649 130.042C81.2428 133.227 81.9305 136.791 81.8879 140.586C81.8353 143.505 81.4125 146.506 80.6606 149.446ZM14.3525 33.9562C18.5169 35.6605 22.4755 37.6812 26.3929 39.8464C32.6855 43.3052 38.8236 47.0013 44.4473 51.4885C51.0066 56.6452 56.0227 63.364 60.8638 70.1895C62.0972 71.9414 62.2097 73.471 61.5816 75.572C60.0781 80.6404 59.1608 85.7804 58.3772 90.9581C58.3153 91.3775 58.3871 91.8347 58.0167 92.3231C47.3919 69.4192 33.9688 49.0343 14.3525 33.9562ZM78.2732 179.386C78.0773 180.579 77.4501 180.246 76.8537 180.109C71.599 178.784 67.8157 175.44 65.3598 170.379C63.1916 165.929 62.669 160.976 62.4653 156.02C62.3734 154.215 62.3433 152.396 62.3031 150.107C67.2789 154.537 71.8846 158.643 75.4099 164.006C78.3802 168.681 79.0569 173.803 78.2732 179.386ZM79.5551 162.334C78.9177 161.936 78.7534 161.297 78.4244 160.83C75.7316 156.701 72.2569 153.287 68.6793 150.032C67.8569 149.27 67.271 148.387 66.9115 147.318C59.3523 121.97 59.2286 96.3782 67.4147 70.4133C68.3517 67.432 69.4122 64.4231 70.74 61.4896C70.4403 65.2746 70.1508 69.1249 70.3036 72.9439C70.558 79.8496 71.7997 86.5344 72.9181 93.2468C74.0157 100.234 74.918 107.198 75.018 114.341C75.0281 114.812 74.9765 115.296 75.0071 115.898C74.0098 115.242 73.5474 114.332 72.8587 113.607C72.0157 112.714 71.0287 112.124 69.7533 112.545C68.5396 112.952 67.8707 113.98 67.6851 115.238C66.2002 125.305 65.7952 135.333 69.5041 144.71C71.5281 149.868 74.8175 153.728 79.9486 155.487C80.3496 155.6 80.5039 155.768 80.4522 156.253C80.0607 158.233 79.8645 160.237 79.5551 162.334ZM105.837 148.273C106.32 148.097 106.732 147.87 106.546 148.722C104.537 157.487 101.778 165.946 95.6252 172.731C92.6826 175.958 89.2982 178.405 85.2354 179.788C83.96 180.209 83.96 180.209 83.714 178.236C83.1417 168.9 85.9114 160.506 94.1102 154.548C97.721 151.914 101.763 149.996 105.837 148.273ZM109.548 125.54C110.237 125.454 110.401 125.687 110.062 126.372C105.481 137.469 98.0116 145.225 87.1089 149.017C85.6586 149.544 85.6483 149.479 85.7929 147.959C86.3297 142.837 88.1106 138.315 91.6704 134.544C95.8372 130.164 100.631 127.333 106.668 125.914C107.419 125.814 108.478 125.644 109.548 125.54ZM92.1163 125.183C91.7565 124.925 92.0138 124.53 92.0242 124.19C93.014 117.884 96.2657 112.965 100.957 109.076C105.535 105.28 110.822 103.15 116.561 101.866C111.26 113.26 102.834 120.621 92.1163 125.183ZM126.78 82.3409C121.224 91.2908 114.115 96.8701 104.643 98.7874C104.334 98.8565 103.861 99.0976 103.686 98.7987C103.378 98.4621 103.758 98.0389 103.954 97.6571C106.496 92.2886 110.622 88.8642 115.528 86.3465C119.005 84.4867 122.666 83.3968 126.78 82.3409ZM132.732 63.2979C128.184 69.7237 123.204 75.435 115.408 77.0446C119.73 70.399 125.686 66.024 132.732 63.2979ZM134.285 38.2093C131.423 43.9872 128.562 49.7651 123.984 54.3725C122.276 56.1067 121.514 58.5756 119.878 60.3613C119.549 60.7054 119.302 61.1663 118.983 61.5757C118.849 61.538 118.767 61.4212 118.633 61.3835C121.054 51.5807 126.713 44.095 133.976 37.8727C134.367 37.9205 134.336 38.1302 134.285 38.2093Z" fill="#9CC3FF"/>
<path d="M296.83 101.67C296.542 102.039 296.366 102.383 295.875 102.554C294.012 103.153 292.269 104.152 290.563 105.021C284.492 108.145 278.753 111.926 274.487 117.753C270.926 122.57 268.532 127.857 268.464 134.025C268.446 134.272 268.492 134.567 268.232 134.746C267.203 135.525 266.174 136.303 265.089 137.094C267.854 131.237 268.255 125.36 266.915 119.385C266.461 117.233 265.953 115.092 264.702 113.362C264.11 112.52 264.129 111.906 264.389 110.995C265.261 108.12 264.975 105.199 265.486 102.221C265.051 102.38 265.032 102.628 264.949 102.829C263.956 105.67 263.009 108.441 262.016 111.282C261.849 111.685 261.812 112.181 261.394 112.457C260.56 113.009 260.068 113.911 259.632 114.8C258.25 117.729 256.812 120.67 255.439 123.657C253.778 127.379 252.359 131.169 251.671 135.221C251.606 135.54 251.661 135.893 251.3 136.157C250.874 134.181 250.458 132.264 249.773 130.467C249.181 128.894 248.7 127.296 247.282 126.334C246.958 126.102 247.032 125.841 247.162 125.569C248.544 122.64 248.388 119.446 249.002 116.385C249.132 115.747 249.317 115.096 249.234 114.201C248.483 115.283 248.251 116.37 247.889 117.365C246.293 121.499 244.873 125.654 242.119 129.377C238.743 133.908 237.072 139.399 236.18 145.081C236.124 145.459 236.207 145.989 235.808 146.383C234.79 143.564 233.633 140.96 231.901 138.728C230.03 136.344 227.769 136.606 226.433 139.463C223.724 145.308 221.191 151.174 219.816 157.451C218.237 164.627 218.438 171.405 222.976 177.213C223.198 177.529 223.235 177.764 222.994 178.062C221.687 179.634 220.435 181.193 219.137 182.823C218.84 182.402 219.081 182.105 219.146 181.785C219.983 177.578 219.901 173.393 219.023 169.264C218.079 165.089 216.441 161.252 213.81 158.063C211.81 155.587 209.567 155.966 208.203 159.012C207.516 160.506 206.904 162.105 206.347 163.692C203.907 170.146 202.17 176.687 202.278 183.608C202.296 184.457 202.305 185.247 202.379 186.083C201.379 184.113 200.481 182.06 199.388 180.233C198.768 179.215 198.138 178.137 197.221 177.428C195.785 176.348 194.172 176.709 193.226 178.383C192.772 179.154 192.503 180.006 192.289 180.846C190.72 186.984 189.688 193.246 189.463 199.51C189.294 203.934 189.736 208.221 190.967 212.392C191.689 214.79 192.939 216.886 193.929 219.162C194.031 219.444 194.3 219.688 194.068 220.045C193.205 221.517 192.352 223.048 191.489 224.52C191.424 224.474 191.369 224.486 191.248 224.452C191.239 224.028 191.24 223.662 191.23 223.238C191.241 221.103 191.084 219.006 190.65 216.971C189.291 209.782 185.605 203.906 181.354 198.46C181.132 198.144 180.807 197.912 180.483 197.68C179.307 196.785 177.861 197.109 176.97 198.404C176.599 198.975 176.349 199.579 176.163 200.23C175.012 203.898 173.926 207.613 173.201 211.431C171.928 217.99 171.851 224.464 174.48 230.577C176.193 234.52 178.564 237.888 182.27 239.862C183.085 240.289 183.02 240.608 182.668 241.296C176.897 252.942 171.804 264.863 167.331 277.072C167.256 277.332 167.256 277.698 166.811 277.797C166.839 277.608 166.821 277.491 166.849 277.302C168.485 266.458 169.204 255.637 168.764 244.77C168.545 238.971 166.935 233.848 163.647 229.406C162.98 228.458 162.563 228.734 162.118 229.565C161.802 230.123 161.542 230.668 161.348 231.26C160.735 232.859 160.187 234.504 159.631 236.091C155.306 248.876 152.334 261.846 151.456 275.322C150.747 285.837 151.576 296.251 152.182 306.715C152.587 313.691 152.592 320.695 151.727 327.65C151.234 331.477 150.908 335.266 150.183 339.083C149.059 345.121 149.093 351.205 149.47 357.274C149.589 359.501 149.866 361.632 150.597 363.723C150.839 362.328 151.025 360.947 151.202 359.506C152.988 345.583 156.655 332.275 163.649 319.989C169.335 310.007 176.938 302.337 187.116 297.868C189.916 296.633 192.817 295.679 195.783 295.138C195.801 295.621 195.551 295.86 195.356 296.086C188.326 306.309 181.686 316.809 175.684 327.715C172.326 333.827 169.098 340.031 166.806 346.697C166.694 347.087 166.407 347.456 166.564 348.091C167.621 346.758 168.53 345.58 169.485 344.331C171.052 342.214 173.064 340.363 174.307 338.014C176.682 333.706 178.992 329.351 181.431 325.09C187.405 314.739 193.841 304.771 200.658 295.023C200.945 294.654 201.186 294.356 201.696 294.303C206.562 294.129 211.344 294.522 215.745 296.888C217.635 297.928 219.748 298.552 221.434 300.124C221.454 296.586 221.817 293.033 221.003 289.682C219.884 285.119 217.022 281.922 213.464 279.428C212.88 279.01 212.556 278.778 213.178 277.969C218.593 271.031 224.148 264.246 229.971 257.705C230.361 257.252 230.741 256.741 231.269 256.44C231.686 256.164 231.863 256.186 232.103 256.619C233.585 259.455 236.161 260.463 239.033 260.796C243.139 261.279 247.05 260.161 250.749 258.054C255.718 255.237 259.344 250.833 262.692 246.124C263.452 245.101 264.166 244.515 265.362 244.431C268.318 244.196 270.673 242.329 273.204 240.85C270.664 241.174 268.143 241.616 265.622 242.058C265.233 242.145 264.76 242.433 264.445 241.894C263.908 241.04 263.093 240.978 262.222 240.93C256.698 240.581 251.239 241.009 245.743 241.934C245.409 242.008 245.002 242.343 244.64 241.876C246.532 239.991 248.368 238.118 250.306 236.162C251.444 239.014 253.612 239.992 256.235 240.197C256.819 240.249 257.393 240.243 257.968 240.236C260.489 240.16 262.945 239.671 265.355 238.889C270.518 237.308 275.385 234.94 279.492 231.037C279.946 230.631 280.438 230.46 281.003 230.395C284.145 230.24 286.861 228.476 289.948 227.603C289.355 227.126 288.854 227.238 288.4 227.279C286.472 227.466 284.508 227.418 282.682 227.887C280.466 228.443 279.031 226.998 277.131 226.631C277.391 226.451 277.613 226.401 277.835 226.351C282.952 225.207 287.8 223.453 291.935 219.726C292.241 219.475 292.575 219.401 292.908 219.326C295.513 218.683 297.877 217.24 300.333 216.021C300.435 215.937 300.658 215.887 300.509 215.677C300.065 215.411 299.573 215.582 299.129 215.681C297.284 216.033 295.505 216.431 293.66 216.782C293.382 216.844 292.965 217.12 292.789 216.733C292.178 215.408 290.862 215.093 289.76 214.304C291.836 213.596 293.81 212.972 295.599 211.901C298.668 210.18 301.532 208.26 303.314 204.938C303.583 204.451 304.018 204.293 304.454 204.134C306.28 203.3 307.708 201.762 309.349 200.481C308.246 200.423 307.273 200.824 306.225 201.119C304.956 201.464 303.639 202.611 302.342 201.317C302.212 201.224 301.981 201.215 301.758 201.265C298.95 201.344 296.319 200.349 293.269 200.726C295.773 198.339 298.378 196.599 300.279 194.042C303.237 190.152 306.075 186.228 306.828 181.125C306.884 180.747 307.181 180.437 307.366 180.152C309.063 177.762 310.251 175.06 311.679 172.425C309.946 173.849 308.286 175.377 306.96 177.197C305.921 178.647 304.586 179.311 303.048 179.777C297.931 181.287 293.62 184.261 289.809 188.22C288.122 189.937 286.703 191.899 285.988 194.313C285.422 196.206 285.579 197.938 286.949 199.337C287.163 199.594 287.478 199.767 287.014 200.115C286.189 200.726 285.438 201.442 284.409 201.855C285.301 196.904 284.617 192.549 281.783 188.796C281.57 188.539 281.533 188.304 281.654 187.972C281.923 187.12 281.84 186.225 281.766 185.389C281.609 184.023 281.786 182.582 281.231 181.244C280.572 183.28 280.08 185.278 279.597 187.336C279.448 187.856 279.29 188.318 278.827 188.665C274.692 191.661 271.437 195.496 269.257 200.308C269.136 200.64 269.145 201.064 268.645 201.176C268.21 199.872 268.146 198.364 266.923 197.541C266.663 197.355 266.895 196.999 266.97 196.738C267.796 193.934 266.907 191.209 267.02 188.259C266.455 188.691 266.538 189.22 266.426 189.611C265.869 191.928 265.432 194.28 264.755 196.563C264.532 197.344 264.17 197.973 263.577 198.593C261.898 200.37 260.303 202.31 258.838 204.344C257.048 206.876 255.518 209.594 254.219 212.687C253.405 210.067 253.341 207.461 252.23 205.151C252.147 204.987 252.221 204.727 252.249 204.538C252.945 201.275 252.382 198.051 252.559 194.782C251.863 196.948 251.297 199.207 250.721 201.407C250.34 203.015 250.21 204.75 248.634 205.712C248.476 205.808 248.337 206.022 248.254 206.223C244.998 211.885 242.048 217.662 241.016 224.289C240.988 224.478 241.025 224.714 240.738 224.717C240.266 223.178 240.007 221.53 239.368 220.028C238.211 217.423 235.978 217.131 234.42 219.672C230.969 225.195 228.075 230.96 226.737 237.472C225.706 242.637 225.852 247.6 228.296 252.17C228.713 252.991 228.722 253.415 228.082 254.107C222.018 260.945 216.102 267.994 210.519 275.334C209.657 276.441 209.054 276.637 207.868 276.049C200.715 272.653 193.255 272.433 185.663 275.41C179.054 278.045 173.593 282.495 168.827 288.068C168.15 288.89 167.473 289.711 166.74 290.545C166.602 290.028 166.778 289.684 166.898 289.352C171.511 275.467 176.875 261.963 183.09 248.755C184.129 246.573 185.224 244.379 186.263 242.197C186.486 241.782 186.597 241.392 187.199 241.562C192.555 243.044 197.811 242.052 202.937 239.87C210.278 236.767 215.73 231.161 220.108 224.213C220.34 223.856 220.516 223.512 220.952 223.354C223.686 222.438 225.847 220.432 228.164 218.695C228.368 218.528 228.758 218.441 228.739 217.958C228.322 217.868 227.952 218.073 227.627 218.206C225.347 219.082 223.067 219.957 220.86 220.938C220.156 221.217 219.739 221.127 219.341 220.425C223.948 218.603 227.517 215.307 231.05 211.776C232.144 210.678 233.294 209.568 234.397 208.529C235.195 207.742 236.112 206.988 236.512 205.864C236.632 205.532 236.845 205.424 237.123 205.361C239.311 204.629 241.369 203.437 243.464 202.482C244.104 202.156 244.882 201.982 245.476 201.362C245.003 200.919 244.521 201.149 244.076 201.248C242.473 201.668 240.777 201.864 239.266 202.507C236.883 203.466 234.836 202.888 232.612 201.923C233.428 201.619 234.243 201.315 234.938 200.977C240.89 198.184 246.017 194.174 250.18 188.796C250.422 188.499 250.69 188.378 250.978 188.374C253.712 188.189 256.196 186.781 258.791 186.079C258.958 186.042 259.246 186.038 259.264 185.79C259.329 185.471 259.033 185.416 258.847 185.335C258.606 185.267 258.31 185.212 258.032 185.274C255.752 185.418 253.435 185.693 251.136 186.085C250.803 186.159 250.385 186.436 250.108 186.132C249.385 185.197 248.329 184.702 247.18 184.35C247.384 184.183 247.43 184.111 247.43 184.111C252.686 182.753 257.654 180.668 262.456 177.888C262.771 177.696 263.114 177.68 263.513 177.652C265.107 177.539 266.719 177.544 268.304 177.373C270.343 177.16 272.364 177.196 274.458 176.606C274.107 175.832 273.467 175.792 272.939 175.727C269.955 175.42 266.962 175.053 263.949 175.301C263.607 175.316 263.227 175.462 262.995 175.088C261.828 173.155 259.78 172.578 257.955 171.585C257.075 171.111 256.158 170.768 254.981 170.24C255.491 170.186 255.602 170.162 255.778 170.183C262.701 170.28 269.485 168.763 276.169 166.598C277.976 166.012 279.663 165.756 281.414 165.913C281.878 165.931 282.35 166.008 282.814 166.026C285.195 166.164 287.577 166.301 290.024 166.485C289.811 165.497 289.153 165.34 288.551 165.17C285.521 164.203 282.407 163.437 279.191 163.486C278.793 163.514 278.45 163.53 278.2 163.037C277.792 162.276 277.088 161.824 276.44 161.36C274.958 160.351 273.531 159.33 272.058 158.38C272.373 157.822 272.67 157.878 272.948 157.815C275.58 157.349 278.092 156.482 280.502 155.334C284.85 153.327 288.864 150.662 293.035 148.268C293.406 148.063 293.823 147.787 293.944 147.455C294.538 146.104 295.631 146.103 296.716 146.044C297.281 145.978 297.911 145.959 298.467 145.835C300.72 145.514 302.861 144.852 305.196 144.33C304.687 143.652 304.159 143.587 303.631 143.523C300.804 143.119 298.033 143.434 295.225 143.879C294.771 143.92 294.344 144.137 293.89 143.812C292.399 142.745 290.703 142.21 289.007 141.676C282.512 139.534 275.867 138.278 268.916 139.467C268.805 139.492 268.693 139.517 268.703 139.21C269.621 138.457 270.585 137.632 271.799 137.299C275.905 136.32 279.789 134.66 283.544 132.541C287.622 130.289 291.201 127.418 294.039 123.493C297.443 118.773 298.548 113.348 298.801 107.626C298.839 106.399 299.099 105.122 298.738 103.924C298.525 103.301 298.683 102.84 299.063 102.328C300.352 100.639 301.447 98.8103 302.291 96.8549C303.005 95.1722 303.84 93.5235 304.61 91.8284C301.782 95.0802 299.297 98.3163 296.83 101.67ZM289.695 195.19C290.075 193.948 290.78 192.937 291.55 191.973C294.443 188.402 297.948 185.791 301.998 184.093C299.818 188.54 297.305 192.697 293.17 195.327C292.336 195.879 291.474 196.254 290.519 196.407C289.657 196.417 289.37 196.055 289.695 195.19ZM284.907 207.591C285.88 206.46 287.15 205.75 288.513 205.262C291.85 204.15 295.242 204.123 298.893 204.647C296.454 207.081 293.859 208.514 291.032 209.572C289.345 210.193 287.63 210.638 285.823 210.493C285.183 210.454 284.377 210.451 284.146 209.711C283.84 208.866 284.369 208.199 284.907 207.591ZM271.487 206.45C271.517 203.702 272.63 201.26 273.993 198.945C275.311 196.701 277.026 194.794 278.816 192.993C279.363 192.444 279.706 192.429 280.002 193.215C280.4 194.284 280.742 195.364 280.946 196.294C281.703 201.485 278.948 206.67 274.582 208.56C272.524 209.386 271.496 208.702 271.487 206.45ZM281.697 213.182C279.325 213.469 277.137 213.837 274.987 214.439C274.968 214.322 274.903 214.275 274.885 214.157C276.526 212.877 278.121 211.667 279.762 210.387C280.068 210.135 280.253 210.216 280.318 210.628C280.512 211.498 280.984 212.306 281.697 213.182ZM287.321 217.469C287.552 217.478 287.784 217.487 287.96 217.874C285.994 219.288 283.788 220.269 281.554 221.073C278.449 222.194 275.335 222.89 272.119 222.573C271.359 222.5 270.219 222.572 270.099 221.807C269.914 220.995 270.989 220.511 271.675 220.114C276.654 217.356 281.927 216.481 287.321 217.469ZM269.011 211.207C269.604 211.683 270.067 212.067 270.595 212.497C270.447 212.652 270.298 212.807 270.15 212.962C269.594 213.452 269.028 213.883 268.212 214.553C268.528 213.264 268.788 212.353 269.011 211.207ZM257.099 216.002C258.344 210.729 261.302 206.473 264.882 202.139C265.935 208.117 265.868 213.554 261.584 218.167C260.796 219.014 259.869 219.708 258.84 220.121C257.7 220.559 257.134 220.259 256.94 219.023C256.774 217.963 256.904 216.96 257.099 216.002ZM267.753 225.56C265.528 225.692 263.304 225.824 261.006 225.85C262.628 224.452 264.186 223.007 266.012 221.441C265.919 223.412 266.613 224.535 267.753 225.56ZM254.713 225.369C255.029 223.349 255.029 223.349 256.864 224.401C256.613 224.639 256.372 224.937 256.066 225.188C255.668 225.582 255.26 225.917 254.555 226.562C254.685 225.923 254.704 225.676 254.713 225.369ZM255.182 232.757C256.285 231.718 257.63 231.113 259.011 230.743C263.979 229.389 268.993 229.425 274.025 229.945C274.145 229.979 274.219 230.084 274.349 230.177C272.133 231.83 269.779 232.965 267.341 233.937C264.143 235.2 260.88 236.052 257.488 236.079C256.969 236.073 256.385 236.021 255.848 235.898C255.134 235.752 254.254 235.645 254.115 234.762C253.912 233.833 254.57 233.259 255.182 232.757ZM244.612 224.46C245.439 219.828 247.359 215.561 249.484 211.492C249.53 211.42 249.632 211.337 249.892 211.157C250.732 216.147 251.953 220.991 250.746 226.134C250.087 228.901 248.862 231.368 246.387 232.835C245.173 233.533 245.052 233.499 244.728 232.17C244.099 229.631 244.156 227.059 244.612 224.46ZM241.734 234.728C242.326 235.57 242.789 236.32 243.243 237.01C243.466 237.326 243.326 237.54 243.132 237.766C242.585 238.315 242.038 238.864 241.296 239.639C241.426 237.904 241.594 236.404 241.734 234.728ZM244.731 246.12C249.43 244.886 254.138 244.443 259.189 244.349C255.09 249.773 250.881 254.492 244.578 256.145C242.149 256.809 239.703 256.991 237.312 256.064C234.968 255.065 234.57 253.265 236.184 251.077C237.13 249.769 238.252 248.848 239.577 248.125C241.274 247.197 242.961 246.577 244.731 246.12ZM229.877 242.436C229.888 238.474 231.02 234.687 232.523 231.062C233.563 228.514 234.796 226.106 236.345 223.506C237.289 226.95 237.742 230.199 237.851 233.464C237.915 236.07 237.58 238.703 237.004 241.268C236.279 244.72 234.314 247.231 231.968 249.522C231.374 250.142 231.282 249.553 231.106 249.166C230.254 247.042 229.903 244.806 229.877 242.436ZM181.656 281.788C189.342 276.841 197.368 275.899 205.522 279.437C206.939 280.034 208.162 281.222 209.58 281.819C212.739 283.245 215.074 285.647 216.611 288.836C217.286 290.208 217.693 291.701 217.999 293.277C217.424 293.284 217.081 292.934 216.701 292.715C212.671 290.875 208.492 289.921 204.015 290.373C201.411 290.651 198.76 290.635 196.165 290.971C191.132 291.548 186.414 293.395 181.909 295.865C172.259 301.129 165.119 309.183 159.581 319.011C159.358 319.426 159.256 319.875 158.737 320.235C158.998 317.131 159.565 314.141 160.428 311.206C164.29 298.769 170.986 288.621 181.656 281.788ZM161.358 285.596C159.872 292.629 158.015 299.502 156.288 306.467C156.214 306.727 156.13 306.929 155.935 307.52C154.96 292.509 153.976 277.804 156.485 262.989C157.963 254.069 160.284 245.387 163.152 236.887C163.235 236.686 163.31 236.426 163.57 235.88C164.198 238.785 164.549 241.387 164.724 243.968C165.653 257.954 164.266 271.849 161.358 285.596ZM255.097 140.181C255.098 137.988 255.396 135.85 255.925 133.721C257.29 128.116 259.897 123.087 262.439 118.01C264.151 122.684 264.436 127.432 262.849 132.356C261.754 135.647 260.01 138.473 257.887 141.08C257.831 141.093 257.84 141.152 257.785 141.164C257.034 141.88 256.19 142.739 255.309 142.631C254.892 142.542 255.06 141.042 255.097 140.181ZM254.155 152.88C253.599 153.004 253.108 153.175 252.635 153.098C253.34 151.722 253.396 151.709 254.155 152.88ZM239.738 146.844C240.38 141.401 242.125 136.381 244.953 131.667C245.093 131.453 245.232 131.239 245.371 131.025C245.417 130.954 245.575 130.858 245.732 130.762C246.556 132.344 246.991 134.013 247.315 135.708C249.053 143.482 247.873 150.63 242.133 156.604C241.985 156.759 241.781 156.926 241.586 157.152C241.002 157.831 240.705 157.776 240.446 156.859C239.484 153.663 239.356 150.28 239.738 146.844ZM236.887 158.751C238.081 160.86 237.951 161.498 235.8 163.198C236.19 161.648 236.543 160.229 236.887 158.751ZM240.573 163.897C241.035 165.743 242.026 166.923 243.37 167.78C240.923 167.961 238.597 168.177 236.122 168.547C237.615 167.056 239.043 165.519 240.573 163.897ZM222.751 163.313C222.91 159.927 223.728 156.699 224.776 153.479C225.937 149.869 227.458 146.361 228.924 142.866C229.054 142.593 229.091 142.097 229.443 142.14C229.62 142.162 229.786 142.49 229.944 142.76C231.509 145.395 232.536 148.272 233.09 151.437C234.098 157.487 232.371 162.99 229.514 168.258C228.587 170.05 227.4 171.655 226.407 173.4C225.823 174.444 225.434 174.166 224.961 173.358C223.22 170.336 222.573 166.947 222.751 163.313ZM224.967 181.459C225.254 181.09 225.458 181.288 225.606 181.498C226.532 182.632 227.829 183.194 229.09 183.887C226.615 184.258 224.205 185.04 221.637 185.554C222.806 184.196 223.863 182.863 224.967 181.459ZM205.967 182.539C205.97 176.325 207.688 170.397 209.831 164.618C210.193 163.624 210.564 162.688 210.982 161.681C211.019 161.551 211.121 161.467 211.307 161.182C213.872 165.055 215.501 169.199 215.786 173.947C216.255 181.335 214.018 187.988 210.104 194.224C209.594 195.008 209.298 194.953 208.899 194.25C206.631 190.798 205.993 186.737 205.967 182.539ZM213.353 202.818C211.555 203.464 209.803 204.038 207.875 204.957C208.571 203.522 209.396 202.545 210.092 201.476C210.323 201.12 210.574 201.247 210.777 201.445C211.546 201.943 212.464 202.286 213.353 202.818ZM204.145 194.034C204.821 195.04 205.34 196.142 206.007 197.09C206.386 197.675 207.415 197.993 207.201 198.833C207.08 199.53 206.357 200.057 205.996 200.686C205.356 201.743 204.78 202.846 204.15 203.962C203.964 203.882 203.835 203.789 203.649 203.709C204.3 200.517 204.422 197.261 204.145 194.034ZM193.906 191.145C194.352 188.121 194.919 185.131 195.662 182.163C201.813 188.342 201.887 206.417 195.73 214.13C194.656 212.055 194.017 209.822 193.601 207.539C192.686 202.078 193.097 196.626 193.906 191.145ZM198.081 220.305C198.211 220.032 198.405 219.806 198.711 219.92C199.823 220.403 200.981 220.814 202.334 221.364C200.045 222.181 198.089 222.923 196.04 223.807C196.717 222.62 197.394 221.433 198.081 220.305ZM185.145 235.076C184.477 236.322 184.153 236.456 183.05 235.667C181.16 234.262 179.725 232.451 178.586 230.329C176.308 226.087 175.689 221.413 176.118 216.444C176.519 211.663 177.819 207.109 179.211 202.411C186.223 211.138 189.081 220.916 186.064 232.495C185.915 233.381 185.59 234.246 185.145 235.076ZM200.686 236.536C197.155 237.874 193.521 238.564 189.87 238.04C188.462 237.868 188.517 237.856 189.111 236.504C191.579 230.592 196.39 227.871 201.655 225.841C205.993 224.14 210.479 223.746 214.946 223.966C215.122 223.987 215.233 223.962 215.419 224.043C215.474 224.03 215.548 224.136 215.678 224.228C211.663 229.817 206.943 234.223 200.686 236.536ZM216.988 217.174C211.798 218.944 206.691 218.684 201.734 216.808C200.446 216.304 200.502 216.291 201.503 215.336C201.651 215.181 201.846 214.955 201.985 214.741C204.1 210.979 207.428 209.077 211.08 207.773C217.633 205.516 224.232 205.381 230.895 206.023C231.016 206.057 231.081 206.103 231.331 206.23C226.88 210.515 222.837 215.196 216.988 217.174ZM225.987 199.323C222.761 199.679 219.61 199.774 216.422 199.269C215.412 199.068 214.449 198.796 213.578 198.382C212.892 198.048 212.67 197.732 213.226 196.877C215.582 193.548 218.345 190.98 222.127 189.769C229.746 187.335 237.448 186.892 245.213 187.958C245.389 187.979 245.575 188.059 245.936 188.161C240.206 194.194 233.855 198.477 225.987 199.323ZM257.212 175.65C257.332 175.684 257.406 175.789 257.61 175.987C252.938 178.494 248.174 180.046 243.206 180.67C239.712 181.147 236.208 181.199 232.706 180.52C231.455 180.252 230.204 179.983 229.11 179.253C228.091 178.628 228.156 177.943 229.121 177.118C232.292 174.216 235.814 172.454 239.901 172.088C245.295 171.613 250.355 172.675 255.22 174.694C255.896 174.969 256.526 175.316 257.212 175.65ZM269.367 164.342C262.601 165.977 255.817 166.763 249.043 165.415C248.033 165.214 247.004 164.896 246.077 164.494C244.586 163.792 244.271 163.253 244.355 161.589C244.402 161.153 244.717 160.96 244.967 160.722C246.775 159.038 248.916 158.011 251.187 157.442C257.666 155.811 267.553 158.656 272.361 163.612C271.304 163.848 270.368 164.119 269.367 164.342ZM280.341 143.674C283.204 144.313 286.068 144.952 289.07 146.108C284.639 148.683 280.569 151.36 275.981 152.934C271.504 154.483 267.036 154.629 262.616 153.242C260.865 152.72 259.234 151.866 257.789 150.727C257.131 150.204 257.196 149.885 257.864 149.37C264.78 144.291 272.103 141.8 280.341 143.674ZM295.02 108.106C294.785 115.042 292.613 121.01 287.217 125.506C283.193 128.843 278.79 131.228 274.063 133.016C273.951 133.041 273.849 133.125 273.738 133.15C272.793 133.361 272.237 132.755 272.414 131.679C273.408 126.279 275.912 121.699 279.556 117.777C283.794 113.235 288.976 110.31 294.316 107.654C294.844 107.353 295.029 107.433 295.02 108.106Z" fill="#9CC3FF"/>
<path d="M241.001 33.6405C238.594 34.9899 236.186 36.3393 233.79 37.754C233.09 38.1808 232.473 38.3188 231.681 38.1578C229.378 37.7265 227.105 37.4911 224.75 37.5445C223.537 37.5455 222.333 37.6117 220.863 37.6025C222.077 36.3847 223.126 35.3389 223.96 34.1385C229.157 26.9603 231.948 18.6977 234.132 10.2328C234.369 9.301 234.462 8.26623 234.072 7.40715C233.681 6.54807 233.98 6.00814 234.309 5.2585C236.162 1.19387 237.954 -2.85696 239.735 -6.97309C238.83 -7.04113 238.552 -6.37058 238.243 -5.89596C236.102 -2.44299 234.023 0.996169 231.934 4.37004C231.677 4.76555 231.502 5.27789 230.874 5.35057C228.828 5.74062 227.171 6.98974 225.525 8.30418C219.805 12.9631 215.062 18.5528 211.089 24.9841C208.907 28.5815 207.064 32.3058 205.982 36.4008C205.622 37.7658 205.385 39.1032 205.672 40.5261C206 42.2102 205.661 42.8945 204.025 43.8687C204.417 41.8883 204.685 39.9356 204.881 37.9314C205.336 32.6922 205.226 27.5119 205.938 22.2828C206.144 20.7495 206.484 19.2539 205.683 17.8108C205.591 17.6287 205.663 17.2746 205.683 16.9995C207.424 11.8109 207.715 6.33813 208.735 1.04008C208.797 0.620649 208.869 0.266528 208.869 -0.139103C208.52 0.074299 208.437 0.363116 208.345 0.586629C206.923 4.9603 205.44 9.34776 204.019 13.7214C203.463 15.4681 203.092 17.1735 201.466 18.2129C200.942 18.533 200.592 19.152 200.232 19.7057C195.415 26.8665 192.162 34.6241 191.15 43.2325C191.088 43.6519 191.293 44.1468 190.779 44.5322C189.762 41.7176 189.218 38.6621 187.101 36.5669C186.947 36.3985 186.957 36.0582 186.978 35.7832C187.7 31.8363 186.653 28.0146 186.613 24.1027C186.604 22.8205 186.543 21.6174 186.513 20.2046C185.977 20.865 186.08 21.5181 185.977 22.0819C185.44 26.393 184.975 30.7556 184.438 35.0667C184.397 35.6168 184.417 36.153 183.831 36.4869C182.36 37.289 181.567 38.7506 180.908 40.2499C178.767 44.9197 177.89 49.9152 177.6 54.9823C177.424 57.9284 177.628 60.8571 178.151 63.782C177.565 63.7103 177.483 63.1878 177.246 62.9027C175.777 60.8654 174.194 58.921 172.385 57.1624C171.789 56.6197 171.182 56.0117 170.411 55.9814C169.321 55.9548 169.043 55.4084 169.013 54.4013C168.83 49.5751 166.879 45.2797 166.079 40.5915C165.605 40.8325 165.657 41.159 165.687 41.355C165.85 44.8336 166.023 48.3776 166.248 51.8424C166.35 54.118 166.894 56.3623 167.129 58.6756C167.375 61.0542 167.116 63.4778 166.982 65.8739C166.65 71.4911 165.876 77.1396 166.377 82.7733C166.51 84.4336 166.818 85.9871 167.074 87.6197C166.879 87.5958 166.755 87.6234 166.745 87.5581C163.877 84.3462 160.979 81.3441 157.061 79.5837C156.722 79.4568 156.599 79.0788 156.537 78.6869C155.624 74.9029 152.54 72.7534 150.844 69.2794C150.721 70.1183 150.967 70.4687 151.101 70.9121C152.107 73.6613 153.052 76.4243 154.007 79.2527C154.151 79.7613 154.418 80.2424 154.058 80.7961C153.337 81.9036 153.46 83.0929 153.521 84.2959C153.644 85.8909 153.767 87.4858 153.889 89.0807C154.298 94.5323 154.521 100.025 155.557 105.404C155.865 106.958 156.235 108.498 156.614 110.103C156.008 109.9 155.874 109.457 155.628 109.106C154.497 107.602 153.398 105.887 151.794 105.029C150.046 104.068 149.173 102.573 148.515 100.828C147.17 97.1401 144.312 94.8048 141.938 91.8882C141.67 92.6241 142.05 93.0122 142.246 93.4418C143.602 96.3832 144.968 99.39 146.386 102.318C147.053 103.723 147.711 105.063 146.476 106.556C146.312 106.728 146.291 107.003 146.26 107.213C144.096 115.403 143.28 123.629 145.148 131.864C145.568 133.731 146.226 135.476 146.708 137.329C146.132 136.917 145.608 136.426 145.156 135.986C143.131 134.073 141.219 132.067 138.597 131.234C137.517 130.867 137.055 130.362 136.819 129.265C136.029 125.859 133.541 123.847 131.65 121.16C131.444 121.882 131.69 122.233 131.803 122.545C132.646 125.061 133.549 127.563 134.453 130.065C134.802 131.068 135.059 131.889 134.246 132.815C133.711 133.475 133.546 134.458 133.36 135.311C132.866 137.855 132.638 140.475 132.4 143.029C131.903 150.035 132.466 156.872 135.496 163.157C138.64 169.755 143.193 174.753 150.288 176.411C151.286 176.661 150.926 177.215 150.833 177.844C150.812 178.119 150.73 178.408 150.709 178.683C152.015 179.269 153.279 180.001 154.585 180.587C154.688 180.024 154.802 179.525 154.905 178.961C155.049 178.253 155.08 177.638 156.047 177.692C167.081 177.996 176.329 173.427 183.954 164.625C189.469 158.254 193.411 150.815 197.199 143.209C197.591 142.445 197.838 141.579 197.458 140.785C197.078 139.991 197.407 139.647 197.983 139.248C199.433 138.315 199.619 136.651 200.443 134.98C198.324 135.724 196.863 136.997 195.454 138.191C194.888 138.656 194.291 138.924 193.52 138.894C189.807 138.845 186.156 139.188 182.515 140.003C182.269 140.058 182.042 140.244 181.806 139.958C181.796 139.893 181.847 139.814 181.847 139.814C182.187 139.535 182.516 139.191 182.855 138.913C188.925 133.635 193.875 127.323 196.399 119.391C197.171 116.987 198.323 115.783 200.124 114.637C202.912 112.864 204.291 109.852 206.349 107.093C205.485 107.287 205.166 107.696 204.703 108.002C201.864 110.26 199.014 112.452 196 114.41C195.65 114.623 195.269 115.046 194.807 114.947C192.431 114.464 190.066 114.452 187.248 114.406C189.542 112.744 191.456 111.1 193.071 109.184C198.052 103.473 201.079 96.7128 203.602 89.5917C203.725 89.1585 203.839 88.66 203.839 88.2543C203.829 87.3778 204.271 86.9408 204.837 86.4763C206.648 84.9899 208.705 83.8539 210.341 82.0685C212.584 79.6742 214.776 77.3591 217.019 74.9648C217.184 74.7928 217.533 74.5793 217.4 74.136C217.102 74.2703 216.865 74.3908 216.7 74.5628C212.297 77.8457 207.946 81.0495 203.553 84.3976C202.699 85.0617 202.071 85.1344 201.331 84.4888C201.383 84.4096 201.372 84.3443 201.434 84.3305C201.712 84.0656 202.051 83.7869 202.329 83.522C207.628 79.025 212.309 73.8547 215.336 67.4997C216.963 64.0265 219.175 61.842 222.23 60.1449C224.76 58.7679 226.304 55.9891 228.599 53.9214C227.735 53.7089 227.354 54.132 226.881 54.373C223.62 56.3866 220.421 58.3863 217.16 60.3998C216.81 60.6132 216.429 61.0363 216.09 60.9094C215.041 60.3327 213.961 60.777 212.583 60.95C213.036 60.5783 213.149 60.4854 213.314 60.3134C216.76 57.8529 220.042 55.1587 223.149 52.1656C226.596 48.8938 230.094 45.5429 233.006 41.7146C233.696 40.8169 234.426 40.1804 235.362 39.6331C237.934 38.1117 239.879 35.8517 241.854 33.382C241.556 33.1106 241.289 33.4408 241.001 33.6405ZM209.736 37.1163C210.745 33.7811 212.248 30.7411 214.09 27.8281C218.032 21.6065 222.58 15.9928 228.27 11.5436C228.671 11.2511 228.99 10.8418 229.802 10.7277C227.588 17.7799 225.353 24.7014 221.257 30.7547C220.372 32.0341 219.343 33.2106 218.16 34.2187C216.802 35.3335 215.505 36.4346 213.695 36.7041C212.636 36.8734 211.628 37.3692 210.63 37.9303C210.342 38.1299 209.972 38.2127 209.746 37.9928C209.458 37.7868 209.653 37.4051 209.736 37.1163ZM195.106 50.1217C194.696 47.1038 194.985 44.0648 195.593 41.0221C196.604 36.0644 198.364 31.412 200.722 26.8967C200.876 26.6594 200.897 26.3843 201.318 26.2224C200.884 32.4035 201.158 38.6287 199.428 44.6938C198.851 46.7156 198.068 48.6481 196.946 50.4537C196.638 50.9283 196.329 51.4029 195.743 51.3312C195.085 51.2079 195.177 50.5788 195.106 50.1217ZM192.665 56.1427C194.094 57.5132 194.094 57.5132 192.54 59.4154C192.541 58.1985 192.644 57.229 192.665 56.1427ZM198.156 58.9709C198.298 61.5077 199.13 63.5524 201.536 64.6368C197.597 66.3965 194.068 68.3346 190.766 70.8981C192.928 66.7645 195.439 62.8231 198.156 58.9709ZM181.805 56.5431C181.89 52.198 182.509 48.0037 183.961 43.826C184.218 43.0248 184.476 42.2237 185.165 41.3259C186.767 45.8347 188.092 50.2028 188.378 54.8708C188.653 59.4734 187.797 63.7882 185.625 67.8565C185.327 68.3964 185.131 69.1838 184.555 69.1774C183.918 69.1847 183.836 68.2567 183.569 67.7756C182.059 64.2602 181.711 60.4173 181.805 56.5431ZM182.27 73.7442C183.864 74.537 184.121 74.9528 182.69 76.4217C182.557 75.5727 182.414 74.6585 182.27 73.7442ZM181.697 88.8114C182.941 90.6289 184.575 91.2773 186.704 91.4097C183.319 93.8564 180.315 96.2857 177.414 98.9624C178.804 95.6097 180.204 92.3223 181.697 88.8114ZM170.614 81.6906C170.134 75.3762 171.258 69.1087 171.436 62.5119C179.001 70.8248 181.125 81.5036 174.97 91.938C174.373 93.0178 174.023 92.8256 173.499 91.9288C171.67 88.8227 170.87 85.3514 170.614 81.6906ZM173.847 96.583C173.435 97.6214 173.116 98.4364 172.745 99.3304C171.553 97.0282 171.656 96.87 173.847 96.583ZM158.229 89.8679C158.137 88.4689 158.055 87.1352 157.963 85.7362C157.953 85.6709 158.004 85.5918 158.097 85.3683C168.48 92.9159 171.364 104.371 166.546 115.182C166.217 115.932 165.908 117.218 165.147 117.253C164.324 117.302 164.057 116.009 163.626 115.295C159.217 107.56 158.841 98.6538 158.229 89.8679ZM164.332 122.234C164.795 122.334 164.537 122.729 164.455 123.018C163.981 124.476 163.569 125.92 162.972 127.406C162.459 124.952 161.936 122.432 161.361 119.992C162.265 120.871 163.067 121.909 164.332 122.234ZM165.419 148.692C163.526 150.468 161.993 152.095 160.326 154.09C160.368 153.54 160.347 153.409 160.388 153.265C161.254 149.421 161.254 149.421 165.419 148.692ZM152.122 170.999C151.905 172.061 150.98 171.862 150.311 171.674C147.905 170.995 145.972 169.67 144.163 167.911C139.939 163.786 137.699 158.473 136.869 152.372C136.183 147.186 136.576 141.96 137.298 136.796C137.443 135.683 137.721 135.418 138.656 136.087C145.266 141.166 150.066 147.732 152.478 156.183C152.653 156.887 152.889 157.578 153.002 158.296C153.166 158.936 153.197 159.537 153.33 160.386C154.326 163.881 152.833 167.392 152.122 170.999ZM150.043 109.341C157.948 116.564 161.046 132.23 157.594 146.048C148.488 135.646 146.417 123.266 150.043 109.341ZM192.417 143.264C189.381 149.148 186.293 154.705 182.352 159.71C179.367 163.487 175.993 166.81 171.888 169.148C167.609 171.592 163.094 172.939 158.332 173.125C157.252 173.164 156.903 172.972 157.006 171.596C157.4 164.749 161.012 159.682 165.252 154.949C169.759 149.885 175.221 146.433 181.536 144.751C185.074 143.689 188.643 143.229 192.417 143.264ZM191.072 118.824C192.162 118.851 192.1 119.27 191.729 120.164C188.023 128.293 182.415 134.482 175.163 139.146C171.912 141.224 168.466 142.874 164.835 144.159C164.167 144.376 163.447 144.672 162.675 144.642C165.09 128.284 175.502 118.114 191.072 118.824ZM199.128 89.9837C196.08 97.8305 192.518 105.252 185.574 110.252C181.788 112.991 177.663 114.792 173.333 116.098C172.418 116.371 172.367 116.044 172.562 115.257C173.449 111.543 175.312 108.355 177.668 105.463C183.276 98.4628 190.231 93.5279 198.099 89.9432C198.398 89.8089 198.748 89.5955 199.087 89.7224C199.107 89.8531 199.118 89.9184 199.128 89.9837ZM207.065 72.5938C202.887 77.719 198.196 82.0127 192.476 85.0491C190.82 85.8926 189.144 86.6055 187.385 86.796C185.308 86.9901 184.804 86.2239 185.556 84.0955C185.957 82.9917 186.565 81.9772 187.254 81.0794C191.494 75.1292 197.09 71.3091 203.416 68.475C206.05 67.3455 208.765 66.3327 211.81 65.3815C210.399 68.198 208.835 70.4405 207.065 72.5938ZM225.992 43.4183C220.888 48.7505 215.548 53.7975 209.448 57.6627C207.884 58.6883 206.3 59.5833 204.521 60.0488C202.803 60.5004 202.361 60.1261 202.578 58.2525C202.991 54.7802 204.371 51.7679 206.491 48.9955C209.043 45.721 212.406 43.9549 216.068 42.8658C219.606 41.8042 223.206 41.5401 226.805 41.6817C227 41.7056 227.134 41.7433 227.34 41.8325C227.01 42.5822 226.434 42.9814 225.992 43.4183Z" fill="#9CC3FF"/>
<path d="M141.596 243.924C141.534 244.343 141.677 244.852 141.451 245.038C140.969 241.968 140.415 238.847 139.975 235.634C137.874 220.623 133.623 206.567 126.482 193.631C122.382 186.233 117.429 179.905 110.263 175.761C109.975 175.555 109.718 175.139 109.07 175.487C110.159 177.948 110.826 180.57 111.503 183.257C114.521 195.562 117.23 207.935 119.507 220.404C121.691 232.286 123.187 244.254 123.767 256.495C124.276 267.467 124.147 278.447 124.08 289.413C123.98 306.267 124.002 323.094 122.945 339.959C122.033 354.494 121.316 369.052 122.317 383.565C122.92 392.285 123.965 400.975 129.813 407.711C130.358 408.333 130.563 409.639 131.365 409.46C132.352 409.239 132.343 407.957 132.58 407.025C135.63 394.716 137.703 382.288 139.118 369.736C139.314 368.138 139.51 366.539 139.644 364.954C140.177 369.567 140.524 374.221 140.8 378.824C140.83 379.425 140.923 380.013 141.2 380.559C141.477 381.106 141.878 381.624 142.495 381.486C143.112 381.348 142.866 380.592 142.866 380.187C143.776 369.708 143.792 359.227 143.303 348.791C142.55 333.412 142.557 317.998 142.76 302.608C143.25 268.7 145.93 234.91 151.047 201.184C152.13 194.25 153.285 187.367 154.625 180.443C153.32 179.856 152.055 179.125 150.749 178.538C146.553 200.229 143.653 222.035 141.596 243.924ZM138.757 286.063C138.51 307.277 138.078 328.531 136.69 349.797C135.551 366.951 133.311 384.013 130.032 400.97C130.011 401.245 129.919 401.468 129.836 401.757C128.419 397.207 127.373 392.574 126.881 387.817C125.51 374.604 125.845 361.28 126.695 347.976C128.405 320.622 128.346 293.393 128.277 266.099C128.193 248.881 126.175 231.959 122.852 215.262C120.995 205.876 119.014 196.517 116.726 187.227C116.695 187.031 116.664 186.835 116.562 186.182C119.285 190.102 121.597 193.844 123.673 197.706C129.406 208.186 132.989 219.62 135.061 231.595C138.065 249.512 138.951 267.769 138.757 286.063Z" fill="#9CC3FF"/>
<path d="M213.901 308.197C214.476 309.826 213.622 310.896 213.025 311.976C210.185 316.667 207.19 321.19 204.061 325.675C193.863 340.461 182.78 354.498 170.659 367.618C168.972 369.483 166.935 370.749 164.826 371.965C161.833 373.648 158.839 375.331 155.846 377.014C155.732 377.107 155.599 377.07 155.403 377.046C155.435 376.43 155.836 376.138 156.175 375.859C170.528 362.307 183 346.946 194.865 330.976C199.979 324.086 205.772 317.856 211.257 311.29C212.059 310.299 212.924 309.295 213.901 308.197Z" fill="#9CC3FF"/>
</svg>
