<svg width="51" height="45" viewBox="0 0 51 45" fill="none" xmlns="http://www.w3.org/2000/svg">
<path d="M16.5366 8.7879C16.4399 8.71504 16.2997 8.57913 16.1162 8.38016C15.9326 8.18119 15.7731 8.0307 15.6571 7.94326C15.4057 7.75382 15.1156 7.53523 14.7723 7.30684L14.1407 8.22555C11.3136 11.9771 9.00754 14.5144 7.22238 15.8372C6.04844 16.7111 5.0457 16.8348 4.21416 16.2081C3.34395 15.5524 2.7069 14.5872 2.31757 13.2933C1.89461 11.8831 2.0232 10.7066 2.70809 9.79771C3.17441 9.17889 3.65895 9.05892 4.16174 9.4378C4.66453 9.81667 4.68277 10.3155 4.23103 10.915C3.91044 11.3404 3.89449 11.9651 4.18796 12.823C4.45732 13.6323 4.85306 14.2337 5.37519 14.6272C5.78129 14.9332 7.01856 13.8948 9.10157 11.4927C10.0824 10.352 11.2577 8.87277 12.6275 7.05499C12.7295 6.91962 12.9142 6.63432 13.2009 6.21365L12.7368 5.86391C12.5434 5.71819 12.2533 5.49961 11.8618 5.17425C11.4896 4.86347 11.1802 4.63031 10.9868 4.48459C10.7741 4.3243 10.639 4.10122 10.5863 3.84927C10.5336 3.59733 10.602 3.34566 10.7914 3.09426C11.1849 2.57213 11.7224 2.58303 12.4186 3.10764C12.5926 3.23879 12.844 3.42824 13.1582 3.6953C13.4723 3.96237 13.7237 4.15181 13.8978 4.28296C14.2072 4.51612 14.7052 4.86108 15.3725 5.30329C16.0398 5.7455 16.5185 6.07591 16.8473 6.32364C17.9882 7.1834 18.3498 7.91064 17.9126 8.49078C17.7669 8.68416 17.5438 8.81925 17.2918 8.87195C17.0155 8.99724 16.7493 8.9482 16.5366 8.7879Z" fill="url(#paint0_linear_225_246)"/>
<path d="M19.6968 26.8435C19.2326 26.4938 19.2783 25.5883 19.8385 24.1609C20.0382 23.6142 20.481 22.7047 21.1474 21.418C20.567 21.1019 19.822 20.7225 18.8448 20.2893L16.5228 19.146C15.776 19.614 14.6219 20.2603 13.0413 21.0703C12.668 21.2438 12.334 21.2043 12.0633 21.0003C11.8699 20.8546 11.7348 20.6315 11.6821 20.3796C11.644 20.1083 11.6978 19.8759 11.8581 19.6632C12.0329 19.4312 13.1191 18.7944 15.0828 17.7576C15.1075 17.564 15.166 17.3656 15.2826 17.2109C15.5886 16.8048 16.0441 16.7235 16.6149 16.9718C18.0111 16.326 19.6593 15.6275 21.5787 14.8909C24.2203 13.8799 25.6692 13.4861 25.9593 13.7047C26.3654 14.0107 26.4321 14.4855 26.1449 15.1483L24.7193 18.0459L21.8919 24.1317L21.4138 25.6512C21.2625 26.1739 21.1165 26.4884 21.0145 26.6237C20.8542 26.8365 20.6311 26.9716 20.3744 26.9903C20.1225 27.043 19.8901 26.9892 19.6968 26.8435ZM23.5419 16.1884L18.753 18.0372C19.4884 18.3488 20.543 18.8403 21.941 19.5602L23.5419 16.1884Z" fill="url(#paint1_linear_225_246)"/>
<path d="M39.4213 25.0911C38.7621 25.3221 38.1319 25.6354 37.5596 25.9925L35.7262 27.2184L29.5572 31.1803C28.8443 31.6436 28.0733 32.0632 27.2976 32.4488C26.9097 32.6417 26.5757 32.6022 26.2856 32.3836C25.8988 32.0921 25.7738 31.6948 25.9106 31.1914C26.443 29.1974 27.4274 26.4828 28.8638 23.0477L29.8235 20.5268C30.3204 19.2639 30.6903 18.4512 30.9234 18.1418C31.0983 17.9097 31.3068 17.794 31.5781 17.7558C31.8348 17.7371 32.0671 17.7909 32.2605 17.9366C32.6473 18.228 32.7384 18.6302 32.529 19.1091L31.8088 20.6281L30.5862 23.7393C29.6562 25.9794 28.9108 27.9342 28.3548 29.6376L28.481 29.5507L34.65 25.5888L36.6871 24.2132C37.5455 23.6776 38.2775 23.35 38.8638 23.2157C39.1835 23.1535 39.4644 23.1832 39.6771 23.3435C39.8705 23.4892 40.0055 23.7122 40.0437 23.9835C40.0818 24.2548 40.0134 24.5065 39.8531 24.7192C39.7752 24.9031 39.62 25.0286 39.4213 25.0911Z" fill="url(#paint2_linear_225_246)"/>
<path d="M41.0462 42.9306C40.5821 42.5809 40.6278 41.6754 41.1879 40.248C41.3877 39.7013 41.8305 38.7918 42.4969 37.5052C41.9165 37.1891 41.1715 36.8096 40.1943 36.3764L37.8771 35.267C37.1302 35.735 35.9762 36.3813 34.3956 37.1913C34.0223 37.3648 33.6882 37.3253 33.4175 37.1213C33.2241 36.9756 33.089 36.7525 33.0363 36.5006C32.9982 36.2293 33.052 35.997 33.2123 35.7843C33.3872 35.5522 34.4734 34.9154 36.4371 33.8787C36.4618 33.685 36.5203 33.4866 36.6369 33.3319C36.9429 32.9258 37.3983 32.8445 37.9692 33.0928C39.3654 32.447 41.0135 31.7485 42.9329 31.012C45.5746 30.001 47.0234 29.6071 47.3135 29.8257C47.7196 30.1317 47.7863 30.6065 47.4991 31.2693L46.0736 34.1669L43.2461 40.2527L42.7681 41.7723C42.6168 42.295 42.4708 42.6094 42.3688 42.7448C42.2085 42.9575 41.9854 43.0926 41.7287 43.1114C41.4913 43.1447 41.259 43.0909 41.0462 42.9306ZM44.9108 32.2901L40.1219 34.1389C40.8573 34.4505 41.9119 34.942 43.3098 35.6619L44.9108 32.2901Z" fill="url(#paint3_linear_225_246)"/>
<defs>
<linearGradient id="paint0_linear_225_246" x1="14.0336" y1="4.20336" x2="4.70729" y2="16.5797" gradientUnits="userSpaceOnUse">
<stop stop-color="#679BFF"/>
<stop offset="1" stop-color="#43629E"/>
</linearGradient>
<linearGradient id="paint1_linear_225_246" x1="24.4219" y1="12.5462" x2="15.8388" y2="23.9364" gradientUnits="userSpaceOnUse">
<stop stop-color="#679BFF"/>
<stop offset="1" stop-color="#43629E"/>
</linearGradient>
<linearGradient id="paint2_linear_225_246" x1="36.0296" y1="20.5949" x2="26.8345" y2="32.7972" gradientUnits="userSpaceOnUse">
<stop stop-color="#679BFF"/>
<stop offset="1" stop-color="#43629E"/>
</linearGradient>
<linearGradient id="paint3_linear_225_246" x1="45.7761" y1="28.6672" x2="37.2076" y2="40.038" gradientUnits="userSpaceOnUse">
<stop stop-color="#679BFF"/>
<stop offset="1" stop-color="#43629E"/>
</linearGradient>
</defs>
</svg>
