<svg width="44" height="51" viewBox="0 0 44 51" fill="none" xmlns="http://www.w3.org/2000/svg">
<path d="M8.48047 33.1078C8.61884 33.326 8.88904 33.5901 9.27361 33.8867C9.41345 33.9945 9.62323 34.1563 9.9164 34.3544C10.2096 34.5526 10.4193 34.7144 10.5592 34.8222C11.0312 35.1862 11.7209 35.7738 12.58 36.5757C13.4565 37.391 14.1288 37.9651 14.6007 38.3291C14.9678 38.6122 15.5232 39.0126 16.2804 39.5128C17.0375 40.013 17.5929 40.4134 17.96 40.6965C18.1523 40.8448 18.2556 41.036 18.3011 41.2662C18.3466 41.4964 18.2643 41.7117 18.116 41.9039C17.9677 42.0962 17.7765 42.1996 17.5463 42.2451C17.2986 42.2771 17.1008 42.2083 16.9085 42.06C16.5414 41.7769 15.9861 41.3765 15.2289 40.8763C14.4718 40.3761 13.9164 39.9757 13.5493 39.6926C13.1997 39.423 12.8636 39.1359 12.5274 38.8488C11.9249 39.6664 11.2654 40.7747 10.576 42.1386L8.84781 45.5726C9.26734 45.8961 9.85221 46.4028 10.5714 47.0968C11.2907 47.7908 11.8755 48.2976 12.295 48.6211C12.4873 48.7694 12.6082 48.9741 12.6362 49.1908C12.6817 49.421 12.6168 49.6497 12.4686 49.842C12.3203 50.0343 12.129 50.1377 11.8813 50.1697C11.6471 50.1842 11.4359 50.1328 11.2436 49.9846C10.7367 49.5937 10.012 48.9791 9.08299 48.1233C8.154 47.2676 7.4293 46.653 6.92237 46.262C6.66016 46.0598 6.2621 45.7808 5.70672 45.3804C5.16883 44.9935 4.7533 44.7009 4.4911 44.4987C4.12401 44.2156 3.56063 43.7533 2.84941 43.1212C2.13818 42.4892 1.59227 42.0404 1.2077 41.7438C1.01541 41.5955 0.894541 41.3908 0.866536 41.1741C0.82105 40.9439 0.903391 40.7286 1.05167 40.5363C1.19995 40.344 1.3912 40.2406 1.6214 40.1952C1.85561 40.1806 2.06684 40.232 2.25913 40.3803C2.6437 40.6769 3.1896 41.1257 3.90082 41.7578C4.61204 42.3898 5.17542 42.8522 5.54251 43.1352L7.36998 44.4887L9.13861 41.0022C9.85495 39.6034 10.5144 38.4951 11.1614 37.6561C10.5201 37.0779 9.51976 36.2786 8.15628 35.2272C7.78919 34.9441 7.48001 34.6221 7.18979 34.2031C6.80418 33.6549 6.7172 33.2255 6.93288 32.9458C7.06768 32.771 7.2724 32.6501 7.5026 32.6046C7.7328 32.5591 7.96152 32.624 8.15381 32.7723C8.32461 32.8761 8.39855 32.961 8.48047 33.1078Z" fill="url(#paint0_linear_225_292)"/>
<path d="M17.6433 23.393C17.3737 23.7426 16.9209 24.2576 16.3023 24.9513C15.6972 25.6276 15.2618 26.156 14.9788 26.5231L14.5878 27.03C15.2481 27.5113 16.3549 28.2811 17.9176 29.2911C19.3619 30.2376 20.4687 31.0074 21.2378 31.6005C21.3952 31.7219 21.6709 31.9066 22.0299 32.1277C22.389 32.3489 22.6647 32.5336 22.8395 32.6684C23.1542 32.911 23.3934 33.1792 23.5573 33.4728C23.7641 33.8552 23.7731 34.1689 23.5574 34.4485C23.4092 34.6408 23.2045 34.7617 22.9743 34.8072C22.7131 34.8567 22.5018 34.8053 22.2921 34.6435C22.2222 34.5896 22.1308 34.4913 22.0044 34.3659C21.878 34.2406 21.7866 34.1422 21.7167 34.0883C21.4895 33.9131 21.1264 33.661 20.6274 33.332C20.1285 33.003 19.7654 32.7509 19.5382 32.5756C18.8564 32.0499 17.872 31.3744 16.5675 30.5357C15.1446 29.6336 14.1603 28.9582 13.5699 28.5308L13.0711 29.1776C12.2758 30.209 11.5724 30.9766 10.9567 31.4496C10.5553 31.7533 10.1798 31.7704 9.81268 31.4873C9.6204 31.339 9.4995 31.1343 9.45402 30.9041C9.40453 30.6429 9.46541 30.3832 9.64465 30.187C9.78344 30.0431 10.115 29.6855 10.6432 29.1451C11.0596 28.7136 11.3911 28.3559 11.6203 28.0588C11.8359 27.7791 12.1729 27.3421 12.6003 26.7517C13.0277 26.1614 13.3646 25.7244 13.5803 25.4447C13.8634 25.0776 14.2988 24.5492 14.9039 23.8729C15.509 23.1967 15.9443 22.6682 16.2274 22.3011C16.3892 22.0914 16.5804 21.988 16.8281 21.956C17.0758 21.924 17.3045 21.9888 17.5143 22.1506C17.724 22.3124 17.8274 22.5036 17.8595 22.7513C17.8565 22.972 17.7916 23.2007 17.6433 23.393Z" fill="url(#paint1_linear_225_292)"/>
<path d="M36.2779 19.0029C36.0757 19.2651 35.774 19.3671 35.3905 19.3222C35.0554 19.2868 34.5765 19.1126 33.9577 18.8306L32.5319 18.1492C31.6319 17.7619 29.7112 16.7825 26.8005 15.207L29.9914 19.9255L31.0139 21.3829C31.421 21.9756 31.7232 22.4874 31.9071 22.9358C32.1259 23.4112 32.085 23.8257 31.8289 24.1578C31.6132 24.4375 31.2806 24.5434 30.8621 24.4716C30.589 24.4282 30.2594 24.3134 29.8773 24.1582L28.929 23.7613C26.8869 22.9392 24.7669 22.0013 22.5919 20.8816L23.6658 22.1279L26.7231 25.935C27.1332 26.307 27.6856 26.9281 28.4114 27.7943C28.6706 28.2173 28.6742 28.6103 28.4315 28.9249C28.2563 29.1522 28.0206 29.277 27.7555 29.2956C27.5213 29.3101 27.306 29.2277 27.0962 29.066C26.3096 28.4594 25.452 27.5472 24.5544 26.3254L22.2942 23.3281L20.3802 21.1831C19.4932 20.1646 18.9866 19.4116 18.8298 18.9283C18.6983 18.5203 18.7337 18.1852 18.9494 17.9055C19.1921 17.5909 19.5421 17.4984 19.9995 17.6282C20.5673 17.7594 21.5722 18.2276 23.045 19.0289C24.7895 19.9838 26.7951 20.8893 29.0175 21.7668C27.7387 19.6657 26.3051 17.5846 24.7207 15.5544L23.8511 14.5493C23.499 14.1384 23.2478 13.7774 23.0934 13.4354C22.8921 12.9735 22.906 12.594 23.1621 12.2619C23.4721 11.8598 24.1168 11.8552 25.0652 12.252C25.3813 12.3843 26.0216 12.7107 26.959 13.2664C29.3248 14.6447 31.4123 15.697 33.2567 16.4502L34.7499 17.0442C35.5315 17.3681 36.0009 17.5908 36.1583 17.7121C36.368 17.8739 36.4714 18.0651 36.49 18.3302C36.491 18.5819 36.4261 18.8106 36.2779 19.0029Z" fill="url(#paint2_linear_225_292)"/>
<path d="M42.0219 9.74616C41.8488 10.4768 41.429 11.4911 40.7626 12.7891C40.1461 13.9862 39.5595 14.9276 39.0472 15.5919C38.6833 16.0639 38.3438 16.3595 38.0247 16.448C37.6167 16.5794 37.1418 16.4362 36.5999 16.0183L34.3478 14.0587C32.2746 12.2648 29.9162 10.3347 27.2767 8.29921C27.0669 8.13745 26.946 7.93274 26.914 7.68505C26.882 7.43737 26.9334 7.22612 27.0952 7.01635C27.2569 6.80659 27.4482 6.70318 27.6959 6.67117C27.9435 6.63917 28.1723 6.70405 28.382 6.86581C31.0565 8.92822 33.4499 10.8853 35.5406 12.6927L36.557 13.6158C36.9321 13.9608 37.2507 14.2344 37.5789 14.4596C38.5534 13.2319 39.456 11.447 40.3174 9.10079C40.3674 8.99991 40.4038 8.9165 40.4577 8.84657C40.6195 8.63681 40.8282 8.5469 41.0934 8.52838C41.3276 8.51385 41.5428 8.5962 41.7351 8.74448C42.0053 9.0086 42.1112 9.34116 42.0219 9.74616Z" fill="url(#paint3_linear_225_292)"/>
<defs>
<linearGradient id="paint0_linear_225_292" x1="3.87148" y1="36.8796" x2="15.531" y2="45.8707" gradientUnits="userSpaceOnUse">
<stop stop-color="#FFD5F1"/>
<stop offset="1" stop-color="#FFA2E0"/>
</linearGradient>
<linearGradient id="paint1_linear_225_292" x1="12.7698" y1="26.1298" x2="23.5575" y2="34.4485" gradientUnits="userSpaceOnUse">
<stop stop-color="#FFD5F1"/>
<stop offset="1" stop-color="#FFA2E0"/>
</linearGradient>
<linearGradient id="paint2_linear_225_292" x1="20.9379" y1="15.1461" x2="32.4226" y2="24.0024" gradientUnits="userSpaceOnUse">
<stop stop-color="#FFD5F1"/>
<stop offset="1" stop-color="#FFA2E0"/>
</linearGradient>
<linearGradient id="paint3_linear_225_292" x1="29.0026" y1="4.54286" x2="40.6446" y2="13.5204" gradientUnits="userSpaceOnUse">
<stop stop-color="#FFD5F1"/>
<stop offset="1" stop-color="#FFA2E0"/>
</linearGradient>
</defs>
</svg>
