<svg width="50" height="42" viewBox="0 0 50 42" fill="none" xmlns="http://www.w3.org/2000/svg">
<path d="M21.1811 30.5362C21.3317 30.8246 21.3483 31.1094 21.2486 31.3964C21.1489 31.6833 20.9548 31.902 20.6895 32.0405C20.5165 32.1309 20.3425 32.163 20.1735 32.1485L7.27451 31.368C6.80855 31.3471 6.48498 31.1491 6.28023 30.7569C6.1116 30.4339 6.13405 30.0553 6.34708 29.5917L13.0792 18.5613C13.2101 18.3903 13.3475 18.2598 13.5205 18.1695C13.7858 18.031 14.0586 17.9913 14.3335 18.0679C14.6084 18.1446 14.8151 18.3155 14.9536 18.5808C15.1583 18.973 15.1474 19.3456 14.9329 19.7219L9.0479 29.2825L20.2565 29.9181C20.6824 29.9746 20.9944 30.1786 21.1811 30.5362Z" fill="url(#paint0_linear_225_270)"/>
<path d="M22.8486 8.48409C22.9558 8.29597 23.1163 8.15347 23.3124 8.05109C23.6007 7.90053 23.8796 7.87236 24.155 7.9781C24.4304 8.08385 24.6431 8.26636 24.7816 8.53164C24.8539 8.67005 24.897 8.80897 24.9116 8.97749L27.3159 32.8958C27.3702 33.3372 27.1666 33.6783 26.6937 33.9252C26.4285 34.0637 26.1496 34.0919 25.8687 34.0037C25.5878 33.9155 25.3751 33.733 25.2366 33.4677C25.1643 33.3293 25.1151 33.1789 25.0945 32.9988L22.7083 9.1151C22.6867 8.87686 22.7353 8.66067 22.8486 8.48409Z" fill="url(#paint1_linear_225_270)"/>
<path d="M43.715 11.2264C43.9197 11.6186 43.8973 11.9973 43.6481 12.3916L36.916 23.422C36.8428 23.563 36.7169 23.6874 36.5324 23.7838C36.2671 23.9223 35.9767 23.9565 35.6843 23.8743C35.3803 23.7982 35.1676 23.6156 35.017 23.3273C34.8303 22.9697 34.8473 22.6086 35.0558 22.2208L40.9408 12.6603L29.7321 12.0247C29.3008 11.9857 28.9887 11.7816 28.784 11.3895C28.6455 11.1242 28.6233 10.8569 28.7175 10.5875C28.8117 10.3181 29.0003 10.1169 29.2656 9.97843C29.4386 9.88809 29.6241 9.84991 29.8393 9.84032L42.7382 10.6209C43.2112 10.7115 43.5463 10.9035 43.715 11.2264Z" fill="url(#paint2_linear_225_270)"/>
<defs>
<linearGradient id="paint0_linear_225_270" x1="8.57235" y1="20.753" x2="15.7991" y2="34.594" gradientUnits="userSpaceOnUse">
<stop stop-color="#FFEC3F"/>
<stop offset="1" stop-color="#FEC830"/>
</linearGradient>
<linearGradient id="paint1_linear_225_270" x1="19.3331" y1="10.1288" x2="30.673" y2="31.8475" gradientUnits="userSpaceOnUse">
<stop stop-color="#FFEC3F"/>
<stop offset="1" stop-color="#FEC830"/>
</linearGradient>
<linearGradient id="paint2_linear_225_270" x1="34.2079" y1="7.39789" x2="41.4286" y2="21.2273" gradientUnits="userSpaceOnUse">
<stop stop-color="#FFEC3F"/>
<stop offset="1" stop-color="#FEC830"/>
</linearGradient>
</defs>
</svg>
