<svg aria-hidden="true" style="position: absolute; width: 0; height: 0; overflow: hidden;" version="1.1" xmlns="http://www.w3.org/2000/svg" xmlns:xlink="http://www.w3.org/1999/xlink">
<defs>
<symbol id="small-tag" viewBox="0 0 38 32">
<path d="M16.138 23.266c0.115 0.22 0.127 0.437 0.051 0.655s-0.224 0.385-0.426 0.491c-0.132 0.069-0.264 0.093-0.393 0.082l-9.828-0.595c-0.355-0.016-0.602-0.167-0.758-0.466-0.128-0.246-0.111-0.535 0.051-0.888l5.129-8.404c0.1-0.13 0.204-0.23 0.336-0.299 0.202-0.106 0.41-0.136 0.619-0.077s0.367 0.189 0.472 0.391c0.156 0.299 0.148 0.583-0.016 0.869l-4.484 7.284 8.54 0.484c0.325 0.043 0.562 0.198 0.704 0.471z"></path>
<path d="M17.408 6.464c0.082-0.143 0.204-0.252 0.353-0.33 0.22-0.115 0.432-0.136 0.642-0.056s0.372 0.22 0.477 0.422c0.055 0.105 0.088 0.211 0.099 0.34l1.832 18.223c0.041 0.336-0.114 0.596-0.474 0.784-0.202 0.106-0.415 0.127-0.629 0.060s-0.376-0.206-0.482-0.408c-0.055-0.105-0.093-0.22-0.108-0.357l-1.818-18.197c-0.016-0.182 0.021-0.346 0.107-0.481z"></path>
<path d="M33.307 8.553c0.156 0.299 0.139 0.587-0.051 0.888l-5.129 8.404c-0.056 0.107-0.152 0.202-0.292 0.276-0.202 0.106-0.423 0.132-0.646 0.069-0.232-0.058-0.394-0.197-0.508-0.417-0.142-0.272-0.129-0.548 0.030-0.843l4.484-7.284-8.54-0.484c-0.329-0.030-0.566-0.185-0.722-0.484-0.106-0.202-0.122-0.406-0.051-0.611s0.215-0.359 0.418-0.464c0.132-0.069 0.273-0.098 0.437-0.105l9.828 0.595c0.36 0.069 0.616 0.215 0.744 0.461z"></path>
</symbol>
<symbol id="java-icon" viewBox="0 0 36 32">
<path d="M11.759 6.249c-0.069-0.052-0.168-0.148-0.299-0.29s-0.244-0.248-0.326-0.311c-0.179-0.135-0.385-0.29-0.629-0.453l-0.449 0.653c-2.010 2.668-3.65 4.472-4.92 5.413-0.835 0.621-1.548 0.709-2.139 0.264-0.619-0.466-1.072-1.153-1.349-2.073-0.301-1.003-0.209-1.839 0.278-2.486 0.332-0.44 0.676-0.525 1.034-0.256s0.37 0.624 0.049 1.050c-0.228 0.303-0.239 0.747-0.031 1.357 0.192 0.575 0.473 1.003 0.844 1.283 0.289 0.218 1.169-0.521 2.65-2.229 0.697-0.811 1.533-1.863 2.507-3.156 0.073-0.096 0.204-0.299 0.408-0.598l-0.33-0.249c-0.138-0.104-0.344-0.259-0.622-0.49-0.265-0.221-0.485-0.387-0.622-0.49-0.151-0.114-0.247-0.273-0.285-0.452s0.011-0.358 0.146-0.537c0.28-0.371 0.662-0.364 1.157 0.010 0.124 0.093 0.303 0.228 0.526 0.418s0.402 0.325 0.526 0.418c0.22 0.166 0.574 0.411 1.049 0.726s0.815 0.549 1.049 0.726c0.811 0.611 1.068 1.129 0.758 1.541-0.104 0.138-0.262 0.234-0.441 0.271-0.196 0.089-0.386 0.054-0.537-0.060z"></path>
<path d="M14.007 19.089c-0.33-0.249-0.298-0.893 0.101-1.908 0.142-0.389 0.457-1.036 0.931-1.95-0.413-0.225-0.943-0.495-1.637-0.803l-1.651-0.813c-0.531 0.333-1.352 0.792-2.476 1.368-0.265 0.123-0.503 0.095-0.695-0.050-0.138-0.104-0.234-0.262-0.271-0.441-0.027-0.193 0.011-0.358 0.125-0.509 0.124-0.165 0.897-0.618 2.293-1.355 0.018-0.138 0.059-0.279 0.142-0.389 0.218-0.289 0.541-0.347 0.947-0.17 0.993-0.459 2.165-0.956 3.53-1.48 1.878-0.719 2.909-0.999 3.115-0.844 0.289 0.218 0.336 0.555 0.132 1.027l-1.014 2.061-2.011 4.328-0.34 1.081c-0.108 0.372-0.211 0.595-0.284 0.692-0.114 0.151-0.273 0.247-0.455 0.261-0.179 0.037-0.344-0.001-0.482-0.104zM16.741 11.512l-3.405 1.315c0.523 0.222 1.273 0.571 2.267 1.083l1.138-2.398z"></path>
<path d="M28.033 17.843c-0.469 0.164-0.917 0.387-1.324 0.641l-1.304 0.872-4.387 2.817c-0.507 0.329-1.055 0.628-1.607 0.902-0.276 0.137-0.513 0.109-0.72-0.046-0.275-0.207-0.364-0.49-0.267-0.848 0.379-1.418 1.079-3.348 2.1-5.791l0.682-1.793c0.353-0.898 0.616-1.476 0.782-1.696 0.124-0.165 0.273-0.247 0.466-0.274 0.183-0.013 0.348 0.025 0.485 0.129 0.275 0.207 0.34 0.493 0.191 0.834l-0.512 1.080-0.869 2.212c-0.661 1.593-1.191 2.983-1.587 4.194l0.090-0.062 4.387-2.817 1.449-0.978c0.61-0.381 1.131-0.614 1.548-0.709 0.227-0.044 0.427-0.023 0.578 0.091 0.138 0.104 0.234 0.262 0.261 0.455s-0.022 0.372-0.136 0.523c-0.055 0.131-0.166 0.22-0.307 0.264z"></path>
<path d="M29.188 30.528c-0.33-0.249-0.298-0.893 0.101-1.908 0.142-0.389 0.457-1.036 0.931-1.95-0.413-0.225-0.942-0.495-1.637-0.803l-1.648-0.789c-0.531 0.333-1.352 0.792-2.476 1.368-0.265 0.123-0.503 0.095-0.696-0.050-0.138-0.104-0.234-0.262-0.271-0.441-0.027-0.193 0.011-0.358 0.125-0.509 0.124-0.165 0.897-0.618 2.293-1.355 0.018-0.138 0.059-0.279 0.142-0.389 0.218-0.289 0.541-0.347 0.947-0.17 0.993-0.459 2.165-0.956 3.53-1.48 1.879-0.719 2.909-0.999 3.115-0.844 0.289 0.218 0.336 0.555 0.132 1.027l-1.014 2.061-2.011 4.328-0.34 1.081c-0.108 0.372-0.211 0.595-0.284 0.692-0.114 0.151-0.273 0.247-0.455 0.261-0.169 0.024-0.334-0.015-0.485-0.129zM31.937 22.962l-3.405 1.315c0.523 0.222 1.273 0.571 2.267 1.083l1.139-2.398z"></path>
</symbol>
<symbol id="small-html" viewBox="0 0 28 32">
<path d="M5.321 20.774c0.087 0.137 0.256 0.303 0.498 0.489 0.088 0.068 0.219 0.169 0.403 0.293s0.316 0.226 0.403 0.294c0.296 0.228 0.729 0.597 1.268 1.1 0.55 0.512 0.972 0.872 1.268 1.1 0.23 0.178 0.579 0.429 1.054 0.743s0.824 0.565 1.054 0.743c0.121 0.093 0.185 0.213 0.214 0.357s-0.023 0.28-0.116 0.4c-0.093 0.121-0.213 0.186-0.357 0.214-0.155 0.020-0.28-0.023-0.4-0.116-0.23-0.178-0.579-0.429-1.054-0.743s-0.824-0.565-1.054-0.743c-0.219-0.169-0.43-0.349-0.641-0.529-0.378 0.513-0.792 1.208-1.224 2.064l-1.084 2.155c0.263 0.203 0.63 0.521 1.081 0.956s0.818 0.753 1.081 0.956c0.121 0.093 0.197 0.221 0.214 0.357 0.029 0.144-0.012 0.288-0.105 0.409s-0.213 0.186-0.369 0.206c-0.147 0.009-0.279-0.023-0.4-0.116-0.318-0.245-0.773-0.631-1.356-1.168s-1.038-0.923-1.356-1.168c-0.165-0.127-0.414-0.302-0.763-0.553-0.337-0.243-0.598-0.426-0.763-0.553-0.23-0.178-0.584-0.468-1.030-0.864s-0.789-0.678-1.030-0.864c-0.121-0.093-0.197-0.221-0.214-0.357-0.029-0.144 0.023-0.28 0.116-0.4s0.213-0.186 0.357-0.214c0.147-0.009 0.28 0.023 0.4 0.116 0.241 0.186 0.584 0.468 1.030 0.864s0.8 0.687 1.030 0.864l1.147 0.849 1.11-2.188c0.449-0.878 0.863-1.573 1.269-2.099-0.402-0.363-1.030-0.864-1.886-1.524-0.23-0.178-0.424-0.38-0.606-0.643-0.242-0.344-0.297-0.613-0.161-0.789 0.085-0.11 0.213-0.186 0.357-0.214s0.288 0.012 0.409 0.105c0.107 0.065 0.154 0.118 0.205 0.21z"></path>
<path d="M11.070 14.678c-0.169 0.219-0.453 0.543-0.841 0.978-0.38 0.424-0.653 0.756-0.83 0.986l-0.245 0.318c0.414 0.302 1.109 0.785 2.089 1.419 0.906 0.594 1.601 1.077 2.083 1.449 0.099 0.076 0.272 0.192 0.497 0.331s0.398 0.255 0.508 0.339c0.197 0.152 0.348 0.32 0.45 0.505 0.13 0.24 0.135 0.437 0 0.612-0.093 0.121-0.221 0.197-0.366 0.225-0.164 0.031-0.296-0.001-0.428-0.103-0.044-0.034-0.101-0.096-0.181-0.174s-0.137-0.14-0.181-0.174c-0.143-0.11-0.37-0.268-0.683-0.475s-0.541-0.365-0.683-0.475c-0.428-0.33-1.045-0.754-1.864-1.28-0.893-0.566-1.51-0.99-1.881-1.258l-0.313 0.406c-0.499 0.647-0.94 1.129-1.327 1.426-0.252 0.191-0.487 0.201-0.718 0.024-0.121-0.093-0.197-0.221-0.225-0.366-0.031-0.164 0.007-0.327 0.12-0.45 0.087-0.090 0.295-0.315 0.627-0.654 0.261-0.271 0.469-0.495 0.613-0.682 0.135-0.175 0.347-0.45 0.615-0.82s0.48-0.645 0.615-0.82c0.178-0.23 0.451-0.562 0.831-0.986s0.653-0.756 0.83-0.986c0.102-0.132 0.222-0.196 0.377-0.217s0.299 0.021 0.431 0.122c0.132 0.102 0.196 0.222 0.217 0.377-0.002 0.138-0.043 0.282-0.136 0.403z"></path>
<path d="M22.763 11.923c-0.127 0.165-0.316 0.229-0.557 0.2-0.21-0.022-0.511-0.132-0.899-0.308l-0.895-0.428c-0.565-0.243-1.77-0.858-3.596-1.846l2.002 2.961 0.642 0.914c0.255 0.372 0.445 0.693 0.56 0.974 0.137 0.298 0.112 0.558-0.049 0.767-0.135 0.175-0.344 0.242-0.607 0.197-0.171-0.027-0.378-0.099-0.618-0.197l-0.595-0.249c-1.281-0.516-2.611-1.104-3.976-1.807l0.674 0.782 1.918 2.389c0.257 0.233 0.604 0.623 1.059 1.167 0.163 0.265 0.165 0.512 0.013 0.709-0.11 0.143-0.258 0.221-0.424 0.233-0.147 0.009-0.282-0.043-0.414-0.144-0.494-0.381-1.032-0.953-1.595-1.72l-1.418-1.881-1.201-1.346c-0.557-0.639-0.874-1.112-0.973-1.415-0.082-0.256-0.060-0.466 0.075-0.642 0.152-0.197 0.372-0.255 0.659-0.174 0.356 0.082 0.987 0.376 1.911 0.879 1.095 0.599 2.353 1.167 3.747 1.718-0.802-1.318-1.702-2.624-2.696-3.898l-0.546-0.631c-0.221-0.258-0.379-0.484-0.475-0.699-0.126-0.29-0.118-0.528 0.043-0.736 0.194-0.252 0.599-0.255 1.194-0.006 0.198 0.083 0.6 0.288 1.188 0.636 1.484 0.865 2.794 1.525 3.951 1.998l0.937 0.373c0.49 0.203 0.785 0.343 0.884 0.419 0.132 0.102 0.196 0.222 0.208 0.388 0.001 0.158-0.040 0.301-0.133 0.422z"></path>
<path d="M26.367 6.115c-0.109 0.458-0.372 1.095-0.79 1.909-0.387 0.751-0.755 1.342-1.076 1.759-0.228 0.296-0.441 0.482-0.642 0.537-0.256 0.082-0.554-0.007-0.894-0.27l-1.413-1.23c-1.301-1.126-2.781-2.337-4.437-3.614-0.132-0.101-0.207-0.23-0.228-0.385s0.012-0.288 0.114-0.42c0.101-0.132 0.221-0.197 0.377-0.217s0.299 0.021 0.43 0.122c1.678 1.294 3.18 2.522 4.492 3.656l0.638 0.579c0.235 0.216 0.435 0.388 0.641 0.529 0.611-0.77 1.178-1.89 1.718-3.362 0.031-0.063 0.054-0.116 0.088-0.16 0.102-0.132 0.232-0.188 0.399-0.2 0.147-0.009 0.282 0.043 0.403 0.136 0.17 0.166 0.236 0.374 0.18 0.628z"></path>
</symbol>
</defs>
</svg>
