<svg width="444" height="496" viewBox="0 0 444 496" fill="none" xmlns="http://www.w3.org/2000/svg">
<path d="M275.814 75.2563C276.199 75.6923 276.423 76.1685 277.179 76.2459C279.002 76.39 280.466 77.2551 281.93 78.1202C292.003 84.2859 299.225 92.6246 303.522 103.122C303.696 103.444 303.609 103.931 304.118 104.103C304.502 102.811 304.799 101.574 305.244 100.366C306.309 97.4079 307.052 94.0983 309.369 91.892C310.857 90.4577 310.571 89.4653 310.062 87.9966C309.789 87.3666 309.602 86.6818 309.416 85.997C308.471 82.6423 307.763 79.2622 306.979 75.4354C308.046 76.3661 308.444 77.1646 308.915 77.9778C311.063 81.9301 312.64 86.0578 313.895 90.2658C314.032 90.7968 314.168 91.3278 314.553 91.7638C317.507 95.9473 319.221 100.606 320.364 105.44C321.371 109.743 321.436 114.148 321.203 118.494C322.194 116.818 322.85 114.859 324.089 113.52C326.184 111.27 326.579 108.612 326.851 105.785C327.134 102.457 327.492 99.1435 327.688 95.8702C327.726 95.6615 327.701 95.3686 328.085 95.3725C328.619 95.8379 328.507 96.4639 328.557 97.0498C329.006 100.595 329.38 104.124 329.444 107.665C329.544 109.701 329.892 111.642 330.687 113.671C333.431 120.333 335.209 127.237 335.709 134.392C335.934 137.46 335.848 140.539 335.676 143.674C337.113 140.789 339.679 138.488 339.913 135.006C340.11 132.165 340.753 129.412 341.471 126.673C342.003 124.546 342.672 122.518 343.291 120.337C343.961 120.901 343.874 121.388 343.862 121.889C343.727 124.383 343.517 126.862 343.531 129.384C343.459 133.258 342.419 136.941 343.922 141.054C345.76 145.881 347.015 150.953 348.035 156.051C348.085 156.205 348.122 156.428 348.507 156.432C349.37 147.242 351.436 138.218 352.906 129.076C353.178 127.114 353.438 125.221 353.486 123.214C353.817 115.287 353.068 107.363 353.461 99.5203C353.633 96.3861 353.358 93.1638 353.307 89.9855C358.482 97.704 362.579 105.857 365.957 114.589C368.808 111.552 371.473 108.694 374.063 105.821C377.992 101.485 382.305 97.585 387.227 94.1649C396.623 87.6685 406.939 82.5055 417.539 77.903C425.301 74.5397 433.584 73.0076 442.19 72.6914C442.575 72.6953 443.083 72.4357 443.307 72.9119C443.605 73.4027 443.158 73.7466 442.948 74.065C441.857 75.4336 440.394 76.2968 438.993 77.2441C432.882 81.2932 426.646 85.1738 420.981 89.7432C400.788 105.844 386.748 126.328 375.525 148.736C374.571 150.636 374.299 152.598 374.387 154.703C374.915 167.336 373.793 179.715 370.328 191.847C369.87 193.557 369.412 195.266 368.867 197.031C372.092 197.092 373.159 198.022 373.272 200.853C373.323 202.735 373.286 204.672 373.25 206.609C373.055 212.474 372.773 218.395 370.631 223.948C367.138 232.763 360.73 238.481 350.711 240.246C349.52 240.443 349.086 240.718 349.174 241.959C349.211 242.182 349.174 242.391 349.137 242.6C347.512 242.639 345.801 242.733 344.139 242.981C344.127 242.618 344.126 242.186 344.114 241.824C344.126 240.89 343.902 240.414 342.811 240.486C342.501 240.497 342.054 240.409 341.757 240.35C333.224 238.521 326.586 233.826 321.262 227.374C314.425 219.039 311.207 209.403 309.218 199.362C308.919 198.007 308.497 196.916 307.504 196C303.695 192.295 300.84 187.987 298.333 183.028C299.003 183.592 299.412 183.889 299.747 184.171C303.469 187.498 307.006 191.005 310.269 194.746C310.654 195.182 311.026 195.687 311.808 195.625C313.122 195.597 314.35 196.056 315.652 196.529C316.67 196.874 317.687 197.219 318.629 197.549C313.53 192.869 309.732 187.367 306.852 181.47C304.977 177.716 302.557 174.43 299.157 171.886C295.287 168.962 293.498 164.72 290.756 161.082C291.252 161.324 291.661 161.621 292.071 161.918C295.669 165.077 299.279 168.166 302.865 171.394C304.193 172.593 305.222 173.3 307.169 172.749C309.265 172.226 311.572 172.682 313.792 172.76C313.742 172.607 313.767 172.468 313.705 172.383C306.881 167.435 302.202 160.823 297.87 153.991C297.138 152.911 296.592 151.651 295.339 150.899C292.064 148.956 289.706 146.187 287.435 143.362C286.678 142.42 285.846 141.464 284.965 140.354C285.883 140.391 286.255 140.897 286.739 141.208C289.469 143.188 292.186 145.236 295.002 147.161C295.411 147.457 295.771 148.032 296.316 147.564C297.035 146.986 297.99 146.815 299.094 146.673C298.684 146.376 298.56 146.207 298.424 146.108C292.122 141.695 287.27 136.057 283.831 129.402C283.657 129.079 283.433 128.603 283.16 128.405C280.059 126.353 278.123 123.378 275.641 120.872C274.921 120.154 274.388 119.256 273.643 118.245C274.685 118.451 275.069 118.887 275.466 119.253C277.786 120.936 280.094 122.687 282.414 124.37C282.824 124.666 283.27 125.187 283.89 124.733C285.018 124.02 286.122 124.31 287.251 124.893C289.285 126.015 292.138 126.866 294.408 127.098C288.007 123.674 283.143 118.969 279.097 113.562C276.727 110.43 274.046 107.74 270.536 105.823C267.521 104.148 265.883 101.232 263.364 98.9342C264.158 98.803 264.542 99.239 264.964 99.4663C268.14 101.102 271.204 102.931 274.181 104.815C274.665 105.126 275.037 105.632 275.657 105.178C276.909 104.202 278.335 104.411 279.811 104.775C281.945 105.34 284.066 105.975 286.162 106.749C289.127 107.839 291.943 109.331 294.895 110.922C294.783 110.252 294.374 109.955 294.063 109.534C292.103 107.13 289.894 104.822 287.846 102.474C282.796 96.6519 278.96 90.0621 275.534 83.3372C274.739 81.7402 273.783 80.1834 274.105 78.3748C274.179 77.9574 273.856 77.6057 273.596 77.3382C270.593 74.297 268.73 70.4731 266.236 67.1723C265.988 66.8353 265.578 66.5384 265.69 65.9123C269.275 68.7086 272.725 71.838 275.814 75.2563ZM312.125 97.1885C307.17 107.298 307.201 117.097 314.634 126.845C316.725 116.818 317.389 107.012 312.125 97.1885ZM304.566 130.185C307.419 131.468 309.9 132.678 312.369 133.958C311.512 132.709 310.731 131.474 309.874 130.225C309.688 129.972 309.415 129.774 309.08 129.924C307.791 130.246 306.352 130.106 304.566 130.185ZM327.292 118.473C320.6 127.087 321.465 143.891 328.971 149.765C332.214 139.318 330.745 128.947 327.292 118.473ZM321.16 153.407C322.4 154.228 323.442 154.866 324.547 155.588C324.136 153.131 323.789 152.918 321.16 153.407ZM344.32 165.686C344.105 159.091 342.304 152.759 340.378 146.258C332.087 156.933 334.226 167.868 340.656 178.93C341.698 178.272 342.218 177.079 342.738 175.886C344.163 172.639 344.471 169.171 344.32 165.686ZM340.102 207.19C338.886 207.094 337.708 206.789 336.505 206.624C338.267 208.412 340.053 210.061 341.878 211.933C341.654 210.593 341.442 209.183 341.218 207.842C341.081 207.311 340.56 207.209 340.102 207.19ZM346.25 202.5C346.722 204.177 347.38 204.379 348.78 203.432C351.57 201.607 353.627 199.133 354.99 196.234C358.78 187.91 358.428 179.056 357.48 170.085C353.96 173.854 350.391 177.469 347.69 181.832C345.546 185.224 344.717 189.021 344.769 193.063C344.833 196.172 345.343 199.369 346.25 202.5ZM426.196 79.4688C421.175 81.2851 416.401 83.4385 411.678 85.7456C404.09 89.4312 396.689 93.3696 389.908 98.1505C381.999 103.645 375.951 110.802 370.113 118.074C368.626 119.94 368.491 121.57 369.249 123.807C371.062 129.206 372.169 134.68 373.114 140.195C373.189 140.642 373.103 141.129 373.549 141.649C386.359 117.25 402.543 95.5339 426.196 79.4688ZM349.132 234.391C349.369 235.661 350.125 235.307 350.844 235.161C357.18 233.748 361.742 230.185 364.703 224.793C367.317 220.054 367.947 214.778 368.192 209.498C368.303 207.576 368.339 205.639 368.387 203.2C362.387 207.919 356.834 212.295 352.583 218.007C349.002 222.988 348.187 228.444 349.132 234.391ZM347.585 216.228C348.353 215.804 348.551 215.123 348.948 214.625C352.195 210.226 356.384 206.59 360.698 203.122C361.69 202.309 362.396 201.369 362.829 200.23C371.942 173.229 372.088 145.969 362.214 118.314C361.084 115.138 359.805 111.934 358.203 108.809C358.565 112.841 358.914 116.942 358.731 121.01C358.425 128.366 356.928 135.486 355.58 142.637C354.257 150.08 353.17 157.497 353.05 165.106C353.038 165.607 353.1 166.124 353.064 166.764C354.266 166.066 354.824 165.096 355.654 164.324C356.671 163.373 357.861 162.744 359.399 163.191C360.862 163.625 361.669 164.72 361.893 166.06C363.685 176.782 364.174 187.464 359.703 197.453C357.263 202.947 353.297 207.06 347.109 208.934C346.626 209.055 346.44 209.234 346.502 209.75C346.974 211.86 347.211 213.994 347.585 216.228ZM315.891 201.256C315.308 201.069 314.812 200.827 315.035 201.735C317.459 211.07 320.787 220.08 328.207 227.306C331.756 230.743 335.837 233.349 340.737 234.82C342.275 235.268 342.275 235.268 342.571 233.167C343.26 223.222 339.919 214.282 330.032 207.937C325.678 205.133 320.803 203.09 315.891 201.256ZM311.413 177.043C310.582 176.951 310.384 177.2 310.793 177.928C316.318 189.748 325.326 198.008 338.474 202.044C340.223 202.606 340.235 202.536 340.061 200.918C339.413 195.462 337.265 190.645 332.972 186.629C327.947 181.964 322.166 178.951 314.885 177.441C313.98 177.334 312.703 177.154 311.413 177.043ZM332.433 176.658C332.867 176.384 332.557 175.963 332.544 175.6C331.35 168.884 327.428 163.645 321.771 159.504C316.25 155.461 309.874 153.194 302.954 151.827C309.347 163.962 319.508 171.801 332.433 176.658ZM290.628 131.032C297.33 140.564 305.902 146.505 317.325 148.545C317.697 148.619 318.268 148.876 318.478 148.557C318.85 148.199 318.391 147.748 318.155 147.341C315.089 141.624 310.114 137.977 304.197 135.296C300.004 133.316 295.589 132.156 290.628 131.032ZM283.448 110.749C288.934 117.593 294.939 123.675 304.34 125.388C299.128 118.31 291.945 113.652 283.448 110.749ZM281.573 84.0261C285.024 90.1799 288.475 96.3337 293.997 101.24C296.056 103.087 296.976 105.717 298.948 107.618C299.345 107.985 299.643 108.476 300.028 108.912C300.189 108.872 300.288 108.747 300.45 108.707C297.529 98.2659 290.704 90.2937 281.945 83.6675C281.474 83.7184 281.511 83.9418 281.573 84.0261Z" fill="white"/>
<path d="M66.1811 120.975C66.5658 121.411 66.8016 121.818 67.459 122.02C69.952 122.728 72.2842 123.909 74.5666 124.936C82.6916 128.629 90.3705 133.097 96.079 139.985C100.844 145.678 104.047 151.927 104.138 159.217C104.163 159.51 104.101 159.858 104.449 160.071C105.826 160.991 107.203 161.911 108.654 162.845C104.955 155.923 104.418 148.976 106.212 141.914C106.818 139.37 107.499 136.84 109.172 134.795C109.965 133.799 109.94 133.074 109.592 131.998C108.424 128.599 108.807 125.146 108.123 121.627C108.706 121.814 108.731 122.107 108.843 122.345C110.172 125.704 111.438 128.978 112.767 132.337C112.991 132.813 113.041 133.399 113.599 133.725C114.715 134.377 115.373 135.443 115.957 136.495C117.806 139.956 119.73 143.432 121.568 146.963C123.79 151.362 125.69 155.842 126.61 160.632C126.697 161.009 126.623 161.426 127.107 161.738C127.676 159.402 128.233 157.136 129.149 155.013C129.942 153.153 130.586 151.265 132.483 150.127C132.917 149.853 132.817 149.545 132.643 149.223C130.794 145.761 131.003 141.986 130.182 138.368C130.008 137.614 129.76 136.845 129.871 135.787C130.876 137.065 131.186 138.351 131.671 139.526C133.807 144.412 135.707 149.324 139.392 153.724C143.909 159.08 146.145 165.57 147.339 172.286C147.414 172.733 147.303 173.359 147.836 173.824C149.199 170.493 150.747 167.415 153.065 164.777C155.568 161.959 158.594 162.269 160.382 165.646C164.007 172.554 167.397 179.488 169.236 186.907C171.349 195.389 171.08 203.4 165.008 210.265C164.71 210.638 164.661 210.917 164.983 211.268C166.733 213.126 168.408 214.969 170.145 216.896C170.542 216.398 170.219 216.047 170.132 215.669C169.013 210.696 169.122 205.749 170.298 200.869C171.56 195.935 173.753 191.399 177.273 187.63C179.95 184.703 182.951 185.152 184.776 188.752C185.695 190.518 186.514 192.408 187.259 194.283C190.525 201.912 192.848 209.644 192.704 217.823C192.68 218.827 192.668 219.76 192.569 220.749C193.907 218.421 195.109 215.994 196.571 213.835C197.401 212.631 198.244 211.357 199.471 210.52C201.393 209.243 203.551 209.669 204.817 211.647C205.425 212.559 205.785 213.567 206.071 214.559C208.171 221.814 209.552 229.215 209.853 236.619C210.079 241.848 209.487 246.915 207.84 251.846C206.874 254.679 205.202 257.157 203.876 259.847C203.74 260.18 203.38 260.469 203.691 260.891C204.845 262.631 205.987 264.44 207.141 266.18C207.228 266.126 207.302 266.14 207.464 266.1C207.476 265.598 207.476 265.166 207.488 264.665C207.474 262.142 207.683 259.663 208.265 257.258C210.083 248.761 215.015 241.815 220.704 235.378C221.001 235.005 221.435 234.73 221.869 234.456C223.443 233.399 225.378 233.781 226.57 235.312C227.066 235.986 227.401 236.701 227.65 237.47C229.19 241.806 230.643 246.197 231.613 250.709C233.316 258.462 233.42 266.114 229.902 273.34C227.61 277.999 224.438 281.981 219.478 284.314C218.387 284.818 218.474 285.195 218.946 286.009C226.667 299.774 233.483 313.865 239.469 328.295C239.568 328.603 239.568 329.035 240.164 329.153C240.126 328.929 240.151 328.79 240.114 328.567C237.924 315.75 236.962 302.959 237.55 290.115C237.844 283.261 239.999 277.206 244.398 271.955C245.291 270.835 245.849 271.161 246.445 272.143C246.867 272.802 247.214 273.447 247.475 274.147C248.295 276.037 249.027 277.981 249.772 279.857C255.56 294.968 259.537 310.298 260.711 326.227C261.661 338.655 260.551 350.964 259.74 363.332C259.198 371.578 259.191 379.856 260.348 388.077C261.008 392.6 261.445 397.078 262.415 401.59C263.919 408.727 263.873 415.919 263.369 423.091C263.209 425.724 262.838 428.243 261.86 430.714C261.537 429.066 261.288 427.432 261.051 425.73C258.661 409.273 253.754 393.543 244.395 379.022C236.787 367.223 226.613 358.157 212.993 352.875C209.247 351.415 205.365 350.289 201.396 349.649C201.371 350.22 201.706 350.502 201.967 350.77C211.374 362.852 220.26 375.263 228.291 388.154C232.784 395.378 237.104 402.711 240.171 410.589C240.32 411.051 240.705 411.487 240.495 412.237C239.08 410.662 237.864 409.27 236.586 407.793C234.489 405.291 231.796 403.103 230.133 400.326C226.955 395.235 223.865 390.088 220.6 385.051C212.607 372.816 203.994 361.034 194.872 349.512C194.488 349.077 194.165 348.725 193.483 348.662C186.972 348.456 180.573 348.92 174.684 351.717C172.155 352.946 169.328 353.684 167.072 355.542C167.045 351.361 166.559 347.16 167.648 343.199C169.146 337.807 172.975 334.027 177.736 331.079C178.517 330.586 178.951 330.311 178.119 329.355C170.872 321.155 163.44 313.135 155.647 305.404C155.126 304.869 154.617 304.264 153.91 303.909C153.352 303.583 153.116 303.608 152.794 304.12C150.812 307.473 147.365 308.664 143.521 309.057C138.027 309.628 132.793 308.306 127.844 305.817C121.195 302.487 116.343 297.281 111.863 291.716C110.845 290.507 109.89 289.814 108.29 289.714C104.334 289.437 101.183 287.231 97.7961 285.482C101.194 285.865 104.568 286.387 107.941 286.909C108.462 287.012 109.095 287.353 109.516 286.716C110.235 285.706 111.326 285.634 112.492 285.576C119.883 285.164 127.188 285.67 134.542 286.763C134.989 286.851 135.535 287.247 136.018 286.694C133.487 284.466 131.03 282.253 128.437 279.941C126.913 283.312 124.012 284.467 120.503 284.71C119.721 284.772 118.952 284.764 118.184 284.756C114.81 284.666 111.524 284.089 108.299 283.164C101.39 281.295 94.8779 278.497 89.3815 273.883C88.7736 273.403 88.1162 273.201 87.3597 273.124C83.1555 272.942 79.5207 270.856 75.3905 269.824C76.1838 269.261 76.8536 269.393 77.4613 269.441C80.0409 269.662 82.67 269.606 85.1134 270.16C88.0777 270.818 89.999 269.109 92.541 268.675C92.1937 268.462 91.896 268.404 91.5984 268.345C84.752 266.993 78.2649 264.919 72.7315 260.514C72.322 260.218 71.8755 260.129 71.429 260.041C67.9438 259.281 64.7805 257.576 61.4934 256.135C61.3569 256.036 61.0592 255.977 61.2575 255.728C61.8526 255.414 62.51 255.615 63.1053 255.733C65.5734 256.149 67.9547 256.619 70.4228 257.034C70.7949 257.108 71.3532 257.434 71.5885 256.977C72.4062 255.41 74.167 255.038 75.6423 254.105C72.8639 253.268 70.222 252.53 67.8278 251.266C63.7218 249.231 59.8885 246.961 57.5052 243.035C57.1453 242.459 56.5624 242.272 55.9794 242.085C53.5358 241.099 51.6249 239.281 49.4291 237.767C50.9048 237.699 52.2072 238.172 53.6087 238.521C55.3079 238.928 57.0697 240.284 58.8051 238.755C58.9787 238.645 59.2887 238.635 59.5863 238.693C63.344 238.788 66.8654 237.611 70.9457 238.057C67.5957 235.235 64.1098 233.179 61.5659 230.156C57.6073 225.558 53.8099 220.92 52.802 214.889C52.7274 214.442 52.3304 214.075 52.0821 213.738C49.8111 210.914 48.222 207.72 46.3105 204.606C48.6305 206.288 50.8513 208.095 52.6259 210.246C54.0158 211.96 55.802 212.745 57.861 213.296C64.7076 215.08 70.4761 218.595 75.5757 223.275C77.8338 225.305 79.7326 227.624 80.6891 230.477C81.4468 232.715 81.237 234.761 79.4025 236.415C79.1175 236.719 78.6959 236.923 79.3162 237.334C80.4203 238.056 81.4253 238.903 82.8021 239.391C81.6084 233.539 82.5233 228.391 86.3157 223.956C86.6007 223.652 86.6502 223.374 86.4887 222.982C86.1285 221.975 86.2396 220.917 86.3383 219.928C86.5482 218.314 86.3116 216.611 87.0548 215.03C87.9367 217.436 88.5952 219.798 89.2415 222.23C89.4402 222.845 89.6514 223.391 90.2717 223.801C95.8047 227.342 100.16 231.874 103.077 237.563C103.239 237.955 103.227 238.456 103.897 238.589C104.479 237.048 104.564 235.264 106.201 234.292C106.548 234.072 106.238 233.651 106.138 233.343C105.033 230.029 106.222 226.807 106.071 223.322C106.828 223.831 106.716 224.457 106.865 224.918C107.611 227.658 108.195 230.437 109.102 233.137C109.4 234.059 109.884 234.803 110.678 235.536C112.924 237.636 115.059 239.929 117.019 242.333C119.414 245.326 121.462 248.538 123.201 252.194C124.29 249.097 124.375 246.017 125.862 243.287C125.974 243.093 125.874 242.785 125.837 242.562C124.905 238.706 125.659 234.895 125.421 231.031C126.353 233.592 127.111 236.261 127.881 238.862C128.391 240.762 128.565 242.813 130.674 243.949C130.885 244.063 131.071 244.316 131.183 244.554C135.54 251.247 139.487 258.074 140.868 265.907C140.905 266.131 140.856 266.409 141.24 266.413C141.872 264.594 142.218 262.646 143.073 260.871C144.621 257.792 147.61 257.447 149.695 260.451C154.312 266.979 158.185 273.792 159.975 281.49C161.355 287.594 161.159 293.46 157.888 298.862C157.331 299.832 157.319 300.334 158.175 301.151C166.29 309.234 174.207 317.566 181.677 326.242C182.831 327.549 183.637 327.781 185.224 327.086C194.796 323.072 204.779 322.812 214.938 326.33C223.782 329.445 231.089 334.705 237.467 341.293C238.373 342.263 239.279 343.234 240.259 344.22C240.445 343.609 240.209 343.202 240.047 342.81C233.875 326.399 226.698 310.437 218.38 294.825C216.99 292.247 215.525 289.653 214.135 287.074C213.837 286.584 213.688 286.122 212.882 286.323C205.715 288.076 198.682 286.903 191.823 284.324C181.999 280.655 174.703 274.03 168.845 265.817C168.535 265.396 168.299 264.989 167.716 264.802C164.057 263.719 161.166 261.348 158.065 259.296C157.792 259.098 157.271 258.995 157.296 258.424C157.854 258.318 158.35 258.56 158.784 258.718C161.835 259.752 164.887 260.787 167.839 261.946C168.782 262.276 169.34 262.17 169.872 261.34C163.708 259.186 158.931 255.291 154.204 251.117C152.74 249.82 151.201 248.508 149.725 247.28C148.658 246.349 147.429 245.459 146.895 244.129C146.734 243.737 146.449 243.609 146.077 243.535C143.149 242.669 140.395 241.261 137.592 240.132C136.736 239.747 135.694 239.541 134.9 238.808C135.532 238.285 136.177 238.556 136.773 238.674C138.918 239.169 141.188 239.402 143.21 240.161C146.398 241.295 149.138 240.612 152.114 239.472C151.022 239.112 149.931 238.752 149 238.353C141.037 235.052 134.176 230.313 128.605 223.956C128.282 223.604 127.922 223.461 127.538 223.457C123.879 223.239 120.555 221.574 117.082 220.744C116.859 220.7 116.474 220.696 116.449 220.403C116.362 220.026 116.759 219.96 117.007 219.865C117.329 219.785 117.726 219.719 118.098 219.793C121.149 219.963 124.25 220.288 127.325 220.751C127.772 220.839 128.33 221.166 128.702 220.807C129.669 219.702 131.082 219.117 132.62 218.701C132.347 218.503 132.285 218.419 132.285 218.419C125.252 216.814 118.604 214.348 112.178 211.063C111.756 210.836 111.297 210.817 110.764 210.784C108.631 210.651 106.473 210.656 104.352 210.454C101.624 210.203 98.9204 210.245 96.1173 209.547C96.588 208.632 97.4437 208.585 98.1505 208.509C102.144 208.145 106.149 207.712 110.18 208.004C110.639 208.023 111.147 208.195 111.457 207.753C113.018 205.469 115.759 204.786 118.201 203.612C119.379 203.053 120.606 202.647 122.181 202.022C121.499 201.96 121.35 201.93 121.114 201.956C111.851 202.07 102.772 200.277 93.8289 197.719C91.4103 197.025 89.153 196.723 86.8092 196.908C86.1892 196.93 85.5567 197.021 84.9367 197.043C81.7496 197.205 78.5626 197.368 75.2887 197.585C75.5733 196.417 76.4537 196.231 77.2597 196.03C81.3143 194.887 85.4807 193.982 89.7841 194.04C90.3173 194.073 90.7762 194.092 91.1107 193.51C91.6559 192.609 92.5981 192.075 93.4659 191.527C95.4494 190.335 97.3586 189.128 99.3298 188.005C98.9078 187.345 98.511 187.411 98.1389 187.338C94.6166 186.786 91.2553 185.762 88.0301 184.405C82.2126 182.032 76.841 178.883 71.2588 176.052C70.7626 175.81 70.2044 175.484 70.043 175.092C69.2484 173.495 67.785 173.494 66.334 173.424C65.5774 173.346 64.7341 173.324 63.99 173.177C60.9762 172.797 58.1111 172.016 54.9856 171.398C55.6672 170.597 56.374 170.52 57.0809 170.444C60.8631 169.967 64.5713 170.339 68.3292 170.866C68.9369 170.914 69.5075 171.17 70.115 170.786C72.1109 169.524 74.38 168.893 76.6491 168.261C85.3412 165.729 94.2321 164.245 103.534 165.65C103.683 165.68 103.832 165.709 103.819 165.347C102.591 164.456 101.301 163.481 99.6757 163.088C94.1812 161.931 88.984 159.969 83.96 157.464C78.502 154.802 73.7131 151.408 69.9157 146.77C65.3613 141.19 63.882 134.778 63.5435 128.015C63.493 126.565 63.145 125.056 63.6278 123.639C63.9127 122.904 63.7015 122.358 63.1927 121.753C61.4678 119.757 60.0033 117.595 58.8735 115.284C57.9175 113.295 56.8003 111.346 55.7699 109.343C59.5544 113.186 62.8802 117.011 66.1811 120.975ZM75.729 231.513C75.2197 230.045 74.2766 228.85 73.2466 227.711C69.3751 223.49 64.6857 220.404 59.2652 218.397C62.1824 223.654 65.5458 228.566 71.0786 231.675C72.195 232.327 73.3486 232.771 74.6261 232.952C75.7794 232.963 76.1636 232.535 75.729 231.513ZM82.1363 246.171C80.8334 244.834 79.1339 243.994 77.3106 243.418C72.8453 242.104 68.3064 242.072 63.4206 242.691C66.6838 245.567 70.1571 247.261 73.9402 248.513C76.1977 249.247 78.4922 249.772 80.9104 249.601C81.766 249.554 82.845 249.551 83.1546 248.677C83.5633 247.677 82.8559 246.889 82.1363 246.171ZM100.093 244.822C100.054 241.574 98.564 238.688 96.7395 235.951C94.977 233.299 92.6815 231.045 90.2869 228.916C89.5548 228.268 89.096 228.249 88.6996 229.179C88.1671 230.442 87.7089 231.719 87.4367 232.818C86.4231 238.954 90.1097 245.082 95.952 247.316C98.7057 248.292 100.082 247.484 100.093 244.822ZM86.4308 252.78C89.6057 253.119 92.5327 253.553 95.4102 254.265C95.4349 254.126 95.5217 254.071 95.5464 253.932C93.3505 252.418 91.2167 250.989 89.0208 249.475C88.6114 249.178 88.3634 249.273 88.2769 249.76C88.017 250.789 87.3851 251.744 86.4308 252.78ZM78.9059 257.846C78.5959 257.857 78.2859 257.867 78.0505 258.325C80.6805 259.996 83.6327 261.155 86.6219 262.106C90.7772 263.431 94.9444 264.254 99.2475 263.879C100.264 263.792 101.79 263.878 101.951 262.973C102.198 262.014 100.759 261.442 99.8413 260.973C93.1799 257.713 86.1229 256.679 78.9059 257.846ZM103.407 250.444C102.614 251.008 101.994 251.461 101.287 251.97C101.486 252.153 101.684 252.336 101.883 252.519C102.627 253.099 103.384 253.608 104.476 254.4C104.053 252.876 103.705 251.799 103.407 250.444ZM119.346 256.113C117.681 249.879 113.722 244.849 108.932 239.727C107.522 246.793 107.613 253.219 113.345 258.672C114.4 259.672 115.64 260.493 117.017 260.981C118.543 261.498 119.299 261.144 119.559 259.683C119.781 258.431 119.607 257.244 119.346 256.113ZM105.091 267.41C108.067 267.565 111.043 267.721 114.119 267.753C111.948 266.1 109.863 264.392 107.419 262.541C107.545 264.87 106.615 266.199 105.091 267.41ZM122.539 267.184C122.116 264.796 122.116 264.796 119.661 266.039C119.996 266.321 120.319 266.673 120.729 266.97C121.262 267.435 121.808 267.831 122.751 268.594C122.577 267.839 122.552 267.546 122.539 267.184ZM121.912 275.916C120.435 274.688 118.637 273.973 116.788 273.536C110.14 271.935 103.431 271.978 96.6977 272.592C96.5365 272.632 96.4373 272.757 96.2638 272.866C99.2288 274.82 102.379 276.162 105.642 277.311C109.921 278.804 114.287 279.81 118.826 279.843C119.52 279.836 120.302 279.774 121.021 279.628C121.976 279.457 123.154 279.329 123.339 278.286C123.611 277.188 122.73 276.51 121.912 275.916ZM136.056 266.109C134.949 260.634 132.38 255.591 129.537 250.781C129.475 250.697 129.338 250.598 128.991 250.385C127.866 256.283 126.232 262.009 127.848 268.088C128.73 271.358 130.368 274.274 133.681 276.008C135.306 276.833 135.467 276.793 135.9 275.223C136.742 272.221 136.666 269.182 136.056 266.109ZM139.907 278.246C139.114 279.242 138.495 280.127 137.887 280.943C137.59 281.317 137.776 281.569 138.037 281.837C138.769 282.486 139.501 283.134 140.493 284.05C140.319 282 140.094 280.227 139.907 278.246ZM135.897 291.711C129.608 290.253 123.308 289.728 116.549 289.617C122.034 296.029 127.668 301.606 136.102 303.56C139.351 304.345 142.625 304.56 145.824 303.464C148.961 302.283 149.493 300.156 147.334 297.57C146.068 296.024 144.567 294.935 142.793 294.081C140.523 292.984 138.266 292.251 135.897 291.711ZM155.774 287.356C155.759 282.673 154.243 278.198 152.232 273.912C150.841 270.901 149.19 268.055 147.118 264.982C145.855 269.053 145.249 272.893 145.103 276.752C145.018 279.832 145.466 282.944 146.236 285.977C147.206 290.056 149.837 293.024 152.976 295.732C153.77 296.465 153.893 295.769 154.129 295.312C155.268 292.801 155.738 290.157 155.774 287.356ZM220.299 333.87C210.015 328.022 199.275 326.909 188.364 331.09C186.467 331.796 184.831 333.201 182.934 333.906C178.706 335.591 175.582 338.43 173.526 342.2C172.621 343.822 172.077 345.586 171.668 347.45C172.437 347.457 172.896 347.044 173.404 346.784C178.798 344.61 184.39 343.482 190.38 344.017C193.865 344.345 197.412 344.326 200.885 344.724C207.619 345.406 213.932 347.589 219.961 350.508C232.874 356.73 242.429 366.249 249.839 377.865C250.137 378.356 250.273 378.887 250.968 379.312C250.619 375.643 249.86 372.109 248.705 368.641C243.538 353.94 234.578 341.946 220.299 333.87ZM247.461 338.37C249.45 346.683 251.934 354.806 254.246 363.039C254.345 363.347 254.457 363.585 254.717 364.284C256.022 346.541 257.34 329.161 253.982 311.649C252.004 301.106 248.898 290.844 245.06 280.798C244.949 280.56 244.849 280.252 244.502 279.608C243.66 283.042 243.191 286.117 242.957 289.167C241.713 305.698 243.57 322.121 247.461 338.37ZM122.025 166.494C122.024 163.902 121.625 161.375 120.917 158.859C119.09 152.234 115.602 146.289 112.201 140.289C109.91 145.813 109.528 151.426 111.652 157.245C113.118 161.135 115.451 164.476 118.293 167.557C118.367 167.572 118.355 167.641 118.429 167.656C119.434 168.503 120.563 169.518 121.741 169.39C122.299 169.285 122.075 167.512 122.025 166.494ZM123.286 181.504C124.03 181.651 124.687 181.853 125.32 181.762C124.376 180.135 124.302 180.121 123.286 181.504ZM142.578 174.37C141.719 167.936 139.384 162.003 135.599 156.431C135.413 156.178 135.227 155.925 135.04 155.672C134.978 155.588 134.768 155.475 134.557 155.361C133.454 157.231 132.872 159.204 132.439 161.207C130.113 170.396 131.693 178.844 139.373 185.905C139.571 186.088 139.844 186.286 140.105 186.554C140.887 187.356 141.283 187.291 141.63 186.207C142.918 182.429 143.089 178.431 142.578 174.37ZM146.393 188.444C144.795 190.936 144.969 191.691 147.847 193.699C147.325 191.868 146.853 190.191 146.393 188.444ZM141.461 194.526C140.842 196.708 139.516 198.102 137.718 199.115C140.992 199.33 144.105 199.584 147.417 200.022C145.419 198.26 143.508 196.442 141.461 194.526ZM165.309 193.836C165.096 189.834 164.002 186.018 162.599 182.212C161.046 177.945 159.01 173.799 157.048 169.668C156.875 169.345 156.825 168.759 156.353 168.81C156.118 168.836 155.895 169.224 155.684 169.542C153.59 172.657 152.215 176.057 151.473 179.799C150.125 186.949 152.436 193.453 156.259 199.681C157.5 201.798 159.088 203.696 160.417 205.758C161.199 206.993 161.719 206.663 162.351 205.708C164.681 202.136 165.547 198.131 165.309 193.836ZM162.344 215.283C161.959 214.847 161.687 215.081 161.488 215.33C160.249 216.669 158.513 217.335 156.827 218.154C160.138 218.592 163.363 219.517 166.799 220.123C165.235 218.518 163.821 216.943 162.344 215.283ZM187.768 216.56C187.764 209.215 185.465 202.209 182.597 195.378C182.113 194.203 181.616 193.097 181.057 191.906C181.008 191.752 180.871 191.653 180.623 191.316C177.19 195.895 175.01 200.792 174.629 206.405C174.001 215.137 176.994 223.001 182.232 230.372C182.914 231.298 183.311 231.233 183.844 230.402C186.88 226.321 187.733 221.522 187.768 216.56ZM177.885 240.529C180.291 241.293 182.635 241.972 185.215 243.057C184.284 241.361 183.18 240.207 182.249 238.943C181.939 238.522 181.604 238.672 181.331 238.906C180.302 239.495 179.075 239.9 177.885 240.529ZM190.206 230.146C189.301 231.336 188.607 232.639 187.715 233.759C187.207 234.45 185.831 234.826 186.116 235.819C186.278 236.643 187.246 237.266 187.73 238.01C188.586 239.259 189.356 240.563 190.2 241.882C190.448 241.787 190.621 241.677 190.869 241.582C189.999 237.81 189.836 233.961 190.206 230.146ZM203.908 226.732C203.31 223.158 202.552 219.624 201.558 216.116C193.327 223.419 193.227 244.784 201.467 253.899C202.904 251.447 203.758 248.808 204.315 246.11C205.539 239.655 204.99 233.21 203.908 226.732ZM198.321 261.198C198.147 260.876 197.887 260.608 197.478 260.744C195.99 261.314 194.44 261.8 192.629 262.45C195.693 263.415 198.31 264.292 201.052 265.338C200.146 263.935 199.239 262.532 198.321 261.198ZM215.631 278.658C216.524 280.13 216.959 280.288 218.434 279.355C220.963 277.695 222.884 275.554 224.408 273.047C227.456 268.033 228.284 262.508 227.71 256.634C227.174 250.984 225.434 245.601 223.571 240.048C214.189 250.364 210.363 261.921 214.401 275.607C214.6 276.654 215.035 277.676 215.631 278.658ZM194.834 280.382C199.56 281.964 204.422 282.78 209.308 282.161C211.193 281.957 211.118 281.943 210.324 280.346C207.021 273.357 200.583 270.141 193.538 267.742C187.733 265.731 181.73 265.266 175.753 265.525C175.517 265.551 175.368 265.521 175.12 265.616C175.046 265.602 174.947 265.726 174.773 265.836C180.147 272.441 186.462 277.649 194.834 280.382ZM173.02 257.497C179.966 259.589 186.799 259.283 193.433 257.065C195.156 256.469 195.082 256.454 193.742 255.326C193.543 255.142 193.283 254.875 193.096 254.622C190.266 250.175 185.813 247.927 180.926 246.386C172.157 243.718 163.327 243.558 154.411 244.317C154.25 244.358 154.163 244.412 153.828 244.562C159.783 249.627 165.194 255.159 173.02 257.497ZM160.979 236.398C165.295 236.819 169.512 236.932 173.777 236.334C175.129 236.097 176.419 235.776 177.584 235.286C178.502 234.891 178.799 234.518 178.054 233.507C174.902 229.572 171.205 226.538 166.144 225.106C155.949 222.228 145.643 221.705 135.251 222.965C135.016 222.99 134.768 223.085 134.284 223.206C141.952 230.336 150.45 235.399 160.979 236.398ZM119.196 208.417C119.035 208.457 118.935 208.582 118.663 208.816C124.915 211.779 131.29 213.614 137.938 214.351C142.613 214.914 147.301 214.976 151.988 214.174C153.662 213.856 155.336 213.539 156.799 212.676C158.163 211.937 158.076 211.128 156.785 210.153C152.542 206.723 147.829 204.64 142.359 204.208C135.141 203.646 128.371 204.901 121.861 207.288C120.956 207.613 120.113 208.022 119.196 208.417ZM102.93 195.052C111.984 196.984 121.063 197.913 130.127 196.32C131.479 196.083 132.855 195.706 134.095 195.231C136.091 194.401 136.512 193.765 136.4 191.798C136.337 191.282 135.916 191.055 135.581 190.772C133.161 188.783 130.296 187.569 127.257 186.896C118.588 184.968 105.357 188.331 98.9239 194.189C100.338 194.468 101.591 194.788 102.93 195.052ZM88.2458 170.623C84.4141 171.378 80.5825 172.134 76.5652 173.5C82.4948 176.544 87.9407 179.707 94.0804 181.568C100.071 183.399 106.049 183.572 111.964 181.932C114.307 181.315 116.489 180.306 118.423 178.959C119.303 178.341 119.216 177.964 118.323 177.356C109.068 171.352 99.2694 168.408 88.2458 170.623ZM68.6035 128.582C68.9181 136.781 71.8239 143.835 79.0445 149.149C84.4289 153.093 90.3211 155.912 96.647 158.026C96.7958 158.055 96.9323 158.154 97.0811 158.184C98.3462 158.433 99.0899 157.716 98.8536 156.446C97.5231 150.063 94.1717 144.649 89.2954 140.013C83.625 134.645 76.6907 131.188 69.5458 128.048C68.8387 127.693 68.5907 127.788 68.6035 128.582Z" fill="white"/>
<path d="M152.881 79.1292C155.784 80.5665 158.686 82.0038 161.577 83.5107C162.42 83.9654 163.165 84.1123 164.119 83.9409C166.897 83.4815 169.638 83.2307 172.478 83.2876C173.941 83.2886 175.392 83.3592 177.165 83.3495C175.701 82.0522 174.436 80.9383 173.431 79.6597C167.164 72.0137 163.798 63.2126 161.164 54.1961C160.878 53.2036 160.766 52.1014 161.237 51.1863C161.707 50.2713 161.347 49.6962 160.95 48.8977C158.715 44.5682 156.555 40.2534 154.407 35.869C155.499 35.7965 155.834 36.5108 156.206 37.0163C158.788 40.6943 161.295 44.3576 163.814 47.9513C164.125 48.3726 164.336 48.9183 165.092 48.9957C167.56 49.4112 169.558 50.7417 171.543 52.1418C178.441 57.1043 184.161 63.0583 188.952 69.9088C191.583 73.7406 193.805 77.7076 195.109 82.0694C195.544 83.5233 195.83 84.9478 195.484 86.4635C195.088 88.2574 195.498 88.9863 197.47 90.0239C196.998 87.9145 196.674 85.8345 196.437 83.6997C195.889 78.1191 196.022 72.6012 195.163 67.0314C194.914 65.3982 194.504 63.8051 195.471 62.268C195.582 62.074 195.495 61.6968 195.47 61.4038C193.371 55.8771 193.021 50.0477 191.79 44.4043C191.715 43.9576 191.628 43.5804 191.628 43.1483C192.05 43.3756 192.149 43.6833 192.261 43.9214C193.975 48.58 195.763 53.2534 197.477 57.9121C198.148 59.7726 198.595 61.5891 200.556 62.6962C201.188 63.0372 201.61 63.6966 202.045 64.2864C207.853 71.9137 211.776 80.1769 212.996 89.3463C213.071 89.793 212.823 90.3201 213.444 90.7307C214.67 87.7327 215.325 84.478 217.879 82.2463C218.065 82.067 218.052 81.7045 218.027 81.4115C217.157 77.2075 218.419 73.1367 218.467 68.9699C218.478 67.6041 218.552 66.3226 218.588 64.8178C219.234 65.5212 219.11 66.2168 219.234 66.8174C219.882 71.4095 220.442 76.0564 221.09 80.6484C221.14 81.2343 221.115 81.8055 221.822 82.1611C223.596 83.0155 224.552 84.5723 225.346 86.1693C227.929 91.1435 228.986 96.4644 229.336 101.862C229.548 105 229.302 108.119 228.671 111.235C229.378 111.159 229.477 110.602 229.762 110.298C231.534 108.128 233.443 106.057 235.625 104.184C236.344 103.606 237.075 102.958 238.005 102.926C239.32 102.898 239.654 102.316 239.691 101.243C239.911 96.1022 242.265 91.5269 243.229 86.5332C243.8 86.7899 243.738 87.1377 243.701 87.3464C243.505 91.0517 243.296 94.8267 243.025 98.5173C242.903 100.941 242.247 103.332 241.963 105.796C241.667 108.329 241.978 110.911 242.141 113.463C242.541 119.446 243.474 125.463 242.87 131.464C242.71 133.232 242.338 134.887 242.029 136.626C242.265 136.601 242.414 136.63 242.426 136.56C245.884 133.139 249.38 129.941 254.104 128.066C254.513 127.931 254.661 127.529 254.736 127.111C255.837 123.081 259.556 120.791 261.6 117.091C261.75 117.984 261.452 118.357 261.291 118.83C260.078 121.758 258.938 124.701 257.787 127.714C257.613 128.256 257.291 128.768 257.726 129.358C258.594 130.537 258.446 131.804 258.372 133.086C258.225 134.785 258.077 136.483 257.929 138.182C257.436 143.989 257.166 149.84 255.917 155.57C255.546 157.224 255.1 158.864 254.642 160.574C255.374 160.358 255.535 159.886 255.832 159.513C257.196 157.91 258.522 156.084 260.456 155.17C262.563 154.146 263.617 152.554 264.409 150.695C266.032 146.767 269.478 144.279 272.341 141.173C272.664 141.957 272.205 142.37 271.97 142.828C270.335 145.961 268.687 149.163 266.977 152.282C266.172 153.779 265.379 155.206 266.868 156.796C267.067 156.98 267.092 157.273 267.129 157.496C269.738 166.22 270.723 174.982 268.47 183.754C267.963 185.742 267.17 187.601 266.589 189.574C267.283 189.136 267.915 188.612 268.46 188.144C270.902 186.106 273.208 183.97 276.37 183.082C277.672 182.691 278.229 182.153 278.514 180.985C279.467 177.357 282.467 175.214 284.747 172.352C284.996 173.121 284.698 173.494 284.562 173.828C283.546 176.507 282.457 179.172 281.367 181.837C280.946 182.906 280.636 183.781 281.616 184.766C282.262 185.47 282.461 186.517 282.684 187.425C283.281 190.135 283.555 192.926 283.842 195.646C284.442 203.109 283.764 210.391 280.109 217.086C276.318 224.113 270.827 229.437 262.271 231.203C261.068 231.47 261.503 232.06 261.615 232.73C261.639 233.023 261.739 233.33 261.764 233.623C260.189 234.248 258.664 235.027 257.09 235.652C256.965 235.052 256.828 234.521 256.704 233.92C256.53 233.166 256.493 232.51 255.327 232.568C242.02 232.892 230.869 228.025 221.674 218.649C215.023 211.863 210.269 203.94 205.701 195.837C205.229 195.024 204.931 194.101 205.389 193.256C205.848 192.41 205.451 192.044 204.756 191.619C203.007 190.625 202.783 188.853 201.79 187.073C204.345 187.865 206.107 189.221 207.806 190.493C208.489 190.988 209.208 191.274 210.138 191.242C214.615 191.19 219.018 191.555 223.408 192.423C223.706 192.481 223.979 192.679 224.264 192.376C224.276 192.306 224.214 192.222 224.214 192.222C223.805 191.925 223.408 191.558 222.998 191.262C215.678 185.64 209.71 178.917 206.667 170.467C205.735 167.907 204.346 166.625 202.175 165.404C198.813 163.516 197.149 160.307 194.667 157.369C195.709 157.575 196.094 158.011 196.652 158.337C200.076 160.741 203.513 163.076 207.147 165.162C207.569 165.389 208.028 165.84 208.586 165.734C211.451 165.22 214.303 165.207 217.701 165.158C214.935 163.388 212.627 161.636 210.679 159.595C204.673 153.513 201.023 146.312 197.981 138.727C197.832 138.265 197.695 137.734 197.695 137.302C197.707 136.368 197.173 135.903 196.491 135.408C194.307 133.825 191.826 132.615 189.853 130.713C187.148 128.163 184.506 125.697 181.801 123.146C181.602 122.963 181.18 122.736 181.341 122.264C181.701 122.407 181.986 122.535 182.185 122.718C187.495 126.215 192.742 129.628 198.04 133.194C199.069 133.901 199.826 133.979 200.718 133.291C200.656 133.207 200.669 133.137 200.594 133.123C200.259 132.84 199.85 132.543 199.515 132.261C193.125 127.471 187.48 121.964 183.83 115.195C181.869 111.495 179.201 109.168 175.517 107.361C172.465 105.894 170.603 102.934 167.837 100.732C168.878 100.505 169.337 100.956 169.908 101.213C173.84 103.358 177.698 105.488 181.631 107.632C182.053 107.86 182.512 108.31 182.921 108.175C184.186 107.561 185.488 108.034 187.15 108.218C186.604 107.822 186.467 107.724 186.269 107.54C182.113 104.919 178.155 102.05 174.408 98.8615C170.252 95.3765 166.034 91.8072 162.522 87.7295C161.69 86.7733 160.809 86.0953 159.681 85.5123C156.579 83.8917 154.234 81.4845 151.852 78.8538C152.211 78.5648 152.534 78.9166 152.881 79.1292ZM190.583 82.8315C189.366 79.279 187.554 76.0409 185.332 72.938C180.579 66.311 175.094 60.3315 168.233 55.5924C167.75 55.2808 167.365 54.8448 166.385 54.7233C169.056 62.235 171.751 69.6076 176.69 76.0553C177.757 77.4182 178.998 78.6713 180.425 79.7451C182.063 80.9326 183.626 82.1053 185.809 82.3925C187.086 82.5728 188.302 83.1009 189.505 83.6985C189.852 83.9112 190.299 83.9993 190.571 83.7652C190.919 83.5457 190.683 83.1391 190.583 82.8315ZM208.226 96.6844C208.72 93.4699 208.371 90.2328 207.638 86.9919C206.419 81.7111 204.296 76.7555 201.453 71.9459C201.267 71.6931 201.242 71.4002 200.734 71.2278C201.258 77.8116 200.927 84.4424 203.014 90.9028C203.71 93.0563 204.653 95.1148 206.006 97.038C206.379 97.5436 206.751 98.0491 207.458 97.9727C208.251 97.8415 208.139 97.1713 208.226 96.6844ZM211.169 103.098C209.446 104.558 209.446 104.558 211.319 106.584C211.319 105.288 211.194 104.255 211.169 103.098ZM204.548 106.11C204.376 108.812 203.372 110.99 200.471 112.145C205.222 114.02 209.477 116.084 213.459 118.815C210.852 114.412 207.824 110.214 204.548 106.11ZM224.265 103.524C224.163 98.896 223.416 94.4284 221.665 89.9784C221.355 89.1251 221.044 88.2717 220.213 87.3155C218.281 92.1181 216.684 96.7708 216.339 101.743C216.007 106.646 217.039 111.242 219.658 115.575C220.018 116.15 220.254 116.989 220.949 116.982C221.717 116.99 221.816 116.001 222.138 115.489C223.959 111.744 224.379 107.651 224.265 103.524ZM223.704 121.846C221.783 122.691 221.473 123.134 223.197 124.698C223.358 123.794 223.531 122.82 223.704 121.846ZM224.395 137.895C222.896 139.831 220.924 140.522 218.357 140.663C222.439 143.269 226.061 145.857 229.56 148.708C227.884 145.137 226.195 141.635 224.395 137.895ZM237.76 130.311C238.339 123.585 236.983 116.909 236.769 109.882C227.646 118.737 225.085 130.111 232.508 141.226C233.228 142.376 233.649 142.171 234.281 141.216C236.487 137.907 237.452 134.21 237.76 130.311ZM233.862 146.173C234.359 147.28 234.744 148.148 235.191 149.1C236.628 146.648 236.504 146.479 233.862 146.173ZM252.696 139.021C252.807 137.531 252.905 136.11 253.016 134.62C253.028 134.55 252.966 134.466 252.854 134.228C240.333 142.267 236.855 154.469 242.666 165.985C243.063 166.783 243.436 168.153 244.353 168.19C245.346 168.242 245.667 166.866 246.188 166.104C251.503 157.866 251.957 148.379 252.696 139.021ZM245.336 173.496C244.778 173.602 245.088 174.024 245.188 174.331C245.759 175.884 246.256 177.422 246.976 179.005C247.595 176.391 248.226 173.707 248.919 171.108C247.828 172.045 246.861 173.15 245.336 173.496ZM244.025 201.679C246.308 203.57 248.156 205.303 250.166 207.428C250.117 206.842 250.141 206.703 250.092 206.549C249.048 202.455 249.048 202.455 244.025 201.679ZM260.06 225.438C260.321 226.57 261.437 226.358 262.243 226.158C265.145 225.435 267.476 224.023 269.657 222.15C274.752 217.756 277.452 212.097 278.453 205.598C279.281 200.074 278.807 194.508 277.936 189.007C277.761 187.821 277.426 187.539 276.298 188.252C268.327 193.662 262.539 200.655 259.63 209.657C259.42 210.407 259.135 211.143 258.999 211.908C258.801 212.589 258.764 213.23 258.603 214.134C257.402 217.857 259.202 221.597 260.06 225.438ZM262.566 159.763C253.034 167.457 249.298 184.143 253.461 198.862C264.442 187.782 266.94 174.595 262.566 159.763ZM211.468 195.896C215.129 202.164 218.853 208.083 223.606 213.414C227.205 217.437 231.274 220.977 236.224 223.467C241.384 226.07 246.829 227.505 252.571 227.703C253.873 227.745 254.295 227.54 254.17 226.075C253.695 218.781 249.339 213.385 244.227 208.343C238.792 202.949 232.205 199.272 224.589 197.48C220.323 196.349 216.019 195.859 211.468 195.896ZM213.09 169.864C211.776 169.892 211.85 170.339 212.297 171.291C216.767 179.95 223.529 186.542 232.275 191.51C236.195 193.724 240.35 195.481 244.729 196.849C245.535 197.081 246.403 197.396 247.333 197.364C244.422 179.94 231.866 169.108 213.09 169.864ZM203.375 139.144C207.051 147.502 211.346 155.407 219.72 160.733C224.285 163.651 229.259 165.569 234.481 166.96C235.585 167.25 235.647 166.903 235.411 166.064C234.342 162.109 232.096 158.713 229.254 155.632C222.491 148.176 214.105 142.919 204.616 139.101C204.256 138.958 203.834 138.731 203.425 138.866C203.4 139.005 203.388 139.074 203.375 139.144ZM193.804 120.621C198.842 126.08 204.499 130.654 211.396 133.888C213.393 134.786 215.415 135.546 217.536 135.749C220.041 135.955 220.648 135.139 219.742 132.872C219.258 131.696 218.525 130.616 217.694 129.66C212.581 123.322 205.832 119.253 198.204 116.234C195.028 115.031 191.754 113.952 188.082 112.939C189.783 115.939 191.67 118.327 193.804 120.621ZM170.98 89.5442C177.135 95.2238 183.574 100.6 190.93 104.717C192.816 105.809 194.726 106.763 196.872 107.258C198.943 107.74 199.476 107.341 199.215 105.345C198.717 101.647 197.053 98.4379 194.497 95.4849C191.419 91.9969 187.363 90.1158 182.948 88.9556C178.681 87.8249 174.34 87.5436 170 87.6944C169.764 87.7199 169.603 87.7601 169.355 87.8551C169.752 88.6536 170.447 89.0788 170.98 89.5442Z" fill="white"/>
<path d="M272.753 303.116C272.828 303.563 272.655 304.105 272.928 304.303C273.509 301.033 274.176 297.709 274.708 294.286C277.241 278.298 282.367 263.325 290.979 249.546C295.923 241.666 301.896 234.925 310.538 230.512C310.885 230.292 311.195 229.849 311.976 230.22C310.663 232.841 309.858 235.634 309.041 238.497C305.403 251.602 302.136 264.782 299.39 278.064C296.756 290.72 294.952 303.468 294.252 316.507C293.639 328.194 293.794 339.889 293.875 351.569C293.996 369.522 293.969 387.445 295.244 405.41C296.344 420.892 297.208 436.399 296.001 451.857C295.274 461.146 294.015 470.401 286.962 477.577C286.305 478.239 286.058 479.63 285.091 479.439C283.9 479.204 283.912 477.838 283.626 476.846C279.948 463.735 277.448 450.497 275.741 437.127C275.505 435.425 275.268 433.722 275.106 432.034C274.464 436.947 274.045 441.904 273.713 446.807C273.676 447.448 273.565 448.074 273.23 448.656C272.896 449.238 272.412 449.79 271.668 449.643C270.924 449.496 271.221 448.691 271.221 448.259C270.124 437.098 270.105 425.934 270.694 414.818C271.603 398.436 271.594 382.018 271.349 365.625C270.759 329.507 267.527 293.516 261.356 257.591C260.05 250.205 258.657 242.874 257.041 235.498C258.615 234.873 260.14 234.094 261.715 233.469C266.775 256.574 270.273 279.801 272.753 303.116ZM276.176 348.002C276.474 370.597 276.995 393.237 278.669 415.889C280.043 434.161 282.744 452.335 286.698 470.396C286.723 470.689 286.834 470.927 286.934 471.235C288.643 466.388 289.905 461.453 290.497 456.386C292.151 442.312 291.747 428.12 290.722 413.949C288.66 384.813 288.731 355.81 288.814 326.737C288.915 308.396 291.348 290.372 295.357 272.587C297.596 262.589 299.984 252.62 302.744 242.725C302.781 242.516 302.818 242.308 302.942 241.612C299.658 245.788 296.869 249.773 294.367 253.887C287.453 265.05 283.131 277.229 280.633 289.984C277.01 309.069 275.942 328.515 276.176 348.002Z" fill="white"/>
<path d="M185.559 371.578C184.866 373.313 185.896 374.453 186.616 375.603C190.041 380.6 193.653 385.417 197.425 390.194C209.724 405.944 223.088 420.896 237.705 434.871C239.74 436.857 242.196 438.206 244.739 439.501C248.349 441.294 251.959 443.087 255.568 444.88C255.705 444.979 255.866 444.939 256.102 444.913C256.064 444.258 255.58 443.946 255.171 443.649C237.863 429.214 222.823 412.851 208.515 395.841C202.348 388.503 195.362 381.867 188.748 374.872C187.78 373.817 186.738 372.747 185.559 371.578Z" fill="white"/>
</svg>
