<svg width="174" height="370" viewBox="0 0 174 370" fill="none" xmlns="http://www.w3.org/2000/svg">
<path d="M127.112 14.0946C126.876 14.6215 126.769 15.0827 126.221 15.4441C124.129 16.758 122.31 18.5011 120.496 20.0793C114.047 25.7349 108.212 32.0511 104.822 40.2846C101.978 47.1019 100.71 54.0876 102.565 61.3439C102.62 61.6407 102.769 61.9707 102.508 62.2668C101.493 63.5172 100.478 64.7676 99.3991 66.0508C100.942 58.2746 99.5862 51.2501 96.0674 44.6824C94.8364 42.3062 93.5413 39.9628 91.4672 38.3429C90.4771 37.5496 90.3074 36.824 90.3393 35.6703C90.5035 32.0116 89.2356 28.6794 88.9255 25.0196C88.442 25.3482 88.4971 25.645 88.4582 25.9086C88.1359 29.567 87.8479 33.1265 87.5256 36.7848C87.4478 37.3121 87.5579 37.9057 87.1341 38.3663C86.2864 39.2874 85.9682 40.5063 85.7141 41.6925C84.9427 45.5806 84.1072 49.5015 83.3656 53.4556C82.5027 58.3654 81.9561 63.2759 82.3879 68.2545C82.4086 68.6501 82.5874 69.0461 82.2277 69.4738C81.0861 67.2956 79.9744 65.1834 78.5716 63.3013C77.3522 61.6503 76.2612 59.9337 74.2239 59.2699C73.7542 59.104 73.7633 58.7744 73.8365 58.412C74.6079 54.5239 73.4133 50.8292 73.2017 47.0378C73.1602 46.2466 73.183 45.4225 72.8001 44.3998C72.2207 45.9149 72.2783 47.2665 72.1479 48.5518C71.4937 53.9236 71.0617 59.2629 68.8608 64.5323C66.1536 70.9544 65.8343 77.9421 66.5278 84.8992C66.5783 85.3608 66.8465 85.9547 66.4823 86.5473C64.3506 83.5757 62.116 80.9006 59.2948 78.8505C56.2559 76.6681 53.5705 77.717 52.8334 81.5063C51.3548 89.2496 50.0984 96.9605 50.3887 104.774C50.7114 113.708 53.087 121.592 60.4666 126.915C60.8379 127.213 60.957 127.477 60.7555 127.905C59.6492 130.177 58.6071 132.416 57.5306 134.754C57.0355 134.358 57.2371 133.93 57.2164 133.534C56.9174 128.325 55.5026 123.443 53.13 118.889C50.6634 114.301 47.4523 110.338 43.2309 107.461C40.0041 105.212 37.3783 106.393 36.6665 110.413C36.2957 112.39 36.0487 114.466 35.8658 116.51C34.9074 124.881 34.8381 133.122 37.145 141.203C37.4339 142.193 37.6931 143.116 38.0461 144.073C36.2034 142.091 34.4592 139.977 32.5478 138.193C31.4683 137.202 30.359 136.144 29.0138 135.614C26.917 134.818 25.0566 135.77 24.4246 138.043C24.1109 139.097 24.0492 140.185 24.0518 141.24C24.0602 148.953 24.7653 156.636 26.458 164.057C27.6414 169.301 29.5306 174.183 32.3477 178.673C33.9843 181.248 36.1731 183.296 38.1007 185.641C38.3139 185.938 38.7195 186.137 38.5477 186.631C37.9547 188.641 37.3914 190.716 36.7983 192.726C36.7044 192.693 36.6403 192.725 36.4822 192.725C36.3377 192.23 36.223 191.801 36.0785 191.307C35.4204 188.8 34.5698 186.392 33.3984 184.147C29.4761 176.161 23.1184 170.477 16.204 165.484C15.8328 165.187 15.363 165.021 14.8933 164.855C13.1722 164.192 11.5042 165.045 10.8218 166.857C10.547 167.647 10.4302 168.438 10.4075 169.262C10.1518 173.943 9.99017 178.656 10.3028 183.371C10.8063 191.481 12.7465 199.1 17.8852 205.408C21.2201 209.47 25.1804 212.643 30.3363 213.743C31.4683 213.976 31.4891 214.372 31.2739 215.294C27.8721 230.846 25.3845 246.498 23.7472 262.285C23.7381 262.614 23.8528 263.043 23.3395 263.306C23.3143 263.075 23.2546 262.943 23.2294 262.712C21.8242 249.457 19.3032 236.53 15.3501 223.928C13.2589 217.199 9.6786 211.719 4.25848 207.586C3.14465 206.694 2.72086 207.154 2.43696 208.274C2.2263 209.032 2.07977 209.757 2.02723 210.515C1.78019 212.591 1.62708 214.701 1.44419 216.744C0.169011 233.157 0.607837 249.344 3.76881 265.438C6.20495 278.003 10.4924 289.945 14.5233 302.019C17.2105 310.069 19.4189 318.282 20.5458 326.723C21.1448 331.372 21.9363 335.923 22.2489 340.638C22.7706 348.089 24.7245 355.214 27.093 362.208C27.9391 364.781 28.9478 367.189 30.4995 369.401C30.3571 367.687 30.1506 366.005 29.9142 364.258C27.7246 347.342 28.0304 330.531 32.729 313.828C36.5505 300.255 43.4453 288.766 54.4974 280.187C57.5354 277.82 60.7865 275.751 64.2462 274.143C64.4205 274.704 64.1891 275.066 64.0219 275.395C58.6309 289.69 53.8035 304.184 49.886 318.943C47.6971 327.212 45.6962 335.548 44.9853 344.117C44.9717 344.611 44.7357 345.138 45.1277 345.831C46.0026 343.921 46.7448 342.242 47.5212 340.464C48.774 337.467 50.6546 334.636 51.4377 331.473C52.99 325.642 54.4485 319.777 56.0948 313.979C60.1522 299.879 64.8972 286.078 70.1761 272.409C70.412 271.882 70.6136 271.454 71.2208 271.225C77.1208 269.425 83.0966 268.318 89.2265 269.65C91.8664 270.249 94.6482 270.288 97.2057 271.58C96.1187 267.424 95.4464 263.137 93.3971 259.473C90.5936 254.489 86.0858 251.677 80.948 249.919C80.1024 249.62 79.6327 249.454 80.1388 248.302C84.5867 238.389 89.2523 228.609 94.3235 219.028C94.6579 218.369 94.9625 217.645 95.5147 217.118C95.9385 216.658 96.1608 216.625 96.5916 217.055C99.2961 219.896 102.765 220.233 106.386 219.681C111.562 218.901 115.998 216.307 119.863 212.624C125.058 207.69 128.112 201.335 130.729 194.715C131.339 193.266 132.028 192.345 133.465 191.853C137.009 190.609 139.305 187.647 141.937 185.081C138.931 186.294 135.984 187.639 133.038 188.984C132.589 189.214 132.101 189.708 131.546 189.179C130.62 188.353 129.603 188.548 128.521 188.777C121.652 190.179 115.106 192.472 108.67 195.358C108.285 195.555 107.891 196.082 107.302 195.652C109.025 192.821 110.683 190.022 112.44 187.093C114.73 190.064 117.69 190.5 120.965 189.881C121.695 189.75 122.397 189.554 123.098 189.358C126.159 188.442 129.011 187.064 131.715 185.355C137.537 181.808 142.749 177.435 146.549 171.51C146.978 170.885 147.525 170.524 148.196 170.261C151.993 169.05 154.763 166.09 158.266 164.054C157.391 163.689 156.813 163.984 156.27 164.181C153.97 165.033 151.55 165.621 149.463 166.77C146.927 168.149 144.715 166.924 142.275 167.117C142.536 166.82 142.792 166.689 143.049 166.558C148.951 163.538 154.333 159.891 158.223 154.164C158.518 153.769 158.903 153.572 159.288 153.375C162.273 151.767 164.713 149.3 167.337 147.064C167.435 146.932 167.692 146.801 167.444 146.603C166.816 146.437 166.269 146.798 165.755 147.061C163.609 148.078 161.556 149.128 159.409 150.145C159.088 150.309 158.664 150.77 158.327 150.373C157.163 149.019 155.454 149.081 153.856 148.517C156.175 147.006 158.395 145.627 160.248 143.785C163.463 140.759 166.365 137.568 167.501 133.087C167.677 132.429 168.161 132.1 168.644 131.771C170.617 130.194 171.881 127.922 173.487 125.882C172.119 126.175 171.054 126.964 169.865 127.654C168.419 128.474 167.168 130.252 165.174 129.16C164.986 129.093 164.7 129.158 164.443 129.29C161.032 130.304 157.498 130 153.885 131.442C156.198 127.821 158.84 124.926 160.363 121.303C162.761 115.771 165.001 110.238 164.319 104.006C164.268 103.544 164.534 103.083 164.671 102.688C165.997 99.3285 166.602 95.7697 167.522 92.2116C165.848 94.4494 164.297 96.7865 163.245 99.3553C162.43 101.397 161.005 102.614 159.268 103.665C153.481 107.113 149.14 112.015 145.72 117.908C144.194 120.476 143.074 123.243 142.958 126.308C142.86 128.714 143.596 130.694 145.714 131.885C146.055 132.117 146.495 132.217 146.037 132.776C145.219 133.763 144.525 134.849 143.396 135.671C142.931 129.571 140.726 124.688 136.078 121.216C135.737 120.985 135.618 120.721 135.661 120.292C135.723 119.205 135.34 118.182 134.987 117.225C134.365 115.674 134.129 113.927 133.029 112.54C132.862 115.144 132.888 117.649 132.943 120.22C132.925 120.88 132.877 121.473 132.419 122.032C128.3 126.902 125.522 132.467 124.366 138.826C124.322 139.255 124.467 139.749 123.889 140.045C122.947 138.658 122.395 136.91 120.639 136.345C120.264 136.213 120.435 135.719 120.444 135.389C120.574 131.829 118.631 128.924 117.842 125.428C117.285 126.119 117.553 126.713 117.539 127.207C117.586 130.108 117.79 133.01 117.679 135.91C117.651 136.899 117.406 137.756 116.875 138.678C115.379 141.311 114.037 144.11 112.883 146.976C111.488 150.533 110.469 154.223 109.851 158.276C108.031 155.47 107.135 152.435 105.049 150.09C104.895 149.925 104.905 149.595 104.879 149.364C104.707 145.309 103.003 141.712 102.194 137.821C102.022 140.589 102.039 143.424 102.026 146.193C102.065 148.204 102.451 150.282 100.824 151.926C100.661 152.091 100.558 152.387 100.519 152.651C98.3144 160.36 96.5195 168.102 97.3393 176.214C97.3645 176.444 97.4837 176.708 97.1331 176.806C96.0718 175.156 95.2374 173.308 93.9836 171.756C91.7489 169.081 88.9237 169.47 87.8153 172.962C85.3284 180.571 83.5978 188.281 84.0073 196.358C84.3684 202.754 86.1065 208.527 90.5345 213.086C91.3023 213.911 91.4468 214.406 90.881 215.427C85.6082 225.436 80.583 235.644 76.0573 246.084C75.3496 247.665 74.6736 248.092 73.0375 247.791C63.2161 246.154 54.0164 248.342 45.6608 254.323C38.4003 259.581 33.1155 266.591 29.0338 274.691C28.4635 275.877 27.8931 277.062 27.2587 278.28C26.9263 277.719 27.034 277.258 27.0774 276.829C28.3592 259.031 30.679 241.434 34.1354 223.904C34.7214 221.005 35.3715 218.072 35.9576 215.173C36.0995 214.613 36.1131 214.118 36.9036 214.12C43.9246 214.103 50.0444 211.215 55.6324 206.975C63.642 200.928 68.5531 192.566 71.727 182.98C71.8987 182.486 72.0063 182.025 72.4897 181.696C75.5484 179.725 77.5619 176.664 79.8528 173.867C80.0498 173.604 80.4988 173.374 80.3246 172.813C79.7861 172.845 79.3966 173.207 79.0415 173.47C76.5259 175.244 74.0103 177.019 71.6184 178.892C70.844 179.451 70.3055 179.483 69.5973 178.789C74.6629 175.141 77.996 170.105 81.2097 164.805C82.2039 163.159 83.2621 161.48 84.2861 159.9C85.0145 158.715 85.9011 157.53 86.036 156.08C86.0794 155.652 86.3062 155.454 86.6269 155.29C89.0739 153.713 91.2183 151.641 93.4818 149.833C94.1622 149.241 95.0604 148.782 95.5919 147.86C94.8746 147.496 94.3568 147.923 93.8435 148.186C92.0129 149.204 89.9988 149.99 88.3515 151.239C85.7374 153.146 83.0496 153.139 80.0248 152.737C80.9275 152.113 81.8302 151.489 82.5748 150.864C88.9805 145.637 93.9952 139.253 97.4009 131.58C97.6025 131.152 97.8935 130.922 98.244 130.823C101.532 129.71 104.13 127.243 107.086 125.569C107.278 125.47 107.629 125.372 107.574 125.075C107.553 124.68 107.172 124.712 106.92 124.678C106.604 124.678 106.224 124.71 105.903 124.874C103.158 125.791 100.409 126.873 97.7187 128.086C97.3338 128.283 96.91 128.744 96.4745 128.479C95.2966 127.619 93.8483 127.385 92.3314 127.349C92.5284 127.086 92.5628 126.987 92.5628 126.987C98.5679 123.671 103.993 119.595 108.997 114.761C109.322 114.432 109.737 114.301 110.216 114.137C112.131 113.482 114.106 112.959 115.992 112.238C118.421 111.32 120.904 110.7 123.283 109.32C122.609 108.528 121.814 108.691 121.147 108.788C117.398 109.406 113.62 109.958 110.011 111.236C109.596 111.367 109.177 111.662 108.776 111.299C106.741 109.415 104.053 109.409 101.507 108.843C100.281 108.577 99.0505 108.475 97.4442 108.241C98.0514 108.012 98.1796 107.946 98.4019 107.913C106.905 105.757 114.732 101.753 122.231 97.0224C124.258 95.7413 126.242 94.8886 128.435 94.4979C129.008 94.3673 129.611 94.3027 130.184 94.1721C133.142 93.5524 136.1 92.9327 139.152 92.3461C138.581 91.257 137.726 91.2881 136.936 91.2863C132.923 91.1455 128.872 91.2684 124.952 92.3804C124.473 92.5442 124.058 92.6751 123.598 92.1796C122.86 91.4198 121.856 91.1209 120.916 90.7891C118.785 90.0921 116.718 89.3623 114.617 88.7313C114.827 87.9736 115.208 87.9414 115.528 87.7773C118.603 86.3667 121.405 84.527 123.994 82.3901C128.684 78.6096 132.76 74.1684 137.112 69.9916C137.502 69.6299 137.926 69.1694 137.969 68.7409C138.271 66.9615 139.609 66.6019 140.918 66.1763C141.589 65.914 142.354 65.685 142.996 65.3568C145.651 64.2419 148.064 62.7639 150.758 61.3854C149.922 60.7572 149.255 60.8546 148.588 60.952C145.002 61.4055 141.71 62.6838 138.413 64.1269C137.87 64.3234 137.416 64.718 136.758 64.4858C134.597 63.7228 132.354 63.6519 130.111 63.581C121.488 63.1991 112.962 63.9053 104.828 67.5792C104.7 67.6449 104.571 67.7105 104.486 67.3477C105.373 66.163 106.294 64.8794 107.675 64.0914C112.393 61.5966 116.624 58.3755 120.554 54.6592C124.838 50.6801 128.315 46.1387 130.555 40.6057C133.237 33.9528 132.885 27.2273 131.396 20.4333C131.057 18.9821 130.974 17.3996 130.156 16.1122C129.7 15.4519 129.748 14.8586 130.052 14.1341C131.099 11.73 131.864 9.22639 132.283 6.65609C132.628 4.44824 133.132 2.24074 133.541 6.57439e-05C131.102 4.74152 129.077 9.35206 127.112 14.0946ZM147.77 126.121C147.845 124.539 148.391 123.123 149.03 121.74C151.448 116.602 154.917 112.391 159.341 109.071C158.07 115.002 156.3 120.701 152.066 125.142C151.219 126.063 150.282 126.786 149.161 127.278C148.11 127.572 147.644 127.241 147.77 126.121ZM145.807 142.236C146.643 140.59 147.975 139.34 149.489 138.322C153.224 135.924 157.366 134.779 161.999 134.196C159.78 137.85 157.053 140.382 153.926 142.551C152.057 143.832 150.098 144.916 147.841 145.339C147.046 145.502 146.058 145.764 145.542 144.972C144.903 144.08 145.34 143.125 145.807 142.236ZM129.026 145.298C128.198 142.065 128.793 138.836 129.734 135.673C130.641 132.61 132.141 129.811 133.765 127.112C134.262 126.289 134.677 126.158 135.287 126.983C136.109 128.106 136.868 129.261 137.409 130.284C139.968 136.125 138.225 143.109 133.476 146.758C131.217 148.401 129.743 147.936 129.026 145.298ZM143.637 149.846C140.823 150.961 138.262 152.109 135.819 153.521C135.76 153.389 135.666 153.356 135.606 153.224C137.212 151.183 138.783 149.242 140.389 147.202C140.685 146.807 140.937 146.84 141.146 147.302C141.657 148.259 142.489 149.052 143.637 149.846ZM151.866 153.029C152.152 152.964 152.439 152.899 152.776 153.295C150.815 155.598 148.423 157.472 145.942 159.147C142.493 161.48 138.901 163.318 134.866 164.001C133.913 164.164 132.54 164.623 132.153 163.765C131.671 162.873 132.835 161.953 133.55 161.262C138.776 156.395 144.955 153.64 151.866 153.029ZM127.489 151.689C128.365 152.054 129.052 152.352 129.834 152.683C129.701 152.914 129.568 153.144 129.435 153.375C128.908 154.132 128.352 154.823 127.564 155.876C127.545 154.261 127.577 153.107 127.489 151.689ZM114.419 161.22C114.284 154.627 116.568 148.665 119.587 142.409C122.755 149.074 124.381 155.473 120.588 162.288C119.889 163.54 118.973 164.658 117.843 165.48C116.585 166.367 115.799 166.2 115.173 164.815C114.637 163.627 114.481 162.407 114.419 161.22ZM130.46 168.936C127.78 169.82 125.099 170.704 122.294 171.489C123.841 169.317 125.293 167.112 127.036 164.676C127.541 167.018 128.744 168.108 130.46 168.936ZM114.442 172.988C114.194 170.515 114.194 170.515 116.77 171.147C116.538 171.509 116.337 171.938 116.041 172.332C115.677 172.925 115.283 173.452 114.623 174.439C114.582 173.648 114.527 173.351 114.442 172.988ZM117.338 181.499C118.362 179.919 119.817 178.769 121.391 177.882C127.045 174.664 133.193 173.063 139.515 172.022C139.673 172.022 139.796 172.122 139.984 172.188C137.792 174.853 135.267 176.957 132.589 178.896C129.072 181.427 125.347 183.495 121.204 184.64C120.567 184.803 119.836 184.933 119.14 184.965C118.221 185.029 117.109 185.191 116.662 184.201C116.121 183.178 116.747 182.289 117.338 181.499ZM101.794 175.235C101.35 169.531 102.359 163.896 103.681 158.427C103.715 158.328 103.813 158.196 104.075 157.9C106.672 163.477 109.689 168.758 109.827 175.187C109.89 178.648 109.167 181.943 106.598 184.475C105.332 185.692 105.173 185.692 104.36 184.24C102.792 181.467 102.053 178.433 101.794 175.235ZM101.498 188.222C102.488 189.015 103.291 189.742 104.063 190.403C104.434 190.701 104.331 190.997 104.164 191.326C103.667 192.149 103.17 192.972 102.506 194.125C102.12 192.047 101.854 190.234 101.498 188.222ZM108.747 200.6C114.11 197.612 119.733 195.548 125.885 193.781C122.573 201.488 118.904 208.402 111.71 212.408C108.946 213.984 106.009 214.999 102.792 214.695C99.6089 214.293 98.5567 212.312 99.8438 209.217C100.59 207.372 101.674 205.924 103.069 204.642C104.854 202.997 106.723 201.716 108.747 200.6ZM89.4092 201.15C88.1778 196.499 88.3738 191.687 89.074 186.942C89.5453 183.613 90.2986 180.384 91.3771 176.827C93.6143 180.557 95.1893 184.219 96.3496 188.013C97.2462 191.047 97.6638 194.246 97.7653 197.444C97.9633 201.729 96.3462 205.319 94.1953 208.775C93.6639 209.697 93.3659 209.037 93.029 208.641C91.3191 206.429 90.1866 203.921 89.4092 201.15ZM42.7617 263.118C50.6127 254.796 60.1397 251.059 71.2306 252.534C73.1531 252.769 75.0232 253.762 76.9457 253.997C81.2606 254.633 84.8724 256.685 87.7557 259.922C89.014 261.309 89.9813 262.927 90.8501 264.676C90.149 264.872 89.6196 264.574 89.0857 264.441C83.5746 263.605 78.16 263.856 72.8236 265.855C69.7235 267.035 66.4744 267.885 63.4042 269.131C57.4263 271.458 52.2324 275.171 47.4946 279.545C37.3386 288.884 31.1313 300.672 27.4426 314.014C27.3007 314.574 27.3168 315.135 26.7945 315.727C26.1384 312 25.8924 308.308 26.0268 304.583C26.8438 288.729 31.85 274.631 42.7617 263.118ZM19.1163 274.241C19.5077 282.977 19.395 291.646 19.4701 300.382C19.461 300.712 19.4222 300.975 19.3696 301.733C13.4587 284.447 7.63259 267.523 6.04769 249.323C5.05321 238.377 5.16544 227.433 6.00412 216.523C6.04301 216.26 6.05211 215.93 6.19861 215.205C7.8812 218.407 9.12839 221.343 10.1533 224.312C15.6859 240.411 18.3543 257.163 19.1163 274.241ZM88.1404 72.9483C87.4524 70.3755 87.1448 67.7706 87.1237 65.1004C87.0328 58.0788 88.6423 51.3247 90.1578 44.5373C93.722 49.457 95.5632 54.9332 95.1681 61.2285C94.8619 65.4473 93.6162 69.3343 91.8365 73.0883C91.7724 73.1211 91.8021 73.1872 91.738 73.22C91.0439 74.3063 90.2812 75.5902 89.1699 75.7525C88.6314 75.7843 88.3651 73.9707 88.1404 72.9483ZM90.9781 88.1512C90.3365 88.4794 89.789 88.8408 89.1864 88.9054C89.6168 87.0603 89.6809 87.0275 90.9781 88.1512ZM71.4362 85.8002C70.5114 79.2052 71.0692 72.7454 73.0499 66.2887C73.153 65.9923 73.256 65.6958 73.3591 65.3994C73.3934 65.3006 73.5561 65.1361 73.7187 64.9717C75.2245 66.5573 76.2813 68.3727 77.2097 70.2538C81.7806 78.8017 82.5821 87.5721 77.4351 96.4611C77.3023 96.6915 77.1053 96.9548 76.9381 97.2841C76.4364 98.2719 76.0561 98.304 75.4509 97.3137C73.2687 93.8805 72.0489 89.9551 71.4362 85.8002ZM71.6891 100.701C73.8137 102.782 73.8551 103.573 71.7567 106.272C71.7472 104.327 71.733 102.547 71.6891 100.701ZM77.8174 105.527C78.9636 107.541 80.5472 108.599 82.4607 109.164C79.5233 110.179 76.7439 111.195 73.8318 112.441C75.1901 110.202 76.4545 107.93 77.8174 105.527ZM55.823 110.687C54.9537 106.663 54.9391 102.608 55.2109 98.4883C55.4964 93.8739 56.2562 89.2606 56.9518 84.68C57.0251 84.3176 56.9149 83.724 57.3595 83.6591C57.5817 83.6266 57.8889 83.9569 58.1662 84.2212C60.9096 86.7986 63.0711 89.8361 64.7445 93.3671C67.8784 100.132 67.4948 107.152 65.654 114.269C65.0816 116.674 64.1335 118.946 63.4672 121.318C63.0802 122.735 62.5165 122.536 61.6846 121.743C58.6042 118.769 56.7473 115.007 55.823 110.687ZM64.2369 131.242C64.4728 130.715 64.7844 130.881 65.0319 131.079C66.5216 132.104 68.2861 132.339 70.046 132.738C67.1338 133.985 64.4303 135.693 61.4494 137.137C62.4527 135.161 63.3276 133.251 64.2369 131.242ZM41.3241 138.74C39.3749 131.45 39.6139 123.935 40.4212 116.454C40.5515 115.169 40.7116 113.949 40.9061 112.631C40.9107 112.466 41.0092 112.335 41.1466 111.939C45.5034 115.641 48.7994 119.967 50.6405 125.443C53.5364 133.954 52.8898 142.491 50.0594 151.088C49.6815 152.175 49.3011 152.207 48.5929 151.513C44.7311 148.208 42.6748 143.655 41.3241 138.74ZM56.7362 160.102C54.7383 161.449 52.7748 162.698 50.7037 164.407C51.1043 162.496 51.8075 161.08 52.3228 159.598C52.4946 159.104 52.8406 159.171 53.1522 159.336C54.2499 159.668 55.4804 159.77 56.7362 160.102ZM42.7065 152.819C43.8501 153.777 44.8311 154.9 45.9449 155.793C46.5935 156.355 47.9523 156.391 47.9548 157.446C48.0261 158.303 47.3067 159.158 47.0617 160.015C46.6106 161.464 46.2535 162.947 45.8322 164.462C45.5801 164.429 45.3922 164.362 45.1401 164.329C44.9331 160.373 44.0592 156.514 42.7065 152.819ZM29.2672 152.789C28.8631 149.096 28.6172 145.403 28.5935 141.678C38.0628 146.908 43.8348 168.084 38.7226 179.149C36.7561 177.067 35.273 174.658 34.0466 172.117C31.2108 166.012 29.9996 159.482 29.2672 152.789ZM43.5406 185.62C43.6138 185.258 43.781 184.929 44.1912 184.963C45.7036 185.164 47.2504 185.266 49.079 185.468C46.5335 187.176 44.373 188.688 42.1438 190.397C42.5995 188.783 43.0551 187.169 43.5406 185.62ZM32.3514 207.187C31.9256 208.867 31.5704 209.13 29.9732 208.566C27.2187 207.538 24.8925 205.885 22.832 203.771C18.7111 199.542 16.4851 194.263 15.4481 188.294C14.4363 182.556 14.5956 176.787 14.8235 170.821C26.1471 178.758 32.7189 189.288 32.6646 203.859C32.7611 204.947 32.6353 206.067 32.3514 207.187ZM51.8302 203.802C47.9285 206.53 43.6989 208.531 39.0657 209.114C37.2876 209.374 37.3518 209.341 37.6539 207.562C38.8163 199.818 43.8496 195.049 49.6552 190.941C54.4299 187.524 59.796 185.591 65.3319 184.383C65.5541 184.351 65.6825 184.285 65.9345 184.319C65.9987 184.286 66.1224 184.385 66.3104 184.451C63.1521 192.323 58.7608 199.038 51.8302 203.802ZM65.6967 175.747C59.9002 179.525 53.5692 180.896 46.9124 180.321C45.1778 180.152 45.2419 180.119 46.1674 178.671C46.3002 178.44 46.4674 178.111 46.5705 177.815C47.9764 172.708 51.4518 169.387 55.5117 166.66C62.8226 161.863 70.8559 159.54 79.2125 158.109C79.3706 158.109 79.4646 158.142 79.8106 158.209C75.7103 164.694 72.2333 171.51 65.6967 175.747ZM71.0995 151.86C67.2639 153.335 63.4375 154.48 59.3772 154.933C58.0779 155.029 56.813 155.026 55.6168 154.826C54.6727 154.659 54.3015 154.361 54.7137 153.175C56.5504 148.498 59.1252 144.581 63.373 141.921C71.9327 136.567 81.2192 133.522 91.0584 132.225C91.2806 132.192 91.5327 132.226 92.007 132.227C86.8898 141.182 80.4638 148.288 71.0995 151.86ZM101.875 113.855C102.033 113.855 102.157 113.954 102.468 114.12C97.538 118.592 92.1951 121.975 86.3111 124.336C82.1846 126.041 77.9137 127.251 73.4134 127.604C71.7979 127.699 70.1825 127.794 68.615 127.296C67.1713 126.897 67.0359 126.073 67.9568 124.789C70.9256 120.346 74.6829 117.124 79.5701 115.354C86.0223 113.028 92.5483 112.614 99.1363 113.387C100.051 113.488 100.931 113.688 101.875 113.855ZM113.198 96.6066C105.431 100.743 97.3745 103.889 88.6603 104.529C87.3611 104.625 86.0023 104.589 84.7419 104.422C82.6956 104.088 82.1409 103.559 81.7212 101.58C81.6409 101.052 81.9662 100.724 82.1976 100.361C83.8812 97.794 86.1791 95.8872 88.7796 94.4755C96.1961 90.4374 109.191 90.5322 116.632 94.7683C115.413 95.3919 114.352 96.0159 113.198 96.6066ZM120.133 68.7671C123.838 68.5776 127.543 68.3881 131.581 68.7597C126.967 73.2325 122.827 77.7065 117.706 81.0574C112.714 84.3428 107.293 85.9789 101.447 85.8011C99.1397 85.763 96.8757 85.2964 94.749 84.4346C93.7797 84.0369 93.759 83.6413 94.4141 82.8186C101.282 74.5928 109.461 69.2708 120.133 68.7671ZM126.919 22.2363C128.811 30.4487 128.029 38.1607 122.838 45.2035C118.962 50.4362 114.323 54.6783 109.099 58.3257C108.971 58.3914 108.873 58.523 108.744 58.5887C107.654 59.1466 106.783 58.6173 106.661 57.2984C106.181 50.6385 107.806 44.4448 111.034 38.6502C114.793 31.9338 120.215 26.8035 125.915 21.9375C126.468 21.4112 126.72 21.4447 126.919 22.2363Z" fill="#9CC3FF"/>
</svg>
