<svg width="207" height="362" viewBox="0 0 207 362" fill="none" xmlns="http://www.w3.org/2000/svg">
<path d="M144.749 13.4212C144.486 13.9236 144.377 14.3787 143.727 14.6638C141.243 15.6849 139.11 17.1868 136.975 18.5209C129.389 23.3097 122.581 28.8687 118.836 36.7654C115.69 43.298 114.468 50.2457 117.059 57.9518C117.14 58.2638 117.336 58.6242 117.032 58.8867C115.855 60.0089 114.678 61.131 113.424 62.2768C114.944 54.563 112.971 47.171 108.388 39.9125C106.781 37.2929 105.098 34.697 102.5 32.7208C101.259 31.7569 101.019 30.9887 101.005 29.8139C101.036 26.098 99.3401 22.4951 98.7945 18.705C98.2215 18.9664 98.3021 19.2784 98.2669 19.542C98.0431 23.2332 97.8565 26.8286 97.6327 30.5198C97.5623 31.0469 97.7236 31.6709 97.2292 32.0765C96.2403 32.8877 95.9093 34.0851 95.6547 35.2589C94.8952 39.1158 94.0591 42.9963 93.3388 46.9253C92.515 51.8128 92.0759 56.7498 92.8303 61.9073C92.8737 62.3151 93.1095 62.7475 92.6916 63.1295C91.2025 60.7261 89.7528 58.3948 87.9596 56.254C86.4001 54.3778 84.9938 52.4542 82.4848 51.4613C81.9056 51.2192 81.9015 50.8836 81.974 50.5243C82.7335 46.6674 81.1102 42.7051 80.6783 38.7956C80.5915 37.9801 80.5812 37.141 80.0684 36.0361C79.4332 37.496 79.5654 38.8871 79.466 40.1813C78.9172 45.5734 78.6374 50.9665 76.2022 56.0155C73.2042 62.165 73.1373 69.2612 74.3011 76.4822C74.3838 76.962 74.7374 77.6107 74.3216 78.1605C71.5915 74.7932 68.7497 71.7132 65.2232 69.1818C61.4257 66.4816 58.2069 67.1401 57.4846 70.9013C56.042 78.5914 54.8683 86.2825 55.5811 94.3168C56.3847 103.502 59.6376 111.93 68.8604 118.512C69.3258 118.873 69.4829 119.162 69.2574 119.568C68.0161 121.721 66.8513 123.85 65.6492 126.075C65.0287 125.593 65.2543 125.186 65.2109 124.779C64.6075 119.406 62.6615 114.196 59.5655 109.173C56.3536 104.101 52.2647 99.5541 46.9966 95.9609C42.9674 93.1639 39.8273 93.9666 39.1463 97.9676C38.7862 99.9321 38.5812 102.017 38.4527 104.078C37.672 112.49 37.9668 120.907 41.1452 129.526C41.5422 130.582 41.9 131.567 42.3736 132.6C40.0405 130.289 37.8213 127.859 35.4138 125.739C34.0549 124.559 32.6567 123.307 30.9958 122.557C28.4082 121.42 26.1886 122.106 25.5244 124.333C25.1912 125.363 25.1663 126.466 25.2178 127.545C25.5831 135.434 26.7944 143.398 29.1951 151.247C30.8762 156.792 33.3992 162.077 37.033 167.102C39.1426 169.987 41.8997 172.419 44.3527 175.114C44.6256 175.451 45.1283 175.717 44.9421 176.195C44.313 178.159 43.7232 180.194 43.0942 182.158C42.9783 182.109 42.9019 182.133 42.7095 182.108C42.511 181.58 42.3517 181.124 42.1532 180.596C41.2371 177.931 40.0915 175.337 38.5631 172.862C33.4238 164.091 25.4276 157.298 16.786 151.126C16.3206 150.765 15.7415 150.523 15.1624 150.281C13.0381 149.337 11.0481 149.953 10.3012 151.7C10.0032 152.466 9.89764 153.257 9.90789 154.096C9.81221 158.842 9.83242 163.637 10.4297 168.506C11.4155 176.878 14.1264 184.968 20.6683 192.21C24.9124 196.878 29.8764 200.734 36.1997 202.653C37.5876 203.066 37.631 203.473 37.4117 204.384C33.9887 219.762 31.6826 235.384 30.417 251.274C30.4211 251.61 30.5803 252.066 29.968 252.255C29.9267 252.015 29.8481 251.871 29.8067 251.631C27.4874 237.861 23.8255 224.252 18.4364 210.757C15.5826 203.554 10.9747 197.398 4.19051 192.336C2.79437 191.252 2.29999 191.658 2.00613 192.759C1.78473 193.502 1.63982 194.22 1.61077 194.987C1.40576 197.072 1.31655 199.206 1.18808 201.267C0.391951 217.854 1.67062 234.474 6.25674 251.418C9.79866 264.642 15.5642 277.515 21.0237 290.483C24.6633 299.128 27.7279 307.867 29.4873 316.673C30.43 321.519 31.6023 326.295 32.1995 331.164C33.1771 338.864 35.8819 346.45 39.0852 353.967C40.233 356.729 41.571 359.347 43.5606 361.849C43.3085 360.074 42.9798 358.322 42.6118 356.499C39.1697 338.864 38.7682 321.72 43.7158 305.365C47.7405 292.075 55.5999 281.39 68.651 274.321C72.238 272.37 76.098 270.755 80.2331 269.644C80.4709 270.245 80.2061 270.579 80.0179 270.89C74.117 284.676 68.911 298.752 64.8241 313.241C62.5416 321.359 60.4909 329.574 60.0204 338.227C60.0265 338.731 59.7637 339.233 60.2725 340.002C61.249 338.184 62.0746 336.581 62.9374 334.882C64.3236 332.011 66.4813 329.406 67.2884 326.293C68.9086 320.569 70.4131 314.797 72.1492 309.122C76.4367 295.33 81.5743 281.949 87.3675 268.786C87.6303 268.283 87.8558 267.877 88.5839 267.736C95.6791 266.805 102.898 266.594 110.417 268.901C113.656 269.921 117.042 270.39 120.213 272.105C118.699 267.687 117.684 263.2 115.023 259.138C111.383 253.609 105.769 250.039 99.4376 247.448C98.3951 247.013 97.816 246.771 98.3787 245.67C103.334 236.22 108.56 226.938 114.289 217.923C114.665 217.301 115.002 216.607 115.65 216.154C116.144 215.748 116.413 215.75 116.957 216.255C120.378 219.577 124.614 220.457 128.993 220.451C135.255 220.451 140.532 218.482 145.064 215.312C151.159 211.069 154.581 205.041 157.461 198.675C158.135 197.287 158.932 196.451 160.657 196.17C164.912 195.444 167.568 192.769 170.652 190.552C167.051 191.329 163.528 192.25 160.005 193.171C159.47 193.336 158.899 193.766 158.2 193.14C157.035 192.152 155.807 192.195 154.501 192.262C146.209 192.637 138.35 193.972 130.653 195.931C130.194 196.073 129.739 196.551 129.002 196.021C130.968 193.391 132.856 190.785 134.859 188.06C137.782 191.452 141.403 192.354 145.358 192.226C146.242 192.205 147.086 192.113 147.93 192.02C151.612 191.555 155.019 190.586 158.229 189.256C165.149 186.526 171.288 182.859 175.639 177.386C176.131 176.812 176.781 176.527 177.586 176.363C182.149 175.709 185.382 173.109 189.55 171.567C188.469 171.059 187.78 171.272 187.128 171.39C184.369 171.906 181.452 172.134 178.966 172.988C175.943 174.007 173.197 172.413 170.237 172.234C170.541 171.971 170.847 171.877 171.153 171.782C178.194 169.604 184.574 166.705 189.043 161.448C189.384 161.09 189.843 160.948 190.303 160.806C193.861 159.621 196.715 157.475 199.804 155.593C199.918 155.474 200.224 155.379 199.913 155.138C199.142 154.871 198.492 155.156 197.88 155.346C195.315 156.055 192.866 156.812 190.301 157.521C189.918 157.639 189.424 158.045 188.996 157.588C187.517 156.024 185.44 155.824 183.471 155.001C186.222 153.813 188.86 152.744 191.03 151.147C194.801 148.549 198.185 145.733 199.361 141.326C199.545 140.68 200.118 140.418 200.691 140.157C203.018 138.847 204.452 136.719 206.312 134.881C204.661 134.97 203.401 135.612 201.986 136.134C200.265 136.751 198.825 138.375 196.349 136.951C196.118 136.854 195.772 136.877 195.466 136.971C191.362 137.483 187.049 136.626 182.72 137.544C185.368 134.198 188.448 131.645 190.134 128.176C192.797 122.888 195.268 117.575 194.151 111.098C194.069 110.618 194.371 110.188 194.52 109.805C195.978 106.574 196.549 103.028 197.506 99.5314C195.571 101.562 193.792 103.712 192.631 106.177C191.733 108.139 190.056 109.164 187.991 109.97C181.109 112.604 176.053 116.948 172.164 122.446C170.426 124.837 169.191 127.493 169.19 130.61C169.182 133.055 170.168 135.193 172.799 136.738C173.225 137.027 173.765 137.197 173.234 137.698C172.284 138.582 171.49 139.585 170.153 140.251C169.308 133.943 166.4 128.609 160.586 124.342C160.16 124.053 160.003 123.765 160.036 123.333C160.061 122.23 159.548 121.126 159.074 120.093C158.247 118.411 157.879 116.588 156.477 115C156.394 117.637 156.541 120.203 156.726 122.841C156.735 123.512 156.703 124.111 156.172 124.612C151.385 128.957 148.261 134.219 147.147 140.544C147.114 140.975 147.313 141.503 146.624 141.716C145.414 140.153 144.661 138.28 142.5 137.432C142.036 137.239 142.222 136.76 142.218 136.424C142.213 132.804 139.714 129.534 138.593 125.837C137.948 126.458 138.302 127.107 138.308 127.61C138.498 130.584 138.88 133.582 138.878 136.531C138.89 137.538 138.631 138.376 138.027 139.237C136.329 141.699 134.825 144.355 133.552 147.107C132.019 150.529 130.949 154.145 130.384 158.194C128.041 155.044 126.81 151.803 124.165 149.083C123.971 148.891 123.966 148.555 123.925 148.315C123.528 144.142 121.291 140.201 120.127 136.097C120.046 138.902 120.196 141.803 120.308 144.633C120.448 146.695 121.013 148.879 119.109 150.31C118.919 150.453 118.807 150.74 118.772 151.004C116.444 158.546 114.617 166.187 115.988 174.608C116.029 174.847 116.186 175.136 115.764 175.182C114.397 173.331 113.297 171.312 111.7 169.532C108.858 166.452 105.439 166.414 104.251 169.814C101.576 177.212 99.8251 184.828 100.695 193.151C101.429 199.747 103.809 205.918 109.406 211.262C110.378 212.225 110.576 212.754 109.935 213.71C103.981 223.132 98.3367 232.796 93.3112 242.773C92.5229 244.28 91.7202 244.613 89.7159 244.053C77.692 240.865 66.6005 241.684 56.7104 246.512C48.1194 250.769 42.0124 257.122 37.4195 264.775C36.7802 265.9 36.1409 267.024 35.425 268.172C34.9949 267.547 35.1046 267.092 35.1377 266.66C35.8782 248.658 37.8907 231.021 41.2891 213.629C41.8686 210.755 42.5247 207.856 43.1042 204.982C43.2511 204.431 43.2449 203.927 44.2067 204.051C52.7475 205.116 60.06 203.107 66.663 199.633C76.1291 194.684 81.7191 186.89 85.1394 177.578C85.3256 177.099 85.4352 176.644 86.0082 176.383C89.6386 174.839 91.9475 172.019 94.6058 169.512C94.8333 169.273 95.3691 169.107 95.1313 168.507C94.4776 168.457 94.0204 168.766 93.6005 168.981C90.6217 170.407 87.6429 171.834 84.8192 173.381C83.9028 173.833 83.2491 173.782 82.3556 172.964C88.3505 170.015 92.1737 165.379 95.8396 160.455C96.9733 158.925 98.1836 157.371 99.3566 155.913C100.188 154.814 101.212 153.739 101.31 152.277C101.343 151.846 101.61 151.679 101.992 151.56C104.897 150.325 107.41 148.537 110.081 147.037C110.881 146.537 111.953 146.206 112.557 145.345C111.668 144.862 111.057 145.219 110.445 145.409C108.265 146.167 105.851 146.661 103.904 147.684C100.811 149.23 97.5412 148.81 93.8428 147.932C94.9123 147.433 95.9817 146.933 96.8588 146.41C104.411 142.052 110.218 136.297 114.009 128.976C114.234 128.57 114.578 128.379 115 128.333C118.949 127.701 121.996 125.58 125.514 124.323C125.744 124.252 126.166 124.206 126.085 123.894C126.042 123.486 125.581 123.46 125.272 123.387C124.888 123.337 124.426 123.312 124.044 123.43C120.746 123.944 117.451 124.627 114.235 125.453C113.775 125.595 113.281 126 112.739 125.663C111.266 124.602 109.494 124.139 107.647 123.868C107.874 123.629 107.911 123.534 107.911 123.534C115.065 121.069 121.477 117.738 127.342 113.566C127.723 113.279 128.221 113.209 128.796 113.116C131.096 112.741 133.475 112.511 135.736 112.065C138.649 111.501 141.642 111.249 144.472 110.205C143.616 109.291 142.656 109.335 141.849 109.332C137.317 109.386 132.745 109.368 128.414 110.118C127.915 110.187 127.419 110.425 126.914 109.992C124.352 107.752 121.081 107.331 117.958 106.36C116.454 105.898 114.953 105.605 112.987 105.117C113.716 104.977 113.869 104.929 114.138 104.93C124.383 104.036 133.721 101.148 142.626 97.4674C145.034 96.4701 147.409 95.9041 150.058 95.8427C150.749 95.7975 151.479 95.8244 152.17 95.7792C155.741 95.6015 159.311 95.4239 162.997 95.2947C162.252 94.093 161.214 93.993 160.252 93.8693C155.364 93.1067 150.441 92.6077 145.723 93.1404C145.148 93.234 144.649 93.3039 144.066 92.7262C143.133 91.8354 141.899 91.375 140.74 90.8909C138.115 89.8496 135.567 88.7846 132.982 87.8154C133.203 87.073 133.664 87.0988 134.047 86.9805C137.723 86.0121 141.047 84.5629 144.098 82.7769C149.63 79.6342 154.384 75.7213 159.487 72.1214C159.944 71.8115 160.439 71.406 160.472 70.9745C160.758 69.2016 162.369 69.0401 163.941 68.8066C164.746 68.642 165.666 68.5258 166.432 68.2891C169.611 67.5585 172.478 66.4191 175.693 65.4249C174.646 64.6536 173.839 64.6504 173.033 64.6472C168.691 64.558 164.744 65.3575 160.799 66.3248C160.148 66.4421 159.614 66.7756 158.803 66.4367C156.139 65.3233 153.407 64.9049 150.674 64.4865C140.166 62.7666 129.826 62.1741 120.099 64.6768C119.946 64.7241 119.793 64.7714 119.673 64.3874C120.697 63.3126 121.759 62.142 123.403 61.5492C129.028 59.7255 134.027 57.0842 138.636 53.8899C143.665 50.4815 147.687 46.3739 150.157 41.0613C153.114 34.6719 152.376 27.7403 150.253 20.5635C149.773 19.0272 149.599 17.3963 148.545 15.9536C147.959 15.2081 147.99 14.6088 148.328 13.9149C149.49 11.618 150.306 9.17582 150.697 6.61211C151.016 4.40771 151.527 2.22806 151.922 2.13425e-06C149.173 4.47232 146.922 8.87469 144.749 13.4212ZM175.036 131.16C175.055 129.554 175.653 128.19 176.367 126.874C179.073 121.994 183.098 118.222 188.328 115.51C187.055 121.379 185.164 126.933 180.218 130.821C179.229 131.633 178.122 132.228 176.782 132.558C175.516 132.697 174.935 132.287 175.036 131.16ZM173.39 147.337C174.331 145.782 175.893 144.709 177.688 143.901C182.122 142.025 187.109 141.493 192.719 141.612C190.186 145.006 186.986 147.175 183.281 148.91C181.066 149.932 178.732 150.738 176.006 150.823C175.046 150.868 173.857 150.983 173.193 150.093C172.374 149.083 172.862 148.174 173.39 147.337ZM153.114 147.88C151.958 144.447 152.534 141.236 153.533 138.148C154.495 135.155 156.192 132.524 158.043 130.014C158.61 129.249 159.109 129.179 159.888 130.117C160.941 131.392 161.917 132.691 162.623 133.82C166.004 140.187 164.206 147.06 158.595 150.059C155.923 151.391 154.109 150.689 153.114 147.88ZM171.099 154.784C167.727 155.49 164.664 156.269 161.757 157.336C161.679 157.192 161.563 157.143 161.484 156.999C163.344 155.16 165.167 153.418 167.027 151.579C167.368 151.221 167.676 151.294 167.951 151.798C168.617 152.856 169.666 153.795 171.099 154.784ZM181.257 159.307C181.602 159.285 181.948 159.262 182.376 159.719C180.096 161.772 177.273 163.319 174.331 164.65C170.243 166.504 165.957 167.829 161.08 167.906C159.928 167.925 158.279 168.182 157.768 167.245C157.142 166.26 158.515 165.498 159.353 164.902C165.486 160.731 172.878 158.866 181.257 159.307ZM151.539 154.179C152.621 154.686 153.471 155.097 154.437 155.557C154.286 155.772 154.135 155.987 153.984 156.202C153.378 156.895 152.732 157.516 151.822 158.471C151.725 156.817 151.711 155.642 151.539 154.179ZM136.076 161.909C135.609 155.146 138.113 149.402 141.498 143.47C145.659 150.775 147.931 157.569 143.63 163.953C142.838 165.124 141.775 166.127 140.438 166.793C138.949 167.506 137.985 167.215 137.16 165.701C136.452 164.404 136.206 163.132 136.076 161.909ZM155.947 172.273C152.727 172.764 149.506 173.254 146.13 173.624C147.911 171.642 149.577 169.61 151.585 167.389C152.307 169.861 153.821 171.162 155.947 172.273ZM136.646 173.946C136.23 171.379 136.23 171.379 139.393 172.423C139.128 172.758 138.903 173.164 138.561 173.522C138.145 174.072 137.69 174.55 136.933 175.458C136.846 174.642 136.766 174.33 136.646 173.946ZM140.561 183.096C141.734 181.638 143.451 180.686 145.325 180.022C152.056 177.604 159.461 176.914 167.104 176.824C167.297 176.849 167.452 176.97 167.684 177.066C165.139 179.454 162.164 181.216 158.995 182.786C154.833 184.831 150.396 186.372 145.409 186.903C144.641 186.972 143.758 186.993 142.912 186.917C141.797 186.841 140.453 186.836 139.863 185.755C139.158 184.625 139.878 183.813 140.561 183.096ZM121.362 174.293C120.56 168.392 121.528 162.786 122.884 157.397C122.921 157.302 123.035 157.182 123.339 156.92C126.755 163.023 130.668 168.888 131.133 175.483C131.368 179.032 130.64 182.29 127.632 184.483C126.147 185.532 125.954 185.508 124.898 183.897C122.863 180.82 121.824 177.604 121.362 174.293ZM121.6 187.528C122.841 188.492 123.85 189.359 124.82 190.154C125.286 190.516 125.174 190.803 124.986 191.114C124.419 191.879 123.852 192.644 123.097 193.72C122.532 191.536 122.125 189.64 121.6 187.528ZM130.988 201.303C137.375 199.075 144.121 197.831 151.524 196.973C147.85 204.343 143.704 210.847 135.136 213.834C131.847 215.02 128.32 215.605 124.392 214.798C120.501 213.896 119.13 211.709 120.553 208.741C121.377 206.971 122.628 205.657 124.267 204.561C126.362 203.154 128.578 202.132 130.988 201.303ZM107.487 198.884C105.775 193.938 105.792 189.048 106.426 184.303C106.846 180.972 107.614 177.787 108.762 174.315C111.656 178.474 113.74 182.462 115.326 186.52C116.557 189.762 117.212 193.097 117.483 196.382C117.921 200.795 116.119 204.217 113.661 207.419C113.057 208.28 112.664 207.559 112.236 207.102C110.054 204.576 108.561 201.837 107.487 198.884ZM53.5881 255.058C62.7565 247.758 74.175 245.406 87.7358 248.625C90.0856 249.161 92.4064 250.465 94.7561 251.002C100.035 252.318 104.523 254.973 108.18 258.727C109.775 260.34 111.026 262.143 112.163 264.065C111.319 264.158 110.662 263.772 110.006 263.553C103.263 261.848 96.687 261.271 90.2869 262.492C86.5697 263.22 82.656 263.589 78.9781 264.389C71.8126 265.847 65.6646 268.843 60.102 272.585C48.1761 280.569 41.1668 291.666 37.2931 304.74C37.1462 305.291 37.1916 305.867 36.5834 306.392C35.6137 302.48 35.1445 298.666 35.1367 294.878C35.4011 278.792 40.8428 265.149 53.5881 255.058ZM25.3333 262.786C26.2115 271.779 26.4732 280.627 26.9666 289.572C26.9707 289.907 26.9356 290.171 26.9065 290.938C18.92 272.35 11.0533 254.146 8.2877 235.291C6.57413 223.944 6.20711 212.771 6.72545 201.744C6.76064 201.481 6.75654 201.145 6.90142 200.427C9.09573 203.959 10.7482 207.155 12.1317 210.349C19.6033 227.664 23.6205 245.205 25.3333 262.786ZM100.045 67.594C99.0893 64.8571 98.5953 62.146 98.4467 59.4123C98.0131 52.2182 99.6603 45.5598 101.192 38.8531C105.754 44.4333 108.246 50.3169 108.055 56.6934C107.877 60.9601 106.54 64.7428 104.548 68.3071C104.471 68.3308 104.511 68.4028 104.434 68.4265C103.64 69.4303 102.771 70.6256 101.426 70.6202C100.773 70.5697 100.365 68.6741 100.045 67.594ZM104.197 83.5775C103.431 83.8142 102.782 84.0993 102.051 84.0724C102.49 82.2521 102.567 82.2284 104.197 83.5775ZM80.314 78.1603C78.8854 71.2739 79.2668 64.7544 81.3794 58.4575C81.4912 58.1702 81.6029 57.883 81.7147 57.5957C81.7519 57.5 81.9422 57.3569 82.1325 57.2138C84.0374 59.0674 85.4066 61.0867 86.6226 63.1533C92.5768 72.5989 93.9555 81.6908 88.1028 89.9867C87.9517 90.2019 87.7242 90.4407 87.5359 90.7516C86.9711 91.6844 86.5098 91.6586 85.728 90.5526C82.9153 86.7055 81.2506 82.5034 80.314 78.1603ZM81.3073 93.436C83.9879 95.892 84.0747 96.7075 81.646 99.1433C81.5448 97.153 81.4457 95.3305 81.3073 93.436ZM88.985 99.3163C90.472 101.552 92.4474 102.878 94.8012 103.751C91.2744 104.336 87.9398 104.946 84.4543 105.771C86.0038 103.692 87.4375 101.564 88.985 99.3163ZM62.4643 101.201C61.2216 96.9524 61.0173 92.804 61.1585 88.633C61.2934 83.9585 62.0055 79.3582 62.641 74.7816C62.7135 74.4223 62.5522 73.7983 63.09 73.8005C63.3589 73.8015 63.7478 74.1867 64.0973 74.4997C67.5535 77.5582 70.3228 80.9976 72.5212 84.8662C76.6451 92.2667 76.5015 99.3866 74.5894 106.38C74.0038 108.751 72.9549 110.928 72.2534 113.251C71.8478 114.64 71.1528 114.349 70.1042 113.41C66.2199 109.895 63.7877 105.761 62.4643 101.201ZM73.6464 123.518C73.9091 123.015 74.2959 123.232 74.6062 123.473C76.4656 124.751 78.623 125.264 80.7825 125.943C77.297 126.769 74.0865 128.098 70.5264 129.115C71.656 127.25 72.6326 125.432 73.6464 123.518ZM46.1161 127.652C43.4093 119.897 43.3542 112.249 43.9921 104.724C44.0916 103.429 44.2302 102.207 44.4062 100.889C44.4042 100.722 44.518 100.602 44.667 100.219C50.1377 104.676 54.3466 109.608 56.8385 115.491C60.7532 124.641 60.3593 133.27 57.3115 141.625C56.9018 142.679 56.4404 142.653 55.5469 141.834C50.6967 137.859 47.9855 132.886 46.1161 127.652ZM65.8491 151.872C63.4805 152.942 61.1492 153.916 58.7082 155.344C59.1077 153.452 59.898 152.113 60.4567 150.676C60.6429 150.198 61.0669 150.319 61.4537 150.536C62.8044 151.045 64.306 151.339 65.8491 151.872ZM48.4457 142.261C49.8811 143.418 51.1262 144.718 52.5224 145.802C53.3373 146.476 54.992 146.723 55.0436 147.802C55.1697 148.689 54.334 149.453 54.0753 150.291C53.5932 151.704 53.2269 153.165 52.7841 154.65C52.4759 154.576 52.2442 154.48 51.936 154.406C51.5021 150.329 50.2614 146.248 48.4457 142.261ZM32.0943 140.159C31.4328 136.32 30.9636 132.506 30.7634 128.694C42.5243 135.501 50.5208 158.045 44.8105 168.571C42.3223 166.14 40.4072 163.447 38.7982 160.66C35.0673 153.98 33.2933 147.116 32.0943 140.159ZM50.9698 175.932C51.0422 175.572 51.2304 175.261 51.731 175.359C53.5802 175.798 55.4667 176.141 57.7006 176.63C54.6825 177.984 52.1236 179.197 49.4903 180.601C49.9703 179.02 50.4504 177.44 50.9698 175.932ZM38.3496 196.26C37.9088 197.912 37.4888 198.127 35.5197 197.304C32.1213 195.828 29.2152 193.778 26.6112 191.299C21.4032 186.339 18.4521 180.598 16.9159 174.334C15.421 168.311 15.3493 162.436 15.352 156.371C29.4934 166.233 37.973 178.014 38.5774 192.904C38.7449 194.032 38.6434 195.158 38.3496 196.26ZM61.8914 195.802C57.2701 197.989 52.2165 199.384 46.6067 199.266C44.4554 199.257 44.5321 199.233 44.8177 197.46C45.8756 189.721 51.7795 185.621 58.6536 182.315C64.305 179.557 70.7445 178.408 77.4237 178.027C77.6926 178.028 77.8458 177.98 78.1539 178.054C78.2305 178.03 78.3856 178.15 78.6173 178.247C75.1372 185.809 70.1038 191.999 61.8914 195.802ZM77.4702 169.252C70.5921 172.222 62.953 172.647 54.828 171.032C52.7099 170.592 52.7865 170.569 53.8457 169.23C53.9967 169.015 54.185 168.704 54.2967 168.417C55.7721 163.412 59.8475 160.551 64.6611 158.389C73.3348 154.611 83.0011 153.475 93.1016 153.299C93.294 153.324 93.4099 153.372 93.8339 153.494C89.1439 159.493 85.2275 165.927 77.4702 169.252ZM82.944 145.659C78.3456 146.576 73.7431 147.157 68.8242 146.993C67.248 146.891 65.709 146.693 64.2445 146.304C63.0883 145.988 62.6229 145.626 63.0699 144.477C65.0892 139.978 68.0414 136.37 73.0868 134.304C83.254 130.149 94.4117 128.467 106.322 128.658C106.591 128.659 106.899 128.732 107.476 128.806C101.663 137.174 94.1722 143.45 82.944 145.659ZM118.636 111.541C118.828 111.566 118.983 111.686 119.37 111.904C113.578 115.717 107.233 118.353 100.184 119.859C95.242 120.966 90.1017 121.545 84.6429 121.212C82.682 121.06 80.721 120.908 78.7912 120.158C77.0165 119.527 76.8138 118.663 77.8751 117.493C81.2824 113.407 85.7052 110.691 91.5695 109.636C99.3121 108.252 107.232 108.835 115.283 110.641C116.4 110.885 117.48 111.225 118.636 111.541ZM131.618 95.6496C122.359 98.6816 112.703 100.657 102.13 99.9678C100.554 99.8657 98.8994 99.6193 97.3584 99.2536C94.8535 98.5963 94.1544 97.9703 93.5527 95.8821C93.4307 95.3302 93.8113 95.044 94.0761 94.7094C96.0063 92.3436 98.7142 90.7481 101.813 89.7055C110.65 86.7198 126.464 88.8204 135.711 94.2993C134.257 94.7491 132.995 95.2236 131.618 95.6496ZM138.773 68.2512C143.272 68.6287 147.771 69.0062 152.701 70.0087C147.293 73.8711 142.463 77.8077 136.387 80.4447C130.465 83.0344 123.945 83.8717 116.825 82.7885C114.016 82.3938 111.24 81.5676 108.613 80.3584C107.416 79.8023 107.372 79.3945 108.131 78.6543C116.108 71.3019 125.814 67.1209 138.773 68.2512ZM144.889 21.717C147.569 30.4064 146.972 38.1717 140.981 44.5731C136.506 49.3263 131.057 52.9488 124.87 55.8731C124.717 55.9204 124.603 56.0398 124.45 56.0872C123.149 56.4896 122.065 55.814 121.857 54.4466C120.966 47.5624 122.659 41.4796 126.318 36.0519C130.582 29.7635 136.943 25.3535 143.654 21.2566C144.302 20.8036 144.61 20.8767 144.889 21.717Z" fill="white"/>
</svg>
