<svg width="209" height="265" viewBox="0 0 209 265" fill="none" xmlns="http://www.w3.org/2000/svg">
<path d="M10.698 9.24606C11.0654 9.59321 11.3069 9.93024 11.8708 10.0391C14.0029 10.401 16.0582 11.2014 18.0546 11.8701C25.1656 14.2837 32.0012 17.4376 37.5013 22.9615C42.086 27.5225 45.452 32.7479 46.3824 39.2386C46.4373 39.4971 46.4274 39.8139 46.7378 39.9659C47.9775 40.6372 49.2173 41.3086 50.5199 41.985C46.6668 36.2123 45.41 30.0765 46.0556 23.5854C46.2552 21.2511 46.5177 18.9218 47.6526 16.9167C48.1876 15.9433 48.0817 15.2996 47.6695 14.3771C46.3109 11.4729 46.22 8.35293 45.2447 5.28894C45.7458 5.39273 45.8007 5.65124 45.9205 5.85144C47.4068 8.70241 48.8323 11.485 50.3187 14.3359C50.5582 14.7363 50.668 15.2534 51.1651 15.4839C52.1593 15.9449 52.8251 16.8242 53.428 17.6985C55.3546 20.5849 57.344 23.4763 59.2685 26.426C61.6113 30.1081 63.6986 33.8967 65.0173 38.0682C65.1331 38.3951 65.1212 38.7753 65.5554 39.0008C65.749 36.8565 65.9405 34.7756 66.4446 32.7834C66.8777 31.0395 67.1851 29.2855 68.6105 28.0661C68.9349 27.7745 68.8171 27.511 68.6364 27.2424C66.7099 24.356 66.4383 20.9674 65.3392 17.83C65.1077 17.1761 64.8132 16.5172 64.7802 15.5617C65.7565 16.593 66.1627 17.7056 66.6988 18.7015C69.0276 22.8271 71.1658 27.001 74.7114 30.5256C79.0526 34.813 81.6519 40.3579 83.4218 46.2173C83.5356 46.6076 83.5177 47.1778 84.0108 47.5351C84.7394 44.4174 85.6506 41.5051 87.2456 38.9017C88.9724 36.1184 91.4958 36.0671 93.3615 38.885C97.1517 44.6527 100.751 50.4686 103.134 56.8854C105.866 64.2196 106.586 71.3921 102.401 78.1705C102.2 78.5355 102.192 78.7889 102.499 79.0677C104.155 80.5348 105.748 81.9968 107.402 83.5272C107.669 83.0405 107.363 82.7618 107.247 82.4349C105.744 78.1215 105.253 73.6989 105.646 69.2203C106.104 64.6834 107.373 60.4023 109.824 56.6607C111.68 53.7608 114.2 53.8362 116.122 56.8493C117.085 58.3242 117.98 59.9207 118.812 61.5122C122.392 67.9617 125.209 74.604 126.051 81.9133C126.149 82.8105 126.248 83.6443 126.283 84.5365C127.11 82.316 127.812 80.0221 128.761 77.9385C129.302 76.775 129.845 75.5482 130.755 74.6685C132.184 73.3223 134.008 73.4689 135.281 75.0957C135.888 75.8433 136.302 76.7024 136.653 77.5564C139.231 83.7983 141.234 90.2482 142.351 96.8174C143.151 101.455 143.259 106.038 142.484 110.613C142.023 113.244 140.939 115.634 140.166 118.176C140.093 118.488 139.831 118.785 140.136 119.127C141.289 120.553 142.44 122.043 143.593 123.47C143.658 123.412 143.72 123.417 143.848 123.364C143.799 122.915 143.748 122.53 143.699 122.081C143.392 119.833 143.273 117.6 143.469 115.393C143.966 107.619 147.203 100.892 151.123 94.5368C151.324 94.1717 151.648 93.8802 151.973 93.5886C153.142 92.4757 154.777 92.6071 155.936 93.8437C156.423 94.391 156.783 94.9916 157.077 95.6505C158.852 99.3505 160.562 103.109 161.889 107.027C164.199 113.755 165.182 120.568 163.139 127.391C161.802 131.794 159.662 135.688 155.861 138.304C155.023 138.872 155.139 139.199 155.622 139.873C163.584 151.312 170.84 163.139 177.453 175.359C177.571 175.622 177.622 176.008 178.125 176.048C178.068 175.853 178.072 175.726 178.015 175.531C174.711 164.339 172.419 153.038 171.394 141.522C170.831 135.378 171.891 129.746 174.89 124.588C175.492 123.493 175.989 123.723 176.594 124.534C177.018 125.077 177.38 125.614 177.676 126.209C178.572 127.806 179.402 129.461 180.235 131.052C186.765 143.901 191.833 157.14 194.668 171.216C196.907 182.195 197.441 193.291 198.226 204.407C198.749 211.818 199.714 219.201 201.631 226.406C202.704 230.367 203.589 234.313 204.915 238.231C206.99 244.433 207.796 250.85 208.224 257.3C208.401 259.665 208.392 261.951 207.878 264.26C207.419 262.825 207.023 261.396 206.629 259.903C202.732 245.488 196.853 231.993 187.457 220.058C179.818 210.36 170.392 203.377 158.579 200.141C155.329 199.244 152.006 198.66 148.669 198.519C148.716 199.031 149.024 199.246 149.27 199.456C158.42 209.212 167.18 219.317 175.293 229.943C179.834 235.898 184.245 241.969 187.691 248.662C187.868 249.058 188.235 249.405 188.15 250.097C186.803 248.845 185.64 247.735 184.416 246.557C182.398 244.553 179.929 242.893 178.236 240.597C175.027 236.401 171.882 232.146 168.608 228.008C160.603 217.963 152.141 208.39 143.292 199.103C142.925 198.756 142.618 198.477 142.05 198.495C136.675 199.016 131.471 200.122 126.959 203.253C125.025 204.622 122.788 205.586 121.152 207.487C120.639 203.762 119.746 200.069 120.176 196.419C120.774 191.449 123.478 187.664 127.044 184.521C127.628 183.996 127.953 183.704 127.157 182.942C120.239 176.414 113.188 170.067 105.877 164.016C105.385 163.596 104.896 163.112 104.273 162.871C103.776 162.641 103.586 162.689 103.381 163.181C102.145 166.385 99.4524 167.82 96.3391 168.586C91.8913 169.689 87.4344 169.077 83.0744 167.393C77.219 165.144 72.6203 161.026 68.2852 156.549C67.3069 155.581 66.4405 155.066 65.1139 155.15C61.83 155.331 58.9812 153.705 55.9926 152.512C58.8304 152.486 61.6642 152.586 64.498 152.687C64.9382 152.722 65.4982 152.958 65.7697 152.344C66.2418 151.366 67.1302 151.183 68.0814 151.006C74.1074 149.838 80.1703 149.5 86.343 149.678C86.7203 149.709 87.2153 150.002 87.5477 149.457C85.206 147.745 82.9271 146.037 80.5245 144.256C79.6682 147.427 77.4192 148.77 74.5635 149.367C73.9287 149.506 73.2958 149.583 72.663 149.659C69.8801 149.943 67.1112 149.784 64.3522 149.308C58.455 148.39 52.7743 146.599 47.7155 143.08C47.1595 142.718 46.5955 142.609 45.9647 142.622C42.4881 142.914 39.2559 141.447 35.7403 140.974C36.3262 140.386 36.8922 140.432 37.3973 140.409C39.5433 140.327 41.6974 139.992 43.7707 140.222C46.2841 140.488 47.6625 138.756 49.7007 138.094C49.3903 137.942 49.1388 137.922 48.8872 137.902C43.1018 137.437 37.527 136.29 32.4621 132.961C32.0908 132.74 31.7135 132.71 31.3362 132.68C28.3826 132.379 25.5827 131.201 22.7119 130.272C22.5882 130.198 22.3366 130.178 22.4704 129.935C22.9225 129.59 23.4865 129.699 23.9896 129.739C26.0668 129.842 28.0791 130.004 30.1563 130.108C30.4707 130.133 30.9678 130.363 31.1075 129.93C31.5956 128.445 32.9991 127.922 34.102 126.931C31.7204 126.485 29.4625 126.113 27.3463 125.245C23.7329 123.874 20.3161 122.266 17.8964 119.022C17.5331 118.548 17.032 118.444 16.5309 118.341C14.4068 117.725 12.623 116.311 10.6406 115.199C11.8454 114.978 12.9714 115.259 14.1642 115.419C15.6085 115.598 17.2157 116.617 18.4623 115.065C18.5921 114.949 18.8456 114.906 19.0972 114.926C22.1965 114.603 24.9524 113.173 28.3582 113.129C25.2738 110.976 22.1674 109.519 19.7218 107.099C15.9287 103.428 12.2633 99.7027 10.727 94.4338C10.6132 94.0435 10.2439 93.7598 10.0003 93.4861C7.80227 91.2132 6.1213 88.5371 4.18477 85.9676C6.28896 87.2166 8.32627 88.5873 10.0372 90.3129C11.3808 91.6913 12.9409 92.1978 14.6977 92.4661C20.534 93.3163 25.6876 95.8267 30.428 99.4474C32.5222 101.013 34.355 102.876 35.476 105.316C36.3614 107.229 36.4293 109.077 35.1157 110.75C34.9171 111.052 34.5947 111.28 35.1527 111.579C36.1449 112.103 37.0702 112.749 38.259 113.036C36.591 107.947 36.7386 103.258 39.3347 98.8927C39.5333 98.5911 39.5413 98.3376 39.3626 98.0056C38.9484 97.1465 38.9155 96.191 38.8805 95.2989C38.8635 93.8365 38.4692 92.3437 38.8944 90.8533C39.9016 92.9035 40.7201 94.9386 41.5367 97.0369C41.7722 97.5641 42.0099 98.0278 42.5679 98.3268C47.5308 100.885 51.6424 104.456 54.7079 109.212C54.8865 109.544 54.9355 109.993 55.5015 110.038C55.7989 108.601 55.6601 107.002 56.8908 105.957C57.1503 105.724 56.8458 105.382 56.7281 105.118C55.4304 102.283 56.0292 99.2816 55.4961 96.1896C56.1779 96.562 56.1599 97.1323 56.3366 97.5276C57.271 99.8895 58.0776 102.305 59.1397 104.613C59.493 105.404 59.9782 106.015 60.7168 106.582C62.809 108.212 64.8324 110.026 66.726 111.957C69.0458 114.366 71.106 117.009 72.9637 120.081C73.4957 117.201 73.2042 114.447 74.1054 111.851C74.1743 111.666 74.0566 111.402 73.9997 111.207C72.7808 107.87 72.9534 104.39 72.3045 100.971C73.3706 103.153 74.3069 105.451 75.2453 107.686C75.8871 109.326 76.2715 111.136 78.1381 111.921C78.3247 111.999 78.5074 112.205 78.6272 112.405C82.9933 117.901 87.039 123.562 89.0934 130.397C89.1503 130.593 89.1424 130.846 89.4588 130.808C89.7642 129.117 89.8201 127.343 90.3141 125.668C91.2254 122.755 93.641 122.124 95.7072 124.577C100.268 129.898 104.251 135.554 106.626 142.224C108.476 147.519 109.005 152.77 106.95 157.941C106.606 158.866 106.655 159.315 107.455 159.951C115.073 166.28 122.557 172.853 129.715 179.78C130.817 180.822 131.507 180.941 132.73 180.15C140.125 175.535 148.299 174.223 157.061 176.261C164.695 178.081 171.318 181.98 177.333 187.165C178.192 187.932 179.05 188.7 179.972 189.473C180.052 188.908 179.811 188.571 179.632 188.239C172.633 174.273 164.861 160.816 156.192 147.796C154.747 145.647 153.238 143.493 151.793 141.344C151.491 140.939 151.314 140.543 150.675 140.81C144.991 143.148 139.073 142.863 133.133 141.306C124.629 139.097 117.855 133.979 112.076 127.29C111.772 126.948 111.53 126.611 111.029 126.507C107.895 125.937 105.241 124.136 102.451 122.641C102.203 122.494 101.763 122.459 101.716 121.947C102.162 121.792 102.599 121.954 102.974 122.048C105.603 122.64 108.232 123.233 110.795 123.947C111.608 124.139 112.054 123.985 112.395 123.186C107.075 121.933 102.692 118.976 98.3172 115.766C96.9617 114.768 95.5433 113.764 94.1857 112.829C93.1995 112.115 92.0855 111.454 91.4906 110.326C91.3119 109.994 91.0624 109.91 90.748 109.885C88.2406 109.43 85.8119 108.472 83.3754 107.768C82.6268 107.517 81.7463 107.447 81.0077 106.879C81.4658 106.344 82.0278 106.516 82.5309 106.557C84.3526 106.767 86.2451 106.728 87.996 107.187C90.7489 107.853 92.9209 106.947 95.2326 105.608C94.2933 105.406 93.3541 105.203 92.5426 104.948C85.6102 102.866 79.4154 99.3823 74.09 94.3171C73.7836 94.0384 73.4712 93.9498 73.1547 93.9879C70.1223 94.1888 67.1947 93.0642 64.2431 92.7C64.0544 92.6848 63.738 92.7229 63.6831 92.4644C63.5673 92.1375 63.8856 92.036 64.0783 91.9244C64.3338 91.8179 64.6523 91.7165 64.9667 91.7417C67.4941 91.5637 70.0803 91.5175 72.6626 91.5979C73.0399 91.6283 73.537 91.8588 73.8005 91.4988C74.4653 90.4088 75.5582 89.7344 76.773 89.1967C76.5255 89.0498 76.4646 88.9814 76.4646 88.9814C70.4965 88.3112 64.743 86.8324 59.0763 84.5983C58.703 84.4413 58.3237 84.4743 57.8815 84.5023C56.1127 84.6143 54.34 84.8529 52.5732 84.9015C50.3014 84.973 48.0844 85.3031 45.6988 84.9843C45.9782 84.1174 46.676 83.9829 47.2479 83.8383C50.487 83.0822 53.728 82.2628 57.0749 82.0871C57.4542 82.0541 57.8924 82.1528 58.095 81.7244C59.1101 79.5191 61.2821 78.6138 63.1517 77.303C64.054 76.6768 65.0152 76.1823 66.2359 75.4546C65.668 75.4725 65.5423 75.4624 65.3516 75.5106C57.7515 76.6149 50.0796 75.9984 42.4295 74.6848C40.3603 74.3279 38.4697 74.303 36.5652 74.7217C36.0582 74.808 35.5491 74.9576 35.042 75.0439C32.4418 75.5337 29.8416 76.0235 27.1765 76.5716C27.2733 75.4995 27.975 75.2383 28.6138 74.972C31.8119 73.5139 35.1298 72.2559 38.6733 71.842C39.1155 71.814 39.4948 71.7809 39.7014 71.2258C40.0438 70.364 40.7555 69.786 41.4043 69.2029C42.8945 67.9251 44.3219 66.6423 45.8101 65.4279C45.3859 64.8856 45.0674 64.9871 44.753 64.9618C41.7934 64.851 38.9107 64.3017 36.1008 63.4406C31.0411 61.9541 26.2567 59.7274 21.3367 57.8074C20.9005 57.6453 20.4034 57.4148 20.2247 57.0828C19.3843 55.7448 18.1814 55.9023 16.9806 55.9963C16.3498 56.0091 15.6541 56.0803 15.0252 56.0297C12.5038 56.0177 10.0573 55.6305 7.41612 55.4182C7.88225 54.6299 8.4542 54.4853 9.02614 54.3407C12.0785 53.5061 15.1699 53.4369 18.3201 53.4995C18.8252 53.4766 19.3243 53.6437 19.7784 53.2355C21.2707 51.8944 23.0614 51.0855 24.8521 50.2765C31.6985 47.0789 38.8314 44.7935 46.6411 45.04C46.7668 45.0501 46.8926 45.0602 46.8397 44.7384C45.7258 44.0771 44.5509 43.3475 43.1694 43.1729C38.5179 42.7356 34.0161 41.548 29.5932 39.8585C24.7949 38.0754 20.4607 35.5672 16.7954 31.8424C12.3973 27.3599 10.4288 21.8021 9.35661 15.8083C9.14496 14.5208 8.68177 13.2131 8.9123 11.8976C9.06002 11.2107 8.82244 10.747 8.33333 10.263C6.68131 8.66917 5.22395 6.90042 4.0241 4.96181C3.00493 3.2918 1.85797 1.67506 0.775915 1.71093e-06C4.33747 3.01775 7.51976 6.06854 10.698 9.24606ZM31.5212 106.777C30.9302 105.523 30.0149 104.56 29.0347 103.655C25.3573 100.31 21.141 98.0658 16.4506 96.8631C19.4652 101.234 22.8061 105.251 27.7182 107.424C28.7124 107.885 29.7126 108.156 30.7836 108.179C31.7329 108.064 31.9984 107.641 31.5212 106.777ZM38.5078 119.154C37.28 118.102 35.7847 117.538 34.2186 117.221C30.3945 116.533 26.6604 116.995 22.7176 118.075C25.7372 120.287 28.7906 121.422 32.0467 122.128C33.9881 122.539 35.9355 122.759 37.9029 122.345C38.6006 122.21 39.4871 122.091 39.6388 121.278C39.8573 120.342 39.1835 119.716 38.5078 119.154ZM53.107 116.008C52.6937 113.116 51.1304 110.703 49.3097 108.461C47.5499 106.286 45.3988 104.526 43.1808 102.886C42.503 102.387 42.1237 102.42 41.9072 103.292C41.6177 104.476 41.3911 105.664 41.2963 106.673C41.1837 112.254 44.9329 117.32 49.9967 118.68C52.3744 119.252 53.4105 118.382 53.107 116.008ZM42.813 124.582C45.4622 124.541 47.9187 124.611 50.3672 124.935C50.3712 124.808 50.436 124.75 50.44 124.623C48.4576 123.511 46.5361 122.467 44.5537 121.355C44.1824 121.135 43.9897 121.246 43.9758 121.69C43.883 122.635 43.4758 123.555 42.813 124.582ZM37.2234 129.913C36.9698 129.956 36.7163 130 36.5766 130.433C38.9343 131.639 41.4966 132.353 44.0649 132.877C47.6354 133.609 51.1569 133.892 54.6495 133.092C55.475 132.905 56.7387 132.816 56.7647 131.992C56.8555 131.11 55.6058 130.755 54.7962 130.436C48.9389 128.25 43.0177 128.092 37.2234 129.913ZM56.4909 120.663C55.905 121.251 55.4488 121.722 54.9278 122.252C55.1124 122.394 55.2971 122.536 55.4818 122.678C56.1615 123.114 56.8433 123.486 57.8335 124.074C57.3075 122.761 56.8952 121.839 56.4909 120.663ZM70.2558 123.992C68.1555 118.614 64.3114 114.558 59.7736 110.509C59.4444 116.962 60.273 122.682 65.6244 126.923C66.6086 127.701 67.7245 128.299 68.9133 128.585C70.2279 128.881 70.8079 128.483 70.8497 127.153C70.8857 126.012 70.6032 124.973 70.2558 123.992ZM59.866 135.608C62.3305 135.425 64.7951 135.242 67.3264 134.937C65.348 133.698 63.4345 132.401 61.2085 131.015C61.5849 133.078 60.977 134.363 59.866 135.608ZM74.1798 133.519C73.5519 131.435 73.5519 131.435 71.6804 132.809C71.9888 133.025 72.2953 133.304 72.6666 133.524C73.1597 133.881 73.6548 134.175 74.5193 134.753C74.2877 134.099 74.2327 133.84 74.1798 133.519ZM74.6891 141.373C73.3316 140.438 71.7694 139.995 70.1992 139.805C64.5476 139.097 59.0387 139.861 53.5767 141.137C53.449 141.19 53.3821 141.312 53.2523 141.429C55.9185 142.85 58.6654 143.706 61.4813 144.377C65.1736 145.245 68.8799 145.67 72.614 145.208C73.184 145.127 73.8188 144.987 74.3927 144.779C75.1573 144.523 76.1106 144.282 76.1405 143.332C76.2353 142.323 75.4318 141.814 74.6891 141.373ZM85.1627 131.098C83.6104 126.336 80.9062 122.117 78.0055 118.136C77.9446 118.067 77.8208 117.994 77.5103 117.842C77.2779 123.223 76.6073 128.505 78.6487 133.751C79.7577 136.571 81.4466 138.994 84.3723 140.182C85.8047 140.742 85.9325 140.688 86.1042 139.241C86.4435 136.473 86.0242 133.772 85.1627 131.098ZM89.7526 141.504C89.2176 142.477 88.8123 143.334 88.4091 144.127C88.2085 144.492 88.3911 144.697 88.6366 144.908C89.3144 145.407 89.9922 145.906 90.9155 146.615C90.5312 144.806 90.1389 143.25 89.7526 141.504ZM88.0369 153.943C82.6977 153.324 77.4583 153.538 71.8905 154.17C77.151 159.294 82.4354 163.657 89.5963 164.487C92.3593 164.836 95.0754 164.673 97.5758 163.349C100.015 161.957 100.203 160.003 98.1246 157.93C96.9028 156.689 95.5413 155.881 93.9831 155.311C91.9887 154.579 90.0473 154.169 88.0369 153.943ZM103.862 147.91C103.3 143.736 101.529 139.909 99.3728 136.305C97.8765 133.771 96.1855 131.412 94.1212 128.896C93.5613 132.662 93.5145 136.152 93.847 139.609C94.1385 142.364 94.8723 145.091 95.8615 147.712C97.1373 151.245 99.6477 153.606 102.545 155.681C103.284 156.249 103.304 155.615 103.444 155.182C104.086 152.819 104.161 150.411 103.862 147.91ZM162.353 182.403C153.214 178.302 144.257 178.472 135.78 183.38C134.304 184.215 133.124 185.644 131.648 186.479C128.371 188.439 126.137 191.308 124.889 194.892C124.337 196.436 124.096 198.068 123.979 199.774C124.612 199.698 124.941 199.28 125.328 198.993C129.505 196.47 133.969 194.86 138.955 194.689C141.857 194.604 144.77 194.203 147.671 194.182C153.286 194.062 158.731 195.325 164.028 197.275C175.371 201.427 184.341 208.881 191.795 218.437C192.097 218.843 192.272 219.301 192.893 219.605C192.175 216.371 191.137 213.302 189.78 210.335C183.808 197.785 175.036 188.06 162.353 182.403ZM185.204 183.478C187.814 190.675 190.81 197.649 193.676 204.74C193.794 205.004 193.913 205.204 194.21 205.799C193.199 189.837 192.242 174.197 187.426 158.945C184.563 149.758 180.806 140.944 176.473 132.401C176.353 132.201 176.235 131.938 175.874 131.4C175.585 134.553 175.56 137.347 175.726 140.091C176.645 154.966 180.099 169.41 185.204 183.478ZM61.9371 43.7919C61.6316 41.4805 61.0077 39.2705 60.1302 37.1037C57.8512 31.394 54.2867 26.4703 50.7869 21.4883C49.5523 26.6615 49.8978 31.7076 52.3265 36.6671C53.9875 39.9768 56.2973 42.7034 58.9945 45.1435C59.0573 45.1485 59.0554 45.2119 59.1183 45.2169C60.0436 45.863 61.0907 46.6459 62.0439 46.4049C62.4901 46.2502 62.0978 44.6941 61.9371 43.7919ZM64.7353 57.0391C65.3641 57.0897 65.9281 57.1985 66.4371 57.0489C65.4709 55.7007 65.408 55.6957 64.7353 57.0391ZM79.7536 48.5905C78.2922 42.9465 75.6768 37.9085 71.9116 33.3498C71.7289 33.1445 71.5462 32.9393 71.3635 32.734C71.3026 32.6656 71.116 32.5871 70.9294 32.5085C70.2427 34.2955 69.9961 36.1179 69.8754 37.9504C69.0421 46.3956 71.3322 53.7579 78.4732 59.2231C78.6579 59.365 78.9054 59.5119 79.151 59.7222C79.8877 60.3532 80.2061 60.2517 80.3638 59.248C80.9786 55.7401 80.6501 52.1563 79.7536 48.5905ZM84.5411 60.7271C83.5201 63.1225 83.7516 63.7764 86.3529 65.2559C85.709 63.6796 85.1241 62.235 84.5411 60.7271ZM81.2014 66.6841C80.9489 68.6965 80.0226 70.0831 78.6641 71.1809C81.3801 71.0181 83.9684 70.9084 86.7413 70.9407C84.8927 69.5852 83.1089 68.1714 81.2014 66.6841ZM100.72 63.4884C100.075 59.9428 98.7281 56.6583 97.1279 53.4171C95.3511 49.7805 93.191 46.3036 91.0937 42.8318C90.913 42.5632 90.8032 42.0462 90.4219 42.1426C90.2313 42.1908 90.0935 42.5609 89.9578 42.8676C88.6023 45.8713 87.8717 49.0523 87.7011 52.4689C87.4328 58.9903 90.0951 64.5403 93.9681 69.6793C95.2368 71.4329 96.765 72.9532 98.0986 74.6485C98.8862 75.6647 99.2755 75.3148 99.6827 74.3947C101.178 70.9575 101.419 67.2925 100.72 63.4884ZM100.801 82.9332C100.434 82.5861 100.237 82.8244 100.103 83.0677C99.2418 84.396 97.8933 85.177 96.6037 86.0897C99.3766 86.122 102.136 86.5978 105.03 86.7669C103.557 85.5051 102.209 84.2534 100.801 82.9332ZM121.845 81.3212C120.98 74.7722 118.269 68.7737 115.109 62.9932C114.573 61.9973 114.035 61.0647 113.436 60.0637C113.377 59.9319 113.254 59.8585 113.01 59.5848C110.726 64.0385 109.51 68.6415 109.855 73.6876C110.364 81.542 113.747 88.2298 118.917 94.2353C119.587 94.9879 119.905 94.8865 120.246 94.088C122.262 90.121 122.399 85.7489 121.845 81.3212ZM116.537 103.763C118.604 104.183 120.61 104.535 122.858 105.224C121.894 103.813 120.851 102.903 119.937 101.877C119.633 101.535 119.375 101.704 119.179 101.943C118.402 102.579 117.441 103.074 116.537 103.763ZM125.444 93.1718C124.84 94.3302 124.423 95.5672 123.821 96.6622C123.485 97.3339 122.398 97.8183 122.749 98.6724C122.979 99.3896 123.847 99.8405 124.332 100.451C125.183 101.472 125.968 102.552 126.817 103.636C127.009 103.525 127.139 103.408 127.332 103.297C126.174 100.027 125.588 96.6136 125.444 93.1718ZM136.304 88.645C135.394 85.5227 134.356 82.4537 133.127 79.4328C127.22 86.8351 129.646 105.897 137.488 113.133C138.381 110.791 138.773 108.345 138.914 105.879C139.162 99.9914 137.954 94.3042 136.304 88.645ZM135.759 119.982C135.578 119.713 135.333 119.503 135.012 119.668C133.856 120.337 132.64 120.938 131.228 121.714C133.859 122.243 136.113 122.742 138.489 123.378C137.58 122.225 136.67 121.072 135.759 119.982ZM152.034 133.677C152.942 134.893 153.317 134.987 154.42 133.996C156.304 132.242 157.631 130.125 158.589 127.725C160.506 122.924 160.537 117.908 159.376 112.733C158.272 107.753 156.211 103.14 154.028 98.3911C147.528 108.604 145.741 119.323 150.666 131.09C150.952 132.002 151.429 132.866 152.034 133.677ZM135.145 137.465C139.215 138.364 143.307 138.566 147.249 137.485C148.774 137.1 148.712 137.094 147.871 135.756C144.336 129.882 138.668 127.712 132.596 126.334C127.589 125.17 122.601 125.404 117.719 126.282C117.528 126.33 117.403 126.32 117.21 126.432C117.147 126.427 117.08 126.548 116.95 126.665C122.142 131.974 127.944 135.934 135.145 137.465ZM114.531 119.419C120.485 120.533 126.065 119.521 131.256 116.825C132.603 116.107 132.54 116.102 131.306 115.241C131.121 115.099 130.876 114.889 130.693 114.684C127.845 111.024 123.921 109.502 119.724 108.657C112.204 107.226 104.928 108.039 97.6893 109.681C97.5615 109.734 97.4966 109.792 97.2391 109.962C102.728 113.834 107.824 118.182 114.531 119.419ZM102.158 101.909C105.754 101.817 109.233 101.461 112.669 100.467C113.752 100.109 114.774 99.683 115.674 99.1201C116.382 98.6688 116.582 98.3038 115.852 97.4828C112.799 94.3154 109.404 92.0098 105.077 91.2809C96.3602 89.818 87.8288 90.4664 79.4362 92.714C79.2456 92.7622 79.053 92.8738 78.6697 93.0336C85.8087 98.5622 93.3869 102.157 102.158 101.909ZM64.5333 81.4796C64.4055 81.5328 64.3386 81.6545 64.1419 81.8928C69.6279 83.8582 75.083 84.8048 80.6328 84.7427C84.5417 84.7392 88.4016 84.2871 92.1597 83.0645C93.4982 82.6004 94.8368 82.1363 95.9378 81.2084C96.9718 80.4021 96.8051 79.69 95.6303 78.9603C91.7403 76.3609 87.6219 75.0135 83.0762 75.2199C77.0781 75.5001 71.6611 77.3516 66.5914 80.1839C65.8857 80.5719 65.241 81.0282 64.5333 81.4796ZM49.5963 71.3223C57.2643 72.0656 64.8344 71.9117 72.0971 69.5097C73.1801 69.1521 74.2671 68.6677 75.2303 68.1099C76.7735 67.154 77.045 66.5406 76.7216 64.7995C76.6098 64.3458 76.2364 64.1888 75.928 63.9734C73.706 62.4608 71.2086 61.6884 68.6323 61.4178C61.2807 60.6365 50.8019 65.0668 46.2025 70.986C47.3973 71.082 48.4644 71.2313 49.5963 71.3223ZM34.6602 51.1283C31.5998 52.2163 28.5394 53.3044 25.3982 54.9577C30.6287 57.0296 35.4759 59.2614 40.7403 60.2562C45.8789 61.2409 50.8119 60.748 55.4803 58.6457C57.3339 57.8418 59.0087 56.706 60.4401 55.2964C61.0909 54.65 60.9751 54.323 60.1696 53.8772C51.8586 49.5248 43.46 47.9605 34.6602 51.1283ZM13.5818 15.7667C14.8028 23.043 18.0191 29.0186 24.5772 32.976C29.4653 35.9098 34.6389 37.7866 40.086 38.9866C40.2117 38.9967 40.3355 39.0702 40.4613 39.0803C41.5303 39.1662 42.0573 38.4463 41.7139 37.3388C39.8712 31.7912 36.4812 27.3262 31.9295 23.7206C26.639 19.5476 20.5342 17.2148 14.2936 15.1887C13.6707 14.948 13.478 15.0596 13.5818 15.7667Z" fill="#FEF5A0"/>
</svg>
