<svg width="74" height="153" viewBox="0 0 74 153" fill="none" xmlns="http://www.w3.org/2000/svg">
<path d="M45.2513 19.4054L47.6406 17.3814C50.1665 15.2225 63.0004 4.83278 68.2569 8.54339C70.0318 9.82524 70.6462 11.8492 69.7587 13.8732C67.3012 19.7427 56.9248 21.5643 48.3233 20.0125L45.2513 19.4054ZM66.0041 10.7698C63.9561 10.2975 58.6314 12.5913 52.2144 17.5163C60.8842 18.191 66.0724 14.8852 67.0281 12.7263C67.3694 11.9841 67.2329 11.4444 66.5502 10.9722C66.4137 10.8372 66.2089 10.7698 66.0041 10.7698Z" fill="#A1262A"/>
<path d="M47.5041 19.9451L44.5004 19.0681C36.1037 16.7068 27.6388 10.4999 28.0483 4.15818C28.1849 1.99928 29.6185 0.380108 31.803 0.04278C38.2199 -0.901738 44.9782 14.0756 46.2753 17.1116L47.5041 19.9451ZM32.7587 3.07873C32.5539 3.01127 32.4174 3.01127 32.2126 3.07873C31.3934 3.21366 31.052 3.61846 30.9838 4.42804C30.8472 6.85681 33.9875 12.0517 42.0428 15.2225C38.5613 7.93625 34.8067 3.55099 32.7587 3.07873Z" fill="#A1262A"/>
<path d="M47.7089 18.326C47.5724 19.0007 47.0945 19.4729 46.6167 19.4055C46.2071 19.338 46.0023 18.6633 46.1388 17.9887C46.2753 17.314 46.7532 16.8418 47.2311 16.9092C47.6406 16.9767 47.8454 17.6514 47.7089 18.326Z" fill="#A1262A"/>
<path d="M38.6978 151.705C35.5575 150.963 32.8952 149.142 31.052 146.443C29.1406 143.61 28.4579 140.101 29.2088 136.728L29.4136 135.649L30.5059 135.514C38.766 134.637 46.8896 132.68 54.6719 129.847L57.266 128.902L54.1258 142.193C52.5557 148.804 46.0705 153.055 39.3804 151.84L39.0391 151.773C38.9026 151.773 38.766 151.705 38.6978 151.705ZM31.9395 138.347C31.7347 140.574 32.2808 142.867 33.5096 144.757C34.9431 146.915 37.0594 148.332 39.5852 148.872L39.8583 148.939C44.9782 149.884 49.9616 146.646 51.1221 141.518L52.9653 133.625C46.207 135.919 39.1756 137.538 31.9395 138.347Z" fill="#A1262A"/>
<path d="M1.35645 42.951L2.2439 40.9945C7.90995 28.3109 21.7679 15.6949 43.886 18.1911C50.8491 19.0007 56.7199 21.1596 61.4302 24.6678L63.1369 25.9496L61.362 27.0965C35.2162 43.7606 8.66087 43.2883 3.54095 43.0859L1.35645 42.951ZM48.255 21.9017C46.7531 21.5644 45.183 21.2945 43.5446 21.0921C24.2254 18.9332 11.6646 29.188 5.93025 40.1174C13.8491 40.1849 35.7623 39.1054 57.7439 25.7472C55.0133 24.0606 51.8048 22.7788 48.255 21.9017Z" fill="#A1262A"/>
<path d="M28.7993 138.752L29.2089 136.661C29.2089 136.526 29.2772 136.458 29.2772 136.323C30.506 131.398 32.2126 124.315 34.124 116.354L34.3288 115.409L35.2846 115.207C43.8178 113.587 52.0779 110.956 59.7919 107.313L62.5908 105.964L56.3787 132.343L55.6277 132.613C47.6406 135.581 39.244 137.538 30.779 138.415L28.7993 138.752ZM36.8547 117.973C35.2163 124.719 33.7144 130.724 32.6222 135.311C39.8584 134.367 47.0263 132.613 53.9211 130.184L58.3584 111.294C51.4635 114.262 44.2956 116.489 36.8547 117.973Z" fill="#A1262A"/>
<path d="M38.6295 97.8006L39.1756 95.3718C41.1553 87.0736 42.862 79.7873 44.2273 73.7828L44.4321 72.9732L45.183 72.7034C54.5354 69.3976 63.1369 64.8099 70.9874 59.0079L73.9911 56.7815L73.3768 60.4246C73.172 61.7065 72.9672 62.7185 72.6941 63.7305L67.4376 85.9941L66.8915 86.3314C58.9044 91.054 50.2347 94.6972 41.0871 97.1934L38.6295 97.8006ZM47.0262 75.2671C45.7974 80.5294 44.3638 86.7362 42.7255 93.6852C50.5077 91.3913 57.9487 88.2205 64.8435 84.1725L69.6904 63.663C62.659 68.3856 55.0815 72.2986 47.0262 75.2671Z" fill="#A1262A"/>
<path d="M10.231 61.9762C7.50036 61.369 5.0428 59.8848 3.19963 57.7259C0.332467 54.4875 -0.691518 49.9673 0.468998 45.7845C0.946858 44.1653 1.49298 42.5461 2.24391 40.9944L2.6535 40.0499L3.67749 40.1174C8.59261 40.3872 34.3288 40.792 59.6553 24.6003L60.5428 24.0605L61.362 24.6677C65.5945 27.8386 68.8029 32.089 70.9192 37.2838L71.3288 38.2958L70.5096 38.9704C64.0244 44.3002 56.8565 48.8204 49.2107 52.4636L47.6406 53.2057L47.0945 51.5865C45.3196 46.1893 40.1314 44.5701 35.8989 44.84C31.3934 45.1098 26.1369 47.6735 25.2494 52.666V52.7334C24.2937 57.7934 20.1295 61.6389 15.0096 62.2461H14.8048C13.2347 62.4485 11.6646 62.3135 10.231 61.9762ZM4.56494 43.0858C4.08708 44.2328 3.67749 45.3797 3.33616 46.5941C2.4487 49.8324 3.19963 53.2732 5.45239 55.8368C7.70516 58.468 10.9819 59.6824 14.4635 59.2776H14.6683C18.5594 58.8053 21.6314 55.9718 22.3823 52.1937V52.1262C23.4063 46.5266 28.9358 42.3437 35.8306 41.8715C41.9745 41.4667 47.1627 44.3002 49.4838 49.0903C55.969 45.8519 62.1129 41.9389 67.779 37.4187C66.0041 33.5057 63.5465 30.1999 60.4063 27.6362C36.0354 42.816 11.4598 43.2882 4.56494 43.0858Z" fill="#A1262A"/>
<path d="M33.6461 118.58L34.1922 116.353C35.7624 109.742 37.5373 102.523 39.2439 95.3717L39.4487 94.4946L40.3362 94.2922C49.2107 91.931 57.6756 88.3553 65.3897 83.7676L68.4616 81.946L61.9081 109.674L61.2255 110.012C53.2384 113.79 44.7734 116.488 35.9672 118.108L33.6461 118.58ZM41.9063 96.9234C40.4727 102.995 38.9708 109.067 37.6055 114.802C45.1148 113.25 52.3509 110.821 59.1775 107.65L63.8195 88.0179C56.993 91.796 49.6203 94.832 41.9063 96.9234Z" fill="#A1262A"/>
<path d="M43.6812 76.414L44.2955 73.7829C45.6609 67.8459 46.6848 63.0558 47.3675 59.6826C47.9819 56.5791 47.9819 53.8805 47.231 51.5867L46.8214 50.3723L47.9819 49.8326C55.4229 46.3244 62.3859 41.9391 68.6664 36.7442L70.2365 35.4624L70.9874 37.3514C72.0114 39.7802 72.7623 42.4114 73.2402 45.11C74.1276 50.035 74.1959 55.1624 73.3085 60.4247L73.2402 61.0319L72.7623 61.3692C64.707 67.3736 55.8324 72.0962 46.207 75.537L43.6812 76.414ZM50.3712 51.924C50.9173 54.4202 50.9173 57.1863 50.3029 60.2897C49.6885 63.1908 48.8693 67.0363 47.7771 71.7589C55.9007 68.6555 63.5465 64.4726 70.4413 59.3452C71.124 54.6226 71.124 50.035 70.3048 45.5822C69.9634 43.7607 69.4856 41.9391 68.9395 40.2525C63.2051 44.8401 56.993 48.6857 50.3712 51.924Z" fill="#A1262A"/>
</svg>
