<svg width="456" height="458" viewBox="0 0 456 458" fill="none" xmlns="http://www.w3.org/2000/svg">
<g filter="url(#filter0_d_78_2)">
<path d="M140.637 302.927C169.749 321.515 195.137 292.772 204.192 276.077C227.116 301.063 237.442 300.07 268.277 298.63C292.945 297.477 297.851 269.143 297.22 255.119C325.28 257.851 343.9 248.353 347.625 222.938C350.604 202.607 330.124 183.636 319.512 176.692C329.406 147.286 325.584 151.711 317.192 139.227C310.478 129.241 287.524 130.546 276.886 132.447C241.302 89.505 214.48 95.4797 197.018 107.2C179.556 118.921 180.923 144.607 172.04 144.751C163.157 144.894 115.554 135.872 96.9375 178.391C82.0441 212.405 110.638 230.452 126.796 235.223C119.28 250.046 111.525 284.339 140.637 302.927Z" fill="white"/>
<path d="M281.106 143.769C271.298 127.128 256.936 112.664 238.51 106.683C222.689 101.555 203.933 103.572 192.254 116.54C184.327 125.371 180.54 137.432 176.714 148.527C175.755 151.282 171.704 149.438 172.626 146.688C176.311 135.998 179.984 124.572 187.066 115.649C192.664 108.572 200.364 103.534 208.993 101.179C227.246 96.2338 246.811 102.543 261.544 114.091C270.876 121.395 278.564 130.798 284.611 141.058C286.082 143.521 282.582 146.27 281.106 143.769Z" fill="white"/>
<path d="M174.85 148.479C160.559 146.622 145.003 144.024 130.863 148.166C121.888 150.795 113.79 155.998 107.72 163.247C96.4754 176.668 92.5466 196.393 100.267 212.702C105.192 223.097 114.323 230.308 124.615 234.547C127.285 235.624 125.51 239.797 122.841 238.72C112.904 234.593 103.827 227.841 98.2133 218.344C93.2606 209.932 91.1838 200.205 91.9145 190.491C93.4383 170.317 106.936 152.278 125.389 145.212C141.309 139.149 159.041 141.875 175.485 143.978C178.334 144.335 177.661 148.841 174.85 148.479Z" fill="white"/>
<path d="M129.046 236.692C119.278 253.896 117.172 277.75 131.008 293.519C137.332 300.718 146.166 305.132 155.602 305.708C164.766 306.239 173.882 303.205 181.814 298.837C186.332 296.354 190.553 293.286 194.465 289.867C198.827 286.083 203.298 281.626 203.657 275.45C203.836 272.517 208.207 273.235 208.061 276.125C207.731 281.909 204.348 286.585 200.42 290.511C196.656 294.223 192.464 297.521 188.029 300.382C179.543 305.825 169.785 309.829 159.637 310.27C149.336 310.691 139.369 307.267 131.522 300.328C123.166 292.946 118.203 282.556 117.013 271.364C115.689 258.751 118.796 245.763 124.962 234.892C126.401 232.351 130.485 234.152 129.046 236.692Z" fill="white"/>
<path d="M204.289 270.289C212.153 283.048 222.964 293.513 237.7 296.87C253.804 300.567 274.462 298.593 284.854 284.071C290.73 275.836 292.976 265.474 295.061 255.674C295.67 252.845 300.069 253.482 299.465 256.349C297.45 265.791 295.267 275.408 290.353 283.761C285.154 292.575 276.938 298.374 267.239 300.974C251.477 305.193 232.978 303.026 219.292 293.566C211.642 288.272 205.64 280.918 200.747 273.004C199.239 270.545 202.739 267.796 204.289 270.289Z" fill="white"/>
<path d="M302.124 255.139C302.198 255.441 302.315 255.776 302.389 256.078C301.801 255.605 301.255 255.166 300.668 254.693C304.778 255.131 308.612 255.797 312.747 255.185C316.402 254.669 319.931 253.741 323.376 252.435C330.165 249.912 337.054 246.019 341.281 239.845C346.122 232.782 346.311 223.288 344.754 215.051C343.414 207.992 340.05 201.757 335.146 196.6C329.59 190.745 322.831 186.238 316.647 181.157C315.719 180.376 315.507 178.926 316.266 177.981C320.131 172.898 324.23 167.244 324.955 160.635C325.66 154.185 322.543 147.804 318.068 143.372C308.689 134.094 293.274 131.091 281.986 138.151C281.83 136.85 281.674 135.549 281.518 134.248C282.825 135.023 283.29 135.743 283.656 137.213C284.337 140.043 279.926 140.572 279.245 137.742C279.422 137.954 279.599 138.166 279.781 138.416C278.512 137.636 277.727 135.518 279.313 134.513C289.786 127.938 302.431 128.401 313.154 134.335C323.102 139.818 331.339 150.631 329.15 162.733C327.921 169.557 323.849 175.441 319.792 180.819C319.663 179.747 319.535 178.676 319.411 177.643C325.548 182.652 332.158 187.177 337.695 192.879C343.271 198.576 347.115 205.335 348.892 213.196C350.854 221.966 350.711 232.154 346.326 240.172C342.373 247.361 335.411 252.233 328.098 255.44C323.847 257.308 319.308 258.668 314.742 259.487C309.691 260.365 305.062 259.717 299.995 259.199C299.304 259.126 298.473 258.527 298.274 257.814C298.2 257.512 298.084 257.177 298.01 256.875C297.254 254.054 301.331 252.323 302.124 255.139Z" fill="white"/>
<path d="M281.182 140.926C271.374 124.285 257.012 109.821 238.586 103.84C222.765 98.7121 204.009 100.729 192.33 113.698C184.403 122.529 180.616 134.589 176.79 145.684C175.831 148.439 171.78 146.596 172.702 143.846C176.387 133.156 180.06 121.73 187.142 112.806C192.74 105.73 200.44 100.691 209.069 98.3365C227.354 93.3482 246.882 99.6622 261.648 111.167C270.99 118.547 278.678 127.951 284.724 138.211C286.2 140.712 282.662 143.466 281.182 140.926Z" fill="white"/>
<path d="M174.926 145.636C160.635 143.779 145.08 141.181 130.94 145.323C121.964 147.952 113.867 153.155 107.797 160.404C96.552 173.825 92.6233 193.55 100.343 209.859C105.269 220.254 114.4 227.466 124.692 231.704C127.362 232.782 125.587 236.954 122.917 235.877C112.98 231.751 103.904 224.998 98.29 215.501C93.3373 207.09 91.2604 197.362 91.9912 187.648C93.515 167.474 107.012 149.435 125.466 142.369C141.386 136.306 159.118 139.032 175.562 141.135C178.416 141.53 177.78 146.032 174.926 145.636Z" fill="white"/>
<ellipse rx="13.2377" ry="13.6012" transform="matrix(-0.998752 0.0499441 -0.0513097 0.998683 283.919 335.244)" fill="white"/>
<ellipse rx="9.56057" ry="7.87439" transform="matrix(-0.998752 0.0499441 -0.0513097 0.998683 318 342.097)" fill="white"/>
<ellipse rx="5.148" ry="4.29512" transform="matrix(-0.998752 0.0499441 -0.0513097 0.998683 352.045 335.403)" fill="white"/>
</g>
<defs>
<filter id="filter0_d_78_2" x="87.772" y="96.613" width="273.419" height="261.363" filterUnits="userSpaceOnUse" color-interpolation-filters="sRGB">
<feFlood flood-opacity="0" result="BackgroundImageFix"/>
<feColorMatrix in="SourceAlpha" type="matrix" values="0 0 0 0 0 0 0 0 0 0 0 0 0 0 0 0 0 0 127 0" result="hardAlpha"/>
<feOffset dy="4"/>
<feGaussianBlur stdDeviation="2"/>
<feComposite in2="hardAlpha" operator="out"/>
<feColorMatrix type="matrix" values="0 0 0 0 0 0 0 0 0 0 0 0 0 0 0 0 0 0 0.25 0"/>
<feBlend mode="normal" in2="BackgroundImageFix" result="effect1_dropShadow_78_2"/>
<feBlend mode="normal" in="SourceGraphic" in2="effect1_dropShadow_78_2" result="shape"/>
</filter>
</defs>
</svg>
