<svg width="1440" height="1089" viewBox="0 0 1440 1089" fill="none" xmlns="http://www.w3.org/2000/svg">
<rect x="0.000976562" width="1445" height="805" fill="#F7F6F4"/>
<ellipse cx="74.501" cy="346" rx="336.5" ry="319" fill="url(#paint0_radial_44_268)"/>
<ellipse cx="1319.5" cy="685" rx="336.5" ry="319" fill="url(#paint1_radial_44_268)"/>
<g opacity="0.4">
<path d="M1130.37 673.347C958.577 648.825 948.773 628.048 783.589 610.894C618.406 593.741 446.615 648.1 365.196 660.784C283.99 673.467 192.127 651.12 123.922 621.404C58.0618 592.533 -34.8671 586.735 -120.549 611.981V1088.04H1478V624.544C1395.94 618.988 1275.52 694.124 1130.37 673.347Z" fill="#EBE6E3"/>
<path d="M1229.26 824.585C1087.74 810.573 985.433 734.108 838.579 770.105C691.726 806.103 535.708 811.177 432.122 785.567C328.536 759.958 220.048 685.185 113.904 710.673C22.8938 732.537 -40.835 791.003 -120.336 775.904V1088.04H1478.21V766.361C1426.84 777.232 1327.74 834.249 1229.26 824.585Z" fill="url(#paint2_linear_44_268)"/>
<path d="M588.679 1029.59C726.367 998.557 605.517 974.441 392.377 971.82C179.238 969.198 316.713 941.623 208.225 931.872C99.7365 922.12 -10.4567 930.613 -4.91505 911.74C0.413437 892.867 -161.999 884.898 -161.999 884.898C-161.999 884.898 -39.2305 892.448 -51.8058 909.119C-64.381 925.79 -35.6072 934.703 38.5655 935.961C112.525 937.219 228.047 935.646 199.273 955.148C170.286 974.651 183.714 986.184 284.529 987.967C385.344 989.749 553.511 996.879 472.092 1023.51C390.459 1050.04 588.679 1029.59 588.679 1029.59Z" fill="#EBE6E3"/>
<path d="M890.698 1070.38C1028.39 1039.34 907.536 1015.23 694.396 1012.61C481.257 1009.99 618.732 982.41 510.244 972.658C401.755 962.907 291.562 971.4 297.104 952.527C302.432 933.654 140.02 925.685 140.02 925.685C140.02 925.685 262.788 933.235 250.213 949.906C237.638 966.577 266.412 975.489 340.584 976.748C414.544 978.006 530.066 976.433 501.292 995.935C472.305 1015.44 485.733 1026.97 586.548 1028.75C687.363 1030.54 855.53 1037.67 774.111 1064.3C692.691 1090.93 890.698 1070.38 890.698 1070.38Z" fill="white"/>
<path d="M1042.67 949.525C1006.01 976.222 1057.16 986.973 1157.55 984.315C1257.72 981.537 1253.04 1022 1233.64 1037.22C1214.46 1052.44 1526.28 1030.7 1526.28 1030.7C1526.28 1030.7 1330.19 1053.41 1333.82 1007.27C1337.23 961.122 1244.94 958.344 1128.56 968.007C1012.19 977.43 1042.67 949.525 1042.67 949.525Z" fill="#EBE6E3"/>
<path d="M1148.38 773.282C1218.72 777.751 1137.94 792.73 1156.06 797.2C1174.17 801.669 1279.46 801.669 1312.29 804.085C1345.11 806.501 1319.96 817.494 1337.44 844.552C1350.65 864.967 1457.01 883.087 1519.67 879.463C1582.34 875.718 1537.79 840.204 1537.79 840.204C1537.79 840.204 1394.56 842.62 1382.62 829.332C1370.69 816.044 1395.84 797.924 1368.13 792.005C1340.42 786.086 1271.79 792.489 1224.26 793.334C1176.73 794.18 1202.52 786.69 1202.1 778.234C1201.67 769.779 1148.38 773.282 1148.38 773.282Z" fill="#EBE6E3"/>
<path d="M1224.05 793.334C1330.62 780.892 1411.82 775.818 1396.05 801.669C1364.72 852.404 1571.47 831.868 1582.98 831.868C1594.27 831.868 1554.63 885.744 1554.63 885.744L1552.92 851.196C1552.92 851.196 1418.01 861.343 1376.23 840.203C1346.6 825.225 1378.36 802.515 1357.69 797.32C1318.04 787.536 1224.05 793.334 1224.05 793.334Z" fill="white"/>
</g>
<defs>
<radialGradient id="paint0_radial_44_268" cx="0" cy="0" r="1" gradientUnits="userSpaceOnUse" gradientTransform="translate(74.501 346) rotate(90) scale(319 336.5)">
<stop stop-color="white"/>
<stop offset="1" stop-color="white" stop-opacity="0"/>
</radialGradient>
<radialGradient id="paint1_radial_44_268" cx="0" cy="0" r="1" gradientUnits="userSpaceOnUse" gradientTransform="translate(1319.5 685) rotate(90) scale(319 336.5)">
<stop stop-color="white"/>
<stop offset="1" stop-color="white" stop-opacity="0"/>
</radialGradient>
<linearGradient id="paint2_linear_44_268" x1="678.482" y1="782.957" x2="678.687" y2="1088.04" gradientUnits="userSpaceOnUse">
<stop stop-color="#F3EFEE"/>
<stop offset="1" stop-color="#F7F6F4"/>
</linearGradient>
</defs>
</svg>
