<svg width="119" height="180" viewBox="0 0 119 180" fill="none" xmlns="http://www.w3.org/2000/svg">
<g clip-path="url(#clip0_60_699)">
<path d="M61.3566 177.165C63.1288 173.802 65.7514 170.92 68.9156 168.812C72.2176 166.643 76.0962 165.32 79.2063 162.915C82.3164 160.51 84.6182 156.329 83.2062 152.408C82.2004 149.634 79.5412 147.633 76.7517 146.698C73.9622 145.762 71.024 145.736 68.1375 145.696C63.1771 145.643 58.2455 144.83 53.2848 144.743C49.7572 144.476 45.3781 143.591 44.2118 140.167C43.7701 138.879 43.9323 137.469 44.3897 136.231C45.9479 131.991 50.3208 129.743 54.1924 127.485C58.064 125.226 62.0836 121.955 62.0837 117.351C62.0811 112.4 57.0209 108.257 52.074 107.703C47.1273 107.184 42.4601 109.363 38.4182 111.958C36.509 113.184 32.4533 116.245 30.4426 113.138C29.6033 111.845 29.6249 110.115 30.4629 108.933C30.7367 108.568 31.0627 108.257 31.3887 107.947C36.3157 103.532 43.6318 101.968 47.199 95.9888C50.7319 90.042 47.7923 80.5997 41.0158 78.0566C36.5444 76.3869 31.6809 77.7416 27.7053 79.9595C23.7297 82.1774 20.2613 85.2027 16.1455 87.1704C8.77538 90.7388 -0.593296 90.5257 -8.14272 86.3122C-15.6921 82.0988 -21.1454 73.9351 -21.7272 65.4903C-22.056 60.8158 -20.8649 56.0186 -17.8138 52.6585C-14.7624 49.3329 -9.71071 47.7291 -5.23985 49.3296C-0.127851 51.1564 3.16075 56.4294 7.96777 59.07C14.5794 62.677 23.3215 59.999 26.9044 53.7953C30.4872 47.5916 33.724 41.3339 28.6866 35.6341C25.1141 31.678 15.4507 26.723 10.7484 24.2268C6.02901 21.747 1.18664 19.0006 -2.05987 14.7339C-5.30663 10.4325 -6.45961 4.17131 -3.36145 0.17334" stroke="black" stroke-miterlimit="10" stroke-linecap="round"/>
<path d="M43.194 80.4459C43.1277 80.823 42.9748 81.178 42.8045 81.5146C42.3617 82.3899 41.85 83.2959 41.0419 83.8565C40.3368 84.3189 39.4396 84.511 38.9087 85.1563C38.8486 84.0625 38.3739 82.9801 38.4347 81.8757C38.4956 80.7713 39.1279 79.8201 39.7436 78.9545C39.9318 78.7055 40.1372 78.44 40.4126 78.2823C41.8238 77.4959 43.4249 78.9703 43.194 80.4459Z" fill="#D95555"/>
<path d="M42.303 79.1673C42.2703 79.4077 42.1684 79.6444 42.049 79.8627C41.6574 80.6543 41.2136 81.391 40.7004 82.0893C40.6148 82.2056 40.5293 82.322 40.4089 82.4018C40.2711 82.4633 40.1156 82.4719 39.9766 82.3603C39.872 82.2506 39.8536 82.0938 39.8697 81.9389C39.9012 81.5252 40.0884 81.1376 40.2756 80.75C40.5819 80.1094 40.8881 79.4688 41.1944 78.8282C41.2794 78.6426 41.3645 78.4569 41.5363 78.3281C42.0865 77.9435 42.3517 78.7372 42.303 79.1673Z" fill="white"/>
<path d="M23.5002 56.1667C23.1362 56.0251 22.8232 55.7653 22.5101 55.5054C21.693 54.8538 20.8753 54.133 20.4533 53.1747C20.0844 52.3751 20.0083 51.4361 19.4501 50.7471C20.5405 50.964 21.6624 50.7672 22.7192 51.1206C23.7933 51.4577 24.6466 52.319 25.4133 53.1582C25.6571 53.4142 25.8664 53.6682 25.9899 54.004C26.572 55.5771 24.9218 56.7655 23.5002 56.1667Z" fill="#7EB6C2"/>
<path d="M24.8787 55.6207C24.6533 55.5215 24.4448 55.3714 24.236 55.1866C23.5231 54.6101 22.8443 53.9662 22.2343 53.2916C22.1298 53.1819 22.0253 53.0722 21.9723 52.9135C21.9366 52.773 21.9353 52.5999 22.0729 52.5037C22.1933 52.4239 22.349 52.4499 22.4876 52.4923C22.8862 52.6358 23.2512 52.9159 23.6162 53.1959C24.2072 53.6445 24.7984 54.1276 25.3894 54.5761C25.5459 54.706 25.737 54.8379 25.8248 55.0332C26.1064 55.7067 25.2947 55.7824 24.8787 55.6207Z" fill="white"/>
<path d="M25.076 79.6393C24.8316 79.3141 24.6907 78.96 24.5495 78.5713C24.1793 77.5986 23.8434 76.5932 23.9568 75.5783C24.054 74.7183 24.4802 73.9286 24.3528 73.0733C25.1881 73.8471 26.2801 74.2717 27.0468 75.1109C27.8135 75.95 28.1333 77.1104 28.3662 78.2139C28.4377 78.5294 28.5095 78.8796 28.4255 79.2038C28.1091 80.7958 26.0013 80.8855 25.076 79.6393Z" fill="#D95555"/>
<path d="M26.5816 79.9138C26.4245 79.7147 26.319 79.4664 26.2308 79.2365C25.9134 78.3879 25.6477 77.5248 25.4509 76.6311C25.4153 76.4906 25.3968 76.3338 25.4129 76.1789C25.4465 76.0423 25.5492 75.9096 25.7047 75.901C25.843 75.9087 25.9647 76.0021 26.0692 76.1118C26.3656 76.4573 26.5242 76.8642 26.6827 77.2712C26.9472 77.9611 27.2461 78.6529 27.5105 79.3427C27.5984 79.5381 27.6691 79.7497 27.6361 79.9556C27.6067 80.6463 26.8608 80.2757 26.5816 79.9138Z" fill="white"/>
<path d="M50.025 87.9598C50.3871 87.859 50.7849 87.8985 51.1825 87.9035C52.1853 87.9596 53.2403 88.0707 54.1602 88.5895C54.924 89.0477 55.5517 89.7752 56.4003 90.0131C55.436 90.4784 54.6991 91.3199 53.6823 91.6957C52.648 92.0532 51.4887 91.8671 50.4154 91.6339C50.0865 91.5636 49.7576 91.4932 49.4623 91.2863C48.0552 90.3247 48.5932 88.3124 50.025 87.9598Z" fill="#F2CB30"/>
<path d="M49.3261 89.2533C49.5677 89.1976 49.8269 89.1948 50.0689 89.2084C50.968 89.2588 51.8504 89.3947 52.7331 89.5653C52.8888 89.5913 53.0274 89.6337 53.1491 89.7271C53.2708 89.8204 53.3584 89.9811 53.3248 90.1177C53.2913 90.2543 53.1363 90.3322 53.0157 90.3773C52.6192 90.5109 52.1697 90.4857 51.7376 90.4789C51.0114 90.4382 50.2855 90.4322 49.5593 90.3915C49.3519 90.3799 49.1444 90.3683 48.9535 90.271C48.3288 89.9245 48.9122 89.3686 49.3261 89.2533Z" fill="white"/>
<path d="M84.9292 151.708C85.2914 151.607 85.6887 151.577 86.069 151.598C87.0887 151.604 88.1433 151.645 89.08 152.113C89.8608 152.52 90.5227 153.215 91.3882 153.402C90.459 153.939 89.7744 154.835 88.7924 155.247C87.7933 155.676 86.6345 155.559 85.5271 155.393C85.1985 155.358 84.8696 155.287 84.5745 155.115C83.116 154.203 83.5153 152.148 84.9292 151.708Z" fill="#F2CB30"/>
<path d="M84.3171 153.058C84.5412 152.984 84.8005 152.981 85.0597 152.979C85.9411 152.976 86.8404 153.061 87.74 153.181C87.8957 153.207 88.0514 153.233 88.1731 153.326C88.3119 153.403 88.3996 153.564 88.366 153.7C88.3325 153.837 88.2121 153.917 88.0743 153.978C87.6952 154.13 87.246 154.14 86.8141 154.167C86.0885 154.196 85.3626 154.19 84.6369 154.219C84.4294 154.207 84.2222 154.23 84.0314 154.133C83.372 153.784 83.9035 153.208 84.3171 153.058Z" fill="white"/>
<path d="M63.3901 144.08C63.2663 143.71 63.2289 143.327 63.2086 142.927C63.1491 141.903 63.1413 140.864 63.5666 139.97C63.9239 139.211 64.5934 138.609 64.7252 137.75C65.3029 138.735 66.2417 139.48 66.716 140.493C67.2076 141.524 67.1298 142.68 67.0344 143.782C66.985 144.108 66.953 144.453 66.7996 144.738C65.9803 146.112 63.9194 145.529 63.3901 144.08Z" fill="#7EB6C2"/>
<path d="M64.7782 144.816C64.69 144.586 64.6708 144.325 64.6516 144.064C64.6102 143.162 64.6209 142.28 64.7007 141.401C64.7169 141.246 64.733 141.092 64.8185 140.975C64.9041 140.859 65.0416 140.763 65.1802 140.805C65.3188 140.847 65.4061 140.973 65.4763 141.116C65.6521 141.506 65.69 141.959 65.7106 142.393C65.7506 143.122 65.8252 143.853 65.8652 144.582C65.8668 144.79 65.8857 145.016 65.8179 145.185C65.5462 145.828 64.9368 145.222 64.7782 144.816Z" fill="white"/>
<path d="M63.283 120.568C63.647 120.71 63.9943 120.937 64.3071 121.162C65.1586 121.781 66.0103 122.435 66.5011 123.362C66.9218 124.147 67.0497 125.072 67.6596 125.746C66.5698 125.599 65.4484 125.865 64.392 125.581C63.3011 125.295 62.3966 124.517 61.561 123.709C61.2999 123.469 61.0735 123.231 60.9328 122.912C60.2472 121.368 61.8273 120.037 63.283 120.568Z" fill="#D95555"/>
<path d="M61.9399 121.22C62.1824 121.303 62.3909 121.453 62.5995 121.603C63.3467 122.147 64.0424 122.74 64.7038 123.365C64.8083 123.475 64.9129 123.585 64.9831 123.727C65.0533 123.87 65.02 124.041 64.917 124.139C64.8141 124.237 64.6583 124.211 64.5197 124.169C64.104 124.041 63.7392 123.796 63.3571 123.532C62.7489 123.1 62.1236 122.684 61.5155 122.252C61.3419 122.139 61.1508 122.007 61.0629 121.811C60.6953 121.185 61.5239 121.058 61.9399 121.22Z" fill="white"/>
<path d="M46.2431 106.805C46.0848 106.433 46.0474 106.05 45.9925 105.649C45.8812 104.639 45.804 103.561 46.1774 102.648C46.4827 101.868 47.1171 101.194 47.1971 100.351C47.8263 101.286 48.7995 101.998 49.3426 102.981C49.8685 103.979 49.8945 105.14 49.8511 106.263C49.8363 106.591 49.8043 106.936 49.6855 107.223C48.9359 108.67 46.8588 108.242 46.2431 106.805Z" fill="#D95555"/>
<path d="M47.6653 107.474C47.5598 107.225 47.5234 106.981 47.487 106.737C47.3939 105.849 47.3526 104.946 47.3804 104.048C47.3794 103.909 47.3955 103.754 47.4636 103.62C47.5317 103.485 47.6693 103.389 47.825 103.415C47.9636 103.457 48.0509 103.583 48.1383 103.709C48.3486 104.102 48.4037 104.538 48.4589 104.974C48.568 105.707 48.6598 106.422 48.7518 107.171C48.788 107.381 48.8069 107.607 48.7391 107.776C48.502 108.421 47.8411 107.864 47.6653 107.474Z" fill="white"/>
<path d="M9.38631 59.2531C9.22798 58.8807 9.19055 58.4979 9.1357 58.0967C9.02443 57.0865 8.94723 56.009 9.3206 55.0953C9.62584 54.3161 10.2602 53.642 10.3403 52.7983C10.9695 53.7336 11.9427 54.4459 12.4858 55.4283C13.0117 56.4271 13.0377 57.5882 12.9943 58.7109C12.9795 59.0389 12.9475 59.3833 12.8286 59.6709C12.0791 61.1175 9.98454 60.6713 9.38631 59.2531Z" fill="#D95555"/>
<path d="M10.791 59.9029C10.6855 59.6546 10.6491 59.4103 10.6127 59.1659C10.5196 58.2779 10.4783 57.3756 10.5061 56.477C10.5051 56.3385 10.5212 56.1836 10.5893 56.049C10.6575 55.9143 10.795 55.8182 10.9507 55.8442C11.0893 55.8866 11.1767 56.0126 11.264 56.1387C11.4744 56.5313 11.5295 56.9671 11.5846 57.4029C11.6938 58.136 11.7855 58.8508 11.8776 59.6002C11.9137 59.81 11.9327 60.036 11.8648 60.2053C11.6105 60.8661 10.9842 60.3118 10.791 59.9029Z" fill="white"/>
<path d="M17.192 88.4406C17.4536 88.7495 17.6119 89.1218 17.7528 89.4759C18.1748 90.4342 18.5452 91.4416 18.4664 92.4584C18.4038 93.3204 18.0125 94.1466 18.1744 95.0038C17.3048 94.2627 16.1959 93.8891 15.412 93.0663C14.6281 92.2435 14.274 91.1159 13.9894 90.0268C13.9004 89.6929 13.8115 89.3591 13.8784 89.0512C14.108 87.4024 16.1978 87.2252 17.192 88.4406Z" fill="#7EB6C2"/>
<path d="M15.6695 88.2168C15.8265 88.416 15.9493 88.6479 16.0374 88.8779C16.3894 89.7284 16.6723 90.5751 16.9208 91.4544C16.9564 91.5949 17.0095 91.7537 16.9759 91.8903C16.9424 92.0269 16.8397 92.1596 16.7016 92.1865C16.5462 92.1951 16.4245 92.1017 16.3371 91.9756C16.0236 91.6465 15.865 91.2395 15.6718 90.8306C15.3728 90.1388 15.0567 89.4634 14.7751 88.7899C14.6872 88.5945 14.5994 88.3992 14.615 88.1751C14.61 87.5171 15.3731 87.8714 15.6695 88.2168Z" fill="white"/>
<path d="M30.229 114.632C29.9545 114.894 29.6448 115.084 29.2832 115.254C28.4051 115.707 27.4751 116.14 26.4554 116.135C25.5912 116.121 24.7072 115.777 23.8791 115.973C24.46 115.071 24.6415 113.921 25.3094 113.111C25.9771 112.265 27.0283 111.857 28.08 111.518C28.3904 111.431 28.7006 111.31 29.0292 111.346C30.6895 111.508 31.2581 113.582 30.229 114.632Z" fill="#D95555"/>
<path d="M30.183 113.106C30.0288 113.288 29.805 113.397 29.5811 113.505C28.8063 113.895 27.9967 114.248 27.1866 114.531C27.0488 114.593 26.9107 114.62 26.755 114.593C26.5992 114.567 26.443 114.472 26.4074 114.332C26.3717 114.191 26.4399 114.057 26.5428 113.958C26.7997 113.644 27.1783 113.423 27.5571 113.236C28.1766 112.89 28.7962 112.544 29.4332 112.216C29.6053 112.122 29.7946 112.012 30.0021 112.023C30.676 112.009 30.4745 112.794 30.183 113.106Z" fill="white"/>
<path d="M60.004 114.275C59.8163 114.593 59.5243 114.836 59.2324 115.08C58.4766 115.695 57.6516 116.307 56.6506 116.493C55.8048 116.636 54.8876 116.463 54.1299 116.836C54.5025 115.819 54.4765 114.658 54.9534 113.715C55.4474 112.756 56.3933 112.134 57.3225 111.597C57.5978 111.44 57.8903 111.266 58.2359 111.25C59.8764 111.083 60.8244 113.04 60.004 114.275Z" fill="#F2CB30"/>
<path d="M59.6816 112.768C59.5449 112.968 59.3733 113.131 59.1842 113.277C58.5142 113.81 57.8094 114.307 57.0523 114.75C56.9319 114.829 56.7941 114.891 56.6386 114.9C56.4831 114.908 56.3271 114.848 56.2569 114.705C56.1867 114.563 56.2548 114.428 56.323 114.293C56.5276 113.924 56.8539 113.648 57.163 113.388C57.7127 112.935 58.2277 112.479 58.7774 112.025C58.9146 111.894 59.0865 111.765 59.2935 111.708C59.932 111.588 59.9037 112.417 59.6816 112.768Z" fill="white"/>
<path d="M29.8045 41.8243C29.4426 41.9598 29.0627 42.0077 28.6826 42.0211C27.6808 42.1034 26.6268 42.131 25.6734 41.7487C24.8586 41.4088 24.1452 40.763 23.2973 40.629C24.1743 40.0377 24.7892 39.0682 25.7361 38.5847C26.7002 38.0848 27.8582 38.0977 28.965 38.1943C29.2936 38.23 29.6394 38.2494 29.9517 38.4053C31.4092 39.1793 31.1484 41.2764 29.8045 41.8243Z" fill="#D95555"/>
<path d="M30.3125 40.4333C30.0887 40.5419 29.8469 40.563 29.5877 40.5658C28.7068 40.6376 27.8254 40.6402 26.9089 40.5715C26.7706 40.5638 26.5977 40.5541 26.4589 40.4771C26.32 40.4001 26.2153 40.2557 26.2314 40.1009C26.2475 39.946 26.3679 39.8662 26.5057 39.8046C26.8845 39.6182 27.2989 39.5721 27.7479 39.528C28.4733 39.4648 29.1813 39.3833 29.9067 39.3201C30.1139 39.297 30.3211 39.274 30.5291 39.3549C31.1879 39.6341 30.7088 40.265 30.3125 40.4333Z" fill="white"/>
<path d="M5.86573 23.0189C5.76485 23.394 5.57713 23.7124 5.3894 24.0307C4.8772 24.8675 4.2961 25.735 3.43551 26.2061C2.71271 26.6157 1.78037 26.7366 1.19719 27.327C1.24089 26.239 0.835049 25.1258 0.982482 24.0436C1.12992 22.9614 1.83166 22.0487 2.53418 21.2399C2.73984 21.0091 2.96265 20.7619 3.25541 20.6225C4.73687 19.9785 6.23521 21.5856 5.86573 23.0189Z" fill="#F2CB30"/>
<path d="M5.07801 21.6765C5.01067 21.915 4.89133 22.1333 4.77199 22.3517C4.32816 23.0884 3.81492 23.7867 3.24968 24.4647C3.16414 24.581 3.06118 24.6791 2.92338 24.7407C2.78559 24.8022 2.61269 24.7925 2.50817 24.6828C2.40366 24.5731 2.40236 24.3999 2.4359 24.2633C2.50194 23.8516 2.72373 23.4659 2.92835 23.0966C3.28663 22.4762 3.62775 21.8722 3.98604 21.2518C4.08848 21.0845 4.19066 20.8825 4.36278 20.7883C4.98235 20.4422 5.1958 21.2503 5.07801 21.6765Z" fill="white"/>
</g>
<defs>
<clipPath id="clip0_60_699">
<rect width="176.399" height="75.463" fill="white" transform="translate(-3.36279) rotate(46.388)"/>
</clipPath>
</defs>
</svg>
