<svg width="455" height="727" viewBox="0 0 455 727" fill="none" xmlns="http://www.w3.org/2000/svg">
<g clip-path="url(#clip0_49_102)">
<path d="M136.773 748.374C143.798 734.492 154.429 722.716 167.409 714.245C180.957 705.532 197.008 700.424 209.729 690.702C222.449 680.98 231.595 663.73 225.259 647.15C220.748 635.422 209.417 626.746 197.662 622.518C185.907 618.29 173.633 617.853 161.573 617.36C140.849 616.584 120.161 612.629 99.433 611.708C84.6699 610.196 66.2813 605.998 61.0273 591.533C59.0383 586.089 59.5582 580.201 61.3299 575.069C67.3635 557.489 85.3756 548.566 101.293 539.543C117.21 530.519 133.632 517.271 133.117 497.991C132.553 477.261 110.955 459.345 90.2322 456.472C69.5141 453.744 50.2651 462.347 33.6741 472.761C25.8375 477.681 9.24118 490.047 0.495533 476.812C-3.15431 471.302 -3.25759 464.062 0.110047 459.206C1.21262 457.706 2.53957 456.442 3.86653 455.178C23.9504 437.242 54.3312 431.514 68.5609 406.874C82.6509 382.368 69.3171 342.5 40.7302 331.093C21.8685 323.601 1.70744 328.729 -14.6488 337.572C-31.005 346.415 -45.1525 358.694 -62.122 366.474C-92.5045 380.591 -131.657 378.651 -163.659 360.163C-195.661 341.675 -219.35 306.88 -222.725 271.453C-224.621 251.842 -220.183 231.888 -207.816 218.159C-195.444 204.575 -174.524 198.425 -155.673 205.627C-134.118 213.848 -119.793 236.296 -99.4205 247.891C-71.4032 263.735 -35.1909 253.499 -20.9211 227.923C-6.65132 202.346 6.16713 176.505 -15.5092 152.074C-30.8727 135.108 -71.7869 113.279 -91.7053 102.3C-111.694 91.388 -132.225 79.3461 -146.262 61.1164C-160.303 42.7416 -165.819 16.3945 -153.327 0" stroke="black" stroke-miterlimit="10" stroke-linecap="round"/>
<path d="M50.0949 341.342C49.8602 342.914 49.2614 344.383 48.5878 345.774C46.8364 349.389 44.8007 353.126 41.4884 355.383C38.5952 357.24 34.8693 357.944 32.7241 360.587C32.351 356 30.2471 351.414 30.3777 346.797C30.5083 342.179 33.0428 338.267 35.5174 334.711C36.2757 333.689 37.1039 332.601 38.2362 331.971C44.0425 328.836 50.8942 335.189 50.0949 341.342Z" fill="#D95555"/>
<path d="M46.2306 335.888C46.1207 336.891 45.7215 337.87 45.2475 338.771C43.7007 342.042 41.9294 345.078 39.864 347.944C39.5197 348.422 39.1755 348.899 38.6816 349.22C38.113 349.462 37.4646 349.481 36.8712 348.998C36.4224 348.527 36.3278 347.868 36.3778 347.221C36.4629 345.493 37.2014 343.891 37.9399 342.288C39.1474 339.64 40.355 336.992 41.5625 334.344C41.8969 333.576 42.2312 332.808 42.9345 332.288C45.1893 330.739 46.3856 334.093 46.2306 335.888Z" fill="white"/>
<path d="M79.4657 373.57C80.967 373.188 82.6329 373.398 84.2937 373.464C88.4883 373.811 92.9072 374.394 96.8071 376.669C100.049 378.674 102.751 381.79 106.322 382.881C102.347 384.722 99.3634 388.163 95.1585 389.623C90.8789 391.004 86.0161 390.095 81.5075 388.999C80.126 388.667 78.7445 388.336 77.4878 387.436C71.5034 383.252 73.5251 374.886 79.4657 373.57Z" fill="#F2CB30"/>
<path d="M76.6914 378.909C77.694 378.703 78.7763 378.72 79.7888 378.804C83.5494 379.115 87.2501 379.784 90.9557 380.597C91.6091 380.723 92.1926 380.916 92.7112 381.321C93.2298 381.725 93.6138 382.408 93.489 382.976C93.3642 383.544 92.7257 383.853 92.2269 384.029C90.5858 384.544 88.7055 384.388 86.9 384.311C83.8626 384.059 80.8301 383.953 77.7927 383.701C76.9249 383.629 76.0571 383.557 75.2491 383.129C72.601 381.608 74.9756 379.346 76.6914 378.909Z" fill="white"/>
<path d="M232.377 644.413C233.878 644.031 235.534 643.951 237.125 644.083C241.384 644.219 245.793 644.511 249.758 646.575C253.065 648.368 255.907 651.351 259.543 652.231C255.722 654.373 252.963 658.05 248.908 659.667C244.783 661.35 239.93 660.732 235.286 659.913C233.91 659.727 232.528 659.396 231.277 658.641C225.083 654.657 226.521 646.097 232.377 644.413Z" fill="#F2CB30"/>
<path d="M229.972 649.999C230.899 649.714 231.982 649.732 233.064 649.749C236.745 649.837 240.51 650.293 244.281 650.895C244.934 651.021 245.588 651.148 246.106 651.552C246.695 651.89 247.079 652.573 246.954 653.141C246.829 653.709 246.335 654.03 245.767 654.272C244.2 654.866 242.325 654.855 240.524 654.923C237.497 654.961 234.464 654.855 231.437 654.894C230.569 654.822 229.706 654.895 228.898 654.466C226.106 652.933 228.261 650.581 229.972 649.999Z" fill="white"/>
<path d="M141.564 610.062C141.006 608.497 140.806 606.89 140.677 605.216C140.314 600.919 140.165 596.567 141.842 592.873C143.249 589.735 145.978 587.285 146.432 583.707C148.955 587.894 152.959 591.118 155.053 595.413C157.222 599.788 157.027 604.617 156.751 609.222C156.582 610.582 156.486 612.021 155.878 613.2C152.61 618.86 143.937 616.189 141.564 610.062Z" fill="#7EB6C2"/>
<path d="M147.444 613.297C147.05 612.324 146.94 611.23 146.831 610.137C146.557 606.353 146.503 602.661 146.738 598.992C146.788 598.345 146.838 597.698 147.183 597.221C147.527 596.743 148.09 596.356 148.674 596.549C149.257 596.742 149.636 597.279 149.945 597.883C150.723 599.539 150.932 601.436 151.067 603.255C151.315 606.313 151.709 609.383 151.958 612.441C151.987 613.312 152.092 614.261 151.827 614.962C150.764 617.622 148.151 615.019 147.444 613.297Z" fill="white"/>
<path d="M138.486 511.598C140.022 512.231 141.499 513.221 142.83 514.199C146.456 516.886 150.086 519.718 152.24 523.657C154.085 526.992 154.722 530.877 157.345 533.77C152.777 533.03 148.123 534.019 143.679 532.711C139.091 531.391 135.226 528.033 131.646 524.555C130.529 523.522 129.556 522.502 128.933 521.148C125.897 514.605 132.347 509.209 138.486 511.598Z" fill="#D95555"/>
<path d="M132.95 514.177C133.972 514.551 134.86 515.203 135.747 515.855C138.929 518.215 141.901 520.776 144.734 523.469C145.182 523.94 145.631 524.411 145.94 525.016C146.249 525.62 146.13 526.333 145.711 526.732C145.291 527.131 144.638 527.005 144.055 526.812C142.304 526.233 140.753 525.165 139.127 524.017C136.539 522.14 133.881 520.329 131.293 518.451C130.555 517.956 129.742 517.382 129.353 516.555C127.748 513.891 131.194 513.453 132.95 514.177Z" fill="white"/>
<path d="M65.7787 452.06C65.0757 450.483 64.8766 448.876 64.6026 447.19C64.0249 442.948 63.5819 438.427 65.039 434.642C66.2267 431.414 68.8009 428.662 69.041 425.138C71.7734 429.125 75.9176 432.217 78.2958 436.391C80.6042 440.632 80.8427 445.497 80.7869 450.193C80.7616 451.565 80.6666 453.004 80.2025 454.195C77.2336 460.169 68.5107 458.144 65.7787 452.06Z" fill="#D95555"/>
<path d="M71.7932 455.017C71.3245 453.966 71.1452 452.939 70.9658 451.911C70.4778 448.183 70.2042 444.399 70.2199 440.64C70.2001 440.06 70.2501 439.413 70.5196 438.857C70.789 438.301 71.3527 437.913 72.006 438.04C72.5896 438.233 72.9685 438.77 73.3475 439.308C74.2698 440.975 74.5488 442.806 74.8277 444.638C75.3658 447.72 75.829 450.723 76.2972 453.872C76.4716 454.754 76.5761 455.703 76.3117 456.404C75.3934 459.076 72.5709 456.673 71.7932 455.017Z" fill="white"/>
<path d="M-0.228971 483.043C-1.34642 484.108 -2.61841 484.87 -4.10984 485.542C-7.72624 487.34 -11.5621 489.047 -15.8215 488.912C-19.4325 488.757 -23.163 487.219 -26.5996 487.947C-24.2746 484.234 -23.6452 479.441 -20.9462 476.121C-18.2522 472.655 -13.9076 471.063 -9.55316 469.76C-8.26629 469.433 -6.98437 468.96 -5.60782 469.146C1.34477 470.011 3.95153 478.761 -0.228971 483.043Z" fill="#D95555"/>
<path d="M-0.591841 476.649C-1.21545 477.393 -2.13824 477.823 -3.06104 478.253C-6.25344 479.796 -9.59544 481.183 -12.9474 482.279C-13.516 482.521 -14.0896 482.619 -14.7429 482.492C-15.3963 482.366 -16.0596 481.949 -16.224 481.357C-16.3885 480.765 -16.1191 480.209 -15.7 479.809C-14.6623 478.521 -13.106 477.638 -11.5447 476.899C-8.99578 475.519 -6.44682 474.139 -3.82306 472.838C-3.11474 472.463 -2.33659 472.021 -1.46876 472.093C1.34427 472.109 0.590486 475.373 -0.591841 476.649Z" fill="white"/>
<path d="M124.087 484.876C123.339 486.189 122.147 487.175 120.955 488.161C117.867 490.653 114.49 493.122 110.33 493.79C106.813 494.294 102.963 493.469 99.8405 494.946C101.283 490.726 101.044 485.861 102.93 481.967C104.886 478.007 108.767 475.508 112.588 473.366C113.721 472.736 114.923 472.04 116.364 472.015C123.197 471.496 127.375 479.797 124.087 484.876Z" fill="#F2CB30"/>
<path d="M122.572 478.532C122.024 479.354 121.325 480.02 120.552 480.606C117.813 482.766 114.925 484.769 111.813 486.536C111.319 486.857 110.75 487.099 110.102 487.118C109.453 487.136 108.795 486.865 108.486 486.261C108.177 485.656 108.446 485.1 108.716 484.544C109.529 483.02 110.861 481.901 112.123 480.848C114.368 479.009 116.468 477.158 118.713 475.319C119.271 474.787 119.975 474.267 120.833 474.049C123.486 473.617 123.461 477.087 122.572 478.532Z" fill="white"/>
<path d="M-10.1477 178.119C-11.6441 178.646 -13.2252 178.804 -14.8113 178.818C-18.986 179.05 -23.3851 179.048 -27.4098 177.34C-30.851 175.826 -33.9028 173.042 -37.4589 172.386C-33.8623 170.008 -31.4026 166.017 -27.5019 164.098C-23.5313 162.113 -18.6934 162.297 -14.0599 162.825C-12.6834 163.011 -11.237 163.131 -9.91542 163.819C-3.74141 167.223 -4.59606 175.975 -10.1477 178.119Z" fill="#D95555"/>
</g>
<defs>
<clipPath id="clip0_49_102">
<rect width="717.936" height="307.131" fill="white" transform="translate(-40.6284) rotate(46.388)"/>
</clipPath>
</defs>
</svg>
