<svg width="122" height="125" viewBox="0 0 122 125" fill="none" xmlns="http://www.w3.org/2000/svg">
<path d="M58.2435 20.0364L59.9041 17.0477C61.7229 13.8975 70.8167 -1.77314 77.5382 0.165488C79.8314 0.811698 81.1757 2.75033 81.0176 5.17362C80.6222 12.2012 70.8958 17.9363 61.6438 19.471L58.2435 20.0364ZM76.0358 3.31576C73.7425 3.55809 69.2352 7.92001 64.5697 15.4322C73.5844 12.9281 77.6173 7.5969 77.7754 4.93129C77.8545 4.04275 77.4591 3.55809 76.6684 3.31576C76.5102 3.31576 76.273 3.23499 76.0358 3.31576Z" fill="#A1262A"/>
<path d="M60.774 19.7135L57.4528 19.9558C48.0427 20.602 37.2092 17.2094 35.3113 10.505C34.6787 8.16247 35.5486 5.98151 37.6046 4.85064C43.6935 1.45804 56.0294 14.5438 58.4808 17.2094L60.774 19.7135ZM39.6606 7.59704C39.4233 7.59704 39.2652 7.67781 39.107 7.75859C38.3163 8.16247 38.1581 8.7279 38.3953 9.61644C39.107 12.2013 44.247 16.4824 53.499 16.8055C47.331 10.505 41.9538 7.27393 39.6606 7.59704Z" fill="#A1262A"/>
<path d="M60.2995 18.0169C60.3786 18.8247 60.0623 19.4709 59.5878 19.5516C59.1134 19.6324 58.6389 18.9862 58.5598 18.2592C58.4808 17.5322 58.7971 16.8052 59.2715 16.7245C59.8251 16.6437 60.2204 17.2091 60.2995 18.0169Z" fill="#A1262A"/>
<path d="M117.63 112.121L21.631 123.349C19.9704 123.511 18.3889 122.299 18.2308 120.603L10.244 49.6004L112.411 37.6455L120.398 108.648C120.556 110.344 119.37 111.879 117.63 112.121Z" fill="#F7F6F4"/>
<path d="M117.788 113.737L21.8683 124.965C19.2588 125.288 16.8865 123.349 16.5702 120.683L8.50439 48.1464L113.834 35.7876L121.979 108.405C122.217 111.071 120.398 113.414 117.788 113.737ZM12.0628 51.0543L19.8123 120.36C19.8914 121.249 20.6822 121.814 21.552 121.734L117.393 110.506C118.263 110.425 118.816 109.617 118.737 108.729L110.988 39.4225L12.0628 51.0543Z" fill="#A1262A"/>
<path d="M116.048 45.9655L8.82059 58.5666C6.52737 58.8089 4.47138 57.1934 4.23415 54.8508L1.7037 32.2335C1.46647 29.891 3.048 27.7908 5.34122 27.5485L112.569 14.9474C114.862 14.705 116.918 16.3206 117.156 18.6631L119.686 41.2804C120.002 43.6229 118.342 45.7231 116.048 45.9655Z" fill="#F7F6F4"/>
<path d="M116.128 47.6618L9.05784 60.1821C5.89478 60.586 2.96895 58.1627 2.57356 54.9316L0.043112 32.4758C-0.352271 29.2448 2.02003 26.2561 5.18309 25.8522L112.332 13.2511C115.495 12.8472 118.421 15.2705 118.816 18.5015L121.347 40.9573C121.663 44.2692 119.37 47.2579 116.128 47.6618ZM5.57847 29.0832C4.15509 29.2448 3.1271 30.618 3.28525 32.0719L5.8157 54.5277C5.97386 55.9817 7.31816 57.0318 8.74154 56.8703L115.811 44.3499C117.235 44.1884 118.263 42.8152 118.104 41.3612L115.574 18.9054C115.416 17.4514 114.072 16.4013 112.648 16.5629L5.57847 29.0832Z" fill="#A1262A"/>
<path d="M71.8772 19.7546L43.7518 23.0513L54.5785 119.433L82.7039 116.136L71.8772 19.7546Z" fill="#F7F6F4"/>
<path d="M84.4968 117.533L53.1825 121.168L41.9536 21.571L73.2679 17.936L84.4968 117.533ZM55.9502 117.533L80.8593 114.625L70.4212 21.571L45.5121 24.4789L55.9502 117.533Z" fill="#A1262A"/>
</svg>
