<svg width="1432" height="1162" viewBox="0 0 1432 1162" fill="none" xmlns="http://www.w3.org/2000/svg">
<rect x="-8" y="758" width="1440" height="509" fill="#F7F6F4"/>
<path d="M300.001 2C216.501 98.5 341.501 79 428.501 84C598.001 93.7414 1050.5 62 971.501 97.5C892.501 133 329.501 122.5 401.001 181.5C528.461 286.677 1028.5 189 1069.5 265C1110.5 341 757.001 337.21 843.501 360C1010.5 404 961.501 397.5 961.501 404.5C961.501 439.317 443.501 443.5 320.501 468.5C243.611 484.128 363.001 526 382.501 528.5M475.5 565.5C705.5 503 1121 557 1074.5 652.5C1030.87 742.105 726.718 719.463 512.5 746.5C306.5 772.5 171.5 813 306.5 871C441.5 929 505.5 943.5 330.5 951.5C155.5 959.5 300.1 1023.4 498.5 1037" stroke="url(#paint0_linear_60_748)" stroke-width="3" stroke-linecap="round"/>
<defs>
<linearGradient id="paint0_linear_60_748" x1="745.5" y1="676" x2="690.735" y2="1037" gradientUnits="userSpaceOnUse">
<stop stop-color="#A1262A"/>
<stop offset="1" stop-color="#19A1CC"/>
</linearGradient>
</defs>
</svg>
