<svg width="196" height="221" viewBox="0 0 196 221" fill="none" xmlns="http://www.w3.org/2000/svg">
<path d="M143.82 109.192C141.568 86.0513 120.175 70.358 96.0374 74.1401C71.8995 77.9223 54.1571 99.7477 56.4086 122.889C58.6601 146.029 80.053 161.723 104.191 157.941C128.329 154.158 146.071 132.333 143.82 109.192Z" fill="#F7F6F4"/>
<path d="M119.89 154.168C99.0332 167.444 73.1947 161.232 62.3116 140.22C51.4285 119.208 59.4659 91.3031 80.3231 78.0274C101.18 64.7518 127.019 70.9632 137.902 91.9752C148.841 112.957 140.779 140.806 119.89 154.168ZM81.5729 80.3325C62.0248 92.8318 54.4058 118.986 64.6598 138.675C74.9138 158.363 99.1242 164.276 118.672 151.776C138.22 139.277 145.839 113.123 135.585 93.4344C125.331 73.7459 101.121 67.8333 81.5729 80.3325Z" fill="#A1262A"/>
<path d="M71.3888 56.7902C72.5591 59.0688 71.6977 62.029 69.4367 63.4581C67.1758 64.8872 64.4355 64.2189 63.2653 61.9403C62.095 59.6616 62.9564 56.7014 65.2173 55.2723C67.4467 53.9296 70.1869 54.5979 71.3888 56.7902Z" fill="#F7F6F4"/>
<path d="M70.0537 64.7266C67.15 66.5721 63.5836 65.7262 62.0709 62.8007C60.5582 59.8752 61.6567 56.0245 64.5604 54.1789C67.464 52.3333 71.0304 53.1793 72.5431 56.1048C74.0319 58.9739 72.9334 62.8246 70.0537 64.7266ZM65.834 56.5404C64.2156 57.5532 63.615 59.6795 64.443 61.3115C65.2711 62.9434 67.2409 63.4042 68.8594 62.3914C70.4779 61.3787 71.0784 59.2523 70.2504 57.6204C69.3668 56.0184 67.4286 55.4712 65.834 56.5404Z" fill="#A1262A"/>
<path d="M84.5564 69.4969L67.0766 80.6182C66.3021 81.1008 65.3589 80.8705 64.9621 80.0793L61.6658 73.6136C61.269 72.8223 61.556 71.798 62.3305 71.3153L79.8103 60.194C80.5849 59.7114 81.528 59.9417 81.9248 60.733L85.2211 67.1986C85.6711 67.9614 85.331 69.0142 84.5564 69.4969Z" fill="#F7F6F4"/>
<path d="M85.0641 70.7191L67.8237 81.7358C66.3208 82.6782 64.5016 82.2432 63.7266 80.7086L60.5268 74.4893C59.7517 72.9548 60.2973 70.9794 61.8002 70.037L79.0636 59.0752C80.5665 58.1328 82.3857 58.5678 83.1608 60.1024L86.3605 66.3217C87.1126 67.8014 86.567 69.7767 85.0641 70.7191ZM62.9743 72.3663C62.7072 72.5099 62.6392 72.8156 62.7544 73.0901L65.9542 79.3094C66.0694 79.5838 66.3521 79.6337 66.6192 79.4901L83.8827 68.5283C84.1497 68.3848 84.2178 68.079 84.1026 67.8046L80.9028 61.5853C80.7876 61.3108 80.5048 61.2609 80.2378 61.4045L62.9743 72.3663Z" fill="#A1262A"/>
<path d="M62.5992 55.2247L62.9936 52.3387C63.4502 49.282 65.8663 33.9949 71.5262 32.9232C73.4571 32.5648 74.9991 33.5132 75.5885 35.3877C77.3096 40.8997 71.5667 48.9384 64.9738 53.53L62.5992 55.2247ZM71.2883 35.8616C69.6399 36.8897 67.4582 41.9069 66.0465 49.3863C72.1456 44.1021 73.6932 38.5368 73.0331 36.4948C72.8053 35.7956 72.4217 35.5232 71.6947 35.7105C71.6165 35.6843 71.4524 35.7729 71.2883 35.8616Z" fill="#A1262A"/>
<path d="M65.6788 53.0212L63.226 54.4111C56.4289 58.3457 47.3869 59.7672 44.0376 55.4122C42.8646 53.8783 42.9147 51.9557 44.1509 50.3417C47.7517 45.5574 60.6711 50.8465 63.1982 51.989L65.6788 53.0212ZM46.4626 51.6003C46.3012 51.6873 46.2167 51.8006 46.0784 51.9428C45.6023 52.5379 45.6265 53.0665 46.0432 53.5865C47.3396 55.257 52.3149 56.5693 59.3829 53.4363C53.0045 50.985 48.0617 50.5353 46.4626 51.6003Z" fill="#A1262A"/>
<path d="M64.9667 52.9768C65.2736 53.5246 65.2084 54.1993 64.8862 54.4418C64.5391 54.6265 63.9927 54.3482 63.6859 53.8003C63.379 53.2525 63.4441 52.5778 63.7664 52.3353C64.1135 52.1506 64.6598 52.4289 64.9667 52.9768Z" fill="#A1262A"/>
</svg>
