<svg width="104" height="730" viewBox="0 0 104 730" fill="none" xmlns="http://www.w3.org/2000/svg">
<path d="M56.6013 145C63.3779 152 73.9559 168.7 62.0556 179.5C47.1803 193 50.6512 169.5 60.5681 188C68.5016 202.8 70.1544 212.833 69.9891 216" stroke="#A1262A" stroke-linecap="round"/>
<path d="M54.5 263C63.6667 272.167 81.1 295.2 77.5 314C73 337.5 35.5 295 85 307C124.6 316.6 89.5 356.333 67 375" stroke="#A1262A" stroke-linecap="round"/>
<path d="M76 1C86.3333 18.3333 100.341 54.7 70.7411 65.5C33.7411 79 46.7411 20 75.2411 58C98.0411 88.4 92.1667 100.667 86.5 103" stroke="#A1262A" stroke-linecap="round"/>
<path d="M68.4378 433C63.0963 447.694 57.3207 476.592 76.9508 474.633C101.488 472.184 69.4393 445.245 59.424 470.224C51.4117 490.208 56.0855 501.735 59.424 505" stroke="#A1262A" stroke-linecap="round"/>
<path d="M64.0001 560.5C56.1667 593.001 13 636.5 4.50001 612C-5.02798 584.537 36.9999 607.5 53.9999 639.5C70.9999 671.5 2.83971 652.572 1.49992 672C0.396538 688 36 685.5 53.9999 729" stroke="url(#paint0_linear_60_805)"/>
<defs>
<linearGradient id="paint0_linear_60_805" x1="56.5" y1="561" x2="38.5" y2="711.5" gradientUnits="userSpaceOnUse">
<stop offset="0.460104" stop-color="#A1262A"/>
<stop offset="1" stop-color="#19A1CC"/>
</linearGradient>
</defs>
</svg>
