<svg width="830" height="1039" viewBox="0 0 830 1039" fill="none" xmlns="http://www.w3.org/2000/svg">
<path d="M50.0009 2C-33.4991 98.5 91.5008 79 178.501 84C348.001 93.7414 800.501 62 721.501 97.5C642.501 133 79.5008 122.5 151.001 181.5C278.461 286.677 778.501 189 819.501 265C860.501 341 507.001 337.21 593.501 360C760.501 404 711.501 397.5 711.501 404.5C711.501 439.317 193.501 443.5 70.5008 468.5C-6.38885 484.128 113.001 526 132.501 528.5M225.5 565.5C455.5 503 871 557 824.5 652.5C780.871 742.105 476.718 719.463 262.5 746.5C56.4998 772.5 -78.5002 813 56.4998 871C191.5 929 255.5 943.5 80.4999 951.5C-94.5001 959.5 50.0999 1023.4 248.5 1037" stroke="url(#paint0_linear_51_187)" stroke-width="3" stroke-linecap="round"/>
<defs>
<linearGradient id="paint0_linear_51_187" x1="495.5" y1="676" x2="440.735" y2="1037" gradientUnits="userSpaceOnUse">
<stop stop-color="#A1262A"/>
<stop offset="1" stop-color="#19A1CC"/>
</linearGradient>
</defs>
</svg>
