<svg width="144" height="141" viewBox="0 0 144 141" fill="none" xmlns="http://www.w3.org/2000/svg">
<g clip-path="url(#clip0_44_320)">
<path d="M78.3267 22.1773L80.8717 19.4928C83.4963 16.6456 97.0964 2.49103 103.698 6.23304C105.925 7.53461 106.879 9.8937 106.163 12.4155C104.016 19.7368 92.2449 23.2348 82.0647 22.5026L78.3267 22.1773ZM101.312 9.16157C98.8461 8.83617 92.9607 12.2528 86.2004 19.0047C96.3011 18.7606 101.948 14.1238 102.743 11.358C103.061 10.3818 102.823 9.81235 101.948 9.32426C101.789 9.24291 101.55 9.16157 101.312 9.16157Z" fill="#A1262A"/>
<path d="M81.0307 22.5025L77.4518 21.8518C67.4306 20.0621 56.8528 13.717 56.5346 6.07023C56.4551 3.4671 57.8867 1.35205 60.3522 0.701263C67.6692 -1.33244 77.3722 15.832 79.281 19.2486L81.0307 22.5025ZM61.8633 4.11788C61.6247 4.11788 61.3861 4.11788 61.2271 4.11788C60.2727 4.36193 59.9545 4.93136 59.9545 5.90754C60.1136 8.83607 64.4084 14.6931 74.1114 17.459C69.1804 9.24281 64.3289 4.44327 61.8633 4.11788Z" fill="#A1262A"/>
<path d="M81.0306 20.5501C80.9511 21.3636 80.4739 22.0144 79.9172 21.933C79.44 21.8517 79.1219 21.1195 79.2014 20.3061C79.2809 19.4926 79.7581 18.8418 80.3148 18.9231C80.792 19.0045 81.1102 19.7366 81.0306 20.5501Z" fill="#A1262A"/>
<path d="M102.584 101.41C102.584 101.41 111.333 82.7816 105.209 60.4109C99.1642 38.0401 102.505 29.4986 120.24 28.197L121.036 16.8896C121.036 16.8896 12.712 21.6078 13.9845 93.0314L102.584 101.41Z" fill="#F7F6F4"/>
<path d="M12.2347 94.7397V93.1127C11.678 63.0953 30.4477 40.0738 66.4761 26.4886C93.3582 16.4015 120.717 15.0999 121.036 15.0999L123.024 15.0186L121.91 29.8239L120.399 29.9052C113.082 30.4747 108.549 32.2643 106.242 35.5996C103.3 39.9111 103.459 47.3951 106.879 59.8413C113.082 82.5374 104.493 101.248 104.095 102.061L103.538 103.2L12.2347 94.7397ZM119.127 18.8419C112.446 19.33 89.7792 21.5264 67.51 29.9052C33.2314 42.7582 15.8137 63.502 15.6546 91.4044L101.391 99.4578C103.061 95.1464 108.469 79.2022 103.459 60.8175C99.7208 46.9883 99.6413 38.8535 103.3 33.5659C106.083 29.5799 110.935 27.3021 118.491 26.4886L119.127 18.8419Z" fill="#A1262A"/>
<path d="M104.334 138.749L5.55389 126.14C3.48604 125.896 2.05445 123.944 2.29304 121.91L5.63342 94.0889C5.87202 91.9738 7.78081 90.5096 9.76913 90.7536L108.549 103.363C110.617 103.607 112.048 105.559 111.81 107.593L108.39 135.414C108.231 137.529 106.402 138.993 104.334 138.749Z" fill="#F7F6F4"/>
<path d="M103.777 140.457L5.6335 127.93C2.45218 127.523 0.145731 124.513 0.543395 121.259L3.80424 94.1701C4.2019 90.9162 7.14462 88.5571 10.3259 88.9638L108.39 101.491C111.571 101.898 113.878 104.908 113.48 108.162L110.219 135.251C109.901 138.505 106.958 140.864 103.777 140.457ZM10.0078 92.5432C8.73528 92.3805 7.54228 93.2753 7.38322 94.6582L4.04284 121.747C3.88377 123.049 4.75863 124.269 6.11069 124.432L104.175 136.959C105.447 137.122 106.64 136.227 106.799 134.844L110.06 107.755C110.219 106.454 109.344 105.233 107.992 105.071L10.0078 92.5432Z" fill="#A1262A"/>
<path d="M136.248 30.0634C142.223 25.6344 143.557 17.0896 139.227 10.9782C134.897 4.86674 126.542 3.50289 120.567 7.93193C114.592 12.361 113.259 20.9057 117.589 27.0172C121.919 33.1286 130.273 34.4925 136.248 30.0634Z" fill="#F7F6F4"/>
<path d="M126.523 34.3793C118.252 33.3218 112.367 25.5937 113.401 17.1335C114.434 8.67333 121.99 2.65358 130.262 3.7111C138.533 4.76863 144.418 12.4967 143.384 20.9569C142.351 29.4171 134.795 35.4368 126.523 34.3793ZM129.864 7.20907C123.501 6.39559 117.695 11.0324 116.9 17.5403C116.105 24.0481 120.638 29.9865 127.001 30.8C133.363 31.6135 139.169 26.9766 139.965 20.4688C140.76 14.0423 136.226 8.02255 129.864 7.20907Z" fill="#A1262A"/>
</g>
<defs>
<clipPath id="clip0_44_320">
<rect width="143" height="140" fill="white" transform="translate(0.543457 0.538574)"/>
</clipPath>
</defs>
</svg>
