<svg width="143" height="37" viewBox="0 0 143 37" fill="none" xmlns="http://www.w3.org/2000/svg">
<path d="M53.8043 7.05303C53.7308 5.94455 54.5748 4.98858 55.6838 4.92407L138.369 0.114283C139.459 0.0508702 140.399 0.873584 140.48 1.96256L142.486 28.936C142.569 30.0475 141.727 31.0121 140.614 31.0806L57.7305 36.1774C56.6317 36.2449 55.6849 35.4119 55.6121 34.3135L53.8043 7.05303Z" fill="#FEC830"/>
<path d="M3.91024 34.4389C2.79569 34.5026 1.84465 33.6512 1.78799 32.5363C1.42367 25.3684 0.48092 10.8935 0.132218 5.59768C0.0592736 4.48984 0.902727 3.54492 2.01101 3.47914L45.0429 0.924949C45.703 0.885773 46.3397 1.17533 46.744 1.69851L56.9221 14.8697C57.4298 15.5268 57.4788 16.4291 57.0451 17.1372L48.5377 31.0277C48.1953 31.5867 47.6007 31.9425 46.9463 31.9799L3.91024 34.4389Z" fill="#121920" fill-opacity="0.95"/>
<path d="M11.1251 18.7121C11.052 17.726 11.1832 16.7355 11.5107 15.8014C11.8206 14.9042 12.309 14.0775 12.9469 13.3701C13.6042 12.6544 14.3973 12.0736 15.2811 11.6607C16.2268 11.2116 17.2516 10.9483 18.2986 10.8853C19.5013 10.8051 20.5767 10.9098 21.5247 11.1995C22.4941 11.4992 23.4022 11.9664 24.2073 12.5793L22.0797 15.4852C21.5715 15.1078 21.0064 14.812 20.4052 14.6088C19.808 14.4245 19.1805 14.3564 18.5572 14.4083C18.0689 14.4324 17.5915 14.5598 17.1571 14.7821C16.7228 15.0043 16.3416 15.3161 16.0393 15.6965C15.3875 16.4871 15.0985 17.423 15.1723 18.5042C15.2507 19.6553 15.6783 20.581 16.4552 21.2811C17.2322 21.9813 18.1838 22.2932 19.31 22.217C20.2301 22.1546 20.978 21.9002 21.5537 21.4536L21.4329 19.6827L18.601 19.8726L18.4086 17.0469L24.9676 16.6083L25.4024 22.9798C23.7171 24.5396 21.709 25.3966 19.3782 25.5508C17.9139 25.6493 16.5709 25.4265 15.3492 24.8823C14.1534 24.3612 13.1293 23.5184 12.3932 22.4497C11.6442 21.3712 11.2215 20.1253 11.1251 18.7121Z" fill="white"/>
<path d="M28.6002 17.5643C28.5297 16.5842 28.6646 15.6003 28.9966 14.6744C29.3129 13.7737 29.804 12.943 30.4422 12.229C31.1003 11.5072 31.8947 10.9197 32.7805 10.4996C34.6828 9.5959 36.8627 9.44853 38.8715 10.0878C39.8001 10.3831 40.6609 10.8565 41.4049 11.4809C42.1285 12.1021 42.7203 12.8592 43.1463 13.7084C43.596 14.5902 43.86 15.5535 43.9221 16.5395C43.9919 17.5197 43.8572 18.5036 43.5264 19.4301C43.2126 20.3314 42.723 21.1629 42.0855 21.8774C41.4295 22.5981 40.6372 23.1845 39.7533 23.6035C38.8141 24.0579 37.7935 24.3241 36.75 24.387C35.3127 24.4833 33.9848 24.2446 32.7663 23.671C31.5817 23.1243 30.5694 22.2694 29.8372 21.1976C29.1017 20.119 28.6743 18.8636 28.6002 17.5643ZM32.6447 17.2935C32.7154 18.3377 33.1205 19.2112 33.8601 19.9141C34.5997 20.6169 35.4964 20.9328 36.5501 20.862C37.617 20.7911 38.463 20.3635 39.0883 19.5791C39.7135 18.7948 39.9899 17.8709 39.9174 16.8075C39.8463 15.7633 39.4412 14.8898 38.702 14.187C37.9629 13.4842 37.0586 13.1684 35.989 13.2398C34.9357 13.3102 34.0964 13.7376 33.4712 14.5219C32.846 15.3063 32.5705 16.2302 32.6447 17.2935Z" fill="white"/>
<path d="M66.206 27.3833L65.2432 13.2779L69.1884 13.0146L70.1546 27.1199L66.206 27.3833Z" fill="white"/>
<path d="M71.455 16.3112L71.2207 12.8771L83.7222 12.0415L83.9565 15.4749L79.675 15.7597L80.4035 26.4349L76.4583 26.6983L75.7297 16.0231L71.455 16.3112Z" fill="white"/>
<path d="M83.6913 20.7492C83.635 19.9861 83.7234 19.2193 83.9519 18.4883C84.1621 17.7987 84.5062 17.1564 84.9647 16.5971C85.4277 16.0452 86.0002 15.5931 86.6466 15.2688C87.3336 14.9204 88.0861 14.7169 88.8566 14.6712C89.7776 14.6097 90.6103 14.714 91.3548 14.9841C92.0567 15.2276 92.6877 15.6375 93.1927 16.178C93.681 16.7135 94.0665 17.3326 94.3305 18.005C94.615 18.7312 94.7834 19.4969 94.8294 20.2746C94.8537 20.6222 94.8645 20.8849 94.8639 21.0627L87.49 21.5554C87.6831 22.1423 87.9982 22.5778 88.4353 22.8616C88.8723 23.1455 89.3947 23.267 90.0024 23.226C90.8595 23.1667 91.6481 22.7337 92.3683 21.9271L94.6255 23.5515C93.5524 25.0918 92.0055 25.9294 89.9848 26.0644C88.8388 26.1415 87.8035 25.9737 86.8789 25.561C85.9703 25.1637 85.1967 24.5154 84.6507 23.6939C84.0876 22.8596 83.7678 21.8781 83.6913 20.7492ZM87.2969 19.5994L91.1226 19.3433C91.0078 18.7381 90.7697 18.2702 90.4082 17.9395C90.0467 17.6088 89.604 17.4606 89.0801 17.4949C88.8438 17.5065 88.6128 17.5677 88.4023 17.6746C88.1918 17.7814 88.0067 17.9314 87.8593 18.1146C87.5429 18.4943 87.3554 18.9893 87.2969 19.5994Z" fill="white"/>
<path d="M96.2079 19.9126C96.1516 19.1493 96.2398 18.3823 96.4678 17.6511C96.6784 16.9616 97.0224 16.3193 97.4806 15.7599C97.9438 15.2083 98.5159 14.7563 99.1619 14.4316C99.849 14.0831 100.602 13.8798 101.373 13.8346C102.294 13.7731 103.126 13.8772 103.871 14.1468C104.573 14.3895 105.204 14.7987 105.709 15.3387C106.198 15.8739 106.583 16.4928 106.847 17.1651C107.132 17.8925 107.3 18.6593 107.346 19.438C107.37 19.7856 107.381 20.0483 107.38 20.2261L100.007 20.7195C100.2 21.306 100.515 21.7412 100.952 22.0251C101.389 22.309 101.911 22.4306 102.519 22.3901C103.38 22.3317 104.169 21.8983 104.886 21.0898L107.144 22.7143C106.07 24.2545 104.523 25.0921 102.503 25.2272C101.356 25.3043 100.321 25.1365 99.3969 24.7238C98.4884 24.3263 97.7148 23.6781 97.1687 22.8567C96.6051 22.0224 96.2848 21.041 96.2079 19.9126ZM99.8135 18.7621L103.639 18.5061C103.524 17.9013 103.286 17.4334 102.924 17.1022C102.562 16.7711 102.12 16.6229 101.596 16.6577C101.36 16.6692 101.129 16.7306 100.918 16.8375C100.708 16.9445 100.523 17.0947 100.376 17.278C100.059 17.6586 99.8711 18.1533 99.8135 18.7621Z" fill="white"/>
<path d="M109.543 24.4863L108.8 13.5851L112.665 13.3264L112.771 14.8706C113.633 13.6138 114.691 12.9435 115.944 12.8598C117.11 12.7813 118.05 13.0775 118.765 13.7482C119.48 14.4189 119.88 15.3771 119.965 16.6227L120.451 23.7563L116.586 24.0144L116.18 18.1262C116.141 17.5437 115.969 17.1034 115.665 16.8052C115.36 16.5071 114.973 16.3734 114.501 16.4041C114.016 16.4371 113.634 16.6236 113.357 16.9637C113.081 17.3037 112.962 17.7619 113 18.3381L113.402 24.2263L109.543 24.4863Z" fill="white"/>
<path d="M121.714 22.2516L123.006 19.8363C124.334 20.561 125.624 20.8814 126.876 20.7976C127.525 20.7531 127.836 20.5302 127.808 20.1291C127.795 19.9379 127.652 19.7889 127.379 19.6819C127.106 19.5749 126.636 19.4606 125.978 19.3383C125.478 19.2438 125.052 19.1507 124.7 19.0589C124.328 18.9601 123.966 18.8301 123.616 18.6705C123.287 18.5297 122.983 18.3391 122.714 18.1056C122.468 17.8763 122.268 17.603 122.125 17.3C121.956 16.9474 121.859 16.5653 121.839 16.1756C121.76 15.0213 122.105 14.0948 122.877 13.396C123.648 12.6972 124.689 12.3041 126.001 12.2168C126.816 12.1629 127.634 12.225 128.431 12.4013C129.203 12.5644 129.946 12.8419 130.634 13.2242L129.478 15.7418C128.906 15.4866 128.311 15.2866 127.7 15.1448C127.105 15.0084 126.589 14.9549 126.152 14.9844C125.86 15.0035 125.642 15.0661 125.496 15.1722C125.427 15.2171 125.372 15.2796 125.337 15.3529C125.301 15.4262 125.286 15.5076 125.293 15.5887C125.306 15.7808 125.448 15.9298 125.718 16.0359C125.988 16.142 126.464 16.2688 127.147 16.4163C127.646 16.517 128.072 16.6166 128.425 16.7151C128.796 16.8212 129.159 16.9553 129.51 17.1162C129.838 17.2565 130.143 17.4469 130.412 17.6804C130.655 17.9061 130.855 18.1745 131 18.4719C131.168 18.813 131.264 19.1841 131.284 19.5629C131.365 20.7537 131.024 21.6954 130.259 22.388C129.495 23.0806 128.423 23.473 127.045 23.5652C125.077 23.6958 123.3 23.2579 121.714 22.2516Z" fill="white"/>
</svg>
