<svg width="317" height="637" viewBox="0 0 317 637" fill="none" xmlns="http://www.w3.org/2000/svg">
<mask id="path-1-inside-1_1927_72" fill="white">
<path d="M530.402 18.3309C449.667 -6.4685 363.242 -5.71739 282.95 20.4815C202.658 46.6804 132.422 97.0473 81.8508 164.691C31.2796 232.335 2.84365 313.952 0.433316 398.376C-1.97702 482.8 21.756 565.906 68.3854 636.325L342.985 454.494C333.829 440.668 329.17 424.351 329.643 407.775C330.116 391.199 335.699 375.175 345.628 361.893C355.558 348.612 369.348 338.723 385.112 333.579C400.877 328.435 417.846 328.288 433.697 333.157L530.402 18.3309Z"/>
</mask>
<path d="M530.402 18.3309C449.667 -6.4685 363.242 -5.71739 282.95 20.4815C202.658 46.6804 132.422 97.0473 81.8508 164.691C31.2796 232.335 2.84365 313.952 0.433316 398.376C-1.97702 482.8 21.756 565.906 68.3854 636.325L342.985 454.494C333.829 440.668 329.17 424.351 329.643 407.775C330.116 391.199 335.699 375.175 345.628 361.893C355.558 348.612 369.348 338.723 385.112 333.579C400.877 328.435 417.846 328.288 433.697 333.157L530.402 18.3309Z" stroke="#FEC830" stroke-width="600" mask="url(#path-1-inside-1_1927_72)"/>
</svg>
