<svg width="234" height="664" viewBox="0 0 234 664" fill="none" xmlns="http://www.w3.org/2000/svg">
<mask id="path-1-inside-1_1925_210" fill="white">
<path d="M145.877 663.15C197.978 596.677 228.27 515.731 232.606 431.384C236.943 347.038 215.113 263.411 170.103 191.946C125.093 120.481 59.1019 64.6679 -18.8423 32.1432C-96.7865 -0.381553 -182.876 -8.02938 -265.333 10.246L-194.068 331.787C-177.879 328.199 -160.976 329.7 -145.672 336.086C-130.369 342.472 -117.412 353.431 -108.575 367.462C-99.7374 381.494 -95.4513 397.913 -96.3028 414.473C-97.1542 431.034 -103.102 446.927 -113.331 459.978L145.877 663.15Z"/>
</mask>
<path d="M145.877 663.15C197.978 596.677 228.27 515.731 232.606 431.384C236.943 347.038 215.113 263.411 170.103 191.946C125.093 120.481 59.1019 64.6679 -18.8423 32.1432C-96.7865 -0.381553 -182.876 -8.02938 -265.333 10.246L-194.068 331.787C-177.879 328.199 -160.976 329.7 -145.672 336.086C-130.369 342.472 -117.412 353.431 -108.575 367.462C-99.7374 381.494 -95.4513 397.913 -96.3028 414.473C-97.1542 431.034 -103.102 446.927 -113.331 459.978L145.877 663.15Z" stroke="#FEC830" stroke-width="600" mask="url(#path-1-inside-1_1925_210)"/>
</svg>
