<svg width="322" height="513" viewBox="0 0 322 513" fill="none" xmlns="http://www.w3.org/2000/svg">
<circle r="3.62079" transform="matrix(-0.989971 -0.141268 -0.141268 0.989971 305.715 111.682)" fill="#FEC830"/>
<circle r="3.62079" transform="matrix(-0.989971 -0.141268 -0.141268 0.989971 283.595 123.155)" fill="#FEC830"/>
<circle r="3.62079" transform="matrix(-0.989971 -0.141268 -0.141268 0.989971 269.87 106.567)" fill="#FEC830"/>
<circle r="3.62079" transform="matrix(-0.989971 -0.141268 -0.141268 0.989971 267.007 136.881)" fill="#FEC830"/>
<circle r="3.62079" transform="matrix(-0.989971 -0.141268 -0.141268 0.989971 251.847 120.087)" fill="#FEC830"/>
<circle r="3.62079" transform="matrix(-0.989971 -0.141268 -0.141268 0.989971 246.936 144.258)" fill="#FEC830"/>
<circle r="3.62079" transform="matrix(-0.989971 -0.141268 -0.141268 0.989971 226.041 126.646)" fill="#FEC830"/>
<circle r="3.62079" transform="matrix(-0.989971 -0.141268 -0.141268 0.989971 215.187 141.19)" fill="#FEC830"/>
<circle r="3.62079" transform="matrix(-0.989971 -0.141268 -0.141268 0.989971 196.756 157.579)" fill="#FEC830"/>
<circle r="3.62079" transform="matrix(-0.989971 -0.141268 -0.141268 0.989971 194.096 176.218)" fill="#FEC830"/>
<circle r="3.62079" transform="matrix(-0.989971 -0.141268 -0.141268 0.989971 164.192 180.729)" fill="#FEC830"/>
<circle r="3.62079" transform="matrix(-0.989971 -0.141268 -0.141268 0.989971 153.339 195.273)" fill="#FEC830"/>
<circle r="3.62079" transform="matrix(-0.989971 -0.141268 -0.141268 0.989971 174.642 199.776)" fill="#FEC830"/>
<circle r="3.62079" transform="matrix(-0.989971 -0.141268 -0.141268 0.989971 206.183 194.036)" fill="#FEC830"/>
<circle r="3.62079" transform="matrix(-0.989971 -0.141268 -0.141268 0.989971 209.252 172.529)" fill="#FEC830"/>
<circle r="3.62079" transform="matrix(-0.989971 -0.141268 -0.141268 0.989971 232.191 165.561)" fill="#FEC830"/>
<circle r="3.62079" transform="matrix(-0.989971 -0.141268 -0.141268 0.989971 247.552 160.438)" fill="#FEC830"/>
<circle r="3.62079" transform="matrix(-0.989971 -0.141268 -0.141268 0.989971 255.132 168.835)" fill="#FEC830"/>
<circle r="3.62079" transform="matrix(-0.989971 -0.141268 -0.141268 0.989971 271.722 165.35)" fill="#FEC830"/>
<circle r="3.62079" transform="matrix(-0.989971 -0.141268 -0.141268 0.989971 290.975 163.709)" fill="#FEC830"/>
<circle r="3.62079" transform="matrix(-0.989971 -0.141268 -0.141268 0.989971 306.947 133.802)" fill="#FEC830"/>
<circle r="3.62079" transform="matrix(-0.989971 -0.141268 -0.141268 0.989971 314.937 149.572)" fill="#FEC830"/>
<circle r="3.62079" transform="matrix(-0.989971 -0.141268 -0.141268 0.989971 322.931 185.825)" fill="#FEC830"/>
<circle r="3.62079" transform="matrix(-0.989971 -0.141268 -0.141268 0.989971 298.966 179.479)" fill="#FEC830"/>
<circle r="3.62079" transform="matrix(-0.989971 -0.141268 -0.141268 0.989971 303.27 200.575)" fill="#FEC830"/>
<circle r="3.62079" transform="matrix(-0.989971 -0.141268 -0.141268 0.989971 274.185 199.35)" fill="#FEC830"/>
<circle r="3.62079" transform="matrix(-0.989971 -0.141268 -0.141268 0.989971 246.123 190.957)" fill="#FEC830"/>
<circle r="3.62079" transform="matrix(-0.989971 -0.141268 -0.141268 0.989971 248.994 211.849)" fill="#FEC830"/>
<circle r="3.62079" transform="matrix(-0.989971 -0.141268 -0.141268 0.989971 279.103 216.145)" fill="#FEC830"/>
<circle r="3.62079" transform="matrix(-0.989971 -0.141268 -0.141268 0.989971 283.611 225.567)" fill="#FEC830"/>
<circle r="3.62079" transform="matrix(-0.989971 -0.141268 -0.141268 0.989971 300.817 228.022)" fill="#FEC830"/>
<circle r="3.62079" transform="matrix(-0.989971 -0.141268 -0.141268 0.989971 322.733 228.223)" fill="#FEC830"/>
<circle r="3.62079" transform="matrix(-0.989971 -0.141268 -0.141268 0.989971 325.196 262.223)" fill="#FEC830"/>
<circle r="3.62079" transform="matrix(-0.989971 -0.141268 -0.141268 0.989971 306.76 247.888)" fill="#FEC830"/>
<circle r="3.62079" transform="matrix(-0.989971 -0.141268 -0.141268 0.989971 276.239 236.218)" fill="#FEC830"/>
<circle r="3.62079" transform="matrix(-0.989971 -0.141268 -0.141268 0.989971 267.228 237.858)" fill="#FEC830"/>
<circle r="3.62079" transform="matrix(-0.989971 -0.141268 -0.141268 0.989971 247.157 255.476)" fill="#FEC830"/>
<circle r="3.62079" transform="matrix(-0.989971 -0.141268 -0.141268 0.989971 233.022 241.755)" fill="#FEC830"/>
<circle r="3.62079" transform="matrix(-0.989971 -0.141268 -0.141268 0.989971 218.475 210.42)" fill="#FEC830"/>
<circle r="3.62079" transform="matrix(-0.989971 -0.141268 -0.141268 0.989971 211.925 235.819)" fill="#FEC830"/>
<circle r="3.62079" transform="matrix(-0.989971 -0.141268 -0.141268 0.989971 197.585 223.532)" fill="#FEC830"/>
<circle r="3.62079" transform="matrix(-0.989971 -0.141268 -0.141268 0.989971 175.669 223.33)" fill="#FEC830"/>
<circle r="3.62079" transform="matrix(-0.989971 -0.141268 -0.141268 0.989971 152.935 228.864)" fill="#FEC830"/>
<circle r="3.62079" transform="matrix(-0.989971 -0.141268 -0.141268 0.989971 140.233 215.347)" fill="#FEC830"/>
<circle r="3.62079" transform="matrix(-0.989971 -0.141268 -0.141268 0.989971 140.233 215.347)" fill="#FEC830"/>
<circle r="3.62079" transform="matrix(-0.989971 -0.141268 -0.141268 0.989971 135.528 248.324)" fill="#FEC830"/>
<circle r="3.62079" transform="matrix(-0.989971 -0.141268 -0.141268 0.989971 140.448 275.361)" fill="#FEC830"/>
<circle r="3.62079" transform="matrix(-0.989971 -0.141268 -0.141268 0.989971 138.401 289.698)" fill="#FEC830"/>
<circle r="3.62079" transform="matrix(-0.989971 -0.141268 -0.141268 0.989971 137.585 305.675)" fill="#FEC830"/>
<circle r="3.62079" transform="matrix(-0.989971 -0.141268 -0.141268 0.989971 137.585 305.675)" fill="#FEC830"/>
<circle r="3.62079" transform="matrix(-0.989971 -0.141268 -0.141268 0.989971 156.636 325.949)" fill="#FEC830"/>
<circle r="3.62079" transform="matrix(-0.989971 -0.141268 -0.141268 0.989971 183.873 299.113)" fill="#FEC830"/>
<circle r="3.62079" transform="matrix(-0.989971 -0.141268 -0.141268 0.989971 193.697 250.773)" fill="#FEC830"/>
<circle r="3.62079" transform="matrix(-0.989971 -0.141268 -0.141268 0.989971 192.472 269.618)" fill="#FEC830"/>
<circle r="3.62079" transform="matrix(-0.989971 -0.141268 -0.141268 0.989971 309.929 98.4089)" fill="#FEC830"/>
<circle r="3.62079" transform="matrix(-0.989971 -0.141268 -0.141268 0.989971 232.413 276.78)" fill="#FEC830"/>
<circle r="3.62079" transform="matrix(-0.989971 -0.141268 -0.141268 0.989971 270.509 266.123)" fill="#FEC830"/>
<circle r="3.62079" transform="matrix(-0.989971 -0.141268 -0.141268 0.989971 284.436 260.796)" fill="#FEC830"/>
<circle r="3.62079" transform="matrix(-0.989971 -0.141268 -0.141268 0.989971 299.8 276.155)" fill="#FEC830"/>
<circle r="3.62079" transform="matrix(-0.989971 -0.141268 -0.141268 0.989971 314.344 287.009)" fill="#FEC830"/>
<circle r="3.62079" transform="matrix(-0.989971 -0.141268 -0.141268 0.989971 320.907 343.539)" fill="#FEC830"/>
<circle r="3.62079" transform="matrix(-0.989971 -0.141268 -0.141268 0.989971 307.384 315.275)" fill="#FEC830"/>
<circle r="3.62079" transform="matrix(-0.989971 -0.141268 -0.141268 0.989971 282.598 294.182)" fill="#FEC830"/>
<circle r="3.62079" transform="matrix(-0.989971 -0.141268 -0.141268 0.989971 283.421 319.17)" fill="#FEC830"/>
<circle r="3.62079" transform="matrix(-0.989971 -0.141268 -0.141268 0.989971 263.551 304.631)" fill="#FEC830"/>
<circle r="3.62079" transform="matrix(-0.989971 -0.141268 -0.141268 0.989971 241.428 295.622)" fill="#FEC830"/>
<circle r="3.62079" transform="matrix(-0.989971 -0.141268 -0.141268 0.989971 245.527 307.911)" fill="#FEC830"/>
<circle r="3.62079" transform="matrix(-0.989971 -0.141268 -0.141268 0.989971 222.382 306.072)" fill="#FEC830"/>
<circle r="3.62079" transform="matrix(-0.989971 -0.141268 -0.141268 0.989971 201.901 316.316)" fill="#FEC830"/>
<circle r="3.62079" transform="matrix(-0.989971 -0.141268 -0.141268 0.989971 300.014 336.169)" fill="#FEC830"/>
<circle r="3.62079" transform="matrix(-0.989971 -0.141268 -0.141268 0.989971 260.482 326.138)" fill="#FEC830"/>
<circle r="3.62079" transform="matrix(-0.989971 -0.141268 -0.141268 0.989971 230.987 327.781)" fill="#FEC830"/>
<circle r="3.62079" transform="matrix(-0.989971 -0.141268 -0.141268 0.989971 198.216 331.883)" fill="#FEC830"/>
<circle r="3.62079" transform="matrix(-0.989971 -0.141268 -0.141268 0.989971 321.526 369.961)" fill="#FEC830"/>
<circle r="3.62079" transform="matrix(-0.989971 -0.141268 -0.141268 0.989971 302.065 352.554)" fill="#FEC830"/>
<circle r="3.62079" transform="matrix(-0.989971 -0.141268 -0.141268 0.989971 275.436 344.365)" fill="#FEC830"/>
<circle r="3.62079" transform="matrix(-0.989971 -0.141268 -0.141268 0.989971 312.726 421.373)" fill="#FEC830"/>
<circle r="3.62079" transform="matrix(-0.989971 -0.141268 -0.141268 0.989971 306.788 432.229)" fill="#FEC830"/>
<circle r="3.62079" transform="matrix(-0.989971 -0.141268 -0.141268 0.989971 299.821 409.29)" fill="#FEC830"/>
<circle r="3.62079" transform="matrix(-0.989971 -0.141268 -0.141268 0.989971 282.207 419.944)" fill="#FEC830"/>
<circle r="3.62079" transform="matrix(-0.989971 -0.141268 -0.141268 0.989971 292.033 381.845)" fill="#FEC830"/>
<circle r="3.62079" transform="matrix(-0.989971 -0.141268 -0.141268 0.989971 280.975 397.823)" fill="#FEC830"/>
<circle r="3.62079" transform="matrix(-0.989971 -0.141268 -0.141268 0.989971 273.596 367.51)" fill="#FEC830"/>
<circle r="3.62079" transform="matrix(-0.989971 -0.141268 -0.141268 0.989971 257.619 356.452)" fill="#FEC830"/>
<circle r="3.62079" transform="matrix(-0.989971 -0.141268 -0.141268 0.989971 254.756 386.767)" fill="#FEC830"/>
<circle r="3.62079" transform="matrix(-0.989971 -0.141268 -0.141268 0.989971 257.011 401.718)" fill="#FEC830"/>
<circle r="3.62079" transform="matrix(-0.989971 -0.141268 -0.141268 0.989971 238.777 365.467)" fill="#FEC830"/>
<circle r="3.62079" transform="matrix(-0.989971 -0.141268 -0.141268 0.989971 227.918 349.288)" fill="#FEC830"/>
<circle r="3.62079" transform="matrix(-0.989971 -0.141268 -0.141268 0.989971 208.87 349.496)" fill="#FEC830"/>
<circle r="3.62079" transform="matrix(-0.989971 -0.141268 -0.141268 0.989971 196.375 344.787)" fill="#FEC830"/>
<circle r="3.62079" transform="matrix(-0.989971 -0.141268 -0.141268 0.989971 237.553 404.794)" fill="#FEC830"/>
<circle r="3.62079" transform="matrix(-0.989971 -0.141268 -0.141268 0.989971 231.406 386.36)" fill="#FEC830"/>
<circle r="3.62079" transform="matrix(-0.989971 -0.141268 -0.141268 0.989971 219.319 368.543)" fill="#FEC830"/>
<circle r="3.62079" transform="matrix(-0.989971 -0.141268 -0.141268 0.989971 204.164 382.473)" fill="#FEC830"/>
<circle r="3.62079" transform="matrix(-0.989971 -0.141268 -0.141268 0.989971 225.267 419.133)" fill="#FEC830"/>
<circle r="3.62079" transform="matrix(-0.989971 -0.141268 -0.141268 0.989971 179.991 357.079)" fill="#FEC830"/>
<circle r="3.62079" transform="matrix(-0.989971 -0.141268 -0.141268 0.989971 172.821 345.815)" fill="#FEC830"/>
<circle r="3.62079" transform="matrix(-0.989971 -0.141268 -0.141268 0.989971 150.085 341.107)" fill="#FEC830"/>
<circle r="3.62079" transform="matrix(-0.989971 -0.141268 -0.141268 0.989971 185.729 378.379)" fill="#FEC830"/>
<circle r="3.62079" transform="matrix(-0.989971 -0.141268 -0.141268 0.989971 165.246 368.142)" fill="#FEC830"/>
<circle r="3.62079" transform="matrix(-0.989971 -0.141268 -0.141268 0.989971 173.63 278.633)" fill="#FEC830"/>
<circle r="3.62079" transform="matrix(-0.989971 -0.141268 -0.141268 0.989971 159.295 297.069)" fill="#FEC830"/>
<circle r="3.62079" transform="matrix(-0.989971 -0.141268 -0.141268 0.989971 167.071 252.826)" fill="#FEC830"/>
</svg>
