<svg width="326" height="517" viewBox="0 0 326 517" fill="none" xmlns="http://www.w3.org/2000/svg">
<circle r="3.62079" transform="matrix(0.980633 0.195855 0.195855 -0.980633 7.59747 399.386)" fill="#FEC830"/>
<circle r="3.62079" transform="matrix(0.980633 0.195855 0.195855 -0.980633 30.3177 389.155)" fill="#FEC830"/>
<circle r="3.62079" transform="matrix(0.980633 0.195855 0.195855 -0.980633 43.1041 406.478)" fill="#FEC830"/>
<circle r="3.62079" transform="matrix(0.980633 0.195855 0.195855 -0.980633 47.6407 376.369)" fill="#FEC830"/>
<circle r="3.62079" transform="matrix(0.980633 0.195855 0.195855 -0.980633 61.8475 393.975)" fill="#FEC830"/>
<circle r="3.62079" transform="matrix(0.980633 0.195855 0.195855 -0.980633 68.0897 370.114)" fill="#FEC830"/>
<circle r="3.62079" transform="matrix(0.980633 0.195855 0.195855 -0.980633 87.9776 388.856)" fill="#FEC830"/>
<circle r="3.62079" transform="matrix(0.980633 0.195855 0.195855 -0.980633 99.6194 374.935)" fill="#FEC830"/>
<circle r="3.62079" transform="matrix(0.980633 0.195855 0.195855 -0.980633 118.93 359.591)" fill="#FEC830"/>
<circle r="3.62079" transform="matrix(0.980633 0.195855 0.195855 -0.980633 122.618 341.128)" fill="#FEC830"/>
<circle r="3.62079" transform="matrix(0.980633 0.195855 0.195855 -0.980633 152.725 338.28)" fill="#FEC830"/>
<circle r="3.62079" transform="matrix(0.980633 0.195855 0.195855 -0.980633 164.367 324.359)" fill="#FEC830"/>
<circle r="3.62079" transform="matrix(0.980633 0.195855 0.195855 -0.980633 143.346 318.684)" fill="#FEC830"/>
<circle r="3.62079" transform="matrix(0.980633 0.195855 0.195855 -0.980633 111.535 322.668)" fill="#FEC830"/>
<circle r="3.62079" transform="matrix(0.980633 0.195855 0.195855 -0.980633 107.281 343.973)" fill="#FEC830"/>
<circle r="3.62079" transform="matrix(0.980633 0.195855 0.195855 -0.980633 83.991 349.66)" fill="#FEC830"/>
<circle r="3.62079" transform="matrix(0.980633 0.195855 0.195855 -0.980633 68.3699 353.924)" fill="#FEC830"/>
<circle r="3.62079" transform="matrix(0.980633 0.195855 0.195855 -0.980633 61.2667 345.121)" fill="#FEC830"/>
<circle r="3.62079" transform="matrix(0.980633 0.195855 0.195855 -0.980633 44.5088 347.682)" fill="#FEC830"/>
<circle r="3.62079" transform="matrix(0.980633 0.195855 0.195855 -0.980633 25.1941 348.255)" fill="#FEC830"/>
<circle r="3.62079" transform="matrix(0.980633 0.195855 0.195855 -0.980633 7.59161 377.232)" fill="#FEC830"/>
<circle r="3.62079" transform="matrix(0.980633 0.195855 0.195855 -0.980633 0.486382 361.043)" fill="#FEC830"/>
<circle r="3.62079" transform="matrix(0.980633 0.195855 0.195855 -0.980633 18.0892 332.067)" fill="#FEC830"/>
<circle r="3.62079" transform="matrix(0.980633 0.195855 0.195855 -0.980633 14.959 310.765)" fill="#FEC830"/>
<circle r="3.62079" transform="matrix(0.980633 0.195855 0.195855 -0.980633 43.9319 313.597)" fill="#FEC830"/>
<circle r="3.62079" transform="matrix(0.980633 0.195855 0.195855 -0.980633 71.4861 323.531)" fill="#FEC830"/>
<circle r="3.62079" transform="matrix(0.980633 0.195855 0.195855 -0.980633 69.7759 302.513)" fill="#FEC830"/>
<circle r="3.62079" transform="matrix(0.980633 0.195855 0.195855 -0.980633 39.9505 296.556)" fill="#FEC830"/>
<circle r="3.62079" transform="matrix(0.980633 0.195855 0.195855 -0.980633 35.9715 286.9)" fill="#FEC830"/>
<circle r="3.62079" transform="matrix(0.980633 0.195855 0.195855 -0.980633 18.9283 283.496)" fill="#FEC830"/>
<circle r="3.62079" transform="matrix(0.980633 0.195855 0.195855 -0.980633 -2.94331 282.081)" fill="#FEC830"/>
<circle r="3.62079" transform="matrix(0.980633 0.195855 0.195855 -0.980633 -3.51997 247.997)" fill="#FEC830"/>
<circle r="3.62079" transform="matrix(0.980633 0.195855 0.195855 -0.980633 14.094 263.33)" fill="#FEC830"/>
<circle r="3.62079" transform="matrix(0.980633 0.195855 0.195855 -0.980633 43.9222 276.672)" fill="#FEC830"/>
<circle r="3.62079" transform="matrix(0.980633 0.195855 0.195855 -0.980633 53.0106 275.534)" fill="#FEC830"/>
<circle r="3.62079" transform="matrix(0.980633 0.195855 0.195855 -0.980633 74.0254 259.054)" fill="#FEC830"/>
<circle r="3.62079" transform="matrix(0.980633 0.195855 0.195855 -0.980633 87.3792 273.536)" fill="#FEC830"/>
<circle r="3.62079" transform="matrix(0.980633 0.195855 0.195855 -0.980633 100.169 305.629)" fill="#FEC830"/>
<circle r="3.62079" transform="matrix(0.980633 0.195855 0.195855 -0.980633 108.115 280.632)" fill="#FEC830"/>
<circle r="3.62079" transform="matrix(0.980633 0.195855 0.195855 -0.980633 121.753 293.694)" fill="#FEC830"/>
<circle r="3.62079" transform="matrix(0.980633 0.195855 0.195855 -0.980633 143.624 295.108)" fill="#FEC830"/>
<circle r="3.62079" transform="matrix(0.980633 0.195855 0.195855 -0.980633 166.63 290.841)" fill="#FEC830"/>
<circle r="3.62079" transform="matrix(0.980633 0.195855 0.195855 -0.980633 178.564 305.04)" fill="#FEC830"/>
<circle r="3.62079" transform="matrix(0.980633 0.195855 0.195855 -0.980633 178.564 305.04)" fill="#FEC830"/>
<circle r="3.62079" transform="matrix(0.980633 0.195855 0.195855 -0.980633 185.088 272.374)" fill="#FEC830"/>
<circle r="3.62079" transform="matrix(0.980633 0.195855 0.195855 -0.980633 181.672 245.107)" fill="#FEC830"/>
<circle r="3.62079" transform="matrix(0.980633 0.195855 0.195855 -0.980633 184.509 230.905)" fill="#FEC830"/>
<circle r="3.62079" transform="matrix(0.980633 0.195855 0.195855 -0.980633 186.209 214.998)" fill="#FEC830"/>
<circle r="3.62079" transform="matrix(0.980633 0.195855 0.195855 -0.980633 186.209 214.998)" fill="#FEC830"/>
<circle r="3.62079" transform="matrix(0.980633 0.195855 0.195855 -0.980633 168.309 193.7)" fill="#FEC830"/>
<circle r="3.62079" transform="matrix(0.980633 0.195855 0.195855 -0.980633 139.628 218.987)" fill="#FEC830"/>
<circle r="3.62079" transform="matrix(0.980633 0.195855 0.195855 -0.980633 127.143 266.709)" fill="#FEC830"/>
<circle r="3.62079" transform="matrix(0.980633 0.195855 0.195855 -0.980633 129.41 247.962)" fill="#FEC830"/>
<circle r="3.62079" transform="matrix(0.980633 0.195855 0.195855 -0.980633 2.65459 412.405)" fill="#FEC830"/>
<circle r="3.62079" transform="matrix(0.980633 0.195855 0.195855 -0.980633 89.9261 238.599)" fill="#FEC830"/>
<circle r="3.62079" transform="matrix(0.980633 0.195855 0.195855 -0.980633 51.2994 247.13)" fill="#FEC830"/>
<circle r="3.62079" transform="matrix(0.980633 0.195855 0.195855 -0.980633 37.0982 251.679)" fill="#FEC830"/>
<circle r="3.62079" transform="matrix(0.980633 0.195855 0.195855 -0.980633 22.6085 235.493)" fill="#FEC830"/>
<circle r="3.62079" transform="matrix(0.980633 0.195855 0.195855 -0.980633 8.68707 223.851)" fill="#FEC830"/>
<circle r="3.62079" transform="matrix(0.980633 0.195855 0.195855 -0.980633 5.26324 167.044)" fill="#FEC830"/>
<circle r="3.62079" transform="matrix(0.980633 0.195855 0.195855 -0.980633 17.2012 196.013)" fill="#FEC830"/>
<circle r="3.62079" transform="matrix(0.980633 0.195855 0.195855 -0.980633 40.782 218.445)" fill="#FEC830"/>
<circle r="3.62079" transform="matrix(0.980633 0.195855 0.195855 -0.980633 41.3436 193.45)" fill="#FEC830"/>
<circle r="3.62079" transform="matrix(0.980633 0.195855 0.195855 -0.980633 60.378 209.067)" fill="#FEC830"/>
<circle r="3.62079" transform="matrix(0.980633 0.195855 0.195855 -0.980633 81.9678 219.286)" fill="#FEC830"/>
<circle r="3.62079" transform="matrix(0.980633 0.195855 0.195855 -0.980633 78.5562 206.79)" fill="#FEC830"/>
<circle r="3.62079" transform="matrix(0.980633 0.195855 0.195855 -0.980633 101.564 209.908)" fill="#FEC830"/>
<circle r="3.62079" transform="matrix(0.980633 0.195855 0.195855 -0.980633 122.58 200.813)" fill="#FEC830"/>
<circle r="3.62079" transform="matrix(0.980633 0.195855 0.195855 -0.980633 25.7164 175.559)" fill="#FEC830"/>
<circle r="3.62079" transform="matrix(0.980633 0.195855 0.195855 -0.980633 64.6331 187.763)" fill="#FEC830"/>
<circle r="3.62079" transform="matrix(0.980633 0.195855 0.195855 -0.980633 94.1731 187.755)" fill="#FEC830"/>
<circle r="3.62079" transform="matrix(0.980633 0.195855 0.195855 -0.980633 127.121 185.474)" fill="#FEC830"/>
<circle r="3.62079" transform="matrix(0.980633 0.195855 0.195855 -0.980633 -4.1225 117.908)" fill="#FEC830"/>
<circle r="3.62079" transform="matrix(0.980633 0.195855 0.195855 -0.980633 6.1087 140.628)" fill="#FEC830"/>
<circle r="3.62079" transform="matrix(0.980633 0.195855 0.195855 -0.980633 24.576 159.085)" fill="#FEC830"/>
<circle r="3.62079" transform="matrix(0.980633 0.195855 0.195855 -0.980633 50.7103 168.736)" fill="#FEC830"/>
<circle r="3.62079" transform="matrix(0.980633 0.195855 0.195855 -0.980633 -0.439643 84.674)" fill="#FEC830"/>
<circle r="3.62079" transform="matrix(0.980633 0.195855 0.195855 -0.980633 17.7408 89.7819)" fill="#FEC830"/>
<circle r="3.62079" transform="matrix(0.980633 0.195855 0.195855 -0.980633 24.2706 79.2708)" fill="#FEC830"/>
<circle r="3.62079" transform="matrix(0.980633 0.195855 0.195855 -0.980633 29.9576 102.56)" fill="#FEC830"/>
<circle r="3.62079" transform="matrix(0.980633 0.195855 0.195855 -0.980633 48.1336 92.8983)" fill="#FEC830"/>
<circle r="3.62079" transform="matrix(0.980633 0.195855 0.195855 -0.980633 36.2137 130.395)" fill="#FEC830"/>
<circle r="3.62079" transform="matrix(0.980633 0.195855 0.195855 -0.980633 48.1392 115.053)" fill="#FEC830"/>
<circle r="3.62079" transform="matrix(0.980633 0.195855 0.195855 -0.980633 53.8287 145.728)" fill="#FEC830"/>
<circle r="3.62079" transform="matrix(0.980633 0.195855 0.195855 -0.980633 69.17 157.654)" fill="#FEC830"/>
<circle r="3.62079" transform="matrix(0.980633 0.195855 0.195855 -0.980633 73.7061 127.544)" fill="#FEC830"/>
<circle r="3.62079" transform="matrix(0.980633 0.195855 0.195855 -0.980633 72.282 112.491)" fill="#FEC830"/>
<circle r="3.62079" transform="matrix(0.980633 0.195855 0.195855 -0.980633 88.482 149.695)" fill="#FEC830"/>
<circle r="3.62079" transform="matrix(0.980633 0.195855 0.195855 -0.980633 98.4278 166.451)" fill="#FEC830"/>
<circle r="3.62079" transform="matrix(0.980633 0.195855 0.195855 -0.980633 117.459 167.298)" fill="#FEC830"/>
<circle r="3.62079" transform="matrix(0.980633 0.195855 0.195855 -0.980633 129.674 172.692)" fill="#FEC830"/>
<circle r="3.62079" transform="matrix(0.980633 0.195855 0.195855 -0.980633 91.8804 110.497)" fill="#FEC830"/>
<circle r="3.62079" transform="matrix(0.980633 0.195855 0.195855 -0.980633 96.9979 129.242)" fill="#FEC830"/>
<circle r="3.62079" transform="matrix(0.980633 0.195855 0.195855 -0.980633 108.08 147.702)" fill="#FEC830"/>
<circle r="3.62079" transform="matrix(0.980633 0.195855 0.195855 -0.980633 123.983 134.632)" fill="#FEC830"/>
<circle r="3.62079" transform="matrix(0.980633 0.195855 0.195855 -0.980633 104.942 96.8597)" fill="#FEC830"/>
<circle r="3.62079" transform="matrix(0.980633 0.195855 0.195855 -0.980633 146.713 161.325)" fill="#FEC830"/>
<circle r="3.62079" transform="matrix(0.980633 0.195855 0.195855 -0.980633 153.249 172.969)" fill="#FEC830"/>
<circle r="3.62079" transform="matrix(0.980633 0.195855 0.195855 -0.980633 175.69 178.928)" fill="#FEC830"/>
<circle r="3.62079" transform="matrix(0.980633 0.195855 0.195855 -0.980633 142.163 139.74)" fill="#FEC830"/>
<circle r="3.62079" transform="matrix(0.980633 0.195855 0.195855 -0.980633 162.048 151.096)" fill="#FEC830"/>
<circle r="3.62079" transform="matrix(0.980633 0.195855 0.195855 -0.980633 148.722 240.003)" fill="#FEC830"/>
<circle r="3.62079" transform="matrix(0.980633 0.195855 0.195855 -0.980633 164.056 222.389)" fill="#FEC830"/>
<circle r="3.62079" transform="matrix(0.980633 0.195855 0.195855 -0.980633 153.842 266.134)" fill="#FEC830"/>
</svg>
