<svg width="256" height="267" viewBox="0 0 256 267" fill="none" xmlns="http://www.w3.org/2000/svg">
<mask id="path-1-inside-1_1927_61" fill="white">
<path d="M246.027 266.641C258.738 226.44 258.718 183.293 245.969 143.104C233.22 102.915 208.366 67.6461 174.805 42.1232C141.245 16.6003 100.619 2.06993 58.4841 0.520026C16.3497 -1.02988 -25.2345 10.4764 -60.5793 33.4647L-14.4643 104.367C6.26791 90.8827 30.6601 84.1334 55.375 85.0426C80.0899 85.9517 103.92 94.4748 123.606 109.446C143.291 124.417 157.87 145.105 165.349 168.679C172.827 192.252 172.838 217.561 165.382 241.142L246.027 266.641Z"/>
</mask>
<path d="M246.027 266.641C258.738 226.44 258.718 183.293 245.969 143.104C233.22 102.915 208.366 67.6461 174.805 42.1232C141.245 16.6003 100.619 2.06993 58.4841 0.520026C16.3497 -1.02988 -25.2345 10.4764 -60.5793 33.4647L-14.4643 104.367C6.26791 90.8827 30.6601 84.1334 55.375 85.0426C80.0899 85.9517 103.92 94.4748 123.606 109.446C143.291 124.417 157.87 145.105 165.349 168.679C172.827 192.252 172.838 217.561 165.382 241.142L246.027 266.641Z" stroke="white" stroke-width="200" mask="url(#path-1-inside-1_1927_61)"/>
</svg>
