<svg width="170" height="170" viewBox="0 0 170 170" fill="none" xmlns="http://www.w3.org/2000/svg">
<circle cx="5" cy="5" r="5" fill="#FD5639" fill-opacity="0.7"/>
<circle cx="85" cy="5" r="5" fill="#FD5639" fill-opacity="0.7"/>
<circle cx="165" cy="5" r="5" fill="#FD5639" fill-opacity="0.7"/>
<circle cx="5" cy="45" r="5" fill="#FD5639" fill-opacity="0.7"/>
<circle cx="85" cy="45" r="5" fill="#FD5639" fill-opacity="0.7"/>
<circle cx="165" cy="45" r="5" fill="#FD5639" fill-opacity="0.7"/>
<circle cx="5" cy="85" r="5" fill="#FD5639" fill-opacity="0.7"/>
<circle cx="85" cy="85" r="5" fill="#FD5639" fill-opacity="0.7"/>
<circle cx="165" cy="85" r="5" fill="#FD5639" fill-opacity="0.7"/>
<circle cx="5" cy="125" r="5" fill="#FD5639" fill-opacity="0.7"/>
<circle cx="85" cy="125" r="5" fill="#FD5639" fill-opacity="0.7"/>
<circle cx="165" cy="125" r="5" fill="#FD5639" fill-opacity="0.7"/>
<circle cx="45" cy="125" r="5" fill="#FD5639" fill-opacity="0.7"/>
<circle cx="125" cy="125" r="5" fill="#FD5639" fill-opacity="0.7"/>
<circle cx="45" cy="85" r="5" fill="#FD5639" fill-opacity="0.7"/>
<circle cx="125" cy="85" r="5" fill="#FD5639" fill-opacity="0.7"/>
<circle cx="45" cy="45" r="5" fill="#FD5639" fill-opacity="0.7"/>
<circle cx="125" cy="45" r="5" fill="#FD5639" fill-opacity="0.7"/>
<circle cx="45" cy="5" r="5" fill="#FD5639" fill-opacity="0.7"/>
<circle cx="125" cy="5" r="5" fill="#FD5639" fill-opacity="0.7"/>
<circle cx="5" cy="165" r="5" fill="#FD5639" fill-opacity="0.7"/>
<circle cx="85" cy="165" r="5" fill="#FD5639" fill-opacity="0.7"/>
<circle cx="165" cy="165" r="5" fill="#FD5639" fill-opacity="0.7"/>
<circle cx="45" cy="165" r="5" fill="#FD5639" fill-opacity="0.7"/>
<circle cx="125" cy="165" r="5" fill="#FD5639" fill-opacity="0.7"/>
</svg>
