<svg width="252" height="303" viewBox="0 0 252 303" fill="none" xmlns="http://www.w3.org/2000/svg">
<circle cx="100.5" cy="8.91176" r="8.91176" fill="white"/>
<circle cx="243.088" cy="8.91176" r="8.91176" fill="white"/>
<circle cx="100.5" cy="80.2062" r="8.91176" fill="white"/>
<circle cx="243.088" cy="80.2062" r="8.91176" fill="white"/>
<circle cx="100.5" cy="151.5" r="8.91176" fill="white"/>
<circle cx="243.088" cy="151.5" r="8.91176" fill="white"/>
<circle cx="100.5" cy="222.794" r="8.91176" fill="white"/>
<circle cx="243.088" cy="222.794" r="8.91176" fill="white"/>
<circle cx="29.2057" cy="222.794" r="8.91176" fill="white"/>
<circle cx="171.794" cy="222.794" r="8.91176" fill="white"/>
<circle cx="29.2057" cy="151.5" r="8.91176" fill="white"/>
<circle cx="171.794" cy="151.5" r="8.91176" fill="white"/>
<circle cx="29.2057" cy="80.2062" r="8.91176" fill="white"/>
<circle cx="171.794" cy="80.2062" r="8.91176" fill="white"/>
<circle cx="29.2057" cy="8.91176" r="8.91176" fill="white"/>
<circle cx="171.794" cy="8.91176" r="8.91176" fill="white"/>
<circle cx="100.5" cy="294.089" r="8.91176" fill="white"/>
<circle cx="243.088" cy="294.089" r="8.91176" fill="white"/>
<circle cx="29.2057" cy="294.089" r="8.91176" fill="white"/>
<circle cx="171.794" cy="294.089" r="8.91176" fill="white"/>
</svg>
