<svg width="443" height="443" viewBox="0 0 443 443" fill="none" xmlns="http://www.w3.org/2000/svg">
<mask id="path-1-inside-1_2005_6" fill="white">
<path d="M419.412 271.469C429.794 230.604 427.296 187.53 412.261 148.139C397.225 108.748 370.386 74.9649 335.416 51.4112C300.445 27.8575 259.051 15.684 216.897 16.5562C174.743 17.4283 133.889 31.3035 99.9222 56.2834L150.032 124.421C169.956 109.768 193.921 101.629 218.647 101.118C243.373 100.606 267.654 107.747 288.166 121.563C308.679 135.379 324.422 155.195 333.242 178.301C342.061 201.406 343.526 226.673 337.436 250.643L419.412 271.469Z"/>
</mask>
<path d="M419.412 271.469C429.794 230.604 427.296 187.53 412.261 148.139C397.225 108.748 370.386 74.9649 335.416 51.4112C300.445 27.8575 259.051 15.684 216.897 16.5562C174.743 17.4283 133.889 31.3035 99.9222 56.2834L150.032 124.421C169.956 109.768 193.921 101.629 218.647 101.118C243.373 100.606 267.654 107.747 288.166 121.563C308.679 135.379 324.422 155.195 333.242 178.301C342.061 201.406 343.526 226.673 337.436 250.643L419.412 271.469Z" stroke="#FEC830" stroke-width="200" mask="url(#path-1-inside-1_2005_6)"/>
<rect x="99" y="217.478" width="76.3397" height="143.919" transform="rotate(-43.4265 99 217.478)" fill="#AA43A2"/>
<rect x="272.1" y="165.002" width="76.3397" height="143.919" transform="rotate(45 272.1 165.002)" fill="#AA43A2"/>
</svg>
