<svg width="288" height="384" viewBox="0 0 288 384" fill="none" xmlns="http://www.w3.org/2000/svg">
<path opacity="0.08" d="M516.963 44.6561C536.472 77.4481 505.449 142.048 470.269 211.895C435.088 281.742 396.07 356.836 351.615 359.787C307.159 363.066 257.267 294.531 213.451 219.437C169.316 144.344 130.937 62.6917 155.883 26.9484C180.829 -9.12273 268.78 1.04279 348.097 6.2895C427.413 11.5362 497.454 12.1921 516.963 44.6561Z" fill="white"/>
<path opacity="0.08" d="M336.87 480.169C306.284 502.485 240.791 475.804 169.855 445.29C98.9196 414.776 22.5653 380.754 16.3272 335.761C9.76855 290.793 73.0056 234.879 143.112 184.65C213.195 134.097 290.123 88.9035 326.948 111.58C364.092 134.232 360.788 224.454 361.641 305.522C362.494 386.589 367.135 457.877 336.87 480.169Z" fill="white"/>
</svg>
