<svg aria-hidden="true" style="position: absolute; width: 0; height: 0; overflow: hidden;" version="1.1" xmlns="http://www.w3.org/2000/svg" xmlns:xlink="http://www.w3.org/1999/xlink">
<defs>
<symbol id="fb" viewBox="0 0 32 32" >
<path fill-rule="evenodd" clip-rule="evenodd" d="M16.0715 4C22.7422 4 28.1431 9.40089 28.1431 16.0715C28.1431 22.0984 23.7258 27.1058 17.9493 28V19.5768H20.757L21.2936 16.0894H21.2908L21.2936 16.0715H17.9493V13.8041C17.9539 12.8611 18.4217 11.9404 19.9165 11.9404H21.4366V11.9225H21.4367V8.9538C21.4367 8.9538 20.0596 8.72131 18.7362 8.72131C15.984 8.72131 14.1783 10.4001 14.1759 13.4186C14.1758 13.4266 14.1758 13.4346 14.1758 13.4426V16.0894H11.1177V16.1073H11.1177V19.5768L11.1177 19.5768L14.1758 19.5768V27.9972C8.40816 27.0776 4 22.0921 4 16.0715C4 9.40089 9.40089 4 16.0715 4Z" />
</symbol>
<!-- <symbol id="fb" viewBox="0 0 32 32">
<path d="M28.444 16.34c0-7.078-5.792-12.822-12.929-12.822s-12.929 5.745-12.929 12.821c0 6.206 4.447 11.375 10.343 12.567v-8.721h-2.585v-3.847h2.585v-3.206c0-2.475 2.031-4.488 4.526-4.488h3.232v3.847h-2.585c-0.712 0-1.294 0.577-1.294 1.283v2.564h3.879v3.847h-3.879v8.912c6.53-0.64 11.636-6.103 11.636-12.758z"></path>
</symbol> -->
<symbol id="insta" viewBox="0 0 32 32" >
<path d="M16 6.17412C19.1906 6.17412 19.5859 6.17412 20.8565 6.23059C22.0141 6.28706 22.6635 6.48471 23.0871 6.65412C23.6518 6.88 24.0471 7.13412 24.4706 7.55765C24.8941 7.98118 25.1482 8.37647 25.3741 8.94118C25.5435 9.36471 25.7412 9.98588 25.7977 11.1718C25.8541 12.4424 25.8541 12.8094 25.8541 16.0282C25.8541 19.2188 25.8541 19.6141 25.7977 20.8847C25.7412 22.0424 25.5435 22.6918 25.3741 23.1153C25.1482 23.68 24.8941 24.0753 24.4706 24.4988C24.0471 24.9224 23.6518 25.1765 23.0871 25.4024C22.6635 25.5718 22.0424 25.7694 20.8565 25.8259C19.5859 25.8824 19.2188 25.8824 16 25.8824C12.8094 25.8824 12.4141 25.8824 11.1435 25.8259C9.98588 25.7694 9.33648 25.5718 8.91295 25.4024C8.34824 25.1765 7.95294 24.9224 7.52941 24.4988C7.10588 24.0753 6.85176 23.68 6.62588 23.1153C6.45647 22.6918 6.25882 22.0706 6.20235 20.8847C6.14588 19.6141 6.14588 19.2471 6.14588 16.0282C6.14588 12.8376 6.14588 12.4424 6.20235 11.1718C6.25882 10.0141 6.45647 9.36471 6.62588 8.94118C6.85176 8.37647 7.10588 7.98118 7.52941 7.55765C7.95294 7.13412 8.34824 6.88 8.91295 6.65412C9.33648 6.48471 9.95764 6.28706 11.1435 6.23059C12.4141 6.17412 12.8094 6.17412 16 6.17412ZM16 4C12.7529 4 12.3294 4 11.0588 4.08471C9.78824 4.14118 8.91294 4.33882 8.15059 4.64941C7.36 4.96 6.68236 5.3553 6.03294 6.03294C5.3553 6.71059 4.96 7.36 4.64941 8.15059C4.33882 8.91294 4.14117 9.78824 4.0847 11.0588C4.02823 12.3294 4 12.7529 4 16C4 19.2471 4 19.6706 4.0847 20.9412C4.14117 22.2118 4.33882 23.0871 4.64941 23.8494C4.96 24.64 5.3553 25.3177 6.03294 25.9671C6.71059 26.6447 7.36 27.04 8.15059 27.3506C8.91294 27.6612 9.78824 27.8588 11.0588 27.9153C12.3294 27.9718 12.7529 28 16 28C19.2471 28 19.6706 28 20.9412 27.9153C22.2118 27.8588 23.0871 27.6612 23.8494 27.3506C24.64 27.04 25.3176 26.6447 25.9671 25.9671C26.6447 25.2894 27.04 24.64 27.3506 23.8494C27.6612 23.0871 27.8588 22.2118 27.9153 20.9412C27.9718 19.6706 28 19.2471 28 16C28 12.7529 28 12.3294 27.9153 11.0588C27.8588 9.78824 27.6612 8.91294 27.3506 8.15059C27.04 7.36 26.6447 6.68236 25.9671 6.03294C25.2894 5.3553 24.64 4.96 23.8494 4.64941C23.0871 4.33882 22.2118 4.14118 20.9412 4.08471C19.6706 4.02824 19.2471 4 16 4Z"/>
<path d="M16 9.84473C12.5835 9.84473 9.84473 12.6118 9.84473 16C9.84473 19.4165 12.6118 22.1553 16 22.1553C19.4165 22.1553 22.1553 19.3883 22.1553 16C22.1553 12.6118 19.4165 9.84473 16 9.84473ZM16 20.0094C13.7977 20.0094 11.9906 18.2306 11.9906 16C11.9906 13.7694 13.7694 11.9906 16 11.9906C18.2306 11.9906 20.0094 13.7694 20.0094 16C20.0094 18.2306 18.2024 20.0094 16 20.0094Z"/>
<path d="M22.4092 11.0588C23.2045 11.0588 23.8492 10.4141 23.8492 9.61883C23.8492 8.82354 23.2045 8.17883 22.4092 8.17883C21.614 8.17883 20.9692 8.82354 20.9692 9.61883C20.9692 10.4141 21.614 11.0588 22.4092 11.0588Z"/>
</symbol>
<!-- <symbol id="insta" viewBox="0 0 32 32">
<path  d="M20.242 3.838h-9.455c-4.351 0-7.879 3.5-7.879 7.815v9.377c0 4.315 3.528 7.814 7.879 7.814h9.455c4.351 0 7.879-3.499 7.879-7.814v-9.377c0-4.315-3.528-7.813-7.879-7.813zM25.758 21.029c0 3.016-2.475 5.469-5.516 5.469h-9.455c-3.041 0-5.516-2.453-5.516-5.469v-9.377c0-3.016 2.475-5.469 5.516-5.469h9.455c3.041 0 5.516 2.453 5.516 5.469v9.377z"></path>
<path d="M15.515 10.090c-3.481 0-6.303 2.799-6.303 6.251s2.822 6.252 6.303 6.252 6.303-2.8 6.303-6.252-2.822-6.251-6.303-6.251zM15.515 20.247c-2.172 0-3.94-1.753-3.94-3.907s1.769-3.907 3.94-3.907c2.172 0 3.94 1.752 3.94 3.908 0 2.153-1.769 3.906-3.94 3.906zM22.291 10.453c0.001 0 0.003 0 0.004 0 0.461 0 0.834-0.373 0.836-0.833v-0c-0.003-0.46-0.376-0.832-0.837-0.832-0.001 0-0.002 0-0.003 0h0c-0.001 0-0.002 0-0.003 0-0.46 0-0.834 0.372-0.837 0.832v0c0 0.461 0.375 0.834 0.84 0.834z"></path>
</symbol> -->
<symbol id="ln" viewBox="0 0 32 32" >
	<path
		d="M17.2436 14.1227C17.5731 13.7622 17.8428 13.3718 18.2023 13.0413C19.251 12.0501 20.4795 11.5395 21.9477 11.5695C22.7567 11.5695 23.5357 11.6296 24.2848 11.8699C26.0526 12.3805 27.0713 13.582 27.5507 15.3242C27.9102 16.6158 27.9702 17.9375 28.0001 19.2591C28.0001 22.0526 28.0001 24.8461 28.0001 27.6696C28.0001 27.94 27.9402 28 27.6705 28C26.2323 28 24.7941 28 23.3559 28C23.1162 28 23.0563 27.9099 23.0563 27.6696C23.0563 24.9963 23.0563 22.353 23.0563 19.6796C23.0563 19.0188 23.0263 18.358 22.8166 17.6972C22.487 16.4957 21.6181 15.8949 20.3597 15.955C18.6518 16.0451 17.7529 16.8861 17.5432 18.6283C17.4833 19.0488 17.4533 19.4694 17.4533 19.8899C17.4533 22.4731 17.4533 25.0864 17.4533 27.6696C17.4533 27.94 17.3934 28 17.1237 28C15.6855 28 14.2173 28 12.7791 28C12.5394 28 12.4795 27.94 12.4795 27.6997C12.4795 22.5632 12.4795 17.4268 12.4795 12.2904C12.4795 12.0501 12.5694 11.99 12.8091 11.99C14.1874 11.99 15.5656 11.99 16.9439 11.99C17.1836 11.99 17.2735 12.0801 17.2436 12.3204C17.2436 12.8911 17.2436 13.4919 17.2436 14.1227Z"
		/>
	<path
		d="M9.36295 19.98C9.36295 22.5332 9.36295 25.0563 9.36295 27.6095C9.36295 27.8799 9.30304 27.97 9.00341 27.97C7.5652 27.9399 6.12699 27.97 4.68879 27.97C4.44909 27.97 4.38916 27.9099 4.38916 27.6696C4.38916 22.5332 4.38916 17.3968 4.38916 12.2603C4.38916 12.0501 4.44909 11.96 4.65883 11.96C6.127 11.96 7.5652 11.96 9.03337 11.96C9.30303 11.96 9.36295 12.0801 9.36295 12.3204C9.36295 14.8436 9.36295 17.4268 9.36295 19.98Z"
		 />
	<path
		d="M9.75283 6.85357C9.75283 8.44556 8.46442 9.73717 6.8764 9.73717C5.31835 9.73717 4 8.44556 4 6.88361C4 5.29162 5.28839 4 6.8764 4C8.46442 4 9.75283 5.29161 9.75283 6.85357Z"
		 />
</symbol>

<!-- <symbol id="ln" viewBox="0 0 24 24"><path d="M4.98 3.5c0 1.381-1.11 2.5-2.48 2.5s-2.48-1.119-2.48-2.5c0-1.38 1.11-2.5 2.48-2.5s2.48 1.12 2.48 2.5zm.02 4.5h-5v16h5v-16zm7.982 0h-4.968v16h4.969v-8.399c0-4.67 6.029-5.052 6.029 0v8.399h4.988v-10.131c0-7.88-8.922-7.593-11.018-3.714v-2.155z"/></symbol> -->
<symbol id="tg" viewBox="0 0 32 32">
<path d="M28.312 6.355c-0.316-0.382-0.787-0.593-1.329-0.593-0.295 0-0.607 0.062-0.928 0.184l-21.84 8.267c-1.159 0.439-1.315 1.098-1.305 1.452s0.204 1.002 1.387 1.374l0.020 0.007 3.064 0.869 14.916-7.558c0.1-0.052 0.219-0.083 0.345-0.083 0.291 0 0.544 0.164 0.671 0.406l0.002 0.004c0.052 0.099 0.082 0.215 0.082 0.339 0 0.2-0.078 0.381-0.206 0.514l0-0v0.002l-8.293 8.74-0.238 0.95 7.077 5.651c0.452 0.347 0.945 0.531 1.427 0.531 0.941 0 1.69-0.691 1.908-1.76l3.578-17.524c0.145-0.703 0.023-1.332-0.339-1.772z"></path>
<path d="M13.477 19.727c0.033-0.13 0.097-0.243 0.184-0.334l-0 0 5.442-5.736-10.098 5.117 2.292 6.504c0.131 0.37 0.326 0.687 0.566 0.933l1.615-6.484zM13.27 26.814c0.545-0.005 1.080-0.233 1.55-0.661l1.678-1.532-2.237-1.786-0.99 3.98z"></path>
</symbol>

<symbol  id="ytube" viewBox="0 0 50 50" ><path d="M 44.898438 14.5 C 44.5 12.300781 42.601563 10.699219 40.398438 10.199219 C 37.101563 9.5 31 9 24.398438 9 C 17.800781 9 11.601563 9.5 8.300781 10.199219 C 6.101563 10.699219 4.199219 12.199219 3.800781 14.5 C 3.398438 17 3 20.5 3 25 C 3 29.5 3.398438 33 3.898438 35.5 C 4.300781 37.699219 6.199219 39.300781 8.398438 39.800781 C 11.898438 40.5 17.898438 41 24.5 41 C 31.101563 41 37.101563 40.5 40.601563 39.800781 C 42.800781 39.300781 44.699219 37.800781 45.101563 35.5 C 45.5 33 46 29.398438 46.101563 25 C 45.898438 20.5 45.398438 17 44.898438 14.5 Z M 19 32 L 19 18 L 31.199219 25 Z"/></symbol>

<symbol id="visa" viewBox="0 0 34 34">
<path d="M34 27.485c0 1.101-.9 1.994-2.01 1.994H2.01C.9 29.479 0 28.585 0 27.485V8.217c0-1.1.9-1.993 2.01-1.993h29.98c1.11 0 2.01.893 2.01 1.993v19.268z" fill="#fff"/><path d="M7.546 17.986l-.798-3.799c-.136-.523-.534-.68-1.03-.7h-3.66l-.032.174c2.85.685 4.737 2.339 5.52 4.325z" fill="#F79F1A"/><path d="M16.027 13.563h-2.365l-1.477 8.597h2.361l1.481-8.597zM8.988 22.151l3.72-8.582h-2.504L7.89 19.433l-.246-.886c-.454-1.065-1.75-2.598-3.272-3.563l2.115 7.17 2.5-.003zM22.773 19.35c.009-.976-.623-1.72-1.985-2.335-.827-.398-1.332-.662-1.326-1.065 0-.356.427-.739 1.353-.739a4.395 4.395 0 011.768.33l.214.097.32-1.863A6.17 6.17 0 0021 13.416c-2.335 0-3.978 1.166-3.993 2.837-.015 1.235 1.175 1.924 2.07 2.336.92.42 1.229.688 1.223 1.065-.006.575-.733.838-1.412.838-.946 0-1.448-.13-2.225-.45l-.302-.138-.332 1.926c.551.239 1.571.448 2.63.457 2.483 0 4.097-1.15 4.115-2.937zM25.582 20.871l3.026.003c.071.3.288 1.289.288 1.289h2.192l-1.914-8.59H27.35c-.567 0-.988.152-1.237.711l-3.51 7.879h2.484s.403-1.06.495-1.292zm1.62-4.163c-.012.024.196-.497.314-.82l.16.74.546 2.484h-1.96c.195-.494.94-2.404.94-2.404zM31.99 6.224H2.01C.9 6.224 0 7.117 0 8.217v2.07h34v-2.07c0-1.1-.9-1.993-2.01-1.993z" fill="#059BBF"/><path d="M31.99 29.479H2.01C.9 29.479 0 28.585 0 27.485v-2.069h34v2.07c0 1.1-.9 1.992-2.01 1.992z" fill="#F79F1A"/><path opacity=".15" d="M1.429 27.485V8.217c0-1.1.9-1.993 2.01-1.993h-1.43C.9 6.224 0 7.117 0 8.217v19.268c0 1.101.9 1.994 2.01 1.994h1.429c-1.11 0-2.01-.893-2.01-1.994z" fill="#202121"/>
</symbol>
<symbol id="mastercard" viewBox="0 0 34 34">
<path d="M34 27.485c0 1.101-.9 1.994-2.01 1.994H2.01C.9 29.479 0 28.585 0 27.485V8.217c0-1.1.9-1.993 2.01-1.993h29.98c1.11 0 2.01.893 2.01 1.993v19.268z" fill="#fff"/><path opacity=".15" d="M1.429 27.485V8.217c0-1.1.9-1.993 2.01-1.993h-1.43C.9 6.224 0 7.117 0 8.217v19.268c0 1.101.9 1.994 2.01 1.994h1.429c-1.11 0-2.01-.893-2.01-1.994z" fill="#202121"/><path d="M28.073 17.02c0 3.13-2.55 5.69-5.738 5.69-3.157 0-5.737-2.56-5.737-5.69 0-3.131 2.55-5.69 5.707-5.69 3.218 0 5.768 2.559 5.768 5.69z" fill="#FFB600"/><path d="M22.335 11.33c3.157 0 5.738 2.559 5.738 5.69 0 3.13-2.55 5.69-5.738 5.69-3.157 0-5.737-2.56-5.737-5.69" fill="#F7981D"/><path d="M22.335 11.33c3.157 0 5.737 2.559 5.737 5.69 0 3.13-2.55 5.69-5.737 5.69" fill="#FF8500"/><path d="M14.624 11.33c-3.127.03-5.677 2.559-5.677 5.69 0 3.13 2.55 5.69 5.738 5.69 1.487 0 2.823-.572 3.855-1.475.213-.181.395-.392.577-.602h-1.184a6.922 6.922 0 01-.425-.572h2.034c.121-.181.243-.392.334-.603h-2.702a3.569 3.569 0 01-.243-.602h3.157a5.934 5.934 0 00.304-1.806c0-.422-.06-.813-.121-1.204h-3.522c.03-.211.091-.392.152-.603h3.157a3.569 3.569 0 00-.243-.602h-2.671c.09-.21.212-.391.334-.602h2.034a2.863 2.863 0 00-.456-.602h-1.123a5.15 5.15 0 01.577-.572c-1.002-.933-2.368-1.475-3.856-1.475 0-.06 0-.06-.03-.06z" fill="#FF5050"/><path d="M8.947 17.02c0 3.131 2.55 5.69 5.738 5.69 1.487 0 2.823-.572 3.855-1.475.213-.18.395-.391.577-.602h-1.184a6.94 6.94 0 01-.425-.572h2.034a3.84 3.84 0 00.334-.602h-2.702a3.567 3.567 0 01-.243-.602h3.157a5.935 5.935 0 00.304-1.807c0-.421-.06-.813-.121-1.204h-3.522c.03-.21.091-.392.152-.602h3.157a3.564 3.564 0 00-.243-.602h-2.671c.09-.211.212-.392.334-.602h2.034a2.866 2.866 0 00-.456-.603h-1.123c.182-.21.364-.391.577-.572-1.002-.933-2.368-1.475-3.856-1.475h-.03" fill="#E52836"/><path d="M14.685 22.71c1.487 0 2.823-.572 3.855-1.475.213-.18.395-.391.577-.602h-1.184a6.94 6.94 0 01-.425-.572h2.034a3.84 3.84 0 00.334-.602h-2.702a3.567 3.567 0 01-.243-.602h3.158a5.935 5.935 0 00.303-1.807c0-.421-.06-.813-.121-1.204h-3.522c.03-.21.091-.392.152-.602h3.157a3.564 3.564 0 00-.243-.602h-2.671c.091-.211.212-.392.334-.602h2.034a2.866 2.866 0 00-.456-.603h-1.123c.182-.21.364-.391.577-.572-1.002-.933-2.368-1.475-3.855-1.475h-.03" fill="#CB2026"/><path d="M16.718 18.465l.091-.512c-.03 0-.09.03-.151.03-.213 0-.243-.12-.213-.18l.182-1.054h.334l.091-.572h-.303l.06-.362h-.607s-.364 1.987-.364 2.228c0 .362.213.512.486.512.182 0 .334-.06.394-.09zM16.931 17.501c0 .843.577 1.054 1.063 1.054.455 0 .637-.09.637-.09l.122-.572s-.334.15-.638.15c-.668 0-.546-.482-.546-.482h1.244s.091-.391.091-.541c0-.392-.212-.874-.88-.874-.638-.06-1.093.602-1.093 1.355zm1.063-.873c.334 0 .273.392.273.422h-.668c0-.03.06-.422.395-.422zM21.849 18.465l.121-.663s-.303.151-.516.151c-.425 0-.607-.331-.607-.692 0-.723.364-1.114.79-1.114.303 0 .546.18.546.18l.09-.632s-.363-.15-.697-.15c-.699 0-1.397.602-1.397 1.746 0 .752.365 1.264 1.093 1.264.243 0 .577-.09.577-.09zM13.38 16.086c-.426 0-.73.12-.73.12l-.09.513s.273-.12.667-.12c.213 0 .395.03.395.21 0 .12-.03.15-.03.15h-.273c-.517 0-1.093.211-1.093.904 0 .542.364.662.576.662.425 0 .608-.27.638-.27l-.03.24h.546l.243-1.656c0-.723-.607-.753-.82-.753zm.12 1.355c0 .09-.06.572-.424.572-.182 0-.243-.15-.243-.24 0-.151.09-.362.546-.362.091.03.122.03.122.03zM14.776 18.525c.152 0 .91.03.91-.783 0-.753-.728-.602-.728-.903 0-.15.121-.21.334-.21.09 0 .425.03.425.03l.09-.543s-.212-.06-.576-.06c-.455 0-.91.18-.91.783 0 .692.758.632.758.903 0 .18-.212.21-.364.21-.273 0-.546-.09-.546-.09l-.091.543c.03.06.182.12.698.12zM26.888 15.605l-.121.813s-.243-.301-.577-.301c-.546 0-1.032.662-1.032 1.445 0 .482.243.993.759.993.364 0 .577-.24.577-.24l-.03.21h.606l.456-2.89-.638-.03zm-.273 1.596c0 .33-.152.752-.486.752-.212 0-.334-.18-.334-.481 0-.482.213-.783.486-.783.213 0 .334.15.334.512zM10.07 18.495l.365-2.168.06 2.168h.425l.79-2.168-.334 2.168h.637l.486-2.89h-1.002l-.607 1.776-.03-1.776h-.88l-.486 2.89h.576zM19.48 18.495c.183-.994.213-1.807.638-1.656.061-.391.152-.542.213-.692h-.122c-.273 0-.485.36-.485.36l.06-.33h-.576l-.395 2.348h.668v-.03zM23.245 16.086c-.425 0-.728.12-.728.12l-.091.513s.273-.12.667-.12c.213 0 .395.03.395.21 0 .12-.03.15-.03.15h-.274c-.516 0-1.092.211-1.092.904 0 .542.364.662.576.662.425 0 .608-.27.638-.27l-.03.24h.546l.243-1.656c.03-.723-.607-.753-.82-.753zm.152 1.355c0 .09-.06.572-.425.572-.182 0-.243-.15-.243-.24 0-.151.091-.362.547-.362.09.03.09.03.12.03zM24.581 18.495c.182-.994.213-1.807.638-1.656.06-.391.151-.542.212-.692h-.121c-.274 0-.486.36-.486.36l.06-.33h-.576l-.395 2.348h.668v-.03z" fill="#fff"/><path d="M15.777 18.043c0 .362.213.512.486.512.213 0 .395-.06.455-.09l.092-.512c-.03 0-.091.03-.152.03-.213 0-.243-.12-.213-.18l.183-1.054h.333l.091-.572h-.303l.06-.362M17.235 17.501c0 .843.273 1.054.759 1.054.455 0 .637-.09.637-.09l.122-.572s-.334.15-.638.15c-.668 0-.546-.482-.546-.482h1.244s.091-.391.091-.541c0-.392-.212-.874-.88-.874-.637-.06-.79.602-.79 1.355zm.759-.873c.334 0 .394.392.394.422H17.6c0-.03.06-.422.395-.422zM21.849 18.465l.121-.663s-.303.151-.516.151c-.425 0-.607-.331-.607-.692 0-.723.364-1.114.79-1.114.303 0 .546.18.546.18l.09-.632s-.363-.15-.697-.15c-.699 0-1.093.602-1.093 1.746 0 .752.06 1.264.79 1.264.242 0 .576-.09.576-.09zM12.56 16.749s.273-.12.667-.12c.213 0 .395.03.395.21 0 .12-.03.15-.03.15h-.273c-.517 0-1.093.211-1.093.904 0 .542.364.662.576.662.425 0 .608-.27.638-.27l-.03.24h.546l.243-1.656c0-.692-.607-.723-.85-.723l-.79.603zm1.244.692c0 .09-.364.572-.728.572-.182 0-.243-.15-.243-.24 0-.151.09-.362.546-.362.091.03.425.03.425.03zM14.108 18.465s.182.06.698.06c.152 0 .91.03.91-.783 0-.753-.728-.602-.728-.903 0-.15.122-.21.334-.21.091 0 .425.03.425.03l.091-.543s-.212-.06-.577-.06c-.455 0-.607.18-.607.783 0 .692.456.632.456.903 0 .18-.213.21-.365.21M26.767 16.418s-.243-.301-.577-.301c-.547 0-.729.662-.729 1.445 0 .482-.06.994.456.994.364 0 .576-.241.576-.241l-.03.21h.607l.456-2.89-.76.783zm-.03.783c0 .331-.274.752-.608.752-.212 0-.334-.18-.334-.481 0-.482.213-.783.486-.783.213 0 .455.15.455.512zM10.07 18.495l.365-2.168.06 2.168h.425l.79-2.168-.334 2.168h.637l.486-2.89h-.759l-.85 1.776-.03-1.776h-.334l-1.032 2.89h.576zM18.844 18.495h.637c.182-.994.213-1.807.638-1.656.06-.391.151-.542.212-.692h-.121c-.274 0-.486.36-.486.36l.06-.33M22.425 16.749s.274-.12.668-.12c.213 0 .395.03.395.21 0 .12-.03.15-.03.15h-.274c-.516 0-1.092.211-1.092.904 0 .542.364.662.576.662.425 0 .608-.27.638-.27l-.03.24h.546l.243-1.656c0-.692-.607-.723-.85-.723l-.79.603zm1.245.692c0 .09-.364.572-.728.572-.183 0-.243-.15-.243-.24 0-.151.09-.362.546-.362.122.03.425.03.425.03zM23.944 18.495h.637c.182-.994.213-1.807.638-1.656.06-.391.151-.542.212-.692h-.121c-.273 0-.486.36-.486.36l.06-.33" fill="#DCE5E5"/>
</symbol>
</defs>
</svg>
