<?xml version="1.0" standalone="no"?>
<!DOCTYPE svg PUBLIC "-//W3C//DTD SVG 20010904//EN"
 "http://www.w3.org/TR/2001/REC-SVG-20010904/DTD/svg10.dtd">
<svg version="1.0" xmlns="http://www.w3.org/2000/svg"
 width="2160.000000pt" height="2160.000000pt" viewBox="0 0 2160.000000 2160.000000"
 preserveAspectRatio="xMidYMid meet">
<metadata>
Created by potrace 1.14, written by Peter Selinger 2001-2017
</metadata>
<g transform="translate(0.000000,2160.000000) scale(0.100000,-0.100000)"
fill="#000000" stroke="none">
<path d="M21070 13529 c-69 -5 -2256 -133 -4860 -284 -2604 -151 -4958 -288
-5230 -304 -272 -16 -1025 -60 -1672 -98 l-1178 -68 0 -35 c1 -19 14 -224 29
-455 16 -231 28 -421 27 -422 -2 -2 -272 346 -601 772 l-599 775 -37 0 c-21 0
-222 -11 -446 -25 -224 -14 -1398 -83 -2608 -155 -2282 -135 -2761 -164 -3448
-205 -224 -14 -417 -25 -427 -25 -26 0 -26 -13 5 -475 88 -1329 198 -3106 235
-3824 11 -217 22 -396 24 -398 2 -2 163 5 357 17 367 21 1025 59 1929 110 289
17 761 44 1050 60 289 17 723 41 965 55 242 14 555 32 695 40 140 8 617 35
1060 60 443 25 834 48 870 52 l64 8 181 295 c99 162 326 533 504 823 178 290
325 527 326 525 4 -4 10 -92 91 -1313 36 -544 66 -991 68 -992 1 -1 292 15
647 37 1068 66 1411 87 2434 150 539 33 1198 74 1465 90 267 17 1072 66 1790
110 718 44 1631 100 2030 125 399 25 1094 67 1545 95 451 28 1036 64 1300 80
264 16 777 48 1140 69 363 22 693 43 734 47 l73 6 -6 66 c-3 37 -22 279 -41
537 -58 784 -204 2749 -230 3095 -13 179 -33 456 -45 615 -27 391 -25 375 -58
374 -15 -1 -83 -6 -152 -10z m-15357 -1484 c252 -44 453 -147 622 -320 272
-278 373 -665 275 -1050 -47 -183 -193 -419 -333 -536 -230 -193 -496 -289
-802 -289 -452 0 -834 226 -1021 605 -67 136 -100 250 -113 391 -36 389 126
750 444 989 121 91 332 179 500 209 108 19 322 20 428 1z m-2574 -180 c95 -18
230 -64 316 -107 82 -42 195 -115 195 -128 0 -5 -69 -104 -154 -219 l-153
-210 -38 26 c-61 41 -197 101 -266 118 -84 19 -258 19 -334 0 -241 -63 -414
-297 -415 -562 -1 -269 151 -496 390 -584 57 -21 82 -24 205 -24 157 0 232 18
333 78 l53 32 -6 75 c-3 41 -8 104 -11 139 l-6 64 -91 -6 c-51 -4 -147 -10
-214 -13 l-123 -7 -1 34 c0 19 -6 111 -13 204 -7 94 -12 172 -10 173 5 7 969
69 975 63 4 -3 21 -217 38 -476 l32 -470 -53 -48 c-66 -61 -190 -143 -286
-192 -390 -194 -877 -204 -1226 -25 -354 181 -566 519 -583 926 -14 325 88
594 307 815 185 187 446 310 720 339 111 11 316 4 419 -15z m9541 -177 c0 -13
7 -113 15 -223 8 -110 15 -216 15 -236 l0 -35 -315 -20 c-173 -12 -318 -24
-322 -28 -4 -4 16 -354 45 -779 29 -425 52 -786 52 -803 l0 -30 -290 -19
c-160 -10 -293 -16 -296 -12 -3 3 -31 365 -61 804 -30 439 -56 799 -58 801 -2
3 -146 -6 -320 -18 -174 -12 -318 -20 -320 -18 -6 6 -39 507 -34 512 5 5 1736
123 1827 125 58 1 62 0 62 -21z m6656 -9 c43 -6 119 -21 170 -34 104 -26 277
-103 271 -119 -18 -44 -161 -353 -167 -359 -4 -5 -50 7 -102 27 -174 65 -381
93 -467 63 -19 -7 -43 -24 -54 -39 -17 -23 -18 -31 -8 -56 18 -42 76 -65 284
-111 272 -62 398 -113 492 -202 86 -81 124 -180 125 -324 1 -262 -163 -453
-450 -526 -63 -15 -128 -23 -247 -26 -187 -6 -307 9 -457 58 -103 34 -276 117
-283 136 -4 9 161 336 182 361 1 1 35 -13 76 -31 179 -82 310 -111 474 -106
136 5 168 20 173 83 6 71 -22 85 -298 142 -263 54 -387 105 -475 192 -173 173
-167 501 14 680 99 99 248 168 406 191 88 12 252 13 341 0z m-1577 -104 c129
-31 248 -119 318 -236 18 -30 44 -94 58 -143 23 -81 29 -146 65 -670 22 -319
39 -581 37 -582 -6 -7 -573 -41 -578 -36 -3 4 -20 217 -37 474 -36 526 -40
547 -113 613 -52 46 -76 55 -156 55 -117 0 -197 -59 -230 -170 -15 -51 -14
-81 17 -528 17 -260 30 -475 28 -478 -6 -6 -570 -45 -575 -40 -7 6 -117 1636
-111 1641 6 7 570 46 576 41 2 -3 6 -50 9 -106 3 -55 9 -103 13 -105 4 -2 26
19 49 48 86 107 217 194 334 223 72 17 219 17 296 -1z m-7284 -17 c6 -19 148
-2118 144 -2123 -11 -10 -584 -43 -590 -33 -3 5 -9 62 -13 126 -4 64 -36 540
-71 1056 -36 517 -64 941 -62 942 1 1 130 11 287 22 157 10 289 20 293 21 4 0
10 -5 12 -11z m5190 -142 c86 -23 211 -87 279 -143 181 -146 303 -425 309
-703 l2 -95 -548 -37 c-302 -20 -551 -39 -555 -42 -13 -13 45 -110 93 -155 67
-64 140 -91 244 -91 131 0 217 35 337 136 l64 54 162 -117 c90 -64 165 -118
167 -120 7 -5 -33 -58 -88 -117 -108 -113 -245 -192 -411 -237 -75 -21 -107
-23 -275 -23 -179 0 -195 2 -280 28 -147 45 -237 98 -341 201 -186 184 -264
394 -251 677 17 403 267 707 652 794 83 19 359 13 440 -10z m-1925 -121 c94
-21 239 -90 307 -147 64 -53 141 -149 187 -231 74 -134 126 -337 126 -493 l0
-71 -47 -6 c-27 -3 -273 -20 -548 -38 -275 -18 -503 -35 -507 -38 -13 -11 40
-109 82 -151 58 -58 137 -92 226 -98 128 -8 242 34 359 134 39 33 70 52 78 48
59 -34 317 -229 317 -239 0 -25 -153 -176 -229 -225 -84 -56 -194 -102 -304
-127 -114 -26 -387 -23 -491 5 -160 44 -330 148 -418 255 -273 330 -274 827
-4 1160 112 137 322 249 518 277 87 12 258 5 348 -15z"/>
<path d="M5375 11530 c-208 -45 -365 -198 -419 -407 -21 -79 -21 -237 0 -317
39 -154 160 -309 293 -376 297 -149 647 -9 767 307 35 90 44 255 20 355 -44
190 -184 351 -361 418 -67 25 -229 36 -300 20z"/>
<path d="M15349 11011 c-51 -10 -124 -55 -153 -94 -54 -70 -97 -217 -65 -217
8 0 137 7 287 17 308 19 288 11 252 107 -26 67 -87 138 -143 165 -49 23 -126
33 -178 22z"/>
<path d="M13428 10877 c-65 -21 -121 -69 -155 -134 -30 -56 -61 -159 -50 -169
4 -4 423 21 525 32 50 5 52 6 46 32 -13 59 -55 133 -97 176 -68 68 -175 93
-269 63z"/>
</g>
</svg>
