<svg width="116" height="16" viewBox="0 0 116 16" fill="none" xmlns="http://www.w3.org/2000/svg">
<path d="M12.9705 12.4007C13.851 11.7403 13.851 10.6397 12.9705 9.97931C11.6498 8.8787 10.1089 9.31894 8.34756 9.31894C6.14634 9.31894 3.94547 9.09882 1.74425 8.65857C-0.0167322 8.21833 -0.677099 10.8598 0.863758 11.5202C2.62474 12.1809 4.60583 12.6211 6.58694 12.8413C8.78816 13.0614 11.2095 13.7218 12.9705 12.4007Z" fill="#AA43A2"/>
<path d="M22.2158 12.621C23.5365 12.1807 24.6368 11.9606 25.9575 11.7401C26.6179 11.7401 27.2783 11.9603 27.939 11.7401C28.5994 11.52 29.0396 11.52 29.7 11.0801C30.5805 10.6399 30.5805 9.09903 29.7 8.65878C28.1591 7.99841 27.0585 7.99841 25.5177 8.43866C23.9768 8.8789 22.6561 9.09903 21.1152 9.97952C19.7945 10.86 20.675 13.0616 22.2158 12.621Z" fill="#AA43A2"/>
<path d="M49.2904 11.0799C49.9507 10.6396 49.9507 9.53904 49.2904 8.87867C48.1898 7.99818 47.3093 8.21831 45.9885 8.21831C44.6678 8.21831 43.5672 8.43843 42.2464 8.43843C40.4855 8.65855 40.4855 11.0799 42.2464 11.0799C43.3474 11.0799 44.4477 11.3 45.5486 11.3C46.869 11.7403 47.9696 12.1809 49.2904 11.0799Z" fill="#AA43A2"/>
<path d="M59.1961 11.3003C61.6174 10.4198 64.0388 10.86 66.4601 10.1997C67.7809 9.75941 67.7809 7.77831 66.4601 7.33806C63.8187 6.45757 60.737 7.33806 58.3153 8.87892C56.9949 9.53929 57.8754 11.7405 59.1961 11.3003Z" fill="#AA43A2"/>
<path d="M87.3715 9.75927C87.8117 9.31902 87.8117 8.43854 87.3715 7.99829C86.0507 6.67756 84.2898 7.1178 82.5288 7.1178C80.9879 7.1178 79.2269 7.1178 77.6861 7.33792C76.3653 7.55805 76.3653 9.75927 77.6861 9.97939C79.2269 10.1995 80.5477 10.1995 82.0885 10.1995C83.8495 10.6398 85.8306 11.08 87.3715 9.75927Z" fill="#AA43A2"/>
<path d="M106.302 7.55812C106.302 6.23738 104.982 5.35689 103.881 5.79714C102.12 6.23738 99.9187 6.23738 98.1577 6.4575C97.0571 6.67763 97.0571 8.65873 98.1577 8.87885C100.139 9.09897 102.12 8.87885 103.881 9.53922C104.982 9.75934 106.302 8.87885 106.302 7.55812Z" fill="#AA43A2"/>
<path d="M109.62 15.7037C111.989 13.3356 114.359 10.7615 115.875 7.56957C116.065 7.15772 116.065 6.64292 115.686 6.33403C113.316 4.17184 110.662 2.52446 108.387 0.25931C107.629 -0.564381 106.492 0.774116 107.25 1.49485C109.335 3.55407 111.8 5.0985 113.885 7.15772C112.368 9.83472 110.188 11.6882 108.198 14.0563C107.25 15.1887 108.672 16.6303 109.62 15.7037Z" fill="#AA43A2"/>
</svg>
