<svg width="36" height="36" fill="none" xmlns="http://www.w3.org/2000/svg">
<path d="M19.4102 17.9999L27.7002 9.70994C27.864 9.51864 27.9496 9.27256 27.9399 9.02089C27.9302 8.76921 27.8259 8.53047 27.6478 8.35238C27.4697 8.17428 27.2309 8.06995 26.9793 8.06023C26.7276 8.05051 26.4815 8.13612 26.2902 8.29994L18.0002 16.5899L9.71022 8.28994C9.52191 8.10164 9.26652 7.99585 9.00022 7.99585C8.73392 7.99585 8.47852 8.10164 8.29022 8.28994C8.10191 8.47825 7.99613 8.73364 7.99613 8.99994C7.99613 9.26624 8.10191 9.52164 8.29022 9.70994L16.5902 17.9999L8.29022 26.2899C8.18554 26.3796 8.10052 26.4899 8.04049 26.614C7.98047 26.738 7.94674 26.8732 7.94142 27.0109C7.9361 27.1486 7.9593 27.2859 8.00958 27.4143C8.05985 27.5426 8.13611 27.6591 8.23357 27.7566C8.33102 27.854 8.44757 27.9303 8.57589 27.9806C8.70422 28.0309 8.84155 28.0541 8.97927 28.0487C9.11699 28.0434 9.25212 28.0097 9.37619 27.9497C9.50025 27.8896 9.61057 27.8046 9.70022 27.6999L18.0002 19.4099L26.2902 27.6999C26.4815 27.8638 26.7276 27.9494 26.9793 27.9397C27.2309 27.9299 27.4697 27.8256 27.6478 27.6475C27.8259 27.4694 27.9302 27.2307 27.9399 26.979C27.9496 26.7273 27.864 26.4812 27.7002 26.2899L19.4102 17.9999Z" fill="#AA43A2"/>
</svg>
