<svg width="143" height="37" viewBox="0 0 143 37" fill="none" xmlns="http://www.w3.org/2000/svg">
<path d="M53.8043 7.05303C53.7308 5.94455 54.5748 4.98858 55.6838 4.92407L138.369 0.114283C139.459 0.0508702 140.399 0.873584 140.48 1.96256L142.486 28.936C142.569 30.0475 141.727 31.0121 140.614 31.0806L57.7305 36.1774C56.6317 36.2449 55.6849 35.4119 55.6121 34.3135L53.8043 7.05303Z" fill="#FEC830"/>
<path d="M3.91024 34.4389C2.79569 34.5026 1.84465 33.6512 1.78799 32.5362C1.42367 25.3684 0.48092 10.8935 0.132218 5.59765C0.0592736 4.48981 0.902727 3.54489 2.01101 3.47911L45.0429 0.924919C45.703 0.885742 46.3397 1.1753 46.744 1.69848L56.9221 14.8697C57.4298 15.5267 57.4788 16.4291 57.0451 17.1372L48.5377 31.0277C48.1953 31.5867 47.6007 31.9424 46.9463 31.9798L3.91024 34.4389Z" fill="black"/>
<path d="M11.1247 18.7121C11.0515 17.7261 11.1827 16.7356 11.5102 15.8015C11.8201 14.9042 12.3085 14.0775 12.9464 13.3702C13.6038 12.6544 14.3969 12.0736 15.2806 11.6608C16.2263 11.2117 17.2511 10.9483 18.2981 10.8853C19.5008 10.8051 20.5762 10.9099 21.5242 11.1995C22.4936 11.4993 23.4018 11.9664 24.2068 12.5793L22.0792 15.4853C21.571 15.1079 21.0059 14.8121 20.4047 14.6089C19.8075 14.4246 19.18 14.3565 18.5567 14.4083C18.0684 14.4324 17.591 14.5599 17.1567 14.7821C16.7223 15.0043 16.3411 15.3161 16.0388 15.6965C15.387 16.4872 15.098 17.4231 15.1719 18.5042C15.2502 19.6554 15.6778 20.581 16.4547 21.2812C17.2317 21.9813 18.1833 22.2933 19.3095 22.2171C20.2296 22.1547 20.9775 21.9002 21.5532 21.4537L21.4324 19.6828L18.6006 19.8727L18.4081 17.0469L24.9671 16.6084L25.4019 22.9799C23.7166 24.5397 21.7085 25.3967 19.3777 25.5509C17.9134 25.6494 16.5704 25.4266 15.3488 24.8824C14.1529 24.3613 13.1288 23.5184 12.3927 22.4497C11.6437 21.3712 11.221 20.1254 11.1247 18.7121Z" fill="white"/>
<path d="M28.5998 17.5643C28.5292 16.5843 28.6641 15.6004 28.9961 14.6744C29.3124 13.7738 29.8035 12.9431 30.4417 12.229C31.0999 11.5072 31.8942 10.9197 32.78 10.4996C34.6824 9.59596 36.8622 9.44859 38.871 10.0878C39.7996 10.3832 40.6604 10.8566 41.4044 11.481C42.128 12.1021 42.7199 12.8592 43.1458 13.7084C43.5955 14.5903 43.8595 15.5535 43.9216 16.5395C43.9914 17.5197 43.8567 18.5037 43.5259 19.4301C43.2121 20.3314 42.7225 21.163 42.085 21.8775C41.429 22.5982 40.6367 23.1846 39.7528 23.6036C38.8136 24.0579 37.793 24.3242 36.7495 24.387C35.3122 24.4833 33.9843 24.2447 32.7658 23.6711C31.5813 23.1244 30.5689 22.2695 29.8367 21.1976C29.1012 20.1191 28.6738 18.8637 28.5998 17.5643ZM32.6443 17.2936C32.7149 18.3378 33.1201 19.2113 33.8596 19.9141C34.5992 20.6169 35.4959 20.9329 36.5497 20.862C37.6165 20.7912 38.4625 20.3636 39.0878 19.5792C39.713 18.7948 39.9894 17.871 39.9169 16.8076C39.8458 15.7634 39.4407 14.8899 38.7015 14.1871C37.9624 13.4843 37.0581 13.1685 35.9886 13.2398C34.9352 13.3102 34.096 13.7376 33.4707 14.522C32.8455 15.3064 32.57 16.2302 32.6443 17.2936Z" fill="white"/>
<path d="M66.2055 27.3833L65.2427 13.2779L69.1879 13.0145L70.1542 27.1199L66.2055 27.3833Z" fill="white"/>
<path d="M71.4545 16.3112L71.2202 12.8771L83.7217 12.0415L83.956 15.4749L79.6745 15.7597L80.403 26.435L76.4578 26.6984L75.7292 16.0231L71.4545 16.3112Z" fill="white"/>
<path d="M83.6913 20.7492C83.635 19.986 83.7234 19.2192 83.9519 18.4883C84.1621 17.7987 84.5062 17.1563 84.9647 16.5971C85.4277 16.0452 86.0002 15.5931 86.6466 15.2688C87.3336 14.9204 88.0861 14.7169 88.8566 14.6712C89.7776 14.6097 90.6103 14.7139 91.3548 14.984C92.0567 15.2276 92.6877 15.6375 93.1927 16.178C93.681 16.7135 94.0665 17.3326 94.3305 18.005C94.615 18.7312 94.7834 19.4969 94.8294 20.2745C94.8537 20.6221 94.8645 20.8849 94.8639 21.0627L87.49 21.5554C87.6831 22.1423 87.9982 22.5777 88.4353 22.8616C88.8723 23.1455 89.3947 23.267 90.0024 23.226C90.8595 23.1667 91.6481 22.7337 92.3683 21.9271L94.6255 23.5515C93.5524 25.0917 92.0055 25.9294 89.9848 26.0644C88.8388 26.1415 87.8035 25.9737 86.8789 25.561C85.9703 25.1636 85.1967 24.5154 84.6507 23.6939C84.0876 22.8596 83.7678 21.878 83.6913 20.7492ZM87.2969 19.5993L91.1226 19.3433C91.0078 18.7381 90.7697 18.2701 90.4082 17.9395C90.0467 17.6088 89.604 17.4606 89.0801 17.4949C88.8438 17.5065 88.6128 17.5677 88.4023 17.6746C88.1918 17.7814 88.0067 17.9314 87.8593 18.1146C87.5429 18.4943 87.3554 18.9892 87.2969 19.5993Z" fill="white"/>
<path d="M96.2076 19.9126C96.1514 19.1493 96.2396 18.3824 96.4676 17.6511C96.6781 16.9617 97.0221 16.3193 97.4804 15.7599C97.9435 15.2083 98.5157 14.7563 99.1617 14.4316C99.8488 14.0831 100.602 13.8798 101.372 13.8346C102.293 13.7731 103.126 13.8772 103.871 14.1468C104.573 14.3895 105.204 14.7988 105.709 15.3388C106.198 15.8739 106.583 16.4928 106.847 17.1651C107.131 17.8925 107.3 18.6593 107.346 19.438C107.37 19.7856 107.381 20.0483 107.38 20.2262L100.006 20.7195C100.199 21.306 100.515 21.7412 100.952 22.0251C101.389 22.309 101.911 22.4307 102.519 22.3901C103.38 22.3317 104.169 21.8983 104.886 21.0899L107.143 22.7143C106.07 24.2545 104.523 25.0922 102.503 25.2272C101.356 25.3043 100.321 25.1365 99.3966 24.7238C98.4881 24.3263 97.7145 23.6781 97.1684 22.8567C96.6049 22.0224 96.2846 21.0411 96.2076 19.9126ZM99.8132 18.7621L103.639 18.5061C103.524 17.9013 103.286 17.4334 102.924 17.1023C102.562 16.7711 102.119 16.623 101.596 16.6577C101.36 16.6693 101.129 16.7306 100.918 16.8376C100.708 16.9445 100.523 17.0947 100.376 17.2781C100.058 17.6587 99.8708 18.1534 99.8132 18.7621Z" fill="white"/>
<path d="M109.543 24.4863L108.8 13.5851L112.665 13.3263L112.771 14.8706C113.633 13.6138 114.691 12.9435 115.944 12.8597C117.11 12.7813 118.05 13.0774 118.765 13.7482C119.48 14.4189 119.88 15.3771 119.965 16.6227L120.451 23.7563L116.586 24.0143L116.18 18.1262C116.141 17.5437 115.969 17.1034 115.665 16.8052C115.36 16.5071 114.973 16.3734 114.501 16.4041C114.016 16.4371 113.634 16.6236 113.357 16.9637C113.081 17.3037 112.962 17.7618 113 18.3381L113.402 24.2262L109.543 24.4863Z" fill="white"/>
<path d="M121.714 22.2516L123.006 19.8364C124.333 20.561 125.623 20.8814 126.876 20.7977C127.525 20.7531 127.835 20.5303 127.808 20.1292C127.795 19.938 127.651 19.7889 127.379 19.6819C127.106 19.575 126.636 19.4607 125.978 19.3383C125.478 19.2438 125.052 19.1507 124.7 19.0589C124.328 18.9601 123.965 18.8301 123.616 18.6705C123.287 18.5298 122.983 18.3392 122.714 18.1056C122.468 17.8763 122.268 17.603 122.125 17.3001C121.956 16.9474 121.859 16.5654 121.839 16.1756C121.759 15.0214 122.105 14.0948 122.876 13.396C123.647 12.6972 124.689 12.3041 126.001 12.2168C126.816 12.1629 127.634 12.225 128.431 12.4013C129.203 12.5645 129.946 12.8419 130.634 13.2242L129.478 15.7418C128.906 15.4866 128.311 15.2867 127.7 15.1448C127.104 15.0084 126.588 14.955 126.152 14.9844C125.86 15.0035 125.641 15.0662 125.495 15.1722C125.427 15.2172 125.372 15.2796 125.336 15.3529C125.301 15.4262 125.286 15.5077 125.293 15.5887C125.306 15.7808 125.448 15.9299 125.718 16.0359C125.988 16.142 126.464 16.2688 127.146 16.4163C127.646 16.517 128.072 16.6166 128.425 16.7151C128.796 16.8213 129.159 16.9554 129.51 17.1162C129.838 17.2566 130.143 17.4469 130.412 17.6804C130.655 17.9062 130.855 18.1745 131 18.4719C131.167 18.8131 131.264 19.1841 131.284 19.5629C131.365 20.7538 131.023 21.6955 130.259 22.388C129.495 23.0806 128.423 23.473 127.044 23.5652C125.076 23.6958 123.299 23.258 121.714 22.2516Z" fill="white"/>
</svg>
