<svg width="135" height="131" viewBox="0 0 135 131" fill="none" xmlns="http://www.w3.org/2000/svg">
<path d="M32.739 82.1499C31.8224 82.3042 30.9368 82.6414 29.9895 82.6122C29.0421 82.5831 28.3235 82.2327 27.498 81.8059C26.9934 81.6082 26.9026 82.1889 27.1474 82.5249C28.815 84.0349 31.1379 84.3981 33.0309 83.3259C33.5191 82.8671 33.365 81.9506 32.739 82.1499Z" fill="#FEC830"/>
<path d="M38.9955 76.7633C38.9646 76.5802 38.7505 76.4277 38.4602 76.3821C37.7269 76.5056 37.4529 77.1169 37.1478 77.5453C36.6142 78.2945 36.0498 78.8606 35.2711 79.2743C34.859 79.6264 35.2419 80.2216 35.6848 80.0529C36.4634 79.6392 37.1349 79.1494 37.6994 78.5833C38.4018 78.2767 39.2257 77.5729 38.9955 76.7633Z" fill="#FEC830"/>
<path d="M38.8053 72.2718C38.3917 71.4931 38.2376 70.5767 38.0073 69.7672C37.8533 68.8506 37.8063 68.0103 37.4688 67.1248C37.1931 66.6056 36.4597 66.7292 36.369 67.3097C36.3398 68.257 36.6009 69.2498 36.8619 70.2427C37.0924 71.0519 37.4298 71.9376 37.8435 72.716C38.2261 73.3112 39.1119 72.9741 38.8053 72.2718Z" fill="#FEC830"/>
<path d="M33.8586 63.5851C33.1092 63.0514 32.3907 62.7009 31.5196 62.5646C30.7556 62.5046 29.5488 62.6133 29.0911 63.2559C28.8624 63.5771 29.0619 64.2033 29.5357 64.2177C30.1926 64.2015 30.8189 64.0018 31.3688 63.9093C32.0257 63.8931 32.7134 64.0604 33.1416 64.3654C33.7839 64.8228 34.4246 64.1493 33.8586 63.5851Z" fill="#FEC830"/>
<path d="M28.3692 71.2936C28.3984 70.3463 29.0083 69.4898 29.6799 69C30.0156 68.7551 29.633 68.1596 29.2972 68.4045C28.3661 69.0322 27.6183 69.6292 27.2225 70.6381C26.903 71.5398 26.6758 72.9917 27.2726 73.7397C27.5177 74.0753 28.0675 73.9829 28.1892 73.5855C28.5395 72.867 28.3093 72.0574 28.3692 71.2936Z" fill="#FEC830"/>
<path d="M32.9353 80.5149C32.6595 79.996 32.0479 79.7219 31.6653 79.1264C31.1753 78.455 30.9451 77.6454 30.7146 76.8362C30.6222 76.2863 29.8891 76.4094 29.9815 76.9593C30.121 78.3494 30.6594 80.992 32.2489 81.4788C32.8296 81.5694 33.287 80.927 32.9353 80.5149Z" fill="#FEC830"/>
<path d="M58.5648 85.0276C56.5631 84.8929 54.5613 84.7585 52.6814 84.2262C52.1006 84.1355 51.7504 84.8539 52.3618 85.1283C54.3798 85.9197 56.5355 86.9708 58.7497 86.1274C59.2998 86.0351 59.1455 85.1188 58.5648 85.0276Z" fill="#FEC830"/>
<path d="M45.5345 83.1048C43.5328 82.9701 41.5311 82.8356 39.6512 82.3034C39.0703 82.2127 38.7201 82.9311 39.3315 83.2054C41.3495 83.9968 43.5052 85.048 45.7194 84.2045C46.2695 84.1122 46.1153 83.1959 45.5345 83.1048Z" fill="#FEC830"/>
<path d="M67.5127 81.0734C67.7105 80.5691 67.1752 80.1879 66.8086 80.2495C65.9685 80.2964 65.0682 81.1074 64.1825 81.4448C63.2969 81.7822 62.3041 82.0433 61.3114 82.3044C60.7615 82.3969 60.9156 83.3134 61.4654 83.2211C62.6722 83.1124 63.772 82.9275 64.8718 82.7426C65.8645 82.4815 67.1166 82.0824 67.5127 81.0734Z" fill="#FEC830"/>
<path d="M74.8036 72.874C74.8182 72.4004 74.0998 72.0498 73.9018 72.5543C72.7889 74.3436 72.2877 76.4069 71.1442 78.0126C70.9155 78.3337 71.3437 78.6387 71.5724 78.3175C72.8992 76.681 74.6997 75.0587 74.8036 72.874Z" fill="#FEC830"/>
<path d="M75.8357 67.7996C75.9719 66.9286 76.1082 66.0575 75.9541 65.141C75.8761 64.1177 75.9508 62.88 75.3538 62.1322C75.1089 61.7964 74.452 61.8126 74.4374 62.2863C74.194 63.0811 74.5314 63.9668 74.6548 64.6998C74.8088 65.6165 74.9938 66.7161 74.9646 67.6634C74.9807 68.3205 75.7447 68.3805 75.8357 67.7996Z" fill="#FEC830"/>
<path d="M73.0851 56.4825C72.9002 55.3827 72.3795 54.5279 71.7517 53.5968C70.9407 52.6965 69.8085 51.5675 68.7233 51.2788C68.0355 51.1117 67.5781 51.754 67.9609 52.3493C69.1093 54.1353 71.5392 54.5749 72.1994 56.8199C72.3679 57.2626 73.0705 56.9562 73.0851 56.4825Z" fill="#FEC830"/>
<path d="M64.8461 54.0036C62.4324 54.2209 57.8046 55.2817 58.0688 58.5358C58.1613 59.0857 58.8491 59.2526 59.1849 59.0076C60.009 58.3037 60.4049 57.2946 61.1526 56.6978C62.2363 55.8558 63.6717 55.4261 64.924 55.0271C65.6262 54.7207 65.3961 53.9114 64.8461 54.0036Z" fill="#FEC830"/>
<path d="M59.7763 67.013C59.5153 66.0201 59.1778 65.1346 58.9166 64.1419C58.7317 63.0421 58.837 61.9879 58.9426 60.9334C59.0643 60.5359 58.3764 60.369 58.2547 60.7664C57.4632 62.7841 56.7039 66.1161 58.9214 67.5337C59.2427 67.7622 59.945 67.4558 59.7763 67.013Z" fill="#FEC830"/>
<path d="M64.8294 74.6454C63.7734 73.4093 62.2293 72.6321 61.7688 71.0131C61.7071 70.6467 61.1572 70.7391 61.2187 71.1059C61.4509 73.0456 62.7515 74.6178 64.479 75.364C64.6932 75.5164 65.0744 74.9811 64.8294 74.6454Z" fill="#FEC830"/>
<path d="M73.214 83.0359C72.4322 81.1883 70.0313 79.8013 68.2733 78.8717C67.845 78.5668 67.3876 79.2091 67.7395 79.6213C68.5198 80.3381 69.4833 81.0243 70.1872 81.8485C70.8605 82.4891 71.3812 83.3439 72.1306 83.8776C72.849 84.2282 73.4897 83.5547 73.214 83.0359Z" fill="#FEC830"/>
<path d="M84.4924 85.0984C83.4073 84.8096 82.4908 84.9637 81.3603 84.9651C80.1532 85.0741 79.0991 84.9686 77.9377 84.7866C77.3568 84.696 77.1445 85.6739 77.6489 85.8718C78.658 86.2674 79.6052 86.2968 80.6594 86.4025C81.8972 86.4769 83.135 86.5517 84.4178 86.336C84.9675 86.2435 85.1801 85.2652 84.4924 85.0984Z" fill="#FEC830"/>
<path d="M94.6307 80.378C94.8287 79.8733 94.1864 79.4159 93.7743 79.768C92.6147 80.7166 91.5309 81.5588 90.0954 81.9885C89.6526 82.1572 89.745 82.7071 90.2188 82.7215C91.9754 82.5205 93.7011 82.1362 94.6307 80.378Z" fill="#FEC830"/>
<path d="M100.927 71.3089C100.911 70.6519 100.04 70.5157 99.8423 71.0201C99.2792 72.7167 98.3191 74.2919 97.435 75.7599C97.1301 76.1881 97.8795 76.7218 98.1844 76.2935C99.4661 74.9473 100.9 73.3868 100.927 71.3089Z" fill="#FEC830"/>
<path d="M103.937 60.06C103.921 59.4031 103.004 59.5572 102.913 60.1379C102.488 62.0941 102.461 64.172 102.143 66.2045C102.021 66.6019 102.709 66.769 102.83 66.3716C103.622 64.3537 104.199 62.1832 103.937 60.06Z" fill="#FEC830"/>
<path d="M100.811 53.8C100.534 52.1503 99.7049 49.4626 97.8249 48.9305C97.3205 48.7326 96.863 49.375 97.215 49.787C97.7049 50.4585 98.4235 50.8089 98.9133 51.4805C99.4032 52.152 99.7406 53.0377 99.8947 53.9542C100.063 54.397 100.797 54.2736 100.811 53.8Z" fill="#FEC830"/>
<path d="M93.6982 47.928C92.7347 47.2418 91.7258 46.846 90.5497 47.138C89.557 47.3991 87.7094 48.1809 87.6348 49.4186C87.5439 49.9993 88.1555 50.2734 88.7054 50.181C89.1482 50.0123 89.3007 49.7982 89.5294 49.477C89.7581 49.1558 90.1701 48.8039 90.613 48.6352C91.3916 48.2215 92.5676 47.9296 93.3933 48.3562C93.7141 48.585 94.0192 48.1566 93.6982 47.928Z" fill="#FEC830"/>
<path d="M87.9867 60.4797C87.9851 59.3491 87.5098 58.2039 87.4318 57.1802C87.3233 55.9735 87.505 54.8121 87.6867 53.6507C87.7775 53.0699 86.9065 52.9337 86.7085 53.4381C85.9169 55.456 85.3719 58.9403 86.8107 60.7716C87.1626 61.1837 87.9719 60.9532 87.9867 60.4797Z" fill="#FEC830"/>
<path d="M93.2279 71.4728C92.6764 70.4347 91.8962 69.7177 91.1614 68.7104C90.1053 67.4742 89.4921 66.0695 89.1385 64.5269C89.0154 63.7938 87.9155 63.9786 88.0388 64.7118C88.394 67.385 90.0793 70.6827 92.3275 72.2838C92.7558 72.5885 93.5037 71.9919 93.2279 71.4728Z" fill="#FEC830"/>
<path d="M107.114 70.5513C106.197 70.7054 105.557 71.3786 104.885 71.8684C103.954 72.4962 102.84 73.1547 101.77 73.5228C101.037 73.6462 101.222 74.746 101.956 74.6227C103.055 74.4378 104.124 74.0695 105.086 73.6252C106.048 73.1808 107.27 72.5984 107.772 71.6657C107.97 71.1614 107.664 70.4589 107.114 70.5513Z" fill="#FEC830"/>
<path d="M115.387 64.826C113.157 65.0125 110.975 67.1699 109.862 68.959C109.481 69.4943 110.231 70.028 110.719 69.5689C111.359 68.8957 112.184 68.1918 112.931 67.5949C113.862 66.9671 115.038 66.6752 115.863 65.9712C116.244 65.4359 115.937 64.7333 115.387 64.826Z" fill="#FEC830"/>
<path d="M123.71 62.2011C123.144 61.6366 122.228 61.7907 121.57 61.8067C120.73 61.8538 119.952 62.2674 119.356 62.6502C118.761 63.033 119.206 63.995 119.801 63.6121C120.427 63.4126 120.946 63.137 121.679 63.0136C122.336 62.9974 123.055 63.3478 123.65 62.9651C123.833 62.9341 123.955 62.5368 123.71 62.2011Z" fill="#FEC830"/>
<path d="M131.459 64.0084C132.007 62.7854 132.525 61.379 132.859 60.0035C132.98 59.6061 132.888 59.0562 132.567 58.8275C130.349 57.4097 127.965 56.6797 125.306 56.5613C124.359 56.5321 124.208 57.8769 125.186 58.0893C127.295 58.3002 129.099 58.9395 130.705 60.0829C130.385 60.9848 130.065 61.8867 129.746 62.7886C129.35 63.7976 128.633 64.5777 128.711 65.6013C128.727 66.2582 129.415 66.4253 129.858 66.2566C130.851 65.9956 131.216 64.8031 131.459 64.0084Z" fill="#FEC830"/>
<path d="M18.077 78.5027C17.3375 77.91 16.4326 77.6984 15.5392 77.3559C14.5264 76.8709 13.5135 76.386 12.7856 75.6622C12.5353 75.5085 12.2504 75.7472 12.3583 76.0204C13.5407 77.5758 15.6281 79.3428 17.7114 79.6581C18.2466 79.5731 18.4467 78.7993 18.077 78.5027Z" fill="#FEC830"/>
<path d="M6.44689 71.2821C5.94494 70.8577 5.21625 70.6204 4.5863 70.2258C3.95636 69.8312 3.39567 69.1508 2.86432 68.5983C2.51993 68.2728 1.93828 68.6762 2.28267 69.0017C3.08901 70.1649 4.51488 72.2649 6.08153 72.0404C6.62328 72.0507 6.79128 71.6076 6.44689 71.2821Z" fill="#FEC830"/>
</svg>
