<svg width="570" height="425" viewBox="0 0 570 425" fill="none" xmlns="http://www.w3.org/2000/svg">
<g clip-path="url(#clip0)">
<path opacity="0.3" d="M838.585 187.459C856.784 222.677 827.845 292.056 795.027 367.069C762.209 442.083 725.811 522.732 684.342 525.901C642.872 529.423 596.331 455.818 555.458 375.169C514.287 294.521 478.486 206.829 501.756 168.441C525.027 129.702 607.071 140.619 681.06 146.254C755.049 151.889 820.386 152.593 838.585 187.459Z" fill="white"/>
<path opacity="0.3" d="M670.588 655.188C642.056 679.155 580.962 650.5 514.791 617.729C448.619 584.958 377.393 548.419 371.574 500.098C365.456 451.804 424.446 391.753 489.844 337.809C555.219 283.515 626.981 234.979 661.332 259.333C695.982 283.661 692.899 380.557 693.695 467.622C694.491 554.686 698.82 631.248 670.588 655.188Z" fill="white"/>
</g>
<defs>
<clipPath id="clip0">
<rect width="570" height="425" rx="12" fill="white"/>
</clipPath>
</defs>
</svg>
