<svg width="92" height="92" viewBox="0 0 92 92" fill="none" xmlns="http://www.w3.org/2000/svg">
<g clip-path="url(#clip0_1908_112)">
<circle cx="46" cy="46" r="46" stroke="#AA43A2" stroke-width="1.5" stroke-linecap="round" stroke-linejoin="round" stroke-dasharray="2 5"/>
<circle cx="45.9998" cy="46" r="35.3846" fill="#FEC830"/>
<g clip-path="url(#clip1_1908_112)">
<path d="M46.0434 28.4832C38.0009 28.4832 31.4302 35.0539 31.4302 43.0964C31.4302 47.3017 33.27 51.3492 36.3714 54.0827C38.6842 56.3956 38.474 61.3367 38.4214 61.3893C38.4214 61.6521 38.474 61.8624 38.6842 62.0727C38.8419 62.2303 39.1048 62.3355 39.315 62.3355H52.7193C52.9821 62.3355 53.1924 62.2303 53.3501 62.0727C53.5078 61.915 53.6129 61.6521 53.6129 61.3893C53.6129 61.3367 53.3501 56.3956 55.663 54.0827C55.7155 54.0301 55.7681 53.9775 55.8207 53.925C58.8695 51.139 60.6567 47.1966 60.6567 43.0964C60.6567 35.0539 54.086 28.4832 46.0434 28.4832ZM54.454 52.716C54.4014 52.7685 54.2963 52.8737 54.2963 52.9262C52.2462 55.134 51.8782 58.761 51.8257 60.4957H40.2086C40.1561 58.761 39.7881 54.9763 37.5804 52.716C34.7944 50.2979 33.1648 46.776 33.1648 43.0439C33.1648 35.9475 38.8945 30.2178 45.9909 30.2178C53.0872 30.2178 58.8169 35.9475 58.8169 43.0439C58.8169 46.776 57.2399 50.2979 54.454 52.716Z" fill="#AA43A2"/>
<path d="M45.9905 32.2153C45.5174 32.2153 45.0969 32.6358 45.0969 33.1089C45.0969 33.582 45.5174 34.0025 45.9905 34.0025C51.2997 34.0025 55.5575 38.3129 55.5575 43.5695C55.5575 44.0426 55.978 44.4631 56.4511 44.4631C56.9242 44.4631 57.3447 44.0426 57.3447 43.5695C57.3973 37.3142 52.2984 32.2153 45.9905 32.2153Z" fill="#AA43A2"/>
<path d="M51.8256 63.3342H40.156C38.947 63.3342 37.9482 64.333 37.9482 65.542C37.9482 66.751 38.947 67.7497 40.156 67.7497H51.773C53.0346 67.6972 54.0333 66.751 54.0333 65.542C54.0333 64.333 53.0346 63.3342 51.8256 63.3342ZM51.8256 65.9099H40.156C39.9457 65.9099 39.7355 65.7522 39.7355 65.4894C39.7355 65.2266 39.8932 65.0689 40.156 65.0689H51.773C51.9833 65.0689 52.1935 65.2266 52.1935 65.4894C52.1935 65.7522 52.0358 65.9099 51.8256 65.9099Z" fill="#AA43A2"/>
<path d="M50.0909 68.6433H41.8906C40.6816 68.6433 39.6829 69.6421 39.6829 70.8511C39.6829 72.0601 40.6816 73.0588 41.8906 73.0588H50.0909C51.2999 73.0588 52.2986 72.0601 52.2986 70.8511C52.2986 69.5895 51.2999 68.6433 50.0909 68.6433ZM50.0909 71.219H41.8906C41.6804 71.219 41.4701 71.0613 41.4701 70.7985C41.4701 70.5357 41.6278 70.378 41.8906 70.378H50.0909C50.3011 70.378 50.5114 70.5357 50.5114 70.7985C50.5114 71.0613 50.3011 71.219 50.0909 71.219Z" fill="#AA43A2"/>
<path d="M45.9905 24.1202C46.5162 24.1202 46.8842 23.6997 46.8842 23.2266V17.1289C46.8842 16.6558 46.4636 16.2353 45.9905 16.2353C45.5174 16.2353 45.0969 16.6558 45.0969 17.1289V23.2266C45.0969 23.6997 45.5174 24.1202 45.9905 24.1202Z" fill="#AA43A2"/>
<path d="M60.8669 20.756C60.4464 20.4406 59.9208 20.5983 59.6579 20.9663L56.2937 26.0126C55.9783 26.4331 56.0835 27.0113 56.504 27.2741C56.6617 27.3793 56.8194 27.4318 56.9771 27.4318C57.2925 27.4318 57.5553 27.2741 57.713 27.0113L61.0772 21.965C61.3926 21.597 61.2875 21.0188 60.8669 20.756Z" fill="#AA43A2"/>
<path d="M35.32 27.2216C35.4777 27.2216 35.6354 27.169 35.7931 27.0639C36.2136 26.801 36.3188 26.2228 36.0559 25.8023L32.7968 20.7034C32.534 20.2829 31.9558 20.1778 31.5353 20.4406C31.1147 20.7034 31.0096 21.2816 31.2724 21.7022L34.5315 26.801C34.7418 27.1164 35.0046 27.2216 35.32 27.2216Z" fill="#AA43A2"/>
<path d="M28.9595 32.7935L23.6503 29.9024C23.2298 29.6922 22.6516 29.8499 22.4413 30.2704C22.1785 30.6909 22.3362 31.2691 22.8093 31.4794L28.1184 34.3705C28.2761 34.4231 28.3812 34.4756 28.5389 34.4756C28.8543 34.4756 29.1697 34.3179 29.3274 34.0026C29.5377 33.582 29.38 33.0038 28.9595 32.7935Z" fill="#AA43A2"/>
<path d="M69.5927 30.2704C69.3824 29.8499 68.8042 29.6922 68.3837 29.9024L63.022 32.7935C62.6014 33.0038 62.4437 33.582 62.654 34.0026C62.8117 34.3179 63.1271 34.4756 63.4425 34.4756C63.6002 34.4756 63.7579 34.4231 63.863 34.3705L69.2247 31.4794C69.6452 31.2691 69.8029 30.6909 69.5927 30.2704Z" fill="#AA43A2"/>
</g>
</g>
<defs>
<clipPath id="clip0_1908_112">
<rect width="92" height="92" fill="white"/>
</clipPath>
<clipPath id="clip1_1908_112">
<rect width="56.8235" height="56.8235" fill="white" transform="translate(17.5881 16.2353)"/>
</clipPath>
</defs>
</svg>
