<svg width="92" height="92" viewBox="0 0 92 92" fill="none" xmlns="http://www.w3.org/2000/svg">
<g clip-path="url(#clip0_1910_105)">
<circle cx="46" cy="46" r="46" stroke="#AA43A2" stroke-width="1.5" stroke-linecap="round" stroke-linejoin="round" stroke-dasharray="2 5"/>
<circle cx="45.9998" cy="46" r="35.3846" fill="#FEC830"/>
<path d="M26.8136 24.1008C25.9063 24.3116 24.8707 25.1181 24.4491 25.9338C24 26.8319 24 26.6944 24 35.6667V44.08L24.2291 44.2999C24.3483 44.4282 24.5591 44.5291 24.6965 44.5291C24.8432 44.5291 25.9888 43.9425 27.5468 43.0627L30.1496 41.5963H47.4434C61.5755 41.5963 64.8198 41.5688 65.1956 41.468C66.5428 41.1106 67.5051 40.1483 67.8625 38.8011C68.0458 38.1321 68.0458 27.4643 67.8625 26.7952C67.5051 25.448 66.5428 24.4857 65.1956 24.1283C64.829 24.0275 62.6478 24 53.9046 24H43.0719L42.8244 24.2108C42.4853 24.5132 42.4853 24.9531 42.8244 25.2556L43.0719 25.4664H53.9046H64.7373L65.1956 25.6863C65.7455 25.9429 66.0846 26.2912 66.332 26.8411C66.5153 27.2443 66.5245 27.4185 66.5245 32.7982C66.5245 38.1779 66.5153 38.352 66.332 38.7553C66.0846 39.3051 65.7455 39.6534 65.1956 39.91L64.7373 40.13H47.251H29.7555L27.6476 41.3214C26.4836 41.9813 25.5213 42.5128 25.503 42.5128C25.4847 42.5128 25.4664 39.076 25.4664 34.8786C25.4664 27.4093 25.4755 27.2443 25.6588 26.8411C25.9063 26.2912 26.2454 25.9429 26.7953 25.6863L27.2535 25.4664H32.3674H37.4814L37.7013 25.2372C38.0037 24.944 38.0037 24.5224 37.7013 24.2291L37.4814 24L32.3216 24.0092C29.4805 24.0183 27.006 24.055 26.8136 24.1008Z" fill="#AA43A2"/>
<path d="M39.6258 24.2291C39.4792 24.3666 39.3967 24.5591 39.3967 24.7332C39.3967 24.9073 39.4792 25.0998 39.6258 25.2373C39.8183 25.4389 39.9283 25.4664 40.4965 25.4664C41.0647 25.4664 41.1747 25.4389 41.3672 25.2373C41.5138 25.0998 41.5963 24.9073 41.5963 24.7332C41.5963 24.5591 41.5138 24.3666 41.3672 24.2291C41.1747 24.0275 41.0647 24 40.4965 24C39.9283 24 39.8183 24.0275 39.6258 24.2291Z" fill="#AA43A2"/>
<path d="M33.0913 27.8217C32.9905 27.9134 32.6423 28.5457 32.3306 29.2239C32.019 29.9021 31.7166 30.507 31.6616 30.562C31.6066 30.617 30.9651 30.7544 30.2411 30.8553C28.848 31.066 28.5273 31.1944 28.4356 31.5518C28.344 31.9367 28.4906 32.175 29.5262 33.2381L30.5435 34.2737L30.3327 35.5751C30.2136 36.29 30.1036 36.9865 30.0761 37.124C30.0395 37.3164 30.0944 37.4356 30.3052 37.6555C30.461 37.8021 30.681 37.9305 30.791 37.9305C30.9009 37.9305 31.57 37.6188 32.2665 37.2339L33.5312 36.5374L34.796 37.2339C35.4925 37.6188 36.1524 37.9305 36.2623 37.9305C36.5648 37.9305 36.9497 37.5455 36.9589 37.2339C36.9589 37.0873 36.8672 36.3633 36.7389 35.6209L36.5189 34.2737L37.5362 33.2289C38.5718 32.175 38.7185 31.9367 38.6268 31.5518C38.5352 31.1944 38.2053 31.066 36.8031 30.8461C36.0607 30.7361 35.4283 30.5986 35.3825 30.5528C35.3367 30.4978 35.0434 29.9021 34.7318 29.2239C34.1269 27.9134 33.9345 27.6659 33.5312 27.6659C33.3938 27.6659 33.1921 27.7392 33.0913 27.8217ZM33.9162 30.9377C34.0994 31.3318 34.3194 31.7259 34.4294 31.8176C34.576 31.955 35.8682 32.2483 36.3173 32.2483C36.3631 32.2483 36.1065 32.5507 35.7491 32.9173C35.3917 33.2931 35.0709 33.6963 35.0434 33.8155C35.0159 33.9438 35.0526 34.4295 35.1351 34.8969C35.2175 35.3643 35.2725 35.7676 35.2542 35.7767C35.2359 35.7951 34.9151 35.6209 34.5394 35.401C34.1453 35.1719 33.7329 35.0069 33.5587 35.0069C33.3846 34.9977 32.9997 35.1535 32.5598 35.401C32.1565 35.6301 31.8266 35.7951 31.8083 35.7767C31.7899 35.7676 31.8449 35.3643 31.9274 34.8969C32.0099 34.4295 32.0465 33.9438 32.019 33.8155C31.9916 33.6963 31.6708 33.2931 31.3134 32.9173C30.9559 32.5507 30.6993 32.2483 30.7451 32.2483C31.1942 32.2483 32.4864 31.955 32.6331 31.8176C32.7431 31.7259 32.963 31.3318 33.1463 30.9377C33.3204 30.5528 33.4946 30.2321 33.5312 30.2321C33.5679 30.2321 33.742 30.5528 33.9162 30.9377Z" fill="#AA43A2"/>
<path d="M45.5557 27.8217C45.4549 27.9134 45.1066 28.5457 44.795 29.2239C44.4834 29.9021 44.181 30.507 44.126 30.562C44.071 30.617 43.4295 30.7544 42.7054 30.8553C41.3124 31.066 40.9916 31.1944 40.9 31.5518C40.8083 31.9367 40.955 32.175 41.9906 33.2381L43.0079 34.2737L42.7971 35.5751C42.6779 36.29 42.568 36.9865 42.5405 37.124C42.5038 37.3164 42.5588 37.4356 42.7696 37.6555C42.9254 37.8021 43.1453 37.9305 43.2553 37.9305C43.3653 37.9305 44.0343 37.6188 44.7309 37.2339L45.9956 36.5374L47.2603 37.2339C47.9568 37.6188 48.6167 37.9305 48.7267 37.9305C49.0291 37.9305 49.414 37.5455 49.4232 37.2339C49.4232 37.0873 49.3316 36.3633 49.2033 35.6209L48.9833 34.2737L50.0006 33.2289C51.0362 32.175 51.1828 31.9367 51.0912 31.5518C50.9995 31.1944 50.6696 31.066 49.2674 30.8461C48.5251 30.7361 47.8927 30.5986 47.8469 30.5528C47.801 30.4978 47.5078 29.9021 47.1962 29.2239C46.5913 27.9134 46.3988 27.6659 45.9956 27.6659C45.8581 27.6659 45.6565 27.7392 45.5557 27.8217ZM46.3805 30.9377C46.5638 31.3318 46.7838 31.7259 46.8937 31.8176C47.0404 31.955 48.3326 32.2483 48.7817 32.2483C48.8275 32.2483 48.5709 32.5507 48.2135 32.9173C47.856 33.2931 47.5353 33.6963 47.5078 33.8155C47.4803 33.9438 47.5169 34.4295 47.5994 34.8969C47.6819 35.3643 47.7369 35.7676 47.7186 35.7767C47.7002 35.7951 47.3795 35.6209 47.0037 35.401C46.6096 35.1719 46.1972 35.0069 46.0231 35.0069C45.849 34.9977 45.464 35.1535 45.0241 35.401C44.6209 35.6301 44.2909 35.7951 44.2726 35.7767C44.2543 35.7676 44.3093 35.3643 44.3918 34.8969C44.4742 34.4295 44.5109 33.9438 44.4834 33.8155C44.4559 33.6963 44.1351 33.2931 43.7777 32.9173C43.4203 32.5507 43.1637 32.2483 43.2095 32.2483C43.6586 32.2483 44.9508 31.955 45.0974 31.8176C45.2074 31.7259 45.4274 31.3318 45.6107 30.9377C45.7848 30.5528 45.9589 30.2321 45.9956 30.2321C46.0322 30.2321 46.2064 30.5528 46.3805 30.9377Z" fill="#AA43A2"/>
<path d="M58.0195 27.8217C57.9187 27.9134 57.5705 28.5457 57.2589 29.2239C56.9473 29.9021 56.6448 30.507 56.5898 30.562C56.5349 30.617 55.8933 30.7544 55.1693 30.8553C53.7763 31.066 53.4555 31.1944 53.3638 31.5518C53.2722 31.9367 53.4188 32.175 54.4545 33.2381L55.4717 34.2737L55.261 35.5751C55.1418 36.29 55.0318 36.9865 55.0043 37.124C54.9677 37.3164 55.0227 37.4356 55.2335 37.6555C55.3893 37.8021 55.6092 37.9305 55.7192 37.9305C55.8292 37.9305 56.4982 37.6188 57.1947 37.2339L58.4595 36.5374L59.7242 37.2339C60.4207 37.6188 61.0806 37.9305 61.1906 37.9305C61.493 37.9305 61.8779 37.5455 61.8871 37.2339C61.8871 37.0873 61.7954 36.3633 61.6671 35.6209L61.4472 34.2737L62.4645 33.2289C63.5001 32.175 63.6467 31.9367 63.5551 31.5518C63.4634 31.1944 63.1335 31.066 61.7313 30.8461C60.9889 30.7361 60.3566 30.5986 60.3107 30.5528C60.2649 30.4978 59.9716 29.9021 59.66 29.2239C59.0552 27.9134 58.8627 27.6659 58.4595 27.6659C58.322 27.6659 58.1204 27.7392 58.0195 27.8217ZM58.8444 30.9377C59.0277 31.3318 59.2476 31.7259 59.3576 31.8176C59.5042 31.955 60.7965 32.2483 61.2455 32.2483C61.2914 32.2483 61.0348 32.5507 60.6773 32.9173C60.3199 33.2931 59.9991 33.6963 59.9716 33.8155C59.9441 33.9438 59.9808 34.4295 60.0633 34.8969C60.1458 35.3643 60.2008 35.7676 60.1824 35.7767C60.1641 35.7951 59.8433 35.6209 59.4676 35.401C59.0735 35.1719 58.6611 35.0069 58.4869 35.0069C58.3128 34.9977 57.9279 35.1535 57.488 35.401C57.0847 35.6301 56.7548 35.7951 56.7365 35.7767C56.7182 35.7676 56.7731 35.3643 56.8556 34.8969C56.9381 34.4295 56.9748 33.9438 56.9473 33.8155C56.9198 33.6963 56.599 33.2931 56.2416 32.9173C55.8842 32.5507 55.6275 32.2483 55.6734 32.2483C56.1224 32.2483 57.4147 31.955 57.5613 31.8176C57.6713 31.7259 57.8912 31.3318 58.0745 30.9377C58.2487 30.5528 58.4228 30.2321 58.4595 30.2321C58.4961 30.2321 58.6702 30.5528 58.8444 30.9377Z" fill="#AA43A2"/>
<path d="M64.8749 43.3468C64.5633 43.4843 63.1978 44.7857 59.1561 48.8182C56.2417 51.7234 53.8039 54.2254 53.7398 54.3812C53.6756 54.5278 53.5106 55.261 53.364 56.0033C53.144 57.1581 53.1257 57.3781 53.2265 57.5705C53.4648 58.0196 53.6756 58.0288 55.2886 57.7172L56.7641 57.4239L62.153 52.0533C65.2507 48.974 67.6244 46.5362 67.7252 46.3345C68.2934 45.2439 67.8535 43.8784 66.772 43.3743C66.1672 43.0994 65.4523 43.081 64.8749 43.3468ZM66.3321 44.859C66.6162 45.2164 66.5704 45.4914 66.1672 45.9313L65.8006 46.3162L65.2965 45.8121L64.7833 45.3172L65.1224 44.969C65.5531 44.5199 66.0389 44.4832 66.3321 44.859ZM60.3934 51.7142L56.0493 56.0583L55.4627 56.1683C55.142 56.2325 54.8579 56.2691 54.8395 56.2508C54.8212 56.2325 54.8579 55.9484 54.9312 55.6276L55.0503 55.041L59.3944 50.697L63.7293 46.362L64.2334 46.8661L64.7375 47.3701L60.3934 51.7142Z" fill="#AA43A2"/>
<path d="M26.8136 47.5626C25.9063 47.7734 24.8707 48.5799 24.4491 49.3955C24.0092 50.2662 24 50.367 24 56.2599C24 62.1529 24.0092 62.2537 24.4491 63.1243C24.7149 63.6376 25.4205 64.3433 25.9338 64.609C26.7769 65.0398 27.0152 65.0581 31.2677 65.0581H35.2818L35.5018 64.829C35.6484 64.6915 35.7309 64.4991 35.7309 64.3249C35.7309 64.1508 35.6484 63.9583 35.5018 63.8209L35.2818 63.5917H31.2677H27.2535L26.7953 63.3718C26.2454 63.1152 25.9063 62.7669 25.6588 62.217C25.4755 61.8138 25.4664 61.6397 25.4664 56.2599C25.4664 50.8802 25.4755 50.7061 25.6588 50.3028C25.9063 49.753 26.2454 49.4047 26.7953 49.1481L27.2535 48.9281H42.632H58.0104L58.2304 48.699C58.5328 48.4057 58.5328 47.9842 58.2304 47.6909L58.0104 47.4618L42.5861 47.4709C33.9987 47.4801 27.006 47.5168 26.8136 47.5626Z" fill="#AA43A2"/>
<path d="M66.1485 48.8273C65.8736 49.0473 65.8644 49.533 66.1302 49.8996C66.5335 50.4587 66.5335 50.532 66.506 58.4412L66.4785 65.9746L64.3522 64.7832L62.2352 63.5918H51.4116H40.5789L40.3589 63.8209C40.0565 64.1142 40.0565 64.5357 40.3589 64.829L40.5789 65.0581H51.2191H61.8503L64.4531 66.5245C65.9836 67.386 67.1567 67.9908 67.3033 67.9908C67.4316 67.9908 67.6424 67.89 67.7707 67.7617L67.9907 67.5326L67.9723 58.8994L67.9448 50.257L67.6882 49.7072C67.2208 48.7082 66.6801 48.3966 66.1485 48.8273Z" fill="#AA43A2"/>
<path d="M28.6283 51.3568C28.4817 51.4943 28.3992 51.6867 28.3992 51.8609C28.3992 52.035 28.4817 52.2275 28.6283 52.3649C28.8391 52.5849 28.8849 52.5941 30.2138 52.5941C31.4602 52.5941 31.6068 52.5757 31.8268 52.4016C32.1659 52.1358 32.1659 51.5859 31.8268 51.3202C31.6068 51.146 31.4602 51.1277 30.2138 51.1277C28.8849 51.1277 28.8391 51.1369 28.6283 51.3568Z" fill="#AA43A2"/>
<path d="M34.6679 51.3385C34.4846 51.4943 34.4204 51.6409 34.4204 51.8609C34.4204 52.0808 34.4846 52.2275 34.6679 52.3833L34.9153 52.5941H44.2634H53.6114L53.8314 52.3649C53.978 52.2275 54.0605 52.035 54.0605 51.8609C54.0605 51.6867 53.978 51.4943 53.8314 51.3568L53.6114 51.1277H44.2634H34.9153L34.6679 51.3385Z" fill="#AA43A2"/>
<path d="M28.6283 54.2895C28.4817 54.427 28.3992 54.6195 28.3992 54.7936C28.3992 54.9677 28.4817 55.1602 28.6283 55.2976L28.8482 55.5268H35.8043C42.7054 55.5268 42.7695 55.5268 43.0078 55.3343C43.3469 55.0685 43.3469 54.5186 43.0078 54.2529C42.7695 54.0604 42.7054 54.0604 35.8043 54.0604H28.8482L28.6283 54.2895Z" fill="#AA43A2"/>
<path d="M44.2817 54.2437C44.1718 54.3353 44.0618 54.5095 44.0251 54.6103C43.9335 54.8852 44.1351 55.2976 44.4009 55.426C44.5567 55.4901 45.6931 55.5268 48.021 55.5268H51.4119L51.6319 55.2976C51.7785 55.1602 51.861 54.9677 51.861 54.7936C51.861 54.6195 51.7785 54.427 51.6319 54.2895L51.4119 54.0604H47.9385C44.6208 54.0604 44.465 54.0696 44.2817 54.2437Z" fill="#AA43A2"/>
<path d="M28.6283 57.2223C28.4817 57.3597 28.3992 57.5522 28.3992 57.7263C28.3992 57.9005 28.4817 58.0929 28.6283 58.2304L28.8482 58.4595H40.1301H51.4119L51.6318 58.2304C51.9343 57.9371 51.9343 57.5155 51.6318 57.2223L51.4119 56.9931H40.1301H28.8482L28.6283 57.2223Z" fill="#AA43A2"/>
<path d="M28.6283 60.155C28.4817 60.2924 28.3992 60.4849 28.3992 60.659C28.3992 60.8332 28.4817 61.0256 28.6283 61.1631L28.8482 61.3922H33.1648H37.4814L37.7014 61.1631C38.0038 60.8698 38.0038 60.4482 37.7014 60.155L37.4814 59.9259H33.1648H28.8482L28.6283 60.155Z" fill="#AA43A2"/>
<path d="M39.4333 60.1366C39.1034 60.4299 39.1034 60.8973 39.4425 61.1814L39.6808 61.3922H51.485C63.2892 61.3922 63.2892 61.3922 63.5366 61.1998C63.7199 61.0531 63.7749 60.934 63.7749 60.659C63.7749 60.3841 63.7199 60.2649 63.5366 60.1183C63.2892 59.9259 63.2892 59.9259 51.485 59.9259H39.6808L39.4333 60.1366Z" fill="#AA43A2"/>
<path d="M36.8583 63.775C36.5925 64.0225 36.5192 64.2883 36.6475 64.5907C36.7941 64.9481 37.0874 65.0581 37.9305 65.0581C38.7737 65.0581 39.067 64.9481 39.2136 64.5907C39.3419 64.2883 39.2686 64.0225 39.0028 63.775C38.8379 63.6192 38.682 63.5917 37.9305 63.5917C37.179 63.5917 37.0232 63.6192 36.8583 63.775Z" fill="#AA43A2"/>
</g>
<defs>
<clipPath id="clip0_1910_105">
<rect width="92" height="92" fill="white"/>
</clipPath>
</defs>
</svg>
