<svg width="92" height="92" viewBox="0 0 92 92" fill="none" xmlns="http://www.w3.org/2000/svg">
<g clip-path="url(#clip0_1910_123)">
<circle cx="46" cy="46" r="46" stroke="#AA43A2" stroke-width="1.5" stroke-linecap="round" stroke-linejoin="round" stroke-dasharray="2 5"/>
<circle cx="46.0001" cy="46.0001" r="35.3846" fill="#FEC830"/>
<g clip-path="url(#clip1_1910_123)">
<path d="M57.4909 50.4754C58.8726 50.4754 59.9966 49.3513 59.9966 47.9697C59.9966 47.5478 59.6547 47.206 59.233 47.206C58.8112 47.206 58.4693 47.5478 58.4693 47.9697C58.4693 48.5092 58.0303 48.9481 57.4909 48.9481C56.9514 48.9481 56.5125 48.5091 56.5125 47.9697C56.5125 47.5478 56.1705 47.206 55.7488 47.206C55.327 47.206 54.9851 47.5478 54.9851 47.9697C54.985 49.3513 56.1091 50.4754 57.4909 50.4754Z" fill="#AA43A2"/>
<path d="M61.4949 46.1917C61.9166 46.1917 62.2585 45.8499 62.2585 45.428V44.6301C62.6356 44.5833 62.9275 44.2619 62.9275 43.8722C62.9275 43.4503 62.5856 43.1085 62.1638 43.1085H61.4949C61.0731 43.1085 60.7312 43.4503 60.7312 43.8722V45.428C60.7312 45.8499 61.0731 46.1917 61.4949 46.1917Z" fill="#AA43A2"/>
<path d="M52.7232 44.6302V45.4282C52.7232 45.85 53.0651 46.1918 53.4868 46.1918C53.9086 46.1918 54.2505 45.85 54.2505 45.4282V43.8723C54.2505 43.4504 53.9086 43.1086 53.4868 43.1086H52.8179C52.3961 43.1086 52.0542 43.4504 52.0542 43.8723C52.0542 44.2619 52.3461 44.5834 52.7232 44.6302Z" fill="#AA43A2"/>
<path d="M68.9046 45.5653C69.1214 45.1066 69.2432 44.5946 69.2432 44.0546C69.2432 43.1558 68.9067 42.3345 68.3539 41.7085C68.4417 41.5841 68.4936 41.4328 68.4936 41.269C68.4936 39.0134 68.6062 37.6758 67.9277 35.7356C67.7884 35.3375 67.3528 35.1272 66.9547 35.2668C66.5565 35.406 66.3467 35.8417 66.4859 36.2399C67.0405 37.8253 66.9662 38.9251 66.9662 40.5053C65.9921 40.5053 63.3681 40.5053 62.2617 40.5053C60.0522 40.5053 58.2545 38.7077 58.2544 36.4982C58.2544 36.0763 57.9125 35.7345 57.4907 35.7345C57.069 35.7345 56.7271 36.0763 56.7271 36.4982C56.7271 38.7077 54.9294 40.5053 52.7197 40.5053H49.4015H48.0153V39.0826C48.0153 34.3367 51.8764 30.4756 56.6224 30.4756C56.6801 30.4756 56.7271 30.5225 56.7271 30.5802C56.7271 31.002 57.069 31.3438 57.4907 31.3438C57.9125 31.3438 58.2544 31.002 58.2544 30.5802C58.2544 30.5225 58.3013 30.4756 58.3591 30.4756C60.8471 30.4757 63.2126 31.5521 64.8491 33.4289C65.1262 33.7469 65.6087 33.7797 65.9266 33.5028C66.2444 33.2255 66.2774 32.7432 66.0003 32.4253C64.0737 30.2157 61.2886 28.9484 58.3592 28.9483C58.0403 28.9483 57.7424 29.0403 57.4908 29.199C57.2392 29.0403 56.9414 28.9483 56.6225 28.9483C51.0343 28.9483 46.4881 33.4946 46.4881 39.0827V41.2691C46.4881 41.4328 46.5401 41.5842 46.6278 41.7086C46.3714 41.9989 46.1614 42.3309 46.0103 42.6936C45.9186 41.5674 45.3504 40.5784 44.5021 39.9314V37.0221C44.5021 31.2939 39.842 26.6338 34.1138 26.6338C32.6916 26.6338 33.2615 26.6092 31.2942 26.763C28.5807 26.9748 26.1523 28.4269 24.6823 30.6859L22.3825 29.9509C21.906 29.7981 21.4112 30.1396 21.3872 30.6418C21.3763 30.872 21.1459 35.9861 22.0784 39.5482C20.8079 40.1854 19.9333 41.4998 19.9333 43.0155C19.9333 44.9821 21.4053 46.6114 23.3054 46.8597C23.7837 48.9116 24.9135 50.7743 26.5297 52.1557C26.9535 52.5179 27.4057 52.8402 27.8792 53.1235H26.2722C23.6319 53.1235 21.4838 55.2717 21.4838 57.9119V64.604C21.4838 65.0259 21.8257 65.3677 22.2475 65.3677H23.5161C23.9378 65.3677 24.2798 65.0259 24.2798 64.604C24.2798 64.1822 23.9378 63.8404 23.5161 63.8404H23.0112V57.9119C23.0112 56.1138 24.474 54.6509 26.2722 54.6509H28.4938C28.8733 56.9026 30.9098 58.5956 33.2889 58.442C35.4425 58.3032 37.1489 56.6828 37.4917 54.6509H39.7136C41.5118 54.6509 42.9748 56.1138 42.9748 57.9119V63.8404H27.08C26.6582 63.8404 26.3163 64.1822 26.3163 64.604C26.3163 65.0259 26.6582 65.3677 27.08 65.3677H43.7385C44.1603 65.3677 44.5022 65.0259 44.5022 64.604V57.9119C44.5022 57.2761 44.3766 56.6692 44.1505 56.1135H45.3775C46.1457 56.1135 46.8784 55.9601 47.5481 55.6838C47.077 56.4123 46.8023 57.2792 46.8023 58.2095V64.604C46.8023 65.0259 47.1442 65.3677 47.566 65.3677H67.4672C67.889 65.3677 68.2309 65.0259 68.2309 64.604V58.2095C68.2309 57.2907 67.9629 56.4338 67.5025 55.7108C68.1535 55.9697 68.8623 56.1135 69.6046 56.1135H71.303C71.7248 56.1135 72.0667 55.7717 72.0667 55.3499V50.6727C72.0667 48.4972 70.8058 46.5192 68.9046 45.5653ZM52.7199 42.0328C54.7497 42.0328 56.5277 40.9347 57.4909 39.3012C58.4543 40.9347 60.2322 42.0328 62.262 42.0328H65.6941C66.809 42.0328 67.7159 42.9397 67.7159 44.0546C67.7159 44.5997 67.4981 45.0942 67.1462 45.4581C66.7441 45.8735 66.1865 46.0974 65.613 46.0741C65.2268 46.0563 64.8911 46.3309 64.8276 46.7111C64.2466 50.1846 61.2418 52.9138 57.4909 52.9138C54.8409 52.9138 52.3655 51.5128 51.0335 49.1829C51.0211 49.1514 51.0069 49.1206 50.9903 49.0908C50.6793 48.533 50.4435 47.9438 50.286 47.3324C50.2829 47.3202 50.2803 47.3078 50.2773 47.2956C50.2339 47.1233 50.1927 46.9405 50.1543 46.711C50.0909 46.3317 49.7537 46.0565 49.3688 46.074C48.226 46.1204 47.266 45.1984 47.266 44.0544C47.266 42.9395 48.173 42.0326 49.2878 42.0326C49.3156 42.0326 49.3433 42.0338 49.3709 42.0348C49.4035 42.0361 49.4355 42.0353 49.4673 42.0326H52.7199V42.0328ZM57.5035 57.6535C56.0504 57.6535 54.8683 56.4714 54.8683 55.0182V54.3073V54.0506C55.735 54.3166 56.6401 54.4413 57.4908 54.4413C58.3695 54.4413 59.2844 54.3079 60.1385 54.043V55.0183C60.1385 56.426 59.0291 57.5795 57.6388 57.6502C57.594 57.6524 57.5489 57.6535 57.5035 57.6535ZM51.4671 53.5436C51.4669 53.5436 51.4665 53.5436 51.4662 53.5436C50.9427 53.5438 50.4397 53.632 49.9696 53.7919C50.4415 53.1539 50.7834 52.4144 50.9569 51.6128C51.1809 51.8513 51.4177 52.0793 51.6684 52.2936C52.1845 52.7347 52.7463 53.112 53.3409 53.4224V53.5436H51.4671ZM61.666 53.4098C62.5305 52.9552 63.3214 52.3621 64.0249 51.6129C64.1964 52.405 64.5325 53.1361 64.9959 53.769C64.124 53.4873 63.669 53.5436 61.6661 53.5436V53.4098H61.666ZM22.8878 31.7158L24.7928 32.3246C25.14 32.4352 25.5173 32.2857 25.6937 31.9665C26.8637 29.8499 29.0019 28.4737 31.4132 28.2856C33.333 28.1358 32.7509 28.161 34.1138 28.161C38.9997 28.161 42.9748 32.136 42.9748 37.022V39.2279C42.3074 39.0843 42.5185 39.1415 32.045 39.1415C31.2836 39.1415 30.5542 38.9723 29.897 38.6667C28.4512 37.9945 27.3548 36.6623 27.0337 35.0207C26.911 34.3935 26.1389 34.2048 25.7266 34.6456C24.6249 35.8233 23.8548 37.2184 23.4366 38.6662C22.9115 36.2909 22.869 33.2597 22.8878 31.7158ZM24.6902 45.9996C24.6284 45.6303 24.3088 45.3619 23.9373 45.3619C23.927 45.3619 23.9167 45.3621 23.9063 45.3625C23.8744 45.3638 23.8425 45.365 23.8104 45.365C22.5148 45.365 21.4607 44.311 21.4607 43.0155C21.4607 41.7416 22.4761 40.712 23.725 40.6679C23.7281 40.6678 23.7312 40.6678 23.7343 40.6677C23.7911 40.666 23.8479 40.666 23.9044 40.6683C23.9057 40.6683 23.9069 40.6683 23.9081 40.6684C23.9105 40.6685 23.9128 40.6682 23.9151 40.6683C24.2961 40.6801 24.6272 40.408 24.6902 40.0313C24.8626 39.0006 25.2246 38.02 25.7555 37.1311C25.8313 37.0041 25.9107 36.879 25.9933 36.7559C27.0446 39.0906 29.3949 40.6689 32.045 40.6689H42.2573H42.2578C42.6286 40.6861 43.0147 40.798 43.3475 40.9962C43.3534 40.9998 43.3597 41.0021 43.3658 41.0055C44.0461 41.4169 44.497 42.1623 44.497 43.0154C44.497 44.3109 43.4429 45.3649 42.1473 45.3649C42.1152 45.3649 42.0832 45.3636 42.0513 45.3624C41.6671 45.3486 41.3309 45.62 41.2674 45.9995C40.5753 50.138 37.0141 53.007 32.9788 53.007C28.9124 53.0071 25.3774 50.1085 24.6902 45.9996ZM32.8397 56.9214C31.3454 56.8467 30.1269 55.6843 29.974 54.2019C29.9729 54.1908 29.9723 54.1795 29.9713 54.1683C29.9682 54.1353 29.9657 54.1021 29.9637 54.0688C30.9694 54.3898 32.0181 54.5344 32.979 54.5344C33.958 54.5344 35.0152 54.3847 36.0233 54.0594C35.931 55.7225 34.5051 57.0046 32.8397 56.9214ZM39.7137 53.1235H38.0787C38.5522 52.8402 39.0044 52.5179 39.4282 52.1557C41.0443 50.7744 42.1742 48.9117 42.6524 46.8597C44.0719 46.6743 45.2522 45.7178 45.7585 44.4259C45.8006 44.8295 45.9107 45.2132 46.0771 45.5653C44.1759 46.5192 42.915 48.4971 42.915 50.6727V54.3546C42.0662 53.5899 40.9435 53.1235 39.7137 53.1235ZM44.4424 54.5862V50.6727C44.4424 48.9734 45.4922 47.4378 47.0413 46.8019C47.5485 47.2162 48.1594 47.4764 48.7701 47.5661C48.9465 48.3028 49.2241 49.0224 49.5594 49.6566V50.4038C49.5594 52.7099 47.6834 54.5861 45.3773 54.5861H44.4424V54.5862ZM66.7035 63.8404H48.3295V58.2095C48.3295 56.4789 49.7375 55.071 51.4681 55.071H53.3413C53.3694 57.3261 55.2131 59.1809 57.5035 59.1809C59.7677 59.1809 61.6371 57.3546 61.6657 55.071H63.5649C65.2955 55.071 66.7034 56.4789 66.7034 58.2095V63.8404H66.7035ZM70.5393 54.5862H69.6044C67.2983 54.5862 65.4222 52.71 65.4222 50.4039V49.6568C65.7625 49.013 66.0374 48.2935 66.2116 47.5662C66.7853 47.482 67.3639 47.2488 67.8671 46.8579C67.8914 46.8391 67.9166 46.8216 67.9404 46.8021C69.4895 47.4379 70.5393 48.9734 70.5393 50.6727V54.5862Z" fill="#AA43A2"/>
<path d="M32.9788 50.1153C34.4735 50.1153 35.6896 48.8992 35.6896 47.4044C35.6896 46.9826 35.3477 46.6408 34.9259 46.6408C34.5042 46.6408 34.1622 46.9826 34.1622 47.4044C34.1622 48.057 33.6313 48.5879 32.9788 48.5879C32.3262 48.5879 31.7952 48.057 31.7952 47.4044C31.7952 46.9826 31.4532 46.6408 31.0315 46.6408C30.6097 46.6408 30.2678 46.9826 30.2678 47.4044C30.2679 48.8991 31.484 50.1153 32.9788 50.1153Z" fill="#AA43A2"/>
<path d="M28.5037 42.0863C28.0819 42.0863 27.74 42.4281 27.74 42.85V44.5384C27.74 44.9603 28.0819 45.3021 28.5037 45.3021C28.9254 45.3021 29.2673 44.9603 29.2673 44.5384V42.85C29.2673 42.4282 28.9254 42.0863 28.5037 42.0863Z" fill="#AA43A2"/>
<path d="M37.4543 45.3021C37.8761 45.3021 38.218 44.9603 38.218 44.5384V42.85C38.218 42.4281 37.8761 42.0863 37.4543 42.0863C37.0326 42.0863 36.6907 42.4281 36.6907 42.85V44.5384C36.6907 44.9603 37.0326 45.3021 37.4543 45.3021Z" fill="#AA43A2"/>
</g>
</g>
<defs>
<clipPath id="clip0_1910_123">
<rect width="92" height="92" fill="white"/>
</clipPath>
<clipPath id="clip1_1910_123">
<rect width="52.1333" height="52.1333" fill="white" transform="translate(19.9333 19.9333)"/>
</clipPath>
</defs>
</svg>
