<svg width="221" height="225" viewBox="0 0 221 225" fill="none" xmlns="http://www.w3.org/2000/svg">
<ellipse rx="91" ry="180.611" transform="matrix(-0.925742 -0.378155 -0.378155 0.925742 190.541 201.611)" fill="#FEC830"/>
<circle cx="17.0861" cy="197.689" r="2.5" transform="rotate(-68.1212 17.0861 197.689)" fill="white"/>
<circle cx="28.0392" cy="199.932" r="2.5" transform="rotate(-68.1212 28.0392 199.932)" fill="white"/>
<circle cx="27.133" cy="183.404" r="2.5" transform="rotate(-68.1212 27.133 183.404)" fill="white"/>
<circle cx="29.9387" cy="168.366" r="2.5" transform="rotate(-68.1212 29.9387 168.366)" fill="white"/>
<circle cx="44.4355" cy="159.101" r="2.5" transform="rotate(-68.1212 44.4355 159.101)" fill="white"/>
<circle cx="39.2548" cy="145.167" r="2.5" transform="rotate(-68.1212 39.2548 145.167)" fill="white"/>
<circle cx="58.3696" cy="153.921" r="2.5" transform="rotate(-68.1212 58.3696 153.921)" fill="white"/>
<circle cx="53.5616" cy="139.058" r="2.5" transform="rotate(-68.1212 53.5616 139.058)" fill="white"/>
<circle cx="69.7099" cy="144.465" r="2.5" transform="rotate(-68.1212 69.7099 144.465)" fill="white"/>
<circle cx="66.3924" cy="125.891" r="2.5" transform="rotate(-68.1212 66.3924 125.891)" fill="white"/>
<circle cx="78.836" cy="124.423" r="2.5" transform="rotate(-68.1212 78.836 124.423)" fill="white"/>
<circle cx="94.9987" cy="119.059" r="2.5" transform="rotate(-68.1212 94.9987 119.059)" fill="white"/>
<circle cx="107.062" cy="123.904" r="2.5" transform="rotate(-68.1212 107.062 123.904)" fill="white"/>
<circle cx="120.083" cy="107.58" r="2.5" transform="rotate(-68.1212 120.083 107.58)" fill="white"/>
<circle cx="132.527" cy="106.111" r="2.5" transform="rotate(-68.1212 132.527 106.111)" fill="white"/>
<circle cx="127.865" cy="120.404" r="2.5" transform="rotate(-68.1212 127.865 120.404)" fill="white"/>
<circle cx="113.544" cy="137.283" r="2.5" transform="rotate(-68.1212 113.544 137.283)" fill="white"/>
<circle cx="99.6241" cy="131.693" r="2.5" transform="rotate(-68.1212 99.6241 131.693)" fill="white"/>
<circle cx="87.5386" cy="143.004" r="2.5" transform="rotate(-68.1212 87.5386 143.004)" fill="white"/>
<circle cx="79.1723" cy="150.42" r="2.5" transform="rotate(-68.1212 79.1723 150.42)" fill="white"/>
<circle cx="81.5763" cy="157.852" r="2.5" transform="rotate(-68.1212 81.5763 157.852)" fill="white"/>
<circle cx="73.7653" cy="166.569" r="2.5" transform="rotate(-68.1212 73.7653 166.569)" fill="white"/>
<circle cx="66.137" cy="177.514" r="2.5" transform="rotate(-68.1212 66.137 177.514)" fill="white"/>
<circle cx="42.7404" cy="176.74" r="2.5" transform="rotate(-68.1212 42.7404 176.74)" fill="white"/>
<circle cx="49.4116" cy="186.962" r="2.5" transform="rotate(-68.1212 49.4116 186.962)" fill="white"/>
<circle cx="51.2531" cy="198.478" r="2.5" transform="rotate(-68.1212 51.2531 198.478)" fill="white"/>
<circle cx="41.3962" cy="209.606" r="2.5" transform="rotate(-68.1212 41.3962 209.606)" fill="white"/>
<circle cx="55.1331" cy="212.967" r="2.5" transform="rotate(-68.1212 55.1331 212.967)" fill="white"/>
<circle cx="59.3858" cy="226.529" r="2.5" transform="rotate(-68.1212 59.3858 226.529)" fill="white"/>
<circle cx="80.7438" cy="224.329" r="2.5" transform="rotate(-68.1212 80.7438 224.329)" fill="white"/>
<circle cx="68.3292" cy="204.258" r="2.5" transform="rotate(-68.1212 68.3292 204.258)" fill="white"/>
<circle cx="72.8083" cy="187.737" r="2.5" transform="rotate(-68.1212 72.8083 187.737)" fill="white"/>
<circle cx="83.9367" cy="197.594" r="2.5" transform="rotate(-68.1212 83.9367 197.594)" fill="white"/>
<circle cx="93.2455" cy="179.779" r="2.5" transform="rotate(-68.1212 93.2455 179.779)" fill="white"/>
<circle cx="97.9145" cy="160.102" r="2.5" transform="rotate(-68.1212 97.9145 160.102)" fill="white"/>
<circle cx="109.416" cy="169.031" r="2.5" transform="rotate(-68.1212 109.416 169.031)" fill="white"/>
<circle cx="101.59" cy="188.518" r="2.5" transform="rotate(-68.1212 101.59 188.518)" fill="white"/>
<circle cx="105.667" cy="194.466" r="2.5" transform="rotate(-68.1212 105.667 194.466)" fill="white"/>
<circle cx="101.196" cy="205.602" r="2.5" transform="rotate(-68.1212 101.196 205.602)" fill="white"/>
<circle cx="93.7499" cy="218.776" r="2.5" transform="rotate(-68.1212 93.7499 218.776)" fill="white"/>
<circle cx="111.023" cy="216.014" r="2.5" transform="rotate(-68.1212 111.023 216.014)" fill="white"/>
<circle cx="114.582" cy="193.735" r="2.5" transform="rotate(-68.1212 114.582 193.735)" fill="white"/>
<circle cx="118.673" cy="188.913" r="2.5" transform="rotate(-68.1212 118.673 188.913)" fill="white"/>
<circle cx="136.137" cy="182.994" r="2.5" transform="rotate(-68.1212 136.137 182.994)" fill="white"/>
<circle cx="132.812" cy="169.805" r="2.5" transform="rotate(-68.1212 132.812 169.805)" fill="white"/>
<circle cx="119.097" cy="150.289" r="2.5" transform="rotate(-68.1212 119.097 150.289)" fill="white"/>
<circle cx="136.546" cy="155.14" r="2.5" transform="rotate(-68.1212 136.546 155.14)" fill="white"/>
<circle cx="134.149" cy="142.324" r="2.5" transform="rotate(-68.1212 134.149 142.324)" fill="white"/>
<circle cx="141.595" cy="129.15" r="2.5" transform="rotate(-68.1212 141.595 129.15)" fill="white"/>
<circle cx="152.752" cy="117.466" r="2.5" transform="rotate(-68.1212 152.752 117.466)" fill="white"/>
<circle cx="149.055" cy="105.205" r="2.5" transform="rotate(-68.1212 149.055 105.205)" fill="white"/>
<circle cx="149.055" cy="105.205" r="2.5" transform="rotate(-68.1212 149.055 105.205)" fill="white"/>
<circle cx="170.398" cy="113.776" r="2.5" transform="rotate(-68.1212 170.398 113.776)" fill="white"/>
<circle cx="184.866" cy="126.051" r="2.5" transform="rotate(-68.1212 184.866 126.051)" fill="white"/>
<circle cx="194.146" cy="129.778" r="2.5" transform="rotate(-68.1212 194.146 129.778)" fill="white"/>
<circle cx="203.981" cy="134.805" r="2.5" transform="rotate(-68.1212 203.981 134.805)" fill="white"/>
<circle cx="203.981" cy="134.805" r="2.5" transform="rotate(-68.1212 203.981 134.805)" fill="white"/>
<circle cx="209.527" cy="153.196" r="2.5" transform="rotate(-68.1212 209.527 153.196)" fill="white"/>
<circle cx="184.077" cy="160.218" r="2.5" transform="rotate(-68.1212 184.077 160.218)" fill="white"/>
<circle cx="151.781" cy="149.404" r="2.5" transform="rotate(-68.1212 151.781 149.404)" fill="white"/>
<circle cx="163.472" cy="155.177" r="2.5" transform="rotate(-68.1212 163.472 155.177)" fill="white"/>
<circle cx="20.5474" cy="166.304" r="2.5" transform="rotate(-68.1212 20.5474 166.304)" fill="white"/>
<circle cx="153.966" cy="181.533" r="2.5" transform="rotate(-68.1212 153.966 181.533)" fill="white"/>
<circle cx="134.442" cy="200.633" r="2.5" transform="rotate(-68.1212 134.442 200.633)" fill="white"/>
<circle cx="126.448" cy="207.121" r="2.5" transform="rotate(-68.1212 126.448 207.121)" fill="white"/>
<circle cx="130.328" cy="221.611" r="2.5" transform="rotate(-68.1212 130.328 221.611)" fill="white"/>
<circle cx="147.046" cy="217.548" r="2.5" transform="rotate(-68.1212 147.046 217.548)" fill="white"/>
<circle cx="161.704" cy="226.667" r="2.5" transform="rotate(-68.1212 161.704 226.667)" fill="white"/>
<circle cx="159.87" cy="209.766" r="2.5" transform="rotate(-68.1212 159.87 209.766)" fill="white"/>
<circle cx="162.12" cy="193.428" r="2.5" transform="rotate(-68.1212 162.12 193.428)" fill="white"/>
<circle cx="168.053" cy="200.121" r="2.5" transform="rotate(-68.1212 168.053 200.121)" fill="white"/>
<circle cx="174.944" cy="185.646" r="2.5" transform="rotate(-68.1212 174.944 185.646)" fill="white"/>
<circle cx="188.14" cy="176.936" r="2.5" transform="rotate(-68.1212 188.14 176.936)" fill="white"/>
<circle cx="173.789" cy="215.356" r="2.5" transform="rotate(-68.1212 173.789 215.356)" fill="white"/>
<circle cx="184.954" cy="198.287" r="2.5" transform="rotate(-68.1212 184.954 198.287)" fill="white"/>
<circle cx="198.72" cy="180.107" r="2.5" transform="rotate(-68.1212 198.72 180.107)" fill="white"/>
<circle cx="192.904" cy="224.109" r="2.5" transform="rotate(-68.1212 192.904 224.109)" fill="white"/>
<circle cx="204.8" cy="215.955" r="2.5" transform="rotate(-68.1212 204.8 215.955)" fill="white"/>
<circle cx="198.874" cy="203.877" r="2.5" transform="rotate(-68.1212 198.874 203.877)" fill="white"/>
<circle cx="205.574" cy="192.558" r="2.5" transform="rotate(-68.1212 205.574 192.558)" fill="white"/>
<circle cx="207.072" cy="183.461" r="2.5" transform="rotate(-68.1212 207.072 183.461)" fill="white"/>
<circle cx="219.837" cy="218.761" r="2.5" transform="rotate(-68.1212 219.837 218.761)" fill="white"/>
<circle cx="213.356" cy="205.382" r="2.5" transform="rotate(-68.1212 213.356 205.382)" fill="white"/>
<circle cx="220.078" cy="177.908" r="2.5" transform="rotate(-68.1212 220.078 177.908)" fill="white"/>
<circle cx="215.818" cy="169.732" r="2.5" transform="rotate(-68.1212 215.818 169.732)" fill="white"/>
<circle cx="220.852" cy="154.511" r="2.5" transform="rotate(-68.1212 220.852 154.511)" fill="white"/>
<circle cx="175.367" cy="147.022" r="2.5" transform="rotate(-68.1212 175.367 147.022)" fill="white"/>
<circle cx="191.34" cy="144.815" r="2.5" transform="rotate(-68.1212 191.34 144.815)" fill="white"/>
<circle cx="162.2" cy="134.191" r="2.5" transform="rotate(-68.1212 162.2 134.191)" fill="white"/>
</svg>
