<svg width="213" height="225" viewBox="0 0 213 225" fill="none" xmlns="http://www.w3.org/2000/svg">
<ellipse cx="21.5413" cy="201.611" rx="91" ry="180.611" transform="rotate(-22.2194 21.5413 201.611)" fill="#FEC830"/>
<circle r="2.5" transform="matrix(-0.372644 -0.927974 -0.927974 0.372644 194.996 197.689)" fill="white"/>
<circle r="2.5" transform="matrix(-0.372644 -0.927974 -0.927974 0.372644 184.043 199.932)" fill="white"/>
<circle r="2.5" transform="matrix(-0.372644 -0.927974 -0.927974 0.372644 184.95 183.404)" fill="white"/>
<circle r="2.5" transform="matrix(-0.372644 -0.927974 -0.927974 0.372644 182.144 168.367)" fill="white"/>
<circle r="2.5" transform="matrix(-0.372644 -0.927974 -0.927974 0.372644 167.647 159.102)" fill="white"/>
<circle r="2.5" transform="matrix(-0.372644 -0.927974 -0.927974 0.372644 172.828 145.167)" fill="white"/>
<circle r="2.5" transform="matrix(-0.372644 -0.927974 -0.927974 0.372644 153.713 153.921)" fill="white"/>
<circle r="2.5" transform="matrix(-0.372644 -0.927974 -0.927974 0.372644 158.521 139.059)" fill="white"/>
<circle r="2.5" transform="matrix(-0.372644 -0.927974 -0.927974 0.372644 142.373 144.466)" fill="white"/>
<circle r="2.5" transform="matrix(-0.372644 -0.927974 -0.927974 0.372644 145.69 125.892)" fill="white"/>
<circle r="2.5" transform="matrix(-0.372644 -0.927974 -0.927974 0.372644 133.247 124.423)" fill="white"/>
<circle r="2.5" transform="matrix(-0.372644 -0.927974 -0.927974 0.372644 117.084 119.06)" fill="white"/>
<circle r="2.5" transform="matrix(-0.372644 -0.927974 -0.927974 0.372644 105.02 123.904)" fill="white"/>
<circle r="2.5" transform="matrix(-0.372644 -0.927974 -0.927974 0.372644 91.9994 107.58)" fill="white"/>
<circle r="2.5" transform="matrix(-0.372644 -0.927974 -0.927974 0.372644 79.5558 106.112)" fill="white"/>
<circle r="2.5" transform="matrix(-0.372644 -0.927974 -0.927974 0.372644 84.2175 120.404)" fill="white"/>
<circle r="2.5" transform="matrix(-0.372644 -0.927974 -0.927974 0.372644 98.5388 137.283)" fill="white"/>
<circle r="2.5" transform="matrix(-0.372644 -0.927974 -0.927974 0.372644 112.458 131.693)" fill="white"/>
<circle r="2.5" transform="matrix(-0.372644 -0.927974 -0.927974 0.372644 124.544 143.004)" fill="white"/>
<circle r="2.5" transform="matrix(-0.372644 -0.927974 -0.927974 0.372644 132.91 150.421)" fill="white"/>
<circle r="2.5" transform="matrix(-0.372644 -0.927974 -0.927974 0.372644 130.506 157.852)" fill="white"/>
<circle r="2.5" transform="matrix(-0.372644 -0.927974 -0.927974 0.372644 138.317 166.569)" fill="white"/>
<circle r="2.5" transform="matrix(-0.372644 -0.927974 -0.927974 0.372644 145.946 177.515)" fill="white"/>
<circle r="2.5" transform="matrix(-0.372644 -0.927974 -0.927974 0.372644 169.342 176.74)" fill="white"/>
<circle r="2.5" transform="matrix(-0.372644 -0.927974 -0.927974 0.372644 162.671 186.963)" fill="white"/>
<circle r="2.5" transform="matrix(-0.372644 -0.927974 -0.927974 0.372644 160.829 198.478)" fill="white"/>
<circle r="2.5" transform="matrix(-0.372644 -0.927974 -0.927974 0.372644 170.686 209.607)" fill="white"/>
<circle r="2.5" transform="matrix(-0.372644 -0.927974 -0.927974 0.372644 156.949 212.968)" fill="white"/>
<circle r="2.5" transform="matrix(-0.372644 -0.927974 -0.927974 0.372644 152.697 226.529)" fill="white"/>
<circle r="2.5" transform="matrix(-0.372644 -0.927974 -0.927974 0.372644 131.339 224.33)" fill="white"/>
<circle r="2.5" transform="matrix(-0.372644 -0.927974 -0.927974 0.372644 143.753 204.258)" fill="white"/>
<circle r="2.5" transform="matrix(-0.372644 -0.927974 -0.927974 0.372644 139.274 187.737)" fill="white"/>
<circle r="2.5" transform="matrix(-0.372644 -0.927974 -0.927974 0.372644 128.146 197.594)" fill="white"/>
<circle r="2.5" transform="matrix(-0.372644 -0.927974 -0.927974 0.372644 118.837 179.78)" fill="white"/>
<circle r="2.5" transform="matrix(-0.372644 -0.927974 -0.927974 0.372644 114.168 160.102)" fill="white"/>
<circle r="2.5" transform="matrix(-0.372644 -0.927974 -0.927974 0.372644 102.667 169.031)" fill="white"/>
<circle r="2.5" transform="matrix(-0.372644 -0.927974 -0.927974 0.372644 110.493 188.519)" fill="white"/>
<circle r="2.5" transform="matrix(-0.372644 -0.927974 -0.927974 0.372644 106.415 194.466)" fill="white"/>
<circle r="2.5" transform="matrix(-0.372644 -0.927974 -0.927974 0.372644 110.887 205.602)" fill="white"/>
<circle r="2.5" transform="matrix(-0.372644 -0.927974 -0.927974 0.372644 118.333 218.776)" fill="white"/>
<circle r="2.5" transform="matrix(-0.372644 -0.927974 -0.927974 0.372644 101.059 216.014)" fill="white"/>
<circle r="2.5" transform="matrix(-0.372644 -0.927974 -0.927974 0.372644 97.5009 193.736)" fill="white"/>
<circle r="2.5" transform="matrix(-0.372644 -0.927974 -0.927974 0.372644 93.4091 188.913)" fill="white"/>
<circle r="2.5" transform="matrix(-0.372644 -0.927974 -0.927974 0.372644 75.9457 182.994)" fill="white"/>
<circle r="2.5" transform="matrix(-0.372644 -0.927974 -0.927974 0.372644 79.2704 169.805)" fill="white"/>
<circle r="2.5" transform="matrix(-0.372644 -0.927974 -0.927974 0.372644 92.9855 150.289)" fill="white"/>
<circle r="2.5" transform="matrix(-0.372644 -0.927974 -0.927974 0.372644 75.5367 155.141)" fill="white"/>
<circle r="2.5" transform="matrix(-0.372644 -0.927974 -0.927974 0.372644 77.9334 142.324)" fill="white"/>
<circle r="2.5" transform="matrix(-0.372644 -0.927974 -0.927974 0.372644 70.4878 129.15)" fill="white"/>
<circle r="2.5" transform="matrix(-0.372644 -0.927974 -0.927974 0.372644 59.3303 117.466)" fill="white"/>
<circle r="2.5" transform="matrix(-0.372644 -0.927974 -0.927974 0.372644 63.0277 105.205)" fill="white"/>
<circle r="2.5" transform="matrix(-0.372644 -0.927974 -0.927974 0.372644 63.0277 105.205)" fill="white"/>
<circle r="2.5" transform="matrix(-0.372644 -0.927974 -0.927974 0.372644 41.6843 113.776)" fill="white"/>
<circle r="2.5" transform="matrix(-0.372644 -0.927974 -0.927974 0.372644 27.2166 126.052)" fill="white"/>
<circle r="2.5" transform="matrix(-0.372644 -0.927974 -0.927974 0.372644 17.9368 129.778)" fill="white"/>
<circle r="2.5" transform="matrix(-0.372644 -0.927974 -0.927974 0.372644 8.10176 134.805)" fill="white"/>
<circle r="2.5" transform="matrix(-0.372644 -0.927974 -0.927974 0.372644 8.10176 134.805)" fill="white"/>
<circle r="2.5" transform="matrix(-0.372644 -0.927974 -0.927974 0.372644 2.55574 153.196)" fill="white"/>
<circle r="2.5" transform="matrix(-0.372644 -0.927974 -0.927974 0.372644 28.0055 160.219)" fill="white"/>
<circle r="2.5" transform="matrix(-0.372644 -0.927974 -0.927974 0.372644 60.3019 149.405)" fill="white"/>
<circle r="2.5" transform="matrix(-0.372644 -0.927974 -0.927974 0.372644 48.6109 155.177)" fill="white"/>
<circle r="2.5" transform="matrix(-0.372644 -0.927974 -0.927974 0.372644 191.535 166.305)" fill="white"/>
<circle r="2.5" transform="matrix(-0.372644 -0.927974 -0.927974 0.372644 58.117 181.533)" fill="white"/>
<circle r="2.5" transform="matrix(-0.372644 -0.927974 -0.927974 0.372644 77.6408 200.633)" fill="white"/>
<circle r="2.5" transform="matrix(-0.372644 -0.927974 -0.927974 0.372644 85.6344 207.122)" fill="white"/>
<circle r="2.5" transform="matrix(-0.372644 -0.927974 -0.927974 0.372644 81.7544 221.611)" fill="white"/>
<circle r="2.5" transform="matrix(-0.372644 -0.927974 -0.927974 0.372644 65.0363 217.548)" fill="white"/>
<circle r="2.5" transform="matrix(-0.372644 -0.927974 -0.927974 0.372644 50.3787 226.667)" fill="white"/>
<circle r="2.5" transform="matrix(-0.372644 -0.927974 -0.927974 0.372644 52.2128 209.767)" fill="white"/>
<circle r="2.5" transform="matrix(-0.372644 -0.927974 -0.927974 0.372644 49.9624 193.428)" fill="white"/>
<circle r="2.5" transform="matrix(-0.372644 -0.927974 -0.927974 0.372644 44.0292 200.121)" fill="white"/>
<circle r="2.5" transform="matrix(-0.372644 -0.927974 -0.927974 0.372644 37.1389 185.646)" fill="white"/>
<circle r="2.5" transform="matrix(-0.372644 -0.927974 -0.927974 0.372644 23.9428 176.937)" fill="white"/>
<circle r="2.5" transform="matrix(-0.372644 -0.927974 -0.927974 0.372644 38.2932 215.356)" fill="white"/>
<circle r="2.5" transform="matrix(-0.372644 -0.927974 -0.927974 0.372644 27.1284 198.287)" fill="white"/>
<circle r="2.5" transform="matrix(-0.372644 -0.927974 -0.927974 0.372644 13.3624 180.108)" fill="white"/>
<circle r="2.5" transform="matrix(-0.372644 -0.927974 -0.927974 0.372644 19.1784 224.11)" fill="white"/>
<circle r="2.5" transform="matrix(-0.372644 -0.927974 -0.927974 0.372644 7.28285 215.955)" fill="white"/>
<circle r="2.5" transform="matrix(-0.372644 -0.927974 -0.927974 0.372644 13.2088 203.877)" fill="white"/>
<circle r="2.5" transform="matrix(-0.372644 -0.927974 -0.927974 0.372644 6.50849 192.559)" fill="white"/>
<circle r="2.5" transform="matrix(-0.372644 -0.927974 -0.927974 0.372644 5.01063 183.462)" fill="white"/>
<circle r="2.5" transform="matrix(-0.372644 -0.927974 -0.927974 0.372644 -1.27343 205.382)" fill="white"/>
<circle r="2.5" transform="matrix(-0.372644 -0.927974 -0.927974 0.372644 36.7154 147.022)" fill="white"/>
<circle r="2.5" transform="matrix(-0.372644 -0.927974 -0.927974 0.372644 20.7426 144.816)" fill="white"/>
<circle r="2.5" transform="matrix(-0.372644 -0.927974 -0.927974 0.372644 49.8824 134.192)" fill="white"/>
</svg>
