<svg width="1223" height="838" viewBox="0 0 1223 838" fill="none" xmlns="http://www.w3.org/2000/svg">
<path d="M542.338 253.894C657.41 272.35 809.176 366.126 948.221 333.704C1087.27 301.281 1181.65 354.654 1181.65 354.654C1161.68 354.986 1167 356.449 1163.16 357.646C1158.36 359.143 1150.27 366.126 1152.66 386.577C1154.58 402.938 1165.07 405.865 1173.66 407.527L1222.1 423.805C1223.04 423.586 1223.28 423.66 1222.64 423.988L1222.1 423.805C1215.37 425.363 1172.98 441.8 1158.66 487.836C1118.64 616.529 1051.92 533.024 805.656 710.305C660.149 815.055 480.533 646.956 211.433 810.565C107.251 873.907 0.892006 804.746 -1.50532 826.029V414.012L-20 0C115.449 39.406 -29.7558 193.339 116.961 272.35C182.886 307.853 387.952 229.133 542.338 253.894Z" fill="url(#paint0_linear_13_36)"/>
<defs>
<linearGradient id="paint0_linear_13_36" x1="1067.09" y1="417.005" x2="204.916" y2="590.608" gradientUnits="userSpaceOnUse">
<stop stop-color="white" stop-opacity="0.55"/>
<stop offset="1" stop-color="#FFF9E7"/>
</linearGradient>
</defs>
</svg>
