<svg width="300" height="128" viewBox="0 0 300 128" fill="none" xmlns="http://www.w3.org/2000/svg">
<path fill-rule="evenodd" clip-rule="evenodd" d="M101.848 34.5308C95.7381 34.5308 91.1303 39.4519 91.1303 45.9872C91.1303 52.5225 95.7865 57.4437 101.959 57.4437C108.067 57.4437 112.675 52.5225 112.675 45.9872C112.675 39.4519 108.02 34.5308 101.848 34.5308ZM132.814 0.466553H0V92H132.814L164.178 46.3317L132.814 0.466553ZM69.4464 60.479L69.1386 60.7448C64.1803 65.0163 58.4399 67.1816 52.078 67.1816C46.0627 67.1816 40.6359 65.0459 36.7987 61.168C32.9963 57.3216 30.8995 51.93 30.8995 45.9872C30.8995 40.2787 33.0292 34.9638 36.9013 31.0269C40.8295 27.0093 46.1944 24.7967 52.0316 24.7967C58.6142 24.7967 63.1659 26.4187 67.7698 30.3931L68.4261 30.96L61.9539 38.8771L61.2821 38.3083C58.4593 35.9166 55.9928 34.5308 51.7431 34.5308C46.1072 34.5308 41.5227 39.6704 41.5227 45.9872C41.5227 52.6918 46.0763 57.5559 52.3491 57.5559C55.1099 57.5559 57.5648 56.8886 59.4796 55.6189V51.3611H50.93V42.1251H69.4464V60.479ZM117.221 60.9574C113.236 64.9711 107.777 67.1816 101.848 67.1816C95.9201 67.1816 90.472 64.9868 86.5283 60.9987C82.6445 57.0716 80.5052 51.7469 80.5052 45.9872C80.4877 43.2062 81.0163 40.4495 82.0602 37.8789C83.1041 35.3083 84.6423 32.9755 86.5844 31.0171C90.5688 27.0034 96.0285 24.8026 101.959 24.8026C107.889 24.8026 113.333 26.9994 117.277 30.9856C121.16 34.9127 123.3 40.2374 123.3 45.9971C123.316 48.7765 122.787 51.5313 121.743 54.1002C120.699 56.669 119.162 59.0003 117.221 60.9574Z" fill="#ffffff"/>
<path fill-rule="evenodd" clip-rule="evenodd" d="M300 0H167.351V91.5335H300V0ZM218.332 25.6653H206.454V67.7856H218.332V25.6653ZM227.952 25.6653V37.0304H239.499V67.7856H251.376V37.0304H262.923V25.6653H227.952Z" fill="#ffffff"/>
</svg>
