<svg width="32" height="31" viewBox="0 0 32 31" fill="none" xmlns="http://www.w3.org/2000/svg">
<path d="M0.941734 2.26C0.52876 2.22796 0.219946 1.86721 0.251977 1.45424C0.284009 1.04127 0.644756 0.732454 1.05773 0.764485L0.941734 2.26ZM21.9658 14.9911L21.3388 15.4026L21.9658 14.9911ZM29.0401 30.319C28.8686 30.6961 28.424 30.8627 28.0469 30.6912L21.9024 27.897C21.5254 27.7255 21.3587 27.2809 21.5302 26.9038C21.7017 26.5268 22.1463 26.3601 22.5234 26.5316L27.9851 29.0153L30.4689 23.5536C30.6404 23.1765 31.085 23.0098 31.4621 23.1813C31.8392 23.3528 32.0058 23.7975 31.8344 24.1745L29.0401 30.319ZM1.05773 0.764485C9.95143 1.45431 17.795 7.26729 22.5929 14.5797L21.3388 15.4026C16.7245 8.37009 9.25686 2.90494 0.941734 2.26L1.05773 0.764485ZM22.5929 14.5797C25.588 19.1444 27.2248 24.8496 29.0597 29.7453L27.6551 30.2717C25.7575 25.2087 24.2122 19.7818 21.3388 15.4026L22.5929 14.5797Z" fill="#2A2A2A"/>
</svg>
