<svg width="13" height="13" viewBox="0 0 13 13" fill="none" xmlns="http://www.w3.org/2000/svg">
<path d="M6.38567 12.3731C6.50842 12.3255 6.62057 12.2542 6.71567 12.1631L11.7157 7.16313C11.8089 7.06989 11.8829 6.9592 11.9333 6.83737C11.9838 6.71555 12.0098 6.58498 12.0098 6.45312C12.0098 6.18682 11.904 5.93143 11.7157 5.74312C11.6224 5.64989 11.5117 5.57593 11.3899 5.52546C11.2681 5.475 11.1375 5.44903 11.0057 5.44903C10.7394 5.44903 10.484 5.55482 10.2957 5.74312L7.00567 9.04312L7.00567 1.45312C7.00567 1.18791 6.90032 0.933555 6.71278 0.746018C6.52524 0.558482 6.27089 0.453125 6.00567 0.453125C5.74046 0.453125 5.4861 0.558482 5.29857 0.746018C5.11103 0.933554 5.00567 1.18791 5.00567 1.45312L5.00567 9.04312L1.71567 5.74312C1.62271 5.6494 1.51211 5.575 1.39025 5.52423C1.26839 5.47346 1.13769 5.44733 1.00567 5.44733C0.873663 5.44733 0.742957 5.47346 0.621097 5.52423C0.499238 5.575 0.388638 5.6494 0.295675 5.74312C0.201947 5.83609 0.127551 5.94669 0.076782 6.06855C0.0260131 6.19041 -0.000124234 6.32111 -0.00012424 6.45312C-0.000124246 6.58514 0.0260131 6.71584 0.0767819 6.8377C0.127551 6.95956 0.201947 7.07016 0.295675 7.16312L5.29567 12.1631C5.39078 12.2542 5.50292 12.3255 5.62567 12.3731C5.86913 12.4731 6.14221 12.4731 6.38567 12.3731Z" fill="#FF6C00"/>
</svg>
