<svg xmlns="http://www.w3.org/2000/svg" width="512" height="512"><path fill="#ff6c00" d="M256 512c141.385 0 256-114.615 256-256S397.385 0 256 0 0 114.615 0 256s114.615 256 256 256zm0-464c114.875 0 208 93.125 208 208s-93.125 208-208 208S48 370.875 48 256 141.125 48 256 48zm144 80c8.8 0 16 7.2 16 16v48c0 17.6-14.4 32-32 32h-64c-17.6 0-32-14.4-32-32h-64c0 17.6-14.4 32-32 32h-64c-17.6 0-32-14.4-32-32v-48c0-8.8 7.2-16 16-16h96c8.8 0 16 7.2 16 16v16h64v-16c0-8.8 7.2-16 16-16h96zM256 384c46.604 0 87.386-24.909 109.773-62.139l27.44 16.467C365.23 384.863 314.255 416 256 416c-24.229 0-47.192-5.398-67.77-15.041l16.581-27.639C220.488 380.177 237.793 384 256 384z"/></svg>