<svg aria-hidden="true" xmlns="http://www.w3.org/2000/svg">
  <defs>
    <symbol id="close-icon" viewBox="0 0 32 32">
      <path d="m26.667 7.303-1.97-1.97-7.808 7.808-7.808-7.808-1.97 1.97 7.808 7.808-7.808 7.808 1.97 1.97 7.808-7.808 7.808 7.808 1.97-1.97-7.808-7.808 7.808-7.808z"/>
    </symbol>
    <symbol id="fb" viewBox="0 0 32 32">
      <path d="M28.444 16.34c0-7.078-5.792-12.822-12.929-12.822S2.586 9.263 2.586 16.339c0 6.206 4.447 11.375 10.343 12.567v-8.721h-2.585v-3.847h2.585v-3.206c0-2.475 2.031-4.488 4.526-4.488h3.232v3.847h-2.585c-.712 0-1.294.577-1.294 1.283v2.564h3.879v3.847h-3.879v8.912c6.53-.64 11.636-6.103 11.636-12.758z"/>
    </symbol>
    <symbol id="insta" viewBox="0 0 32 32">
      <path d="M20.242 3.838h-9.455c-4.351 0-7.879 3.5-7.879 7.815v9.377c0 4.315 3.528 7.814 7.879 7.814h9.455c4.351 0 7.879-3.499 7.879-7.814v-9.377c0-4.315-3.528-7.813-7.879-7.813zm5.516 17.191c0 3.016-2.475 5.469-5.516 5.469h-9.455c-3.041 0-5.516-2.453-5.516-5.469v-9.377c0-3.016 2.475-5.469 5.516-5.469h9.455c3.041 0 5.516 2.453 5.516 5.469v9.377z"/>
      <path d="M15.515 10.09c-3.481 0-6.303 2.799-6.303 6.251s2.822 6.252 6.303 6.252 6.303-2.8 6.303-6.252-2.822-6.251-6.303-6.251zm0 10.157c-2.172 0-3.94-1.753-3.94-3.907s1.769-3.907 3.94-3.907c2.172 0 3.94 1.752 3.94 3.908 0 2.153-1.769 3.906-3.94 3.906zm6.776-9.794h.004a.836.836 0 0 0 .836-.833.837.837 0 0 0-.837-.832h-.006a.838.838 0 0 0-.837.832c0 .461.375.834.84.834z"/>
    </symbol>
    <symbol id="tg" viewBox="0 0 32 32">
      <path d="M28.312 6.355c-.316-.382-.787-.593-1.329-.593a2.62 2.62 0 0 0-.928.184l-21.84 8.267c-1.159.439-1.315 1.098-1.305 1.452s.204 1.002 1.387 1.374l.02.007 3.064.869 14.916-7.558a.757.757 0 0 1 1.016.323l.002.004a.738.738 0 0 1-.124.853v.002l-8.293 8.74-.238.95 7.077 5.651c.452.347.945.531 1.427.531.941 0 1.69-.691 1.908-1.76L28.65 8.127c.145-.703.023-1.332-.339-1.772z"/>
      <path d="M13.477 19.727a.745.745 0 0 1 .184-.334l5.442-5.736-10.098 5.117 2.292 6.504c.131.37.326.687.566.933l1.615-6.484zm-.207 7.087c.545-.005 1.08-.233 1.55-.661l1.678-1.532-2.237-1.786-.99 3.98z"/>
    </symbol>
    <symbol id="ytube" viewBox="0 0 50 50">
      <path d="M44.898 14.5c-.398-2.2-2.296-3.8-4.5-4.3C37.102 9.5 31 9 24.398 9c-6.597 0-12.796.5-16.097 1.2-2.2.5-4.102 2-4.5 4.3C3.398 17 3 20.5 3 25s.398 8 .898 10.5c.403 2.2 2.301 3.8 4.5 4.3 3.5.7 9.5 1.2 16.102 1.2s12.602-.5 16.102-1.2c2.199-.5 4.097-2 4.5-4.3.398-2.5.898-6.102 1-10.5-.204-4.5-.704-8-1.204-10.5zM19 32V18l12.2 7z"/>
    </symbol>
    <symbol id="visa" viewBox="0 0 34 34">
      <path d="M34 27.485c0 1.101-.9 1.994-2.01 1.994H2.01C.9 29.479 0 28.585 0 27.485V8.217c0-1.1.9-1.993 2.01-1.993h29.98c1.11 0 2.01.893 2.01 1.993v19.268z" fill="#fff"/>
      <path d="m7.546 17.986-.798-3.799c-.136-.523-.534-.68-1.03-.7h-3.66l-.032.174c2.85.685 4.737 2.339 5.52 4.325z" fill="#F79F1A"/>
      <path d="M16.027 13.563h-2.365l-1.477 8.597h2.361l1.481-8.597zm-7.039 8.588 3.72-8.582h-2.504L7.89 19.433l-.246-.886c-.454-1.065-1.75-2.598-3.272-3.563l2.115 7.17 2.5-.003zm13.785-2.801c.009-.976-.623-1.72-1.985-2.335-.827-.398-1.332-.662-1.326-1.065 0-.356.427-.739 1.353-.739a4.395 4.395 0 0 1 1.768.33l.214.097.32-1.863A6.17 6.17 0 0 0 21 13.416c-2.335 0-3.978 1.166-3.993 2.837-.015 1.235 1.175 1.924 2.07 2.336.92.42 1.229.688 1.223 1.065-.006.575-.733.838-1.412.838-.946 0-1.448-.13-2.225-.45l-.302-.138-.332 1.926c.551.239 1.571.448 2.63.457 2.483 0 4.097-1.15 4.115-2.937zm2.809 1.521 3.026.003c.071.3.288 1.289.288 1.289h2.192l-1.914-8.59H27.35c-.567 0-.988.152-1.237.711l-3.51 7.879h2.484s.403-1.06.495-1.292zm1.62-4.163c-.012.024.196-.497.314-.82l.16.74.546 2.484h-1.96c.195-.494.94-2.404.94-2.404zM31.99 6.224H2.01C.9 6.224 0 7.117 0 8.217v2.07h34v-2.07c0-1.1-.9-1.993-2.01-1.993z" fill="#059BBF"/>
      <path d="M31.99 29.479H2.01C.9 29.479 0 28.585 0 27.485v-2.069h34v2.07c0 1.1-.9 1.992-2.01 1.992z" fill="#F79F1A"/>
      <path opacity=".15" d="M1.429 27.485V8.217c0-1.1.9-1.993 2.01-1.993h-1.43A2.002 2.002 0 0 0 0 8.217v19.268c0 1.101.9 1.994 2.01 1.994h1.429c-1.11 0-2.01-.893-2.01-1.994z" fill="#202121"/>
    </symbol>
    <symbol id="mastercard" viewBox="0 0 34 34">
      <path d="M34 27.485c0 1.101-.9 1.994-2.01 1.994H2.01C.9 29.479 0 28.585 0 27.485V8.217c0-1.1.9-1.993 2.01-1.993h29.98c1.11 0 2.01.893 2.01 1.993v19.268z" fill="#fff"/>
      <path opacity=".15" d="M1.429 27.485V8.217c0-1.1.9-1.993 2.01-1.993h-1.43A2.002 2.002 0 0 0 0 8.217v19.268c0 1.101.9 1.994 2.01 1.994h1.429c-1.11 0-2.01-.893-2.01-1.994z" fill="#202121"/>
      <path d="M28.073 17.02c0 3.13-2.55 5.69-5.738 5.69-3.157 0-5.737-2.56-5.737-5.69 0-3.131 2.55-5.69 5.707-5.69 3.218 0 5.768 2.559 5.768 5.69z" fill="#FFB600"/>
      <path d="M22.335 11.33c3.157 0 5.738 2.559 5.738 5.69 0 3.13-2.55 5.69-5.738 5.69-3.157 0-5.737-2.56-5.737-5.69" fill="#F7981D"/>
      <path d="M22.335 11.33c3.157 0 5.737 2.559 5.737 5.69 0 3.13-2.55 5.69-5.737 5.69" fill="#FF8500"/>
      <path d="M14.624 11.33c-3.127.03-5.677 2.559-5.677 5.69 0 3.13 2.55 5.69 5.738 5.69 1.487 0 2.823-.572 3.855-1.475.213-.181.395-.392.577-.602h-1.184a6.922 6.922 0 0 1-.425-.572h2.034c.121-.181.243-.392.334-.603h-2.702a3.569 3.569 0 0 1-.243-.602h3.157a5.934 5.934 0 0 0 .304-1.806c0-.422-.06-.813-.121-1.204h-3.522c.03-.211.091-.392.152-.603h3.157a3.569 3.569 0 0 0-.243-.602h-2.671c.09-.21.212-.391.334-.602h2.034a2.863 2.863 0 0 0-.456-.602h-1.123a5.15 5.15 0 0 1 .577-.572c-1.002-.933-2.368-1.475-3.856-1.475 0-.06 0-.06-.03-.06z" fill="#FF5050"/>
      <path d="M8.947 17.02c0 3.131 2.55 5.69 5.738 5.69 1.487 0 2.823-.572 3.855-1.475.213-.18.395-.391.577-.602h-1.184a6.94 6.94 0 0 1-.425-.572h2.034a3.84 3.84 0 0 0 .334-.602h-2.702a3.567 3.567 0 0 1-.243-.602h3.157a5.935 5.935 0 0 0 .304-1.807c0-.421-.06-.813-.121-1.204h-3.522c.03-.21.091-.392.152-.602h3.157a3.564 3.564 0 0 0-.243-.602h-2.671c.09-.211.212-.392.334-.602h2.034a2.866 2.866 0 0 0-.456-.603h-1.123c.182-.21.364-.391.577-.572-1.002-.933-2.368-1.475-3.856-1.475h-.03" fill="#E52836"/>
      <path d="M14.685 22.71c1.487 0 2.823-.572 3.855-1.475.213-.18.395-.391.577-.602h-1.184a6.94 6.94 0 0 1-.425-.572h2.034a3.84 3.84 0 0 0 .334-.602h-2.702a3.567 3.567 0 0 1-.243-.602h3.158a5.935 5.935 0 0 0 .303-1.807c0-.421-.06-.813-.121-1.204h-3.522c.03-.21.091-.392.152-.602h3.157a3.564 3.564 0 0 0-.243-.602h-2.671c.091-.211.212-.392.334-.602h2.034a2.866 2.866 0 0 0-.456-.603h-1.123c.182-.21.364-.391.577-.572-1.002-.933-2.368-1.475-3.855-1.475h-.03" fill="#CB2026"/>
      <path d="m16.718 18.465.091-.512c-.03 0-.09.03-.151.03-.213 0-.243-.12-.213-.18l.182-1.054h.334l.091-.572h-.303l.06-.362h-.607s-.364 1.987-.364 2.228c0 .362.213.512.486.512.182 0 .334-.06.394-.09zm.213-.964c0 .843.577 1.054 1.063 1.054.455 0 .637-.09.637-.09l.122-.572s-.334.15-.638.15c-.668 0-.546-.482-.546-.482h1.244s.091-.391.091-.541c0-.392-.212-.874-.88-.874-.638-.06-1.093.602-1.093 1.355zm1.063-.873c.334 0 .273.392.273.422h-.668c0-.03.06-.422.395-.422zm3.855 1.837.121-.663s-.303.151-.516.151c-.425 0-.607-.331-.607-.692 0-.723.364-1.114.79-1.114.303 0 .546.18.546.18l.09-.632s-.363-.15-.697-.15c-.699 0-1.397.602-1.397 1.746 0 .752.365 1.264 1.093 1.264.243 0 .577-.09.577-.09zm-8.469-2.379c-.426 0-.73.12-.73.12l-.09.513s.273-.12.667-.12c.213 0 .395.03.395.21 0 .12-.03.15-.03.15h-.273c-.517 0-1.093.211-1.093.904 0 .542.364.662.576.662.425 0 .608-.27.638-.27l-.03.24h.546l.243-1.656c0-.723-.607-.753-.82-.753zm.12 1.355c0 .09-.06.572-.424.572-.182 0-.243-.15-.243-.24 0-.151.09-.362.546-.362.091.03.122.03.122.03zm1.276 1.084c.152 0 .91.03.91-.783 0-.753-.728-.602-.728-.903 0-.15.121-.21.334-.21.09 0 .425.03.425.03l.09-.543s-.212-.06-.576-.06c-.455 0-.91.18-.91.783 0 .692.758.632.758.903 0 .18-.212.21-.364.21-.273 0-.546-.09-.546-.09l-.091.543c.03.06.182.12.698.12zm12.112-2.92-.121.813s-.243-.301-.577-.301c-.546 0-1.032.662-1.032 1.445 0 .482.243.993.759.993.364 0 .577-.24.577-.24l-.03.21h.606l.456-2.89-.638-.03zm-.273 1.596c0 .33-.152.752-.486.752-.212 0-.334-.18-.334-.481 0-.482.213-.783.486-.783.213 0 .334.15.334.512zM10.07 18.495l.365-2.168.06 2.168h.425l.79-2.168-.334 2.168h.637l.486-2.89h-1.002l-.607 1.776-.03-1.776h-.88l-.486 2.89h.576zm9.41 0c.183-.994.213-1.807.638-1.656.061-.391.152-.542.213-.692h-.122c-.273 0-.485.36-.485.36l.06-.33h-.576l-.395 2.348h.668v-.03zm3.765-2.409c-.425 0-.728.12-.728.12l-.091.513s.273-.12.667-.12c.213 0 .395.03.395.21 0 .12-.03.15-.03.15h-.274c-.516 0-1.092.211-1.092.904 0 .542.364.662.576.662.425 0 .608-.27.638-.27l-.03.24h.546l.243-1.656c.03-.723-.607-.753-.82-.753zm.152 1.355c0 .09-.06.572-.425.572-.182 0-.243-.15-.243-.24 0-.151.091-.362.547-.362.09.03.09.03.12.03zm1.184 1.054c.182-.994.213-1.807.638-1.656.06-.391.151-.542.212-.692h-.121c-.274 0-.486.36-.486.36l.06-.33h-.576l-.395 2.348h.668v-.03z" fill="#fff"/>
      <path d="M15.777 18.043c0 .362.213.512.486.512.213 0 .395-.06.455-.09l.092-.512c-.03 0-.091.03-.152.03-.213 0-.243-.12-.213-.18l.183-1.054h.333l.091-.572h-.303l.06-.362m.426 1.686c0 .843.273 1.054.759 1.054.455 0 .637-.09.637-.09l.122-.572s-.334.15-.638.15c-.668 0-.546-.482-.546-.482h1.244s.091-.391.091-.541c0-.392-.212-.874-.88-.874-.637-.06-.79.602-.79 1.355zm.759-.873c.334 0 .394.392.394.422H17.6c0-.03.06-.422.395-.422zm3.855 1.837.121-.663s-.303.151-.516.151c-.425 0-.607-.331-.607-.692 0-.723.364-1.114.79-1.114.303 0 .546.18.546.18l.09-.632s-.363-.15-.697-.15c-.699 0-1.093.602-1.093 1.746 0 .752.06 1.264.79 1.264.242 0 .576-.09.576-.09zm-9.289-1.716s.273-.12.667-.12c.213 0 .395.03.395.21 0 .12-.03.15-.03.15h-.273c-.517 0-1.093.211-1.093.904 0 .542.364.662.576.662.425 0 .608-.27.638-.27l-.03.24h.546l.243-1.656c0-.692-.607-.723-.85-.723l-.79.603zm1.244.692c0 .09-.364.572-.728.572-.182 0-.243-.15-.243-.24 0-.151.09-.362.546-.362.091.03.425.03.425.03zm.304 1.024s.182.06.698.06c.152 0 .91.03.91-.783 0-.753-.728-.602-.728-.903 0-.15.122-.21.334-.21.091 0 .425.03.425.03l.091-.543s-.212-.06-.577-.06c-.455 0-.607.18-.607.783 0 .692.456.632.456.903 0 .18-.213.21-.365.21m12.022-1.534s-.243-.301-.577-.301c-.547 0-.729.662-.729 1.445 0 .482-.06.994.456.994.364 0 .576-.241.576-.241l-.03.21h.607l.456-2.89-.76.783zm-.03.783c0 .331-.274.752-.608.752-.212 0-.334-.18-.334-.481 0-.482.213-.783.486-.783.213 0 .455.15.455.512zM10.07 18.495l.365-2.168.06 2.168h.425l.79-2.168-.334 2.168h.637l.486-2.89h-.759l-.85 1.776-.03-1.776h-.334l-1.032 2.89h.576zm8.774 0h.637c.182-.994.213-1.807.638-1.656.06-.391.151-.542.212-.692h-.121c-.274 0-.486.36-.486.36l.06-.33m2.641.572s.274-.12.668-.12c.213 0 .395.03.395.21 0 .12-.03.15-.03.15h-.274c-.516 0-1.092.211-1.092.904 0 .542.364.662.576.662.425 0 .608-.27.638-.27l-.03.24h.546l.243-1.656c0-.692-.607-.723-.85-.723l-.79.603zm1.245.692c0 .09-.364.572-.728.572-.183 0-.243-.15-.243-.24 0-.151.09-.362.546-.362.122.03.425.03.425.03zm.274 1.054h.637c.182-.994.213-1.807.638-1.656.06-.391.151-.542.212-.692h-.121c-.273 0-.486.36-.486.36l.06-.33" fill="#DCE5E5"/>
    </symbol>
  

<!-- =================================== -->

<symbol id="icon-play-btn" viewBox="0 0 32 32">
      <path d="M13.762 10.756c-.989-.567-1.791-.103-1.791 1.037v8.412c0 1.141.802 1.605 1.791 1.038l7.353-4.217c.989-.568.989-1.487 0-2.055l-7.353-4.217z"/>
</symbol>



<symbol id="baner-top" viewBox="0 0 560 55" >
<path d="M0 17.92C0 8.02308 8.02306 0 17.92 0H542.08C551.977 0 560 8.02306 560 17.92V54.303H0V17.92Z" fill="#5B5BEF"/>
<circle cx="35.2123" cy="26.7279" r="6.36364" fill="#E57B89"/>
<circle cx="61.515" cy="26.7279" r="6.36364" fill="#FEC830"/>
<circle cx="86.9691" cy="26.7279" r="6.36364" fill="#5DCDB0"/>
</symbol>

<symbol id="baner-top-sm" viewBox="0 0 560 25" >
<path d="M0 12C0 5.37258 5.37258 0 12 0H548C554.627 0 560 5.37258 560 12V25H0V12Z" fill="#5B5BEF"/>
<circle cx="33.8486" cy="13" r="5" fill="#E57B89"/>
<circle cx="55.8486" cy="13" r="5" fill="#FEC830"/>
<circle cx="77.8486" cy="13" r="5" fill="#5DCDB0"/>
</symbol>



<symbol id="baner-bottom" viewBox="0 0 560 53"  >
<path d="M560 34.6864C560 44.5834 551.977 52.6064 542.08 52.6064L17.92 52.6064C8.02305 52.6064 2.43225e-05 44.5833 2.49154e-05 34.6864L2.69934e-05 0.000385488L560 0.000456929L560 34.6864Z" fill="#5B5BEF"/>
</symbol>

<symbol id="baner-bottom-sm"  viewBox="0 0 560 25" >
<path d="M560 13C560 19.6274 554.627 25 548 25L12 24.9999C5.37262 24.9999 3.21861e-07 19.6273 7.18897e-07 12.9999L1.4977e-06 -7.14417e-05L560 0L560 13Z" fill="#5B5BEF"/>
</symbol>


<symbol id="icon-arrow-up" viewBox="0 0 32 32">
<path d="M16 1l-15 15h9v16h12v-16h9z"></path>
</symbol>



  </defs>
</svg>
