<svg width="46" height="46" viewBox="0 0 46 46" fill="none" xmlns="http://www.w3.org/2000/svg">
<g clip-path="url(#clip0)">
<path d="M40.8662 4.13399C42.3956 3.75164 44.1545 4.36341 45.6839 4.51635C46.0663 4.51635 46.1427 5.12812 45.6839 5.2046C44.1545 5.28107 42.3192 5.20459 40.8662 4.82224C40.5602 4.66929 40.5602 4.21047 40.8662 4.13399Z" fill="white"/>
<path d="M31.6897 6.1984C32.7603 5.1278 34.4427 4.89839 35.8192 4.97486C36.1251 4.97486 36.1251 5.43369 35.8192 5.43369C35.0545 5.51016 34.3662 5.6631 33.678 5.89251C33.0662 6.12193 32.5309 6.42781 31.9191 6.65723C31.6897 6.81017 31.4603 6.42781 31.6897 6.1984Z" fill="white"/>
<path d="M23.6599 12.1633C23.9658 11.4751 24.5776 10.8633 25.1894 10.4045C25.7247 9.8692 26.4129 9.41037 27.0247 9.02801C27.2541 8.87507 27.4835 9.18095 27.2541 9.3339C26.6423 9.79273 26.107 10.328 25.6482 10.8633C25.1129 11.3986 24.7305 12.0869 24.1952 12.6222C23.9659 12.9281 23.5071 12.5457 23.6599 12.1633Z" fill="white"/>
<path d="M22.1306 16.9047C22.36 16.5224 22.8955 16.8282 22.6659 17.2106C22.513 17.593 22.2836 18.0518 22.1306 18.4341C21.9777 18.9694 22.0543 19.5047 21.8249 19.9636C21.7484 20.193 21.366 20.193 21.2895 19.9636C20.9071 19.1224 21.6718 17.7459 22.1306 16.9047Z" fill="white"/>
<path d="M20.066 26.4634C20.066 25.6987 20.066 24.934 20.2189 24.2458C20.2954 23.8634 20.7542 23.8634 20.7542 24.2458C20.8307 24.934 20.8307 25.5458 20.8307 26.234C20.8307 26.9223 20.9836 27.6105 20.7542 28.2987C20.6777 28.6045 20.1424 28.6045 20.066 28.2987C19.9129 27.687 19.9894 27.0752 20.066 26.4634Z" fill="white"/>
<path d="M21.9012 33.1928C22.2071 33.9575 22.513 34.7221 22.9718 35.4868C23.3542 36.1752 23.8895 36.8634 23.966 37.6281C24.0424 38.0105 23.5071 38.0869 23.2777 37.9339C22.666 37.3987 22.3599 36.4809 22.0542 35.7162C21.6717 34.9515 21.4424 34.1869 21.2895 33.4222C21.213 32.9634 21.8249 32.8104 21.9012 33.1928Z" fill="white"/>
<path d="M25.3426 39.0814C25.8014 39.6165 26.2602 40.2284 26.7191 40.6873C26.9485 40.9167 27.2544 41.1461 27.5602 41.299C27.8661 41.452 28.0191 41.452 28.2485 41.7578C28.4014 41.9873 28.2485 42.2931 28.0191 42.3696C27.3308 42.5227 26.7191 41.8343 26.2602 41.3755C25.7249 40.7637 25.3426 40.0756 24.9602 39.3109C24.8836 39.0814 25.1896 38.8519 25.3426 39.0814Z" fill="white"/>
<path d="M31.2309 40.9929C31.6133 41.2988 32.0721 41.5282 32.5309 41.5282C32.9133 41.5282 33.3721 41.4517 33.678 41.7576C33.831 41.9105 33.831 42.14 33.678 42.2929C32.9133 43.0575 31.3839 41.987 30.9251 41.3751C30.772 41.1458 31.0014 40.8398 31.2309 40.9929Z" fill="white"/>
<path d="M36.1251 39.3868C36.7368 39.3105 37.4251 39.1574 38.0368 38.928C38.7251 38.6222 39.031 38.0869 39.4133 37.475C39.6427 37.1691 40.1016 37.2456 40.178 37.7044C40.2545 39.7692 37.6545 40.1515 36.1251 39.9221C35.8956 39.8458 35.8956 39.3868 36.1251 39.3868Z" fill="white"/>
<path d="M39.9486 34.3398C40.5603 33.1927 40.4074 32.0456 40.6368 30.8221C40.7133 30.5163 41.1721 30.5163 41.2486 30.8221C41.478 32.1221 41.0956 33.4986 40.3309 34.5692C40.178 34.7986 39.872 34.6456 39.9486 34.3398Z" fill="white"/>
<path d="M39.6428 21.1868C41.0192 22.4868 41.3251 24.3987 41.2487 26.1574C41.2487 26.4633 40.7134 26.4633 40.7134 26.1574C40.6369 24.5515 40.1781 22.9456 39.1839 21.6458C38.8779 21.3398 39.3368 20.8809 39.6428 21.1868Z" fill="white"/>
<path d="M35.2071 15.6808C36.5836 16.3691 37.6542 17.6691 38.4954 18.9691C38.7248 19.275 38.1895 19.5808 38.0366 19.275C37.1189 18.1279 35.9719 17.2102 34.9013 16.2161C34.5954 15.9102 34.9014 15.5279 35.2071 15.6808Z" fill="white"/>
<path d="M30.6956 11.2456C31.7662 11.2456 32.9897 12.1633 33.6779 12.928C33.9838 13.2339 33.525 13.6927 33.2191 13.3868C32.8368 13.0044 32.3779 12.6986 31.9191 12.4691C31.4603 12.2397 30.925 12.0868 30.4661 11.7809C30.2367 11.628 30.4661 11.2456 30.6956 11.2456Z" fill="white"/>
<path d="M20.4482 8.03369C21.06 8.03369 21.6717 8.26311 22.2835 8.33958C23.0482 8.49252 23.8129 8.56899 24.5012 8.87488C24.8835 9.02782 24.7306 9.56312 24.3482 9.48665C23.66 9.33371 22.8953 9.25724 22.207 9.18076C21.5953 9.10429 20.8306 9.10429 20.2953 8.72194C19.9129 8.56899 20.066 8.03369 20.4482 8.03369Z" fill="white"/>
<path d="M13.6423 7.26926C14.6364 7.03985 15.8599 7.26926 16.9305 7.34573C17.3129 7.34573 17.3129 7.88103 16.9305 7.88103C15.8599 7.9575 14.7129 8.18691 13.6423 7.9575C13.26 7.88103 13.26 7.34573 13.6423 7.26926Z" fill="white"/>
<path d="M6.53054 7.65125C7.06584 7.49831 7.60114 7.57478 8.13657 7.57478C8.67174 7.57478 9.28364 7.57478 9.81894 7.65125C10.2013 7.65125 10.2013 8.26302 9.81894 8.26302C9.28364 8.26302 8.67174 8.26302 8.13657 8.3395C7.60126 8.3395 7.06596 8.41597 6.53054 8.26302C6.22465 8.26302 6.22465 7.8042 6.53054 7.65125Z" fill="white"/>
<path d="M0.183418 7.88087C1.17755 6.88674 2.17167 5.96909 3.24215 5.1279C4.00686 4.51613 5.15405 3.36906 6.14818 3.44553C6.53054 3.44553 6.83643 3.90436 6.60701 4.28672C6.14818 5.05143 5.07758 5.51026 4.38934 5.96909C3.54816 6.58086 2.70697 7.34557 1.86579 8.11028C3.39522 8.72206 4.92464 9.56324 6.3776 10.328C6.83643 10.5574 6.53054 11.3986 5.99512 11.2456C4.08333 10.6338 2.40096 9.4103 0.412706 9.02794C-0.0459967 8.95147 -0.122592 8.26323 0.183418 7.88087Z" fill="white"/>
</g>
<defs>
<clipPath id="clip0">
<rect width="46" height="46" fill="white" transform="matrix(-1 0 0 1 46 0)"/>
</clipPath>
</defs>
</svg>
