<svg version="1.0" xmlns="http://www.w3.org/2000/svg" width="240" height="240" viewBox="0 0 180 180"><path d="M69 51.4l-49.5 3.1.3 3.5c.2 2.7 2.7 44.7 4.4 73.7.1 2.2.5 3 1.2 2.3.6-.6 6-1 12.1-1 11.7-.1 99.2-5.4 99.9-6.1.8-.9 17.6-28.8 17.6-29.3 0-.3 1.5-2.9 3.4-5.8l3.3-5.3-14.3-19.3L133 48l-7.2.1c-4 .1-29.6 1.6-56.8 3.3zm48 21.8c16.8 8.5 10.4 33.8-8.5 33.8-9 0-15.7-5.5-17.3-14.1-1.6-8.8 1.8-16.2 9.2-19.9 5.4-2.6 11.1-2.5 16.6.2zM75.8 76l3.3 2-2.1 3c-2.9 4-3.3 4.2-6.9 2.4-9.3-4.7-17.3 7.5-10 15.2 3.5 3.7 11.9 3.2 11.9-.7 0-1.5-.7-1.9-3.5-1.9-3.4 0-3.5-.1-3.5-3.9v-3.9l7.3-.4c3.9-.3 7.6-.2 8 .2.4.4.7 4.2.5 8.6l-.3 7.8-4 2.3c-8 4.5-16.9 3.9-22.9-1.6-8.5-7.8-7.1-22.7 2.7-28.6 5.5-3.3 14.6-3.5 19.5-.5z"/><path d="M102.5 82.5c-5.5 5.4-1.7 15.9 5.8 15.9 5.4 0 8.7-3.5 8.7-9.1 0-5.7-3.3-9.3-8.5-9.3-2.5 0-4.4.8-6 2.5z"/></svg>