<svg width="787" height="500" viewBox="0 0 787 500" fill="none" xmlns="http://www.w3.org/2000/svg">
<path d="M356.042 151.489C428.899 162.501 524.989 218.453 613.025 199.108C701.061 179.762 760.822 211.608 760.822 211.608C748.173 211.806 751.541 212.679 749.112 213.394C746.077 214.286 740.948 218.453 742.466 230.655C743.68 240.417 750.319 242.163 755.758 243.156L786.428 252.867C787.026 252.737 787.179 252.781 786.774 252.977L786.428 252.867C782.169 253.797 755.331 263.605 746.265 291.072C720.924 367.858 678.678 318.034 522.761 423.811C430.633 486.311 316.91 386.013 146.531 483.632C80.5685 521.426 13.2277 480.16 11.7098 492.859V247.025L0 0C85.7589 23.512 -6.17683 115.357 86.716 162.501C128.457 183.684 258.293 136.714 356.042 151.489Z" fill="url(#paint0_linear_88_847)"/>
<defs>
<linearGradient id="paint0_linear_88_847" x1="688.289" y1="248.811" x2="145.072" y2="364.878" gradientUnits="userSpaceOnUse">
<stop stop-color="white" stop-opacity="0.55"/>
<stop offset="1" stop-color="#FFF9E7"/>
</linearGradient>
</defs>
</svg>
