<svg width="1600" height="300" viewBox="0 0 1600 300" fill="none" xmlns="http://www.w3.org/2000/svg">
<path fill-rule="evenodd" clip-rule="evenodd" d="M948.788 22.6428C948.752 22.6433 948.716 22.6437 948.679 22.6438C948.647 22.6439 948.615 22.6438 948.583 22.6436L948.678 28.9989L951.085 26.4785C950.861 26.1172 950.702 25.7112 950.618 25.2725C950.419 24.2357 950.513 23.2405 950.887 22.3451C950.214 22.5311 949.51 22.6316 948.788 22.6428ZM946.221 22.3143C946.583 22.4122 946.944 22.4879 947.304 22.5419L947.355 26.0061L945.096 23.7793C945.55 23.391 945.934 22.897 946.221 22.3143ZM944.453 24.2312C943.865 24.5657 943.198 24.7512 942.492 24.7621C941.534 24.7769 940.551 24.4786 939.57 23.8755C937.047 22.3255 935.475 19.999 935.256 17.4925C935.113 15.8533 935.59 14.3735 936.531 13.5341C937.045 13.0749 937.734 12.8356 938.576 12.8226C938.664 12.8212 938.752 12.8224 938.842 12.8261C938.906 9.27263 940.896 5.31372 943.998 2.62432C946.312 0.618582 948.83 -0.305227 950.906 0.0893958C953.053 0.497867 954.844 2.43397 955.95 5.54094C956.763 7.82494 957.136 10.6204 956.974 13.2104C956.831 15.5156 956.281 17.5191 955.406 18.9707C956.602 18.7716 957.647 19.0002 958.172 19.6209C958.93 20.5168 959.142 22.2441 958.712 24.0213C958.258 25.8984 957.197 27.3378 955.874 27.8717C955.389 28.067 954.876 28.168 954.366 28.1759C953.664 28.1867 952.968 28.0216 952.362 27.6848C952.065 27.52 951.8 27.3198 951.57 27.0896L948.799 29.9914C949.863 29.9752 950.93 29.967 952 29.967C1033.73 29.967 1100.68 77.6383 1106.58 138.099C1142.82 94.2549 1234.55 62.9948 1342.3 62.48C1339.5 59.062 1336.77 56.3212 1335.33 55.0225C1334.92 54.654 1334.89 54.0205 1335.26 53.6073C1335.63 53.1942 1336.26 53.158 1336.67 53.5264C1338.34 55.0335 1341.65 58.3706 1344.86 62.4735L1345 62.4735C1346.06 62.4735 1347.11 62.4765 1348.17 62.4824C1346.13 55.7309 1342.69 49.2447 1341.15 46.7438C1340.86 46.2734 1341.01 45.6575 1341.48 45.3681C1341.95 45.0787 1342.56 45.2254 1342.85 45.6958C1344.49 48.366 1348.18 55.3174 1350.26 62.498C1402.76 62.9868 1451.37 70.7768 1491.48 83.7515L1492.96 74.4355L1488.93 68.7648C1487.85 69.1467 1486.69 69.2565 1485.5 69.063C1483.9 68.8009 1482.35 68.009 1480.89 66.7092C1477.13 63.3688 1475.19 59.0181 1475.55 54.7727C1475.79 51.9964 1477.01 49.6713 1478.82 48.5533C1479.81 47.9418 1481.03 47.7488 1482.44 47.9795C1482.59 48.0034 1482.73 48.032 1482.88 48.065C1484.02 42.1583 1488.49 36.1522 1494.44 32.5966C1498.88 29.9449 1503.35 29.1585 1506.7 30.4383C1510.16 31.7627 1512.59 35.528 1513.53 41.0404C1514.22 45.0927 1514.03 49.8663 1513.01 54.137C1512.1 57.938 1510.6 61.1144 1508.72 63.273C1510.77 63.2993 1512.45 63.9934 1513.15 65.1857C1514.15 66.9069 1514 69.8509 1512.77 72.6858C1511.47 75.68 1509.28 77.7626 1506.92 78.2567C1506.05 78.4373 1505.17 78.4519 1504.31 78.3122C1503.14 78.1201 1502.03 77.6365 1501.12 76.8932C1500.67 76.5292 1500.28 76.1159 1499.97 75.6628L1494.3 79.8223L1493.57 84.4328C1494.61 84.7763 1495.64 85.1232 1496.67 85.4737C1496.88 85.3548 1497.12 85.3038 1497.37 85.3452L1498.1 85.4635C1498.53 85.5348 1498.87 85.8609 1498.97 86.2679C1560.36 107.693 1600 141.617 1600 179.802C1600 244.6 1485.83 297.13 1345 297.13C1216.28 297.13 1109.84 253.248 1092.48 196.223C1067.77 236.03 1014.16 263.608 952 263.608C922.704 263.608 895.307 257.482 871.939 246.838C838.6 277.239 783.203 297.13 720.5 297.13C618.603 297.13 536 244.6 536 179.802C536 122.315 601.012 74.4852 686.832 64.4224C683.547 60.1149 680.035 56.5592 678.331 55.0225C677.922 54.654 677.891 54.0205 678.26 53.6073C678.63 53.1942 679.261 53.158 679.669 53.5264C681.565 55.2354 685.565 59.2976 689.142 64.1612C689.952 64.0731 690.764 63.9882 691.577 63.9068L691.535 63.7526C689.568 56.5587 685.783 49.4013 684.148 46.7438C683.859 46.2734 684.006 45.6575 684.476 45.3681C684.946 45.0787 685.562 45.2254 685.852 45.6958C687.55 48.456 691.432 55.7911 693.465 63.2251C693.51 63.3914 693.554 63.5536 693.596 63.712C702.379 62.896 711.362 62.4735 720.5 62.4735C758.364 62.4735 793.565 69.727 822.852 82.1681C849.834 51.5983 895.413 31.1556 947.415 30.0171L947.372 27.1076L944.453 24.2312ZM1496.62 67.4145C1496.51 67.3959 1496.39 67.3759 1496.28 67.3546L1494.59 77.9804L1499.34 74.4984C1499.07 73.8288 1498.92 73.1046 1498.91 72.348C1498.88 70.5595 1499.32 68.928 1500.21 67.5469C1499.03 67.6556 1497.83 67.6122 1496.62 67.4145ZM1492.43 66.098C1493.01 66.3695 1493.59 66.604 1494.17 66.8018L1493.25 72.5936L1490.13 68.2037C1491 67.6923 1491.79 66.9836 1492.43 66.098ZM317 300C418.62 300 501 247.925 501 183.688C501 138.161 459.621 98.7431 399.34 79.6432C404.401 76.3778 409.688 74.0126 412.046 73.1261C412.559 72.9333 412.816 72.3543 412.621 71.8328C412.426 71.3114 411.852 71.0449 411.34 71.2377C408.672 72.2405 402.475 75.0274 396.861 78.8726C396.313 78.7052 395.762 78.5396 395.211 78.3756C395.593 77.8144 396.059 77.1574 396.623 76.3915C401.026 70.4142 407.11 65.141 409.583 63.2679C410.022 62.936 410.107 62.3071 409.774 61.8632C409.441 61.4192 408.816 61.3284 408.378 61.6603C405.809 63.6061 399.57 69.0096 395.019 75.1874C394.258 76.2209 393.658 77.0782 393.194 77.7855C369.977 71.1 344.177 67.3756 317 67.3756C276.192 67.3756 238.487 75.7732 207.973 89.9839L207.718 89.484L209.834 82.7137C210.354 82.8859 210.905 82.9855 211.478 83.0074C212.647 83.0522 213.824 82.7684 214.879 82.213C215.646 81.8094 216.349 81.2621 216.939 80.5937C218.546 78.7691 219.082 75.7729 218.374 72.5794C217.703 69.5558 216.097 67.1012 214.28 66.326C213.023 65.7886 211.27 66.2443 209.605 67.4645C209.851 64.593 209.193 61.1347 207.696 57.531C206.013 53.4821 203.367 49.5325 200.436 46.6955C196.448 42.8362 192.293 41.2779 188.735 42.308C185.295 43.304 182.167 46.6374 180.154 51.4538C177.453 57.9119 177.385 65.4391 179.932 70.8735C179.793 70.9368 179.658 71.0031 179.527 71.0722C178.259 71.7391 177.395 72.6302 176.956 73.7212C176.155 75.7159 176.534 78.3244 177.971 80.6986C180.167 84.3292 184.281 86.6473 189.258 87.0588C191.194 87.2191 192.906 86.9162 194.345 86.1587C195.408 85.5995 196.28 84.8063 196.922 83.8477L203.486 85.9649L206.009 90.9115C197.781 94.8507 190.094 99.2171 183.03 103.958C178.715 98.6629 173.547 94.215 171.268 92.4887C170.83 92.1568 170.205 92.2476 169.872 92.6916C169.539 93.1355 169.625 93.7644 170.063 94.0963C172.237 95.7434 177.204 100.019 181.365 105.091C180.424 105.739 179.496 106.394 178.579 107.055C174.324 104.587 170.315 102.821 168.306 102.066C167.794 101.873 167.22 102.14 167.025 102.661C166.83 103.183 167.087 103.762 167.6 103.954C169.413 104.636 172.957 106.192 176.799 108.358C149.483 128.653 133 154.954 133 183.688C133 247.925 215.38 300 317 300ZM202.642 84.3083L199.985 79.0986C199.4 79.2927 198.796 79.4554 198.175 79.585C198.174 80.6886 197.96 81.7317 197.56 82.6692L202.642 84.3083ZM208.645 82.1599L206.873 87.8273L202 78.27C202.104 78.2183 202.207 78.1655 202.309 78.1116C203.395 77.5402 204.388 76.8471 205.269 76.0486C205.368 77.6928 205.967 79.2725 207.04 80.691C207.494 81.2913 208.036 81.7847 208.645 82.1599Z" fill="#2CBC67"/>
<path d="M265.981 112.666C263.46 114.545 257.298 119.8 252.821 125.783C248.344 131.766 249.745 131.382 251.006 130.442" stroke="white" stroke-width="2" stroke-linecap="round" stroke-linejoin="round"/>
<path d="M268.693 122.232C265.744 123.323 258.349 126.625 252.365 131.101C246.381 135.576 247.834 135.603 249.308 135.057" stroke="white" stroke-width="2" stroke-linecap="round" stroke-linejoin="round"/>
<path d="M899.432 87.2441C897.627 89.8193 893.423 96.7406 891.047 103.825C888.67 110.91 889.881 110.106 890.783 108.818" stroke="white" stroke-width="2" stroke-linecap="round" stroke-linejoin="round"/>
<path d="M905.006 95.4785C902.547 97.4393 896.56 102.892 892.28 109.017C888 115.143 889.388 114.713 890.617 113.733" stroke="white" stroke-width="2" stroke-linecap="round" stroke-linejoin="round"/>
<path d="M1246.14 144.114C1247.39 146.997 1250.14 154.616 1251.06 162.032C1251.98 169.447 1250.95 168.419 1250.32 166.977" stroke="white" stroke-width="2" stroke-linecap="round" stroke-linejoin="round"/>
<path d="M1239.04 151.076C1241.06 153.487 1245.84 160.021 1248.82 166.875C1251.79 173.729 1250.52 173.032 1249.51 171.827" stroke="white" stroke-width="2" stroke-linecap="round" stroke-linejoin="round"/>
<path d="M1440.49 163.805L1438.8 164.487L1436.01 164.463L1433.02 163.047L1430.39 160.339L1429.36 157.089L1429.79 154.118L1431.43 152.267L1433.01 152.036L1432.92 150.192L1433.61 146.009L1435.16 142.254L1436.95 139.702L1439.57 137.337L1442.66 135.645L1444.72 135.342L1446.92 135.948L1448.93 137.446L1450.93 140.122L1452.71 144.192L1453.3 148.25L1453.65 150.611L1453.44 153.798L1452.53 156.468L1452.17 156.954L1453.08 156.82L1455.44 156.473L1456.64 157.473L1457.13 159.133L1457.45 161.313L1457.08 163.409L1456.22 165.144L1454.47 166.328L1453.37 166.8L1451.21 166.437L1449.59 165.932L1448.66 163.781L1448.72 160.035L1447.25 160.956L1444.34 161.383L1442.53 161.278L1441.52 162.788L1440.49 163.805Z" fill="white"/>
<path d="M1453.31 167.247C1452.48 167.37 1451.63 167.285 1450.85 166.986C1449.68 166.53 1448.81 165.625 1448.41 164.439C1447.88 162.843 1447.99 161.253 1448.73 159.84C1448.85 159.616 1449.13 159.53 1449.35 159.648C1449.58 159.767 1449.67 160.044 1449.55 160.269C1448.91 161.471 1448.82 162.776 1449.28 164.148C1449.59 165.07 1450.27 165.774 1451.19 166.13C1452.27 166.549 1453.54 166.446 1454.6 165.855C1455.83 165.169 1456.7 163.583 1456.92 161.612C1457.12 159.782 1456.71 158.065 1455.9 157.339C1455.27 156.779 1453.77 156.905 1452.32 157.639C1452.1 157.753 1451.82 157.663 1451.71 157.437C1451.59 157.211 1451.68 156.935 1451.91 156.82C1453.74 155.892 1455.59 155.826 1456.51 156.655C1457.55 157.584 1458.07 159.569 1457.83 161.714C1457.58 163.978 1456.54 165.826 1455.05 166.657C1454.51 166.961 1453.91 167.159 1453.31 167.247V167.247Z" fill="white"/>
<path d="M1446.2 171.062C1446.08 171.079 1445.96 171.051 1445.86 170.976C1445.65 170.824 1445.61 170.537 1445.76 170.333L1450.89 163.434C1451.05 163.231 1451.33 163.188 1451.54 163.34C1451.74 163.491 1451.78 163.779 1451.63 163.982L1446.5 170.881C1446.42 170.983 1446.31 171.044 1446.2 171.062Z" fill="white"/>
<path d="M1445.84 161.652C1444.72 161.816 1443.54 161.807 1442.34 161.61C1442.09 161.569 1441.92 161.333 1441.96 161.083C1442 160.832 1442.24 160.663 1442.49 160.704C1446.41 161.346 1449.89 159.905 1451.82 156.847C1454.02 153.337 1453.61 146.214 1450.9 140.968C1449.26 137.81 1447.11 136.003 1444.83 135.879C1442.59 135.757 1440.01 137.119 1437.76 139.618C1434.53 143.195 1432.86 148.091 1433.49 152.092C1433.53 152.342 1433.36 152.577 1433.11 152.617C1433.11 152.617 1433.11 152.618 1433.11 152.618C1432.86 152.654 1432.63 152.485 1432.59 152.236C1431.91 147.972 1433.67 142.778 1437.07 139.003C1439.51 136.298 1442.36 134.825 1444.88 134.962C1447.5 135.104 1449.92 137.088 1451.71 140.546C1453.03 143.089 1453.9 146.298 1454.11 149.35C1454.33 152.6 1453.79 155.436 1452.59 157.335C1451.1 159.72 1448.65 161.237 1445.84 161.652V161.652Z" fill="white"/>
<path d="M1438.69 165.111C1437.55 165.278 1436.34 165.082 1435.08 164.531C1431.85 163.113 1429.62 160.639 1428.98 157.744C1428.56 155.85 1428.9 154.046 1429.88 152.919C1430.42 152.302 1431.21 151.914 1432.2 151.768C1434.9 151.371 1438.9 152.873 1441.11 155.115C1442.87 156.904 1443.5 159.393 1442.76 161.612C1442.12 163.523 1440.59 164.83 1438.69 165.111ZM1432.34 152.676C1431.56 152.79 1430.97 153.076 1430.57 153.524C1429.79 154.419 1429.52 155.959 1429.88 157.544C1430.46 160.151 1432.49 162.391 1435.45 163.69C1436.55 164.171 1437.59 164.344 1438.55 164.202C1440.11 163.973 1441.36 162.896 1441.89 161.32C1442.52 159.431 1441.97 157.3 1440.45 155.76C1438.46 153.735 1434.74 152.323 1432.34 152.676Z" fill="white"/>
<path d="M1450.84 174.832L1450.32 174.907C1449.91 174.969 1449.52 174.68 1449.46 174.261C1449.39 173.843 1449.68 173.455 1450.1 173.393L1450.61 173.318C1451.03 173.256 1451.42 173.546 1451.48 173.964C1451.54 174.382 1451.25 174.77 1450.84 174.832Z" fill="white"/>
<path d="M1446.84 175.419C1446.42 175.481 1446.03 175.192 1445.97 174.774L1442.98 154.428C1442.92 154.01 1443.21 153.621 1443.63 153.56C1444.04 153.498 1444.43 153.787 1444.49 154.205L1447.48 174.551C1447.55 174.969 1447.26 175.358 1446.84 175.419Z" fill="white"/>
<path d="M1445.68 167.548C1445.56 167.565 1445.44 167.538 1445.34 167.462L1438.11 162.084C1437.91 161.932 1437.86 161.645 1438.01 161.441C1438.17 161.238 1438.45 161.195 1438.66 161.347L1445.89 166.725C1446.09 166.876 1446.13 167.164 1445.98 167.368C1445.91 167.469 1445.8 167.531 1445.68 167.548Z" fill="white"/>
<path d="M77.4921 125.805L75.7982 126.487L73.0107 126.464L70.0185 125.047L67.3934 122.34L66.3589 119.089L66.7885 116.118L68.4345 114.268L70.009 114.036L69.9237 112.193L70.6082 108.009L72.1599 104.255L73.9503 101.702L76.5724 99.3373L79.6646 97.6455L81.7237 97.3429L83.9162 97.9488L85.9305 99.4469L87.9323 102.122L89.7058 106.193L90.3021 110.25L90.6492 112.612L90.4368 115.798L89.53 118.468L89.1683 118.954L90.0767 118.821L92.4386 118.474L93.6372 119.473L94.1286 121.133L94.449 123.313L94.0765 125.41L93.2178 127.145L91.4739 128.329L90.3678 128.801L88.2108 128.437L86.59 127.933L85.6552 125.781L85.7235 122.036L84.2501 122.956L81.3433 123.383L79.5336 123.278L78.5182 124.788L77.4921 125.805Z" fill="white"/>
<path d="M90.3077 129.248C89.4762 129.37 88.6252 129.286 87.8536 128.987C86.6763 128.531 85.8094 127.626 85.4125 126.439C84.8782 124.844 84.9896 123.253 85.7346 121.841C85.8528 121.616 86.1305 121.531 86.3547 121.649C86.579 121.767 86.665 122.045 86.5466 122.269C85.9126 123.471 85.824 124.777 86.2831 126.148C86.5919 127.071 87.2673 127.775 88.1853 128.131C89.2659 128.549 90.544 128.446 91.6044 127.855C92.8339 127.169 93.6985 125.583 93.917 123.613C94.1199 121.783 93.711 120.065 92.8997 119.34C92.2737 118.779 90.7698 118.905 89.3235 119.639C89.0975 119.754 88.8212 119.664 88.7064 119.437C88.5917 119.211 88.682 118.935 88.908 118.82C90.736 117.893 92.5861 117.826 93.512 118.655C94.5501 119.584 95.0673 121.57 94.8296 123.714C94.5785 125.979 93.5399 127.827 92.0516 128.657C91.5061 128.961 90.9121 129.159 90.3077 129.248V129.248Z" fill="white"/>
<path d="M83.1974 133.062C83.0812 133.079 82.9585 133.052 82.8566 132.976C82.6532 132.825 82.611 132.537 82.7622 132.334L87.8936 125.435C88.045 125.231 88.3325 125.189 88.536 125.34C88.7394 125.492 88.7817 125.779 88.6304 125.983L83.4991 132.882C83.4233 132.984 83.3136 133.045 83.1974 133.062Z" fill="white"/>
<path d="M82.8357 123.652C81.718 123.816 80.5415 123.807 79.3401 123.61C79.0898 123.569 78.9203 123.333 78.9613 123.083C79.0023 122.833 79.2388 122.663 79.4885 122.704C83.4078 123.347 86.895 121.905 88.817 118.847C91.0238 115.337 90.6106 108.214 87.8961 102.969C86.2618 99.8108 84.1092 98.0034 81.8351 97.8794C79.588 97.7571 77.0079 99.1198 74.7557 101.618C71.5306 105.195 69.858 110.092 70.4947 114.092C70.5346 114.343 70.3639 114.578 70.1135 114.618C70.1117 114.618 70.1098 114.618 70.1079 114.618C69.8596 114.655 69.6275 114.485 69.5879 114.236C68.9093 109.973 70.6701 104.779 74.0736 101.003C76.5126 98.298 79.3599 96.8254 81.8848 96.9626C84.4971 97.1049 86.9215 99.0881 88.7114 102.547C90.0273 105.089 90.9 108.298 91.106 111.35C91.3253 114.6 90.7884 117.436 89.5942 119.336C88.0953 121.721 85.6542 123.238 82.8357 123.652V123.652Z" fill="white"/>
<path d="M75.6861 127.111C74.552 127.278 73.339 127.083 72.0811 126.531C68.8478 125.113 66.6237 122.64 65.9792 119.744C65.5576 117.851 65.896 116.047 66.8842 114.919C67.4248 114.302 68.2049 113.915 69.2035 113.768C71.9039 113.371 75.8981 114.873 78.1069 117.116C79.8687 118.904 80.5009 121.394 79.7569 123.613C79.1163 125.523 77.5945 126.831 75.6861 127.111ZM69.3368 114.677C68.5602 114.791 67.9673 115.076 67.5746 115.524C66.7904 116.419 66.5225 117.96 66.8752 119.545C67.4554 122.151 69.4872 124.391 72.4496 125.69C73.5475 126.172 74.5914 126.344 75.5525 126.203C77.1117 125.974 78.3579 124.896 78.8862 123.321C79.5197 121.432 78.9703 119.301 77.4526 117.76C75.4584 115.735 71.7419 114.323 69.3368 114.677Z" fill="white"/>
<path d="M87.8359 136.832L87.3237 136.908C86.9056 136.969 86.5169 136.68 86.4555 136.262C86.394 135.844 86.6831 135.455 87.1012 135.394L87.6135 135.318C88.0316 135.257 88.4203 135.546 88.4817 135.964C88.5431 136.382 88.254 136.771 87.8359 136.832Z" fill="white"/>
<path d="M83.8378 137.42C83.4197 137.481 83.031 137.192 82.9696 136.774L79.9798 116.428C79.9184 116.01 80.2075 115.622 80.6256 115.56C81.0437 115.499 81.4324 115.788 81.4938 116.206L84.4836 136.552C84.545 136.97 84.2558 137.358 83.8378 137.42Z" fill="white"/>
<path d="M82.6811 129.548C82.5649 129.565 82.4421 129.538 82.3403 129.462L75.1089 124.084C74.9055 123.933 74.8633 123.645 75.0145 123.442C75.1659 123.238 75.4535 123.196 75.657 123.347L82.8884 128.726C83.0918 128.877 83.134 129.165 82.9828 129.368C82.907 129.47 82.7972 129.531 82.6811 129.548Z" fill="white"/>
<path d="M556.537 71.6222L555.311 71.5233L553.638 70.67L552.261 68.9155L551.493 66.4932L551.848 64.2224L553.002 62.5609L554.551 61.9411L555.57 62.2756L556.073 61.1387L557.745 58.8229L559.811 57.027L561.658 56.0276L563.951 55.3914L566.324 55.3026L567.656 55.7401L568.796 56.7653L569.559 58.2747L569.96 60.49L569.804 63.4773L568.941 66.1025L568.44 67.6306L567.352 69.4874L566.002 70.8236L565.638 71.0079L566.225 71.2009L567.754 71.7027L568.175 72.6659L567.972 73.8145L567.508 75.225L566.653 76.3765L565.613 77.1637L564.205 77.3525L563.396 77.3039L562.206 76.4354L561.381 75.6436L561.465 74.0652L562.634 71.8282L561.468 71.9393L559.588 71.3217L558.529 70.7135L557.462 71.3181L556.537 71.6222Z" fill="white"/>
<path d="M563.226 77.5554C562.688 77.3788 562.2 77.0717 561.825 76.6592C561.253 76.0298 561.003 75.2235 561.121 74.3889C561.279 73.2661 561.825 72.3411 562.699 71.7139C562.838 71.6143 563.031 71.6462 563.131 71.785C563.23 71.9238 563.198 72.117 563.06 72.2166C562.315 72.7504 561.869 73.5104 561.733 74.4754C561.641 75.1246 561.836 75.7523 562.283 76.243C562.808 76.8207 563.609 77.1435 564.427 77.1063C565.374 77.0629 566.373 76.3673 567.098 75.2453C567.771 74.2033 568.041 73.0451 567.771 72.3633C567.562 71.8371 566.618 71.4602 565.525 71.4672C565.354 71.4684 565.215 71.3308 565.214 71.1599C565.213 70.9892 565.35 70.8498 565.521 70.8487C566.902 70.8397 568.037 71.3568 568.346 72.1353C568.692 73.0075 568.406 74.3602 567.617 75.5811C566.784 76.8706 565.602 77.6718 564.455 77.7242C564.034 77.7432 563.617 77.6839 563.226 77.5554V77.5554Z" fill="white"/>
<path d="M557.792 77.7139C557.717 77.6892 557.651 77.6358 557.612 77.5596C557.535 77.4071 557.596 77.221 557.749 77.1439L562.919 74.5301C563.071 74.453 563.257 74.5141 563.334 74.6666C563.411 74.819 563.35 75.0051 563.198 75.0822L558.028 77.6961C557.951 77.7346 557.867 77.7385 557.792 77.7139Z" fill="white"/>
<path d="M560.406 71.9326C559.683 71.6952 558.977 71.3356 558.312 70.8551C558.173 70.755 558.142 70.5617 558.242 70.4233C558.343 70.2848 558.536 70.2538 558.674 70.3537C560.843 71.9209 563.379 72.1016 565.458 70.8371C567.845 69.3856 569.74 64.9677 569.683 60.9889C569.649 58.5934 568.896 56.8559 567.562 56.0965C566.244 55.3464 564.279 55.391 562.169 56.2189C559.148 57.4043 556.666 59.8521 555.846 62.4551C555.794 62.618 555.621 62.7085 555.458 62.657C555.457 62.6567 555.455 62.6562 555.454 62.6559C555.294 62.6031 555.205 62.4308 555.256 62.269C556.13 59.4948 558.755 56.894 561.943 55.643C564.228 54.7466 566.387 54.7161 567.868 55.5589C569.4 56.4311 570.264 58.3564 570.302 60.98C570.33 62.9087 569.89 65.1056 569.095 67.0074C568.249 69.0323 567.071 70.5801 565.78 71.3656C564.158 72.3519 562.23 72.5314 560.406 71.9326V71.9326Z" fill="white"/>
<path d="M555.055 71.8661C554.322 71.6251 553.649 71.1423 553.057 70.431C551.535 68.6031 550.939 66.4425 551.422 64.5032C551.738 63.235 552.485 62.2495 553.42 61.8672C553.932 61.658 554.519 61.6596 555.165 61.8717C556.912 62.4455 558.867 64.5531 559.524 66.5699C560.047 68.1783 559.679 69.8692 558.562 70.9827C557.601 71.9413 556.29 72.2715 555.055 71.8661ZM554.972 62.4594C554.469 62.2944 554.026 62.2879 553.654 62.4397C552.912 62.7432 552.287 63.5912 552.022 64.6527C551.587 66.3985 552.138 68.3603 553.532 70.0351C554.049 70.6558 554.627 71.074 555.248 71.2782C556.257 71.6095 557.333 71.3352 558.125 70.5446C559.076 69.5966 559.386 68.1469 558.935 66.7612C558.343 64.9404 556.528 62.9704 554.972 62.4594Z" fill="white"/>
<path d="M559.453 81.383L559.121 81.2742C558.851 81.1854 558.703 80.8941 558.792 80.6236C558.881 80.3531 559.172 80.2058 559.443 80.2946L559.774 80.4035C560.045 80.4923 560.192 80.7836 560.103 81.0541C560.014 81.3246 559.723 81.4719 559.453 81.383Z" fill="white"/>
<path d="M556.866 80.5336C556.595 80.4447 556.448 80.1534 556.537 79.8829L560.86 66.7193C560.949 66.4488 561.24 66.3015 561.51 66.3903C561.781 66.4792 561.928 66.7704 561.839 67.041L557.516 80.2046C557.428 80.4751 557.136 80.6224 556.866 80.5336Z" fill="white"/>
<path d="M558.538 75.4405C558.463 75.4159 558.397 75.3625 558.359 75.2862L555.619 69.8674C555.542 69.7149 555.603 69.5288 555.755 69.4517C555.908 69.3747 556.094 69.4358 556.171 69.5882L558.911 75.0071C558.988 75.1596 558.927 75.3456 558.774 75.4227C558.698 75.4612 558.613 75.4652 558.538 75.4405Z" fill="white"/>
<path d="M807.08 104.758L805.669 105.326L803.347 105.307L800.855 104.127L798.668 101.872L797.806 99.1637L798.164 96.689L799.535 95.1476L800.847 94.9549L800.776 93.4193L801.346 89.9342L802.639 86.8068L804.13 84.6809L806.314 82.7108L808.89 81.3016L810.605 81.0496L812.431 81.5542L814.109 82.8022L815.777 85.0308L817.254 88.4211L817.751 91.801L818.04 93.7684L817.863 96.4226L817.108 98.6465L816.806 99.0515L817.563 98.9404L819.53 98.6513L820.529 99.4837L820.938 100.867L821.205 102.683L820.895 104.429L820.179 105.874L818.727 106.86L817.805 107.253L816.009 106.95L814.659 106.53L813.88 104.738L813.937 101.618L812.71 102.385L810.288 102.741L808.781 102.653L807.935 103.911L807.08 104.758Z" fill="white"/>
<path d="M817.755 107.626C817.063 107.727 816.354 107.657 815.711 107.408C814.73 107.028 814.008 106.274 813.678 105.286C813.233 103.957 813.326 102.632 813.946 101.455C814.045 101.269 814.276 101.197 814.463 101.296C814.649 101.394 814.721 101.625 814.622 101.812C814.094 102.814 814.021 103.901 814.403 105.043C814.66 105.812 815.223 106.399 815.987 106.695C816.888 107.044 817.952 106.958 818.836 106.465C819.86 105.894 820.58 104.573 820.762 102.931C820.931 101.407 820.59 99.9767 819.914 99.372C819.393 98.9051 818.14 99.0101 816.936 99.6214C816.747 99.717 816.517 99.6419 816.422 99.4535C816.326 99.2652 816.401 99.0351 816.589 98.9395C818.112 98.1667 819.653 98.1115 820.424 98.8021C821.289 99.5757 821.72 101.23 821.522 103.016C821.313 104.902 820.448 106.442 819.208 107.133C818.754 107.386 818.259 107.552 817.755 107.626V107.626Z" fill="white"/>
<path d="M811.833 110.803C811.736 110.817 811.634 110.794 811.549 110.731C811.379 110.605 811.344 110.365 811.47 110.196L815.745 104.449C815.871 104.28 816.11 104.244 816.28 104.37C816.449 104.496 816.484 104.736 816.358 104.906L812.084 110.652C812.021 110.737 811.929 110.788 811.833 110.803Z" fill="white"/>
<path d="M811.531 102.965C810.6 103.101 809.62 103.094 808.62 102.93C808.411 102.896 808.27 102.699 808.304 102.491C808.338 102.282 808.535 102.141 808.743 102.175C812.008 102.71 814.913 101.509 816.514 98.9622C818.352 96.0382 818.008 90.1049 815.747 85.7357C814.385 83.1051 812.592 81.5996 810.698 81.4963C808.826 81.3944 806.677 82.5296 804.801 84.6106C802.114 87.5905 800.721 91.6691 801.252 95.0013C801.285 95.2098 801.143 95.4059 800.934 95.439C800.933 95.4392 800.931 95.4394 800.929 95.4397C800.723 95.4701 800.529 95.3285 800.496 95.1214C799.931 91.57 801.398 87.2432 804.233 84.0985C806.264 81.845 808.636 80.6183 810.739 80.7327C812.915 80.8512 814.935 82.5031 816.426 85.3842C817.522 87.5021 818.249 90.175 818.42 92.7175C818.603 95.4245 818.156 97.7868 817.161 99.3692C815.913 101.356 813.879 102.619 811.531 102.965V102.965Z" fill="white"/>
<path d="M805.576 105.846C804.631 105.985 803.621 105.822 802.573 105.363C799.88 104.182 798.027 102.121 797.49 99.7095C797.139 98.1323 797.421 96.6297 798.244 95.6901C798.694 95.1762 799.344 94.8538 800.176 94.7315C802.425 94.401 805.752 95.6519 807.592 97.52C809.06 99.0099 809.587 101.084 808.967 102.932C808.433 104.523 807.166 105.613 805.576 105.846ZM800.287 95.4882C799.64 95.5833 799.146 95.8209 798.819 96.1941C798.166 96.9398 797.943 98.2231 798.237 99.5434C798.72 101.714 800.412 103.58 802.88 104.662C803.794 105.063 804.664 105.207 805.465 105.089C806.763 104.899 807.801 104.001 808.242 102.689C808.769 101.115 808.312 99.3402 807.047 98.0567C805.386 96.3701 802.29 95.1938 800.287 95.4882Z" fill="white"/>
<path d="M815.696 113.944L815.27 114.006C814.921 114.058 814.598 113.817 814.547 113.468C814.495 113.12 814.736 112.796 815.084 112.745L815.511 112.683C815.859 112.631 816.183 112.872 816.234 113.22C816.285 113.569 816.045 113.892 815.696 113.944Z" fill="white"/>
<path d="M812.366 114.432C812.018 114.484 811.694 114.243 811.643 113.895L809.152 96.947C809.101 96.5987 809.342 96.2749 809.69 96.2237C810.039 96.1726 810.362 96.4134 810.414 96.7617L812.904 113.709C812.955 114.057 812.714 114.381 812.366 114.432Z" fill="white"/>
<path d="M811.402 107.876C811.306 107.89 811.203 107.867 811.119 107.804L805.095 103.324C804.926 103.198 804.89 102.958 805.016 102.789C805.142 102.619 805.382 102.584 805.551 102.71L811.575 107.19C811.745 107.316 811.78 107.556 811.654 107.725C811.591 107.81 811.499 107.861 811.402 107.876Z" fill="white"/>
<path fill-rule="evenodd" clip-rule="evenodd" d="M1600 167.16V300H0V167.486C47.8875 146.436 112.291 133 183 133C258.8 133 327.223 146.723 375.824 168.763C399.685 114.587 451.911 77 512.5 77C576.622 77 631.378 119.099 653.057 178.405C710.071 138.51 797.272 113 895 113C1010.05 113 1110.51 148.356 1164.31 200.915C1193 175.84 1226.49 164.436 1258.09 172.611C1284.81 179.525 1305.92 199.342 1319.62 226.975C1382.24 189.335 1475.53 165.862 1579.53 166.684C1586.4 166.738 1593.23 166.898 1600 167.16Z" fill="white"/>
</svg>
