<svg width="340" height="165" viewBox="0 0 340 165" fill="none" xmlns="http://www.w3.org/2000/svg">
<path d="M88.7928 20C89.8464 21.6857 92.2696 26.1949 93.5338 30.7462C94.7981 35.2976 94.0606 34.7497 93.5338 33.9069" stroke="#2CBC67" stroke-linecap="round" stroke-linejoin="round"/>
<path d="M85 25.0122C86.4866 26.3319 90.0843 29.9735 92.5822 33.9827C95.08 37.9919 94.2178 37.6746 93.4745 37.0148" stroke="#2CBC67" stroke-linecap="round" stroke-linejoin="round"/>
<path d="M18.708 28.5091L18.1522 28.8529L17.1679 29.0147L16.0264 28.6977L14.9355 27.9031L14.3725 26.8199L14.3427 25.7461L14.8103 24.9932L15.3514 24.8156L15.2088 24.1707L15.195 22.6537L15.5131 21.2351L15.9888 20.2259L16.7691 19.232L17.7563 18.4468L18.4639 18.2145L19.274 18.2944L20.0757 18.6998L20.9448 19.5212L21.8184 20.8482L22.2762 22.2426L22.5426 23.0543L22.6621 24.1908L22.5052 25.1876L22.4074 25.3811L22.7195 25.2786L23.5312 25.0122L24.0148 25.2914L24.2894 25.8469L24.5353 26.5961L24.5318 27.358L24.3349 28.0221L23.7922 28.5461L23.4309 28.78L22.6482 28.7833L22.0459 28.7044L21.585 28.0027L21.3806 26.6778L20.9172 27.0922L19.9182 27.4201L19.2737 27.4934L19.0077 28.0879L18.708 28.5091Z" fill="#2CBC67"/>
<path d="M23.4371 28.9414C23.1513 29.0352 22.8461 29.0573 22.5558 28.9989C22.1128 28.9099 21.7519 28.6438 21.5396 28.2496C21.2539 27.7195 21.1962 27.1519 21.3727 26.6084C21.4007 26.5221 21.4934 26.4749 21.5797 26.5029C21.666 26.5309 21.7132 26.6236 21.6852 26.7099C21.5349 27.1725 21.5833 27.6381 21.8289 28.0938C21.994 28.4004 22.2751 28.6074 22.6205 28.6769C23.0271 28.7586 23.4715 28.6443 23.8094 28.3711C24.2011 28.0543 24.4092 27.4423 24.3661 26.7341C24.326 26.0764 24.0771 25.4958 23.7467 25.2893C23.4918 25.1299 22.9691 25.266 22.5039 25.6131C22.4312 25.6673 22.3283 25.6524 22.274 25.5796C22.2198 25.5069 22.2348 25.404 22.3075 25.3497C22.8955 24.9111 23.5438 24.7749 23.9209 25.0107C24.3436 25.2749 24.6471 25.9435 24.694 26.7141C24.7437 27.5281 24.4902 28.243 24.016 28.6266C23.8422 28.7671 23.6448 28.8732 23.4371 28.9414Z" fill="#2CBC67"/>
<path d="M21.1624 30.7198C21.1225 30.7329 21.0775 30.7307 21.037 30.7103C20.9561 30.6693 20.9236 30.5705 20.9645 30.4895L22.3531 27.7437C22.3941 27.6627 22.4929 27.6303 22.5739 27.6712C22.6549 27.7122 22.6873 27.811 22.6464 27.892L21.2578 30.6378C21.2373 30.6783 21.2023 30.7066 21.1624 30.7198Z" fill="#2CBC67"/>
<path d="M20.4608 27.4236C20.0767 27.5497 19.6613 27.6182 19.2256 27.6221C19.1349 27.6229 19.0607 27.5499 19.0599 27.4592C19.0591 27.3685 19.1322 27.2943 19.2227 27.2935C20.6439 27.2811 21.7857 26.5599 22.2769 25.3644C22.8409 23.992 22.2607 21.5055 20.9836 19.8215C20.2147 18.8076 19.3454 18.3016 18.5359 18.3966C17.7361 18.4905 16.9094 19.1284 16.2676 20.1468C15.3486 21.6049 15.0575 23.4335 15.526 24.8053C15.5553 24.8912 15.5095 24.9846 15.4236 25.0138C15.423 25.0141 15.4223 25.0143 15.4217 25.0145C15.3364 25.0425 15.2442 24.9967 15.215 24.9115C14.7157 23.4495 15.0197 21.5104 15.9896 19.9716C16.6846 18.8688 17.5988 18.1759 18.4975 18.0703C19.4273 17.9611 20.4032 18.5125 21.2453 19.6229C21.8644 20.4392 22.3679 21.5175 22.6267 22.5813C22.9023 23.7138 22.886 24.7466 22.5808 25.4893C22.1977 26.4217 21.4294 27.1055 20.4608 27.4236Z" fill="#2CBC67"/>
<path d="M18.1508 29.0799C17.7611 29.2079 17.3214 29.213 16.8442 29.0952C15.6176 28.7925 14.6824 28.0559 14.2786 27.0742C14.0144 26.4323 14.0237 25.7755 14.3034 25.3175C14.4563 25.067 14.7078 24.8829 15.051 24.7703C15.979 24.4656 17.479 24.7515 18.3947 25.4076C19.1251 25.9308 19.4999 26.7701 19.3729 27.5979C19.2635 28.3106 18.8067 28.8646 18.1508 29.0799ZM15.1534 25.0824C14.8865 25.1701 14.6949 25.3068 14.5837 25.4888C14.3618 25.8522 14.3613 26.4119 14.5823 26.9492C14.9459 27.8329 15.799 28.4989 16.9229 28.7762C17.3394 28.879 17.718 28.8761 18.0483 28.7677C18.5841 28.5918 18.9578 28.1358 19.048 27.5481C19.1562 26.8433 18.8325 26.1254 18.2033 25.6747C17.3766 25.0823 15.9799 24.8111 15.1534 25.0824Z" fill="#2CBC67"/>
<path d="M23.0281 31.7663L22.8521 31.8241C22.7084 31.8712 22.5537 31.793 22.5065 31.6493C22.4594 31.5056 22.5376 31.3509 22.6813 31.3038L22.8573 31.246C23.001 31.1988 23.1557 31.277 23.2029 31.4207C23.25 31.5644 23.1718 31.7191 23.0281 31.7663Z" fill="#2CBC67"/>
<path d="M21.6541 32.2174C21.5104 32.2645 21.3557 32.1863 21.3086 32.0426L19.0133 25.0507C18.9661 24.907 19.0443 24.7523 19.188 24.7051C19.3317 24.658 19.4864 24.7362 19.5336 24.8799L21.8289 31.8718C21.876 32.0155 21.7978 32.1702 21.6541 32.2174Z" fill="#2CBC67"/>
<path d="M20.7661 29.5123C20.7262 29.5254 20.6812 29.5233 20.6407 29.5028L17.7627 28.0474C17.6817 28.0064 17.6493 27.9076 17.6902 27.8266C17.7312 27.7456 17.83 27.7132 17.911 27.7541L20.789 29.2096C20.87 29.2505 20.9024 29.3494 20.8615 29.4303C20.841 29.4708 20.806 29.4992 20.7661 29.5123Z" fill="#2CBC67"/>
<path d="M296.395 14.8699L295.504 14.6836L294.355 13.902L293.507 12.4864L293.169 10.6372L293.64 9.00332L294.641 7.89081L295.835 7.57955L296.552 7.91962L297.027 7.13186L298.469 5.58713L300.152 4.46055L301.601 3.89837L303.343 3.64407L305.093 3.79904L306.03 4.24375L306.771 5.10196L307.191 6.28071L307.28 7.94398L306.888 10.1222L306.012 11.9691L305.502 13.0442L304.532 14.3063L303.416 15.1618L303.132 15.2632L303.545 15.4594L304.62 15.9695L304.841 16.7156L304.585 17.5398L304.114 18.5322L303.379 19.2981L302.543 19.7794L301.492 19.7874L300.903 19.6767L300.109 18.9288L299.577 18.271L299.785 17.1202L300.851 15.5867L299.985 15.5602L298.662 14.9323L297.941 14.3876L297.102 14.7325L296.395 14.8699Z" fill="#2CBC67"/>
<path d="M300.754 19.8452C300.375 19.6656 300.046 19.395 299.809 19.0574C299.447 18.5423 299.338 17.9273 299.502 17.3256C299.723 16.5162 300.209 15.8878 300.909 15.5086C301.02 15.4483 301.159 15.4897 301.219 15.6008C301.28 15.7119 301.238 15.8508 301.127 15.911C300.532 16.2337 300.133 16.7502 299.944 17.4459C299.816 17.9139 299.901 18.3928 300.183 18.7944C300.515 19.2671 301.074 19.5784 301.677 19.6269C302.377 19.683 303.174 19.265 303.81 18.5087C304.401 17.8063 304.707 16.9813 304.572 16.4558C304.468 16.0501 303.809 15.6859 303.007 15.5897C302.881 15.5747 302.792 15.4608 302.807 15.3353C302.822 15.2098 302.936 15.1203 303.061 15.1353C304.076 15.2569 304.861 15.7417 305.015 16.3417C305.188 17.0141 304.853 17.9804 304.161 18.8034C303.429 19.6726 302.487 20.151 301.64 20.0831C301.33 20.058 301.029 19.9757 300.754 19.8452Z" fill="#2CBC67"/>
<path d="M296.75 19.4577C296.698 19.4327 296.654 19.3874 296.633 19.3278C296.591 19.2088 296.653 19.0779 296.772 19.0354L300.809 17.5965C300.928 17.5541 301.059 17.6162 301.101 17.7352C301.144 17.8543 301.082 17.9852 300.963 18.0276L296.925 19.4666C296.866 19.4878 296.803 19.4828 296.75 19.4577Z" fill="#2CBC67"/>
<path d="M299.206 15.4571C298.697 15.2157 298.212 14.8862 297.769 14.4719C297.676 14.3855 297.671 14.2408 297.758 14.1484C297.844 14.056 297.989 14.0513 298.081 14.1374C299.528 15.489 301.372 15.8569 303.016 15.1216C304.902 14.2776 306.703 11.2107 307.031 8.28488C307.228 6.52334 306.836 5.17815 305.928 4.49705C305.03 3.82417 303.583 3.67462 301.958 4.08656C299.63 4.67639 297.581 6.24286 296.738 8.07733C296.685 8.19217 296.549 8.24244 296.434 8.18959C296.433 8.18919 296.432 8.18878 296.432 8.18838C296.319 8.13476 296.269 8.00005 296.322 7.88604C297.221 5.93086 299.389 4.26533 301.845 3.64285C303.605 3.19682 305.193 3.37479 306.202 4.13083C307.245 4.91311 307.701 6.40645 307.485 8.33571C307.327 9.75397 306.8 11.3257 306.04 12.6479C305.231 14.0558 304.224 15.0826 303.203 15.5394C301.921 16.1129 300.489 16.0658 299.206 15.4571Z" fill="#2CBC67"/>
<path d="M295.285 14.9114C294.768 14.6665 294.32 14.2497 293.951 13.6727C293.003 12.1897 292.766 10.5485 293.301 9.16993C293.65 8.26837 294.29 7.61432 295.012 7.42042C295.407 7.31436 295.838 7.36992 296.292 7.58558C297.521 8.16883 298.761 9.89725 299.056 11.4385C299.291 12.6677 298.863 13.8746 297.941 14.5883C297.146 15.2028 296.153 15.3236 295.285 14.9114ZM296.096 7.99906C295.742 7.83132 295.418 7.78539 295.131 7.86239C294.558 8.01629 294.02 8.58071 293.727 9.33534C293.246 10.5764 293.468 12.0675 294.336 13.4262C294.658 13.9297 295.043 14.2903 295.481 14.4978C296.19 14.8346 297.005 14.733 297.661 14.2263C298.446 13.6186 298.809 12.5833 298.606 11.5244C298.34 10.1329 297.191 8.51851 296.096 7.99906Z" fill="#2CBC67"/>
<path d="M297.629 22.3046L297.396 22.194C297.206 22.1037 297.125 21.8762 297.215 21.6859C297.305 21.4956 297.533 21.4145 297.723 21.5048L297.956 21.6154C298.146 21.7057 298.228 21.9332 298.137 22.1235C298.047 22.3138 297.819 22.3949 297.629 22.3046Z" fill="#2CBC67"/>
<path d="M295.809 21.4411C295.619 21.3508 295.538 21.1233 295.628 20.933L300.023 11.6717C300.113 11.4814 300.34 11.4003 300.531 11.4906C300.721 11.5809 300.802 11.8084 300.712 11.9987L296.317 21.26C296.227 21.4503 296 21.5313 295.809 21.4411Z" fill="#2CBC67"/>
<path d="M297.51 17.858C297.457 17.833 297.413 17.7877 297.392 17.7281L295.884 13.4964C295.841 13.3774 295.903 13.2465 296.023 13.204C296.142 13.1616 296.272 13.2237 296.315 13.3428L297.823 17.5745C297.866 17.6935 297.803 17.8244 297.684 17.8669C297.625 17.8881 297.562 17.8831 297.51 17.858Z" fill="#2CBC67"/>
<path fill-rule="evenodd" clip-rule="evenodd" d="M340 33.953V165H26.9418C20.4978 153.241 17 140.626 17 127.5C17 63.7111 99.6035 12 201.5 12C269.852 13.5189 312.898 21.341 340 33.953Z" fill="#2CBC67"/>
<path fill-rule="evenodd" clip-rule="evenodd" d="M340 64.7571V164.999H147.17C147.381 153.933 148.898 142.582 151.843 131.203C168.877 65.3686 227.23 23.5248 282.178 37.7422C298.261 41.9035 319.993 51.704 340 64.7571Z" fill="white"/>
<path d="M204.478 43.3823C205.023 44.6322 206.213 47.9359 206.612 51.1514C207.011 54.3669 206.566 53.9209 206.294 53.296" stroke="white" stroke-linecap="round" stroke-linejoin="round"/>
<path d="M201.4 46.4009C202.275 47.4461 204.349 50.2794 205.64 53.2514C206.931 56.2234 206.378 55.9212 205.94 55.3986" stroke="white" stroke-linecap="round" stroke-linejoin="round"/>
<path d="M128.74 57.3823C128.195 58.6322 127.006 61.9359 126.606 65.1514C126.207 68.3669 126.652 67.9209 126.925 67.296" stroke="white" stroke-linecap="round" stroke-linejoin="round"/>
<path d="M131.819 60.4009C130.943 61.4461 128.869 64.2794 127.578 67.2514C126.288 70.2234 126.841 69.9212 127.278 69.3986" stroke="white" stroke-linecap="round" stroke-linejoin="round"/>
<path d="M58.2491 51.9683L57.3643 52.1819L55.9912 51.9683L54.6182 51.053L53.5197 49.5273L53.2451 47.8492L53.6723 46.4151L54.6182 45.6218H55.4115L55.503 44.7064L56.1438 42.6926L57.1812 40.9534L58.2491 39.8244L59.7137 38.848L61.3614 38.2378H62.3988L63.4362 38.6955L64.3211 39.5803L65.1144 41.0449L65.6941 43.1808V45.2251V46.4151L65.3585 47.9712L64.7177 49.2222L64.5042 49.4358H64.9618H66.1518L66.6705 50.0155L66.7926 50.8699V51.9683L66.4569 52.9752L65.9077 53.7686L64.9618 54.2262L64.3821 54.3788L63.3447 54.0432L62.5819 53.677L62.2768 52.5481L62.5819 50.7059L61.7886 51.053H60.324L59.4391 50.8699L58.8289 51.5412L58.2491 51.9683Z" fill="white"/>
<path d="M64.3201 54.5946C63.9011 54.5946 63.4876 54.4913 63.1287 54.2879C62.5811 53.9776 62.2191 53.4687 62.1094 52.8548C61.9615 52.029 62.1317 51.2528 62.6015 50.6101C62.6761 50.508 62.8192 50.4859 62.9213 50.5604C63.0233 50.635 63.0456 50.7782 62.971 50.8802C62.5711 51.4272 62.4328 52.0644 62.5599 52.7742C62.6453 53.2517 62.9274 53.6478 63.3543 53.8898C63.8569 54.1746 64.4947 54.2165 65.0606 54.0017C65.7166 53.7525 66.258 53.033 66.5085 52.077C66.7412 51.1892 66.664 50.3126 66.3165 49.8958C66.0484 49.574 65.2976 49.5272 64.5311 49.7843C64.4113 49.8245 64.2816 49.76 64.2414 49.6402C64.2011 49.5204 64.2657 49.3906 64.3855 49.3504C65.3543 49.0254 66.2715 49.1268 66.6681 49.6028C67.1128 50.136 67.2239 51.1528 66.9513 52.1931C66.6633 53.2918 66.0172 54.1279 65.223 54.4296C64.9319 54.54 64.6246 54.5946 64.3201 54.5946Z" fill="white"/>
<path d="M60.5369 55.9606C60.4784 55.9606 60.4198 55.9382 60.3751 55.8936C60.2858 55.8042 60.2858 55.6593 60.3751 55.5699L63.4058 52.5392C63.4952 52.4498 63.6401 52.4498 63.7295 52.5392C63.8189 52.6286 63.8189 52.7734 63.7295 52.8628L60.6988 55.8936C60.6541 55.9382 60.5955 55.9606 60.5369 55.9606Z" fill="white"/>
<path d="M61.0405 51.2935C60.4773 51.2936 59.8978 51.2038 59.3195 51.0196C59.199 50.9812 59.1326 50.8525 59.1709 50.7321C59.2093 50.6116 59.3382 50.5452 59.4584 50.5835C61.3447 51.1845 63.1691 50.7261 64.3386 49.3573C65.6813 47.7861 65.9938 44.2432 65.0352 41.4595C64.458 39.7836 63.5274 38.7363 62.4148 38.5103C61.3154 38.2871 59.9442 38.7722 58.6524 39.8411C56.8025 41.3717 55.6228 43.6653 55.6469 45.6843C55.6484 45.8107 55.5472 45.9144 55.4208 45.9159C55.4199 45.9159 55.4189 45.9159 55.418 45.9159C55.2929 45.9159 55.1908 45.8152 55.1892 45.6898C55.1635 43.5379 56.4084 41.1037 58.3606 39.4884C59.7595 38.331 61.2705 37.8111 62.5058 38.0617C63.7838 38.3212 64.8358 39.475 65.4679 41.3105C65.9326 42.6598 66.1304 44.3057 66.0108 45.8259C65.8834 47.4446 65.4131 48.8043 64.6865 49.6547C63.7744 50.7222 62.4606 51.2935 61.0405 51.2935Z" fill="white"/>
<path d="M57.2637 52.4816C56.6922 52.4816 56.1082 52.2975 55.5278 51.9342C54.0359 51.0006 53.1183 49.6195 53.0103 48.1448C52.9396 47.1804 53.2372 46.3153 53.8063 45.8306C54.1176 45.5655 54.5304 45.4312 55.0335 45.4312C56.3941 45.4312 58.2551 46.4612 59.182 47.7274C59.9212 48.7372 60.0526 50.0107 59.5249 51.0512C59.0705 51.9469 58.2252 52.4816 57.2637 52.4816ZM55.0335 45.8888C54.6422 45.8888 54.3291 45.9865 54.103 46.1791C53.6513 46.5637 53.4075 47.3041 53.4666 48.1114C53.5639 49.4389 54.4036 50.6909 55.7705 51.5462C56.277 51.8631 56.7794 52.0239 57.2636 52.0239C58.0492 52.0239 58.7419 51.5828 59.1166 50.8441C59.5659 49.9583 59.4495 48.8676 58.8126 47.9977C57.9758 46.8546 56.2452 45.8888 55.0335 45.8888Z" fill="white"/>
<path d="M62.5513 58.1564H62.2933C62.0826 58.1564 61.9119 57.9856 61.9119 57.775C61.9119 57.5643 62.0826 57.3936 62.2933 57.3936H62.5513C62.762 57.3936 62.9327 57.5643 62.9327 57.775C62.9327 57.9856 62.762 58.1564 62.5513 58.1564Z" fill="white"/>
<path d="M60.537 58.1562C60.3264 58.1562 60.1556 57.9855 60.1556 57.7748V47.524C60.1556 47.3133 60.3264 47.1426 60.537 47.1426C60.7477 47.1426 60.9184 47.3133 60.9184 47.524V57.7748C60.9184 57.9855 60.7476 58.1562 60.537 58.1562Z" fill="white"/>
<path d="M60.5369 54.19C60.4784 54.19 60.4198 54.1677 60.3751 54.123L57.1985 50.9463C57.1091 50.8569 57.1091 50.7121 57.1985 50.6227C57.2879 50.5333 57.4327 50.5333 57.5221 50.6227L60.6988 53.7993C60.7881 53.8887 60.7881 54.0336 60.6988 54.123C60.6541 54.1677 60.5955 54.19 60.5369 54.19Z" fill="white"/>
<path d="M234.433 35.6404L235.341 35.7136L236.664 35.289L237.877 34.171L238.725 32.4931L238.735 30.7926L238.09 29.4425L237.032 28.806L236.249 28.9295L236.016 28.0395L235.069 26.15L233.774 24.5934L232.543 23.6445L230.944 22.9079L229.222 22.5615L228.197 22.723L227.244 23.3366L226.507 24.3484L225.952 25.9186L225.711 28.1186L226.029 30.138L226.215 31.3135L226.788 32.7985L227.616 33.9345L227.86 34.1122L227.408 34.1835L226.233 34.3687L225.811 35.0221L225.823 35.885L225.994 36.9701L226.482 37.9125L227.148 38.6106L228.154 38.9155L228.75 38.976L229.723 38.483L230.419 38.0026L230.545 36.8399L229.957 35.0677L230.794 35.287L232.241 35.0591L233.087 34.7405L233.794 35.3086L234.433 35.6404Z" fill="white"/>
<path d="M228.845 39.1799C229.259 39.1147 229.651 38.9483 229.974 38.6915C230.467 38.2997 230.745 37.7406 230.758 37.1171C230.776 36.2784 230.487 35.5381 229.923 34.9764C229.833 34.8872 229.688 34.8876 229.599 34.9771C229.51 35.0667 229.51 35.2115 229.6 35.3007C230.08 35.7788 230.316 36.3868 230.3 37.1077C230.29 37.5926 230.073 38.0279 229.689 38.3333C229.237 38.6929 228.614 38.8335 228.021 38.7094C227.334 38.5654 226.688 37.9389 226.291 37.0335C225.923 36.1927 225.863 35.3148 226.142 34.849C226.356 34.4894 227.091 34.3263 227.888 34.461C228.013 34.4821 228.131 34.3982 228.152 34.2735C228.173 34.1489 228.089 34.0308 227.964 34.0098C226.957 33.8394 226.066 34.0824 225.749 34.6143C225.392 35.2102 225.441 36.2319 225.872 37.2171C226.328 38.2576 227.096 38.983 227.927 39.1573C228.232 39.2211 228.544 39.2273 228.845 39.1799Z" fill="white"/>
<path d="M232.795 39.94C232.852 39.9309 232.907 39.8997 232.944 39.8486C233.018 39.7464 232.996 39.6033 232.894 39.5289L229.428 37.0068C229.326 36.9325 229.183 36.955 229.108 37.0572C229.034 37.1594 229.057 37.3025 229.159 37.3769L232.624 39.899C232.676 39.9362 232.737 39.9491 232.795 39.94Z" fill="white"/>
<path d="M231.571 35.4085C232.127 35.3209 232.686 35.142 233.228 34.87C233.341 34.8134 233.387 34.6759 233.33 34.5629C233.274 34.4499 233.136 34.4043 233.023 34.4609C231.253 35.3481 229.38 35.1793 228.012 34.0092C226.441 32.6661 225.581 29.215 226.094 26.3161C226.404 24.5707 227.16 23.3913 228.224 22.9949C229.275 22.6034 230.705 22.8691 232.147 23.7239C234.213 24.9479 235.735 27.03 236.026 29.0282C236.044 29.1533 236.16 29.2399 236.285 29.2217C236.286 29.2216 236.287 29.2214 236.288 29.2213C236.411 29.2018 236.497 29.0865 236.479 28.9623C236.169 26.8326 234.561 24.6219 232.381 23.3302C230.819 22.4045 229.245 22.1261 228.064 22.566C226.842 23.0212 225.982 24.3247 225.644 26.2362C225.395 27.6414 225.455 29.298 225.81 30.7811C226.188 32.3602 226.864 33.6302 227.714 34.357C228.781 35.2696 230.168 35.6294 231.571 35.4085Z" fill="white"/>
<path d="M235.486 35.9939C236.051 35.9049 236.599 35.6321 237.116 35.1829C238.444 34.0286 239.136 32.5214 239.013 31.0479C238.933 30.0843 238.504 29.276 237.867 28.8858C237.518 28.6724 237.089 28.6039 236.592 28.6822C235.248 28.894 233.57 30.2012 232.852 31.5961C232.278 32.7086 232.347 33.9872 233.03 34.9328C233.618 35.7468 234.537 36.1435 235.486 35.9939ZM236.663 29.1343C237.05 29.0734 237.374 29.1212 237.628 29.2762C238.134 29.5858 238.49 30.2793 238.557 31.0859C238.668 32.4124 238.033 33.7798 236.816 34.8374C236.365 35.2294 235.894 35.4663 235.415 35.5417C234.639 35.664 233.886 35.3361 233.401 34.6647C232.819 33.8596 232.765 32.7641 233.259 31.8057C233.907 30.5463 235.466 29.3229 236.663 29.1343Z" fill="white"/>
<path d="M231.146 42.4224L231.401 42.3822C231.609 42.3494 231.752 42.1542 231.719 41.9461C231.686 41.738 231.491 41.5959 231.283 41.6287L231.028 41.6689C230.82 41.7016 230.678 41.8969 230.71 42.105C230.743 42.3131 230.938 42.4552 231.146 42.4224Z" fill="white"/>
<path d="M233.136 42.1087C233.344 42.0759 233.486 41.8807 233.454 41.6726L231.858 31.5467C231.825 31.3386 231.63 31.1965 231.422 31.2293C231.214 31.2621 231.072 31.4573 231.105 31.6654L232.7 41.7913C232.733 41.9994 232.928 42.1415 233.136 42.1087Z" fill="white"/>
<path d="M232.519 38.1913C232.577 38.1822 232.631 38.1511 232.668 38.1L235.312 34.4676C235.386 34.3654 235.364 34.2223 235.262 34.1479C235.159 34.0736 235.016 34.0961 234.942 34.1983L232.298 37.8306C232.224 37.9328 232.247 38.0759 232.349 38.1503C232.4 38.1875 232.461 38.2005 232.519 38.1913Z" fill="white"/>
<path fill-rule="evenodd" clip-rule="evenodd" d="M143.02 165H0V33.8503C10.2894 30.6956 21.2002 29 32.5 29C94.6321 29 145 80.2634 145 143.5C145 150.849 144.32 158.036 143.02 165Z" fill="#2CBC67"/>
<path fill-rule="evenodd" clip-rule="evenodd" d="M234.283 165H0V64.5273C19.0272 59.01 39.5714 56 61 56C145.238 56 215.809 102.517 234.283 165Z" fill="white"/>
</svg>
