<svg width="340" height="100" viewBox="0 0 340 100" fill="none" xmlns="http://www.w3.org/2000/svg">
<path d="M88.7928 20C89.8464 21.6857 92.2696 26.1949 93.5338 30.7462C94.7981 35.2976 94.0606 34.7497 93.5338 33.9069" stroke="#2CBC67" stroke-linecap="round" stroke-linejoin="round"/>
<path d="M85 25.0122C86.4866 26.3319 90.0843 29.9735 92.5822 33.9827C95.08 37.9919 94.2178 37.6746 93.4745 37.0148" stroke="#2CBC67" stroke-linecap="round" stroke-linejoin="round"/>
<path d="M18.7081 28.5093L18.1524 28.8531L17.168 29.0149L16.0265 28.698L14.9357 27.9033L14.3726 26.8202L14.3428 25.7464L14.8104 24.9935L15.3515 24.8158L15.209 24.171L15.1951 22.6539L15.5133 21.2353L15.9889 20.2262L16.7692 19.2322L17.7564 18.4471L18.4641 18.2148L19.2741 18.2947L20.0758 18.7001L20.9449 19.5214L21.8186 20.8484L22.2763 22.2428L22.5428 23.0545L22.6623 24.1911L22.5053 25.1878L22.4075 25.3813L22.7197 25.2789L23.5313 25.0124L24.0149 25.2917L24.2895 25.8471L24.5354 26.5963L24.532 27.3583L24.335 28.0224L23.7923 28.5463L23.431 28.7802L22.6483 28.7836L22.046 28.7046L21.5851 28.0029L21.3807 26.6781L20.9173 27.0924L19.9183 27.4204L19.2738 27.4936L19.0079 28.0881L18.7081 28.5093Z" fill="#2CBC67"/>
<path d="M23.3612 35.2297C23.064 35.3588 22.7501 35.4035 22.4551 35.3513C22.005 35.2717 21.6472 34.9761 21.4474 34.5189C21.1786 33.9039 21.1452 33.2306 21.3508 32.5719C21.3835 32.4673 21.4806 32.4055 21.5678 32.4337C21.655 32.4619 21.6992 32.5696 21.6665 32.6742C21.4915 33.2348 21.5199 33.7871 21.751 34.3157C21.9064 34.6713 22.1852 34.9013 22.5361 34.9634C22.9492 35.0364 23.41 34.8735 23.7687 34.5275C24.1847 34.1261 24.4258 33.3839 24.4138 32.542C24.4025 31.7602 24.1737 31.0828 23.8444 30.8565C23.5904 30.6817 23.0484 30.8754 22.5557 31.3171C22.4787 31.3862 22.3739 31.3746 22.3216 31.2911C22.2692 31.2077 22.2893 31.084 22.3663 31.0149C22.989 30.4566 23.6598 30.2552 24.0356 30.5138C24.457 30.8034 24.7378 31.5825 24.7509 32.4985C24.7648 33.466 24.4724 34.3338 23.9689 34.8196C23.7844 34.9976 23.5772 35.136 23.3612 35.2297V35.2297Z" fill="#2CBC67"/>
<path d="M21.0784 37.4707C21.037 37.4887 20.9911 37.4889 20.9505 37.467C20.8696 37.4231 20.8409 37.3075 20.8864 37.2087L22.4313 33.8587C22.4769 33.76 22.5794 33.7154 22.6604 33.7593C22.7413 33.8032 22.77 33.9188 22.7245 34.0176L21.1797 37.3675C21.1569 37.4169 21.1198 37.4527 21.0784 37.4707Z" fill="#2CBC67"/>
<path d="M20.3102 33.247C19.9092 33.4211 19.4786 33.5282 19.03 33.559C18.9366 33.5655 18.8636 33.4827 18.8669 33.3742C18.8702 33.2656 18.9487 33.1724 19.042 33.166C20.5052 33.0654 21.7131 32.1336 22.2731 30.6732C22.9162 28.9967 22.4324 26.0559 21.1949 24.1174C20.4498 22.9504 19.5782 22.3972 18.7408 22.5597C17.9134 22.7203 17.0335 23.5336 16.3266 24.791C15.3143 26.5916 14.9313 28.7975 15.3509 30.411C15.3772 30.512 15.3258 30.6265 15.2361 30.6668C15.2354 30.6671 15.2347 30.6674 15.2341 30.6676C15.145 30.7063 15.0522 30.6571 15.0261 30.5568C14.5788 28.8372 14.9801 26.4983 16.0484 24.5981C16.814 23.2365 17.7864 22.3521 18.7162 22.1715C19.6781 21.9848 20.6573 22.5859 21.4733 23.8641C22.0732 24.8037 22.5422 26.0638 22.7601 27.3213C22.992 28.6601 22.9281 29.8971 22.5802 30.8044C22.1434 31.9433 21.3216 32.808 20.3102 33.247V33.247Z" fill="#2CBC67"/>
<path d="M18.0827 35.3312C17.6779 35.507 17.2276 35.5395 16.7443 35.4278C15.5023 35.1409 14.5783 34.3199 14.2093 33.1752C13.968 32.4266 14.0073 31.644 14.3144 31.0818C14.4824 30.7744 14.7482 30.5401 15.1046 30.3853C16.0686 29.9669 17.5913 30.2174 18.499 30.9437C19.223 31.5229 19.5686 32.4998 19.401 33.4932C19.2568 34.3484 18.7639 35.0355 18.0827 35.3312ZM15.1953 30.751C14.9181 30.8713 14.7157 31.0456 14.5937 31.269C14.35 31.7151 14.3241 32.3815 14.526 33.0081C14.8582 34.0386 15.7013 34.7804 16.8393 35.0433C17.2611 35.1407 17.6489 35.1146 17.9919 34.9656C18.5485 34.724 18.9517 34.1587 19.0708 33.4534C19.2134 32.6076 18.9146 31.7722 18.2909 31.2732C17.4714 30.6175 16.0538 30.3783 15.1953 30.751Z" fill="#2CBC67"/>
<path d="M23.0203 38.7355L22.8391 38.814C22.6911 38.8781 22.5376 38.7951 22.4961 38.6286C22.4547 38.4621 22.5411 38.2752 22.6891 38.2111L22.8704 38.1325C23.0183 38.0684 23.1719 38.1514 23.2133 38.3179C23.2547 38.4845 23.1683 38.6714 23.0203 38.7355Z" fill="#2CBC67"/>
<path d="M21.6181 39.2882C21.4545 39.3554 21.2848 39.2684 21.239 39.0937L19.0108 30.5962C18.965 30.4216 19.0605 30.2255 19.224 30.1583C19.3876 30.0911 19.5574 30.1781 19.6031 30.3527L21.8314 38.8503C21.8772 39.0249 21.7816 39.221 21.6181 39.2882Z" fill="#2CBC67"/>
<path d="M20.7602 35.8892C20.7188 35.9071 20.6729 35.9073 20.6324 35.8854L17.7544 34.3264C17.6734 34.2825 17.6447 34.1668 17.6902 34.068C17.7358 33.9693 17.8384 33.9248 17.9193 33.9686L20.7974 35.5277C20.8783 35.5716 20.907 35.6872 20.8615 35.786C20.8387 35.8354 20.8016 35.8712 20.7602 35.8892Z" fill="#2CBC67"/>
<path d="M296.395 14.8699L295.504 14.6836L294.355 13.902L293.507 12.4864L293.168 10.6372L293.64 9.00332L294.64 7.89081L295.835 7.57955L296.552 7.91962L297.027 7.13186L298.469 5.58713L300.152 4.46055L301.601 3.89837L303.342 3.64407L305.092 3.79904L306.03 4.24375L306.771 5.10196L307.191 6.28071L307.28 7.94398L306.888 10.1222L306.012 11.9691L305.502 13.0442L304.531 14.3063L303.416 15.1618L303.132 15.2632L303.545 15.4594L304.62 15.9695L304.84 16.7156L304.584 17.5398L304.113 18.5322L303.379 19.2981L302.542 19.7794L301.492 19.7874L300.902 19.6767L300.109 18.9288L299.577 18.271L299.785 17.1202L300.85 15.5867L299.985 15.5602L298.662 14.9323L297.941 14.3876L297.102 14.7325L296.395 14.8699Z" fill="#2CBC67"/>
<path d="M300.838 24.0825C300.444 23.844 300.096 23.4991 299.838 23.0794C299.445 22.4389 299.305 21.6938 299.444 20.981C299.63 20.0222 300.096 19.2969 300.792 18.8837C300.902 18.818 301.045 18.876 301.112 19.0131C301.179 19.1502 301.143 19.3145 301.033 19.3801C300.441 19.7318 300.06 20.3281 299.9 21.1522C299.792 21.7065 299.901 22.2868 300.207 22.7861C300.568 23.3739 301.152 23.7814 301.769 23.8761C302.484 23.9857 303.277 23.5318 303.889 22.6619C304.458 21.854 304.731 20.8816 304.568 20.2423C304.443 19.7488 303.755 19.2717 302.932 19.1076C302.804 19.082 302.707 18.9398 302.716 18.79C302.726 18.6402 302.838 18.5396 302.966 18.5652C304.006 18.7724 304.829 19.4021 305.014 20.132C305.223 20.95 304.927 22.0903 304.26 23.0369C303.556 24.0367 302.619 24.5545 301.753 24.4218C301.436 24.373 301.125 24.2559 300.838 24.0825V24.0825Z" fill="#2CBC67"/>
<path d="M296.759 23.591C296.704 23.5578 296.657 23.5009 296.633 23.4282C296.584 23.283 296.641 23.1298 296.76 23.0861L300.798 21.6046C300.917 21.561 301.053 21.6433 301.102 21.7885C301.15 21.9338 301.093 22.0869 300.974 22.1306L296.937 23.6121C296.877 23.6339 296.814 23.6243 296.759 23.591Z" fill="#2CBC67"/>
<path d="M299.444 18.6157C298.913 18.2941 298.401 17.8676 297.928 17.3415C297.829 17.2318 297.817 17.0571 297.901 16.951C297.985 16.8449 298.133 16.8479 298.231 16.9573C299.775 18.6737 301.678 19.2287 303.324 18.4422C305.213 17.5393 306.909 13.9525 307.105 10.4465C307.222 8.33566 306.758 6.6909 305.797 5.81513C304.847 4.94991 303.361 4.6821 301.718 5.08011C299.366 5.64997 297.346 7.41361 296.57 9.5732C296.521 9.70838 296.385 9.76074 296.265 9.69009C296.264 9.68957 296.263 9.68901 296.262 9.68849C296.144 9.61702 296.087 9.45172 296.136 9.3175C296.962 7.01582 299.1 5.14002 301.582 4.5386C303.361 4.10766 304.993 4.41828 306.06 5.39042C307.164 6.39631 307.701 8.22349 307.572 10.5353C307.477 12.2348 307.013 14.097 306.299 15.6443C305.539 17.2919 304.557 18.4683 303.535 18.9569C302.251 19.5704 300.785 19.427 299.444 18.6157V18.6157Z" fill="#2CBC67"/>
<path d="M295.439 18.0738C294.902 17.7488 294.425 17.2219 294.023 16.5075C292.989 14.6716 292.67 12.6887 293.149 11.0672C293.462 10.0068 294.082 9.26086 294.807 9.07178C295.204 8.96836 295.645 9.06096 296.118 9.34704C297.396 10.1207 298.74 12.2687 299.112 14.1352C299.409 15.6238 299.032 17.0458 298.126 17.8463C297.347 18.5355 296.342 18.6205 295.439 18.0738ZM295.938 9.83118C295.57 9.60867 295.237 9.53401 294.949 9.60908C294.373 9.75916 293.853 10.4038 293.591 11.2913C293.16 12.751 293.456 14.553 294.404 16.2351C294.755 16.8584 295.164 17.3141 295.619 17.5895C296.357 18.0362 297.181 17.9635 297.824 17.3951C298.595 16.7136 298.915 15.4935 298.659 14.2111C298.322 12.526 297.076 10.5202 295.938 9.83118Z" fill="#2CBC67"/>
<path d="M297.647 27.1964L297.407 27.051C297.21 26.9323 297.118 26.6572 297.2 26.4364C297.282 26.2156 297.508 26.1328 297.705 26.2515L297.945 26.3969C298.142 26.5156 298.234 26.7908 298.152 27.0115C298.07 27.2323 297.844 27.3151 297.647 27.1964Z" fill="#2CBC67"/>
<path d="M295.849 26.1327C295.637 26.0085 295.537 25.7203 295.626 25.4891L299.947 14.238C300.035 14.0067 300.279 13.9201 300.491 14.0444C300.703 14.1686 300.803 14.4568 300.714 14.688L296.393 25.9391C296.305 26.1704 296.061 26.257 295.849 26.1327Z" fill="#2CBC67"/>
<path d="M297.63 21.7765C297.575 21.7432 297.529 21.6863 297.505 21.6137L295.771 16.451C295.722 16.3058 295.779 16.1526 295.898 16.1089C296.017 16.0653 296.153 16.1476 296.202 16.2928L297.936 21.4555C297.984 21.6007 297.927 21.7539 297.808 21.7976C297.749 21.8194 297.685 21.8097 297.63 21.7765Z" fill="#2CBC67"/>
<path fill-rule="evenodd" clip-rule="evenodd" d="M340 33.953V99.9995H22.2618C41.9696 49.4876 114.742 12 201.5 12C269.852 13.5189 312.898 21.341 340 33.953Z" fill="#2CBC67"/>
<path fill-rule="evenodd" clip-rule="evenodd" d="M340 62.2049V99.9995H167.822C192.527 52.8133 240.528 25.9311 286.178 37.7426C301.195 41.6281 321.136 50.4298 340 62.2049Z" fill="white"/>
<path d="M204.478 43.3821C205.023 44.632 206.213 47.9357 206.612 51.1512C207.011 54.3667 206.566 53.9207 206.294 53.2957" stroke="white" stroke-linecap="round" stroke-linejoin="round"/>
<path d="M201.4 46.4009C202.275 47.4461 204.349 50.2794 205.64 53.2514C206.931 56.2234 206.378 55.9212 205.94 55.3986" stroke="white" stroke-linecap="round" stroke-linejoin="round"/>
<path d="M128.74 57.3821C128.195 58.632 127.006 61.9357 126.606 65.1512C126.207 68.3667 126.652 67.9207 126.925 67.2957" stroke="white" stroke-linecap="round" stroke-linejoin="round"/>
<path d="M131.819 60.4009C130.943 61.4461 128.869 64.2794 127.578 67.2514C126.288 70.2234 126.841 69.9212 127.278 69.3986" stroke="white" stroke-linecap="round" stroke-linejoin="round"/>
<path d="M58.2491 51.9683L57.3643 52.1819L55.9912 51.9683L54.6182 51.053L53.5197 49.5273L53.2451 47.8492L53.6723 46.4151L54.6182 45.6218H55.4115L55.503 44.7064L56.1438 42.6926L57.1812 40.9534L58.2491 39.8244L59.7137 38.848L61.3614 38.2378H62.3988L63.4362 38.6955L64.3211 39.5803L65.1144 41.0449L65.6941 43.1808V45.2251V46.4151L65.3585 47.9712L64.7177 49.2222L64.5042 49.4358H64.9618H66.1518L66.6705 50.0155L66.7926 50.8699V51.9683L66.4569 52.9752L65.9077 53.7686L64.9618 54.2262L64.3821 54.3788L63.3447 54.0432L62.5819 53.677L62.2768 52.5481L62.5819 50.7059L61.7886 51.053H60.324L59.4391 50.8699L58.8289 51.5412L58.2491 51.9683Z" fill="white"/>
<path d="M64.3201 54.5949C63.9011 54.5949 63.4876 54.4916 63.1287 54.2882C62.5811 53.9779 62.2191 53.4689 62.1094 52.855C61.9615 52.0292 62.1317 51.253 62.6015 50.6103C62.6761 50.5083 62.8192 50.4861 62.9213 50.5607C63.0233 50.6352 63.0456 50.7784 62.971 50.8804C62.5711 51.4274 62.4328 52.0647 62.5599 52.7745C62.6453 53.2519 62.9274 53.6481 63.3543 53.8901C63.8569 54.1749 64.4947 54.2167 65.0606 54.002C65.7166 53.7527 66.258 53.0333 66.5085 52.0773C66.7412 51.1894 66.664 50.3129 66.3165 49.8961C66.0484 49.5743 65.2976 49.5274 64.5311 49.7846C64.4113 49.8248 64.2816 49.7603 64.2414 49.6404C64.2011 49.5206 64.2657 49.3909 64.3855 49.3507C65.3543 49.0256 66.2715 49.127 66.6681 49.603C67.1128 50.1362 67.2239 51.153 66.9513 52.1933C66.6633 53.2921 66.0172 54.1282 65.223 54.4298C64.9319 54.5402 64.6246 54.5949 64.3201 54.5949Z" fill="white"/>
<path d="M60.5369 55.9606C60.4784 55.9606 60.4198 55.9382 60.3751 55.8936C60.2858 55.8042 60.2858 55.6593 60.3751 55.5699L63.4058 52.5392C63.4952 52.4498 63.6401 52.4498 63.7295 52.5392C63.8189 52.6286 63.8189 52.7734 63.7295 52.8628L60.6988 55.8936C60.6541 55.9382 60.5955 55.9606 60.5369 55.9606Z" fill="white"/>
<path d="M61.0405 51.2935C60.4773 51.2936 59.8978 51.2038 59.3195 51.0196C59.199 50.9812 59.1326 50.8525 59.1709 50.7321C59.2093 50.6116 59.3382 50.5452 59.4584 50.5835C61.3447 51.1845 63.1691 50.7261 64.3386 49.3573C65.6813 47.7861 65.9938 44.2432 65.0352 41.4595C64.458 39.7836 63.5274 38.7363 62.4148 38.5103C61.3154 38.2871 59.9442 38.7722 58.6524 39.8411C56.8025 41.3717 55.6228 43.6653 55.6469 45.6843C55.6484 45.8107 55.5472 45.9144 55.4208 45.9159C55.4199 45.9159 55.4189 45.9159 55.418 45.9159C55.2929 45.9159 55.1908 45.8152 55.1892 45.6898C55.1635 43.5379 56.4084 41.1037 58.3606 39.4884C59.7595 38.331 61.2705 37.8111 62.5058 38.0617C63.7838 38.3212 64.8358 39.475 65.4679 41.3105C65.9326 42.6598 66.1304 44.3057 66.0108 45.8259C65.8834 47.4446 65.4131 48.8043 64.6865 49.6547C63.7744 50.7222 62.4606 51.2935 61.0405 51.2935Z" fill="white"/>
<path d="M57.2637 52.4816C56.6922 52.4816 56.1082 52.2975 55.5278 51.9342C54.0359 51.0006 53.1183 49.6195 53.0103 48.1448C52.9396 47.1804 53.2372 46.3153 53.8063 45.8306C54.1176 45.5655 54.5304 45.4312 55.0335 45.4312C56.3941 45.4312 58.2551 46.4612 59.182 47.7274C59.9212 48.7372 60.0526 50.0107 59.5249 51.0512C59.0705 51.9469 58.2252 52.4816 57.2637 52.4816ZM55.0335 45.8888C54.6422 45.8888 54.3291 45.9865 54.103 46.1791C53.6513 46.5637 53.4075 47.3041 53.4666 48.1114C53.5639 49.4389 54.4036 50.6909 55.7705 51.5462C56.277 51.8631 56.7794 52.0239 57.2636 52.0239C58.0492 52.0239 58.7419 51.5828 59.1166 50.8441C59.5659 49.9583 59.4495 48.8676 58.8126 47.9977C57.9758 46.8546 56.2452 45.8888 55.0335 45.8888Z" fill="white"/>
<path d="M62.5513 58.1564H62.2933C62.0826 58.1564 61.9119 57.9856 61.9119 57.775C61.9119 57.5643 62.0826 57.3936 62.2933 57.3936H62.5513C62.762 57.3936 62.9327 57.5643 62.9327 57.775C62.9327 57.9856 62.762 58.1564 62.5513 58.1564Z" fill="white"/>
<path d="M60.537 58.1562C60.3264 58.1562 60.1556 57.9855 60.1556 57.7748V47.524C60.1556 47.3133 60.3264 47.1426 60.537 47.1426C60.7477 47.1426 60.9184 47.3133 60.9184 47.524V57.7748C60.9184 57.9855 60.7476 58.1562 60.537 58.1562Z" fill="white"/>
<path d="M60.5369 54.19C60.4784 54.19 60.4198 54.1677 60.3751 54.123L57.1985 50.9463C57.1091 50.8569 57.1091 50.7121 57.1985 50.6227C57.2879 50.5333 57.4327 50.5333 57.5221 50.6227L60.6988 53.7993C60.7881 53.8887 60.7881 54.0336 60.6988 54.123C60.6541 54.1677 60.5955 54.19 60.5369 54.19Z" fill="white"/>
<path d="M234.433 35.6404L235.341 35.7136L236.664 35.289L237.877 34.171L238.725 32.4931L238.735 30.7926L238.09 29.4425L237.032 28.806L236.249 28.9295L236.016 28.0395L235.069 26.15L233.774 24.5934L232.543 23.6445L230.944 22.9079L229.222 22.5615L228.197 22.723L227.244 23.3366L226.507 24.3484L225.952 25.9186L225.711 28.1186L226.029 30.138L226.215 31.3135L226.788 32.7985L227.616 33.9345L227.86 34.1122L227.408 34.1835L226.233 34.3687L225.811 35.0221L225.823 35.885L225.994 36.9701L226.482 37.9125L227.148 38.6106L228.154 38.9155L228.75 38.976L229.723 38.483L230.419 38.0026L230.545 36.8399L229.957 35.0677L230.794 35.287L232.241 35.0591L233.087 34.7405L233.794 35.3086L234.433 35.6404Z" fill="white"/>
<path d="M228.788 47.7061C229.212 47.6125 229.617 47.3988 229.954 47.0798C230.468 46.5931 230.767 45.9148 230.797 45.1695C230.838 44.167 230.563 43.2938 230.002 42.6443C229.913 42.5411 229.765 42.5471 229.672 42.6574C229.578 42.7678 229.574 42.9408 229.664 43.0439C230.141 43.5967 230.365 44.314 230.33 45.1756C230.307 45.7552 230.073 46.2834 229.673 46.6628C229.201 47.1095 228.561 47.3011 227.959 47.1755C227.261 47.0295 226.618 46.3058 226.238 45.2394C225.885 44.2491 225.847 43.2028 226.144 42.6358C226.373 42.1982 227.128 41.9754 227.938 42.106C228.065 42.1264 228.188 42.0217 228.213 41.872C228.238 41.7224 228.155 41.5845 228.028 41.5641C227.004 41.3989 226.088 41.7229 225.749 42.3704C225.369 43.0957 225.391 44.3143 225.804 45.4746C226.241 46.7002 227.006 47.5374 227.851 47.7141C228.16 47.7786 228.479 47.7741 228.788 47.7061V47.7061Z" fill="white"/>
<path d="M232.789 48.6188C232.848 48.6057 232.905 48.5665 232.944 48.5042C233.022 48.3795 233.003 48.2097 232.901 48.1248L229.436 45.249C229.334 45.1642 229.187 45.1966 229.108 45.3212C229.03 45.4459 229.049 45.6157 229.151 45.7005L232.617 48.5764C232.668 48.6187 232.73 48.6318 232.789 48.6188Z" fill="white"/>
<path d="M231.405 43.0269C231.977 42.9008 232.554 42.6653 233.118 42.3188C233.235 42.2466 233.285 42.0802 233.23 41.9471C233.176 41.8139 233.036 41.7645 232.919 41.8366C231.082 42.9667 229.167 42.8359 227.797 41.4866C226.225 39.9377 225.438 35.837 226.043 32.3452C226.407 30.243 227.214 28.8015 228.315 28.2862C229.402 27.7771 230.86 28.0409 232.314 29.0098C234.396 30.3972 235.899 32.8329 236.142 35.2152C236.157 35.3643 236.274 35.4637 236.403 35.4371C236.404 35.4369 236.405 35.4366 236.406 35.4364C236.533 35.4084 236.623 35.2671 236.608 35.119C236.349 32.58 234.761 29.9934 232.564 28.5293C230.989 27.4802 229.385 27.2066 228.163 27.7785C226.898 28.3704 225.982 29.9643 225.583 32.2667C225.29 33.9593 225.307 35.9411 225.63 37.704C225.974 39.581 226.632 41.0763 227.483 41.9145C228.551 42.9669 229.962 43.345 231.405 43.0269V43.0269Z" fill="white"/>
<path d="M235.383 43.8267C235.961 43.6992 236.528 43.3528 237.067 42.7972C238.454 41.3694 239.201 39.5447 239.115 37.7912C239.059 36.6444 238.644 35.6963 238.004 35.2549C237.654 35.0135 237.218 34.9481 236.709 35.0604C235.332 35.3641 233.584 36.9875 232.813 38.6793C232.198 40.0285 232.234 41.5515 232.905 42.6538C233.483 43.6029 234.409 44.0414 235.383 43.8267ZM236.77 35.5971C237.166 35.5098 237.495 35.5545 237.75 35.7298C238.258 36.0801 238.602 36.894 238.649 37.8538C238.726 39.4324 238.041 41.0882 236.77 42.3964C236.3 42.8812 235.812 43.1818 235.322 43.2899C234.527 43.4652 233.768 43.1026 233.291 42.3199C232.719 41.3814 232.693 40.0762 233.223 38.9139C233.919 37.3865 235.543 35.8676 236.77 35.5971Z" fill="white"/>
<path d="M231.135 51.7435L231.394 51.6864C231.606 51.6398 231.756 51.4034 231.728 51.1584C231.7 50.9134 231.506 50.7526 231.294 50.7993L231.035 50.8564C230.823 50.903 230.673 51.1394 230.701 51.3844C230.729 51.6294 230.923 51.7902 231.135 51.7435Z" fill="white"/>
<path d="M233.085 51.3581C233.321 51.3099 233.488 51.0655 233.457 50.8122L231.957 38.4862C231.926 38.2329 231.71 38.0667 231.473 38.1149C231.237 38.1631 231.07 38.4075 231.101 38.6608L232.601 50.9867C232.632 51.24 232.849 51.4063 233.085 51.3581Z" fill="white"/>
<path d="M232.438 46.5855C232.498 46.5725 232.554 46.5332 232.593 46.4709L235.387 42.0395C235.466 41.9148 235.447 41.745 235.345 41.6601C235.242 41.5754 235.096 41.6077 235.017 41.7323L232.223 46.1638C232.145 46.2885 232.164 46.4583 232.266 46.5431C232.317 46.5855 232.379 46.5986 232.438 46.5855Z" fill="white"/>
<path fill-rule="evenodd" clip-rule="evenodd" d="M136.597 100H0V33.8504C10.2894 30.6956 21.2001 29 32.5 29C79.5019 29 119.772 58.3364 136.597 100Z" fill="#2CBC67"/>
<path fill-rule="evenodd" clip-rule="evenodd" d="M190 100H0V64.5274C19.0272 59.0101 39.5714 56 61 56C111.768 56 157.573 72.8959 190 100Z" fill="white"/>
</svg>
