<svg width="83" height="39" viewBox="0 0 83 39" fill="none" xmlns="http://www.w3.org/2000/svg">
<path fill-rule="evenodd" clip-rule="evenodd" d="M9.86713 0H3.01818C1.35129 0 0 1.35129 0 3.01818V29.6788C0 31.3457 1.35129 32.697 3.01818 32.697H9.59627L11.8635 36.9076C12.3022 37.7223 13.1528 38.2303 14.078 38.2303H25.7582C26.6316 38.2303 27.4425 37.7772 27.9002 37.0333L30.5688 32.697H79.9818C81.6487 32.697 83 31.3457 83 29.6788V3.01818C83 1.35129 81.6487 0 79.9818 0H30.2592L27.9002 3.83334C27.4425 4.57719 26.6316 5.0303 25.7582 5.0303H14.078C13.1528 5.0303 12.3022 4.52227 11.8635 3.70758L9.86713 0Z" fill="#9966FF"/>
<path fill-rule="evenodd" clip-rule="evenodd" d="M9.89673 32.1939L12.3064 36.6691C12.6574 37.3208 13.3378 37.7273 14.078 37.7273H25.7582C26.4569 37.7273 27.1056 37.3648 27.4718 36.7697L30.2877 32.1939H79.9818C81.3709 32.1939 82.497 31.0679 82.497 29.6788V3.01818C82.497 1.6291 81.3709 0.50303 79.9818 0.50303H30.5403L28.3286 4.09697C27.7793 4.98959 26.8063 5.53333 25.7582 5.53333H14.078C12.9677 5.53333 11.947 4.92369 11.4206 3.94607L9.56668 0.50303H3.01818C1.6291 0.50303 0.50303 1.6291 0.50303 3.01818V29.6788C0.50303 31.0679 1.6291 32.1939 3.01818 32.1939H9.89673ZM9.86713 0H3.01818C1.35129 0 0 1.35129 0 3.01818V29.6788C0 31.3457 1.35129 32.697 3.01818 32.697H9.59627L11.8635 36.9076C12.3022 37.7223 13.1528 38.2303 14.078 38.2303H25.7582C26.6316 38.2303 27.4425 37.7772 27.9002 37.0333L30.5688 32.697H79.9818C81.6487 32.697 83 31.3457 83 29.6788V3.01818C83 1.35129 81.6487 0 79.9818 0H30.2592L27.9002 3.83334C27.4425 4.57719 26.6316 5.0303 25.7582 5.0303H14.078C13.1528 5.0303 12.3022 4.52227 11.8635 3.70758L9.86713 0Z" fill="#36235B"/>
<path d="M8.09944 14.2459L8.1407 14.9828C8.6123 14.4129 9.23126 14.128 9.99759 14.128C11.3259 14.128 12.0019 14.8885 12.0254 16.4093V20.6242H10.593V16.4919C10.593 16.0871 10.5046 15.7884 10.3277 15.5958C10.1548 15.3993 9.86987 15.3011 9.47295 15.3011C8.89525 15.3011 8.46492 15.5624 8.18197 16.0851V20.6242H6.74951V14.2459H8.09944Z" fill="white"/>
<path d="M16.0578 20.7421C15.15 20.7421 14.4131 20.4572 13.8472 19.8873C13.2852 19.3135 13.0042 18.5511 13.0042 17.6001V17.4233C13.0042 16.7866 13.126 16.2187 13.3697 15.7196C13.6173 15.2166 13.9631 14.8256 14.4072 14.5466C14.8513 14.2675 15.3465 14.128 15.8927 14.128C16.7612 14.128 17.4313 14.4051 17.9029 14.9592C18.3784 15.5133 18.6162 16.2973 18.6162 17.3113V17.889H14.4485C14.4917 18.4156 14.6666 18.8321 14.9731 19.1387C15.2836 19.4452 15.6726 19.5985 16.1403 19.5985C16.7966 19.5985 17.3311 19.3332 17.7437 18.8027L18.5159 19.5395C18.2605 19.9207 17.9186 20.2174 17.4902 20.4296C17.0658 20.6379 16.5883 20.7421 16.0578 20.7421ZM15.8868 15.2775C15.4938 15.2775 15.1755 15.4151 14.9319 15.6902C14.6921 15.9653 14.5389 16.3484 14.472 16.8397H17.2014V16.7336C17.1699 16.2541 17.0422 15.8925 16.8182 15.6489C16.5942 15.4013 16.2837 15.2775 15.8868 15.2775Z" fill="white"/>
<path d="M21.7819 16.3445L22.9963 14.2459H24.5879L22.6367 17.3879L24.6528 20.6242H23.0729L21.7996 18.4431L20.5322 20.6242H18.9406L20.9567 17.3879L19.0113 14.2459H20.5912L21.7819 16.3445Z" fill="white"/>
<path d="M27.1171 12.6956V14.2459H28.243V15.307H27.1171V18.8675C27.1171 19.1112 27.1642 19.288 27.2585 19.398C27.3568 19.5042 27.5297 19.5572 27.7773 19.5572C27.9423 19.5572 28.1094 19.5376 28.2783 19.4983V20.6065C27.9522 20.6969 27.6378 20.7421 27.3352 20.7421C26.2348 20.7421 25.6846 20.1349 25.6846 18.9206V15.307H24.6353V14.2459H25.6846V12.6956H27.1171Z" fill="white"/>
<path d="M34.4861 19.5985C34.8438 19.5985 35.1405 19.4943 35.3763 19.286C35.6121 19.0778 35.7378 18.8203 35.7535 18.5138H37.1035C37.0877 18.9107 36.9639 19.2821 36.7321 19.6279C36.5002 19.9698 36.1858 20.241 35.7889 20.4414C35.392 20.6419 34.9636 20.7421 34.5038 20.7421C33.6117 20.7421 32.9043 20.4532 32.3817 19.8755C31.859 19.2978 31.5976 18.5001 31.5976 17.4822V17.3348C31.5976 16.3641 31.857 15.588 32.3758 15.0064C32.8945 14.4208 33.6019 14.128 34.4979 14.128C35.2564 14.128 35.8734 14.3501 36.3489 14.7941C36.8284 15.2343 37.0799 15.814 37.1035 16.5331H35.7535C35.7378 16.1676 35.6121 15.867 35.3763 15.6312C35.1444 15.3954 34.8477 15.2775 34.4861 15.2775C34.0224 15.2775 33.6648 15.4465 33.4133 15.7845C33.1617 16.1185 33.034 16.6274 33.0301 17.3113V17.5412C33.0301 18.2328 33.1539 18.7496 33.4015 19.0915C33.653 19.4295 34.0145 19.5985 34.4861 19.5985Z" fill="white"/>
<path d="M37.6755 17.3761C37.6755 16.7512 37.7993 16.1893 38.0469 15.6902C38.2945 15.1871 38.6423 14.802 39.0903 14.5348C39.5383 14.2636 40.0531 14.128 40.6347 14.128C41.4954 14.128 42.1929 14.4051 42.7274 14.9592C43.2658 15.5133 43.5566 16.2482 43.5999 17.1639L43.6058 17.4999C43.6058 18.1287 43.4839 18.6907 43.2403 19.1858C43.0005 19.681 42.6547 20.0642 42.2028 20.3353C41.7548 20.6065 41.236 20.7421 40.6465 20.7421C39.7466 20.7421 39.0254 20.4434 38.4831 19.8461C37.9447 19.2448 37.6755 18.445 37.6755 17.4468V17.3761ZM39.108 17.4999C39.108 18.1562 39.2435 18.671 39.5147 19.0443C39.7859 19.4138 40.1631 19.5985 40.6465 19.5985C41.1299 19.5985 41.5052 19.4098 41.7724 19.0326C42.0436 18.6553 42.1792 18.1031 42.1792 17.3761C42.1792 16.7316 42.0397 16.2207 41.7607 15.8434C41.4856 15.4662 41.1103 15.2775 40.6347 15.2775C40.1671 15.2775 39.7957 15.4642 39.5206 15.8375C39.2455 16.2069 39.108 16.7611 39.108 17.4999Z" fill="white"/>
<path d="M48.1509 18.8911C48.1509 18.6356 48.0448 18.4411 47.8326 18.3075C47.6243 18.1739 47.2765 18.056 46.7892 17.9538C46.3019 17.8516 45.8952 17.7219 45.569 17.5647C44.8537 17.2189 44.4961 16.7178 44.4961 16.0615C44.4961 15.5113 44.728 15.0515 45.1917 14.6821C45.6554 14.3127 46.2449 14.128 46.9602 14.128C47.7226 14.128 48.3376 14.3167 48.8053 14.6939C49.2769 15.0712 49.5127 15.5605 49.5127 16.1617H48.0802C48.0802 15.8867 47.978 15.6587 47.7737 15.4779C47.5693 15.2932 47.2982 15.2009 46.9602 15.2009C46.6458 15.2009 46.3884 15.2736 46.188 15.419C45.9915 15.5644 45.8932 15.7589 45.8932 16.0026C45.8932 16.2227 45.9856 16.3936 46.1703 16.5154C46.355 16.6373 46.7283 16.7611 47.2903 16.8868C47.8523 17.0086 48.2924 17.156 48.6107 17.3289C48.933 17.4979 49.1708 17.7023 49.324 17.942C49.4812 18.1817 49.5598 18.4725 49.5598 18.8144C49.5598 19.3882 49.3221 19.8539 48.8465 20.2115C48.371 20.5652 47.7481 20.7421 46.9779 20.7421C46.4552 20.7421 45.9895 20.6478 45.5808 20.4591C45.1721 20.2705 44.8537 20.0111 44.6258 19.681C44.3979 19.3509 44.2839 18.9952 44.2839 18.614H45.6751C45.6947 18.952 45.8225 19.2133 46.0583 19.398C46.2941 19.5788 46.6065 19.6692 46.9956 19.6692C47.3728 19.6692 47.6597 19.5985 47.8562 19.457C48.0527 19.3116 48.1509 19.1229 48.1509 18.8911Z" fill="white"/>
<path d="M52.366 12.6956V14.2459H53.492V15.307H52.366V18.8675C52.366 19.1112 52.4132 19.288 52.5075 19.398C52.6058 19.5042 52.7787 19.5572 53.0263 19.5572C53.1913 19.5572 53.3583 19.5376 53.5273 19.4983V20.6065C53.2011 20.6969 52.8867 20.7421 52.5841 20.7421C51.4838 20.7421 50.9336 20.1349 50.9336 18.9206V15.307H49.8843V14.2459H50.9336V12.6956H52.366Z" fill="white"/>
<path d="M58.214 19.9993C57.7935 20.4945 57.1961 20.7421 56.4219 20.7421C55.7303 20.7421 55.2056 20.5397 54.848 20.1349C54.4943 19.7301 54.3175 19.1446 54.3175 18.3782V14.2459H55.7499V18.3605C55.7499 19.1701 56.0859 19.5749 56.758 19.5749C57.4536 19.5749 57.9232 19.3253 58.1668 18.8262V14.2459H59.5993V20.6242H58.2494L58.214 19.9993Z" fill="white"/>
<path d="M62.1638 14.2459L62.2051 14.912C62.6531 14.3894 63.2661 14.128 64.0443 14.128C64.8971 14.128 65.4807 14.4542 65.795 15.1066C66.2588 14.4542 66.9111 14.128 67.7522 14.128C68.4556 14.128 68.9783 14.3225 69.3202 14.7116C69.666 15.1007 69.8429 15.6744 69.8507 16.4329V20.6242H68.4183V16.4742C68.4183 16.0694 68.3298 15.7727 68.153 15.5841C67.9762 15.3954 67.6834 15.3011 67.2747 15.3011C66.9485 15.3011 66.6812 15.3895 66.473 15.5664C66.2686 15.7393 66.1252 15.9672 66.0426 16.2502L66.0485 20.6242H64.6161V16.427C64.5964 15.6764 64.2133 15.3011 63.4666 15.3011C62.8928 15.3011 62.4861 15.5349 62.2463 16.0026V20.6242H60.8139V14.2459H62.1638Z" fill="white"/>
<path d="M73.889 20.7421C72.9812 20.7421 72.2443 20.4572 71.6784 19.8873C71.1164 19.3135 70.8354 18.5511 70.8354 17.6001V17.4233C70.8354 16.7866 70.9572 16.2187 71.2009 15.7196C71.4485 15.2166 71.7943 14.8256 72.2384 14.5466C72.6825 14.2675 73.1777 14.128 73.7239 14.128C74.5924 14.128 75.2625 14.4051 75.7341 14.9592C76.2096 15.5133 76.4473 16.2973 76.4473 17.3113V17.889H72.2797C72.3229 18.4156 72.4978 18.8321 72.8043 19.1387C73.1148 19.4452 73.5038 19.5985 73.9715 19.5985C74.6278 19.5985 75.1623 19.3332 75.5749 18.8027L76.3471 19.5395C76.0917 19.9207 75.7498 20.2174 75.3214 20.4296C74.897 20.6379 74.4195 20.7421 73.889 20.7421ZM73.718 15.2775C73.325 15.2775 73.0067 15.4151 72.763 15.6902C72.5233 15.9653 72.37 16.3484 72.3032 16.8397H75.0326V16.7336C75.0011 16.2541 74.8734 15.8925 74.6494 15.6489C74.4254 15.4013 74.1149 15.2775 73.718 15.2775Z" fill="white"/>
</svg>
