<svg width="110" height="54" viewBox="0 0 110 54" fill="none" xmlns="http://www.w3.org/2000/svg">
<path fill-rule="evenodd" clip-rule="evenodd" d="M0.551734 14.5319C3.79323 6.28886 20.9279 0 41.5789 0C61.0663 0 77.4225 5.6001 81.9277 13.1579H106.842C108.586 13.1579 110 14.5717 110 16.3158V44.2105C110 45.9546 108.586 47.3684 106.842 47.3684H44.6154L41.8233 51.9055C41.3444 52.6838 40.496 53.1579 39.5821 53.1579H27.3613C26.3932 53.1579 25.5033 52.6263 25.0443 51.7739L22.6721 47.3684H3.1579C1.41384 47.3684 0 45.9546 0 44.2105V17.3684V16.3158C0 15.6539 0.203657 15.0395 0.551734 14.5319Z" fill="#FFBE00"/>
<path fill-rule="evenodd" clip-rule="evenodd" d="M1.01964 14.7803L0.985786 14.8296C0.69589 15.2523 0.526316 15.7635 0.526316 16.3158V44.2105C0.526316 45.6639 1.70452 46.8421 3.1579 46.8421H22.9864L25.5077 51.5244C25.8749 52.2063 26.5868 52.6316 27.3613 52.6316H39.5821C40.3132 52.6316 40.9919 52.2523 41.3751 51.6297L44.3213 46.8421H106.842C108.295 46.8421 109.474 45.6639 109.474 44.2105V16.3158C109.474 14.8624 108.295 13.6842 106.842 13.6842H81.6287L81.4756 13.4274C79.3224 9.81527 74.2596 6.57768 67.2064 4.24446C60.1798 1.92009 51.2759 0.526316 41.5789 0.526316C31.3022 0.526316 21.9174 2.09171 14.7142 4.67034C11.1124 5.95969 8.07009 7.49737 5.73692 9.20821C3.4006 10.9214 1.80339 12.7872 1.04154 14.7246L1.01964 14.7803ZM81.9277 13.1579C77.4225 5.6001 61.0663 0 41.5789 0C20.9279 0 3.79323 6.28886 0.551734 14.5319C0.203657 15.0395 0 15.6539 0 16.3158V44.2105C0 45.9546 1.41384 47.3684 3.1579 47.3684H22.6721L25.0443 51.7739C25.5033 52.6263 26.3932 53.1579 27.3613 53.1579H39.5821C40.496 53.1579 41.3444 52.6838 41.8233 51.9055L44.6154 47.3684H106.842C108.586 47.3684 110 45.9546 110 44.2105V16.3158C110 14.5717 108.586 13.1579 106.842 13.1579H81.9277Z" fill="#A47F16"/>
<path d="M57.2956 23.236C57.3584 23.278 57.4099 23.3349 57.4456 23.4016C57.4813 23.4682 57.5 23.5426 57.5001 23.6182V30.5261C57.5 30.6181 57.4725 30.708 57.4209 30.7841C57.3694 30.8603 57.2962 30.9193 57.2108 30.9535L57.2081 30.9544L57.2026 30.9572L57.1814 30.9655C57.0603 31.0136 56.9384 31.0597 56.8157 31.1036C56.5726 31.1911 56.2345 31.309 55.8514 31.426C55.0998 31.6581 54.1207 31.9077 53.3553 31.9077C52.5752 31.9077 51.9295 31.6498 51.3677 31.4242L51.3419 31.415C50.7579 31.1801 50.2606 30.9867 49.6711 30.9867C49.0264 30.9867 48.1624 31.1985 47.4265 31.426C47.097 31.5287 46.7705 31.6408 46.4474 31.7622V37.434C46.4474 37.5562 46.3989 37.6733 46.3125 37.7597C46.2262 37.846 46.109 37.8946 45.9869 37.8946C45.8648 37.8946 45.7476 37.846 45.6613 37.7597C45.5749 37.6733 45.5264 37.5562 45.5264 37.434V23.6182C45.5264 23.4961 45.5749 23.379 45.6613 23.2926C45.7476 23.2062 45.8648 23.1577 45.9869 23.1577C46.109 23.1577 46.2262 23.2062 46.3125 23.2926C46.3989 23.379 46.4474 23.4961 46.4474 23.6182V23.878C46.6556 23.8052 46.9043 23.7214 47.1751 23.6385C47.9266 23.4082 48.9066 23.1577 49.6711 23.1577C50.4448 23.1577 51.0748 23.4128 51.6247 23.6357L51.6643 23.6523C52.2372 23.8835 52.7364 24.0788 53.3553 24.0788C54.0001 24.0788 54.864 23.8669 55.5999 23.6394C56.0193 23.5085 56.4337 23.3622 56.8424 23.201L56.8599 23.1946L56.8636 23.1927H56.8645" fill="#46C156"/>
<path d="M11.8936 32.6707L12.9545 28.0633H14.4162L12.5967 34.7369H11.3632L9.93226 30.1542L8.52601 34.7369H7.29245L5.4668 28.0633H6.92856L8.00792 32.6213L9.37716 28.0633H10.5059L11.8936 32.6707Z" fill="white"/>
<path d="M16.643 28.7911C17.1323 28.2237 17.7512 27.94 18.4995 27.94C19.9222 27.94 20.6439 28.7521 20.6644 30.3763V34.7369H19.1656V30.4318C19.1656 29.9712 19.0649 29.6464 18.8634 29.4573C18.6661 29.264 18.3741 29.1674 17.9876 29.1674C17.3873 29.1674 16.9391 29.4346 16.643 29.9692V34.7369H15.1443V25.2632H16.643V28.7911Z" fill="white"/>
<path d="M24.8711 34.8602C23.9212 34.8602 23.1503 34.5621 22.5582 33.9659C21.9702 33.3656 21.6762 32.5679 21.6762 31.5728V31.3878C21.6762 30.7217 21.8036 30.1275 22.0586 29.6053C22.3176 29.079 22.6795 28.6698 23.1441 28.3779C23.6087 28.086 24.1268 27.94 24.6984 27.94C25.6071 27.94 26.3082 28.2299 26.8016 28.8096C27.2991 29.3894 27.5479 30.2097 27.5479 31.2706V31.875H23.1873C23.2325 32.426 23.4155 32.8619 23.7362 33.1826C24.061 33.5033 24.4681 33.6637 24.9574 33.6637C25.6441 33.6637 26.2033 33.3861 26.6351 32.831L27.443 33.602C27.1758 34.0008 26.818 34.3113 26.3698 34.5333C25.9258 34.7513 25.4262 34.8602 24.8711 34.8602ZM24.6922 29.1427C24.281 29.1427 23.948 29.2866 23.693 29.5744C23.4422 29.8623 23.2818 30.2632 23.2119 30.7772H26.0676V30.6661C26.0347 30.1645 25.9011 29.7862 25.6667 29.5313C25.4323 29.2722 25.1075 29.1427 24.6922 29.1427Z" fill="white"/>
<path d="M29.8549 28.0633L29.898 28.8343C30.3915 28.2381 31.0391 27.94 31.8409 27.94C33.2307 27.94 33.9379 28.7356 33.9626 30.3269V34.7369H32.4638V30.4133C32.4638 29.9897 32.3713 29.6772 32.1863 29.4758C32.0054 29.2702 31.7073 29.1674 31.292 29.1674C30.6875 29.1674 30.2373 29.4408 29.9412 29.9877V34.7369H28.4425V28.0633H29.8549Z" fill="white"/>
<path d="M69.1578 33.6637C69.5319 33.6637 69.8424 33.5547 70.0891 33.3368C70.3358 33.1189 70.4674 32.8495 70.4838 32.5288H71.8962C71.8798 32.9441 71.7503 33.3327 71.5077 33.6945C71.2651 34.0522 70.9361 34.336 70.5208 34.5457C70.1055 34.7554 69.6573 34.8602 69.1763 34.8602C68.2429 34.8602 67.5027 34.558 66.9559 33.9536C66.409 33.3491 66.1355 32.5144 66.1355 31.4494V31.2953C66.1355 30.2796 66.4069 29.4675 66.9497 28.859C67.4925 28.2463 68.2326 27.94 69.1701 27.94C69.9637 27.94 70.6092 28.1723 71.1068 28.6369C71.6084 29.0975 71.8716 29.704 71.8962 30.4564H70.4838C70.4674 30.074 70.3358 29.7595 70.0891 29.5128C69.8465 29.2661 69.536 29.1427 69.1578 29.1427C68.6726 29.1427 68.2984 29.3195 68.0352 29.6731C67.7721 30.0226 67.6384 30.5551 67.6343 31.2706V31.5111C67.6343 32.2348 67.7638 32.7755 68.0229 33.1332C68.286 33.4869 68.6643 33.6637 69.1578 33.6637Z" fill="white"/>
<path d="M74.3698 34.7369H72.871V25.2632H74.3698V34.7369Z" fill="white"/>
<path d="M77.349 34.7369H75.8503V28.0633H77.349V34.7369ZM75.7578 26.3302C75.7578 26.0999 75.8297 25.9087 75.9736 25.7566C76.1217 25.6045 76.3314 25.5284 76.6027 25.5284C76.8741 25.5284 77.0838 25.6045 77.2318 25.7566C77.3799 25.9087 77.4539 26.0999 77.4539 26.3302C77.4539 26.5564 77.3799 26.7455 77.2318 26.8976C77.0838 27.0457 76.8741 27.1197 76.6027 27.1197C76.3314 27.1197 76.1217 27.0457 75.9736 26.8976C75.8297 26.7455 75.7578 26.5564 75.7578 26.3302Z" fill="white"/>
<path d="M81.4755 33.6637C81.8497 33.6637 82.1601 33.5547 82.4069 33.3368C82.6536 33.1189 82.7851 32.8495 82.8016 32.5288H84.214C84.1976 32.9441 84.068 33.3327 83.8254 33.6945C83.5828 34.0522 83.2539 34.336 82.8386 34.5457C82.4233 34.7554 81.9751 34.8602 81.494 34.8602C80.5606 34.8602 79.8205 34.558 79.2736 33.9536C78.7268 33.3491 78.4533 32.5144 78.4533 31.4494V31.2953C78.4533 30.2796 78.7247 29.4675 79.2675 28.859C79.8102 28.2463 80.5504 27.94 81.4879 27.94C82.2814 27.94 82.927 28.1723 83.4245 28.6369C83.9262 29.0975 84.1893 29.704 84.214 30.4564H82.8016C82.7851 30.074 82.6536 29.7595 82.4069 29.5128C82.1643 29.2661 81.8538 29.1427 81.4755 29.1427C80.9903 29.1427 80.6161 29.3195 80.353 29.6731C80.0898 30.0226 79.9562 30.5551 79.9521 31.2706V31.5111C79.9521 32.2348 80.0816 32.7755 80.3407 33.1332C80.6038 33.4869 80.9821 33.6637 81.4755 33.6637Z" fill="white"/>
<path d="M87.2611 31.875L86.595 32.5596V34.7369H85.0962V25.2632H86.595V30.7278L87.0638 30.1419L88.9079 28.0633H90.7089L88.2295 30.845L90.9741 34.7369H89.241L87.2611 31.875Z" fill="white"/>
<path d="M94.2556 34.8602C93.3058 34.8602 92.5348 34.5621 91.9427 33.9659C91.3547 33.3656 91.0607 32.5679 91.0607 31.5728V31.3878C91.0607 30.7217 91.1882 30.1275 91.4431 29.6053C91.7022 29.079 92.064 28.6698 92.5286 28.3779C92.9933 28.086 93.5114 27.94 94.0829 27.94C94.9916 27.94 95.6927 28.2299 96.1861 28.8096C96.6837 29.3894 96.9324 30.2097 96.9324 31.2706V31.875H92.5718C92.617 32.426 92.8 32.8619 93.1207 33.1826C93.4456 33.5033 93.8527 33.6637 94.342 33.6637C95.0286 33.6637 95.5879 33.3861 96.0196 32.831L96.8276 33.602C96.5603 34.0008 96.2026 34.3113 95.7544 34.5333C95.3103 34.7513 94.8107 34.8602 94.2556 34.8602ZM94.0768 29.1427C93.6656 29.1427 93.3325 29.2866 93.0776 29.5744C92.8268 29.8623 92.6664 30.2632 92.5965 30.7772H95.4522V30.6661C95.4193 30.1645 95.2856 29.7862 95.0513 29.5313C94.8169 29.2722 94.492 29.1427 94.0768 29.1427Z" fill="white"/>
<path d="M97.568 31.3508C97.568 30.3228 97.8064 29.4984 98.2834 28.8775C98.7604 28.2525 99.3998 27.94 100.202 27.94C100.909 27.94 101.48 28.1867 101.916 28.6801V25.2632H103.415V34.7369H102.058L101.984 34.0461C101.536 34.5888 100.938 34.8602 100.189 34.8602C99.408 34.8602 98.7748 34.5457 98.2896 33.9166C97.8085 33.2874 97.568 32.4322 97.568 31.3508ZM99.0667 31.4803C99.0667 32.1587 99.1962 32.6892 99.4553 33.0716C99.7184 33.4499 100.091 33.639 100.572 33.639C101.184 33.639 101.633 33.3656 101.916 32.8187V29.9692C101.641 29.4346 101.197 29.1674 100.584 29.1674C100.099 29.1674 99.7246 29.3606 99.4615 29.7471C99.1983 30.1295 99.0667 30.7073 99.0667 31.4803Z" fill="white"/>
</svg>
