<svg width="170" height="103" viewBox="0 0 170 103" fill="none" xmlns="http://www.w3.org/2000/svg">
<path fill-rule="evenodd" clip-rule="evenodd" d="M9.90385 0H3.02941C1.35631 0 0 1.35631 0 3.02941V29.7892C0 31.4623 1.35631 32.8186 3.02941 32.8186H9.63197L11.9077 37.0449C12.348 37.8626 13.2017 38.3725 14.1304 38.3725H25.854C26.7307 38.3725 27.5446 37.9177 28.004 37.1711L30.6825 32.8186H103C104.673 32.8186 106.029 31.4623 106.029 29.7892V3.02941C106.029 1.35631 104.673 0 103 0H30.3718L28.004 3.8476C27.5446 4.59422 26.7307 5.04902 25.854 5.04902H14.1304C13.2017 5.04902 12.348 4.53909 11.9077 3.72138L9.90385 0Z" fill="#4B97F9"/>
<path fill-rule="evenodd" clip-rule="evenodd" d="M9.93355 32.3137L12.3522 36.8055C12.7045 37.4597 13.3874 37.8676 14.1304 37.8676H25.854C26.5554 37.8676 27.2065 37.5038 27.574 36.9065L30.4004 32.3137H103C104.394 32.3137 105.525 31.1835 105.525 29.7892V3.02941C105.525 1.63516 104.394 0.504902 103 0.504902H30.6539L28.434 4.11222C27.8827 5.00816 26.906 5.55392 25.854 5.55392H14.1304C13.016 5.55392 11.9915 4.94201 11.4631 3.96075L9.60227 0.504902H3.02941C1.63516 0.504902 0.504902 1.63516 0.504902 3.02941V29.7892C0.504902 31.1835 1.63516 32.3137 3.02941 32.3137H9.93355ZM9.90385 0H3.02941C1.35631 0 0 1.35631 0 3.02941V29.7892C0 31.4623 1.35631 32.8186 3.02941 32.8186H9.63197L11.9077 37.0449C12.348 37.8626 13.2017 38.3725 14.1304 38.3725H25.854C26.7307 38.3725 27.5446 37.9177 28.004 37.1711L30.6825 32.8186H103C104.673 32.8186 106.029 31.4623 106.029 29.7892V3.02941C106.029 1.35631 104.673 0 103 0H30.3718L28.004 3.8476C27.5446 4.59422 26.7307 5.04902 25.854 5.04902H14.1304C13.2017 5.04902 12.348 4.53909 11.9077 3.72138L9.90385 0Z" fill="#0550B0"/>
<path d="M8.14743 14.2988L8.18885 14.9674C8.63853 14.4428 9.25388 14.1805 10.0349 14.1805C10.8909 14.1805 11.4766 14.5079 11.7922 15.1627C12.2576 14.5079 12.9124 14.1805 13.7566 14.1805C14.4627 14.1805 14.9873 14.3757 15.3305 14.7662C15.6776 15.1567 15.8551 15.7326 15.863 16.4939V20.7008H14.4252V16.5354C14.4252 16.1291 14.3364 15.8313 14.1589 15.6419C13.9814 15.4526 13.6875 15.3579 13.2773 15.3579C12.9499 15.3579 12.6817 15.4467 12.4726 15.6242C12.2675 15.7977 12.1235 16.0265 12.0407 16.3105L12.0466 20.7008H10.6088V16.488C10.5891 15.7346 10.2045 15.3579 9.45505 15.3579C8.87915 15.3579 8.47088 15.5926 8.23027 16.062V20.7008H6.79248V14.2988H8.14743Z" fill="white"/>
<path d="M16.8276 17.4406C16.8276 16.8134 16.9519 16.2494 17.2004 15.7484C17.4489 15.2435 17.798 14.857 18.2477 14.5887C18.6974 14.3165 19.2141 14.1805 19.7979 14.1805C20.6617 14.1805 21.3619 14.4586 21.8984 15.0147C22.4388 15.5709 22.7307 16.3085 22.774 17.2276L22.78 17.5649C22.78 18.196 22.6577 18.7601 22.4131 19.2571C22.1725 19.7541 21.8254 20.1387 21.3718 20.4109C20.9221 20.683 20.4014 20.8191 19.8097 20.8191C18.9064 20.8191 18.1826 20.5193 17.6382 19.9198C17.0978 19.3163 16.8276 18.5135 16.8276 17.5116V17.4406ZM18.2654 17.5649C18.2654 18.2236 18.4015 18.7404 18.6737 19.1151C18.9459 19.4859 19.3245 19.6713 19.8097 19.6713C20.2949 19.6713 20.6716 19.4819 20.9398 19.1033C21.212 18.7246 21.3481 18.1704 21.3481 17.4406C21.3481 16.7937 21.2081 16.2809 20.928 15.9023C20.6519 15.5236 20.2752 15.3342 19.7979 15.3342C19.3285 15.3342 18.9557 15.5216 18.6796 15.8963C18.4035 16.2671 18.2654 16.8233 18.2654 17.5649Z" fill="white"/>
<path d="M25.9161 18.8784L27.2711 14.2988H28.7562L26.5374 20.7008H25.2889L23.0524 14.2988H24.5434L25.9161 18.8784Z" fill="white"/>
<path d="M32.1527 20.8191C31.2415 20.8191 30.5019 20.5332 29.9339 19.9612C29.3698 19.3853 29.0878 18.62 29.0878 17.6655V17.488C29.0878 16.8489 29.21 16.279 29.4546 15.778C29.7031 15.2731 30.0502 14.8806 30.496 14.6006C30.9417 14.3205 31.4387 14.1805 31.987 14.1805C32.8588 14.1805 33.5313 14.4586 34.0046 15.0147C34.4819 15.5709 34.7206 16.3579 34.7206 17.3755V17.9554H30.5374C30.5808 18.484 30.7563 18.9021 31.064 19.2098C31.3756 19.5174 31.7661 19.6713 32.2355 19.6713C32.8943 19.6713 33.4307 19.405 33.8449 18.8725L34.62 19.6121C34.3636 19.9947 34.0204 20.2925 33.5905 20.5055C33.1645 20.7146 32.6852 20.8191 32.1527 20.8191ZM31.9811 15.3342C31.5866 15.3342 31.2671 15.4723 31.0226 15.7484C30.782 16.0245 30.6281 16.4091 30.5611 16.9022H33.3005V16.7957C33.269 16.3145 33.1408 15.9516 32.916 15.707C32.6911 15.4585 32.3795 15.3342 31.9811 15.3342Z" fill="white"/>
<path d="M75.0114 18.9613C75.0114 18.7049 74.9049 18.5096 74.6919 18.3755C74.4829 18.2414 74.1338 18.123 73.6447 18.0205C73.1555 17.9179 72.7473 17.7878 72.4199 17.63C71.702 17.2828 71.343 16.7799 71.343 16.1212C71.343 15.5689 71.5757 15.1074 72.0412 14.7366C72.5067 14.3659 73.0983 14.1805 73.8162 14.1805C74.5815 14.1805 75.1988 14.3698 75.6682 14.7485C76.1416 15.1272 76.3782 15.6183 76.3782 16.2218H74.9404C74.9404 15.9456 74.8379 15.7169 74.6328 15.5354C74.4276 15.35 74.1555 15.2573 73.8162 15.2573C73.5007 15.2573 73.2423 15.3303 73.0411 15.4762C72.8439 15.6222 72.7453 15.8174 72.7453 16.062C72.7453 16.2829 72.838 16.4545 73.0234 16.5768C73.2088 16.6991 73.5835 16.8233 74.1476 16.9495C74.7117 17.0718 75.1534 17.2197 75.473 17.3933C75.7964 17.5629 76.035 17.768 76.1889 18.0086C76.3467 18.2493 76.4256 18.5412 76.4256 18.8843C76.4256 19.4602 76.1869 19.9277 75.7096 20.2866C75.2323 20.6416 74.6071 20.8191 73.834 20.8191C73.3094 20.8191 72.8419 20.7245 72.4317 20.5351C72.0215 20.3458 71.702 20.0854 71.4732 19.7541C71.2444 19.4228 71.13 19.0658 71.13 18.6832H72.5264C72.5461 19.0224 72.6743 19.2847 72.911 19.4701C73.1476 19.6515 73.4612 19.7423 73.8517 19.7423C74.2304 19.7423 74.5184 19.6713 74.7156 19.5293C74.9128 19.3833 75.0114 19.194 75.0114 18.9613Z" fill="white"/>
<path d="M79.2422 12.7427V14.2988H80.3723V15.3638H79.2422V18.9376C79.2422 19.1821 79.2895 19.3597 79.3842 19.4701C79.4828 19.5766 79.6564 19.6299 79.9049 19.6299C80.0706 19.6299 80.2382 19.6101 80.4078 19.5707V20.683C80.0804 20.7738 79.7649 20.8191 79.4611 20.8191C78.3567 20.8191 77.8044 20.2097 77.8044 18.9908V15.3638H76.7512V14.2988H77.8044V12.7427H79.2422Z" fill="white"/>
<path d="M84.0528 20.8191C83.1416 20.8191 82.402 20.5332 81.834 19.9612C81.2699 19.3853 80.9879 18.62 80.9879 17.6655V17.488C80.9879 16.8489 81.1102 16.279 81.3547 15.778C81.6033 15.2731 81.9504 14.8806 82.3961 14.6006C82.8418 14.3205 83.3389 14.1805 83.8871 14.1805C84.7589 14.1805 85.4314 14.4586 85.9048 15.0147C86.3821 15.5709 86.6207 16.3579 86.6207 17.3755V17.9554H82.4375C82.4809 18.484 82.6564 18.9021 82.9641 19.2098C83.2757 19.5174 83.6663 19.6713 84.1357 19.6713C84.7944 19.6713 85.3309 19.405 85.745 18.8725L86.5201 19.6121C86.2637 19.9947 85.9206 20.2925 85.4906 20.5055C85.0646 20.7146 84.5853 20.8191 84.0528 20.8191ZM83.8812 15.3342C83.4868 15.3342 83.1673 15.4723 82.9227 15.7484C82.6821 16.0245 82.5282 16.4091 82.4612 16.9022H85.2007V16.7957C85.1691 16.3145 85.0409 15.9516 84.8161 15.707C84.5912 15.4585 84.2796 15.3342 83.8812 15.3342Z" fill="white"/>
<path d="M93.1058 17.5649C93.1058 18.555 92.8809 19.3458 92.4313 19.9375C91.9816 20.5253 91.3781 20.8191 90.6207 20.8191C89.9186 20.8191 89.3565 20.5884 88.9344 20.1269V23.1622H87.4966V14.2988H88.822L88.8812 14.9496C89.3032 14.4369 89.8772 14.1805 90.603 14.1805C91.384 14.1805 91.9954 14.4724 92.4372 15.0562C92.8829 15.636 93.1058 16.4427 93.1058 17.4761V17.5649ZM91.6739 17.4406C91.6739 16.8016 91.5457 16.2947 91.2893 15.92C91.0369 15.5453 90.674 15.3579 90.2006 15.3579C89.6129 15.3579 89.1908 15.6005 88.9344 16.0857V18.9258C89.1948 19.4228 89.6208 19.6713 90.2125 19.6713C90.67 19.6713 91.027 19.4879 91.2834 19.121C91.5437 18.7502 91.6739 18.1901 91.6739 17.4406Z" fill="white"/>
<path d="M97.6738 18.9613C97.6738 18.7049 97.5673 18.5096 97.3543 18.3755C97.1452 18.2414 96.7961 18.123 96.307 18.0205C95.8179 17.9179 95.4096 17.7878 95.0822 17.63C94.3643 17.2828 94.0054 16.7799 94.0054 16.1212C94.0054 15.5689 94.2381 15.1074 94.7036 14.7366C95.169 14.3659 95.7607 14.1805 96.4786 14.1805C97.2439 14.1805 97.8612 14.3698 98.3306 14.7485C98.8039 15.1272 99.0406 15.6183 99.0406 16.2218H97.6028C97.6028 15.9456 97.5002 15.7169 97.2951 15.5354C97.09 15.35 96.8178 15.2573 96.4786 15.2573C96.163 15.2573 95.9047 15.3303 95.7035 15.4762C95.5063 15.6222 95.4077 15.8174 95.4077 16.062C95.4077 16.2829 95.5004 16.4545 95.6858 16.5768C95.8711 16.6991 96.2459 16.8233 96.81 16.9495C97.374 17.0718 97.8158 17.2197 98.1353 17.3933C98.4588 17.5629 98.6974 17.768 98.8513 18.0086C99.009 18.2493 99.0879 18.5412 99.0879 18.8843C99.0879 19.4602 98.8493 19.9277 98.372 20.2866C97.8947 20.6416 97.2695 20.8191 96.4964 20.8191C95.9717 20.8191 95.5043 20.7245 95.0941 20.5351C94.6838 20.3458 94.3643 20.0854 94.1355 19.7541C93.9068 19.4228 93.7924 19.0658 93.7924 18.6832H95.1887C95.2085 19.0224 95.3367 19.2847 95.5733 19.4701C95.81 19.6515 96.1236 19.7423 96.5141 19.7423C96.8928 19.7423 97.1807 19.6713 97.378 19.5293C97.5752 19.3833 97.6738 19.194 97.6738 18.9613Z" fill="white"/>
<path d="M42.4116 15.6521C42.4116 11.4694 45.8024 8.07861 49.9851 8.07861H56.5489C60.7316 8.07861 64.1224 11.4694 64.1224 15.6521V17.6718C64.1224 21.8545 60.7316 25.2453 56.5489 25.2453H49.9851C45.8024 25.2453 42.4116 21.8545 42.4116 17.6718V15.6521Z" fill="white"/>
<path fill-rule="evenodd" clip-rule="evenodd" d="M56.5489 8.58352H49.9851C46.0813 8.58352 42.9165 11.7482 42.9165 15.6521V17.6718C42.9165 21.5756 46.0813 24.7404 49.9851 24.7404H56.5489C60.4528 24.7404 63.6175 21.5756 63.6175 17.6718V15.6521C63.6175 11.7482 60.4528 8.58352 56.5489 8.58352ZM49.9851 8.07861C45.8024 8.07861 42.4116 11.4694 42.4116 15.6521V17.6718C42.4116 21.8545 45.8024 25.2453 49.9851 25.2453H56.5489C60.7316 25.2453 64.1224 21.8545 64.1224 17.6718V15.6521C64.1224 11.4694 60.7316 8.07861 56.5489 8.07861H49.9851Z" fill="#0550B0"/>
<path d="M50.2597 20.701H49.1591V13.4056L46.9521 14.2162V13.2221L50.0881 12.0447H50.2597V20.701Z" fill="#504C5C"/>
<path d="M58.8686 17.0267C58.8686 18.3086 58.6497 19.2612 58.2119 19.8845C57.774 20.5077 57.0896 20.8193 56.1587 20.8193C55.2396 20.8193 54.5592 20.5156 54.1174 19.9081C53.6756 19.2967 53.4468 18.3856 53.4311 17.1746V15.7131C53.4311 14.4469 53.65 13.5061 54.0878 12.8908C54.5257 12.2754 55.212 11.9678 56.1469 11.9678C57.0739 11.9678 57.7563 12.2656 58.1941 12.8612C58.632 13.4529 58.8568 14.368 58.8686 15.6066V17.0267ZM57.774 15.5297C57.774 14.6027 57.6438 13.9282 57.3835 13.5061C57.1232 13.0801 56.711 12.8671 56.1469 12.8671C55.5868 12.8671 55.1785 13.0782 54.9221 13.5002C54.6657 13.9223 54.5336 14.5712 54.5257 15.4469V17.1982C54.5257 18.1292 54.6598 18.8175 54.928 19.2632C55.2002 19.705 55.6104 19.9259 56.1587 19.9259C56.6991 19.9259 57.0995 19.7168 57.3598 19.2987C57.6241 18.8806 57.7622 18.2219 57.774 17.3225V15.5297Z" fill="#504C5C"/>
<path fill-rule="evenodd" clip-rule="evenodd" d="M9.90385 32.314H3.02941C1.35631 32.314 0 33.6703 0 35.3434V62.1032C0 63.7763 1.35631 65.1326 3.02941 65.1326H9.63197L11.9077 69.3589C12.348 70.1766 13.2017 70.6865 14.1304 70.6865H25.854C26.7307 70.6865 27.5446 70.2317 28.004 69.4851L30.6825 65.1326H103C104.673 65.1326 106.029 63.7763 106.029 62.1032V35.3434C106.029 33.6703 104.673 32.314 103 32.314H30.3718L28.004 36.1616C27.5446 36.9082 26.7307 37.363 25.854 37.363H14.1304C13.2017 37.363 12.348 36.8531 11.9077 36.0353L9.90385 32.314Z" fill="#4B97F9"/>
<path fill-rule="evenodd" clip-rule="evenodd" d="M9.93355 64.6277L12.3522 69.1195C12.7045 69.7737 13.3874 70.1816 14.1304 70.1816H25.854C26.5554 70.1816 27.2065 69.8178 27.574 69.2205L30.4004 64.6277H103C104.394 64.6277 105.525 63.4974 105.525 62.1032V35.3434C105.525 33.9491 104.394 32.8189 103 32.8189H30.6539L28.434 36.4262C27.8827 37.3221 26.906 37.8679 25.854 37.8679H14.1304C13.016 37.8679 11.9915 37.256 11.4631 36.2747L9.60227 32.8189H3.02941C1.63516 32.8189 0.504902 33.9491 0.504902 35.3434V62.1032C0.504902 63.4974 1.63516 64.6277 3.02941 64.6277H9.93355ZM9.90385 32.314H3.02941C1.35631 32.314 0 33.6703 0 35.3434V62.1032C0 63.7763 1.35631 65.1326 3.02941 65.1326H9.63197L11.9077 69.3589C12.348 70.1766 13.2017 70.6865 14.1304 70.6865H25.854C26.7307 70.6865 27.5446 70.2317 28.004 69.4851L30.6825 65.1326H103C104.673 65.1326 106.029 63.7763 106.029 62.1032V35.3434C106.029 33.6703 104.673 32.314 103 32.314H30.3718L28.004 36.1616C27.5446 36.9082 26.7307 37.363 25.854 37.363H14.1304C13.2017 37.363 12.348 36.8531 11.9077 36.0353L9.90385 32.314Z" fill="#0550B0"/>
<path d="M8.32488 53.0147H6.88709V46.6127H8.32488V53.0147ZM6.79834 44.9501C6.79834 44.7292 6.86737 44.5458 7.00543 44.3998C7.14743 44.2539 7.3486 44.1809 7.60894 44.1809C7.86928 44.1809 8.07046 44.2539 8.21246 44.3998C8.35446 44.5458 8.42547 44.7292 8.42547 44.9501C8.42547 45.1671 8.35446 45.3485 8.21246 45.4945C8.07046 45.6365 7.86928 45.7075 7.60894 45.7075C7.3486 45.7075 7.14743 45.6365 7.00543 45.4945C6.86737 45.3485 6.79834 45.1671 6.79834 44.9501Z" fill="white"/>
<path d="M10.1593 53.0147V47.6778H9.18305V46.6127H10.1593V46.027C10.1593 45.317 10.3566 44.7687 10.751 44.3821C11.1455 43.9955 11.6977 43.8022 12.4077 43.8022C12.6602 43.8022 12.9284 43.8377 13.2124 43.9087L13.1769 45.0329C13.0191 45.0014 12.8357 44.9856 12.6266 44.9856C11.9403 44.9856 11.5971 45.3386 11.5971 46.0447V46.6127H12.8988V47.6778H11.5971V53.0147H10.1593Z" fill="white"/>
<path d="M16.2127 49.7546C16.2127 49.1274 16.337 48.5633 16.5855 48.0624C16.834 47.5575 17.1831 47.1709 17.6327 46.9027C18.0824 46.6305 18.5992 46.4944 19.183 46.4944C20.0468 46.4944 20.747 46.7725 21.2834 47.3287C21.8238 47.8849 22.1157 48.6225 22.1591 49.5416L22.165 49.8788C22.165 50.5099 22.0427 51.074 21.7982 51.571C21.5576 52.068 21.2105 52.4526 20.7568 52.7248C20.3071 52.997 19.7865 53.1331 19.1948 53.1331C18.2915 53.1331 17.5677 52.8333 17.0233 52.2337C16.4829 51.6302 16.2127 50.8275 16.2127 49.8256V49.7546ZM17.6505 49.8788C17.6505 50.5376 17.7866 51.0543 18.0588 51.429C18.3309 51.7998 18.7096 51.9852 19.1948 51.9852C19.68 51.9852 20.0567 51.7959 20.3249 51.4172C20.5971 51.0385 20.7332 50.4843 20.7332 49.7546C20.7332 49.1077 20.5931 48.5949 20.3131 48.2162C20.0369 47.8375 19.6602 47.6482 19.183 47.6482C18.7136 47.6482 18.3408 47.8355 18.0647 48.2103C17.7886 48.5811 17.6505 49.1372 17.6505 49.8788Z" fill="white"/>
<path d="M24.4728 46.6127L24.5142 47.3523C24.9876 46.7804 25.6089 46.4944 26.378 46.4944C27.7113 46.4944 28.3898 47.2577 28.4134 48.7842V53.0147H26.9756V48.867C26.9756 48.4608 26.8869 48.161 26.7094 47.9677C26.5358 47.7705 26.2498 47.6718 25.8514 47.6718C25.2716 47.6718 24.8397 47.9342 24.5557 48.4588V53.0147H23.1179V46.6127H24.4728Z" fill="white"/>
<path d="M35.236 53.1331C34.3248 53.1331 33.5852 52.8471 33.0172 52.2751C32.4531 51.6992 32.1711 50.934 32.1711 49.9794V49.8019C32.1711 49.1629 32.2934 48.5929 32.5379 48.0919C32.7864 47.587 33.1336 47.1946 33.5793 46.9145C34.025 46.6344 34.522 46.4944 35.0703 46.4944C35.9421 46.4944 36.6146 46.7725 37.088 47.3287C37.5652 47.8849 37.8039 48.6718 37.8039 49.6895V50.2693H33.6207C33.6641 50.7979 33.8396 51.216 34.1473 51.5237C34.4589 51.8314 34.8494 51.9852 35.3188 51.9852C35.9776 51.9852 36.514 51.719 36.9282 51.1864L37.7033 51.926C37.4469 52.3087 37.1037 52.6065 36.6738 52.8195C36.2478 53.0285 35.7685 53.1331 35.236 53.1331ZM35.0644 47.6482C34.67 47.6482 34.3504 47.7862 34.1059 48.0624C33.8653 48.3385 33.7114 48.7231 33.6444 49.2161H36.3839V49.1096C36.3523 48.6284 36.2241 48.2655 35.9993 48.0209C35.7744 47.7724 35.4628 47.6482 35.0644 47.6482Z" fill="white"/>
<path d="M38.4136 49.7664C38.4136 48.7803 38.6423 47.9894 39.0999 47.3938C39.5575 46.7942 40.1709 46.4944 40.94 46.4944C41.6185 46.4944 42.1668 46.7311 42.5849 47.2044V43.9265H44.0227V53.0147H42.721L42.65 52.3521C42.2201 52.8727 41.6461 53.1331 40.9282 53.1331C40.1787 53.1331 39.5713 52.8313 39.1058 52.2278C38.6443 51.6243 38.4136 50.8038 38.4136 49.7664ZM39.8514 49.8907C39.8514 50.5415 39.9756 51.0504 40.2241 51.4172C40.4766 51.7801 40.8335 51.9615 41.2951 51.9615C41.8828 51.9615 42.3127 51.6992 42.5849 51.1746V48.441C42.3206 47.9282 41.8946 47.6718 41.3069 47.6718C40.8414 47.6718 40.4825 47.8572 40.23 48.228C39.9776 48.5949 39.8514 49.1491 39.8514 49.8907Z" fill="white"/>
<path d="M45.0288 49.7664C45.0288 48.7724 45.2615 47.9795 45.727 47.3878C46.1964 46.7922 46.8177 46.4944 47.5908 46.4944C48.3205 46.4944 48.8945 46.7488 49.3126 47.2577L49.3777 46.6127H50.6735V52.8195C50.6735 53.6597 50.4111 54.3224 49.8865 54.8075C49.3658 55.2927 48.6617 55.5353 47.7742 55.5353C47.3048 55.5353 46.8453 55.4367 46.3956 55.2395C45.9499 55.0462 45.6106 54.7918 45.3779 54.4762L46.0583 53.6123C46.5001 54.137 47.0445 54.3993 47.6914 54.3993C48.1687 54.3993 48.5454 54.2691 48.8215 54.0088C49.0976 53.7524 49.2357 53.3737 49.2357 52.8727V52.4408C48.8215 52.9023 48.2693 53.1331 47.579 53.1331C46.8295 53.1331 46.2161 52.8353 45.7388 52.2396C45.2655 51.644 45.0288 50.8196 45.0288 49.7664ZM46.4607 49.8907C46.4607 50.5336 46.5908 51.0405 46.8512 51.4113C47.1155 51.7781 47.4803 51.9615 47.9458 51.9615C48.5256 51.9615 48.9556 51.713 49.2357 51.216V48.3996C48.9635 47.9144 48.5375 47.6718 47.9576 47.6718C47.4843 47.6718 47.1155 47.8592 46.8512 48.2339C46.5908 48.6087 46.4607 49.1609 46.4607 49.8907Z" fill="white"/>
<path d="M54.7326 53.1331C53.8214 53.1331 53.0818 52.8471 52.5138 52.2751C51.9497 51.6992 51.6677 50.934 51.6677 49.9794V49.8019C51.6677 49.1629 51.79 48.5929 52.0346 48.0919C52.2831 47.587 52.6302 47.1946 53.0759 46.9145C53.5217 46.6344 54.0187 46.4944 54.567 46.4944C55.4387 46.4944 56.1112 46.7725 56.5846 47.3287C57.0619 47.8849 57.3005 48.6718 57.3005 49.6895V50.2693H53.1173C53.1607 50.7979 53.3363 51.216 53.6439 51.5237C53.9556 51.8314 54.3461 51.9852 54.8155 51.9852C55.4742 51.9852 56.0107 51.719 56.4248 51.1864L57.1999 51.926C56.9435 52.3087 56.6004 52.6065 56.1704 52.8195C55.7444 53.0285 55.2651 53.1331 54.7326 53.1331ZM54.561 47.6482C54.1666 47.6482 53.8471 47.7862 53.6025 48.0624C53.3619 48.3385 53.2081 48.7231 53.141 49.2161H55.8805V49.1096C55.8489 48.6284 55.7207 48.2655 55.4959 48.0209C55.2711 47.7724 54.9594 47.6482 54.561 47.6482Z" fill="white"/>
<path d="M58.3835 54.9555L57.6084 54.4939C57.8372 54.135 57.993 53.8214 58.0759 53.5532C58.1626 53.2889 58.208 53.0187 58.212 52.7426V51.6243H59.5077L59.5018 52.6597C59.4979 53.0778 59.3914 53.496 59.1823 53.9141C58.9772 54.3362 58.7109 54.6833 58.3835 54.9555Z" fill="white"/>
<path d="M68.9929 49.8788C68.9929 50.8728 68.77 51.6637 68.3243 52.2515C67.8825 52.8392 67.273 53.1331 66.496 53.1331C65.7465 53.1331 65.1627 52.8629 64.7446 52.3225L64.6736 53.0147H63.3719V43.9265H64.8097V47.2281C65.2239 46.739 65.782 46.4944 66.4841 46.4944C67.2652 46.4944 67.8785 46.7843 68.3243 47.3642C68.77 47.944 68.9929 48.7546 68.9929 49.796V49.8788ZM67.5551 49.7546C67.5551 49.0603 67.4328 48.5396 67.1882 48.1925C66.9437 47.8454 66.5887 47.6718 66.1232 47.6718C65.5 47.6718 65.0621 47.944 64.8097 48.4884V51.1273C65.0661 51.6835 65.5079 51.9615 66.135 51.9615C66.5847 51.9615 66.9318 51.7939 67.1764 51.4586C67.421 51.1233 67.5472 50.6165 67.5551 49.938V49.7546Z" fill="white"/>
<path d="M69.6913 49.7546C69.6913 49.1274 69.8155 48.5633 70.0641 48.0624C70.3126 47.5575 70.6617 47.1709 71.1113 46.9027C71.561 46.6305 72.0777 46.4944 72.6615 46.4944C73.5254 46.4944 74.2256 46.7725 74.762 47.3287C75.3024 47.8849 75.5943 48.6225 75.6377 49.5416L75.6436 49.8788C75.6436 50.5099 75.5213 51.074 75.2768 51.571C75.0362 52.068 74.689 52.4526 74.2354 52.7248C73.7857 52.997 73.2651 53.1331 72.6734 53.1331C71.7701 53.1331 71.0462 52.8333 70.5019 52.2337C69.9615 51.6302 69.6913 50.8275 69.6913 49.8256V49.7546ZM71.1291 49.8788C71.1291 50.5376 71.2652 51.0543 71.5373 51.429C71.8095 51.7998 72.1882 51.9852 72.6734 51.9852C73.1586 51.9852 73.5353 51.7959 73.8035 51.4172C74.0757 51.0385 74.2117 50.4843 74.2117 49.7546C74.2117 49.1077 74.0717 48.5949 73.7917 48.2162C73.5155 47.8375 73.1388 47.6482 72.6615 47.6482C72.1921 47.6482 71.8194 47.8355 71.5433 48.2103C71.2671 48.5811 71.1291 49.1372 71.1291 49.8788Z" fill="white"/>
<path d="M80.4956 52.3876C80.0736 52.8846 79.474 53.1331 78.6969 53.1331C78.0027 53.1331 77.4761 52.9299 77.1171 52.5236C76.7621 52.1174 76.5846 51.5296 76.5846 50.7604V46.6127H78.0224V50.7427C78.0224 51.5553 78.3597 51.9615 79.0342 51.9615C79.7324 51.9615 80.2037 51.7111 80.4483 51.2101V46.6127H81.8861V53.0147H80.5311L80.4956 52.3876Z" fill="white"/>
<path d="M84.4424 46.6127L84.4838 47.3523C84.9572 46.7804 85.5784 46.4944 86.3476 46.4944C87.6809 46.4944 88.3593 47.2577 88.383 48.7842V53.0147H86.9452V48.867C86.9452 48.4608 86.8565 48.161 86.679 47.9677C86.5054 47.7705 86.2194 47.6718 85.821 47.6718C85.2412 47.6718 84.8092 47.9342 84.5252 48.4588V53.0147H83.0874V46.6127H84.4424Z" fill="white"/>
<path d="M92.241 51.9852C92.6 51.9852 92.8978 51.8807 93.1344 51.6716C93.3711 51.4626 93.4973 51.2042 93.5131 50.8965H94.8681C94.8523 51.2949 94.728 51.6677 94.4953 52.0148C94.2626 52.358 93.947 52.6301 93.5486 52.8313C93.1502 53.0325 92.7203 53.1331 92.2588 53.1331C91.3633 53.1331 90.6533 52.8431 90.1287 52.2633C89.6041 51.6835 89.3418 50.8827 89.3418 49.8611V49.7131C89.3418 48.7388 89.6021 47.9598 90.1228 47.376C90.6435 46.7883 91.3535 46.4944 92.2528 46.4944C93.0141 46.4944 93.6334 46.7173 94.1107 47.163C94.592 47.6048 94.8444 48.1866 94.8681 48.9085H93.5131C93.4973 48.5416 93.3711 48.2399 93.1344 48.0032C92.9017 47.7665 92.6039 47.6482 92.241 47.6482C91.7755 47.6482 91.4166 47.8178 91.1641 48.157C90.9117 48.4923 90.7835 49.0031 90.7796 49.6895V49.9202C90.7796 50.6145 90.9038 51.1332 91.1523 51.4764C91.4048 51.8156 91.7677 51.9852 92.241 51.9852Z" fill="white"/>
<path d="M98.5308 53.1331C97.6196 53.1331 96.88 52.8471 96.312 52.2751C95.7479 51.6992 95.4659 50.934 95.4659 49.9794V49.8019C95.4659 49.1629 95.5882 48.5929 95.8327 48.0919C96.0813 47.587 96.4284 47.1946 96.8741 46.9145C97.3198 46.6344 97.8169 46.4944 98.3651 46.4944C99.2369 46.4944 99.9094 46.7725 100.383 47.3287C100.86 47.8849 101.099 48.6718 101.099 49.6895V50.2693H96.9155C96.9589 50.7979 97.1344 51.216 97.4421 51.5237C97.7537 51.8314 98.1443 51.9852 98.6137 51.9852C99.2724 51.9852 99.8088 51.719 100.223 51.1864L100.998 51.926C100.742 52.3087 100.399 52.6065 99.9686 52.8195C99.5426 53.0285 99.0633 53.1331 98.5308 53.1331ZM98.3592 47.6482C97.9648 47.6482 97.6453 47.7862 97.4007 48.0624C97.1601 48.3385 97.0062 48.7231 96.9392 49.2161H99.6787V49.1096C99.6471 48.6284 99.5189 48.2655 99.2941 48.0209C99.0692 47.7724 98.7576 47.6482 98.3592 47.6482Z" fill="white"/>
<path fill-rule="evenodd" clip-rule="evenodd" d="M9.90385 64.6274H3.02941C1.35631 64.6274 0 65.9838 0 67.6569V94.4167C0 96.0898 1.35631 97.4461 3.02941 97.4461H9.63198L11.9077 101.672C12.348 102.49 13.2017 103 14.1304 103H25.854C26.7307 103 27.5446 102.545 28.004 101.799L30.6825 97.4461H166.618C168.291 97.4461 169.647 96.0898 169.647 94.4167V67.6569C169.647 65.9838 168.291 64.6274 166.618 64.6274H30.3718L28.004 68.475C27.5446 69.2217 26.7307 69.6765 25.854 69.6765H14.1304C13.2017 69.6765 12.348 69.1665 11.9077 68.3488L9.90385 64.6274Z" fill="#4B97F9"/>
<path fill-rule="evenodd" clip-rule="evenodd" d="M9.93355 96.9412L12.3522 101.433C12.7045 102.087 13.3874 102.495 14.1304 102.495H25.854C26.5554 102.495 27.2065 102.131 27.574 101.534L30.4004 96.9412H166.618C168.012 96.9412 169.142 95.8109 169.142 94.4167V67.6569C169.142 66.2626 168.012 65.1323 166.618 65.1323H30.6539L28.434 68.7397C27.8827 69.6356 26.906 70.1814 25.854 70.1814H14.1304C13.016 70.1814 11.9915 69.5695 11.4631 68.5882L9.60227 65.1323H3.02941C1.63516 65.1323 0.504902 66.2626 0.504902 67.6569V94.4167C0.504902 95.8109 1.63516 96.9412 3.02941 96.9412H9.93355ZM9.90385 64.6274H3.02941C1.35631 64.6274 0 65.9838 0 67.6569V94.4167C0 96.0898 1.35631 97.4461 3.02941 97.4461H9.63198L11.9077 101.672C12.348 102.49 13.2017 103 14.1304 103H25.854C26.7307 103 27.5446 102.545 28.004 101.799L30.6825 97.4461H166.618C168.291 97.4461 169.647 96.0898 169.647 94.4167V67.6569C169.647 65.9838 168.291 64.6274 166.618 64.6274H30.3718L28.004 68.475C27.5446 69.2217 26.7307 69.6765 25.854 69.6765H14.1304C13.2017 69.6765 12.348 69.1665 11.9077 68.3488L9.90385 64.6274Z" fill="#0550B0"/>
<path d="M10.3839 83.5887C10.3839 83.3323 10.2774 83.137 10.0644 83.0029C9.85531 82.8688 9.50621 82.7504 9.01709 82.6479C8.52797 82.5453 8.11971 82.4152 7.79231 82.2574C7.0744 81.9103 6.71545 81.4073 6.71545 80.7486C6.71545 80.1964 6.94818 79.7348 7.41363 79.3641C7.87909 78.9933 8.47077 78.8079 9.18868 78.8079C9.95392 78.8079 10.5712 78.9972 11.0406 79.3759C11.514 79.7546 11.7507 80.2457 11.7507 80.8492H10.3129C10.3129 80.5731 10.2103 80.3443 10.0052 80.1628C9.80008 79.9774 9.52791 79.8847 9.18868 79.8847C8.87311 79.8847 8.61475 79.9577 8.41357 80.1037C8.21635 80.2496 8.11773 80.4449 8.11773 80.6894C8.11773 80.9103 8.21043 81.0819 8.39582 81.2042C8.58122 81.3265 8.95595 81.4507 9.52002 81.5769C10.0841 81.6992 10.5259 81.8471 10.8454 82.0207C11.1688 82.1903 11.4075 82.3954 11.5613 82.6361C11.7191 82.8767 11.798 83.1686 11.798 83.5117C11.798 84.0877 11.5593 84.5551 11.0821 84.914C10.6048 85.269 9.97956 85.4465 9.20643 85.4465C8.6818 85.4465 8.21437 85.3519 7.80414 85.1625C7.39391 84.9732 7.0744 84.7129 6.84562 84.3815C6.61683 84.0502 6.50244 83.6932 6.50244 83.3106H7.89881C7.91853 83.6498 8.04673 83.9121 8.2834 84.0975C8.52008 84.279 8.83367 84.3697 9.22418 84.3697C9.60285 84.3697 9.89081 84.2987 10.088 84.1567C10.2853 84.0107 10.3839 83.8214 10.3839 83.5887Z" fill="white"/>
<path d="M15.6323 85.4465C14.7211 85.4465 13.9815 85.1606 13.4135 84.5886C12.8495 84.0127 12.5674 83.2475 12.5674 82.2929V82.1154C12.5674 81.4764 12.6897 80.9064 12.9343 80.4054C13.1828 79.9005 13.5299 79.508 13.9756 79.228C14.4214 78.9479 14.9184 78.8079 15.4667 78.8079C16.3384 78.8079 17.011 79.086 17.4843 79.6421C17.9616 80.1983 18.2002 80.9853 18.2002 82.003V82.5828H14.017C14.0604 83.1114 14.236 83.5295 14.5436 83.8372C14.8553 84.1448 15.2458 84.2987 15.7152 84.2987C16.3739 84.2987 16.9104 84.0324 17.3245 83.4999L18.0996 84.2395C17.8432 84.6221 17.5001 84.92 17.0701 85.133C16.6441 85.342 16.1648 85.4465 15.6323 85.4465ZM15.4607 79.9617C15.0663 79.9617 14.7468 80.0997 14.5022 80.3758C14.2616 80.652 14.1078 81.0365 14.0407 81.5296H16.7802V81.4231C16.7486 80.9419 16.6204 80.579 16.3956 80.3344C16.1708 80.0859 15.8591 79.9617 15.4607 79.9617Z" fill="white"/>
<path d="M20.8808 77.3701V78.9262H22.0109V79.9912H20.8808V83.565C20.8808 83.8096 20.9281 83.9871 21.0228 84.0975C21.1214 84.204 21.295 84.2573 21.5435 84.2573C21.7091 84.2573 21.8768 84.2375 22.0464 84.1981V85.3105C21.719 85.4012 21.4034 85.4465 21.0997 85.4465C19.9952 85.4465 19.443 84.8371 19.443 83.6183V79.9912H18.3898V78.9262H19.443V77.3701H20.8808Z" fill="white"/>
<path d="M28.9991 80.2397C28.8098 80.2082 28.6145 80.1924 28.4134 80.1924C27.7546 80.1924 27.3109 80.4449 27.0821 80.9498V85.3282H25.6443V78.9262H27.017L27.0525 79.6421C27.3996 79.086 27.8809 78.8079 28.4962 78.8079C28.7013 78.8079 28.8709 78.8355 29.0051 78.8907L28.9991 80.2397Z" fill="white"/>
<path d="M29.1828 82.068C29.1828 81.4409 29.307 80.8768 29.5556 80.3758C29.8041 79.8709 30.1532 79.4844 30.6028 79.2161C31.0525 78.944 31.5692 78.8079 32.153 78.8079C33.0169 78.8079 33.717 79.086 34.2535 79.6421C34.7939 80.1983 35.0858 80.936 35.1292 81.855L35.1351 82.1923C35.1351 82.8234 35.0128 83.3875 34.7683 83.8845C34.5277 84.3815 34.1805 84.7661 33.7269 85.0383C33.2772 85.3105 32.7566 85.4465 32.1649 85.4465C31.2616 85.4465 30.5377 85.1468 29.9934 84.5472C29.453 83.9437 29.1828 83.141 29.1828 82.139V82.068ZM30.6206 82.1923C30.6206 82.851 30.7567 83.3678 31.0288 83.7425C31.301 84.1133 31.6797 84.2987 32.1649 84.2987C32.6501 84.2987 33.0268 84.1093 33.295 83.7307C33.5672 83.352 33.7032 82.7978 33.7032 82.068C33.7032 81.4211 33.5632 80.9083 33.2831 80.5297C33.007 80.151 32.6303 79.9617 32.153 79.9617C31.6836 79.9617 31.3109 80.149 31.0348 80.5238C30.7586 80.8945 30.6206 81.4507 30.6206 82.1923Z" fill="white"/>
<path d="M37.9103 77.3701V78.9262H39.0405V79.9912H37.9103V83.565C37.9103 83.8096 37.9577 83.9871 38.0523 84.0975C38.151 84.204 38.3245 84.2573 38.573 84.2573C38.7387 84.2573 38.9063 84.2375 39.076 84.1981V85.3105C38.7486 85.4012 38.433 85.4465 38.1293 85.4465C37.0248 85.4465 36.4726 84.8371 36.4726 83.6183V79.9912H35.4194V78.9262H36.4726V77.3701H37.9103Z" fill="white"/>
<path d="M43.7268 85.3282C43.6637 85.2059 43.6085 85.0067 43.5611 84.7306C43.1036 85.2079 42.5434 85.4465 41.8808 85.4465C41.2378 85.4465 40.7132 85.2631 40.3069 84.8963C39.9006 84.5294 39.6975 84.0758 39.6975 83.5354C39.6975 82.853 39.9499 82.3304 40.4548 81.9675C40.9637 81.6006 41.6895 81.4172 42.6322 81.4172H43.5138V80.9971C43.5138 80.6658 43.4211 80.4015 43.2357 80.2042C43.0503 80.0031 42.7683 79.9025 42.3896 79.9025C42.0622 79.9025 41.794 79.9853 41.5849 80.151C41.3759 80.3127 41.2713 80.5198 41.2713 80.7723H39.8335C39.8335 80.4212 39.9499 80.0938 40.1826 79.7901C40.4154 79.4824 40.7309 79.2418 41.1293 79.0682C41.5317 78.8947 41.9794 78.8079 42.4724 78.8079C43.2219 78.8079 43.8195 78.9972 44.2652 79.3759C44.711 79.7506 44.9398 80.2792 44.9516 80.9616V83.849C44.9516 84.4249 45.0325 84.8844 45.1942 85.2276V85.3282H43.7268ZM42.147 84.2928C42.431 84.2928 42.6973 84.2237 42.9458 84.0857C43.1982 83.9476 43.3876 83.7622 43.5138 83.5295V82.3225H42.7387C42.2062 82.3225 41.8058 82.4152 41.5376 82.6006C41.2694 82.786 41.1352 83.0483 41.1352 83.3875C41.1352 83.6636 41.226 83.8845 41.4074 84.0502C41.5928 84.2119 41.8393 84.2928 42.147 84.2928Z" fill="white"/>
<path d="M48.0167 77.3701V78.9262H49.1469V79.9912H48.0167V83.565C48.0167 83.8096 48.0641 83.9871 48.1587 84.0975C48.2574 84.204 48.4309 84.2573 48.6794 84.2573C48.8451 84.2573 49.0127 84.2375 49.1824 84.1981V85.3105C48.855 85.4012 48.5394 85.4465 48.2357 85.4465C47.1312 85.4465 46.579 84.8371 46.579 83.6183V79.9912H45.5258V78.9262H46.579V77.3701H48.0167Z" fill="white"/>
<path d="M51.5375 85.3282H50.0997V78.9262H51.5375V85.3282ZM50.0109 77.2636C50.0109 77.0427 50.08 76.8593 50.218 76.7133C50.36 76.5674 50.5612 76.4944 50.8216 76.4944C51.0819 76.4944 51.2831 76.5674 51.4251 76.7133C51.5671 76.8593 51.6381 77.0427 51.6381 77.2636C51.6381 77.4805 51.5671 77.662 51.4251 77.8079C51.2831 77.9499 51.0819 78.0209 50.8216 78.0209C50.5612 78.0209 50.36 77.9499 50.218 77.8079C50.08 77.662 50.0109 77.4805 50.0109 77.2636Z" fill="white"/>
<path d="M52.5968 82.068C52.5968 81.4409 52.7211 80.8768 52.9696 80.3758C53.2181 79.8709 53.5672 79.4844 54.0169 79.2161C54.4665 78.944 54.9833 78.8079 55.5671 78.8079C56.4309 78.8079 57.1311 79.086 57.6675 79.6421C58.2079 80.1983 58.4998 80.936 58.5432 81.855L58.5492 82.1923C58.5492 82.8234 58.4269 83.3875 58.1823 83.8845C57.9417 84.3815 57.5946 84.7661 57.1409 85.0383C56.6913 85.3105 56.1706 85.4465 55.5789 85.4465C54.6756 85.4465 53.9518 85.1468 53.4074 84.5472C52.867 83.9437 52.5968 83.141 52.5968 82.139V82.068ZM54.0346 82.1923C54.0346 82.851 54.1707 83.3678 54.4429 83.7425C54.7151 84.1133 55.0937 84.2987 55.5789 84.2987C56.0641 84.2987 56.4408 84.1093 56.709 83.7307C56.9812 83.352 57.1173 82.7978 57.1173 82.068C57.1173 81.4211 56.9773 80.9083 56.6972 80.5297C56.4211 80.151 56.0444 79.9617 55.5671 79.9617C55.0977 79.9617 54.7249 80.149 54.4488 80.5238C54.1727 80.8945 54.0346 81.4507 54.0346 82.1923Z" fill="white"/>
<path d="M60.857 78.9262L60.8984 79.6658C61.3717 79.0939 61.993 78.8079 62.7622 78.8079C64.0954 78.8079 64.7739 79.5711 64.7976 81.0977V85.3282H63.3598V81.1805C63.3598 80.7742 63.271 80.4744 63.0935 80.2812C62.9199 80.0839 62.634 79.9853 62.2356 79.9853C61.6557 79.9853 61.2238 80.2476 60.9398 80.7723V85.3282H59.502V78.9262H60.857Z" fill="white"/>
<path d="M72.3893 83.5887C72.3893 83.3323 72.2828 83.137 72.0698 83.0029C71.8607 82.8688 71.5116 82.7504 71.0225 82.6479C70.5334 82.5453 70.1251 82.4152 69.7977 82.2574C69.0798 81.9103 68.7209 81.4073 68.7209 80.7486C68.7209 80.1964 68.9536 79.7348 69.4191 79.3641C69.8845 78.9933 70.4762 78.8079 71.1941 78.8079C71.9594 78.8079 72.5767 78.9972 73.0461 79.3759C73.5194 79.7546 73.7561 80.2457 73.7561 80.8492H72.3183C72.3183 80.5731 72.2158 80.3443 72.0106 80.1628C71.8055 79.9774 71.5333 79.8847 71.1941 79.8847C70.8785 79.8847 70.6202 79.9577 70.419 80.1037C70.2218 80.2496 70.1232 80.4449 70.1232 80.6894C70.1232 80.9103 70.2159 81.0819 70.4013 81.2042C70.5866 81.3265 70.9614 81.4507 71.5255 81.5769C72.0895 81.6992 72.5313 81.8471 72.8508 82.0207C73.1743 82.1903 73.4129 82.3954 73.5668 82.6361C73.7245 82.8767 73.8034 83.1686 73.8034 83.5117C73.8034 84.0877 73.5648 84.5551 73.0875 84.914C72.6102 85.269 71.985 85.4465 71.2119 85.4465C70.6872 85.4465 70.2198 85.3519 69.8096 85.1625C69.3993 84.9732 69.0798 84.7129 68.851 84.3815C68.6223 84.0502 68.5079 83.6932 68.5079 83.3106H69.9042C69.924 83.6498 70.0522 83.9121 70.2888 84.0975C70.5255 84.279 70.8391 84.3697 71.2296 84.3697C71.6083 84.3697 71.8962 84.2987 72.0935 84.1567C72.2907 84.0107 72.3893 83.8214 72.3893 83.5887Z" fill="white"/>
<path d="M76.6201 77.3701V78.9262H77.7502V79.9912H76.6201V83.565C76.6201 83.8096 76.6674 83.9871 76.7621 84.0975C76.8607 84.204 77.0342 84.2573 77.2828 84.2573C77.4484 84.2573 77.6161 84.2375 77.7857 84.1981V85.3105C77.4583 85.4012 77.1427 85.4465 76.839 85.4465C75.7345 85.4465 75.1823 84.8371 75.1823 83.6183V79.9912H74.1291V78.9262H75.1823V77.3701H76.6201Z" fill="white"/>
<path d="M80.8508 83.2692L82.1525 78.9262H83.685L81.1408 86.2986C80.7502 87.3754 80.0876 87.9139 79.1527 87.9139C78.9436 87.9139 78.7129 87.8784 78.4604 87.8074V86.695L78.7326 86.7127C79.0955 86.7127 79.3677 86.6457 79.5491 86.5116C79.7345 86.3814 79.8805 86.1605 79.987 85.8489L80.1941 85.2986L77.9457 78.9262H79.4959L80.8508 83.2692Z" fill="white"/>
<path d="M85.8034 85.3282H84.3657V76.24H85.8034V85.3282Z" fill="white"/>
<path d="M89.9514 85.4465C89.0402 85.4465 88.3006 85.1606 87.7326 84.5886C87.1685 84.0127 86.8865 83.2475 86.8865 82.2929V82.1154C86.8865 81.4764 87.0087 80.9064 87.2533 80.4054C87.5018 79.9005 87.8489 79.508 88.2947 79.228C88.7404 78.9479 89.2374 78.8079 89.7857 78.8079C90.6574 78.8079 91.33 79.086 91.8033 79.6421C92.2806 80.1983 92.5193 80.9853 92.5193 82.003V82.5828H88.3361C88.3795 83.1114 88.555 83.5295 88.8627 83.8372C89.1743 84.1448 89.5648 84.2987 90.0342 84.2987C90.6929 84.2987 91.2294 84.0324 91.6436 83.4999L92.4187 84.2395C92.1623 84.6221 91.8191 84.92 91.3892 85.133C90.9631 85.342 90.4839 85.4465 89.9514 85.4465ZM89.7798 79.9617C89.3853 79.9617 89.0658 80.0997 88.8213 80.3758C88.5806 80.652 88.4268 81.0365 88.3597 81.5296H91.0992V81.4231C91.0677 80.9419 90.9395 80.579 90.7146 80.3344C90.4898 80.0859 90.1782 79.9617 89.7798 79.9617Z" fill="white"/>
<path d="M105.266 85.3282H103.828V76.24H105.266V85.3282Z" fill="white"/>
<path d="M109.414 85.4465C108.503 85.4465 107.763 85.1606 107.195 84.5886C106.631 84.0127 106.349 83.2475 106.349 82.2929V82.1154C106.349 81.4764 106.471 80.9064 106.716 80.4054C106.964 79.9005 107.311 79.508 107.757 79.228C108.203 78.9479 108.7 78.8079 109.248 78.8079C110.12 78.8079 110.793 79.086 111.266 79.6421C111.743 80.1983 111.982 80.9853 111.982 82.003V82.5828H107.799C107.842 83.1114 108.018 83.5295 108.325 83.8372C108.637 84.1448 109.027 84.2987 109.497 84.2987C110.155 84.2987 110.692 84.0324 111.106 83.4999L111.881 84.2395C111.625 84.6221 111.282 84.92 110.852 85.133C110.426 85.342 109.946 85.4465 109.414 85.4465ZM109.242 79.9617C108.848 79.9617 108.528 80.0997 108.284 80.3758C108.043 80.652 107.889 81.0365 107.822 81.5296H110.562V81.4231C110.53 80.9419 110.402 80.579 110.177 80.3344C109.952 80.0859 109.641 79.9617 109.242 79.9617Z" fill="white"/>
<path d="M113.367 85.3282V79.9912H112.39V78.9262H113.367V78.3404C113.367 77.6304 113.564 77.0821 113.958 76.6956C114.353 76.309 114.905 76.1157 115.615 76.1157C115.867 76.1157 116.136 76.1512 116.42 76.2222L116.384 77.3464C116.226 77.3149 116.043 77.2991 115.834 77.2991C115.148 77.2991 114.804 77.6521 114.804 78.3582V78.9262H116.106V79.9912H114.804V85.3282H113.367Z" fill="white"/>
<path d="M118.716 77.3701V78.9262H119.846V79.9912H118.716V83.565C118.716 83.8096 118.763 83.9871 118.858 84.0975C118.956 84.204 119.13 84.2573 119.378 84.2573C119.544 84.2573 119.712 84.2375 119.881 84.1981V85.3105C119.554 85.4012 119.238 85.4465 118.935 85.4465C117.83 85.4465 117.278 84.8371 117.278 83.6183V79.9912H116.225V78.9262H117.278V77.3701H118.716Z" fill="white"/>
<path d="M123.497 82.2455H120.39V81.0859H123.497V82.2455Z" fill="white"/>
<path d="M127.793 80.2397C127.603 80.2082 127.408 80.1924 127.207 80.1924C126.548 80.1924 126.104 80.4449 125.875 80.9498V85.3282H124.438V78.9262H125.81L125.846 79.6421C126.193 79.086 126.674 78.8079 127.29 78.8079C127.495 78.8079 127.664 78.8355 127.798 78.8907L127.793 80.2397Z" fill="white"/>
<path d="M129.988 85.3282H128.55V78.9262H129.988V85.3282ZM128.461 77.2636C128.461 77.0427 128.53 76.8593 128.668 76.7133C128.81 76.5674 129.012 76.4944 129.272 76.4944C129.532 76.4944 129.733 76.5674 129.875 76.7133C130.017 76.8593 130.088 77.0427 130.088 77.2636C130.088 77.4805 130.017 77.662 129.875 77.8079C129.733 77.9499 129.532 78.0209 129.272 78.0209C129.012 78.0209 128.81 77.9499 128.668 77.8079C128.53 77.662 128.461 77.4805 128.461 77.2636Z" fill="white"/>
<path d="M131.065 82.0799C131.065 81.0859 131.298 80.293 131.763 79.7013C132.233 79.1057 132.854 78.8079 133.627 78.8079C134.357 78.8079 134.931 79.0623 135.349 79.5711L135.414 78.9262H136.71V85.133C136.71 85.9731 136.447 86.6358 135.923 87.121C135.402 87.6062 134.698 87.8488 133.81 87.8488C133.341 87.8488 132.881 87.7502 132.432 87.5529C131.986 87.3597 131.647 87.1052 131.414 86.7897L132.095 85.9258C132.536 86.4504 133.081 86.7127 133.728 86.7127C134.205 86.7127 134.582 86.5826 134.858 86.3222C135.134 86.0658 135.272 85.6872 135.272 85.1862V84.7543C134.858 85.2158 134.305 85.4465 133.615 85.4465C132.866 85.4465 132.252 85.1487 131.775 84.5531C131.302 83.9575 131.065 83.1331 131.065 82.0799ZM132.497 82.2041C132.497 82.8471 132.627 83.354 132.887 83.7248C133.152 84.0916 133.517 84.275 133.982 84.275C134.562 84.275 134.992 84.0265 135.272 83.5295V80.7131C135 80.2279 134.574 79.9853 133.994 79.9853C133.52 79.9853 133.152 80.1727 132.887 80.5474C132.627 80.9222 132.497 81.4744 132.497 82.2041Z" fill="white"/>
<path d="M139.367 79.6244C139.836 79.08 140.43 78.8079 141.147 78.8079C142.512 78.8079 143.205 79.5869 143.224 81.145V85.3282H141.787V81.1983C141.787 80.7565 141.69 80.4449 141.497 80.2634C141.307 80.078 141.027 79.9853 140.656 79.9853C140.08 79.9853 139.651 80.2417 139.367 80.7545V85.3282H137.929V76.24H139.367V79.6244Z" fill="white"/>
<path d="M146.242 77.3701V78.9262H147.372V79.9912H146.242V83.565C146.242 83.8096 146.289 83.9871 146.384 84.0975C146.483 84.204 146.656 84.2573 146.905 84.2573C147.07 84.2573 147.238 84.2375 147.408 84.1981V85.3105C147.08 85.4012 146.765 85.4465 146.461 85.4465C145.357 85.4465 144.804 84.8371 144.804 83.6183V79.9912H143.751V78.9262H144.804V77.3701H146.242Z" fill="white"/>
<path d="M154.605 83.4554C154.408 83.6532 154.087 83.6532 153.89 83.4554L150.953 80.5099C150.635 80.1916 150.861 79.6484 151.31 79.6484L157.185 79.6484C157.634 79.6484 157.86 80.1916 157.542 80.5099L154.605 83.4554Z" fill="white"/>
<path fill-rule="evenodd" clip-rule="evenodd" d="M160.559 70.1812H100.476C99.0815 70.1812 97.9512 71.3114 97.9512 72.7057V89.3674C97.9512 90.7617 99.0815 91.892 100.476 91.892H160.559C161.953 91.892 163.084 90.7617 163.084 89.3674V72.7057C163.084 71.3114 161.953 70.1812 160.559 70.1812ZM100.476 69.6763C98.8026 69.6763 97.4463 71.0326 97.4463 72.7057V89.3674C97.4463 91.0405 98.8026 92.3969 100.476 92.3969H160.559C162.232 92.3969 163.588 91.0405 163.588 89.3674V72.7057C163.588 71.0326 162.232 69.6763 160.559 69.6763H100.476Z" fill="#0550B0"/>
</svg>
