<svg width="570" height="74" viewBox="0 0 570 74" fill="none" xmlns="http://www.w3.org/2000/svg">
<mask id="path-1-inside-1" fill="white">
<path fill-rule="evenodd" clip-rule="evenodd" d="M12 0C5.37258 0 0 5.37258 0 12V46C0 52.6274 5.3726 58 12 58H30.4018C33.5844 58 36.6366 59.2643 38.8871 61.5147L49.799 72.4267C51.3611 73.9888 53.8938 73.9888 55.4559 72.4267L66.3679 61.5147C68.6183 59.2643 71.6705 58 74.8531 58H558C564.627 58 570 52.6274 570 46V12C570 5.37258 564.627 0 558 0H12Z"/>
</mask>
<path fill-rule="evenodd" clip-rule="evenodd" d="M12 0C5.37258 0 0 5.37258 0 12V46C0 52.6274 5.3726 58 12 58H30.4018C33.5844 58 36.6366 59.2643 38.8871 61.5147L49.799 72.4267C51.3611 73.9888 53.8938 73.9888 55.4559 72.4267L66.3679 61.5147C68.6183 59.2643 71.6705 58 74.8531 58H558C564.627 58 570 52.6274 570 46V12C570 5.37258 564.627 0 558 0H12Z" fill="#FEC830" fill-opacity="0.2"/>
<path d="M49.799 72.4267L49.4455 72.7802L49.799 72.4267ZM55.4559 72.4267L55.8094 72.7802L55.4559 72.4267ZM-0.5 12V13.5937H0.5V12H-0.5ZM-0.5 18.9062V22.0938H0.5V18.9062H-0.5ZM-0.5 27.4062V30.5938H0.5V27.4062H-0.5ZM-0.5 35.9062V39.0938H0.5V35.9062H-0.5ZM-0.5 44.4062V46H0.5V44.4062H-0.5ZM-0.5 46C-0.5 46.6228 -0.454412 47.2353 -0.366314 47.8342L0.623039 47.6887C0.542007 47.1378 0.5 46.574 0.5 46H-0.5ZM1.95943 53.4469C2.69216 54.4332 3.56677 55.3078 4.55315 56.0406L5.14947 55.2378C4.24163 54.5634 3.43657 53.7584 2.76218 52.8505L1.95943 53.4469ZM10.1658 58.3663C10.7647 58.4544 11.3772 58.5 12 58.5V57.5C11.4261 57.5 10.8622 57.458 10.3114 57.377L10.1658 58.3663ZM12 58.5H13.7252V57.5H12V58.5ZM19.4757 58.5H22.9261V57.5H19.4757V58.5ZM28.6766 58.5H30.4018V57.5H28.6766V58.5ZM30.4018 58.5C30.97 58.5 31.5339 58.542 32.0892 58.6244L32.2359 57.6352C31.6323 57.5457 31.0194 57.5 30.4018 57.5V58.5ZM37.2524 60.7631C37.7033 61.0975 38.1317 61.4665 38.5335 61.8683L39.2406 61.1612C38.8039 60.7245 38.3382 60.3234 37.8481 59.9599L37.2524 60.7631ZM38.5335 61.8683L39.5565 62.8913L40.2636 62.1842L39.2406 61.1612L38.5335 61.8683ZM42.9665 66.3013L45.0125 68.3472L45.7196 67.6401L43.6736 65.5941L42.9665 66.3013ZM48.4225 71.7572L49.4455 72.7802L50.1526 72.0731L49.1296 71.0501L48.4225 71.7572ZM49.4455 72.7802C49.7662 73.101 50.1241 73.3637 50.5056 73.5678L50.9773 72.686C50.6815 72.5278 50.4031 72.3237 50.1526 72.0731L49.4455 72.7802ZM54.7493 73.5678C55.1308 73.3637 55.4887 73.101 55.8094 72.7802L55.1023 72.0731C54.8518 72.3237 54.5735 72.5278 54.2776 72.686L54.7493 73.5678ZM55.8094 72.7802L56.8324 71.7572L56.1253 71.0501L55.1023 72.0731L55.8094 72.7802ZM60.2424 68.3472L62.2884 66.3013L61.5813 65.5941L59.5353 67.6401L60.2424 68.3472ZM65.6984 62.8913L66.7214 61.8683L66.0143 61.1612L64.9913 62.1842L65.6984 62.8913ZM66.7214 61.8683C67.1232 61.4665 67.5516 61.0975 68.0026 60.7631L67.4069 59.9599C66.9167 60.3234 66.451 60.7245 66.0143 61.1612L66.7214 61.8683ZM73.1657 58.6244C73.721 58.542 74.2849 58.5 74.8531 58.5V57.5C74.2355 57.5 73.6227 57.5457 73.019 57.6352L73.1657 58.6244ZM74.8531 58.5H76.3629V57.5H74.8531V58.5ZM81.3957 58.5H84.4154V57.5H81.3957V58.5ZM89.4482 58.5H92.4678V57.5H89.4482V58.5ZM97.5006 58.5H100.52V57.5H97.5006V58.5ZM105.553 58.5H108.573V57.5H105.553V58.5ZM113.606 58.5H116.625V57.5H113.606V58.5ZM121.658 58.5H124.678V57.5H121.658V58.5ZM129.71 58.5H132.73V57.5H129.71V58.5ZM137.763 58.5H140.783V57.5H137.763V58.5ZM145.815 58.5H148.835V57.5H145.815V58.5ZM153.868 58.5H156.887V57.5H153.868V58.5ZM161.92 58.5H164.94V57.5H161.92V58.5ZM169.973 58.5H172.992V57.5H169.973V58.5ZM178.025 58.5H181.045V57.5H178.025V58.5ZM186.078 58.5H189.097V57.5H186.078V58.5ZM194.13 58.5H197.15V57.5H194.13V58.5ZM202.182 58.5H205.202V57.5H202.182V58.5ZM210.235 58.5H213.255V57.5H210.235V58.5ZM218.287 58.5H221.307V57.5H218.287V58.5ZM226.34 58.5H229.359V57.5H226.34V58.5ZM234.392 58.5H237.412V57.5H234.392V58.5ZM242.445 58.5H245.464V57.5H242.445V58.5ZM250.497 58.5H253.517V57.5H250.497V58.5ZM258.55 58.5H261.569V57.5H258.55V58.5ZM266.602 58.5H269.622V57.5H266.602V58.5ZM274.654 58.5H277.674V57.5H274.654V58.5ZM282.707 58.5H285.727V57.5H282.707V58.5ZM290.759 58.5H293.779V57.5H290.759V58.5ZM298.812 58.5H301.831V57.5H298.812V58.5ZM306.864 58.5H309.884V57.5H306.864V58.5ZM314.917 58.5H317.936V57.5H314.917V58.5ZM322.969 58.5H325.989V57.5H322.969V58.5ZM331.022 58.5H334.041V57.5H331.022V58.5ZM339.074 58.5H342.094V57.5H339.074V58.5ZM347.126 58.5H350.146V57.5H347.126V58.5ZM355.179 58.5H358.199V57.5H355.179V58.5ZM363.231 58.5H366.251V57.5H363.231V58.5ZM371.284 58.5H374.303V57.5H371.284V58.5ZM379.336 58.5H382.356V57.5H379.336V58.5ZM387.389 58.5H390.408V57.5H387.389V58.5ZM395.441 58.5H398.461V57.5H395.441V58.5ZM403.493 58.5H406.513V57.5H403.493V58.5ZM411.546 58.5H414.566V57.5H411.546V58.5ZM419.598 58.5H422.618V57.5H419.598V58.5ZM427.651 58.5H430.67V57.5H427.651V58.5ZM435.703 58.5H438.723V57.5H435.703V58.5ZM443.756 58.5H446.775V57.5H443.756V58.5ZM451.808 58.5H454.828V57.5H451.808V58.5ZM459.86 58.5H462.88V57.5H459.86V58.5ZM467.913 58.5H470.933V57.5H467.913V58.5ZM475.965 58.5H478.985V57.5H475.965V58.5ZM484.018 58.5H487.037V57.5H484.018V58.5ZM492.07 58.5H495.09V57.5H492.07V58.5ZM500.123 58.5H503.142V57.5H500.123V58.5ZM508.175 58.5H511.195V57.5H508.175V58.5ZM516.227 58.5H519.247V57.5H516.227V58.5ZM524.28 58.5H527.3V57.5H524.28V58.5ZM532.332 58.5H535.352V57.5H532.332V58.5ZM540.385 58.5H543.404V57.5H540.385V58.5ZM548.437 58.5H551.457V57.5H548.437V58.5ZM556.49 58.5H558V57.5H556.49V58.5ZM558 58.5C558.623 58.5 559.235 58.4544 559.834 58.3663L559.689 57.377C559.138 57.458 558.574 57.5 558 57.5V58.5ZM565.447 56.0406C566.433 55.3078 567.308 54.4332 568.041 53.4469L567.238 52.8505C566.563 53.7584 565.758 54.5634 564.851 55.2378L565.447 56.0406ZM570.366 47.8342C570.454 47.2353 570.5 46.6228 570.5 46H569.5C569.5 46.574 569.458 47.1378 569.377 47.6887L570.366 47.8342ZM570.5 46V44.4062H569.5V46H570.5ZM570.5 39.0938V35.9062H569.5V39.0938H570.5ZM570.5 30.5938V27.4062H569.5V30.5938H570.5ZM570.5 22.0938V18.9062H569.5V22.0938H570.5ZM570.5 13.5938V12H569.5V13.5938H570.5ZM570.5 12C570.5 11.3772 570.454 10.7647 570.366 10.1658L569.377 10.3113C569.458 10.8622 569.5 11.4261 569.5 12H570.5ZM568.041 4.55315C567.308 3.56677 566.433 2.69216 565.447 1.95944L564.851 2.76218C565.758 3.43657 566.563 4.24163 567.238 5.14947L568.041 4.55315ZM559.834 -0.366313C559.235 -0.454411 558.623 -0.5 558 -0.5V0.5C558.574 0.5 559.138 0.542008 559.689 0.62304L559.834 -0.366313ZM558 -0.5H556.495V0.5H558V-0.5ZM551.476 -0.5H548.465V0.5H551.476V-0.5ZM543.447 -0.5H540.436V0.5H543.447V-0.5ZM535.417 -0.5H532.406V0.5H535.417V-0.5ZM527.388 -0.5H524.377V0.5H527.388V-0.5ZM519.358 -0.5H516.347V0.5H519.358V-0.5ZM511.329 -0.5H508.318V0.5H511.329V-0.5ZM503.3 -0.5H500.289V0.5H503.3V-0.5ZM495.27 -0.5H492.259V0.5H495.27V-0.5ZM487.241 -0.5H484.23V0.5H487.241V-0.5ZM479.211 -0.5H476.2V0.5H479.211V-0.5ZM471.182 -0.5H468.171V0.5H471.182V-0.5ZM463.153 -0.5H460.142V0.5H463.153V-0.5ZM455.123 -0.5H452.112V0.5H455.123V-0.5ZM447.094 -0.5H444.083V0.5H447.094V-0.5ZM439.064 -0.5H436.053V0.5H439.064V-0.5ZM431.035 -0.5H428.024V0.5H431.035V-0.5ZM423.005 -0.5H419.994V0.5H423.005V-0.5ZM414.976 -0.5H411.965V0.5H414.976V-0.5ZM406.947 -0.5H403.936V0.5H406.947V-0.5ZM398.917 -0.5H395.906V0.5H398.917V-0.5ZM390.888 -0.5H387.877V0.5H390.888V-0.5ZM382.858 -0.5H379.847V0.5H382.858V-0.5ZM374.829 -0.5H371.818V0.5H374.829V-0.5ZM366.8 -0.5H363.789V0.5H366.8V-0.5ZM358.77 -0.5H355.759V0.5H358.77V-0.5ZM350.741 -0.5H347.73V0.5H350.741V-0.5ZM342.711 -0.5H339.7V0.5H342.711V-0.5ZM334.682 -0.5H331.671V0.5H334.682V-0.5ZM326.652 -0.5H323.641V0.5H326.652V-0.5ZM318.623 -0.5H315.612V0.5H318.623V-0.5ZM310.594 -0.5H307.583V0.5H310.594V-0.5ZM302.564 -0.5H299.553V0.5H302.564V-0.5ZM294.535 -0.5H291.524V0.5H294.535V-0.5ZM286.505 -0.5H283.494V0.5H286.505V-0.5ZM278.476 -0.5H275.465V0.5H278.476V-0.5ZM270.447 -0.5H267.436V0.5H270.447V-0.5ZM262.417 -0.5H259.406V0.5H262.417V-0.5ZM254.388 -0.5H251.377V0.5H254.388V-0.5ZM246.358 -0.5H243.347V0.5H246.358V-0.5ZM238.329 -0.5H235.318V0.5H238.329V-0.5ZM230.3 -0.5H227.289V0.5H230.3V-0.5ZM222.27 -0.5H219.259V0.5H222.27V-0.5ZM214.241 -0.5H211.23V0.5H214.241V-0.5ZM206.212 -0.5H203.201V0.5H206.212V-0.5ZM198.182 -0.5H195.171V0.5H198.182V-0.5ZM190.153 -0.5H187.142V0.5H190.153V-0.5ZM182.123 -0.5H179.112V0.5H182.123V-0.5ZM174.094 -0.5H171.083V0.5H174.094V-0.5ZM166.065 -0.5H163.054V0.5H166.065V-0.5ZM158.035 -0.5H155.024V0.5H158.035V-0.5ZM150.006 -0.5H146.995V0.5H150.006V-0.5ZM141.976 -0.5H138.965V0.5H141.976V-0.5ZM133.947 -0.5H130.936V0.5H133.947V-0.5ZM125.918 -0.5H122.907V0.5H125.918V-0.5ZM117.888 -0.5H114.877V0.5H117.888V-0.5ZM109.859 -0.5H106.848V0.5H109.859V-0.5ZM101.829 -0.5H98.8185V0.5H101.829V-0.5ZM93.8001 -0.5H90.7891V0.5H93.8001V-0.5ZM85.7707 -0.5H82.7597V0.5H85.7707V-0.5ZM77.7413 -0.5H74.7303V0.5H77.7413V-0.5ZM69.712 -0.5H66.7009V0.5H69.712V-0.5ZM61.6826 -0.5H58.6715V0.5H61.6826V-0.5ZM53.6532 -0.5H50.6422V0.5H53.6532V-0.5ZM45.6238 -0.5H42.6127V0.5H45.6238V-0.5ZM37.5944 -0.5H34.5833V0.5H37.5944V-0.5ZM29.5649 -0.5H26.5539V0.5H29.5649V-0.5ZM21.5355 -0.5H18.5245V0.5H21.5355V-0.5ZM13.5061 -0.5H12V0.5H13.5061V-0.5ZM12 -0.5C11.3772 -0.5 10.7647 -0.454412 10.1658 -0.366315L10.3113 0.623039C10.8622 0.542007 11.4261 0.5 12 0.5V-0.5ZM4.55314 1.95943C3.56676 2.69215 2.69215 3.56677 1.95943 4.55314L2.76217 5.14946C3.43656 4.24162 4.24162 3.43656 5.14946 2.76218L4.55314 1.95943ZM-0.366315 10.1658C-0.454412 10.7647 -0.5 11.3772 -0.5 12H0.5C0.5 11.426 0.542007 10.8622 0.623039 10.3113L-0.366315 10.1658ZM49.799 72.4267L49.0919 73.1338L49.799 72.4267ZM55.4559 72.4267L56.163 73.1338L55.4559 72.4267ZM-1 12V13.5937H1V12H-1ZM-1 18.9062V22.0938H1V18.9062H-1ZM-1 27.4062V30.5938H1V27.4062H-1ZM-1 35.9062V39.0938H1V35.9062H-1ZM-1 44.4062V46H1V44.4062H-1ZM-1 46C-1 46.6472 -0.952621 47.284 -0.860991 47.907L1.11772 47.6159C1.04022 47.089 1 46.5495 1 46H-1ZM1.55806 53.745C2.31996 54.7707 3.22935 55.6801 4.25499 56.4419L5.44763 54.8365C4.57906 54.1912 3.80877 53.421 3.16356 52.5524L1.55806 53.745ZM10.0931 58.861C10.716 58.9526 11.3528 59 12 59V57C11.4505 57 10.911 56.9598 10.3841 56.8823L10.0931 58.861ZM12 59H13.7252V57H12V59ZM19.4757 59H22.9261V57H19.4757V59ZM28.6766 59H30.4018V57H28.6766V59ZM30.4018 59C30.9453 59 31.4847 59.0402 32.0159 59.119L32.3093 57.1407C31.6815 57.0475 31.0441 57 30.4018 57V59ZM36.9545 61.1647C37.3858 61.4846 37.7956 61.8375 38.18 62.2218L39.5942 60.8076C39.14 60.3535 38.6557 59.9364 38.1459 59.5583L36.9545 61.1647ZM38.18 62.2218L39.203 63.2448L40.6172 61.8306L39.5942 60.8076L38.18 62.2218ZM42.613 66.6548L44.659 68.7008L46.0732 67.2866L44.0272 65.2406L42.613 66.6548ZM48.0689 72.1108L49.0919 73.1338L50.5061 71.7196L49.4832 70.6966L48.0689 72.1108ZM49.0919 73.1338C49.4478 73.4896 49.8454 73.7817 50.2698 74.0087L51.2132 72.2451C50.9602 72.1098 50.7216 71.935 50.5061 71.7196L49.0919 73.1338ZM54.9852 74.0087C55.4095 73.7817 55.8071 73.4896 56.163 73.1338L54.7488 71.7196C54.5334 71.935 54.2948 72.1098 54.0418 72.2451L54.9852 74.0087ZM56.163 73.1338L57.186 72.1108L55.7718 70.6966L54.7488 71.7196L56.163 73.1338ZM60.596 68.7008L62.642 66.6548L61.2278 65.2406L59.1818 67.2866L60.596 68.7008ZM66.052 63.2448L67.075 62.2218L65.6607 60.8076L64.6377 61.8306L66.052 63.2448ZM67.075 62.2218C67.4593 61.8375 67.8691 61.4846 68.3004 61.1647L67.109 59.5583C66.5992 59.9364 66.1149 60.3535 65.6607 60.8076L67.075 62.2218ZM73.2391 59.119C73.7702 59.0402 74.3096 59 74.8531 59V57C74.2109 57 73.5735 57.0475 72.9456 57.1407L73.2391 59.119ZM74.8531 59H76.3629V57H74.8531V59ZM81.3957 59H84.4154V57H81.3957V59ZM89.4482 59H92.4678V57H89.4482V59ZM97.5006 59H100.52V57H97.5006V59ZM105.553 59H108.573V57H105.553V59ZM113.606 59H116.625V57H113.606V59ZM121.658 59H124.678V57H121.658V59ZM129.71 59H132.73V57H129.71V59ZM137.763 59H140.783V57H137.763V59ZM145.815 59H148.835V57H145.815V59ZM153.868 59H156.887V57H153.868V59ZM161.92 59H164.94V57H161.92V59ZM169.973 59H172.992V57H169.973V59ZM178.025 59H181.045V57H178.025V59ZM186.078 59H189.097V57H186.078V59ZM194.13 59H197.15V57H194.13V59ZM202.182 59H205.202V57H202.182V59ZM210.235 59H213.255V57H210.235V59ZM218.287 59H221.307V57H218.287V59ZM226.34 59H229.359V57H226.34V59ZM234.392 59H237.412V57H234.392V59ZM242.445 59H245.464V57H242.445V59ZM250.497 59H253.517V57H250.497V59ZM258.55 59H261.569V57H258.55V59ZM266.602 59H269.622V57H266.602V59ZM274.654 59H277.674V57H274.654V59ZM282.707 59H285.727V57H282.707V59ZM290.759 59H293.779V57H290.759V59ZM298.812 59H301.831V57H298.812V59ZM306.864 59H309.884V57H306.864V59ZM314.917 59H317.936V57H314.917V59ZM322.969 59H325.989V57H322.969V59ZM331.022 59H334.041V57H331.022V59ZM339.074 59H342.094V57H339.074V59ZM347.126 59H350.146V57H347.126V59ZM355.179 59H358.199V57H355.179V59ZM363.231 59H366.251V57H363.231V59ZM371.284 59H374.303V57H371.284V59ZM379.336 59H382.356V57H379.336V59ZM387.389 59H390.408V57H387.389V59ZM395.441 59H398.461V57H395.441V59ZM403.493 59H406.513V57H403.493V59ZM411.546 59H414.566V57H411.546V59ZM419.598 59H422.618V57H419.598V59ZM427.651 59H430.67V57H427.651V59ZM435.703 59H438.723V57H435.703V59ZM443.756 59H446.775V57H443.756V59ZM451.808 59H454.828V57H451.808V59ZM459.86 59H462.88V57H459.86V59ZM467.913 59H470.933V57H467.913V59ZM475.965 59H478.985V57H475.965V59ZM484.018 59H487.037V57H484.018V59ZM492.07 59H495.09V57H492.07V59ZM500.123 59H503.142V57H500.123V59ZM508.175 59H511.195V57H508.175V59ZM516.227 59H519.247V57H516.227V59ZM524.28 59H527.3V57H524.28V59ZM532.332 59H535.352V57H532.332V59ZM540.385 59H543.404V57H540.385V59ZM548.437 59H551.457V57H548.437V59ZM556.49 59H558V57H556.49V59ZM558 59C558.647 59 559.284 58.9526 559.907 58.861L559.616 56.8823C559.089 56.9598 558.549 57 558 57V59ZM565.745 56.442C566.771 55.6801 567.68 54.7707 568.442 53.745L566.836 52.5524C566.191 53.421 565.421 54.1912 564.552 54.8365L565.745 56.442ZM570.861 47.907C570.953 47.284 571 46.6472 571 46H569C569 46.5495 568.96 47.089 568.882 47.6159L570.861 47.907ZM571 46V44.4062H569V46H571ZM571 39.0938V35.9062H569V39.0938H571ZM571 30.5938V27.4062H569V30.5938H571ZM571 22.0938V18.9062H569V22.0938H571ZM571 13.5938V12H569V13.5938H571ZM571 12C571 11.3528 570.953 10.716 570.861 10.093L568.882 10.3841C568.96 10.911 569 11.4505 569 12H571ZM568.442 4.25499C567.68 3.22934 566.771 2.31996 565.745 1.55806L564.552 3.16356C565.421 3.80877 566.191 4.57906 566.836 5.44762L568.442 4.25499ZM559.907 -0.86099C559.284 -0.952621 558.647 -1 558 -1V1C558.549 1 559.089 1.04022 559.616 1.11772L559.907 -0.86099ZM558 -1H556.495V1H558V-1ZM551.476 -1H548.465V1H551.476V-1ZM543.447 -1H540.436V1H543.447V-1ZM535.417 -1H532.406V1H535.417V-1ZM527.388 -1H524.377V1H527.388V-1ZM519.358 -1H516.347V1H519.358V-1ZM511.329 -1H508.318V1H511.329V-1ZM503.3 -1H500.289V1H503.3V-1ZM495.27 -1H492.259V1H495.27V-1ZM487.241 -1H484.23V1H487.241V-1ZM479.211 -1H476.2V1H479.211V-1ZM471.182 -1H468.171V1H471.182V-1ZM463.153 -1H460.142V1H463.153V-1ZM455.123 -1H452.112V1H455.123V-1ZM447.094 -1H444.083V1H447.094V-1ZM439.064 -1H436.053V1H439.064V-1ZM431.035 -1H428.024V1H431.035V-1ZM423.005 -1H419.994V1H423.005V-1ZM414.976 -1H411.965V1H414.976V-1ZM406.947 -1H403.936V1H406.947V-1ZM398.917 -1H395.906V1H398.917V-1ZM390.888 -1H387.877V1H390.888V-1ZM382.858 -1H379.847V1H382.858V-1ZM374.829 -1H371.818V1H374.829V-1ZM366.8 -1H363.789V1H366.8V-1ZM358.77 -1H355.759V1H358.77V-1ZM350.741 -1H347.73V1H350.741V-1ZM342.711 -1H339.7V1H342.711V-1ZM334.682 -1H331.671V1H334.682V-1ZM326.652 -1H323.641V1H326.652V-1ZM318.623 -1H315.612V1H318.623V-1ZM310.594 -1H307.583V1H310.594V-1ZM302.564 -1H299.553V1H302.564V-1ZM294.535 -1H291.524V1H294.535V-1ZM286.505 -1H283.494V1H286.505V-1ZM278.476 -1H275.465V1H278.476V-1ZM270.447 -1H267.436V1H270.447V-1ZM262.417 -1H259.406V1H262.417V-1ZM254.388 -1H251.377V1H254.388V-1ZM246.358 -1H243.347V1H246.358V-1ZM238.329 -1H235.318V1H238.329V-1ZM230.3 -1H227.289V1H230.3V-1ZM222.27 -1H219.259V1H222.27V-1ZM214.241 -1H211.23V1H214.241V-1ZM206.212 -1H203.201V1H206.212V-1ZM198.182 -1H195.171V1H198.182V-1ZM190.153 -1H187.142V1H190.153V-1ZM182.123 -1H179.112V1H182.123V-1ZM174.094 -1H171.083V1H174.094V-1ZM166.065 -1H163.054V1H166.065V-1ZM158.035 -1H155.024V1H158.035V-1ZM150.006 -1H146.995V1H150.006V-1ZM141.976 -1H138.965V1H141.976V-1ZM133.947 -1H130.936V1H133.947V-1ZM125.918 -1H122.907V1H125.918V-1ZM117.888 -1H114.877V1H117.888V-1ZM109.859 -1H106.848V1H109.859V-1ZM101.829 -1H98.8185V1H101.829V-1ZM93.8001 -1H90.7891V1H93.8001V-1ZM85.7707 -1H82.7597V1H85.7707V-1ZM77.7413 -1H74.7303V1H77.7413V-1ZM69.712 -1H66.7009V1H69.712V-1ZM61.6826 -1H58.6715V1H61.6826V-1ZM53.6532 -1H50.6422V1H53.6532V-1ZM45.6238 -1H42.6127V1H45.6238V-1ZM37.5944 -1H34.5833V1H37.5944V-1ZM29.5649 -1H26.5539V1H29.5649V-1ZM21.5355 -1H18.5245V1H21.5355V-1ZM13.5061 -1H12V1H13.5061V-1ZM12 -1C11.3528 -1 10.716 -0.952621 10.093 -0.860992L10.3841 1.11772C10.911 1.04022 11.4505 1 12 1V-1ZM4.25498 1.55805C3.22934 2.31995 2.31995 3.22934 1.55805 4.25498L3.16355 5.44762C3.80876 4.57905 4.57905 3.80876 5.44762 3.16355L4.25498 1.55805ZM-0.860992 10.093C-0.952621 10.716 -1 11.3528 -1 12H1C1 11.4505 1.04022 10.911 1.11772 10.3841L-0.860992 10.093Z" fill="#FEC830" mask="url(#path-1-inside-1)"/>
</svg>
