<svg width="370" height="76" viewBox="0 0 370 76" fill="none" xmlns="http://www.w3.org/2000/svg">
<mask id="path-1-inside-1" fill="white">
<path fill-rule="evenodd" clip-rule="evenodd" d="M37.1426 13.828C34.8921 16.0785 31.8399 17.3427 28.6573 17.3427H12C5.37258 17.3427 0 22.7153 0 29.3427V63.3427C0 69.9702 5.37258 75.3427 12 75.3427H358C364.627 75.3427 370 69.9702 370 63.3427V29.3427C370 22.7153 364.627 17.3427 358 17.3427H76.5976C73.415 17.3427 70.3628 16.0785 68.1124 13.828L55.4559 1.17157C53.8938 -0.390525 51.3611 -0.390525 49.799 1.17157L37.1426 13.828Z"/>
</mask>
<path fill-rule="evenodd" clip-rule="evenodd" d="M37.1426 13.828C34.8921 16.0785 31.8399 17.3427 28.6573 17.3427H12C5.37258 17.3427 0 22.7153 0 29.3427V63.3427C0 69.9702 5.37258 75.3427 12 75.3427H358C364.627 75.3427 370 69.9702 370 63.3427V29.3427C370 22.7153 364.627 17.3427 358 17.3427H76.5976C73.415 17.3427 70.3628 16.0785 68.1124 13.828L55.4559 1.17157C53.8938 -0.390525 51.3611 -0.390525 49.799 1.17157L37.1426 13.828Z" fill="#FEC830" fill-opacity="0.2"/>
<path d="M55.4559 1.17157L55.8094 0.818019V0.818019L55.4559 1.17157ZM49.799 1.17157L49.4455 0.818019V0.818019L49.799 1.17157ZM68.1124 13.828L67.7588 14.1816L68.1124 13.828ZM37.1426 13.828L36.789 13.4745L37.1426 13.828ZM12 16.8427C11.3772 16.8427 10.7647 16.8883 10.1658 16.9764L10.3113 17.9658C10.8622 17.8848 11.426 17.8427 12 17.8427V16.8427ZM4.55314 19.3022C3.56676 20.0349 2.69215 20.9095 1.95943 21.8959L2.76217 22.4922C3.43656 21.5844 4.24162 20.7793 5.14946 20.1049L4.55314 19.3022ZM-0.366315 27.5086C-0.454412 28.1075 -0.5 28.7199 -0.5 29.3427H0.5C0.5 28.7688 0.542007 28.205 0.623039 27.6541L-0.366315 27.5086ZM-0.5 29.3427V30.9365H0.5V29.3427H-0.5ZM-0.5 36.249V39.4365H0.5V36.249H-0.5ZM-0.5 44.749V47.9365H0.5V44.749H-0.5ZM-0.5 53.249V56.4365H0.5V53.249H-0.5ZM-0.5 61.749V63.3427H0.5V61.749H-0.5ZM-0.5 63.3427C-0.5 63.9656 -0.454412 64.578 -0.366315 65.1769L0.623039 65.0314C0.542007 64.4805 0.5 63.9167 0.5 63.3427H-0.5ZM1.95943 70.7896C2.69215 71.776 3.56677 72.6506 4.55314 73.3833L5.14946 72.5806C4.24162 71.9062 3.43656 71.1011 2.76218 70.1933L1.95943 70.7896ZM10.1658 75.7091C10.7647 75.7972 11.3772 75.8427 12 75.8427V74.8427C11.4261 74.8427 10.8622 74.8007 10.3113 74.7197L10.1658 75.7091ZM12 75.8427H13.5087V74.8427H12V75.8427ZM18.5378 75.8427H21.5552V74.8427H18.5378V75.8427ZM26.5843 75.8427H29.6017V74.8427H26.5843V75.8427ZM34.6308 75.8427H37.6483V74.8427H34.6308V75.8427ZM42.6773 75.8427H45.6948V74.8427H42.6773V75.8427ZM50.7238 75.8427H53.7413V74.8427H50.7238V75.8427ZM58.7703 75.8427H61.7878V74.8427H58.7703V75.8427ZM66.8169 75.8427H69.8343V74.8427H66.8169V75.8427ZM74.8634 75.8427H77.8808V74.8427H74.8634V75.8427ZM82.9099 75.8427H85.9273V74.8427H82.9099V75.8427ZM90.9564 75.8427H93.9738V74.8427H90.9564V75.8427ZM99.0029 75.8427H102.02V74.8427H99.0029V75.8427ZM107.049 75.8427H110.067V74.8427H107.049V75.8427ZM115.096 75.8427H118.113V74.8427H115.096V75.8427ZM123.142 75.8427H126.16V74.8427H123.142V75.8427ZM131.189 75.8427H134.206V74.8427H131.189V75.8427ZM139.235 75.8427H142.253V74.8427H139.235V75.8427ZM147.282 75.8427H150.299V74.8427H147.282V75.8427ZM155.328 75.8427H158.346V74.8427H155.328V75.8427ZM163.375 75.8427H166.392V74.8427H163.375V75.8427ZM171.421 75.8427H174.439V74.8427H171.421V75.8427ZM179.468 75.8427H182.485V74.8427H179.468V75.8427ZM187.515 75.8427H190.532V74.8427H187.515V75.8427ZM195.561 75.8427H198.578V74.8427H195.561V75.8427ZM203.608 75.8427H206.625V74.8427H203.608V75.8427ZM211.654 75.8427H214.671V74.8427H211.654V75.8427ZM219.701 75.8427H222.718V74.8427H219.701V75.8427ZM227.747 75.8427H230.764V74.8427H227.747V75.8427ZM235.794 75.8427H238.811V74.8427H235.794V75.8427ZM243.84 75.8427H246.857V74.8427H243.84V75.8427ZM251.887 75.8427H254.904V74.8427H251.887V75.8427ZM259.933 75.8427H262.951V74.8427H259.933V75.8427ZM267.98 75.8427H270.997V74.8427H267.98V75.8427ZM276.026 75.8427H279.044V74.8427H276.026V75.8427ZM284.073 75.8427H287.09V74.8427H284.073V75.8427ZM292.119 75.8427H295.137V74.8427H292.119V75.8427ZM300.166 75.8427H303.183V74.8427H300.166V75.8427ZM308.212 75.8427H311.23V74.8427H308.212V75.8427ZM316.259 75.8427H319.276V74.8427H316.259V75.8427ZM324.305 75.8427H327.323V74.8427H324.305V75.8427ZM332.352 75.8427H335.369V74.8427H332.352V75.8427ZM340.398 75.8427H343.416V74.8427H340.398V75.8427ZM348.445 75.8427H351.462V74.8427H348.445V75.8427ZM356.492 75.8427H358V74.8427H356.492V75.8427ZM358 75.8427C358.623 75.8427 359.235 75.7972 359.834 75.7091L359.689 74.7197C359.138 74.8007 358.574 74.8427 358 74.8427V75.8427ZM365.447 73.3833C366.433 72.6506 367.308 71.776 368.041 70.7896L367.238 70.1933C366.563 71.1011 365.758 71.9062 364.851 72.5806L365.447 73.3833ZM370.366 65.1769C370.454 64.578 370.5 63.9656 370.5 63.3427H369.5C369.5 63.9167 369.458 64.4805 369.377 65.0314L370.366 65.1769ZM370.5 63.3427V61.749H369.5V63.3427H370.5ZM370.5 56.4365V53.249H369.5V56.4365H370.5ZM370.5 47.9365V44.749H369.5V47.9365H370.5ZM370.5 39.4365V36.249H369.5V39.4365H370.5ZM370.5 30.9365V29.3427H369.5V30.9365H370.5ZM370.5 29.3427C370.5 28.7199 370.454 28.1075 370.366 27.5086L369.377 27.6541C369.458 28.205 369.5 28.7688 369.5 29.3427H370.5ZM368.041 21.8959C367.308 20.9095 366.433 20.0349 365.447 19.3022L364.851 20.1049C365.758 20.7793 366.563 21.5844 367.238 22.4922L368.041 21.8959ZM359.834 16.9764C359.235 16.8883 358.623 16.8427 358 16.8427V17.8427C358.574 17.8427 359.138 17.8848 359.689 17.9658L359.834 16.9764ZM358 16.8427H356.492V17.8427H358V16.8427ZM351.467 16.8427H348.452V17.8427H351.467V16.8427ZM343.427 16.8427H340.412V17.8427H343.427V16.8427ZM335.387 16.8427H332.372V17.8427H335.387V16.8427ZM327.347 16.8427H324.332V17.8427H327.347V16.8427ZM319.307 16.8427H316.292V17.8427H319.307V16.8427ZM311.267 16.8427H308.252V17.8427H311.267V16.8427ZM303.227 16.8427H300.212V17.8427H303.227V16.8427ZM295.187 16.8427H292.172V17.8427H295.187V16.8427ZM287.147 16.8427H284.132V17.8427H287.147V16.8427ZM279.107 16.8427H276.092V17.8427H279.107V16.8427ZM271.067 16.8427H268.052V17.8427H271.067V16.8427ZM263.027 16.8427H260.012V17.8427H263.027V16.8427ZM254.987 16.8427H251.972V17.8427H254.987V16.8427ZM246.947 16.8427H243.932V17.8427H246.947V16.8427ZM238.907 16.8427H235.892V17.8427H238.907V16.8427ZM230.866 16.8427H227.851V17.8427H230.866V16.8427ZM222.826 16.8427H219.811V17.8427H222.826V16.8427ZM214.786 16.8427H211.771V17.8427H214.786V16.8427ZM206.746 16.8427H203.731V17.8427H206.746V16.8427ZM198.706 16.8427H195.691V17.8427H198.706V16.8427ZM190.666 16.8427H187.651V17.8427H190.666V16.8427ZM182.626 16.8427H179.611V17.8427H182.626V16.8427ZM174.586 16.8427H171.571V17.8427H174.586V16.8427ZM166.546 16.8427H163.531V17.8427H166.546V16.8427ZM158.506 16.8427H155.491V17.8427H158.506V16.8427ZM150.466 16.8427H147.451V17.8427H150.466V16.8427ZM142.426 16.8427H139.411V17.8427H142.426V16.8427ZM134.386 16.8427H131.371V17.8427H134.386V16.8427ZM126.346 16.8427H123.331V17.8427H126.346V16.8427ZM118.305 16.8427H115.29V17.8427H118.305V16.8427ZM110.265 16.8427H107.25V17.8427H110.265V16.8427ZM102.225 16.8427H99.2103V17.8427H102.225V16.8427ZM94.1853 16.8427H91.1703V17.8427H94.1853V16.8427ZM86.1452 16.8427H83.1302V17.8427H86.1452V16.8427ZM78.1051 16.8427H76.5976V17.8427H78.1051V16.8427ZM76.5976 16.8427C76.0294 16.8427 75.4656 16.8007 74.9102 16.7183L74.7635 17.7075C75.3672 17.797 75.9801 17.8427 76.5976 17.8427V16.8427ZM69.7471 14.5797C69.2961 14.2452 68.8677 13.8763 68.4659 13.4745L67.7588 14.1816C68.1955 14.6183 68.6612 15.0193 69.1514 15.3829L69.7471 14.5797ZM68.4659 13.4745L67.2794 12.2879L66.5723 12.995L67.7588 14.1816L68.4659 13.4745ZM63.3242 8.33279L60.9511 5.9597L60.244 6.66681L62.6171 9.0399L63.3242 8.33279ZM56.996 2.00456L55.8094 0.818019L55.1023 1.52513L56.2889 2.71167L56.996 2.00456ZM55.8094 0.818019C55.4887 0.497265 55.1308 0.234554 54.7493 0.0304598L54.2776 0.912219C54.5735 1.07048 54.8518 1.27459 55.1023 1.52513L55.8094 0.818019ZM50.5056 0.0304595C50.1241 0.234553 49.7662 0.497265 49.4455 0.818019L50.1526 1.52513C50.4031 1.27459 50.6815 1.07048 50.9773 0.912219L50.5056 0.0304595ZM49.4455 0.818019L48.2589 2.00456L48.966 2.71167L50.1526 1.52513L49.4455 0.818019ZM44.3038 5.9597L41.9307 8.33279L42.6378 9.0399L45.0109 6.66681L44.3038 5.9597ZM37.9756 12.2879L36.789 13.4745L37.4961 14.1816L38.6827 12.995L37.9756 12.2879ZM36.789 13.4745C36.3872 13.8763 35.9588 14.2452 35.5079 14.5797L36.1036 15.3829C36.5937 15.0193 37.0594 14.6183 37.4961 14.1816L36.789 13.4745ZM30.3447 16.7183C29.7894 16.8007 29.2255 16.8427 28.6573 16.8427V17.8427C29.2749 17.8427 29.8878 17.797 30.4914 17.7075L30.3447 16.7183ZM28.6573 16.8427H27.0957V17.8427H28.6573V16.8427ZM21.8903 16.8427H18.767V17.8427H21.8903V16.8427ZM13.5616 16.8427H12V17.8427H13.5616V16.8427ZM55.4559 1.17157L56.163 0.464466V0.464465L55.4559 1.17157ZM49.799 1.17157L49.0919 0.464465V0.464466L49.799 1.17157ZM68.1124 13.828L67.4052 14.5351L68.1124 13.828ZM37.1426 13.828L36.4355 13.1209L37.1426 13.828ZM12 16.3427C11.3528 16.3427 10.716 16.3901 10.093 16.4818L10.3841 18.4605C10.911 18.383 11.4505 18.3427 12 18.3427V16.3427ZM4.25498 18.9008C3.22934 19.6627 2.31995 20.5721 1.55805 21.5977L3.16355 22.7904C3.80876 21.9218 4.57905 21.1515 5.44762 20.5063L4.25498 18.9008ZM-0.860992 27.4358C-0.952621 28.0587 -1 28.6955 -1 29.3427H1C1 28.7932 1.04022 28.2537 1.11772 27.7269L-0.860992 27.4358ZM-1 29.3427V30.9365H1V29.3427H-1ZM-1 36.249V39.4365H1V36.249H-1ZM-1 44.749V47.9365H1V44.749H-1ZM-1 53.249V56.4365H1V53.249H-1ZM-1 61.749V63.3427H1V61.749H-1ZM-1 63.3427C-1 63.99 -0.952621 64.6268 -0.860992 65.2497L1.11772 64.9586C1.04022 64.4318 1 63.8923 1 63.3427H-1ZM1.55805 71.0878C2.31995 72.1134 3.22934 73.0228 4.25498 73.7847L5.44762 72.1792C4.57905 71.534 3.80876 70.7637 3.16355 69.8951L1.55805 71.0878ZM10.093 76.2037C10.716 76.2954 11.3528 76.3427 12 76.3427V74.3427C11.4505 74.3427 10.911 74.3025 10.3841 74.225L10.093 76.2037ZM12 76.3427H13.5087V74.3427H12V76.3427ZM18.5378 76.3427H21.5552V74.3427H18.5378V76.3427ZM26.5843 76.3427H29.6017V74.3427H26.5843V76.3427ZM34.6308 76.3427H37.6483V74.3427H34.6308V76.3427ZM42.6773 76.3427H45.6948V74.3427H42.6773V76.3427ZM50.7238 76.3427H53.7413V74.3427H50.7238V76.3427ZM58.7703 76.3427H61.7878V74.3427H58.7703V76.3427ZM66.8169 76.3427H69.8343V74.3427H66.8169V76.3427ZM74.8634 76.3427H77.8808V74.3427H74.8634V76.3427ZM82.9099 76.3427H85.9273V74.3427H82.9099V76.3427ZM90.9564 76.3427H93.9738V74.3427H90.9564V76.3427ZM99.0029 76.3427H102.02V74.3427H99.0029V76.3427ZM107.049 76.3427H110.067V74.3427H107.049V76.3427ZM115.096 76.3427H118.113V74.3427H115.096V76.3427ZM123.142 76.3427H126.16V74.3427H123.142V76.3427ZM131.189 76.3427H134.206V74.3427H131.189V76.3427ZM139.235 76.3427H142.253V74.3427H139.235V76.3427ZM147.282 76.3427H150.299V74.3427H147.282V76.3427ZM155.328 76.3427H158.346V74.3427H155.328V76.3427ZM163.375 76.3427H166.392V74.3427H163.375V76.3427ZM171.421 76.3427H174.439V74.3427H171.421V76.3427ZM179.468 76.3427H182.485V74.3427H179.468V76.3427ZM187.515 76.3427H190.532V74.3427H187.515V76.3427ZM195.561 76.3427H198.578V74.3427H195.561V76.3427ZM203.608 76.3427H206.625V74.3427H203.608V76.3427ZM211.654 76.3427H214.671V74.3427H211.654V76.3427ZM219.701 76.3427H222.718V74.3427H219.701V76.3427ZM227.747 76.3427H230.764V74.3427H227.747V76.3427ZM235.794 76.3427H238.811V74.3427H235.794V76.3427ZM243.84 76.3427H246.857V74.3427H243.84V76.3427ZM251.887 76.3427H254.904V74.3427H251.887V76.3427ZM259.933 76.3427H262.951V74.3427H259.933V76.3427ZM267.98 76.3427H270.997V74.3427H267.98V76.3427ZM276.026 76.3427H279.044V74.3427H276.026V76.3427ZM284.073 76.3427H287.09V74.3427H284.073V76.3427ZM292.119 76.3427H295.137V74.3427H292.119V76.3427ZM300.166 76.3427H303.183V74.3427H300.166V76.3427ZM308.212 76.3427H311.23V74.3427H308.212V76.3427ZM316.259 76.3427H319.276V74.3427H316.259V76.3427ZM324.305 76.3427H327.323V74.3427H324.305V76.3427ZM332.352 76.3427H335.369V74.3427H332.352V76.3427ZM340.398 76.3427H343.416V74.3427H340.398V76.3427ZM348.445 76.3427H351.462V74.3427H348.445V76.3427ZM356.492 76.3427H358V74.3427H356.492V76.3427ZM358 76.3427C358.647 76.3427 359.284 76.2954 359.907 76.2037L359.616 74.225C359.089 74.3025 358.55 74.3427 358 74.3427V76.3427ZM365.745 73.7847C366.771 73.0228 367.68 72.1134 368.442 71.0878L366.836 69.8951C366.191 70.7637 365.421 71.534 364.552 72.1792L365.745 73.7847ZM370.861 65.2497C370.953 64.6268 371 63.99 371 63.3427H369C369 63.8923 368.96 64.4318 368.882 64.9586L370.861 65.2497ZM371 63.3427V61.749H369V63.3427H371ZM371 56.4365V53.249H369V56.4365H371ZM371 47.9365V44.749H369V47.9365H371ZM371 39.4365V36.249H369V39.4365H371ZM371 30.9365V29.3427H369V30.9365H371ZM371 29.3427C371 28.6955 370.953 28.0587 370.861 27.4358L368.882 27.7269C368.96 28.2537 369 28.7932 369 29.3427H371ZM368.442 21.5977C367.68 20.5721 366.771 19.6627 365.745 18.9008L364.552 20.5063C365.421 21.1515 366.191 21.9218 366.836 22.7904L368.442 21.5977ZM359.907 16.4818C359.284 16.3901 358.647 16.3427 358 16.3427V18.3427C358.55 18.3427 359.089 18.383 359.616 18.4605L359.907 16.4818ZM358 16.3427H356.492V18.3427H358V16.3427ZM351.467 16.3427H348.452V18.3427H351.467V16.3427ZM343.427 16.3427H340.412V18.3427H343.427V16.3427ZM335.387 16.3427H332.372V18.3427H335.387V16.3427ZM327.347 16.3427H324.332V18.3427H327.347V16.3427ZM319.307 16.3427H316.292V18.3427H319.307V16.3427ZM311.267 16.3427H308.252V18.3427H311.267V16.3427ZM303.227 16.3427H300.212V18.3427H303.227V16.3427ZM295.187 16.3427H292.172V18.3427H295.187V16.3427ZM287.147 16.3427H284.132V18.3427H287.147V16.3427ZM279.107 16.3427H276.092V18.3427H279.107V16.3427ZM271.067 16.3427H268.052V18.3427H271.067V16.3427ZM263.027 16.3427H260.012V18.3427H263.027V16.3427ZM254.987 16.3427H251.972V18.3427H254.987V16.3427ZM246.947 16.3427H243.932V18.3427H246.947V16.3427ZM238.907 16.3427H235.892V18.3427H238.907V16.3427ZM230.866 16.3427H227.851V18.3427H230.866V16.3427ZM222.826 16.3427H219.811V18.3427H222.826V16.3427ZM214.786 16.3427H211.771V18.3427H214.786V16.3427ZM206.746 16.3427H203.731V18.3427H206.746V16.3427ZM198.706 16.3427H195.691V18.3427H198.706V16.3427ZM190.666 16.3427H187.651V18.3427H190.666V16.3427ZM182.626 16.3427H179.611V18.3427H182.626V16.3427ZM174.586 16.3427H171.571V18.3427H174.586V16.3427ZM166.546 16.3427H163.531V18.3427H166.546V16.3427ZM158.506 16.3427H155.491V18.3427H158.506V16.3427ZM150.466 16.3427H147.451V18.3427H150.466V16.3427ZM142.426 16.3427H139.411V18.3427H142.426V16.3427ZM134.386 16.3427H131.371V18.3427H134.386V16.3427ZM126.346 16.3427H123.331V18.3427H126.346V16.3427ZM118.305 16.3427H115.29V18.3427H118.305V16.3427ZM110.265 16.3427H107.25V18.3427H110.265V16.3427ZM102.225 16.3427H99.2103V18.3427H102.225V16.3427ZM94.1853 16.3427H91.1703V18.3427H94.1853V16.3427ZM86.1452 16.3427H83.1302V18.3427H86.1452V16.3427ZM78.1051 16.3427H76.5976V18.3427H78.1051V16.3427ZM76.5976 16.3427C76.0541 16.3427 75.5147 16.3025 74.9836 16.2237L74.6901 18.2021C75.318 18.2952 75.9554 18.3427 76.5976 18.3427V16.3427ZM70.0449 14.1781C69.6136 13.8582 69.2038 13.5053 68.8195 13.1209L67.4052 14.5351C67.8594 14.9893 68.3437 15.4064 68.8535 15.7845L70.0449 14.1781ZM68.8195 13.1209L67.6329 11.9344L66.2187 13.3486L67.4052 14.5351L68.8195 13.1209ZM63.6778 7.97924L61.3047 5.60615L59.8905 7.02036L62.2636 9.39345L63.6778 7.97924ZM57.3495 1.65101L56.163 0.464466L54.7488 1.87868L55.9353 3.06522L57.3495 1.65101ZM56.163 0.464465C55.8071 0.108601 55.4095 -0.183411 54.9852 -0.41042L54.0418 1.3531C54.2948 1.48845 54.5334 1.66326 54.7488 1.87868L56.163 0.464465ZM50.2698 -0.41042C49.8454 -0.183411 49.4478 0.1086 49.0919 0.464465L50.5061 1.87868C50.7216 1.66326 50.9602 1.48845 51.2132 1.3531L50.2698 -0.41042ZM49.0919 0.464466L47.9054 1.65101L49.3196 3.06522L50.5061 1.87868L49.0919 0.464466ZM43.9502 5.60615L41.5772 7.97924L42.9914 9.39345L45.3645 7.02036L43.9502 5.60615ZM37.622 11.9344L36.4355 13.1209L37.8497 14.5351L39.0362 13.3486L37.622 11.9344ZM36.4355 13.1209C36.0511 13.5053 35.6413 13.8582 35.21 14.1781L36.4014 15.7845C36.9112 15.4064 37.3955 14.9893 37.8497 14.5351L36.4355 13.1209ZM30.2714 16.2237C29.7402 16.3025 29.2008 16.3427 28.6573 16.3427V18.3427C29.2996 18.3427 29.937 18.2952 30.5648 18.2021L30.2714 16.2237ZM28.6573 16.3427H27.0957V18.3427H28.6573V16.3427ZM21.8903 16.3427H18.767V18.3427H21.8903V16.3427ZM13.5616 16.3427H12V18.3427H13.5616V16.3427Z" fill="#FEC830" mask="url(#path-1-inside-1)"/>
</svg>
