<svg aria-hidden="true" style="position: absolute; width: 0; height: 0; overflow: hidden;" version="1.1" xmlns="http://www.w3.org/2000/svg" xmlns:xlink="http://www.w3.org/1999/xlink">
<defs>
<symbol id="icon-arrow-bottom" viewBox="0 0 32 32">
<path d="M29.702 8.076c0.694 0.694 0.694 1.82 0 2.514l-12.444 12.444c-0.694 0.694-1.82 0.694-2.514 0l-12.444-12.444c-0.694-0.694-0.694-1.82 0-2.514s1.82-0.694 2.514 0l11.187 11.187 11.187-11.187c0.694-0.694 1.82-0.694 2.514 0z"></path>
</symbol>
<symbol id="icon-calendar" viewBox="0 0 32 32">
<path d="M10 1.667c0.736 0 1.333 0.597 1.333 1.333v0.667l9.333 0v-0.667c0-0.736 0.597-1.333 1.333-1.333s1.333 0.597 1.333 1.333v0.667h1.667c2.946 0 5.333 2.388 5.333 5.333v16c0 2.945-2.388 5.333-5.333 5.333h-18c-2.946 0-5.333-2.388-5.333-5.333v-16c0-2.946 2.388-5.333 5.333-5.333h1.667v-0.667c0-0.736 0.597-1.333 1.333-1.333zM8.666 6.333h-1.667c-1.473 0-2.667 1.194-2.667 2.667v1.667h23.333v-1.667c0-1.473-1.194-2.667-2.667-2.667h-1.667v0.667c0 0.736-0.597 1.333-1.333 1.333s-1.333-0.597-1.333-1.333v-0.667l-9.333-0v0.667c0 0.736-0.597 1.333-1.333 1.333s-1.333-0.597-1.333-1.333v-0.667zM27.667 13.333h-23.333v11.667c0 1.473 1.194 2.667 2.667 2.667h18c1.473 0 2.667-1.194 2.667-2.667v-11.667z"></path>
</symbol>
<symbol id="icon-check" viewBox="0 0 32 32">
<path d="M15.536 26.267c5.626 0 10.203-4.695 10.203-10.467 0-0.996-0.136-1.978-0.404-2.918-0.132-0.462-0.603-0.728-1.055-0.592s-0.709 0.62-0.577 1.082c0.222 0.781 0.335 1.598 0.335 2.428 0 4.809-3.814 8.722-8.503 8.722s-8.503-3.913-8.503-8.722c0-4.809 3.814-8.722 8.503-8.722 1.704 0 3.343 0.511 4.741 1.478 0.389 0.269 0.918 0.164 1.18-0.236s0.16-0.942-0.229-1.211c-1.679-1.162-3.647-1.776-5.691-1.776-5.626 0-10.203 4.695-10.203 10.467s4.577 10.467 10.203 10.467z"></path>
<path d="M25.083 6.563l-9.547 9.794-3.054-3.133c-0.362-0.371-0.949-0.371-1.312 0s-0.362 0.974 0 1.346l3.71 3.806c0.181 0.186 0.418 0.279 0.656 0.279s0.474-0.093 0.656-0.279l10.203-10.467c0.362-0.372 0.362-0.974 0-1.345s-0.949-0.371-1.312 0z"></path>
</symbol>
<symbol id="icon-clock" viewBox="0 0 32 32">
<path d="M17.333 8.667c0-0.736-0.597-1.333-1.333-1.333s-1.333 0.597-1.333 1.333v7.333c0 0.354 0.14 0.693 0.391 0.943l4 4c0.521 0.521 1.365 0.521 1.886 0s0.521-1.365 0-1.886l-3.61-3.609v-6.781z"></path>
<path d="M16 1.333c-8.1 0-14.667 6.566-14.667 14.667s6.566 14.667 14.667 14.667c8.1 0 14.667-6.567 14.667-14.667s-6.567-14.667-14.667-14.667zM4 16c0-6.627 5.373-12 12-12s12 5.373 12 12c0 6.627-5.373 12-12 12s-12-5.373-12-12z"></path>
</symbol>
<symbol id="icon-doc" viewBox="0 0 32 32">
<path d="M10.98 17.882c0-0.693 0.562-1.255 1.255-1.255h7.529c0.693 0 1.255 0.562 1.255 1.255s-0.562 1.255-1.255 1.255h-7.529c-0.693 0-1.255-0.562-1.255-1.255z"></path>
<path d="M10.98 22.588c0-0.693 0.562-1.255 1.255-1.255h3.765c0.693 0 1.255 0.562 1.255 1.255s-0.562 1.255-1.255 1.255h-3.765c-0.693 0-1.255-0.562-1.255-1.255z"></path>
<path d="M12.289 2.877c0.235-0.235 0.555-0.368 0.887-0.368h8.471c2.772 0 5.019 2.247 5.019 5.020v16.941c0 2.772-2.247 5.020-5.019 5.020h-11.294c-2.772 0-5.020-2.247-5.020-5.020l0-14.118c0-0.333 0.132-0.652 0.368-0.887l6.588-6.588zM12.863 5.853v4.186h-4.186l4.186-4.186zM7.843 12.549l-0 11.921c0 1.386 1.124 2.51 2.51 2.51h11.294c1.386 0 2.51-1.124 2.51-2.51v-16.941c0-1.386-1.124-2.51-2.51-2.51h-6.275v6.275c0 0.693-0.562 1.255-1.255 1.255h-6.274z"></path>
</symbol>
<symbol id="icon-mic" viewBox="0 0 32 32">
<path d="M8.267 8.533c0-4.271 3.462-7.733 7.733-7.733s7.733 3.462 7.733 7.733v6.4c0 4.271-3.462 7.733-7.733 7.733s-7.733-3.462-7.733-7.733v-6.4zM16 3.467c-2.798 0-5.067 2.268-5.067 5.067v6.4c0 2.798 2.268 5.067 5.067 5.067s5.067-2.268 5.067-5.067v-6.4c0-2.798-2.268-5.067-5.067-5.067z"></path>
<path d="M5.333 11.467c0.736 0 1.333 0.597 1.333 1.333v2.133c0 5.155 4.179 9.333 9.333 9.333s9.333-4.179 9.333-9.333v-2.133c0-0.736 0.597-1.333 1.333-1.333s1.333 0.597 1.333 1.333v2.133c0 6.627-5.373 12-12 12s-12-5.373-12-12v-2.133c0-0.736 0.597-1.333 1.333-1.333z"></path>
<path d="M16 25.333c0.736 0 1.333 0.597 1.333 1.333v1.867h2.933c0.736 0 1.333 0.597 1.333 1.333s-0.597 1.333-1.333 1.333h-8.533c-0.736 0-1.333-0.597-1.333-1.333s0.597-1.333 1.333-1.333h2.933v-1.867c0-0.736 0.597-1.333 1.333-1.333z"></path>
</symbol>
<symbol id="icon-next-btn" viewBox="0 0 32 32">
<path d="M19.724 9.057c0.521-0.521 1.365-0.521 1.886 0l6 6c0.521 0.521 0.521 1.365 0 1.886l-6 6c-0.521 0.521-1.365 0.521-1.886 0s-0.521-1.365 0-1.886l3.724-3.724h-18.114c-0.736 0-1.333-0.597-1.333-1.333s0.597-1.333 1.333-1.333h18.114l-3.724-3.724c-0.521-0.521-0.521-1.365 0-1.886z"></path>
</symbol>
<symbol id="icon-play" viewBox="0 0 32 32">
<path stroke-linejoin="miter" stroke-linecap="butt" stroke-miterlimit="4" stroke-width="2" d="M20.412 16.795l1.039-0.794-8.206-6.272c0.474-0.136 1.011-0.066 1.465 0.281l6.107 4.667c0.873 0.667 0.873 1.981 0 2.648l-6.107 4.667c-0.454 0.347-0.991 0.416-1.465 0.28l7.167-5.477zM12.031 11.333c0-0.571 0.271-1.040 0.667-1.334v12.003c-0.396-0.294-0.667-0.763-0.667-1.334v-9.335zM16 3c-7.18 0-13 5.82-13 13s5.82 13 13 13 13-5.82 13-13c0-7.18-5.82-13-13-13zM2.333 16c0-7.548 6.119-13.667 13.667-13.667s13.667 6.119 13.667 13.667c0 7.548-6.119 13.667-13.667 13.667s-13.667-6.119-13.667-13.667z"></path>
</symbol>
<symbol id="icon-prev-btn" viewBox="0 0 32 32">
<path d="M12.276 22.943c-0.521 0.521-1.365 0.521-1.886 0l-6-6c-0.521-0.521-0.521-1.365 0-1.886l6-6c0.521-0.521 1.365-0.521 1.886 0s0.521 1.365 0 1.886l-3.724 3.724h18.114c0.736 0 1.333 0.597 1.333 1.333s-0.597 1.333-1.333 1.333h-18.114l3.724 3.724c0.521 0.521 0.521 1.365 0 1.886z"></path>
</symbol>
<symbol id="icon-search" viewBox="0 0 32 32">
<path stroke-linejoin="miter" stroke-linecap="butt" stroke-miterlimit="4" stroke-width="2" d="M14.5 3.333c-6.167 0-11.167 4.999-11.167 11.167s4.999 11.167 11.167 11.167c3.081 0 5.87-1.247 7.89-3.265 2.025-2.022 3.276-4.815 3.276-7.902 0-6.167-5-11.167-11.167-11.167zM2.667 14.5c0-6.535 5.298-11.833 11.833-11.833s11.833 5.298 11.833 11.833c0 0.477-0.028 0.947-0.083 1.408-0.245 2.063-0.4 4.355-0.102 6.527 0.299 2.179 1.064 4.31 2.72 5.963l0.366 0.366c0.13 0.13 0.13 0.341 0 0.471s-0.341 0.13-0.471 0l-0.384-0.384c-1.653-1.65-3.779-2.411-5.954-2.708-2.167-0.296-4.454-0.14-6.512 0.105-0.464 0.055-0.936 0.084-1.415 0.084-6.535 0-11.833-5.298-11.833-11.833z"></path>
</symbol>
<symbol id="icon-checkbox-checked" viewBox="0 0 32 32">
<path d="M28 0h-24c-2.2 0-4 1.8-4 4v24c0 2.2 1.8 4 4 4h24c2.2 0 4-1.8 4-4v-24c0-2.2-1.8-4-4-4zM14 24.828l-7.414-7.414 2.828-2.828 4.586 4.586 9.586-9.586 2.828 2.828-12.414 12.414z"></path>
</symbol>
</defs>
</svg>
