<svg width="16" height="16" viewBox="0 0 16 16" fill="none" xmlns="http://www.w3.org/2000/svg">
<path fill-rule="evenodd" clip-rule="evenodd" d="M4.99992 0.833313C5.36811 0.833313 5.66658 1.13179 5.66658 1.49998V1.83332L10.3333 1.83333V1.49998C10.3333 1.13179 10.6317 0.833313 10.9999 0.833313C11.3681 0.833313 11.6666 1.13179 11.6666 1.49998V1.83333L12.4999 1.83333C13.9727 1.83334 15.1666 3.02724 15.1666 4.5V12.5C15.1666 13.9727 13.9727 15.1666 12.4999 15.1666L3.49992 15.1666C2.02716 15.1666 0.833252 13.9727 0.833252 12.5L0.833252 6.00011L0.833252 4.49998C0.833252 3.02722 2.02716 1.83331 3.49992 1.83332L4.33325 1.83332V1.49998C4.33325 1.13179 4.63173 0.833313 4.99992 0.833313ZM4.33325 3.16665L3.49992 3.16665C2.76354 3.16665 2.16659 3.7636 2.16659 4.49998V5.33331H13.8333V4.5C13.8333 3.76362 13.2363 3.16667 12.4999 3.16667L11.6666 3.16667V3.49998C11.6666 3.86817 11.3681 4.16665 10.9999 4.16665C10.6317 4.16665 10.3333 3.86817 10.3333 3.49998V3.16666L5.66658 3.16665V3.49998C5.66658 3.86817 5.36811 4.16665 4.99992 4.16665C4.63173 4.16665 4.33325 3.86817 4.33325 3.49998V3.16665ZM13.8333 6.66665H2.16659L2.16659 12.5C2.16659 13.2364 2.76354 13.8333 3.49992 13.8333L12.4999 13.8333C13.2363 13.8333 13.8333 13.2364 13.8333 12.5V6.66665Z" fill="#504C5C" fill-opacity="0.5"/>
</svg>
