<svg width="24" height="24" viewBox="0 0 24 24" fill="none" xmlns="http://www.w3.org/2000/svg">
<path d="M11.6523 19.7C15.8716 19.7 19.3046 16.1786 19.3046 11.85C19.3046 11.1029 19.2029 10.3666 19.0016 9.66151C18.9025 9.31478 18.5495 9.11563 18.2106 9.21736C17.8723 9.31878 17.6788 9.68211 17.7776 10.0288C17.9444 10.6147 18.0292 11.2276 18.0292 11.85C18.0292 15.457 15.1685 18.3917 11.6523 18.3917C8.13612 18.3917 5.27538 15.457 5.27538 11.85C5.27538 8.24298 8.13612 5.30833 11.6523 5.30833C12.9302 5.30833 14.1596 5.69163 15.2077 6.41655C15.4995 6.61858 15.8962 6.53921 16.0928 6.23991C16.2896 5.9403 16.2128 5.53368 15.9207 5.33181C14.6612 4.4606 13.1853 4 11.6523 4C7.43304 4 4 7.52142 4 11.85C4 16.1786 7.43304 19.7 11.6523 19.7Z" fill="#AA43A2"/>
<path d="M18.8126 4.92258L11.6522 12.2677L9.36137 9.91803C9.08963 9.63944 8.6494 9.63944 8.37766 9.91803C8.10609 10.1968 8.10609 10.6484 8.37766 10.9272L11.1603 13.7817C11.2964 13.9213 11.474 13.9908 11.6522 13.9908C11.8303 13.9908 12.008 13.9213 12.144 13.7817L19.7963 5.93171C20.0679 5.65294 20.0679 5.20134 19.7963 4.92258C19.5246 4.64399 19.0844 4.64399 18.8126 4.92258Z" fill="#AA43A2"/>
</svg>
