<svg width="16" height="16" viewBox="0 0 16 16" fill="none" xmlns="http://www.w3.org/2000/svg">
<path d="M8.66663 4.33335C8.66663 3.96516 8.36815 3.66669 7.99996 3.66669C7.63177 3.66669 7.33329 3.96516 7.33329 4.33335V8.00002C7.33329 8.17683 7.40353 8.3464 7.52855 8.47142L9.52855 10.4714C9.7889 10.7318 10.211 10.7318 10.4714 10.4714C10.7317 10.2111 10.7317 9.78896 10.4714 9.52861L8.66663 7.72388V4.33335Z" fill="#504C5C" fill-opacity="0.5"/>
<path fill-rule="evenodd" clip-rule="evenodd" d="M7.99996 0.666687C3.94987 0.666687 0.666626 3.94993 0.666626 8.00002C0.666626 12.0501 3.94987 15.3334 7.99996 15.3334C12.05 15.3334 15.3333 12.0501 15.3333 8.00002C15.3333 3.94993 12.05 0.666687 7.99996 0.666687ZM1.99996 8.00002C1.99996 4.68631 4.68625 2.00002 7.99996 2.00002C11.3137 2.00002 14 4.68631 14 8.00002C14 11.3137 11.3137 14 7.99996 14C4.68625 14 1.99996 11.3137 1.99996 8.00002Z" fill="#504C5C" fill-opacity="0.5"/>
</svg>
