<svg width="16" height="17" viewBox="0 0 16 17" fill="none" xmlns="http://www.w3.org/2000/svg">
<path fill-rule="evenodd" clip-rule="evenodd" d="M5.33337 9.50004C5.33337 9.13185 5.63185 8.83337 6.00004 8.83337H10C10.3682 8.83337 10.6667 9.13185 10.6667 9.50004C10.6667 9.86823 10.3682 10.1667 10 10.1667H6.00004C5.63185 10.1667 5.33337 9.86823 5.33337 9.50004Z" fill="#504C5C" fill-opacity="0.5"/>
<path fill-rule="evenodd" clip-rule="evenodd" d="M5.33337 12C5.33337 11.6319 5.63185 11.3334 6.00004 11.3334H8.00004C8.36823 11.3334 8.66671 11.6319 8.66671 12C8.66671 12.3682 8.36823 12.6667 8.00004 12.6667H6.00004C5.63185 12.6667 5.33337 12.3682 5.33337 12Z" fill="#504C5C" fill-opacity="0.5"/>
<path fill-rule="evenodd" clip-rule="evenodd" d="M6.02865 1.52864C6.15368 1.40361 6.32325 1.33337 6.50006 1.33337H11.0001C12.4728 1.33337 13.6667 2.52728 13.6667 4.00004L13.6667 13C13.6667 14.4728 12.4728 15.6667 11.0001 15.6667H5.00004C3.52728 15.6667 2.33337 14.4728 2.33337 13L2.33339 5.50004C2.33339 5.32323 2.40363 5.15366 2.52865 5.02864L6.02865 1.52864ZM6.33337 3.10954V5.33337H4.10953L6.33337 3.10954ZM3.66672 6.66671L3.66671 13C3.66671 13.7364 4.26366 14.3334 5.00004 14.3334H11.0001C11.7364 14.3334 12.3334 13.7364 12.3334 13L12.3334 4.00004C12.3334 3.26366 11.7364 2.66671 11.0001 2.66671H7.6667V6.00004C7.6667 6.36823 7.36823 6.66671 7.00004 6.66671H3.66672Z" fill="#504C5C" fill-opacity="0.5"/>
</svg>
