<svg width="24" height="24" viewBox="0 0 24 24" fill="none" xmlns="http://www.w3.org/2000/svg">
<circle cx="12" cy="12" r="11.3" stroke="#504C5C" stroke-opacity="0.5" stroke-width="1.4"/>
<path d="M12 7.08107C13.6021 7.08107 13.7918 7.0872 14.4245 7.11606C15.0095 7.14274 15.3272 7.24048 15.5386 7.32265C15.8187 7.43149 16.0186 7.56151 16.2285 7.77146C16.4385 7.98143 16.5685 8.1813 16.6773 8.46136C16.7595 8.67278 16.8573 8.99048 16.8839 9.57547C16.9128 10.2081 16.9189 10.3979 16.9189 12C16.9189 13.602 16.9128 13.7918 16.8839 14.4245C16.8573 15.0095 16.7595 15.3272 16.6773 15.5386C16.5685 15.8187 16.4385 16.0185 16.2285 16.2285C16.0186 16.4384 15.8187 16.5685 15.5386 16.6773C15.3272 16.7595 15.0095 16.8572 14.4245 16.8839C13.7919 16.9128 13.6022 16.9189 12 16.9189C10.3978 16.9189 10.2081 16.9128 9.57548 16.8839C8.99049 16.8572 8.67279 16.7595 8.46137 16.6773C8.18131 16.5685 7.98143 16.4384 7.77149 16.2285C7.56154 16.0185 7.4315 15.8187 7.32265 15.5386C7.24049 15.3272 7.14274 15.0095 7.11607 14.4245C7.0872 13.7918 7.08108 13.602 7.08108 12C7.08108 10.3979 7.0872 10.2081 7.11607 9.57547C7.14274 8.99048 7.24049 8.67278 7.32265 8.46136C7.4315 8.1813 7.56152 7.98143 7.77149 7.77148C7.98143 7.56151 8.18131 7.43149 8.46137 7.32265C8.67279 7.24048 8.99049 7.14274 9.57548 7.11606C10.2082 7.0872 10.3979 7.08107 12 7.08107ZM12 6C10.3705 6 10.1662 6.00691 9.52621 6.03611C8.88758 6.06523 8.45141 6.16667 8.06977 6.31498C7.67522 6.46831 7.34061 6.67347 7.00703 7.00703C6.67347 7.34061 6.46831 7.67521 6.315 8.06976C6.16667 8.45141 6.06523 8.88757 6.03611 9.52619C6.00691 10.1662 6 10.3705 6 12C6 13.6295 6.00691 13.8338 6.03611 14.4738C6.06523 15.1124 6.16667 15.5485 6.315 15.9302C6.46831 16.3247 6.67347 16.6593 7.00703 16.9929C7.34061 17.3265 7.67522 17.5316 8.06977 17.6849C8.45141 17.8333 8.88758 17.9347 9.52621 17.9638C10.1662 17.993 10.3705 18 12 18C13.6295 18 13.8338 17.993 14.4738 17.9638C15.1124 17.9347 15.5486 17.8333 15.9302 17.6849C16.3248 17.5316 16.6594 17.3265 16.993 16.9929C17.3265 16.6593 17.5317 16.3247 17.685 15.9302C17.8333 15.5485 17.9348 15.1124 17.9639 14.4738C17.9931 13.8338 18 13.6295 18 12C18 10.3705 17.9931 10.1662 17.9639 9.52619C17.9348 8.88757 17.8333 8.45141 17.685 8.06976C17.5317 7.67521 17.3265 7.34061 16.993 7.00703C16.6594 6.67347 16.3248 6.46831 15.9302 6.31498C15.5486 6.16667 15.1124 6.06523 14.4738 6.03611C13.8338 6.00691 13.6295 6 12 6Z" fill="#504C5C" fill-opacity="0.5"/>
<path d="M12.0003 8.92169C10.2986 8.92169 8.91919 10.3011 8.91919 12.0027C8.91919 13.7044 10.2986 15.0838 12.0003 15.0838C13.7019 15.0838 15.0813 13.7044 15.0813 12.0027C15.0813 10.3011 13.7019 8.92169 12.0003 8.92169ZM12.0003 14.0028C10.8957 14.0028 10.0003 13.1073 10.0003 12.0027C10.0003 10.8982 10.8957 10.0028 12.0003 10.0028C13.1048 10.0028 14.0003 10.8982 14.0003 12.0027C14.0003 13.1073 13.1048 14.0028 12.0003 14.0028Z" fill="#504C5C" fill-opacity="0.5"/>
<path d="M15.9271 8.79808C15.9271 9.1957 15.6047 9.51806 15.207 9.51806C14.8094 9.51806 14.4871 9.1957 14.4871 8.79808C14.4871 8.40043 14.8094 8.07806 15.207 8.07806C15.6047 8.07806 15.9271 8.40043 15.9271 8.79808Z" fill="#504C5C" fill-opacity="0.5"/>
</svg>
