<svg width="16" height="16" viewBox="0 0 16 16" fill="none" xmlns="http://www.w3.org/2000/svg">
<path fill-rule="evenodd" clip-rule="evenodd" d="M4.13333 4.26669C4.13333 2.13119 5.8645 0.400024 8 0.400024C10.1355 0.400024 11.8667 2.13119 11.8667 4.26669V7.46669C11.8667 9.60219 10.1355 11.3334 8 11.3334C5.8645 11.3334 4.13333 9.60219 4.13333 7.46669V4.26669ZM8 1.73336C6.60088 1.73336 5.46667 2.86757 5.46667 4.26669V7.46669C5.46667 8.86581 6.60088 10 8 10C9.39912 10 10.5333 8.86581 10.5333 7.46669V4.26669C10.5333 2.86757 9.39912 1.73336 8 1.73336Z" fill="#504C5C" fill-opacity="0.5"/>
<path fill-rule="evenodd" clip-rule="evenodd" d="M2.66667 5.73336C3.03486 5.73336 3.33333 6.03183 3.33333 6.40002V7.46669C3.33333 10.044 5.42267 12.1334 8 12.1334C10.5773 12.1334 12.6667 10.044 12.6667 7.46669V6.40002C12.6667 6.03183 12.9651 5.73336 13.3333 5.73336C13.7015 5.73336 14 6.03183 14 6.40002V7.46669C14 10.7804 11.3137 13.4667 8 13.4667C4.68629 13.4667 2 10.7804 2 7.46669V6.40002C2 6.03183 2.29848 5.73336 2.66667 5.73336Z" fill="#504C5C" fill-opacity="0.5"/>
<path fill-rule="evenodd" clip-rule="evenodd" d="M8 12.6667C8.36819 12.6667 8.66667 12.9652 8.66667 13.3334V14.2667H10.1333C10.5015 14.2667 10.8 14.5652 10.8 14.9334C10.8 15.3015 10.5015 15.6 10.1333 15.6H5.86667C5.49848 15.6 5.2 15.3015 5.2 14.9334C5.2 14.5652 5.49848 14.2667 5.86667 14.2667H7.33333V13.3334C7.33333 12.9652 7.63181 12.6667 8 12.6667Z" fill="#504C5C" fill-opacity="0.5"/>
</svg>
