<svg width="16" height="16" viewBox="0 0 16 16" fill="none" xmlns="http://www.w3.org/2000/svg">
<path d="M10.2058 8.3973L10.7255 8.00005L10.2058 7.60279L7.15249 5.26917L6.62247 4.86407C6.85931 4.79616 7.1279 4.83083 7.3549 5.00433L10.4082 7.33795C10.8446 7.67149 10.8446 8.32861 10.4082 8.66214L7.3549 10.9958C7.1279 11.1693 6.85931 11.2039 6.62247 11.136L7.15249 10.7309L10.2058 8.3973ZM6.01553 5.66642C6.01553 5.3807 6.15109 5.14625 6.34887 4.99932V5.66642L6.34887 10.3337V11.0008C6.15109 10.8538 6.01553 10.6194 6.01553 10.3337V5.66642ZM7.99996 1.50002C4.41011 1.50002 1.49996 4.41017 1.49996 8.00002C1.49996 11.5899 4.41011 14.5 7.99996 14.5C11.5898 14.5 14.5 11.5899 14.5 8.00002C14.5 4.41017 11.5898 1.50002 7.99996 1.50002ZM1.16663 8.00002C1.16663 4.22607 4.22601 1.16669 7.99996 1.16669C11.7739 1.16669 14.8333 4.22607 14.8333 8.00002C14.8333 11.774 11.7739 14.8334 7.99996 14.8334C4.22601 14.8334 1.16663 11.774 1.16663 8.00002Z" stroke="#504C5C" stroke-opacity="0.5"/>
</svg>
