<svg width="16" height="16" viewBox="0 0 16 16" fill="none" xmlns="http://www.w3.org/2000/svg">
<path d="M7.24992 1.66671C4.16633 1.66671 1.66659 4.16645 1.66659 7.25004C1.66659 10.3336 4.16633 12.8334 7.24992 12.8334C8.79027 12.8334 10.1847 12.2098 11.1951 11.2009C12.2074 10.1901 12.8333 8.79329 12.8333 7.25004C12.8333 4.16645 10.3335 1.66671 7.24992 1.66671ZM1.33325 7.25004C1.33325 3.98236 3.98223 1.33337 7.24992 1.33337C10.5176 1.33337 13.1666 3.98236 13.1666 7.25004C13.1666 7.48851 13.1525 7.7235 13.1251 7.95427C13.0028 8.98555 12.9253 10.1316 13.0743 11.2177C13.2237 12.3071 13.6062 13.3725 14.4345 14.1992L14.6177 14.3821C14.6828 14.4471 14.6829 14.5526 14.6179 14.6178C14.5529 14.6829 14.4473 14.683 14.3822 14.618L14.19 14.4262C13.3636 13.6013 12.3003 13.2206 11.2132 13.0723C10.1296 12.9244 8.98638 13.0023 7.95738 13.1249C7.72558 13.1525 7.4895 13.1667 7.24992 13.1667C3.98223 13.1667 1.33325 10.5177 1.33325 7.25004Z" stroke="#504C5C" stroke-opacity="0.5"/>
</svg>
