<svg aria-hidden="true" style="position: absolute; width: 0; height: 0; overflow: hidden;" version="1.1" xmlns="http://www.w3.org/2000/svg" xmlns:xlink="http://www.w3.org/1999/xlink">
<defs>
<symbol id="icon-search" viewBox="0 0 32 32">
<path fill="#fff" style="fill: var(--color1, #fff)" d="M24.775 22.604l6.576 6.574-2.172 2.172-6.574-6.576c-2.446 1.961-5.489 3.028-8.624 3.023-7.628 0-13.818-6.191-13.818-13.818s6.191-13.818 13.818-13.818c7.628 0 13.818 6.191 13.818 13.818 0.004 3.135-1.062 6.178-3.023 8.624zM21.695 21.465c1.948-2.004 3.037-4.69 3.032-7.485 0-5.939-4.81-10.748-10.748-10.748-5.939 0-10.747 4.809-10.747 10.748 0 5.937 4.809 10.747 10.747 10.747 2.795 0.004 5.481-1.084 7.485-3.032l0.23-0.23z"></path>
</symbol>
<symbol id="icon-small-clock" viewBox="0 0 32 32">
<path d="M15.984 0c-8.832 0-15.984 7.168-15.984 16s7.152 16 15.984 16c8.848 0 16.016-7.168 16.016-16s-7.168-16-16.016-16zM16 28.8c-7.072 0-12.8-5.728-12.8-12.8s5.728-12.8 12.8-12.8c7.072 0 12.8 5.728 12.8 12.8s-5.728 12.8-12.8 12.8zM16.8 8h-2.4v9.6l8.4 5.040 1.2-1.968-7.2-4.272v-8.4z"></path>
</symbol>
</defs>
</svg>
