<svg aria-hidden="true" style="position: absolute; width: 0; height: 0; overflow: hidden;" version="1.1" xmlns="http://www.w3.org/2000/svg" xmlns:xlink="http://www.w3.org/1999/xlink">
<defs>
<symbol id="icon-search" viewBox="0 0 32 32">
<path d="M28.5492 26.3103L35.3306 33.0901L33.0902 35.3305L26.3103 28.5491C23.7877 30.5714 20.6499 31.6713 17.4167 31.6667C9.55075 31.6667 3.16675 25.2827 3.16675 17.4167C3.16675 9.55069 9.55075 3.16669 17.4167 3.16669C25.2827 3.16669 31.6667 9.55069 31.6667 17.4167C31.6713 20.6499 30.5714 23.7876 28.5492 26.3103ZM25.373 25.1354C27.3824 23.069 28.5046 20.299 28.5001 17.4167C28.5001 11.2924 23.5395 6.33335 17.4167 6.33335C11.2924 6.33335 6.33341 11.2924 6.33341 17.4167C6.33341 23.5394 11.2924 28.5 17.4167 28.5C20.2991 28.5046 23.0691 27.3824 25.1355 25.3729L25.373 25.1354Z" fill="white"/>
</symbol>
<symbol id="icon-small-clock" viewBox="0 0 32 32">
<path d="M15.984 0c-8.832 0-15.984 7.168-15.984 16s7.152 16 15.984 16c8.848 0 16.016-7.168 16.016-16s-7.168-16-16.016-16zM16 28.8c-7.072 0-12.8-5.728-12.8-12.8s5.728-12.8 12.8-12.8c7.072 0 12.8 5.728 12.8 12.8s-5.728 12.8-12.8 12.8zM16.8 8h-2.4v9.6l8.4 5.040 1.2-1.968-7.2-4.272v-8.4z"></path>
</symbol>
</defs>
</svg>
