<svg width="372" height="127" viewBox="0 0 372 127" fill="none" xmlns="http://www.w3.org/2000/svg">
<path d="M-9.52499 18.3531C-9.92043 18.4764 -10.141 18.8969 -10.0177 19.2924C-9.89443 19.6878 -9.47391 19.9084 -9.07848 19.7851L-9.52499 18.3531ZM201.759 100.4L201.169 99.9374L201.759 100.4ZM370.338 126.353C370.534 126.719 370.988 126.857 371.353 126.662C371.719 126.466 371.857 126.012 371.661 125.647L370.338 126.353ZM-8.1169 19.4866C-7.72116 19.3642 -7.49954 18.9442 -7.62189 18.5485C-7.74424 18.1528 -8.16422 17.9311 -8.55996 18.0535L-8.1169 19.4866ZM-3.74943 16.5979C-4.14661 16.7155 -4.37329 17.1328 -4.25573 17.53C-4.13817 17.9271 -3.72089 18.1538 -3.32371 18.0363L-3.74943 16.5979ZM-1.41338 17.4758C-1.01563 17.3602 -0.786941 16.944 -0.902578 16.5463C-1.01822 16.1485 -1.43439 15.9198 -1.83214 16.0355L-1.41338 17.4758ZM2.94345 14.6783C2.54434 14.7891 2.31063 15.2025 2.42144 15.6016C2.53226 16.0007 2.94564 16.2344 3.34475 16.1236L2.94345 14.6783ZM5.24084 15.6021C5.64048 15.4932 5.8762 15.081 5.76732 14.6813C5.65843 14.2817 5.24619 14.046 4.84654 14.1548L5.24084 15.6021ZM9.70273 12.8641C9.30176 12.968 9.06094 13.3773 9.16485 13.7783C9.26876 14.1792 9.67804 14.4201 10.079 14.3162L9.70273 12.8641ZM12.012 13.8204C12.4135 13.7185 12.6563 13.3104 12.5544 12.9089C12.4525 12.5074 12.0444 12.2646 11.6429 12.3665L12.012 13.8204ZM16.4737 11.1723C16.071 11.2692 15.823 11.6742 15.9199 12.0769C16.0168 12.4797 16.4218 12.7276 16.8245 12.6307L16.4737 11.1723ZM18.7415 12.1746C19.1447 12.0797 19.3947 11.676 19.2998 11.2728C19.2049 10.8696 18.8012 10.6196 18.398 10.7145L18.7415 12.1746ZM23.2768 9.59918C22.8725 9.68891 22.6174 10.0895 22.7071 10.4938C22.7968 10.8982 23.1974 11.1533 23.6018 11.0636L23.2768 9.59918ZM25.5544 10.6356C25.9593 10.5479 26.2164 10.1487 26.1287 9.74384C26.0411 9.339 25.6419 9.08187 25.237 9.16952L25.5544 10.6356ZM30.1153 8.14615C29.7093 8.22858 29.4471 8.62447 29.5295 9.0304C29.6119 9.43633 30.0078 9.69858 30.4138 9.61615L30.1153 8.14615ZM32.3485 9.22847C32.7548 9.14814 33.0191 8.7536 32.9388 8.34725C32.8585 7.9409 32.4639 7.67662 32.0576 7.75695L32.3485 9.22847ZM36.9614 6.82071C36.554 6.89572 36.2846 7.28676 36.3596 7.69413C36.4346 8.10149 36.8257 8.37092 37.233 8.29591L36.9614 6.82071ZM39.2021 7.93873C39.6098 7.86588 39.8813 7.47627 39.8085 7.06851C39.7356 6.66076 39.346 6.38926 38.9383 6.46211L39.2021 7.93873ZM43.8556 5.61716C43.4469 5.68459 43.1703 6.07056 43.2377 6.47925C43.3051 6.88794 43.6911 7.16459 44.0998 7.09716L43.8556 5.61716ZM46.0488 6.7809C46.4579 6.71564 46.7366 6.33115 46.6713 5.92211C46.606 5.51306 46.2215 5.23437 45.8125 5.29963L46.0488 6.7809ZM50.7426 4.54704C50.3328 4.60678 50.0489 4.98749 50.1087 5.39737C50.1684 5.80725 50.5491 6.0911 50.959 6.03136L50.7426 4.54704ZM52.9408 5.74803C53.351 5.69053 53.637 5.31138 53.5795 4.90118C53.522 4.49098 53.1428 4.20505 52.7326 4.26255L52.9408 5.74803ZM57.6798 3.60354C57.2689 3.65542 56.9778 4.03062 57.0296 4.44157C57.0815 4.85252 57.4567 5.14361 57.8677 5.09173L57.6798 3.60354ZM59.8272 4.84983C60.2384 4.8002 60.5315 4.42661 60.4819 4.01538C60.4323 3.60415 60.0587 3.31101 59.6474 3.36063L59.8272 4.84983ZM64.6046 2.79732C64.1927 2.84122 63.8944 3.2107 63.9383 3.62258C63.9822 4.03446 64.3517 4.33277 64.7636 4.28887L64.6046 2.79732ZM66.7542 4.08237C67.1664 4.0408 67.4668 3.673 67.4252 3.26088C67.3836 2.84876 67.0158 2.54837 66.6037 2.58995L66.7542 4.08237ZM71.5704 2.12426C71.1577 2.16001 70.8522 2.52352 70.8879 2.93619C70.9237 3.34886 71.2872 3.65441 71.6999 3.61867L71.5704 2.12426ZM73.6656 3.45399C74.0784 3.42057 74.386 3.0588 74.3526 2.64593C74.3192 2.23307 73.9574 1.92546 73.5446 1.95887L73.6656 3.45399ZM78.5286 1.59155C78.1153 1.61901 77.8025 1.97632 77.83 2.38963C77.8575 2.80293 78.2148 3.11571 78.6281 3.08825L78.5286 1.59155ZM80.6231 2.96151C81.0366 2.93646 81.3514 2.58098 81.3264 2.16752C81.3013 1.75407 80.9458 1.4392 80.5324 1.46426L80.6231 2.96151ZM85.5072 1.19916C85.0934 1.21818 84.7734 1.56903 84.7924 1.9828C84.8114 2.39658 85.1623 2.7166 85.576 2.69758L85.5072 1.19916ZM87.5432 2.61294C87.9571 2.59635 88.2792 2.24738 88.2626 1.8335C88.246 1.41962 87.897 1.09755 87.4831 1.11415L87.5432 2.61294ZM92.4931 0.950715C92.079 0.961116 91.7518 1.30523 91.7622 1.71931C91.7726 2.1334 92.1167 2.46064 92.5308 2.45024L92.4931 0.950715ZM94.5251 2.40616C94.9393 2.39826 95.2686 2.05613 95.2607 1.64199C95.2528 1.22785 94.9107 0.898533 94.4965 0.906434L94.5251 2.40616ZM99.4665 0.849088C99.0523 0.85073 98.7179 1.18784 98.7195 1.60206C98.7211 2.01627 99.0583 2.35072 99.4725 2.34908L99.4665 0.849088ZM101.436 2.34723C101.85 2.3481 102.187 2.01302 102.187 1.59881C102.188 1.18459 101.853 0.848105 101.439 0.847238L101.436 2.34723ZM106.473 0.896983C106.059 0.889648 105.717 1.21944 105.71 1.63358C105.702 2.04773 106.032 2.38941 106.446 2.39675L106.473 0.896983ZM108.434 2.43817C108.849 2.4481 109.192 2.12046 109.202 1.70636C109.212 1.29227 108.885 0.948532 108.47 0.938605L108.434 2.43817ZM113.421 1.09605C113.007 1.07963 112.658 1.40184 112.642 1.81573C112.625 2.22961 112.948 2.57845 113.362 2.59487L113.421 1.09605ZM115.36 2.68059C115.774 2.69967 116.125 2.37971 116.144 1.96594C116.163 1.55217 115.843 1.20126 115.429 1.18218L115.36 2.68059ZM120.439 1.45393C120.025 1.42813 119.669 1.74235 119.644 2.15575C119.618 2.56916 119.932 2.92522 120.345 2.95102L120.439 1.45393ZM122.321 3.08076C122.734 3.10926 123.092 2.79737 123.12 2.38414C123.149 1.97091 122.837 1.61281 122.424 1.58432L122.321 3.08076ZM127.383 1.96729C126.97 1.93199 126.607 2.23793 126.572 2.65063C126.536 3.06334 126.842 3.42653 127.255 3.46183L127.383 1.96729ZM129.252 3.63948C129.665 3.67758 130.03 3.3741 130.068 2.96164C130.106 2.54918 129.803 2.18393 129.39 2.14584L129.252 3.63948ZM134.356 2.64689C133.944 2.6018 133.574 2.89904 133.529 3.31079C133.484 3.72254 133.781 4.09288 134.193 4.13797L134.356 2.64689ZM136.148 4.35879C136.559 4.40669 136.931 4.11198 136.979 3.70054C137.027 3.28911 136.732 2.91675 136.321 2.86885L136.148 4.35879ZM141.298 3.49235C140.888 3.43726 140.51 3.72539 140.455 4.13593C140.4 4.54646 140.688 4.92393 141.099 4.97902L141.298 3.49235ZM143.072 5.25094C143.482 5.30894 143.862 5.02349 143.92 4.61336C143.978 4.20323 143.692 3.82373 143.282 3.76572L143.072 5.25094ZM148.182 4.50326C147.773 4.43795 147.389 4.71659 147.324 5.12563C147.258 5.53466 147.537 5.91919 147.946 5.9845L148.182 4.50326ZM149.919 6.30691C150.327 6.37522 150.714 6.09941 150.782 5.69086C150.85 5.28232 150.575 4.89576 150.166 4.82745L149.919 6.30691ZM155.107 5.70074C154.7 5.62483 154.308 5.8934 154.232 6.3006C154.156 6.7078 154.425 7.09943 154.832 7.17534L155.107 5.70074ZM156.771 7.54437C157.178 7.62333 157.571 7.35771 157.65 6.95109C157.729 6.54448 157.464 6.15084 157.057 6.07188L156.771 7.54437ZM161.951 7.07088C161.546 6.98413 161.147 7.24214 161.061 7.64717C160.974 8.0522 161.232 8.45086 161.637 8.53762L161.951 7.07088ZM163.589 8.96374C163.993 9.05368 164.394 8.79881 164.484 8.39448C164.574 7.99015 164.319 7.58946 163.915 7.49952L163.589 8.96374ZM168.751 8.62556C168.349 8.52763 167.943 8.7745 167.845 9.17697C167.747 9.57944 167.994 9.9851 168.397 10.083L168.751 8.62556ZM170.323 10.56C170.724 10.6612 171.132 10.4176 171.233 10.016C171.334 9.61431 171.091 9.20665 170.689 9.10545L170.323 10.56ZM175.55 10.3841C175.15 10.2745 174.738 10.5095 174.628 10.9089C174.518 11.3084 174.753 11.7211 175.153 11.8306L175.55 10.3841ZM177.053 12.3605C177.451 12.4734 177.866 12.242 177.979 11.8434C178.092 11.4449 177.86 11.0303 177.462 10.9173L177.053 12.3605ZM182.259 12.3334C181.863 12.2118 181.443 12.4342 181.321 12.8301C181.2 13.2261 181.422 13.6456 181.818 13.7673L182.259 12.3334ZM183.722 14.3615C184.117 14.4866 184.539 14.268 184.664 13.8732C184.789 13.4783 184.57 13.0568 184.175 12.9316L183.722 14.3615ZM188.878 14.4809C188.486 14.3468 188.059 14.5558 187.925 14.9477C187.791 15.3396 188 15.766 188.392 15.9001L188.878 14.4809ZM190.294 16.5613C190.685 16.6991 191.113 16.4943 191.251 16.1037C191.389 15.7131 191.184 15.2847 190.794 15.1468L190.294 16.5613ZM195.493 16.8693C195.105 16.722 194.672 16.9164 194.525 17.3035C194.378 17.6907 194.572 18.1239 194.959 18.2712L195.493 16.8693ZM196.784 18.9762C197.17 19.1273 197.605 18.9372 197.756 18.5515C197.907 18.1659 197.717 17.7307 197.332 17.5796L196.784 18.9762ZM201.998 19.4783C201.617 19.3172 201.177 19.4959 201.016 19.8775C200.854 20.2591 201.033 20.699 201.415 20.8602L201.998 19.4783ZM203.23 21.6381C203.61 21.8033 204.051 21.6294 204.217 21.2495C204.382 20.8697 204.208 20.4278 203.828 20.2626L203.23 21.6381ZM208.386 22.3203C208.011 22.1446 207.564 22.3062 207.389 22.6813C207.213 23.0564 207.374 23.5029 207.749 23.6787L208.386 22.3203ZM209.549 24.5345C209.922 24.7146 210.37 24.5582 210.55 24.1851C210.731 23.8121 210.574 23.3637 210.201 23.1837L209.549 24.5345ZM214.644 25.4107C214.277 25.2195 213.824 25.3624 213.633 25.7298C213.442 26.0973 213.584 26.5502 213.952 26.7414L214.644 25.4107ZM215.729 27.6804C216.094 27.8763 216.548 27.7393 216.744 27.3743C216.94 27.0093 216.803 26.5547 216.438 26.3588L215.729 27.6804ZM220.779 28.7803C220.42 28.5725 219.961 28.6945 219.754 29.0528C219.546 29.4111 219.668 29.87 220.026 30.0779L220.779 28.7803ZM221.751 31.0948C222.107 31.3076 222.567 31.1921 222.78 30.8367C222.993 30.4814 222.878 30.0208 222.522 29.8079L221.751 31.0948ZM226.767 32.4565C226.42 32.2307 225.955 32.3292 225.729 32.6765C225.504 33.0237 225.602 33.4883 225.949 33.7141L226.767 32.4565ZM227.592 34.8005C227.936 35.0317 228.402 34.9405 228.633 34.5968C228.865 34.253 228.773 33.787 228.43 33.5559L227.592 34.8005ZM232.545 36.4482C232.211 36.2029 231.742 36.2746 231.496 36.6083C231.251 36.9421 231.323 37.4115 231.656 37.6568L232.545 36.4482ZM233.218 38.8255C233.547 39.0766 234.018 39.0132 234.269 38.6838C234.52 38.3544 234.456 37.8838 234.127 37.6327L233.218 38.8255ZM238.066 40.7865C237.75 40.5198 237.276 40.5604 237.01 40.8774C236.743 41.1943 236.784 41.6674 237.101 41.9341L238.066 40.7865ZM238.577 43.202C238.888 43.4751 239.362 43.4441 239.635 43.1327C239.908 42.8213 239.877 42.3474 239.566 42.0743L238.577 43.202ZM243.268 45.507C242.972 45.2167 242.497 45.2209 242.207 45.5164C241.917 45.8118 241.921 46.2867 242.216 46.577L243.268 45.507ZM243.596 47.9657C243.884 48.2631 244.359 48.2705 244.657 47.9822C244.954 47.6939 244.961 47.219 244.673 46.9216L243.596 47.9657ZM248.054 50.6483C247.787 50.3321 247.313 50.2926 246.997 50.5601C246.681 50.8276 246.641 51.3009 246.909 51.6171L248.054 50.6483ZM248.168 53.1511C248.426 53.4753 248.898 53.5291 249.222 53.2712C249.546 53.0133 249.6 52.5415 249.342 52.2174L248.168 53.1511ZM252.307 56.2723C252.077 55.9278 251.611 55.835 251.267 56.065C250.922 56.295 250.83 56.7607 251.06 57.1052L252.307 56.2723ZM252.135 58.7825C252.351 59.1355 252.813 59.2459 253.166 59.0292C253.519 58.8124 253.629 58.3506 253.413 57.9976L252.135 58.7825ZM255.832 62.4327C255.654 62.0588 255.206 61.9004 254.833 62.0788C254.459 62.2572 254.3 62.7048 254.479 63.0787L255.832 62.4327ZM255.276 64.8563C255.437 65.2382 255.876 65.4176 256.258 65.2572C256.64 65.0967 256.82 64.6571 256.659 64.2752L255.276 64.8563ZM258.316 69.0716C258.208 68.6717 257.796 68.4351 257.397 68.5431C256.997 68.6511 256.76 69.0628 256.868 69.4627L258.316 69.0716ZM257.318 71.3502C257.402 71.7558 257.799 72.0166 258.204 71.9327C258.61 71.8489 258.871 71.452 258.787 71.0464L257.318 71.3502ZM259.412 76.1054C259.396 75.6915 259.048 75.369 258.634 75.385C258.22 75.401 257.897 75.7495 257.913 76.1634L259.412 76.1054ZM257.92 78.1032C257.906 78.5172 258.231 78.8638 258.645 78.8773C259.059 78.8908 259.405 78.5662 259.419 78.1522L257.92 78.1032ZM258.784 83.2183C258.874 82.8139 258.618 82.4135 258.214 82.3241C257.809 82.2347 257.409 82.4901 257.32 82.8945L258.784 83.2183ZM256.879 83.2606C256.465 83.2538 256.124 83.584 256.117 83.9982C256.11 84.4123 256.44 84.7536 256.855 84.7604L256.879 83.2606ZM252.084 84.7421C252.498 84.7382 252.83 84.3993 252.827 83.9851C252.823 83.5709 252.484 83.2383 252.07 83.2422L252.084 84.7421ZM250.145 83.271C249.731 83.2796 249.403 83.6222 249.411 84.0363C249.42 84.4505 249.762 84.7792 250.176 84.7707L250.145 83.271ZM245.41 84.9416C245.823 84.9202 246.141 84.5675 246.12 84.1539C246.099 83.7402 245.746 83.4222 245.332 83.4436L245.41 84.9416ZM243.41 83.5559C242.996 83.5829 242.683 83.9399 242.71 84.3532C242.737 84.7666 243.094 85.0797 243.507 85.0527L243.41 83.5559ZM238.765 85.4492C239.177 85.4069 239.477 85.0385 239.434 84.6265C239.392 84.2144 239.024 83.9147 238.612 83.9571L238.765 85.4492ZM236.695 84.17C236.284 84.2192 235.99 84.5924 236.039 85.0037C236.088 85.415 236.462 85.7086 236.873 85.6594L236.695 84.17ZM232.165 86.3288C232.574 86.2609 232.85 85.8746 232.782 85.466C232.714 85.0574 232.328 84.7812 231.919 84.8492L232.165 86.3288ZM230.018 85.1851C229.61 85.2614 229.342 85.6533 229.419 86.0604C229.495 86.4676 229.887 86.7358 230.294 86.6595L230.018 85.1851ZM225.656 87.6636C226.058 87.564 226.303 87.1573 226.203 86.7552C226.104 86.3532 225.697 86.108 225.295 86.2076L225.656 87.6636ZM223.423 86.6972C223.023 86.8073 222.789 87.2202 222.899 87.6195C223.009 88.0189 223.422 88.2533 223.821 88.1433L223.423 86.6972ZM219.307 89.5647C219.697 89.4252 219.9 88.9959 219.76 88.6059C219.621 88.2159 219.192 88.0128 218.802 88.1523L219.307 89.5647ZM216.985 88.8367C216.6 88.9894 216.412 89.4254 216.564 89.8104C216.717 90.1954 217.153 90.3838 217.538 90.2311L216.985 88.8367ZM213.245 92.1741C213.613 91.9844 213.758 91.5321 213.568 91.1639C213.378 90.7957 212.926 90.651 212.558 90.8407L213.245 92.1741ZM210.845 91.7721C210.486 91.9782 210.362 92.4366 210.568 92.7959C210.774 93.1551 211.232 93.2793 211.592 93.0731L210.845 91.7721ZM207.679 95.657C208.008 95.4062 208.072 94.9356 207.822 94.606C207.571 94.2763 207.1 94.2124 206.771 94.4633L207.679 95.657ZM205.247 95.6942C204.932 95.9639 204.896 96.4374 205.166 96.7518C205.435 97.0662 205.909 97.1024 206.223 96.8327L205.247 95.6942ZM202.937 100.139C203.204 99.8219 203.163 99.3488 202.846 99.0821C202.529 98.8154 202.056 98.8562 201.79 99.1732L202.937 100.139ZM200.52 100.873C200.305 101.227 200.418 101.688 200.772 101.903C201.126 102.118 201.587 102.006 201.802 101.652L200.52 100.873ZM200.923 106.148C200.849 105.741 200.459 105.47 200.051 105.543C199.644 105.617 199.373 106.007 199.446 106.415L200.923 106.148ZM200.155 108.588C200.333 108.962 200.781 109.12 201.154 108.942C201.528 108.764 201.687 108.316 201.509 107.942L200.155 108.588ZM204.641 111.612C204.31 111.363 203.84 111.43 203.591 111.762C203.343 112.093 203.41 112.563 203.741 112.812L204.641 111.612ZM205.59 114.001C205.953 114.201 206.409 114.068 206.609 113.705C206.809 113.342 206.676 112.886 206.313 112.687L205.59 114.001ZM211.005 114.424C210.601 114.334 210.2 114.588 210.109 114.992C210.019 115.396 210.273 115.797 210.677 115.888L211.005 114.424ZM212.81 116.26C213.221 116.312 213.596 116.021 213.649 115.61C213.701 115.199 213.41 114.824 212.999 114.772L212.81 116.26ZM218.066 114.878C217.653 114.91 217.344 115.27 217.376 115.683C217.408 116.096 217.769 116.405 218.182 116.373L218.066 114.878ZM220.203 116.152C220.613 116.097 220.902 115.72 220.847 115.309C220.792 114.899 220.414 114.61 220.004 114.665L220.203 116.152ZM224.576 113.829C224.172 113.923 223.921 114.326 224.015 114.73C224.109 115.133 224.512 115.384 224.915 115.29L224.576 113.829ZM226.772 114.822C227.171 114.713 227.407 114.3 227.298 113.901C227.189 113.501 226.776 113.266 226.377 113.375L226.772 114.822ZM230.793 111.937C230.406 112.085 230.212 112.518 230.359 112.905C230.506 113.292 230.939 113.487 231.327 113.339L230.793 111.937ZM233.105 112.622C233.487 112.46 233.664 112.019 233.501 111.638C233.339 111.257 232.898 111.08 232.517 111.243L233.105 112.622ZM236.688 109.208C236.326 109.409 236.194 109.865 236.395 110.227C236.595 110.59 237.052 110.721 237.414 110.521L236.688 109.208ZM239.074 109.556C239.428 109.341 239.54 108.879 239.324 108.525C239.108 108.172 238.647 108.06 238.293 108.275L239.074 109.556ZM242.117 105.653C241.788 105.906 241.727 106.377 241.979 106.705C242.232 107.033 242.703 107.095 243.031 106.842L242.117 105.653ZM244.527 105.639C244.844 105.373 244.884 104.9 244.618 104.583C244.351 104.266 243.878 104.225 243.561 104.491L244.527 105.639ZM246.936 101.316C246.651 101.616 246.663 102.091 246.963 102.376C247.263 102.662 247.738 102.65 248.023 102.35L246.936 101.316ZM249.316 100.929C249.587 100.616 249.554 100.142 249.242 99.8706C248.929 99.5988 248.456 99.6318 248.184 99.9444L249.316 100.929ZM251.027 96.2872C250.791 96.6276 250.875 97.0949 251.216 97.3309C251.556 97.5669 252.023 97.4823 252.259 97.1419L251.027 96.2872ZM253.319 95.5412C253.54 95.191 253.436 94.7278 253.086 94.5066C252.735 94.2853 252.272 94.3899 252.051 94.7401L253.319 95.5412ZM254.321 90.6944C254.137 91.0655 254.289 91.5155 254.66 91.6995C255.031 91.8835 255.481 91.7319 255.665 91.3608L254.321 90.6944ZM256.483 89.6266C256.652 89.2486 256.483 88.8049 256.105 88.6356C255.727 88.4664 255.283 88.6356 255.114 89.0137L256.483 89.6266ZM256.81 84.6891C256.676 85.0813 256.886 85.5073 257.278 85.6408C257.67 85.7742 258.096 85.5645 258.23 85.1723L256.81 84.6891ZM258.774 84.8002C259.188 84.8102 259.531 84.4825 259.541 84.0684C259.551 83.6543 259.224 83.3106 258.81 83.3007L258.774 84.8002ZM263.826 83.4576C263.412 83.4416 263.064 83.7642 263.048 84.1781C263.032 84.592 263.354 84.9405 263.768 84.9565L263.826 83.4576ZM265.746 85.0388C266.16 85.0573 266.51 84.7368 266.529 84.323C266.547 83.9092 266.227 83.5588 265.813 83.5403L265.746 85.0388ZM270.813 83.8014C270.4 83.7766 270.045 84.0917 270.02 84.5052C269.995 84.9186 270.31 85.2739 270.724 85.2987L270.813 83.8014ZM272.711 85.4239C273.124 85.4513 273.482 85.1384 273.509 84.7251C273.536 84.3117 273.223 83.9545 272.81 83.9272L272.711 85.4239ZM277.803 84.2976C277.39 84.2636 277.028 84.5707 276.994 84.9836C276.96 85.3964 277.267 85.7586 277.68 85.7926L277.803 84.2976ZM279.659 85.9621C280.072 85.9989 280.436 85.6942 280.473 85.2816C280.509 84.869 280.205 84.5048 279.792 84.468L279.659 85.9621ZM284.784 84.9554C284.372 84.9116 284.002 85.2099 283.958 85.6218C283.915 86.0337 284.213 86.4031 284.625 86.447L284.784 84.9554ZM286.593 86.6635C287.004 86.7102 287.376 86.4145 287.423 86.0029C287.469 85.5913 287.174 85.2198 286.762 85.173L286.593 86.6635ZM291.733 85.7842C291.322 85.7298 290.945 86.0185 290.891 86.4292C290.836 86.8398 291.125 87.2168 291.536 87.2712L291.733 85.7842ZM293.51 87.5405C293.92 87.5981 294.299 87.3123 294.357 86.9021C294.414 86.4919 294.129 86.1127 293.718 86.0551L293.51 87.5405ZM298.667 86.8008C298.258 86.7349 297.873 87.013 297.807 87.4219C297.741 87.8308 298.019 88.2158 298.428 88.2817L298.667 86.8008ZM300.395 88.6074C300.804 88.6768 301.191 88.4021 301.26 87.9937C301.33 87.5854 301.055 87.198 300.647 87.1286L300.395 88.6074ZM305.575 88.0229C305.168 87.9444 304.775 88.2103 304.696 88.617C304.618 89.0237 304.884 89.4171 305.29 89.4957L305.575 88.0229ZM307.239 89.8818C307.645 89.9642 308.04 89.702 308.123 89.296C308.205 88.8901 307.943 88.4942 307.537 88.4118L307.239 89.8818ZM312.435 89.4699C312.031 89.3773 311.629 89.6295 311.536 90.0332C311.444 90.4369 311.696 90.8393 312.1 90.9319L312.435 89.4699ZM314.036 91.387C314.439 91.4839 314.844 91.236 314.941 90.8333C315.038 90.4306 314.79 90.0256 314.387 89.9287L314.036 91.387ZM319.244 91.1693C318.844 91.061 318.432 91.2974 318.324 91.6972C318.215 92.097 318.452 92.5089 318.851 92.6172L319.244 91.1693ZM320.766 93.1482C321.165 93.2613 321.58 93.03 321.693 92.6315C321.806 92.2331 321.574 91.8183 321.176 91.7052L320.766 93.1482ZM325.977 93.1512C325.583 93.0252 325.161 93.243 325.035 93.6376C324.909 94.0322 325.127 94.4542 325.521 94.5802L325.977 93.1512ZM327.411 95.1976C327.804 95.329 328.229 95.1171 328.36 94.7243C328.491 94.3315 328.28 93.9065 327.887 93.7751L327.411 95.1976ZM332.617 95.4543C332.229 95.3084 331.797 95.5043 331.651 95.8919C331.505 96.2796 331.701 96.7122 332.088 96.8581L332.617 95.4543ZM333.936 97.5708C334.322 97.7229 334.757 97.5339 334.909 97.1487C335.061 96.7634 334.872 96.3278 334.487 96.1756L333.936 97.5708ZM339.121 98.1208C338.743 97.9521 338.3 98.122 338.131 98.5003C337.962 98.8786 338.132 99.322 338.51 99.4908L339.121 98.1208ZM340.314 100.316C340.689 100.491 341.136 100.33 341.311 99.9548C341.487 99.5797 341.326 99.1331 340.951 98.9573L340.314 100.316ZM345.447 101.204C345.081 101.009 344.627 101.147 344.432 101.513C344.238 101.879 344.376 102.333 344.742 102.528L345.447 101.204ZM346.482 103.479C346.843 103.681 347.3 103.553 347.503 103.192C347.706 102.831 347.577 102.373 347.216 102.171L346.482 103.479ZM351.532 104.764C351.184 104.54 350.72 104.64 350.496 104.989C350.272 105.337 350.372 105.801 350.721 106.025L351.532 104.764ZM352.366 107.114C352.708 107.347 353.175 107.258 353.408 106.916C353.641 106.573 353.552 106.107 353.21 105.874L352.366 107.114ZM357.279 108.858C356.954 108.601 356.483 108.656 356.226 108.981C355.969 109.306 356.024 109.778 356.349 110.034L357.279 108.858ZM357.876 111.28C358.193 111.547 358.666 111.507 358.933 111.19C359.2 110.873 359.159 110.4 358.843 110.133L357.876 111.28ZM362.57 113.541C362.276 113.249 361.801 113.25 361.509 113.544C361.217 113.837 361.218 114.312 361.512 114.604L362.57 113.541ZM362.884 116.019C363.167 116.322 363.641 116.338 363.944 116.055C364.246 115.772 364.262 115.297 363.979 114.995L362.884 116.019ZM367.257 118.847C367.004 118.519 366.533 118.458 366.205 118.711C365.877 118.964 365.816 119.435 366.069 119.763L367.257 118.847ZM367.238 121.343C367.477 121.681 367.945 121.761 368.283 121.521C368.621 121.282 368.701 120.814 368.462 120.476L367.238 121.343ZM371.173 124.755C370.97 124.394 370.512 124.266 370.151 124.469C369.79 124.672 369.662 125.129 369.865 125.49L371.173 124.755ZM-9.07848 19.7851C-8.75779 19.6851 -8.43726 19.5856 -8.1169 19.4866L-8.55996 18.0535C-8.88147 18.1529 -9.20315 18.2528 -9.52499 18.3531L-9.07848 19.7851ZM-3.32371 18.0363C-2.68626 17.8476 -2.04948 17.6608 -1.41338 17.4758L-1.83214 16.0355C-2.47057 16.2211 -3.10967 16.4086 -3.74943 16.5979L-3.32371 18.0363ZM3.34475 16.1236C3.97747 15.9479 4.6095 15.7741 5.24084 15.6021L4.84654 14.1548C4.21287 14.3275 3.5785 14.502 2.94345 14.6783L3.34475 16.1236ZM10.079 14.3162C10.7241 14.149 11.3684 13.9837 12.012 13.8204L11.6429 12.3665C10.997 12.5305 10.3502 12.6963 9.70273 12.8641L10.079 14.3162ZM16.8245 12.6307C17.4643 12.4768 18.1033 12.3248 18.7415 12.1746L18.398 10.7145C17.7573 10.8652 17.1159 11.0178 16.4737 11.1723L16.8245 12.6307ZM23.6018 11.0636C24.2535 10.919 24.9044 10.7763 25.5544 10.6356L25.237 9.16952C24.5845 9.3108 23.9311 9.45401 23.2768 9.59918L23.6018 11.0636ZM30.4138 9.61615C31.0595 9.48502 31.7045 9.3558 32.3485 9.22847L32.0576 7.75695C31.411 7.88478 30.7636 8.01451 30.1153 8.14615L30.4138 9.61615ZM37.233 8.29591C37.8903 8.17488 38.5467 8.05582 39.2021 7.93873L38.9383 6.46211C38.2802 6.57967 37.6213 6.6992 36.9614 6.82071L37.233 8.29591ZM44.0998 7.09716C44.7504 6.98981 45.4001 6.88439 46.0488 6.7809L45.8125 5.29963C45.1612 5.40354 44.5089 5.50938 43.8556 5.61716L44.0998 7.09716ZM50.959 6.03136C51.6207 5.93492 52.2813 5.84048 52.9408 5.74803L52.7326 4.26255C52.0703 4.35538 51.407 4.45021 50.7426 4.54704L50.959 6.03136ZM57.8677 5.09173C58.5219 5.00915 59.1751 4.92851 59.8272 4.84983L59.6474 3.36063C58.9926 3.43965 58.3368 3.52061 57.6798 3.60354L57.8677 5.09173ZM64.7636 4.28887C65.4283 4.21802 66.0919 4.14919 66.7542 4.08237L66.6037 2.58995C65.9385 2.65705 65.2721 2.72617 64.6046 2.79732L64.7636 4.28887ZM71.6999 3.61867C72.3563 3.5618 73.0115 3.50691 73.6656 3.45399L73.5446 1.95887C72.8877 2.01203 72.2297 2.06716 71.5704 2.12426L71.6999 3.61867ZM78.6281 3.08825C79.2944 3.04397 79.9594 3.00173 80.6231 2.96151L80.5324 1.46426C79.8658 1.50465 79.1978 1.54708 78.5286 1.59155L78.6281 3.08825ZM85.576 2.69758C86.2331 2.66739 86.8888 2.63918 87.5432 2.61294L87.4831 1.11415C86.8258 1.1405 86.1672 1.16884 85.5072 1.19916L85.576 2.69758ZM92.5308 2.45024C93.197 2.43351 93.8618 2.41882 94.5251 2.40616L94.4965 0.906434C93.8302 0.919149 93.1624 0.933904 92.4931 0.950715L92.5308 2.45024ZM99.4725 2.34908C100.128 2.34648 100.783 2.34587 101.436 2.34723L101.439 0.847238C100.783 0.845866 100.125 0.846476 99.4665 0.849088L99.4725 2.34908ZM106.446 2.39675C107.111 2.40851 107.773 2.42233 108.434 2.43817L108.47 0.938605C107.806 0.922682 107.14 0.908803 106.473 0.896983L106.446 2.39675ZM113.362 2.59487C114.029 2.62137 114.696 2.64995 115.36 2.68059L115.429 1.18218C114.761 1.15139 114.092 1.12267 113.421 1.09605L113.362 2.59487ZM120.345 2.95102C121.006 2.99223 121.664 3.03548 122.321 3.08076L122.424 1.58432C121.764 1.53881 121.102 1.49535 120.439 1.45393L120.345 2.95102ZM127.255 3.46183C127.923 3.51895 128.589 3.57818 129.252 3.63948L129.39 2.14584C128.723 2.08422 128.054 2.0247 127.383 1.96729L127.255 3.46183ZM134.193 4.13797C134.846 4.20956 135.498 4.28317 136.148 4.35879L136.321 2.86885C135.668 2.79284 135.013 2.71884 134.356 2.64689L134.193 4.13797ZM141.099 4.97902C141.759 5.06758 142.416 5.15823 143.072 5.25094L143.282 3.76572C142.623 3.67252 141.962 3.58139 141.298 3.49235L141.099 4.97902ZM147.946 5.9845C148.606 6.08987 149.263 6.19735 149.919 6.30691L150.166 4.82745C149.507 4.71729 148.846 4.60921 148.182 4.50326L147.946 5.9845ZM154.832 7.17534C155.481 7.29631 156.127 7.41933 156.771 7.54437L157.057 6.07188C156.409 5.94612 155.759 5.8224 155.107 5.70074L154.832 7.17534ZM161.637 8.53762C162.29 8.67757 162.941 8.81962 163.589 8.96374L163.915 7.49952C163.263 7.35455 162.608 7.21166 161.951 7.07088L161.637 8.53762ZM168.397 10.083C169.042 10.24 169.684 10.399 170.323 10.56L170.689 9.10545C170.046 8.94342 169.4 8.78345 168.751 8.62556L168.397 10.083ZM175.153 11.8306C175.789 12.0052 176.422 12.1819 177.053 12.3605L177.462 10.9173C176.827 10.7376 176.19 10.5598 175.55 10.3841L175.153 11.8306ZM181.818 13.7673C182.456 13.9633 183.091 14.1613 183.722 14.3615L184.175 12.9316C183.54 12.7301 182.901 12.5307 182.259 12.3334L181.818 13.7673ZM188.392 15.9001C189.03 16.1184 189.664 16.3388 190.294 16.5613L190.794 15.1468C190.159 14.9227 189.52 14.7007 188.878 14.4809L188.392 15.9001ZM194.959 18.2712C195.571 18.5042 196.18 18.7392 196.784 18.9762L197.332 17.5796C196.723 17.3408 196.109 17.1041 195.493 16.8693L194.959 18.2712ZM201.415 20.8602C202.024 21.1175 202.629 21.3769 203.23 21.6381L203.828 20.2626C203.222 19.9992 202.612 19.7378 201.998 19.4783L201.415 20.8602ZM207.749 23.6787C208.354 23.962 208.954 24.2472 209.549 24.5345L210.201 23.1837C209.601 22.8939 208.996 22.6061 208.386 22.3203L207.749 23.6787ZM213.952 26.7414C214.55 27.0524 215.142 27.3655 215.729 27.6804L216.438 26.3588C215.846 26.0408 215.248 25.7247 214.644 25.4107L213.952 26.7414ZM220.026 30.0779C220.607 30.4149 221.182 30.7539 221.751 31.0948L222.522 29.8079C221.947 29.4634 221.366 29.1209 220.779 28.7803L220.026 30.0779ZM225.949 33.7141C226.504 34.0745 227.051 34.4367 227.592 34.8005L228.43 33.5559C227.882 33.1876 227.328 32.8211 226.767 32.4565L225.949 33.7141ZM231.656 37.6568C232.184 38.0448 232.705 38.4344 233.218 38.8255L234.127 37.6327C233.607 37.2362 233.079 36.8413 232.545 36.4482L231.656 37.6568ZM237.101 41.9341C237.601 42.3553 238.093 42.778 238.577 43.202L239.566 42.0743C239.074 41.6434 238.575 41.2141 238.066 40.7865L237.101 41.9341ZM242.216 46.577C242.686 47.0387 243.146 47.5016 243.596 47.9657L244.673 46.9216C244.215 46.4487 243.746 45.9771 243.268 45.507L242.216 46.577ZM246.909 51.6171C247.341 52.1276 247.761 52.639 248.168 53.1511L249.342 52.2174C248.925 51.6932 248.496 51.1701 248.054 50.6483L246.909 51.6171ZM251.06 57.1052C251.433 57.664 251.791 58.2232 252.135 58.7825L253.413 57.9976C253.059 57.4217 252.691 56.8466 252.307 56.2723L251.06 57.1052ZM254.479 63.0787C254.762 63.6718 255.028 64.2644 255.276 64.8563L256.659 64.2752C256.401 63.6609 256.125 63.0466 255.832 62.4327L254.479 63.0787ZM256.868 69.4627C257.038 70.0935 257.188 70.7227 257.318 71.3502L258.787 71.0464C258.651 70.389 258.494 69.7307 258.316 69.0716L256.868 69.4627ZM257.913 76.1634C257.939 76.8128 257.941 77.4595 257.92 78.1032L259.419 78.1522C259.441 77.4723 259.439 76.79 259.412 76.1054L257.913 76.1634ZM257.32 82.8945C257.25 83.2103 257.174 83.5252 257.092 83.8392L258.544 84.2177C258.63 83.8856 258.71 83.5524 258.784 83.2183L257.32 82.8945ZM257.834 83.2786C257.519 83.2719 257.201 83.2659 256.879 83.2606L256.855 84.7604C257.174 84.7657 257.489 84.7717 257.802 84.7783L257.834 83.2786ZM252.07 83.2422C251.436 83.2481 250.794 83.2576 250.145 83.271L250.176 84.7707C250.819 84.7574 251.455 84.748 252.084 84.7421L252.07 83.2422ZM245.332 83.4436C244.695 83.4765 244.054 83.5138 243.41 83.5559L243.507 85.0527C244.145 85.0111 244.779 84.9742 245.41 84.9416L245.332 83.4436ZM238.612 83.9571C237.974 84.0227 237.335 84.0935 236.695 84.17L236.873 85.6594C237.505 85.5839 238.135 85.514 238.765 85.4492L238.612 83.9571ZM231.919 84.8492C231.284 84.9547 230.65 85.0666 230.018 85.1851L230.294 86.6595C230.916 86.5429 231.54 86.4328 232.165 86.3288L231.919 84.8492ZM225.295 86.2076C224.668 86.3631 224.043 86.5262 223.423 86.6972L223.821 88.1433C224.429 87.9758 225.041 87.816 225.656 87.6636L225.295 86.2076ZM218.802 88.1523C218.19 88.371 217.584 88.5991 216.985 88.8367L217.538 90.2311C218.121 89.9999 218.711 89.7779 219.307 89.5647L218.802 88.1523ZM212.558 90.8407C211.978 91.1397 211.406 91.45 210.845 91.7721L211.592 93.0731C212.133 92.7626 212.684 92.4631 213.245 92.1741L212.558 90.8407ZM206.771 94.4633C206.249 94.8598 205.741 95.2699 205.247 95.6942L206.223 96.8327C206.695 96.428 207.18 96.0363 207.679 95.657L206.771 94.4633ZM201.79 99.1732C201.578 99.4241 201.372 99.6788 201.169 99.9374L202.35 100.863C202.541 100.618 202.737 100.377 202.937 100.139L201.79 99.1732ZM201.169 99.9374C200.929 100.243 200.713 100.555 200.52 100.873L201.802 101.652C201.963 101.387 202.145 101.123 202.35 100.863L201.169 99.9374ZM199.446 106.415C199.58 107.157 199.82 107.885 200.155 108.588L201.509 107.942C201.228 107.353 201.031 106.752 200.923 106.148L199.446 106.415ZM203.741 112.812C204.31 113.239 204.928 113.637 205.59 114.001L206.313 112.687C205.71 112.355 205.152 111.995 204.641 111.612L203.741 112.812ZM210.677 115.888C211.364 116.042 212.075 116.167 212.81 116.26L212.999 114.772C212.31 114.684 211.645 114.568 211.005 114.424L210.677 115.888ZM218.182 116.373C218.536 116.346 218.893 116.311 219.254 116.27L219.084 114.78C218.741 114.819 218.401 114.851 218.066 114.878L218.182 116.373ZM219.254 116.27C219.569 116.234 219.885 116.195 220.203 116.152L220.004 114.665C219.696 114.707 219.389 114.745 219.084 114.78L219.254 116.27ZM224.915 115.29C225.532 115.147 226.151 114.991 226.772 114.822L226.377 113.375C225.775 113.539 225.174 113.69 224.576 113.829L224.915 115.29ZM231.327 113.339C231.921 113.114 232.514 112.875 233.105 112.622L232.517 111.243C231.944 111.487 231.369 111.718 230.793 111.937L231.327 113.339ZM237.414 110.521C237.971 110.212 238.525 109.891 239.074 109.556L238.293 108.275C237.762 108.599 237.227 108.91 236.688 109.208L237.414 110.521ZM243.031 106.842C243.535 106.455 244.034 106.054 244.527 105.639L243.561 104.491C243.085 104.892 242.604 105.279 242.117 105.653L243.031 106.842ZM248.023 102.35C248.461 101.889 248.892 101.416 249.316 100.929L248.184 99.9444C247.775 100.414 247.359 100.872 246.936 101.316L248.023 102.35ZM252.259 97.1419C252.621 96.6207 252.974 96.0872 253.319 95.5412L252.051 94.7401C251.718 95.2679 251.376 95.7836 251.027 96.2872L252.259 97.1419ZM255.665 91.3608C255.946 90.794 256.219 90.216 256.483 89.6266L255.114 89.0137C254.858 89.5852 254.593 90.1454 254.321 90.6944L255.665 91.3608ZM258.23 85.1723C258.333 84.87 258.433 84.565 258.532 84.2574L257.104 83.7995C257.008 84.0986 256.91 84.3952 256.81 84.6891L258.23 85.1723ZM257.802 84.7783C258.121 84.785 258.445 84.7924 258.774 84.8002L258.81 83.3007C258.48 83.2927 258.154 83.2854 257.834 83.2786L257.802 84.7783ZM263.768 84.9565C264.415 84.9815 265.075 85.0089 265.746 85.0388L265.813 83.5403C265.139 83.5103 264.476 83.4828 263.826 83.4576L263.768 84.9565ZM270.724 85.2987C271.378 85.3379 272.041 85.3796 272.711 85.4239L272.81 83.9272C272.137 83.8826 271.471 83.8407 270.813 83.8014L270.724 85.2987ZM277.68 85.7926C278.334 85.8464 278.994 85.9029 279.659 85.9621L279.792 84.468C279.124 84.4085 278.461 84.3518 277.803 84.2976L277.68 85.7926ZM284.625 86.447C285.277 86.5164 285.933 86.5885 286.593 86.6635L286.762 85.173C286.099 85.0977 285.439 85.0252 284.784 84.9554L284.625 86.447ZM291.536 87.2712C292.191 87.358 292.849 87.4478 293.51 87.5405L293.718 86.0551C293.054 85.9618 292.392 85.8715 291.733 85.7842L291.536 87.2712ZM298.428 88.2817C299.082 88.3872 299.738 88.4957 300.395 88.6074L300.647 87.1286C299.985 87.0162 299.325 86.9069 298.667 86.8008L298.428 88.2817ZM305.29 89.4957C305.939 89.6211 306.589 89.7498 307.239 89.8818L307.537 88.4118C306.883 88.2788 306.228 88.1492 305.575 88.0229L305.29 89.4957ZM312.1 90.9319C312.746 91.0801 313.391 91.2318 314.036 91.387L314.387 89.9287C313.737 89.7721 313.086 89.6192 312.435 89.4699L312.1 90.9319ZM318.851 92.6172C319.491 92.7904 320.129 92.9674 320.766 93.1482L321.176 91.7052C320.533 91.5227 319.889 91.3441 319.244 91.1693L318.851 92.6172ZM325.521 94.5802C326.153 94.7819 326.783 94.9877 327.411 95.1976L327.887 93.7751C327.252 93.5629 326.616 93.355 325.977 93.1512L325.521 94.5802ZM332.088 96.8581C332.707 97.0912 333.323 97.3287 333.936 97.5708L334.487 96.1756C333.867 95.9306 333.243 95.6902 332.617 95.4543L332.088 96.8581ZM338.51 99.4908C339.116 99.7608 339.717 100.036 340.314 100.316L340.951 98.9573C340.345 98.6734 339.735 98.3946 339.121 98.1208L338.51 99.4908ZM344.742 102.528C345.327 102.839 345.907 103.156 346.482 103.479L347.216 102.171C346.631 101.843 346.042 101.52 345.447 101.204L344.742 102.528ZM350.721 106.025C351.276 106.382 351.824 106.745 352.366 107.114L353.21 105.874C352.657 105.498 352.098 105.127 351.532 104.764L350.721 106.025ZM356.349 110.034C356.866 110.443 357.375 110.858 357.876 111.28L358.843 110.133C358.329 109.701 357.808 109.276 357.279 108.858L356.349 110.034ZM361.512 114.604C361.978 115.069 362.436 115.54 362.884 116.019L363.979 114.995C363.519 114.503 363.049 114.018 362.57 113.541L361.512 114.604ZM366.069 119.763C366.469 120.282 366.859 120.809 367.238 121.343L368.462 120.476C368.071 119.925 367.669 119.382 367.257 118.847L366.069 119.763ZM369.865 125.49C370.026 125.776 370.184 126.064 370.338 126.353L371.661 125.647C371.502 125.347 371.339 125.05 371.173 124.755L369.865 125.49Z" fill="white"/>
</svg>
