<svg width="102" height="102" viewBox="0 0 102 102" fill="none" xmlns="http://www.w3.org/2000/svg">
<circle cx="51" cy="51" r="50" fill="white" stroke="#504C5C" stroke-opacity="0.2" stroke-width="1.5" stroke-linecap="round" stroke-linejoin="round" stroke-dasharray="2 5"/>
<circle cx="51" cy="51" r="35" fill="#FEC830"/>
<circle cx="8.5" cy="22.5" r="7.5" fill="#FEC830"/>
<g clip-path="url(#clip0)">
<path d="M51.0069 55.0293C50.7885 55.016 50.6296 55.1919 50.6267 55.3991C50.6216 55.7895 50.4649 56.1579 50.1873 56.4363C49.6005 57.0207 48.6484 57.0201 48.0646 56.4363C47.4802 55.851 47.4802 54.8996 48.0654 54.3144C48.2119 54.168 48.2119 53.9308 48.0654 53.7842C47.919 53.6377 47.6816 53.6377 47.5351 53.7842C46.6577 54.6617 46.6569 56.0899 47.5344 56.9666C47.9731 57.4053 48.5487 57.6251 49.1252 57.6244C49.7016 57.6244 50.2787 57.4053 50.7175 56.9658C51.1343 56.5484 51.3686 55.9962 51.3767 55.4094C51.3797 55.2022 51.2141 55.0322 51.0069 55.0293Z" fill="#AA43A2"/>
<path d="M48.3709 44.0576C47.9599 43.6929 47.4289 43.4922 46.8767 43.4922C45.636 43.4922 44.6267 44.5018 44.6267 45.7429C44.6267 46.9833 45.636 47.9923 46.8767 47.9923C47.084 47.9923 47.2517 47.8245 47.2517 47.6172C47.2517 47.4098 47.084 47.2422 46.8767 47.2422C46.0497 47.2422 45.3767 46.5695 45.3767 45.7429C45.3767 44.9153 46.0498 44.2422 46.8767 44.2422C47.2458 44.2422 47.5996 44.3759 47.8728 44.6187C48.0281 44.7553 48.2647 44.742 48.4024 44.5871C48.5401 44.4322 48.5254 44.195 48.3709 44.0576Z" fill="#AA43A2"/>
<path d="M45.0015 49.375C44.1745 49.375 43.5014 50.0481 43.5014 50.8757C43.5014 51.4727 43.8544 52.0117 44.4008 52.2504C44.4492 52.271 44.5005 52.2812 44.5503 52.2812C44.6946 52.2812 44.8331 52.1969 44.8937 52.0557C44.9765 51.866 44.89 51.6455 44.6996 51.562C44.4272 51.4434 44.2514 51.1739 44.2514 50.8757C44.2514 50.4619 44.5876 50.125 45.0015 50.125C45.2087 50.125 45.3764 49.9572 45.3764 49.75C45.3764 49.5427 45.2087 49.375 45.0015 49.375Z" fill="#AA43A2"/>
<path d="M45.3947 46.416C44.2375 46.1754 43.1272 47.0858 43.1264 48.2515C43.1264 49.2846 43.9673 50.125 45.0015 50.125C45.2087 50.125 45.3765 49.9573 45.3765 49.75C45.3765 49.5428 45.2088 49.375 45.0015 49.375C44.3811 49.375 43.8765 48.871 43.8765 48.2515C43.8765 47.5516 44.5445 47.0063 45.241 47.1499C45.4468 47.1931 45.6423 47.0624 45.6848 46.8595C45.7273 46.6569 45.5969 46.4581 45.3947 46.416Z" fill="#AA43A2"/>
<path d="M49.5016 41.875C48.4675 41.875 47.6267 42.7169 47.6267 43.7514C47.6267 44.7846 48.4675 45.625 49.5016 45.625C49.7089 45.625 49.8767 45.4573 49.8766 45.25C49.8766 45.0428 49.7089 44.875 49.5015 44.875C48.8812 44.875 48.3765 44.371 48.3765 43.7514C48.3765 43.1304 48.8812 42.625 49.5015 42.625C50.1219 42.625 50.6266 43.1304 50.6266 43.7514C50.6266 43.9587 50.7943 44.1264 51.0017 44.1264C51.2089 44.1264 51.3767 43.9587 51.3767 43.7514C51.3767 42.7169 50.5358 41.875 49.5016 41.875Z" fill="#AA43A2"/>
<path d="M48.9979 51.0039C48.4296 50.4356 47.6759 50.1235 46.8761 50.1235C46.8761 50.1235 46.8761 50.1235 46.8753 50.1235C46.0755 50.1235 45.3226 50.4356 44.7556 51.0032C43.5853 52.1735 43.5845 54.0771 44.7541 55.2468C45.3211 55.813 46.0923 56.1265 46.8819 56.1265C47.0349 56.1265 47.188 56.1147 47.3404 56.0914C47.5447 56.0592 47.6846 55.8672 47.6532 55.6629C47.6217 55.4586 47.4262 55.3224 47.2247 55.3501C46.5187 55.4622 45.792 55.2235 45.2845 54.7167C44.4071 53.8398 44.4078 52.4116 45.286 51.5334C45.7115 51.108 46.2762 50.8735 46.8753 50.8735H46.8761C47.4759 50.8735 48.0414 51.108 48.4676 51.5342C48.6141 51.6807 48.8514 51.6807 48.9979 51.5342C49.1444 51.3877 49.1444 51.1505 48.9979 51.0039Z" fill="#AA43A2"/>
<path d="M54.4687 53.7842C54.3223 53.6376 54.085 53.6377 53.9385 53.7842C53.7919 53.9306 53.7919 54.1679 53.9385 54.3144C54.5229 54.8996 54.5229 55.851 53.9385 56.4362C53.3554 57.0215 52.4033 57.0215 51.8159 56.437C51.5386 56.158 51.3819 55.7896 51.3768 55.3992C51.3731 55.1919 51.2068 55.022 50.9966 55.0293C50.7893 55.0323 50.6238 55.2023 50.6267 55.4095C50.6348 55.9962 50.8692 56.5484 51.2859 56.9667C51.7247 57.4054 52.3007 57.6252 52.8779 57.6252C53.4535 57.6252 54.0307 57.4054 54.4687 56.9666C55.3462 56.0899 55.3462 54.6617 54.4687 53.7842Z" fill="#AA43A2"/>
<path d="M55.1262 43.4922C54.574 43.4922 54.0437 43.6929 53.632 44.0576C53.4783 44.195 53.4636 44.4322 53.6013 44.5871C53.7375 44.742 53.9749 44.7553 54.1301 44.6187C54.4041 44.3759 54.7571 44.2422 55.1262 44.2422C55.9538 44.2422 56.6262 44.9153 56.6262 45.7429C56.6262 46.5694 55.9538 47.2422 55.1262 47.2422C54.9197 47.2422 54.7513 47.4098 54.7513 47.6172C54.7513 47.8244 54.9197 47.9922 55.1262 47.9922C56.367 47.9922 57.3763 46.9832 57.3762 45.7429C57.3762 44.5019 56.367 43.4922 55.1262 43.4922Z" fill="#AA43A2"/>
<path d="M57.0012 49.375C56.7947 49.375 56.6262 49.5427 56.6262 49.75C56.6262 49.9572 56.7947 50.125 57.0012 50.125C57.4158 50.125 57.7512 50.4619 57.7512 50.8757C57.7512 51.1738 57.5755 51.4433 57.303 51.562C57.1125 51.6455 57.0261 51.866 57.1096 52.0557C57.1696 52.197 57.3088 52.2812 57.4523 52.2812C57.5022 52.2812 57.5534 52.2709 57.6017 52.2504C58.1481 52.0117 58.5012 51.4727 58.5012 50.8757C58.5012 50.0481 57.8289 49.375 57.0012 49.375Z" fill="#AA43A2"/>
<path d="M56.6085 46.416C56.4064 46.4581 56.2761 46.6569 56.3185 46.8595C56.3595 47.0623 56.5572 47.1931 56.7623 47.1498C57.4596 47.0041 58.126 47.5512 58.126 48.2514C58.126 48.8711 57.6221 49.375 57.0011 49.375C56.7946 49.375 56.6261 49.5427 56.6261 49.75C56.6261 49.9572 56.7946 50.125 57.0011 50.125C58.0352 50.125 58.876 49.2845 58.8761 48.2514C58.8761 47.0858 57.7687 46.1754 56.6085 46.416Z" fill="#AA43A2"/>
<path d="M52.5014 41.875C51.4675 41.875 50.6267 42.7169 50.6267 43.7514C50.6267 43.9587 50.7944 44.1264 51.0018 44.1264C51.209 44.1264 51.3768 43.9587 51.3768 43.7514C51.3768 43.1304 51.8818 42.625 52.5014 42.625C53.1224 42.625 53.6263 43.1304 53.6263 43.7514C53.6263 44.3711 53.1224 44.875 52.5014 44.875C52.2948 44.875 52.1264 45.0428 52.1264 45.25C52.1264 45.4572 52.2948 45.625 52.5014 45.625C53.5355 45.625 54.3763 44.7846 54.3763 43.7514C54.3763 42.7169 53.5355 41.875 52.5014 41.875Z" fill="#AA43A2"/>
<path d="M57.2472 51.0032C56.6803 50.4356 55.9273 50.1235 55.1275 50.1235C54.3278 50.1235 53.5734 50.4356 53.005 51.0039C52.8584 51.1504 52.8585 51.3876 53.005 51.5342C53.1514 51.6807 53.3887 51.6807 53.5352 51.5342C53.9616 51.108 54.527 50.8735 55.1275 50.8735C55.7266 50.8735 56.2922 51.108 56.7169 51.5334C57.5959 52.4116 57.5959 53.8398 56.7184 54.7159C56.2116 55.2235 55.4865 55.4622 54.7789 55.3501C54.5768 55.3187 54.3819 55.4578 54.3497 55.6629C54.319 55.8672 54.4581 56.0591 54.6632 56.0914C54.8156 56.1147 54.9679 56.1265 55.1202 56.1265C55.9113 56.1265 56.6817 55.813 57.2487 55.2468C58.4191 54.0772 58.4177 52.1736 57.2472 51.0032Z" fill="#AA43A2"/>
<path d="M57.3747 62.8752H44.6249C44.4177 62.8752 44.2499 63.0429 44.2499 63.2502V68.5003C44.2499 68.5998 44.2894 68.695 44.3598 68.7654L45.8599 70.2654C45.9301 70.3357 46.0253 70.3753 46.125 70.3753H55.8747C55.9743 70.3753 56.0695 70.3357 56.1399 70.2654L57.6398 68.7654C57.7101 68.695 57.7497 68.5999 57.7497 68.5003V63.2502C57.7497 63.0429 57.5813 62.8752 57.3747 62.8752ZM56.9997 68.345L55.7195 69.6253H46.2803L44.9999 68.345V63.6252H56.9997V68.345Z" fill="#AA43A2"/>
<path d="M58.1041 64.3751L43.8551 65.1251C43.6486 65.1368 43.4897 65.3126 43.5006 65.5198C43.5109 65.7199 43.6765 65.875 43.8749 65.875C43.8814 65.875 43.888 65.875 43.8947 65.875L58.1437 65.1251C58.3503 65.1133 58.5099 64.9376 58.4982 64.7304C58.4879 64.5238 58.3151 64.3707 58.1041 64.3751Z" fill="#AA43A2"/>
<path d="M58.1041 66.6252L43.8551 67.3752C43.6486 67.3869 43.4897 67.5626 43.5006 67.77C43.5109 67.9699 43.6765 68.1252 43.8749 68.1252C43.8814 68.1252 43.888 68.1252 43.8947 68.1252L58.1437 67.3752C58.3503 67.3635 58.5099 67.1877 58.4982 66.9804C58.4879 66.7739 58.3151 66.615 58.1041 66.6252Z" fill="#AA43A2"/>
<path d="M51.0001 37.375C43.9695 37.375 38.25 43.0946 38.25 50.1251C38.25 54.5534 40.4891 58.5751 44.25 60.9255V63.2502C44.25 63.4575 44.4178 63.6252 44.625 63.6252H57.3748C57.5814 63.6252 57.7498 63.4575 57.7498 63.2502V60.9255C61.5101 58.5759 63.7498 54.5542 63.7498 50.1251C63.7498 43.0945 58.0296 37.375 51.0001 37.375ZM57.1814 60.3952C57.0686 60.4626 56.9998 60.5842 56.9998 60.716V62.8752H45.0002V60.716C45.0002 60.5842 44.9313 60.4626 44.8186 60.3952C41.1754 58.1979 39.0001 54.3585 39.0001 50.125C39.0001 43.5083 44.3834 38.125 51.0002 38.125C57.6165 38.125 62.9999 43.5083 62.9999 50.125C62.9999 54.36 60.8245 58.1986 57.1814 60.3952Z" fill="#AA43A2"/>
<path d="M54.5447 69.6678C54.3615 69.5741 54.136 69.6473 54.0408 69.829C54.0129 69.8824 53.3332 71.1254 51.0001 71.1254C48.6695 71.1254 47.9883 69.886 47.959 69.8297C47.866 69.6465 47.6427 69.574 47.4573 69.6648C47.272 69.757 47.1972 69.9826 47.2896 70.168C47.3246 70.2375 48.1758 71.8753 51 71.8753C53.824 71.8753 54.675 70.2375 54.7103 70.1681C54.8025 69.9842 54.7278 69.7615 54.5447 69.6678Z" fill="#AA43A2"/>
<path d="M34.875 49.75H27.375C27.1677 49.75 27 49.9177 27 50.125C27 50.3323 27.1677 50.5 27.375 50.5H34.875C35.0823 50.5 35.2501 50.3323 35.2501 50.125C35.2501 49.9177 35.0823 49.75 34.875 49.75Z" fill="#AA43A2"/>
<path d="M74.6251 49.75H67.1251C66.9171 49.75 66.7501 49.9177 66.7501 50.125C66.7501 50.3323 66.9171 50.5 67.1251 50.5H74.6251C74.8317 50.5 75.0001 50.3323 75.0001 50.125C75.0001 49.9177 74.8316 49.75 74.6251 49.75Z" fill="#AA43A2"/>
<path d="M37.3608 58.0001C37.2583 57.8199 37.0283 57.7599 36.8489 57.8624L30.3522 61.6125C30.1728 61.7166 30.1113 61.9458 30.2153 62.1252C30.2841 62.2453 30.4108 62.3127 30.5397 62.3127C30.6034 62.3127 30.6679 62.2966 30.7273 62.2629L37.2239 58.5129C37.4033 58.4088 37.4648 58.1795 37.3608 58.0001Z" fill="#AA43A2"/>
<path d="M71.7831 38.125C71.6806 37.9448 71.4506 37.8848 71.2719 37.9877L64.7781 41.7377C64.598 41.8413 64.5365 42.0705 64.6404 42.25C64.7094 42.3706 64.8368 42.4376 64.9657 42.4376C65.0287 42.4376 65.0932 42.4214 65.1531 42.3874L71.6469 38.6374C71.8255 38.5337 71.8871 38.3044 71.7831 38.125Z" fill="#AA43A2"/>
<path d="M63 29.3405C62.8183 29.2362 62.5898 29.298 62.4873 29.4779L58.7387 35.9731C58.6348 36.1525 58.6963 36.3817 58.8764 36.4854C58.9351 36.5195 58.9994 36.5356 59.064 36.5356C59.1929 36.5356 59.3189 36.4681 59.3876 36.3481L63.1362 29.8529C63.2402 29.6734 63.1787 29.4441 63 29.3405Z" fill="#AA43A2"/>
<path d="M51.3757 26.4997C51.3757 26.2925 51.208 26.1248 51.0008 26.1248C50.7934 26.1248 50.6257 26.2929 50.6257 26.4997L50.6264 33.9984C50.6264 34.2057 50.7942 34.3734 51.0015 34.3734C51.2087 34.3734 51.3765 34.2053 51.3765 33.9984L51.3757 26.4997Z" fill="#AA43A2"/>
<path d="M43.2637 35.9714L39.5136 29.4777C39.4103 29.2975 39.1804 29.2371 39.0016 29.3404C38.8222 29.4441 38.7607 29.6733 38.8647 29.8527L42.6147 36.3464C42.6835 36.467 42.8103 36.534 42.9392 36.534C43.0029 36.534 43.0673 36.5178 43.1267 36.4838C43.3062 36.3801 43.3676 36.1509 43.2637 35.9714Z" fill="#AA43A2"/>
<path d="M71.6485 61.611L65.1533 57.861C64.9731 57.7584 64.7446 57.8185 64.6406 57.9987C64.5366 58.1781 64.5981 58.4074 64.7783 58.5114L71.2735 62.2615C71.332 62.295 71.3965 62.3112 71.4609 62.3112C71.5898 62.3112 71.7158 62.2438 71.7847 62.1237C71.8887 61.9443 71.8271 61.715 71.6485 61.611Z" fill="#AA43A2"/>
<path d="M37.224 41.7347L30.7295 37.9861C30.5508 37.8836 30.3208 37.944 30.2176 38.1235C30.1136 38.3029 30.1751 38.5322 30.3545 38.6358L36.849 42.3844C36.9084 42.4185 36.9728 42.4346 37.0365 42.4346C37.1654 42.4346 37.2921 42.3671 37.3609 42.2471C37.4649 42.0676 37.4034 41.8384 37.224 41.7347Z" fill="#AA43A2"/>
<path d="M51.0018 43.3765C50.7944 43.3765 50.6267 43.5442 50.6267 43.7515V55.4044C50.6267 55.6116 50.7944 55.7794 51.0018 55.7794C51.209 55.7794 51.3768 55.6116 51.3768 55.4044V43.7515C51.3768 43.5442 51.209 43.3765 51.0018 43.3765Z" fill="#AA43A2"/>
<path d="M52.125 52.375C51.623 52.375 51.3409 51.8389 51.3365 51.8308C51.2435 51.6469 51.0186 51.5723 50.8348 51.6646C50.6495 51.7568 50.5741 51.981 50.6663 52.1669C50.6853 52.2065 51.1535 53.125 52.125 53.125C52.3315 53.125 52.5 52.9573 52.5 52.75C52.5 52.5427 52.3315 52.375 52.125 52.375Z" fill="#AA43A2"/>
<path d="M51.1659 51.666C50.9828 51.5738 50.7571 51.6485 50.6627 51.8309C50.6598 51.836 50.377 52.3751 49.8746 52.3751C49.6673 52.3751 49.4996 52.5428 49.4996 52.7501C49.4996 52.9573 49.6673 53.1251 49.8746 53.1251C50.8458 53.1251 51.3139 52.2066 51.3328 52.167C51.4252 51.9825 51.3497 51.7598 51.1659 51.666Z" fill="#AA43A2"/>
<path d="M52.8749 47.8751C51.439 47.8751 51.3789 46.8624 51.3768 46.7467C51.3753 46.5412 51.2075 46.375 51.0018 46.375C50.7944 46.375 50.6267 46.5427 50.6267 46.75C50.6267 47.3986 51.0962 48.625 52.8748 48.625C53.0814 48.625 53.2498 48.4573 53.2499 48.25C53.2499 48.0428 53.0814 47.8751 52.8749 47.8751Z" fill="#AA43A2"/>
<path d="M51.0008 46.377C50.7854 46.3608 50.6258 46.5406 50.6221 46.7468C50.6199 46.8622 50.5598 47.8752 49.1242 47.8752C48.917 47.8752 48.7492 48.0429 48.7492 48.2502C48.7492 48.4574 48.917 48.6252 49.1242 48.6252C50.9025 48.6252 51.3721 47.3987 51.3721 46.7502C51.3721 46.5444 51.2065 46.3788 51.0008 46.377Z" fill="#AA43A2"/>
</g>
<defs>
<clipPath id="clip0">
<rect width="48" height="48" fill="white" transform="translate(27 25)"/>
</clipPath>
</defs>
</svg>
