<svg width="107" height="102" viewBox="0 0 107 102" fill="none" xmlns="http://www.w3.org/2000/svg">
<circle cx="51" cy="51.0002" r="50" fill="white" stroke="#504C5C" stroke-opacity="0.2" stroke-width="1.5" stroke-linecap="round" stroke-linejoin="round" stroke-dasharray="2 5"/>
<circle cx="51" cy="51.0002" r="35" fill="#AA43A2"/>
<circle cx="99.5" cy="30.5002" r="7.5" fill="#AA43A2"/>
<g clip-path="url(#clip0)">
<path d="M45.7497 45C42.0279 45 38.9996 48.0278 38.9996 51.7499C38.9996 55.4721 42.0279 58.5 45.7497 58.5C49.4715 58.5 52.4997 55.4721 52.4997 51.7499C52.4997 48.0278 49.4716 45 45.7497 45ZM45.7497 57.7499C42.4413 57.7499 39.7497 55.0583 39.7497 51.7499C39.7497 48.4416 42.4413 45.75 45.7497 45.75C49.058 45.75 51.7496 48.4416 51.7496 51.7499C51.7496 55.0583 49.058 57.7499 45.7497 57.7499Z" fill="#FEC830"/>
<path d="M52.1246 52.875C51.9174 52.875 51.7496 53.0427 51.7496 53.25C51.7496 56.5584 49.058 59.25 45.7497 59.25C42.4413 59.25 39.7497 56.5584 39.7497 53.25C39.7497 53.0427 39.582 52.875 39.3747 52.875C39.1674 52.875 38.9996 53.0427 38.9996 53.25C38.9996 56.9723 42.0279 60 45.7497 60C49.4715 60 52.4997 56.9722 52.4997 53.25C52.4997 53.0427 52.332 52.875 52.1246 52.875Z" fill="#FEC830"/>
<path d="M39.3747 51.375C39.1674 51.375 38.9996 51.5427 38.9996 51.75V53.2499C38.9996 53.4573 39.1674 53.625 39.3747 53.625C39.582 53.625 39.7497 53.4573 39.7497 53.2499V51.75C39.7498 51.5427 39.582 51.375 39.3747 51.375Z" fill="#FEC830"/>
<path d="M52.1251 51.375C51.9178 51.375 51.7501 51.5427 51.7501 51.75V53.2499C51.7501 53.4573 51.9178 53.625 52.1251 53.625C52.3324 53.625 52.5 53.4573 52.5001 53.2499V51.75C52.5 51.5427 52.3323 51.375 52.1251 51.375Z" fill="#FEC830"/>
<path d="M45.75 48.75C44.0959 48.75 42.75 50.0954 42.75 51.75C42.75 53.4045 44.0959 54.7501 45.75 54.7501C47.4042 54.7501 48.75 53.4045 48.75 51.75C48.75 50.0954 47.4043 48.75 45.75 48.75ZM45.75 53.9999C44.5093 53.9999 43.5 52.9906 43.5 51.75C43.5 50.5093 44.5093 49.5001 45.75 49.5001C46.9908 49.5001 48.0001 50.5093 48.0001 51.75C48.0001 52.9906 46.9908 53.9999 45.75 53.9999Z" fill="#FEC830"/>
<path d="M48.6264 52.3931C48.2511 51.1311 47.0686 50.25 45.7502 50.25C44.4318 50.25 43.2493 51.1311 42.8739 52.3931C42.8149 52.5917 42.9281 52.8003 43.1266 52.8597C43.328 52.9176 43.5341 52.8055 43.5931 52.6071C43.8743 51.6607 44.7613 51.0001 45.7501 51.0001C46.7389 51.0001 47.6259 51.6607 47.9071 52.6071C47.9559 52.7695 48.1049 52.875 48.2667 52.875C48.3019 52.875 48.3378 52.87 48.3738 52.8597C48.5722 52.8003 48.6853 52.5916 48.6264 52.3931Z" fill="#FEC830"/>
<path d="M44.1364 49.6062L41.5078 46.9775C41.3613 46.8311 41.1241 46.8311 40.9775 46.9775C40.831 47.124 40.831 47.3612 40.9775 47.5078L43.6063 50.1365C43.6795 50.2097 43.7754 50.2464 43.8714 50.2464C43.9674 50.2464 44.0632 50.2097 44.1364 50.1365C44.283 49.99 44.283 49.7528 44.1364 49.6062Z" fill="#FEC830"/>
<path d="M45.7501 54C45.5428 54 45.3751 54.1677 45.3751 54.3751V58.125C45.3751 58.3324 45.5428 58.5001 45.7501 58.5001C45.9573 58.5001 46.1251 58.3324 46.1251 58.125V54.3751C46.1251 54.1677 45.9573 54 45.7501 54Z" fill="#FEC830"/>
<path d="M52.8738 28.4999H52.6655C52.0414 27.5698 50.9911 27 49.8739 27C48.0127 27 46.4988 28.5139 46.4988 30.3751C46.4988 32.2361 48.0127 33.75 49.8739 33.75C50.9908 33.75 52.0411 33.1803 52.6655 32.25H52.8738C53.0811 32.25 53.2488 32.0822 53.2488 31.875V28.8749C53.2488 28.6677 53.0811 28.4999 52.8738 28.4999ZM52.4989 31.4999H52.4579C52.3242 31.4999 52.2008 31.5709 52.1337 31.6867C51.6631 32.4968 50.7971 33 49.8739 33C48.4266 33 47.2489 31.8223 47.2489 30.3751C47.2489 28.9278 48.4265 27.7501 49.8739 27.7501C50.8117 27.7501 51.6562 28.2407 52.1333 29.0633C52.2008 29.1791 52.3242 29.2501 52.4579 29.2501H52.4989V31.4999Z" fill="#FEC830"/>
<path d="M56.1402 29.3598L55.3903 28.6099C55.3199 28.5396 55.2248 28.5 55.1251 28.5H52.8744C52.6671 28.5 52.4994 28.6677 52.4994 28.875V31.8751C52.4994 32.0823 52.6671 32.25 52.8744 32.25H55.1251C55.2248 32.25 55.3199 32.2105 55.3903 32.1401L56.1402 31.3901C56.2106 31.3198 56.2501 31.2246 56.2501 31.125V29.625C56.2501 29.5253 56.2106 29.4302 56.1402 29.3598ZM55.5002 30.9697L54.97 31.5H53.2495V29.25H54.97L55.5002 29.7802V30.9697Z" fill="#FEC830"/>
<path d="M54.3751 28.5C54.1678 28.5 54.0001 28.6677 54.0001 28.875V31.8751C54.0001 32.0823 54.1678 32.25 54.3751 32.25C54.5823 32.25 54.75 32.0822 54.75 31.8751V28.875C54.75 28.6677 54.5824 28.5 54.3751 28.5Z" fill="#FEC830"/>
<path d="M51.9044 30.3749L52.3892 29.8901C52.5358 29.7436 52.5358 29.5064 52.3892 29.3598C52.2428 29.2134 52.0055 29.2134 51.859 29.3598L51.109 30.1099C50.9625 30.2564 50.9625 30.4937 51.109 30.6402L51.859 31.3902C51.9323 31.4634 52.0282 31.5001 52.1241 31.5001C52.2201 31.5001 52.3161 31.4635 52.3892 31.39C52.5358 31.2436 52.5358 31.0063 52.3892 30.8598L51.9044 30.3749Z" fill="#FEC830"/>
<path d="M52.1245 30.75H49.8746C49.6673 30.75 49.4996 30.9177 49.4996 31.125C49.4996 31.3322 49.6673 31.5 49.8746 31.5H52.1245C52.3318 31.5 52.4995 31.3322 52.4996 31.125C52.4997 30.9177 52.3318 30.75 52.1245 30.75Z" fill="#FEC830"/>
<path d="M52.1245 29.25H49.8746C49.6673 29.25 49.4996 29.4177 49.4996 29.625C49.4996 29.8322 49.6673 30 49.8746 30H52.1245C52.3318 30 52.4996 29.8322 52.4996 29.625C52.4997 29.4177 52.3318 29.25 52.1245 29.25Z" fill="#FEC830"/>
<path d="M57.375 30C57.1678 30 57 30.1677 57 30.3751C57 30.5823 57.1678 30.7501 57.375 30.7501C58.4091 30.7501 59.25 31.5909 59.25 32.625C59.25 32.8322 59.4177 33 59.625 33C59.8322 33 60 32.8322 60 32.625C60.0001 31.1778 58.8223 30 57.375 30Z" fill="#FEC830"/>
<path d="M59.6253 32.25C59.4179 32.25 59.2503 32.4177 59.2503 32.625V37.125C59.2503 37.3322 59.4179 37.5 59.6253 37.5C59.8325 37.5 60.0003 37.3322 60.0003 37.125V32.625C60.0003 32.4177 59.8324 32.25 59.6253 32.25Z" fill="#FEC830"/>
<path d="M54.3748 35.25H52.8747C52.6675 35.25 52.4997 35.4177 52.4997 35.625V37.125C52.4997 37.3323 52.6675 37.5 52.8747 37.5H54.3748C54.582 37.5 54.7498 37.3323 54.7498 37.1249V35.625C54.7498 35.4177 54.5821 35.25 54.3748 35.25ZM53.9998 36.7499H53.2497V36H53.9998V36.7499Z" fill="#FEC830"/>
<path d="M73.8747 39.75H34.1247C33.9175 39.75 33.7497 39.9177 33.7497 40.1251V64.8751C33.7497 65.0823 33.9175 65.2501 34.1247 65.2501H73.8747C74.082 65.2501 74.2497 65.0823 74.2497 64.8751V40.1251C74.2497 39.9177 74.0821 39.75 73.8747 39.75ZM73.4998 64.5H34.4997V40.5001H73.4998V64.5Z" fill="#FEC830"/>
<path d="M75.375 36.75H32.625C32.4177 36.75 32.25 36.9177 32.25 37.125V40.1251C32.25 40.3323 32.4177 40.5001 32.625 40.5001H75.375C75.5822 40.5001 75.75 40.3323 75.75 40.1251V37.125C75.75 36.9177 75.5822 36.75 75.375 36.75ZM75.0001 39.75H33V37.5H75V39.75H75.0001Z" fill="#FEC830"/>
<path d="M73.1252 38.25H34.8752C34.6678 38.25 34.5001 38.4177 34.5001 38.625C34.5001 38.8323 34.6678 39.0001 34.8752 39.0001H73.1251C73.3323 39.0001 73.5001 38.8324 73.5001 38.625C73.5002 38.4177 73.3325 38.25 73.1252 38.25Z" fill="#FEC830"/>
<path d="M64.2925 74.2896L54.1676 69.2272C53.9826 69.1335 53.757 69.2095 53.6643 69.3949C53.5717 69.5801 53.6468 69.8051 53.8321 69.8981L63.9571 74.9605C64.0105 74.9876 64.0677 75.0001 64.1248 75.0001C64.2625 75.0001 64.3943 74.924 64.4602 74.7928C64.5524 74.6076 64.4779 74.3827 64.2925 74.2896Z" fill="#FEC830"/>
<path d="M67.2924 74.2895L54.1676 67.7271C53.9826 67.6333 53.757 67.7102 53.6643 67.8947C53.5717 68.08 53.6468 68.3049 53.8321 68.3979L66.957 74.9604C67.0104 74.9875 67.0677 75 67.1247 75C67.2624 75 67.3942 74.9239 67.4602 74.7926C67.5524 74.6075 67.4778 74.3826 67.2924 74.2895Z" fill="#FEC830"/>
<path d="M67.1246 74.25H64.1246C63.9174 74.25 63.7496 74.4177 63.7496 74.625C63.7496 74.8322 63.9174 75 64.1246 75H67.1246C67.332 75 67.4997 74.8322 67.4997 74.625C67.4997 74.4177 67.332 74.25 67.1246 74.25Z" fill="#FEC830"/>
<path d="M54.3353 69.3949C54.2424 69.2095 54.0179 69.1335 53.8322 69.2272L43.7072 74.2896C43.5218 74.3827 43.4469 74.6075 43.5395 74.7928C43.6055 74.9239 43.7377 75.0001 43.8753 75.0001C43.9317 75.0001 43.9888 74.9877 44.0426 74.9605L54.1677 69.8981C54.353 69.8051 54.4279 69.5802 54.3353 69.3949Z" fill="#FEC830"/>
<path d="M54.3352 67.8947C54.2422 67.7102 54.0177 67.6333 53.832 67.7271L40.7071 74.2895C40.5218 74.3826 40.4466 74.6074 40.5393 74.7926C40.6053 74.9238 40.7374 75 40.8752 75C40.9316 75 40.9886 74.9876 41.0425 74.9604L54.1675 68.3979C54.3528 68.3049 54.4278 68.0801 54.3352 67.8947Z" fill="#FEC830"/>
<path d="M43.8752 74.25H40.8752C40.668 74.25 40.5002 74.4177 40.5002 74.625C40.5002 74.8322 40.668 75 40.8752 75H43.8752C44.0824 75 44.2503 74.8322 44.2503 74.625C44.2502 74.4177 44.0823 74.25 43.8752 74.25Z" fill="#FEC830"/>
<path d="M53.2496 64.5C53.0424 64.5 52.8747 64.6677 52.8747 64.875V68.4375C52.8747 68.6447 53.0424 68.8125 53.2496 68.8125C53.457 68.8125 53.6246 68.6447 53.6246 68.4375V64.875C53.6246 64.6677 53.4569 64.5 53.2496 64.5Z" fill="#FEC830"/>
<path d="M54.75 64.5C54.5426 64.5 54.375 64.6677 54.375 64.875V68.4375C54.375 68.6447 54.5426 68.8125 54.75 68.8125C54.9572 68.8125 55.125 68.6447 55.125 68.4375V64.875C55.1251 64.6677 54.9572 64.5 54.75 64.5Z" fill="#FEC830"/>
<path d="M54.75 69.5625C54.5426 69.5625 54.375 69.7302 54.375 69.9375V74.625C54.375 74.8323 54.5426 75 54.75 75C54.9572 75 55.125 74.8323 55.125 74.625V69.9375C55.1251 69.7302 54.9572 69.5625 54.75 69.5625Z" fill="#FEC830"/>
<path d="M54.7497 74.25H53.2496C53.0424 74.25 52.8747 74.4177 52.8747 74.625C52.8747 74.8322 53.0424 75 53.2496 75H54.7497C54.9569 75 55.1246 74.8322 55.1246 74.625C55.1247 74.4177 54.9569 74.25 54.7497 74.25Z" fill="#FEC830"/>
<path d="M53.2496 69.5625C53.0424 69.5625 52.8747 69.7302 52.8747 69.9375V74.625C52.8747 74.8323 53.0424 75 53.2496 75C53.457 75 53.6246 74.8323 53.6246 74.625V69.9375C53.6246 69.7302 53.4569 69.5625 53.2496 69.5625Z" fill="#FEC830"/>
<path d="M32.6262 46.5C31.1789 46.5 30.0013 47.6778 30.0013 49.125C30.0013 49.3323 30.1689 49.5001 30.3762 49.5001C30.5835 49.5001 30.7512 49.3323 30.7512 49.125C30.7512 48.0908 31.5923 47.25 32.6262 47.25C32.8334 47.25 33.0011 47.0822 33.0011 46.875C33.0011 46.6677 32.8334 46.5 32.6262 46.5Z" fill="#FEC830"/>
<path d="M32.6249 51C31.5911 51 30.75 50.1591 30.75 49.125C30.75 48.9177 30.5822 48.75 30.375 48.75C30.1677 48.75 30 48.9177 30 49.125C30 50.5722 31.1777 51.75 32.6249 51.75C32.8322 51.75 32.9999 51.5823 32.9999 51.375C32.9999 51.1678 32.8321 51 32.6249 51Z" fill="#FEC830"/>
<path d="M37.8748 46.5H32.6263C32.4191 46.5 32.2513 46.6677 32.2513 46.875C32.2513 47.0822 32.4191 47.25 32.6263 47.25H37.8748C38.0822 47.25 38.2499 47.0823 38.2499 46.875C38.2499 46.6677 38.0822 46.5 37.8748 46.5Z" fill="#FEC830"/>
<path d="M77.6233 44.25C77.416 44.25 77.2483 44.4177 77.2483 44.625C77.2483 45.6592 76.4074 46.5 75.3733 46.5C75.166 46.5 74.9983 46.6678 74.9983 46.875C74.9983 47.0822 75.166 47.25 75.3733 47.25C76.8206 47.25 77.9984 46.0723 77.9983 44.625C77.9983 44.4177 77.8306 44.25 77.6233 44.25Z" fill="#FEC830"/>
<path d="M75.3747 42C75.1675 42 74.9997 42.1677 74.9997 42.375C74.9997 42.5822 75.1675 42.75 75.3747 42.75C76.4088 42.75 77.2497 43.5909 77.2497 44.625C77.2497 44.8323 77.4174 45.0001 77.6247 45.0001C77.8319 45.0001 77.9997 44.8323 77.9997 44.625C77.9996 43.1778 76.822 42 75.3747 42Z" fill="#FEC830"/>
<path d="M75.3735 46.5H71.625C71.4177 46.5 71.2499 46.6677 71.2499 46.875C71.2499 47.0822 71.4177 47.25 71.625 47.25H75.3735C75.5807 47.25 75.7485 47.0823 75.7485 46.875C75.7485 46.6677 75.5807 46.5 75.3735 46.5Z" fill="#FEC830"/>
<path d="M32.6262 57.75C31.1789 57.75 30.0013 58.9277 30.0013 60.375C30.0013 60.5822 30.1689 60.75 30.3762 60.75C30.5835 60.75 30.7512 60.5822 30.7512 60.375C30.7512 59.3409 31.5923 58.5001 32.6262 58.5001C32.8334 58.5001 33.0011 58.3323 33.0011 58.125C33.0011 57.9177 32.8334 57.75 32.6262 57.75Z" fill="#FEC830"/>
<path d="M37.8748 57.75H32.6263C32.4191 57.75 32.2513 57.9177 32.2513 58.125C32.2513 58.3323 32.4191 58.5001 32.6263 58.5001H37.8748C38.0822 58.5001 38.2499 58.3323 38.2499 58.125C38.2499 57.9177 38.0822 57.75 37.8748 57.75Z" fill="#FEC830"/>
<path d="M77.6233 55.5C77.416 55.5 77.2483 55.6677 77.2483 55.875C77.2483 56.9091 76.4074 57.7499 75.3733 57.7499C75.166 57.7499 74.9983 57.9177 74.9983 58.1249C74.9983 58.3322 75.166 58.5 75.3733 58.5C76.8206 58.5 77.9984 57.3223 77.9983 55.875C77.9983 55.6677 77.8306 55.5 77.6233 55.5Z" fill="#FEC830"/>
<path d="M75.3747 53.25C75.1675 53.25 74.9997 53.4177 74.9997 53.6251C74.9997 53.8323 75.1675 54 75.3747 54C76.4088 54 77.2497 54.8409 77.2497 55.875C77.2497 56.0822 77.4174 56.25 77.6247 56.25C77.8319 56.25 77.9997 56.0822 77.9997 55.875C77.9996 54.4278 76.822 53.25 75.3747 53.25Z" fill="#FEC830"/>
<path d="M75.3736 57.75H65.625C65.4178 57.75 65.2501 57.9177 65.2501 58.125C65.2501 58.3323 65.4178 58.5001 65.625 58.5001H75.3736C75.5808 58.5001 75.7485 58.3323 75.7485 58.125C75.7485 57.9177 75.5808 57.75 75.3736 57.75Z" fill="#FEC830"/>
<path d="M68.6249 46.5H55.125C54.9178 46.5 54.75 46.6677 54.75 46.875C54.75 47.0822 54.9178 47.25 55.125 47.25H68.6251C68.8323 47.25 69 47.0823 69 46.875C68.9999 46.6677 68.8322 46.5 68.6249 46.5Z" fill="#FEC830"/>
<path d="M68.6249 48.75H55.125C54.9178 48.75 54.75 48.9176 54.75 49.125C54.75 49.3323 54.9178 49.5001 55.125 49.5001H68.6251C68.8323 49.5001 69 49.3322 69 49.125C69 48.9177 68.8322 48.75 68.6249 48.75Z" fill="#FEC830"/>
<path d="M68.6249 51H55.125C54.9178 51 54.75 51.1677 54.75 51.375C54.75 51.5823 54.9178 51.75 55.125 51.75H68.6251C68.8323 51.75 69 51.5823 69 51.375C68.9999 51.1677 68.8322 51 68.6249 51Z" fill="#FEC830"/>
<path d="M68.6249 53.2507H55.125C54.9178 53.2507 54.75 53.4185 54.75 53.6258C54.75 53.8331 54.9178 54.0007 55.125 54.0007H68.6251C68.8323 54.0007 69 53.8331 69 53.6258C68.9999 53.4185 68.8322 53.2507 68.6249 53.2507Z" fill="#FEC830"/>
<path d="M68.6249 55.5H55.125C54.9178 55.5 54.75 55.6677 54.75 55.875C54.75 56.0822 54.9178 56.25 55.125 56.25H68.6251C68.8323 56.25 69 56.0822 69 55.875C68.9999 55.6677 68.8322 55.5 68.6249 55.5Z" fill="#FEC830"/>
<path d="M62.625 57.75H55.125C54.9178 57.75 54.75 57.9177 54.75 58.125C54.75 58.3323 54.9178 58.5001 55.125 58.5001H62.625C62.8322 58.5001 62.9999 58.3323 62.9999 58.125C63 57.9177 62.8323 57.75 62.625 57.75Z" fill="#FEC830"/>
<path d="M30.3762 60C30.1689 60 30.0013 60.1677 30.0013 60.375V74.6249C30.0013 74.8322 30.1689 74.9999 30.3762 74.9999C30.5835 74.9999 30.7512 74.8322 30.7512 74.6249V60.375C30.7512 60.1677 30.5835 60 30.3762 60Z" fill="#FEC830"/>
</g>
<defs>
<clipPath id="clip0">
<rect width="48" height="48" fill="white" transform="translate(30 27)"/>
</clipPath>
</defs>
</svg>
