<svg width="102" height="102" viewBox="0 0 102 102" fill="none" xmlns="http://www.w3.org/2000/svg">
<circle cx="51" cy="51.0002" r="50" fill="white" stroke="#504C5C" stroke-opacity="0.2" stroke-width="1.5" stroke-linecap="round" stroke-linejoin="round" stroke-dasharray="2 5"/>
<circle cx="51" cy="51.0002" r="35" fill="#AA43A2"/>
<circle cx="8.5" cy="22.5002" r="7.5" fill="#AA43A2"/>
<g clip-path="url(#clip0)">
<path d="M74.9142 38.8454C74.7459 38.4373 74.2307 37.1982 67.0236 38.991C66.823 39.041 66.7008 39.2442 66.7506 39.4451C66.8004 39.646 67.0024 39.7664 67.2044 39.7185C73.7111 38.0995 74.2037 39.0898 74.2219 39.1323C74.2402 39.1773 74.6061 40.2714 68.4713 43.9039C64.3053 46.3704 58.5453 49.1648 52.2517 51.7722C45.9595 54.3793 39.9104 56.4769 35.2189 57.6786C28.3128 59.4468 27.7975 58.4142 27.7785 58.3702C27.7601 58.3257 27.3928 57.2242 33.5795 53.5691C33.7574 53.4637 33.8167 53.2338 33.7113 53.056C33.6065 52.8774 33.3775 52.8189 33.1982 52.9235C26.3806 56.952 26.9119 58.2357 27.086 58.6572C27.1893 58.906 27.4176 59.4572 29.1756 59.4572C30.3811 59.4572 32.3067 59.198 35.4048 58.4046C40.1299 57.1941 46.215 55.0848 52.5387 52.4645C58.8637 49.8439 64.6581 47.0328 68.8534 44.5487C75.6183 40.5434 75.0884 39.2655 74.9142 38.8454Z" fill="#FEC830"/>
<path d="M55.894 56.9958H55.8867C55.6796 56.9958 55.5157 57.1635 55.5157 57.3706C55.5157 57.5778 55.6877 57.7453 55.894 57.7453C56.1012 57.7453 56.2688 57.5778 56.2688 57.3706C56.2688 57.1635 56.1012 56.9958 55.894 56.9958Z" fill="#FEC830"/>
<path d="M43.9029 42.7559H43.8956C43.6885 42.7559 43.5245 42.9235 43.5245 43.1306C43.5245 43.3378 43.6965 43.5054 43.9029 43.5054C44.11 43.5054 44.2776 43.3379 44.2776 43.1306C44.2776 42.9235 44.11 42.7559 43.9029 42.7559Z" fill="#FEC830"/>
<path d="M61.1404 45.0044H61.1331C60.9259 45.0044 60.7619 45.172 60.7619 45.3791C60.7619 45.5862 60.9339 45.7538 61.1404 45.7538C61.3475 45.7538 61.5151 45.5862 61.5151 45.3791C61.5151 45.172 61.3475 45.0044 61.1404 45.0044Z" fill="#FEC830"/>
<path d="M51.0009 32.2634C41.9092 32.2634 34.5126 39.66 34.5126 48.7517C34.5126 54.3463 37.3099 59.4909 42.0073 62.5546V63.3663C42.0073 63.5734 42.1749 63.7409 42.382 63.7409H59.6197C59.8268 63.7409 59.9944 63.5734 59.9944 63.3663V62.5546C64.691 59.4909 67.4891 54.3463 67.4891 48.7517C67.4891 39.6599 60.0926 32.2634 51.0009 32.2634ZM59.4184 62.0342C59.31 62.103 59.2449 62.2223 59.2449 62.3504V62.9915H42.7567V62.3504C42.7567 62.2223 42.6909 62.103 42.5825 62.0342C37.9987 59.1227 35.2621 54.1568 35.2621 48.7517C35.2621 40.0733 42.322 33.013 51.0009 33.013C59.679 33.013 66.7396 40.0732 66.7396 48.7517C66.7396 54.1568 64.0023 59.1226 59.4184 62.0342Z" fill="#FEC830"/>
<path d="M59.6193 62.9915H42.3815C42.1744 62.9915 42.0068 63.1591 42.0068 63.3663V70.8608C42.0068 70.9603 42.0463 71.0555 42.1166 71.1258L44.3642 73.3742C44.4346 73.4444 44.5296 73.484 44.6292 73.484H57.3709C57.4704 73.484 57.5656 73.4444 57.6358 73.3742L59.8842 71.1258C59.9544 71.0555 59.9939 70.9604 59.9939 70.8608V63.3663C59.9939 63.1591 59.8264 62.9915 59.6193 62.9915ZM59.2445 70.7056L57.2157 72.7344H44.7843L42.7562 70.7056V63.7408H59.2445V70.7056Z" fill="#FEC830"/>
<path d="M60.3389 64.4918L41.6023 65.9907C41.3958 66.0069 41.2422 66.1877 41.2583 66.394C41.2743 66.5902 41.4382 66.7388 41.6315 66.7388C41.6418 66.7388 41.6521 66.738 41.6623 66.7373L60.399 65.2384C60.6046 65.2223 60.759 65.0414 60.7422 64.8351C60.7253 64.6295 60.5496 64.478 60.3389 64.4918Z" fill="#FEC830"/>
<path d="M60.3389 66.7403L41.6023 68.2392C41.3958 68.2554 41.2422 68.4361 41.2583 68.6425C41.2743 68.8387 41.4382 68.9873 41.6315 68.9873C41.6418 68.9873 41.6521 68.9865 41.6623 68.9858L60.399 67.4869C60.6046 67.4708 60.759 67.2899 60.7422 67.0835C60.7253 66.8772 60.5496 66.7234 60.3389 66.7403Z" fill="#FEC830"/>
<path d="M60.3389 68.9887L41.6023 70.4876C41.3958 70.5037 41.2422 70.6844 41.2583 70.8909C41.2743 71.087 41.4382 71.2356 41.6315 71.2356C41.6418 71.2356 41.6521 71.2349 41.6623 71.2341L60.399 69.7352C60.6046 69.7191 60.759 69.5383 60.7422 69.3319C60.7253 69.1256 60.5496 68.977 60.3389 68.9887Z" fill="#FEC830"/>
<path d="M55.349 72.812C55.1857 72.6876 54.9501 72.719 54.8242 72.8822C54.7817 72.9372 53.7489 74.2333 51.0007 74.2333C48.2553 74.2333 47.2219 72.9408 47.1765 72.8822C47.0528 72.719 46.8186 72.6854 46.6539 72.8091C46.4878 72.9335 46.4541 73.1684 46.5786 73.3339C46.6291 73.4012 47.8513 74.9829 51.0007 74.9829C54.1493 74.9829 55.3716 73.4012 55.4221 73.3338C55.5458 73.1692 55.5129 72.9364 55.349 72.812Z" fill="#FEC830"/>
<path d="M51.0009 27.0171C50.7937 27.0171 50.6261 27.1847 50.6261 27.3918V32.6381C50.6261 32.8452 50.7937 33.0128 51.0009 33.0128C51.208 33.0128 51.3756 32.8452 51.3756 32.6381V27.3918C51.3756 27.1847 51.208 27.0171 51.0009 27.0171Z" fill="#FEC830"/>
<path d="M54.3734 27.7666H51.0008C50.7936 27.7666 50.626 27.9342 50.626 28.1413C50.626 28.3484 50.7936 28.516 51.0008 28.516H54.3734C54.5805 28.516 54.7483 28.3484 54.7482 28.1413C54.7482 27.9342 54.5805 27.7666 54.3734 27.7666Z" fill="#FEC830"/>
<path d="M54.3734 29.2656H51.0008C50.7936 29.2656 50.626 29.4332 50.626 29.6403C50.626 29.8474 50.7936 30.0151 51.0008 30.0151H54.3734C54.5805 30.0151 54.7482 29.8474 54.7482 29.6403C54.7482 29.4332 54.5805 29.2656 54.3734 29.2656Z" fill="#FEC830"/>
<path d="M54.3732 27.7666C54.1661 27.7666 53.9985 27.9342 53.9985 28.1413V29.6403C53.9985 29.8474 54.1661 30.015 54.3732 30.015C54.5804 30.015 54.7481 29.8474 54.748 29.6403V28.1413C54.748 27.9342 54.5804 27.7666 54.3732 27.7666Z" fill="#FEC830"/>
<path d="M54.6379 29.3754C54.4916 29.229 54.2545 29.229 54.108 29.3754L52.6091 30.8744C52.4627 31.0207 52.4627 31.2578 52.6091 31.4042C52.6823 31.4773 52.7783 31.514 52.8741 31.514C52.97 31.514 53.0658 31.4774 53.139 31.4042L54.6379 29.9053C54.7843 29.7589 54.7843 29.5218 54.6379 29.3754Z" fill="#FEC830"/>
<path d="M58.1203 30.7644H52.8741C52.667 30.7644 52.4994 30.932 52.4994 31.1391C52.4994 31.3462 52.667 31.5138 52.8741 31.5138H58.1203C58.3275 31.5138 58.4951 31.3462 58.4951 31.1391C58.4951 30.932 58.3275 30.7644 58.1203 30.7644Z" fill="#FEC830"/>
<path d="M58.1206 29.2656H54.3732C54.1661 29.2656 53.9985 29.4332 53.9985 29.6403C53.9985 29.8474 54.1661 30.0151 54.3732 30.0151H58.1206C58.3278 30.0151 58.4953 29.8474 58.4953 29.6403C58.4953 29.4332 58.3278 29.2656 58.1206 29.2656Z" fill="#FEC830"/>
<path d="M57.9009 30.3895L58.3854 29.905C58.5319 29.7587 58.5319 29.5216 58.3854 29.3751C58.2391 29.2288 58.002 29.2288 57.8556 29.3751L57.1061 30.1247C56.9597 30.271 56.9597 30.5082 57.1061 30.6545L57.8556 31.4041C57.9288 31.4772 58.0247 31.5139 58.1205 31.5139C58.2164 31.5139 58.3123 31.4773 58.3854 31.4039C58.5319 31.2575 58.5319 31.0205 58.3854 30.874L57.9009 30.3895Z" fill="#FEC830"/>
<path d="M51.0007 35.2612C43.5618 35.2612 37.5104 41.3129 37.5104 48.7516C37.5104 48.9587 37.678 49.1263 37.8851 49.1263C38.0922 49.1263 38.2599 48.9588 38.2598 48.7516C38.2598 41.726 43.9752 36.0107 51.0007 36.0107C51.2078 36.0107 51.3754 35.843 51.3754 35.6359C51.3754 35.4288 51.2078 35.2612 51.0007 35.2612Z" fill="#FEC830"/>
<path d="M51.0005 41.2571C48.9344 41.2571 47.2531 42.7699 47.2531 44.6296C47.2531 46.4894 48.9344 48.0022 51.0005 48.0022C53.0666 48.0022 54.7479 46.4894 54.7479 44.6296C54.7479 42.7699 53.0666 41.2571 51.0005 41.2571ZM51.0005 47.2528C49.347 47.2528 48.0026 46.0758 48.0026 44.6296C48.0026 43.1835 49.3471 42.0065 51.0005 42.0065C52.6531 42.0065 53.9984 43.1835 53.9984 44.6296C53.9984 46.0758 52.6531 47.2528 51.0005 47.2528Z" fill="#FEC830"/>
<path d="M59.6299 37.929C58.6096 36.908 57.2849 36.534 56.6993 37.1199C56.0955 37.7244 56.4446 38.9837 57.5103 40.0485C58.1917 40.7306 59.0135 41.1545 59.6547 41.1545C59.9739 41.1545 60.2446 41.052 60.4386 40.8577C61.0424 40.2532 60.6948 38.9939 59.6299 37.929ZM59.9087 40.3281C59.845 40.3918 59.7351 40.405 59.6547 40.405C59.2917 40.405 58.6519 40.1309 58.0401 39.5186C57.2344 38.714 57.0192 37.8606 57.2292 37.6497C57.2929 37.5861 57.4027 37.573 57.4832 37.573C57.8469 37.573 58.4873 37.8471 59.1 38.4589C59.9043 39.2635 60.1195 40.117 59.9087 40.3281Z" fill="#FEC830"/>
<path d="M61.9484 53.5763C61.4522 53.08 60.4781 53.2045 59.8443 53.839C59.182 54.5029 59.067 55.4273 59.583 55.9433C59.7894 56.1496 60.0792 56.263 60.3999 56.263C60.8477 56.263 61.3168 56.0514 61.6887 55.6812C62.3495 55.0173 62.4644 54.0923 61.9484 53.5763ZM61.1581 55.1513C60.9304 55.3781 60.6473 55.5135 60.3999 55.5135C60.3141 55.5135 60.1956 55.496 60.1129 55.4133C59.9276 55.228 59.9899 54.7538 60.3749 54.3688C60.6018 54.1419 60.8851 54.0057 61.1332 54.0057C61.218 54.0057 61.3359 54.0234 61.4187 54.1061C61.6038 54.2912 61.5416 54.7662 61.1581 55.1513Z" fill="#FEC830"/>
<path d="M42.0071 49.5012C41.1801 49.5012 40.5081 50.1734 40.5081 51.0001C40.5081 51.8272 41.1801 52.4997 42.0071 52.4997C42.8334 52.4997 43.506 51.8272 43.506 51.0001C43.506 50.1734 42.8333 49.5012 42.0071 49.5012ZM42.0071 51.7503C41.5936 51.7503 41.2577 51.4136 41.2577 51.0001C41.2577 50.5869 41.5936 50.2507 42.0071 50.2507C42.4199 50.2507 42.7566 50.5869 42.7566 51.0001C42.7566 51.4136 42.4199 51.7503 42.0071 51.7503Z" fill="#FEC830"/>
<path d="M48.752 57.7451C47.9112 57.7451 47.2531 58.2392 47.2531 58.8693C47.2531 59.5002 47.9111 59.9943 48.752 59.9943C49.5923 59.9943 50.251 59.5003 50.251 58.8693C50.251 58.2393 49.5923 57.7451 48.752 57.7451ZM48.752 59.2448C48.2946 59.2448 48.0026 59.0224 48.0026 58.8693C48.0026 58.72 48.3012 58.4946 48.752 58.4946C49.2022 58.4946 49.5015 58.7201 49.5015 58.8693C49.5015 59.0224 49.2095 59.2448 48.752 59.2448Z" fill="#FEC830"/>
</g>
<defs>
<clipPath id="clip0">
<rect width="48" height="48" fill="white" transform="translate(27 27)"/>
</clipPath>
</defs>
</svg>
