<svg width="102" height="102" viewBox="0 0 102 102" fill="none" xmlns="http://www.w3.org/2000/svg">
<circle cx="51" cy="51" r="50" fill="white" stroke="#504C5C" stroke-opacity="0.2" stroke-width="1.5" stroke-linecap="round" stroke-linejoin="round" stroke-dasharray="2 5"/>
<circle cx="51" cy="51" r="35" fill="#FEC830"/>
<circle cx="8.5" cy="22.5" r="7.5" fill="#FEC830"/>
<g clip-path="url(#clip0)">
<path d="M57.3747 64.875H44.6247C44.4175 64.875 44.2497 65.0419 44.2497 65.25V70.5C44.2497 70.5995 44.2892 70.6948 44.3596 70.7651L45.8596 72.2651C45.9299 72.3354 46.0251 72.375 46.1248 72.375H55.8748C55.9743 72.375 56.0695 72.3354 56.1399 72.2651L57.6398 70.7651C57.7101 70.6948 57.7497 70.5996 57.7497 70.5V65.25C57.7497 65.0419 57.5821 64.875 57.3747 64.875ZM56.9997 70.3447L55.7195 71.6249H46.28L44.9997 70.3447V65.625H56.9997V70.3447Z" fill="#AA43A2"/>
<path d="M58.1054 66.3748L43.8553 67.1248C43.6484 67.1365 43.4899 67.3123 43.5005 67.5188C43.5111 67.7196 43.6767 67.8748 43.8747 67.8748C43.8813 67.8748 43.8882 67.8748 43.8949 67.8733L58.1449 67.1233C58.3523 67.1131 58.5104 66.9359 58.5001 66.7294C58.4884 66.5228 58.3098 66.3572 58.1054 66.3748Z" fill="#AA43A2"/>
<path d="M58.1054 68.6249L43.8553 69.3748C43.6484 69.3866 43.4899 69.5623 43.5005 69.7689C43.5111 69.9695 43.6767 70.1248 43.8747 70.1248C43.8813 70.1248 43.8882 70.1248 43.8949 70.1233L58.1449 69.3733C58.3523 69.3631 58.5104 69.1858 58.5001 68.9793C58.4884 68.7728 58.3098 68.6087 58.1054 68.6249Z" fill="#AA43A2"/>
<path d="M51 39.3743C43.9694 39.3743 38.2499 45.0938 38.2499 52.1247C38.2499 56.5514 40.4886 60.5738 44.2499 62.925V65.2498C44.2499 65.4563 44.4177 65.6248 44.6249 65.6248H57.3749C57.5823 65.6248 57.7499 65.4563 57.7499 65.2497V62.925C61.5109 60.5753 63.7499 56.5529 63.7499 52.1247C63.7499 45.0937 58.0304 39.3743 51 39.3743ZM57.1816 62.3947C57.0688 62.4622 56.9999 62.5852 56.9999 62.7156V64.8748H45V62.7156C45 62.5852 44.9311 62.4622 44.8187 62.3947C41.1753 60.1974 39 56.3581 39 52.1247C39 45.5077 44.3833 40.1243 51.0001 40.1243C57.6167 40.1243 63 45.5077 63 52.1247C63 56.3581 60.8247 60.1974 57.1816 62.3947Z" fill="#AA43A2"/>
<path d="M54.545 71.6673C54.3619 71.5751 54.137 71.6467 54.0411 71.8285C54.0133 71.8811 53.3343 73.1248 51.0002 73.1248C48.6692 73.1248 47.9887 71.8855 47.9591 71.8285C47.8657 71.6453 47.642 71.5721 47.4574 71.6644C47.2721 71.7566 47.1969 71.9821 47.2896 72.1668C47.3243 72.237 48.1758 73.8748 51.0001 73.8748C53.8243 73.8748 54.6753 72.237 54.7106 72.1668C54.8028 71.9836 54.7281 71.761 54.545 71.6673Z" fill="#AA43A2"/>
<path d="M34.8764 51.7495H27.375C27.1677 51.7495 27 51.9169 27 52.1249C27 52.3315 27.1677 52.4999 27.375 52.4999H34.8764C35.0837 52.4999 35.2514 52.3315 35.2515 52.1249C35.2515 51.9169 35.0837 51.7495 34.8764 51.7495Z" fill="#AA43A2"/>
<path d="M74.6252 51.7495L67.1252 51.7499C66.918 51.7499 66.7502 51.9184 66.7502 52.1249C66.7502 52.333 66.9187 52.4999 67.1252 52.4999H74.6252C74.8325 52.4999 75.0002 52.3315 75.0002 52.1249C75.0002 51.9169 74.8317 51.7495 74.6252 51.7495Z" fill="#AA43A2"/>
<path d="M37.3619 59.9998C37.2582 59.8196 37.0279 59.7581 36.8495 59.8621L30.3529 63.6121C30.1735 63.7162 30.112 63.9446 30.2156 64.1248C30.2852 64.2449 30.4112 64.3123 30.5408 64.3123C30.6045 64.3123 30.669 64.2962 30.728 64.2611L37.2245 60.511C37.404 60.4085 37.4654 60.1784 37.3619 59.9998Z" fill="#AA43A2"/>
<path d="M71.7847 40.1252C71.6806 39.945 71.4506 39.8827 71.272 39.9882L64.7782 43.7382C64.5988 43.8415 64.5372 44.0707 64.6405 44.2501C64.7109 44.3703 64.8369 44.4377 64.9658 44.4377C65.0303 44.4377 65.0947 44.4216 65.1532 44.3871L71.647 40.6372C71.8263 40.5339 71.888 40.3046 71.7847 40.1252Z" fill="#AA43A2"/>
<path d="M63.0001 31.3413C62.8199 31.2358 62.5914 31.2988 62.4874 31.4783L58.7389 37.9726C58.6357 38.1521 58.6972 38.3813 58.8766 38.4846C58.9352 38.519 58.9996 38.5352 59.0641 38.5352C59.193 38.5352 59.319 38.4677 59.3893 38.3476L63.1379 31.8532C63.2411 31.6738 63.1796 31.4446 63.0001 31.3413Z" fill="#AA43A2"/>
<path d="M51.3765 28.5C51.3765 28.2927 51.2083 28.125 51.0015 28.125C50.7941 28.125 50.6264 28.2927 50.6264 28.5L50.6271 35.9986C50.6271 36.2058 50.7952 36.3736 51.0022 36.3736C51.2095 36.3736 51.3773 36.2058 51.3772 35.9986L51.3765 28.5Z" fill="#AA43A2"/>
<path d="M43.2646 37.9711L39.5145 31.4774C39.4102 31.298 39.1805 31.2358 39.0022 31.3405C38.8227 31.4438 38.7613 31.6729 38.8648 31.8524L42.6149 38.3461C42.6844 38.4662 42.8104 38.5336 42.9401 38.5336C43.0039 38.5336 43.0683 38.5175 43.1272 38.483C43.3067 38.3797 43.3681 38.1505 43.2646 37.9711Z" fill="#AA43A2"/>
<path d="M71.6485 63.6107L65.1534 59.8606C64.974 59.7567 64.7447 59.8181 64.6407 59.9983C64.5375 60.177 64.599 60.407 64.7784 60.5095L71.2736 64.2596C71.3321 64.2947 71.3966 64.3108 71.461 64.3108C71.5899 64.3108 71.7159 64.2434 71.7863 64.1234C71.8895 63.9431 71.8279 63.7146 71.6485 63.6107Z" fill="#AA43A2"/>
<path d="M37.2246 43.7353L30.7302 39.9868C30.5503 39.8813 30.3211 39.9443 30.2179 40.1238C30.1143 40.3031 30.1757 40.5324 30.3552 40.6357L36.8496 44.3843C36.9086 44.4187 36.9731 44.4348 37.0368 44.4348C37.1663 44.4348 37.2923 44.3674 37.3619 44.2473C37.4655 44.0678 37.4041 43.8386 37.2246 43.7353Z" fill="#AA43A2"/>
<path d="M59.1963 51.5569L56.9463 47.8069C56.8782 47.6934 56.7566 47.6245 56.6248 47.6245H45.3747C45.2429 47.6245 45.1209 47.6934 45.0532 47.8069L42.8032 51.5569C42.7164 51.7011 42.7369 51.8861 42.8534 52.0091L50.7284 60.2592C50.7994 60.3324 50.8972 60.3749 50.9998 60.3749C51.1023 60.3749 51.2001 60.3324 51.271 60.2592L59.1457 52.0091C59.2629 51.8862 59.2835 51.7011 59.1963 51.5569ZM50.9998 59.4564L43.5935 51.6975L45.5872 48.3746H56.4123L58.406 51.6975L50.9998 59.4564Z" fill="#AA43A2"/>
<path d="M57.3747 51.3745H44.6247C44.4175 51.3745 44.2497 51.5423 44.2497 51.7495C44.2497 51.9564 44.4175 52.1249 44.6247 52.1249H57.3747C57.5821 52.1249 57.7497 51.9564 57.7497 51.7495C57.7497 51.5423 57.5821 51.3745 57.3747 51.3745Z" fill="#AA43A2"/>
<path d="M50.9604 58.3314L47.9604 52.3315C47.8674 52.1468 47.6426 52.0707 47.4572 52.1645C47.2719 52.2567 47.1968 52.4822 47.2895 52.6668L50.2894 58.6668C50.3555 58.7986 50.4877 58.8748 50.6253 58.8748C50.6817 58.8748 50.7389 58.8617 50.7927 58.8353C50.978 58.7416 51.053 58.5175 50.9604 58.3314Z" fill="#AA43A2"/>
<path d="M54.5424 52.1645C54.3571 52.0707 54.1315 52.1468 54.0393 52.3315L51.0393 58.3314C50.9467 58.5175 51.0218 58.7416 51.207 58.8353C51.2609 58.8617 51.3179 58.8748 51.3744 58.8748C51.5121 58.8748 51.6443 58.7986 51.7101 58.6668L54.7101 52.6668C54.8024 52.4823 54.7278 52.2567 54.5424 52.1645Z" fill="#AA43A2"/>
<path d="M53.869 50.7142L51.2441 48.4643C51.1041 48.3442 50.8961 48.3442 50.7562 48.4643L48.1312 50.7142C47.9737 50.8491 47.9554 51.0863 48.0905 51.2431C48.2253 51.4006 48.4623 51.4182 48.619 51.2842L51.0002 49.2429L53.3811 51.2842C53.4523 51.345 53.5387 51.3742 53.6251 51.3742C53.7306 51.3742 53.8361 51.3296 53.9093 51.2431C54.0448 51.0863 54.0265 50.8491 53.869 50.7142Z" fill="#AA43A2"/>
<path d="M47.89 50.7344L45.64 48.4843C45.4936 48.3379 45.2563 48.3379 45.1098 48.4843C44.9633 48.6308 44.9633 48.8681 45.1098 49.0146L47.3598 51.2646C47.4331 51.3378 47.529 51.3745 47.6249 51.3745C47.7209 51.3745 47.8169 51.3379 47.89 51.2646C48.0366 51.1182 48.0366 50.8809 47.89 50.7344Z" fill="#AA43A2"/>
<path d="M56.8899 48.4843C56.7434 48.3379 56.5062 48.3379 56.3596 48.4843L54.1096 50.7344C53.9632 50.8808 53.9632 51.1181 54.1096 51.2646C54.1829 51.3378 54.2789 51.3745 54.3747 51.3745C54.4707 51.3745 54.5667 51.3379 54.6399 51.2646L56.8899 49.0146C57.0364 48.8682 57.0364 48.6309 56.8899 48.4843Z" fill="#AA43A2"/>
<path d="M70.5994 46.8721C70.5466 46.6729 70.3409 46.5579 70.141 46.607L66.4773 47.5892C66.2781 47.6434 66.1587 47.8485 66.2122 48.0491C66.2576 48.2161 66.4084 48.3267 66.5739 48.3267C66.6062 48.3267 66.6391 48.3223 66.6722 48.3143L70.3343 47.3321C70.5349 47.2779 70.6537 47.0728 70.5994 46.8721Z" fill="#AA43A2"/>
<path d="M35.7866 56.2C35.7331 56.0008 35.5277 55.8865 35.3274 55.9349L31.6645 56.9178C31.4645 56.9721 31.3455 57.177 31.3993 57.3777C31.4444 57.5447 31.5956 57.6546 31.7611 57.6546C31.7933 57.6546 31.8259 57.6502 31.8586 57.6429L35.5215 56.6599C35.7215 56.6057 35.8404 56.4007 35.7866 56.2Z" fill="#AA43A2"/>
<path d="M65.3471 37.7769C65.2007 37.6304 64.9634 37.6304 64.8169 37.7769L62.1362 40.459C61.9897 40.6055 61.9897 40.8428 62.1362 40.9893C62.2094 41.0625 62.3054 41.0992 62.4014 41.0992C62.4973 41.0992 62.5932 41.0625 62.6665 40.9893L65.3471 38.3072C65.4937 38.1607 65.4936 37.9234 65.3471 37.7769Z" fill="#AA43A2"/>
<path d="M39.8619 63.2619C39.7155 63.1155 39.4782 63.1155 39.3317 63.2619L36.6518 65.9442C36.5053 66.0905 36.5053 66.3279 36.6518 66.4744C36.7251 66.5476 36.821 66.5842 36.9169 66.5842C37.0129 66.5842 37.1089 66.5477 37.182 66.4744L39.8619 63.7922C40.0084 63.6458 40.0084 63.4085 39.8619 63.2619Z" fill="#AA43A2"/>
<path d="M56.2495 32.5247C56.0524 32.4778 55.8444 32.5906 55.7903 32.7906L54.8117 36.4542C54.7575 36.6542 54.876 36.86 55.0768 36.9135C55.109 36.9216 55.1411 36.9259 55.1734 36.9259C55.339 36.9259 55.4914 36.8153 55.5354 36.6476L56.5154 32.984C56.5681 32.784 56.4494 32.5782 56.2495 32.5247Z" fill="#AA43A2"/>
<path d="M47.1888 36.4534L46.2051 32.7914C46.1514 32.5921 45.9455 32.4728 45.7456 32.527C45.5456 32.5805 45.427 32.7863 45.4808 32.9862L46.4645 36.6485C46.5096 36.8154 46.6608 36.926 46.8263 36.926C46.8585 36.926 46.8915 36.9217 46.924 36.9128C47.124 36.8592 47.2426 36.6535 47.1888 36.4534Z" fill="#AA43A2"/>
<path d="M39.8625 40.4591L37.1804 37.7798C37.0339 37.6333 36.7958 37.6333 36.6501 37.7798C36.5037 37.9263 36.5037 38.1635 36.6501 38.3101L39.3323 40.9893C39.4055 41.0625 39.5014 41.0992 39.5974 41.0992C39.6934 41.0992 39.7897 41.0625 39.8625 40.9893C40.009 40.8429 40.009 40.6056 39.8625 40.4591Z" fill="#AA43A2"/>
<path d="M65.3484 65.9442L62.6662 63.2649C62.5198 63.1184 62.2818 63.1184 62.136 63.2649C61.9894 63.4113 61.9894 63.6487 62.136 63.7951L64.8181 66.4744C64.8913 66.5476 64.9874 66.5842 65.0832 66.5842C65.1792 66.5842 65.2752 66.5477 65.3484 66.4744C65.4949 66.3279 65.4949 66.0906 65.3484 65.9442Z" fill="#AA43A2"/>
<path d="M35.5219 47.5909L31.8584 46.6109C31.6602 46.5633 31.4526 46.6768 31.3991 46.8768C31.3457 47.0767 31.4643 47.2825 31.6643 47.336L35.3279 48.3159C35.3605 48.324 35.393 48.3284 35.4253 48.3284C35.5909 48.3284 35.7425 48.2178 35.7871 48.0501C35.8405 47.8502 35.722 47.6444 35.5219 47.5909Z" fill="#AA43A2"/>
<path d="M70.3343 56.9177L66.6721 55.9378C66.4743 55.8895 66.2664 56.0037 66.2136 56.2044C66.1594 56.4036 66.2781 56.6087 66.4788 56.6629L70.1409 57.6428C70.173 57.6517 70.2053 57.6561 70.2375 57.6561C70.403 57.6561 70.5553 57.5448 70.5994 57.3776C70.6536 57.177 70.5349 56.972 70.3343 56.9177Z" fill="#AA43A2"/>
</g>
<defs>
<clipPath id="clip0">
<rect width="48" height="48" fill="white" transform="translate(27 27)"/>
</clipPath>
</defs>
</svg>
