<svg width="102" height="102" viewBox="0 0 102 102" fill="none" xmlns="http://www.w3.org/2000/svg">
<circle cx="51" cy="51" r="50" fill="white" stroke="#504C5C" stroke-opacity="0.2" stroke-width="1.5" stroke-linecap="round" stroke-linejoin="round" stroke-dasharray="2 5"/>
<circle cx="51" cy="51" r="35" fill="#AA43A2"/>
<circle cx="91.5" cy="80.5" r="7.5" fill="#AA43A2"/>
<path d="M69.9039 33.2125C67.3483 30.6571 63.958 29.2498 60.3574 29.2498C56.7568 29.2498 53.3671 30.6571 50.8116 33.2125C46.875 37.1489 45.7499 42.9878 47.9461 48.0877C48.0277 48.278 48.2493 48.3653 48.439 48.2836C48.6291 48.2019 48.717 47.9811 48.6353 47.791C46.5611 42.9749 47.6238 37.4609 51.342 33.7427C53.7552 31.329 56.9575 29.9997 60.3574 29.9997C63.7572 29.9997 66.9595 31.329 69.3736 33.7427C71.7869 36.1556 73.1163 39.3575 73.1163 42.7573C73.1163 46.1581 71.7862 49.3598 69.373 51.7735C65.6587 55.4883 60.148 56.5533 55.3337 54.485C55.1426 54.4045 54.9229 54.4909 54.8408 54.6812C54.7596 54.8717 54.8474 55.0921 55.0378 55.1735C56.7657 55.9161 58.5785 56.2779 60.3736 56.2779C63.8731 56.2779 67.3038 54.9038 69.9031 52.3039C72.4585 49.7485 73.8661 46.3584 73.8661 42.7578C73.8661 39.1572 72.4586 35.7672 69.9039 33.2125Z" fill="#FEC830"/>
<path d="M54.2592 55.7564L47.3649 48.862C47.2185 48.7156 46.9812 48.7156 46.8347 48.862L41.0009 54.6958C40.9306 54.766 40.8911 54.8613 40.8911 54.9609V57.0819C40.8911 57.1816 40.9306 57.2768 41.0009 57.347L45.7741 62.121C45.8445 62.1914 45.9396 62.2309 46.0393 62.2309C46.0393 62.2309 46.0393 62.2309 46.0396 62.231L48.16 62.2295C48.2592 62.2295 48.3544 62.19 48.4248 62.1196L54.2592 56.2866C54.3295 56.2163 54.3691 56.121 54.3691 56.0215C54.3691 55.922 54.3295 55.8266 54.2592 55.7564ZM48.0043 61.4794L46.1944 61.4809L41.6409 56.9267H41.641V55.1162L47.0998 49.6574L53.4639 56.0214L48.0043 61.4794Z" fill="#FEC830"/>
<path d="M51.0565 58.9203L43.6315 52.5556C43.4748 52.4209 43.2379 52.4384 43.1031 52.5959C42.968 52.7533 42.9863 52.9891 43.1438 53.124L50.5687 59.4887C50.6395 59.5503 50.7262 59.5796 50.8126 59.5796C50.9181 59.5796 51.0232 59.5357 51.0972 59.4484C51.2323 59.2909 51.2139 59.0551 51.0565 58.9203Z" fill="#FEC830"/>
<path d="M52.6474 57.3294L45.2224 50.9635C45.0661 50.8288 44.8291 50.8463 44.694 51.0042C44.5588 51.1614 44.5772 51.3979 44.7346 51.5327L52.1597 57.8978C52.2306 57.9595 52.3171 57.9887 52.4036 57.9887C52.5089 57.9887 52.6145 57.9447 52.6877 57.8574C52.8223 57.7 52.8047 57.4642 52.6474 57.3294Z" fill="#FEC830"/>
<path d="M49.4652 60.5112L42.0402 54.1465C41.8834 54.0117 41.6465 54.0292 41.5117 54.1867C41.3766 54.3442 41.3949 54.58 41.5523 54.7148L48.9773 61.0797C49.048 61.1412 49.1348 61.1705 49.2212 61.1705C49.3268 61.1705 49.4319 61.1265 49.5058 61.0393C49.6409 60.8818 49.6226 60.6461 49.4652 60.5112Z" fill="#FEC830"/>
<path d="M45.776 61.0678C45.6335 60.9199 45.3973 60.9169 45.2483 61.0561C45.2146 61.0868 44.4012 61.809 42.8565 60.2636C41.3233 58.7285 42.0257 57.9162 42.0648 57.873C42.2073 57.7266 42.2058 57.4922 42.0608 57.3471C41.9143 57.2007 41.6769 57.2007 41.5305 57.3471C41.4763 57.4014 40.2297 58.6948 42.3263 60.794C43.1283 61.5967 43.9061 62.0024 44.6404 62.0024C44.6844 62.0024 44.7279 62.001 44.7711 61.9979C45.3912 61.9568 45.7365 61.628 45.7739 61.5907C45.9184 61.4456 45.9176 61.2157 45.776 61.0678Z" fill="#FEC830"/>
<path d="M53.7637 56.3283C53.6407 56.1621 53.4063 56.124 53.2392 56.2478C53.0723 56.3701 53.0364 56.6052 53.1588 56.7722C53.1852 56.8082 55.6504 60.2967 51.2966 65.0552C50.971 63.6446 50.159 60.9624 48.691 60.9462C48.4865 60.9272 48.3137 61.1096 48.3119 61.3169C48.3097 61.5242 48.4756 61.6942 48.6829 61.6962C49.5538 61.7057 50.3898 64.1587 50.7051 65.8975C50.73 66.0337 50.8293 66.1464 50.9622 66.1875C50.9992 66.1994 51.0369 66.2052 51.0742 66.2052C51.172 66.2052 51.2679 66.1671 51.3394 66.0951C56.8077 60.6284 53.7944 56.3708 53.7637 56.3283Z" fill="#FEC830"/>
<path d="M46.7878 49.3512C46.7457 49.3205 42.487 46.3084 37.0202 51.7763C36.9217 51.8745 36.8858 52.0203 36.9275 52.1536C36.969 52.2861 37.0814 52.3857 37.2183 52.4106C38.957 52.7256 41.4096 53.5613 41.4187 54.4321C41.421 54.6372 41.5883 54.8027 41.7938 54.8027C41.7949 54.8027 41.7963 54.8027 41.7978 54.8027C42.0047 54.8005 42.1709 54.6314 42.1688 54.4233C42.1534 52.9563 39.4705 52.144 38.0595 51.8188C42.7906 47.4839 46.1985 49.8515 46.345 49.9569C46.5124 50.0778 46.7464 50.0412 46.8684 49.8738C46.9899 49.7068 46.9539 49.4736 46.7878 49.3512Z" fill="#FEC830"/>
<path d="M48.5559 47.6745C48.4099 47.5272 48.1725 47.5279 48.0257 47.6737L46.8348 48.8618C46.6879 49.0078 46.6879 49.2455 46.834 49.392C46.9073 49.4657 47.0033 49.5022 47.0995 49.5022C47.1955 49.5022 47.2911 49.4657 47.3643 49.3928L48.5552 48.2047C48.702 48.0587 48.702 47.821 48.5559 47.6745Z" fill="#FEC830"/>
<path d="M55.4517 54.5655C55.3052 54.4189 55.0679 54.4189 54.9215 54.5655L53.7292 55.7564C53.5826 55.9028 53.5826 56.1401 53.7292 56.2866C53.8022 56.3598 53.8983 56.3965 53.9941 56.3965C54.0902 56.3965 54.1861 56.3599 54.2592 56.2866L55.4517 55.0957C55.5981 54.9493 55.5981 54.712 55.4517 54.5655Z" fill="#FEC830"/>
<path d="M53.1979 47.2706C53.0514 47.124 52.8141 47.124 52.6677 47.2706L50.0162 49.9227C49.8698 50.0691 49.8698 50.3064 50.0162 50.4529C50.0895 50.5262 50.1855 50.5628 50.2813 50.5628C50.3773 50.5628 50.4733 50.5262 50.5465 50.4529L53.1979 47.8008C53.3445 47.6544 53.3445 47.4171 53.1979 47.2706Z" fill="#FEC830"/>
<path d="M55.8502 49.9226C55.7039 49.7761 55.4665 49.7761 55.32 49.9226L52.6679 52.5748C52.5214 52.7211 52.5214 52.9585 52.6679 53.105C52.741 53.1782 52.8371 53.2149 52.9331 53.2149C53.0288 53.2149 53.1248 53.1783 53.1982 53.105L55.8502 50.4528C55.9968 50.3064 55.9968 50.0691 55.8502 49.9226Z" fill="#FEC830"/>
<path d="M55.3581 47.4257L52.974 47.1627C52.7697 47.1429 52.583 47.2891 52.5603 47.4944C52.5376 47.7003 52.6863 47.8855 52.8921 47.9083L55.2762 48.1712C55.29 48.1726 55.3038 48.1734 55.3171 48.1734C55.5061 48.1734 55.6687 48.0312 55.6899 47.8395C55.7126 47.6336 55.5638 47.4484 55.3581 47.4257Z" fill="#FEC830"/>
<path d="M55.9575 50.1459L55.6894 47.7567C55.6667 47.5514 55.4822 47.4052 55.2749 47.4258C55.069 47.4487 54.9211 47.6344 54.9438 47.8402L55.2119 50.2294C55.2332 50.421 55.3957 50.5626 55.5846 50.5626C55.5978 50.5626 55.6125 50.5619 55.6264 50.5604C55.8321 50.5374 55.9802 50.3517 55.9575 50.1459Z" fill="#FEC830"/>
<path d="M57.9709 42.4981C57.8246 42.3515 57.5871 42.3515 57.4407 42.4981L53.7499 46.1881C53.6035 46.3345 53.6035 46.5719 53.7499 46.7183C53.8232 46.7916 53.9193 46.8282 54.015 46.8282C54.111 46.8282 54.2071 46.7916 54.2802 46.7183L57.9709 43.0283C58.1174 42.8819 58.1173 42.6446 57.9709 42.4981Z" fill="#FEC830"/>
<path d="M57.971 40.3769C57.6165 40.0229 57.1463 39.8276 56.6453 39.8276C56.1443 39.8276 55.6734 40.0228 55.3196 40.3769C55.1731 40.5238 55.1731 40.7611 55.3196 40.9076C55.4661 41.0534 55.7034 41.0537 55.8498 40.9072C56.2747 40.4814 57.016 40.4824 57.4407 40.9076C57.6531 41.1197 57.7704 41.402 57.7704 41.7023C57.7704 42.003 57.6531 42.2853 57.4407 42.498C57.2943 42.6445 57.2943 42.8818 57.4407 43.0283C57.514 43.1016 57.6099 43.1382 57.7058 43.1382C57.8018 43.1382 57.8976 43.1016 57.971 43.0282C58.3256 42.6741 58.5203 42.2032 58.5203 41.7022C58.5203 41.2012 58.3255 40.7307 57.971 40.3769Z" fill="#FEC830"/>
<path d="M55.5197 41.7026C55.5197 41.4023 55.6375 41.1199 55.8499 40.9075C55.9965 40.7611 55.9965 40.5237 55.8499 40.3769C55.7036 40.2304 55.4662 40.2307 55.3197 40.3765C54.9653 40.731 54.7696 41.2019 54.7696 41.7025C54.7696 42.2031 54.9653 42.6741 55.3197 43.0285C55.3929 43.1014 55.489 43.138 55.5848 43.138C55.6809 43.138 55.7768 43.1014 55.8499 43.0283C55.9965 42.8814 55.9965 42.6442 55.8499 42.4976C55.6375 42.2852 55.5197 42.0029 55.5197 41.7026Z" fill="#FEC830"/>
<path d="M60.6222 45.1494C60.4757 45.0029 60.2384 45.0029 60.0919 45.1494L56.4019 48.8401C56.2555 48.9865 56.2555 49.2238 56.4019 49.3703C56.4752 49.4435 56.5711 49.4802 56.6671 49.4802C56.7631 49.4802 56.8589 49.4435 56.9322 49.3703L60.6222 45.6796C60.7686 45.5332 60.7686 45.2959 60.6222 45.1494Z" fill="#FEC830"/>
<path d="M62.7443 45.1493C62.0133 44.4183 60.8232 44.4183 60.0922 45.1493C59.9457 45.2958 59.9457 45.5331 60.0922 45.6796C60.2386 45.826 60.4759 45.826 60.6225 45.6796C61.048 45.2548 61.7884 45.2548 62.2132 45.6796C62.6528 46.1184 62.6528 46.8321 62.2139 47.2704C62.0675 47.4169 62.0675 47.6542 62.2139 47.8007C62.2872 47.8739 62.3832 47.9106 62.479 47.9106C62.5751 47.9106 62.6711 47.874 62.7443 47.8007C63.4746 47.0701 63.4746 45.8806 62.7443 45.1493Z" fill="#FEC830"/>
<path d="M62.7441 47.2706C62.5978 47.124 62.3604 47.124 62.2139 47.2706C61.7752 47.7092 61.0612 47.7092 60.6225 47.2706C60.4759 47.124 60.2387 47.124 60.0922 47.2706C59.9457 47.417 59.9457 47.6543 60.0922 47.8008C60.4577 48.1662 60.9381 48.3493 61.418 48.3493C61.8984 48.3493 62.3788 48.1662 62.7441 47.8008C62.8907 47.6544 62.8907 47.4171 62.7441 47.2706Z" fill="#FEC830"/>
<path d="M58.5014 45.1494L57.9711 44.6192C57.8248 44.4726 57.5873 44.4726 57.4409 44.6192C57.2944 44.7656 57.2944 45.003 57.4409 45.1494L57.9711 45.6797C58.0444 45.753 58.1403 45.7895 58.2363 45.7895C58.3322 45.7895 58.4281 45.753 58.5014 45.6797C58.6478 45.5332 58.6478 45.296 58.5014 45.1494Z" fill="#FEC830"/>
<path d="M66.7216 35.3334C65.0203 33.632 62.7598 32.6948 60.3577 32.6948C57.9553 32.6948 55.695 33.632 53.9942 35.3334C53.8478 35.4799 53.8478 35.7171 53.9942 35.8637C54.0675 35.9369 54.1636 35.9735 54.2593 35.9735C54.3554 35.9735 54.4514 35.9369 54.5245 35.8637C56.0838 34.304 58.1559 33.4449 60.3577 33.4449C62.56 33.4449 64.6321 34.304 66.1914 35.8637C66.3377 36.0102 66.5751 36.0102 66.7216 35.8637C66.8681 35.7172 66.8681 35.48 66.7216 35.3334Z" fill="#FEC830"/>
<path d="M40.2075 62.9137C39.6406 62.3468 38.6526 62.3468 38.0864 62.9137C38.0389 62.9613 33.5264 67.8993 34.3738 68.7467C34.4405 68.8133 34.5595 68.8932 34.748 68.8932C35.8537 68.8932 40.1691 65.0729 40.2075 65.0347C40.7919 64.4503 40.7919 63.498 40.2075 62.9137ZM39.6774 64.5046C39.1354 65.0465 36.2819 67.364 35.1331 67.988C35.7579 66.8394 38.0745 63.986 38.6169 63.444C38.7585 63.3019 38.9468 63.2243 39.1471 63.2243C39.3474 63.2243 39.5356 63.3019 39.6774 63.444C39.9691 63.7363 39.9691 64.2124 39.6774 64.5046Z" fill="#FEC830"/>
<path d="M41.7984 61.3228C41.0902 60.6137 40.1487 60.2241 39.1467 60.2241C38.1451 60.2241 37.2035 60.6137 36.4953 61.3228C35.8072 62.0112 34.3983 63.9625 33.322 65.9151C31.8821 68.5277 31.5319 70.1477 32.2527 70.8677C32.4919 71.1072 32.8375 71.228 33.2796 71.228C35.6148 71.228 40.6513 67.7725 41.7984 66.6254C43.2605 65.1636 43.2605 62.7847 41.7984 61.3228ZM41.2681 66.0951C40.0676 67.2963 35.2479 70.478 33.2796 70.478C33.0437 70.478 32.8768 70.431 32.783 70.3373C32.4728 70.0275 32.6003 68.7788 33.9791 66.2768C34.9906 64.4414 36.3708 62.5078 37.0256 61.8531C37.5921 61.2861 38.3454 60.9741 39.1467 60.9741C39.9484 60.9741 40.7016 61.2862 41.2681 61.853C42.4377 63.0226 42.4377 64.9255 41.2681 66.0951Z" fill="#FEC830"/>
<path d="M66.0132 69H66.0059C65.7979 69 65.6338 69.1677 65.6338 69.375C65.6338 69.5822 65.8058 69.75 66.0132 69.75C66.2198 69.75 66.3881 69.5822 66.3881 69.375C66.3881 69.1677 66.2197 69 66.0132 69Z" fill="#FEC830"/>
<path d="M35.2625 27H35.2552C35.0479 27 34.8838 27.1677 34.8838 27.375C34.8838 27.5822 35.0556 27.75 35.2625 27.75C35.4698 27.75 35.6376 27.5822 35.6376 27.375C35.6376 27.1677 35.4697 27 35.2625 27Z" fill="#FEC830"/>
<path d="M49.513 28.5H49.5056C49.2984 28.5 49.1343 28.6677 49.1343 28.875C49.1343 29.0823 49.3061 29.2501 49.513 29.2501C49.7203 29.2501 49.8879 29.0823 49.8879 28.875C49.8879 28.6677 49.7203 28.5 49.513 28.5Z" fill="#FEC830"/>
<path d="M28.5128 36H28.5055C28.2983 36 28.1342 36.1677 28.1342 36.375C28.1342 36.5822 28.3059 36.75 28.5128 36.75C28.7201 36.75 28.8878 36.5822 28.8878 36.375C28.8877 36.1677 28.72 36 28.5128 36Z" fill="#FEC830"/>
<path d="M33.7628 57.75H33.7554C33.5482 57.75 33.3841 57.9177 33.3841 58.125C33.3841 58.3323 33.5558 58.5001 33.7628 58.5001C33.9701 58.5001 34.1377 58.3323 34.1377 58.125C34.1377 57.9177 33.97 57.75 33.7628 57.75Z" fill="#FEC830"/>
<path d="M52.4734 73.5H52.4661C52.2581 73.5 52.0941 73.6677 52.0941 73.875C52.0941 74.0822 52.2662 74.25 52.4734 74.25C52.6801 74.25 52.8485 74.0822 52.8485 73.875C52.8485 73.6677 52.6801 73.5 52.4734 73.5Z" fill="#FEC830"/>
<path d="M70.5128 74.25H70.5055C70.2975 74.25 70.1335 74.4177 70.1335 74.625C70.1335 74.8322 70.3056 75 70.5128 75C70.7193 75 70.8879 74.8322 70.8879 74.625C70.8879 74.4177 70.7193 74.25 70.5128 74.25Z" fill="#FEC830"/>
<path d="M59.2629 60H59.2555C59.0475 60 58.8834 60.1677 58.8834 60.375C58.8834 60.5822 59.0556 60.75 59.2629 60.75C59.4693 60.75 59.6379 60.5822 59.6379 60.375C59.6379 60.1677 59.4693 60 59.2629 60Z" fill="#FEC830"/>
<path d="M72.0131 57.75H72.0058C71.7978 57.75 71.6338 57.9177 71.6338 58.125C71.6338 58.3323 71.8059 58.5001 72.0131 58.5001C72.2196 58.5001 72.3882 58.3323 72.3882 58.125C72.3882 57.9177 72.2196 57.75 72.0131 57.75Z" fill="#FEC830"/>
<path d="M64.513 66.75H64.5057C64.2975 66.75 64.1335 66.9177 64.1335 67.125C64.1335 67.3323 64.3056 67.5001 64.513 67.5001C64.7195 67.5001 64.8879 67.3323 64.8879 67.125C64.8879 66.9177 64.7195 66.75 64.513 66.75Z" fill="#FEC830"/>
<path d="M66.3653 63.75C64.2976 63.75 62.6153 65.4325 62.6153 67.5001C62.6153 69.5677 64.2976 71.2501 66.3653 71.2501C68.4329 71.2501 70.1154 69.5677 70.1154 67.5001C70.1154 65.4325 68.4329 63.75 66.3653 63.75ZM66.3653 70.5001C64.7108 70.5001 63.3653 69.1539 63.3653 67.5001C63.3653 65.8462 64.7108 64.5001 66.3653 64.5001C68.0199 64.5001 69.3654 65.8462 69.3654 67.5001C69.3654 69.1539 68.0199 70.5001 66.3653 70.5001Z" fill="#FEC830"/>
<path d="M67.4901 65.25C66.8697 65.25 66.365 65.7546 66.365 66.375C66.365 66.9953 66.8697 67.5 67.4901 67.5C68.1106 67.5 68.6151 66.9953 68.6151 66.375C68.6151 65.7546 68.1106 65.25 67.4901 65.25ZM67.4901 66.7499C67.2828 66.7499 67.115 66.5814 67.115 66.375C67.115 66.1685 67.2828 66 67.4901 66C67.6973 66 67.865 66.1685 67.865 66.375C67.8651 66.5814 67.6973 66.7499 67.4901 66.7499Z" fill="#FEC830"/>
<path d="M56.9905 66.75C56.7833 66.75 56.6155 66.9177 56.6155 67.125V70.1251C56.6155 70.3323 56.7833 70.5001 56.9905 70.5001C57.1978 70.5001 57.3654 70.3322 57.3654 70.1251V67.125C57.3654 66.9177 57.1978 66.75 56.9905 66.75Z" fill="#FEC830"/>
<path d="M57.7407 68.25H56.2407C56.0335 68.25 55.8656 68.4177 55.8656 68.625C55.8656 68.8322 56.0335 69 56.2407 69H57.7407C57.9479 69 58.1156 68.8322 58.1156 68.625C58.1157 68.4177 57.948 68.25 57.7407 68.25Z" fill="#FEC830"/>
<path d="M44.2402 69.75C44.033 69.75 43.8652 69.9176 43.8652 70.125V73.1251C43.8652 73.3323 44.033 73.5 44.2402 73.5C44.4475 73.5 44.6152 73.3323 44.6153 73.1251V70.125C44.6153 69.9176 44.4475 69.75 44.2402 69.75Z" fill="#FEC830"/>
<path d="M44.9903 71.25H43.4903C43.283 71.25 43.1153 71.4177 43.1153 71.625C43.1153 71.8323 43.283 72 43.4903 72H44.9903C45.1977 72 45.3653 71.8323 45.3653 71.625C45.3654 71.4177 45.1976 71.25 44.9903 71.25Z" fill="#FEC830"/>
<path d="M44.2402 30C44.033 30 43.8652 30.1677 43.8652 30.3751V33.3751C43.8652 33.5824 44.033 33.7501 44.2402 33.7501C44.4475 33.7501 44.6152 33.5824 44.6153 33.3751V30.3751C44.6153 30.1677 44.4475 30 44.2402 30Z" fill="#FEC830"/>
<path d="M44.9903 31.5H43.4903C43.283 31.5 43.1153 31.6677 43.1153 31.875C43.1153 32.0822 43.283 32.25 43.4903 32.25H44.9903C45.1977 32.25 45.3653 32.0821 45.3653 31.875C45.3654 31.6677 45.1976 31.5 44.9903 31.5Z" fill="#FEC830"/>
<path d="M30.7402 47.25C30.5329 47.25 30.3652 47.4177 30.3652 47.625V50.6251C30.3652 50.8323 30.5329 51.0001 30.7402 51.0001C30.9474 51.0001 31.1152 50.8323 31.1152 50.6251V47.625C31.1152 47.4177 30.9474 47.25 30.7402 47.25Z" fill="#FEC830"/>
<path d="M31.4904 48.75H29.9903C29.783 48.75 29.6153 48.9177 29.6153 49.125C29.6153 49.3323 29.7831 49.5001 29.9903 49.5001H31.4903C31.6975 49.5001 31.8654 49.3322 31.8654 49.125C31.8654 48.9177 31.6976 48.75 31.4904 48.75Z" fill="#FEC830"/>
<path d="M39.3464 38.2691C38.3554 37.2775 36.6255 37.2775 35.6345 38.2691C35.1387 38.7646 34.8655 39.4237 34.8655 40.1247C34.8655 40.8259 35.1386 41.4852 35.6345 41.981C36.13 42.4768 36.7892 42.75 37.4905 42.75C38.1918 42.75 38.8508 42.4768 39.3464 41.981C39.8422 41.4852 40.1154 40.826 40.1154 40.1247C40.1154 39.4238 39.8423 38.7646 39.3464 38.2691ZM38.8161 41.4507C38.1079 42.1591 36.8731 42.1591 36.1647 41.4507C35.8107 41.0966 35.6154 40.6257 35.6154 40.1247C35.6154 39.6241 35.8107 39.1534 36.1647 38.7994C36.5189 38.4453 36.9899 38.2501 37.4905 38.2501C37.991 38.2501 38.4619 38.4453 38.8161 38.7994C39.1703 39.1534 39.3654 39.6241 39.3654 40.1247C39.3654 40.6257 39.1704 41.0967 38.8161 41.4507Z" fill="#FEC830"/>
<path d="M39.8767 37.738C39.7302 37.5916 39.4929 37.5916 39.3464 37.738C39.2165 37.868 39.2017 38.0698 39.3025 38.2159C39.2886 38.4562 38.8359 39.3094 37.7556 40.3901C36.6749 41.4704 35.8221 41.9231 35.5818 41.937C35.435 41.8366 35.2339 41.8508 35.1039 41.9809C34.9574 42.1273 34.9574 42.3646 35.1039 42.5111C35.2251 42.6323 35.3786 42.684 35.5529 42.684C36.4677 42.684 37.9512 41.2551 38.2859 40.9204C38.6843 40.5219 40.6337 38.4949 39.8767 37.738Z" fill="#FEC830"/>
</svg>
