<svg width="102" height="102" viewBox="0 0 102 102" fill="none" xmlns="http://www.w3.org/2000/svg">
<circle cx="51" cy="51.0002" r="50" fill="white" stroke="#504C5C" stroke-opacity="0.2" stroke-width="1.5" stroke-linecap="round" stroke-linejoin="round" stroke-dasharray="2 5"/>
<circle cx="51" cy="51.0002" r="35" fill="#FEC830"/>
<circle cx="82.5" cy="89.5002" r="7.5" fill="#FEC830"/>
<g clip-path="url(#clip0)">
<path d="M51.0007 35.25C44.384 35.25 39.0007 40.6333 39.0007 47.25C39.0007 51.6233 41.3738 55.6502 45.1933 57.7588C45.2505 57.7911 45.3127 57.8057 45.3742 57.8057C45.506 57.8057 45.6342 57.7354 45.7023 57.6123C45.8027 57.4307 45.7368 57.2022 45.5551 57.1025C41.975 55.125 39.7506 51.3501 39.7506 47.25C39.7506 41.0467 44.7971 36 51.0007 36C51.2079 36 51.3757 35.8322 51.3757 35.625C51.3757 35.4177 51.2079 35.25 51.0007 35.25Z" fill="#AA43A2"/>
<path d="M51.0005 35.2498C50.7932 35.2498 50.6254 35.4174 50.6254 35.6247C50.6254 35.832 50.7932 35.9997 51.0005 35.9997C57.2033 35.9997 62.2498 41.0464 62.2498 47.2497C62.2498 51.3499 60.0253 55.1248 56.4453 57.1023C56.2638 57.202 56.1978 57.4305 56.2982 57.6121C56.3663 57.7353 56.4945 57.8055 56.6263 57.8055C56.6877 57.8055 56.75 57.7909 56.8071 57.7585C60.6267 55.6499 62.9997 51.623 62.9997 47.2497C62.9997 40.6331 57.6172 35.2498 51.0005 35.2498Z" fill="#AA43A2"/>
<path d="M45.3755 57.0557C45.1683 57.0557 45.0005 57.2234 45.0005 57.4307V63.375C45.0005 63.5822 45.1683 63.7499 45.3755 63.7499C45.5829 63.7499 45.7505 63.5822 45.7505 63.375V57.4307C45.7505 57.2234 45.5828 57.0557 45.3755 57.0557Z" fill="#AA43A2"/>
<path d="M56.6252 57.0645C56.4179 57.0645 56.2502 57.2322 56.2502 57.4394V63.3751C56.2502 63.5823 56.4179 63.7499 56.6252 63.7499C56.8325 63.7499 57.0002 63.5823 57.0002 63.3751V57.4394C57.0002 57.2322 56.8325 57.0645 56.6252 57.0645Z" fill="#AA43A2"/>
<path d="M56.6249 58.5002H45.3755C45.1683 58.5002 45.0005 58.6679 45.0005 58.8751C45.0005 59.0825 45.1683 59.2502 45.3755 59.2502H56.6249C56.8321 59.2502 56.9998 59.0824 56.9998 58.8751C56.9998 58.6679 56.8321 58.5002 56.6249 58.5002Z" fill="#AA43A2"/>
<path d="M56.8902 63.1099C56.7438 62.9634 56.5065 62.9634 56.36 63.1099L54.9699 64.5H47.0311L45.641 63.1099C45.4945 62.9634 45.2573 62.9634 45.1107 63.1099C44.9643 63.2563 44.9643 63.4936 45.1107 63.6402L46.6108 65.1401C46.681 65.2104 46.7763 65.25 46.8759 65.25H55.1252C55.2248 65.25 55.32 65.2104 55.3902 65.1401L56.8902 63.6402C57.0368 63.4936 57.0368 63.2564 56.8902 63.1099Z" fill="#AA43A2"/>
<path d="M57.3532 60.0007L44.604 60.7507C44.3975 60.7632 44.2392 60.9404 44.2517 61.147C44.2634 61.3461 44.4282 61.5 44.6259 61.5C44.6332 61.5 44.6406 61.5 44.6479 61.4992L57.3972 60.7493C57.6037 60.7368 57.762 60.5596 57.7495 60.353C57.737 60.1465 57.5577 59.9941 57.3532 60.0007Z" fill="#AA43A2"/>
<path d="M57.3532 61.5007L44.604 62.2507C44.3975 62.2631 44.2392 62.4405 44.2517 62.6469C44.2634 62.8462 44.4282 63 44.6259 63C44.6332 63 44.6406 63 44.6479 62.9992L57.3972 62.2493C57.6037 62.2368 57.762 62.0596 57.7495 61.8531C57.737 61.6465 57.5577 61.486 57.3532 61.5007Z" fill="#AA43A2"/>
<path d="M53.7944 64.541C53.6084 64.448 53.385 64.5219 53.2905 64.7058C53.2634 64.7586 52.6087 66 51.001 66C49.3954 66 48.7399 64.7629 48.7107 64.7058C48.6177 64.5219 48.3936 64.4473 48.2083 64.5396C48.0229 64.6319 47.9482 64.8574 48.0405 65.0427C48.0757 65.1123 48.918 66.75 51.001 66.75C53.0832 66.75 53.9256 65.1123 53.9607 65.0427C54.053 64.8582 53.9783 64.6348 53.7944 64.541Z" fill="#AA43A2"/>
<path d="M49.1259 54C48.9186 54 48.7509 54.1677 48.7509 54.3751V57.3751C48.7509 57.5824 48.9186 57.7501 49.1259 57.7501C49.3332 57.7501 49.501 57.5824 49.501 57.3751V54.3751C49.501 54.1677 49.3332 54 49.1259 54Z" fill="#AA43A2"/>
<path d="M52.8747 54C52.6675 54 52.4997 54.1677 52.4997 54.3751V57.3751C52.4997 57.5824 52.6675 57.7501 52.8747 57.7501C53.0819 57.7501 53.2497 57.5824 53.2497 57.3751V54.3751C53.2497 54.1677 53.0819 54 52.8747 54Z" fill="#AA43A2"/>
<path d="M51.2934 52.6407C51.1646 52.4795 50.9294 52.4531 50.7661 52.5821L48.8911 54.0821C48.7291 54.2117 48.7035 54.4475 48.8324 54.6094C48.9065 54.7016 49.0156 54.75 49.1254 54.75C49.2075 54.75 49.2903 54.7236 49.3599 54.6679L51.2349 53.168C51.3968 53.0383 51.4224 52.8026 51.2934 52.6407Z" fill="#AA43A2"/>
<path d="M53.1092 54.082L51.2349 52.5821C51.073 52.4531 50.8379 52.4787 50.7075 52.6406C50.5786 52.8025 50.6043 53.0383 50.7662 53.168L52.6404 54.6679C52.71 54.7236 52.7921 54.75 52.8748 54.75C52.9847 54.75 53.0938 54.7016 53.1678 54.6094C53.2967 54.4475 53.2711 54.2117 53.1092 54.082Z" fill="#AA43A2"/>
<path d="M49.1259 47.25C48.9186 47.25 48.7509 47.4177 48.7509 47.625V52.875C48.7509 53.0823 48.9186 53.25 49.1259 53.25C49.3332 53.25 49.501 53.0823 49.501 52.875V47.625C49.501 47.4177 49.3332 47.25 49.1259 47.25Z" fill="#AA43A2"/>
<path d="M47.626 45.75C46.5917 45.75 45.7509 46.5911 45.7509 47.6249C45.7509 47.8323 45.9187 47.9999 46.126 47.9999C46.3333 47.9999 46.501 47.8323 46.501 47.6249C46.501 47.0046 47.0057 46.5 47.626 46.5C48.2463 46.5 48.7509 47.0046 48.7509 47.6249C48.7509 47.8323 48.9187 47.9999 49.1259 47.9999C49.3333 47.9999 49.501 47.8323 49.501 47.6249C49.501 46.5912 48.6602 45.75 47.626 45.75Z" fill="#AA43A2"/>
<path d="M47.626 48.75C47.0057 48.75 46.501 48.2454 46.501 47.625C46.501 47.4177 46.3333 47.25 46.126 47.25C45.9187 47.25 45.7509 47.4177 45.7509 47.625C45.7509 48.6588 46.5918 49.5 47.626 49.5C47.8332 49.5 48.001 49.3323 48.001 49.125C48.001 48.9178 47.8332 48.75 47.626 48.75Z" fill="#AA43A2"/>
<path d="M52.8747 47.25C52.6675 47.25 52.4997 47.4177 52.4997 47.625V52.875C52.4997 53.0823 52.6675 53.25 52.8747 53.25C53.0819 53.25 53.2497 53.0823 53.2497 52.875V47.625C53.2497 47.4177 53.0819 47.25 52.8747 47.25Z" fill="#AA43A2"/>
<path d="M54.3748 45.75C53.3407 45.75 52.4999 46.5911 52.4999 47.6249C52.4999 47.8323 52.6676 47.9999 52.8749 47.9999C53.0821 47.9999 53.2499 47.8323 53.2499 47.6249C53.2499 47.0046 53.7545 46.5 54.3748 46.5C54.9952 46.5 55.4999 47.0046 55.4999 47.6249C55.4999 47.8323 55.6675 47.9999 55.8749 47.9999C56.0821 47.9999 56.2499 47.8323 56.2499 47.6249C56.2499 46.5912 55.409 45.75 54.3748 45.75Z" fill="#AA43A2"/>
<path d="M55.8751 47.25C55.6677 47.25 55.5001 47.4177 55.5001 47.625C55.5001 48.2454 54.9954 48.75 54.375 48.75C54.1678 48.75 54 48.9177 54 49.125C54 49.3324 54.1678 49.5001 54.375 49.5001C55.4092 49.5001 56.2501 48.6588 56.2501 47.625C56.2501 47.4177 56.0823 47.25 55.8751 47.25Z" fill="#AA43A2"/>
<path d="M51.0007 38.25C46.0377 38.25 42.0006 42.2875 42.0006 47.2501C42.0006 47.4573 42.1684 47.625 42.3756 47.625C42.5829 47.625 42.7506 47.4574 42.7506 47.2501C42.7506 42.701 46.4516 39.0001 51.0007 39.0001C51.2079 39.0001 51.3757 38.8323 51.3757 38.625C51.3757 38.4177 51.2079 38.25 51.0007 38.25Z" fill="#AA43A2"/>
<path d="M51.3756 48.75H50.6256C50.4184 48.75 50.2506 48.9177 50.2506 49.125C50.2506 49.3323 50.4184 49.5001 50.6256 49.5001H51.3756C51.5829 49.5001 51.7506 49.3322 51.7506 49.125C51.7506 48.9177 51.5829 48.75 51.3756 48.75Z" fill="#AA43A2"/>
<path d="M60.5279 29.7766C57.5294 28.432 54.3235 27.75 50.9998 27.75C38.1794 27.75 27.7498 38.1801 27.7498 51C27.7498 53.7553 28.2236 56.4493 29.1581 59.0069C29.2138 59.1592 29.3573 59.253 29.5104 59.253C29.5529 59.253 29.5969 59.2457 29.6393 59.2303C29.8334 59.1592 29.9338 58.9439 29.8627 58.7491C28.9582 56.275 28.4997 53.6675 28.4997 51C28.4997 38.5935 38.5932 28.5 50.9998 28.5C54.2166 28.5 57.3199 29.1595 60.2218 30.4608C60.41 30.545 60.6327 30.4615 60.7169 30.2722C60.8018 30.0832 60.7169 29.8613 60.5279 29.7766Z" fill="#AA43A2"/>
<path d="M60.7481 30.0762C60.7239 29.87 60.5327 29.7195 60.3328 29.7462L58.0828 30.0026C57.877 30.0259 57.729 30.2117 57.7525 30.4174C57.7745 30.6086 57.9371 30.75 58.1246 30.75C58.1392 30.75 58.1531 30.7492 58.1678 30.7475L60.4178 30.4912C60.6236 30.4677 60.7715 30.2819 60.7481 30.0762Z" fill="#AA43A2"/>
<path d="M60.6748 29.8931L59.1749 27.8995C59.0504 27.7335 58.8145 27.7017 58.6497 27.8255C58.4841 27.95 58.4513 28.1852 58.5758 28.3507L60.0757 30.3443C60.149 30.442 60.2617 30.4937 60.3753 30.4937C60.4543 30.4937 60.5334 30.4691 60.6009 30.4182C60.7664 30.2937 60.7993 30.0586 60.6748 29.8931Z" fill="#AA43A2"/>
<path d="M72.8436 42.9966C72.7726 42.8021 72.558 42.7024 72.3624 42.7728C72.1683 42.8438 72.0679 43.0592 72.139 43.2536C73.0421 45.727 73.5 48.3333 73.5 51.0001C73.5 63.4066 63.4064 73.5001 50.9999 73.5001C47.7816 73.5001 44.6791 72.8395 41.7786 71.538C41.5904 71.4537 41.3678 71.5372 41.2828 71.7262C41.1978 71.9151 41.282 72.1378 41.471 72.222C44.4687 73.5675 47.6746 74.2501 50.9998 74.2501C63.8201 74.2501 74.2498 63.8204 74.2499 51.0002C74.2499 48.2455 73.7767 45.5528 72.8436 42.9966Z" fill="#AA43A2"/>
<path d="M44.248 71.5827C44.2239 71.3761 44.0349 71.2267 43.8328 71.253L41.5828 71.5079C41.3769 71.5306 41.229 71.7159 41.2524 71.9225C41.2744 72.1137 41.4362 72.255 41.6245 72.255C41.6392 72.255 41.6531 72.2542 41.6677 72.2521L43.9177 71.9972C44.1235 71.9745 44.2715 71.7892 44.248 71.5827Z" fill="#AA43A2"/>
<path d="M43.4249 73.6493L41.9249 71.6541C41.801 71.4885 41.5667 71.4556 41.3997 71.5802C41.2341 71.704 41.2012 71.9398 41.3257 72.1053L42.8257 74.1005C42.899 74.1986 43.0117 74.2499 43.1252 74.2499C43.2036 74.2499 43.2827 74.225 43.3509 74.1745C43.5165 74.0505 43.5494 73.8148 43.4249 73.6493Z" fill="#AA43A2"/>
<path d="M61.8752 33.375C61.668 33.375 61.5003 33.5427 61.5003 33.75V35.625C61.5003 35.8323 61.668 36 61.8752 36C62.0825 36 62.2502 35.8323 62.2502 35.625V33.75C62.2502 33.5427 62.0825 33.375 61.8752 33.375Z" fill="#AA43A2"/>
<path d="M68.2502 27C64.528 27 61.5003 30.0281 61.5003 33.7499C61.5003 37.4718 64.528 40.5 68.2502 40.5C71.9724 40.5 75.0003 37.4718 75.0003 33.7499C75.0003 30.0281 71.9724 27 68.2502 27ZM68.2502 39.75C64.9418 39.75 62.2502 37.0583 62.2502 33.7499C62.2502 30.4416 64.9418 27.75 68.2502 27.75C71.5586 27.75 74.2503 30.4416 74.2503 33.7499C74.2503 37.0584 71.5586 39.75 68.2502 39.75Z" fill="#AA43A2"/>
<path d="M74.6253 35.25C74.4179 35.25 74.2503 35.4177 74.2503 35.625C74.2503 38.9334 71.5586 41.625 68.2502 41.625C64.9418 41.625 62.2502 38.9334 62.2502 35.625C62.2502 35.4177 62.0825 35.25 61.8752 35.25C61.668 35.25 61.5003 35.4177 61.5003 35.625C61.5003 39.3468 64.528 42.3749 68.2502 42.3749C71.9724 42.3749 75.0003 39.3468 75.0003 35.625C75.0003 35.4177 74.8325 35.25 74.6253 35.25Z" fill="#AA43A2"/>
<path d="M68.25 31.125C68.0427 31.125 67.875 31.2927 67.875 31.5V36C67.875 36.2073 68.0427 36.375 68.25 36.375C68.4573 36.375 68.625 36.2073 68.625 36V31.5C68.625 31.2927 68.4573 31.125 68.25 31.125Z" fill="#AA43A2"/>
<path d="M74.6249 33.375C74.4176 33.375 74.2499 33.5427 74.2499 33.75V35.625C74.2499 35.8323 74.4176 36 74.6249 36C74.8321 36 74.9999 35.8323 74.9999 35.625V33.75C74.9999 33.5427 74.8321 33.375 74.6249 33.375Z" fill="#AA43A2"/>
<path d="M65.6251 39.1853C65.4177 39.1853 65.2501 39.353 65.2501 39.5603V41.4353C65.2501 41.6426 65.4177 41.8103 65.6251 41.8103C65.8323 41.8103 66 41.6427 66 41.4353V39.5603C66 39.353 65.8323 39.1853 65.6251 39.1853Z" fill="#AA43A2"/>
<path d="M71.6249 38.7832C71.4177 38.7832 71.2499 38.9509 71.2499 39.1582V41.0332C71.2499 41.2406 71.4177 41.4083 71.6249 41.4083C71.8322 41.4083 71.9999 41.2406 71.9999 41.0332V39.1582C71.9999 38.9509 71.8322 38.7832 71.6249 38.7832Z" fill="#AA43A2"/>
<path d="M27.375 66C27.1677 66 27 66.1677 27 66.375V68.25C27 68.4573 27.1677 68.625 27.375 68.625C27.5822 68.625 27.75 68.4573 27.75 68.25V66.375C27.75 66.1677 27.5822 66 27.375 66Z" fill="#AA43A2"/>
<path d="M33.7499 59.625C30.0278 59.625 27 62.6528 27 66.375C27 70.0971 30.0278 73.125 33.7499 73.125C37.4721 73.125 40.5 70.0971 40.5 66.375C40.5 62.6528 37.4721 59.625 33.7499 59.625ZM33.7499 72.375C30.4416 72.375 27.75 69.6833 27.75 66.375C27.75 63.0666 30.4416 60.375 33.7499 60.375C37.0583 60.375 39.7499 63.0666 39.7499 66.375C39.7499 69.6833 37.0583 72.375 33.7499 72.375Z" fill="#AA43A2"/>
<path d="M40.125 67.875C39.9177 67.875 39.7499 68.0427 39.7499 68.2501C39.7499 71.5584 37.0583 74.2501 33.7499 74.2501C30.4416 74.2501 27.75 71.5584 27.75 68.2501C27.75 68.0427 27.5822 67.875 27.375 67.875C27.1677 67.875 27 68.0427 27 68.2501C27 71.9722 30.0278 75 33.7499 75C37.4721 75 40.5 71.9722 40.5 68.2501C40.5 68.0427 40.3323 67.875 40.125 67.875Z" fill="#AA43A2"/>
<path d="M33.7497 63.75C33.5425 63.75 33.3747 63.9177 33.3747 64.1251V68.6251C33.3747 68.8324 33.5425 69.0001 33.7497 69.0001C33.957 69.0001 34.1247 68.8324 34.1247 68.6251V64.1251C34.1247 63.9177 33.957 63.75 33.7497 63.75Z" fill="#AA43A2"/>
<path d="M40.1252 66C39.9178 66 39.7501 66.1677 39.7501 66.375V68.25C39.7501 68.4573 39.9179 68.625 40.1252 68.625C40.3324 68.625 40.5001 68.4573 40.5001 68.25V66.375C40.5001 66.1677 40.3325 66 40.1252 66Z" fill="#AA43A2"/>
<path d="M31.1247 71.8113C30.9175 71.8113 30.7497 71.9789 30.7497 72.1863V74.0612C30.7497 74.2685 30.9175 74.4362 31.1247 74.4362C31.3319 74.4362 31.4997 74.2685 31.4997 74.0612V72.1863C31.4997 71.9789 31.3319 71.8113 31.1247 71.8113Z" fill="#AA43A2"/>
<path d="M37.1252 71.4082C36.918 71.4082 36.7502 71.5759 36.7502 71.7832V73.6582C36.7502 73.8655 36.918 74.0331 37.1252 74.0331C37.3324 74.0331 37.5003 73.8655 37.5002 73.6582V71.7832C37.5002 71.5759 37.3324 71.4082 37.1252 71.4082Z" fill="#AA43A2"/>
</g>
<defs>
<clipPath id="clip0">
<rect width="48" height="48" fill="white" transform="translate(27 27)"/>
</clipPath>
</defs>
</svg>
