<svg width="102" height="102" viewBox="0 0 102 102" fill="none" xmlns="http://www.w3.org/2000/svg">
<circle cx="51" cy="51.0002" r="50" fill="white" stroke="#504C5C" stroke-opacity="0.2" stroke-width="1.5" stroke-linecap="round" stroke-linejoin="round" stroke-dasharray="2 5"/>
<circle cx="51" cy="51.0002" r="35" fill="#FEC830"/>
<circle cx="91.5" cy="80.5002" r="7.5" fill="#FEC830"/>
<g clip-path="url(#clip0)">
<path d="M58.8748 52.4998C58.6683 52.4998 58.4998 52.6683 58.4998 52.8747C58.4998 57.01 55.135 60.3748 51.0002 60.3748C46.8649 60.3748 43.5001 57.01 43.5001 52.8747C43.5001 52.6683 43.3324 52.4998 43.1251 52.4998C42.9179 52.4998 42.7501 52.6683 42.7501 52.8747C42.7501 57.424 46.4512 61.1249 51.0003 61.1249C55.5497 61.1249 59.25 57.424 59.2498 52.8747C59.2498 52.6683 59.0829 52.4998 58.8748 52.4998Z" fill="#AA43A2"/>
<path d="M57.3747 64.875H44.6249C44.4177 64.875 44.2499 65.0419 44.2499 65.25V70.5C44.2499 70.5996 44.2894 70.6948 44.3598 70.7652L45.8599 72.2651C45.9301 72.3355 46.0254 72.3751 46.125 72.3751H55.8747C55.9743 72.3751 56.0695 72.3355 56.1399 72.2651L57.6398 70.7652C57.7101 70.6948 57.7497 70.5997 57.7497 70.5V65.25C57.7497 65.0419 57.5828 64.875 57.3747 64.875ZM56.9997 70.3448L55.7195 71.625H46.2803L44.9999 70.3448V65.625H56.9997V70.3448Z" fill="#AA43A2"/>
<path d="M58.1056 66.375L43.8551 67.125C43.6486 67.136 43.4897 67.3125 43.5007 67.519C43.5109 67.7198 43.6765 67.8749 43.8749 67.8749C43.8815 67.8749 43.888 67.8749 43.8947 67.8742L58.1452 67.1242C58.3518 67.1133 58.5099 66.9368 58.4997 66.7296C58.4894 66.5237 58.3151 66.3618 58.1056 66.375Z" fill="#AA43A2"/>
<path d="M58.1056 68.625L43.8551 69.375C43.6486 69.386 43.4897 69.5624 43.5007 69.769C43.5109 69.9697 43.6765 70.125 43.8749 70.125C43.8815 70.125 43.888 70.125 43.8947 70.1242L58.1452 69.3742C58.3518 69.3633 58.5099 69.1867 58.4997 68.9795C58.4894 68.773 58.3151 68.6177 58.1056 68.625Z" fill="#AA43A2"/>
<path d="M51.0003 43.1243C46.4511 43.1243 42.7501 46.8253 42.7501 51.3744C42.7501 55.9232 46.4512 59.6249 51.0003 59.6249C55.5497 59.6249 59.25 55.9232 59.25 51.3744C59.25 46.8253 55.5497 43.1243 51.0003 43.1243ZM51.0003 58.8747C46.865 58.8747 43.5002 55.51 43.5002 51.3743C43.5002 47.2387 46.865 43.8742 51.0003 43.8742C55.1351 43.8742 58.4999 47.2387 58.4999 51.3743C58.4999 55.51 55.1351 58.8747 51.0003 58.8747Z" fill="#AA43A2"/>
<path d="M43.1253 50.9995C42.9181 50.9995 42.7503 51.1673 42.7503 51.3745V52.8748C42.7503 53.0829 42.9181 53.2498 43.1253 53.2498C43.3326 53.2498 43.5003 53.0829 43.5003 52.8748V51.3745C43.5003 51.1673 43.3326 50.9995 43.1253 50.9995Z" fill="#AA43A2"/>
<path d="M58.8751 50.9995C58.6686 50.9995 58.5001 51.1673 58.5001 51.3745V52.8748C58.5001 53.0829 58.6686 53.2498 58.8751 53.2498C59.0831 53.2498 59.2501 53.0829 59.2501 52.8748V51.3745C59.2501 51.1673 59.0832 50.9995 58.8751 50.9995Z" fill="#AA43A2"/>
<path d="M53.625 58.425C53.4185 58.425 53.25 58.5935 53.25 58.8V60.3031C53.25 60.5111 53.4185 60.678 53.625 60.678C53.8329 60.678 54 60.5111 54 60.3031V58.8C54 58.5935 53.833 58.425 53.625 58.425Z" fill="#AA43A2"/>
<path d="M49.1252 58.6492C48.918 58.6492 48.7502 58.8162 48.7502 59.0243V60.5257C48.7502 60.7322 48.918 60.9007 49.1252 60.9007C49.3326 60.9007 49.5002 60.7322 49.5003 60.5257V59.0243C49.5003 58.8162 49.3326 58.6492 49.1252 58.6492Z" fill="#AA43A2"/>
<path d="M56.625 56.5093C56.4184 56.5093 56.25 56.6778 56.25 56.8843V58.393C56.25 58.6011 56.4184 58.7681 56.625 58.7681C56.833 58.7681 57 58.6011 57 58.393V56.8843C57 56.6778 56.833 56.5093 56.625 56.5093Z" fill="#AA43A2"/>
<path d="M46.1252 57.1831C45.9179 57.1831 45.7501 57.3515 45.7501 57.5581V59.0654C45.7501 59.2735 45.9179 59.4404 46.1252 59.4404C46.3324 59.4404 46.5002 59.2735 46.5002 59.0654V57.5581C46.5002 57.3515 46.3324 57.1831 46.1252 57.1831Z" fill="#AA43A2"/>
<path d="M51.0001 39.3743C43.9695 39.3743 38.25 45.0939 38.25 52.1248C38.25 56.5531 40.4883 60.5741 44.25 62.9259V65.2499C44.25 65.4564 44.4178 65.6249 44.625 65.6249H57.3748C57.5829 65.6249 57.7498 65.4564 57.7498 65.2499V62.9259C61.5116 60.5741 63.7498 56.5531 63.7498 52.1248C63.7498 45.0938 58.031 39.3743 51.0001 39.3743ZM57.1814 62.3948C57.0687 62.4623 56.9998 62.5846 56.9998 62.7157V64.8749H45.0002V62.7157C45.0002 62.5845 44.9314 62.4623 44.8186 62.3948C41.1754 60.1975 39.0001 56.3581 39.0001 52.1247C39.0001 45.5076 44.3835 40.1242 51.0002 40.1242C57.6165 40.1242 62.9999 45.5076 62.9999 52.1247C62.9999 56.3581 60.8246 60.1975 57.1814 62.3948Z" fill="#AA43A2"/>
<path d="M52.1247 47.6245C51.9182 47.6245 51.7497 47.7923 51.7497 47.9995V54.75C51.7497 54.9565 51.9182 55.125 52.1247 55.125C52.3327 55.125 52.4997 54.9565 52.4997 54.75V47.9995C52.4997 47.7923 52.3327 47.6245 52.1247 47.6245Z" fill="#AA43A2"/>
<path d="M50.6254 48.7495C50.4181 48.7495 50.2504 48.9173 50.2504 49.1245V54.7499C50.2504 54.9564 50.4181 55.1249 50.6254 55.1249C50.8327 55.1249 51.0005 54.9564 51.0005 54.7499V49.1245C51.0005 48.9173 50.8326 48.7495 50.6254 48.7495Z" fill="#AA43A2"/>
<path d="M52.425 47.7744C52.3004 47.6077 52.0645 47.5756 51.9005 47.6994L48.9001 49.9493C48.7346 50.0734 48.7009 50.3086 48.8247 50.4741C48.8986 50.5726 49.0114 50.6243 49.1249 50.6243C49.2034 50.6243 49.2824 50.5998 49.3498 50.5493L52.3502 48.2993C52.5158 48.1751 52.5494 47.94 52.425 47.7744Z" fill="#AA43A2"/>
<path d="M53.6249 54.375H49.1252C48.918 54.375 48.7502 54.5419 48.7502 54.75C48.7502 54.9565 48.918 55.125 49.1252 55.125H53.6249C53.8328 55.125 53.9999 54.9565 53.9999 54.75C53.9999 54.5419 53.8329 54.375 53.6249 54.375Z" fill="#AA43A2"/>
<path d="M54.5447 71.6675C54.3615 71.5738 54.1374 71.647 54.0408 71.8287C54.0129 71.8813 53.3347 73.1251 51.0001 73.1251C48.6695 73.1251 47.9883 71.8857 47.959 71.8287C47.866 71.6463 47.6433 71.5738 47.4573 71.6646C47.272 71.7568 47.1972 71.9824 47.2895 72.167C47.3246 72.2373 48.1757 73.8751 51 73.8751C53.8239 73.8751 54.675 72.2373 54.7102 72.167C54.8025 71.9839 54.7278 71.7612 54.5447 71.6675Z" fill="#AA43A2"/>
<path d="M34.8758 51.7495H27.375C27.1677 51.7495 27 51.9169 27 52.1249C27 52.3315 27.1677 52.4999 27.375 52.4999H34.8758C35.0831 52.4999 35.2507 52.3315 35.2508 52.1249C35.2508 51.9169 35.0831 51.7495 34.8758 51.7495Z" fill="#AA43A2"/>
<path d="M74.6252 51.7495L67.1251 51.7499C66.9186 51.7499 66.7501 51.9184 66.7501 52.1249C66.7501 52.333 66.9186 52.4999 67.1251 52.4999H74.6252C74.8317 52.4999 75.0002 52.3315 75.0002 52.1249C75.0002 51.9169 74.8317 51.7495 74.6252 51.7495Z" fill="#AA43A2"/>
<path d="M37.3609 59.9998C37.2576 59.8196 37.0269 59.7581 36.8489 59.8621L30.3522 63.6121C30.1728 63.7162 30.1113 63.9446 30.2153 64.1249C30.2841 64.2449 30.4109 64.3123 30.5398 64.3123C30.6035 64.3123 30.6679 64.2963 30.7273 64.2617L37.2239 60.5118C37.4034 60.4085 37.4648 60.1784 37.3609 59.9998Z" fill="#AA43A2"/>
<path d="M71.7844 40.125C71.6804 39.9444 71.4504 39.8844 71.2717 39.9877L64.7779 43.7377C64.5993 43.8414 64.5378 44.0705 64.6417 44.25C64.7106 44.3706 64.8366 44.4376 64.9655 44.4376C65.03 44.4376 65.0944 44.4214 65.1529 44.3874L71.6467 40.6374C71.8269 40.5337 71.8884 40.3044 71.7844 40.125Z" fill="#AA43A2"/>
<path d="M63 31.3406C62.8212 31.2381 62.5913 31.2985 62.4887 31.478L58.7401 37.9724C58.6361 38.1519 58.6977 38.3811 58.8764 38.4848C58.9365 38.5188 59.0009 38.535 59.0639 38.535C59.1928 38.535 59.3203 38.4675 59.3891 38.3474L63.1377 31.853C63.2416 31.6735 63.1802 31.4442 63 31.3406Z" fill="#AA43A2"/>
<path d="M51.3757 28.5C51.3757 28.2927 51.2079 28.125 51.0007 28.125C50.7933 28.125 50.6256 28.2931 50.6256 28.5L50.6271 35.9987C50.6271 36.2059 50.7948 36.3736 51.0022 36.3736C51.2094 36.3736 51.3772 36.2055 51.3772 35.9987L51.3757 28.5Z" fill="#AA43A2"/>
<path d="M43.264 37.9711L39.5139 31.4774C39.4114 31.2969 39.1814 31.2361 39.002 31.34C38.8225 31.4437 38.761 31.6729 38.865 31.8524L42.6151 38.346C42.6838 38.4666 42.8106 38.5336 42.9395 38.5336C43.0033 38.5336 43.0677 38.5175 43.127 38.4834C43.3065 38.3797 43.368 38.1505 43.264 37.9711Z" fill="#AA43A2"/>
<path d="M71.6483 63.6108L65.1531 59.8607C64.9744 59.7582 64.7445 59.8182 64.6419 59.9984C64.5378 60.1771 64.5995 60.4071 64.7781 60.5104L71.2733 64.2605C71.3333 64.2948 71.3978 64.311 71.4607 64.311C71.5896 64.311 71.717 64.2436 71.786 64.1235C71.8899 63.9433 71.8284 63.7148 71.6483 63.6108Z" fill="#AA43A2"/>
<path d="M37.2242 43.7348L30.7305 39.9862C30.5525 39.8833 30.3218 39.9445 30.2185 40.1236C30.1146 40.3029 30.176 40.5322 30.3555 40.6359L36.8492 44.3845C36.9086 44.4185 36.973 44.4347 37.0367 44.4347C37.1657 44.4347 37.2923 44.3672 37.3612 44.2471C37.4651 44.0677 37.4037 43.8385 37.2242 43.7348Z" fill="#AA43A2"/>
</g>
<defs>
<clipPath id="clip0">
<rect width="48" height="48" fill="white" transform="translate(27 27)"/>
</clipPath>
</defs>
</svg>
