<svg width="102" height="102" viewBox="0 0 102 102" fill="none" xmlns="http://www.w3.org/2000/svg">
<circle cx="51" cy="51.0002" r="50" fill="white" stroke="#504C5C" stroke-opacity="0.2" stroke-width="1.5" stroke-linecap="round" stroke-linejoin="round" stroke-dasharray="2 5"/>
<circle cx="51" cy="51.0002" r="35" fill="#FEC830"/>
<circle cx="8.5" cy="22.5002" r="7.5" fill="#FEC830"/>
<g clip-path="url(#clip0)">
<path d="M57.3747 64.875H44.6249C44.4177 64.875 44.2499 65.0419 44.2499 65.25V70.5C44.2499 70.5996 44.2894 70.6948 44.3598 70.7652L45.8598 72.2651C45.9301 72.3355 46.0253 72.3751 46.125 72.3751H55.8747C55.9742 72.3751 56.0695 72.3355 56.1398 72.2651L57.6398 70.7652C57.7101 70.6948 57.7496 70.5997 57.7496 70.5V65.25C57.7496 65.0419 57.5827 64.875 57.3747 64.875ZM56.9997 70.3448L55.7194 71.625H46.2802L44.9999 70.3448V65.625H56.9997V70.3448Z" fill="#AA43A2"/>
<path d="M58.1056 66.3749L43.8551 67.1249C43.6486 67.1366 43.4897 67.3125 43.5006 67.519C43.5109 67.7197 43.6764 67.8749 43.8749 67.8749C43.8814 67.8749 43.888 67.8749 43.8947 67.8734L58.1452 67.1234C58.3518 67.1132 58.5099 66.936 58.4996 66.7295C58.4894 66.5229 58.3151 66.3603 58.1056 66.3749Z" fill="#AA43A2"/>
<path d="M58.1056 68.625L43.8551 69.375C43.6486 69.3867 43.4897 69.5624 43.5006 69.769C43.5109 69.9697 43.6764 70.125 43.8749 70.125C43.8814 70.125 43.888 70.125 43.8947 70.1235L58.1452 69.3735C58.3518 69.3633 58.5099 69.1859 58.4996 68.9794C58.4894 68.7729 58.3151 68.6044 58.1056 68.625Z" fill="#AA43A2"/>
<path d="M51.0001 39.3743C43.9695 39.3743 38.25 45.0939 38.25 52.1248C38.25 56.5516 40.4883 60.574 44.25 62.9252V65.25C44.25 65.4565 44.4178 65.625 44.625 65.625H57.3748C57.5828 65.625 57.7498 65.4565 57.7498 65.2499V62.9252C61.5116 60.5741 63.7498 56.5531 63.7498 52.1248C63.7498 45.0938 58.031 39.3743 51.0001 39.3743ZM57.1814 62.3949C57.0686 62.4624 56.9998 62.5854 56.9998 62.7158V64.875H45.0002V62.7158C45.0002 62.5854 44.9313 62.4624 44.8186 62.3949C41.1754 60.1976 39.0001 56.3582 39.0001 52.1248C39.0001 45.5077 44.3834 40.1243 51.0002 40.1243C57.6165 40.1243 62.9999 45.5077 62.9999 52.1248C62.9999 56.3582 60.8245 60.1976 57.1814 62.3949Z" fill="#AA43A2"/>
<path d="M54.5446 71.6675C54.3615 71.5738 54.1374 71.647 54.0407 71.8287C54.0129 71.8813 53.3346 73.1251 51.0001 73.1251C48.6695 73.1251 47.9883 71.8857 47.959 71.8287C47.8659 71.6456 47.6426 71.5724 47.4573 71.6646C47.272 71.7568 47.1972 71.9824 47.2895 72.167C47.3246 72.2373 48.1757 73.8751 51 73.8751C53.8239 73.8751 54.6749 72.2373 54.7102 72.167C54.8024 71.9839 54.7277 71.7612 54.5446 71.6675Z" fill="#AA43A2"/>
<path d="M34.8757 51.7495H27.375C27.1677 51.7495 27 51.9169 27 52.1249C27 52.3315 27.1677 52.4999 27.375 52.4999H34.8757C35.0831 52.4999 35.2507 52.3315 35.2508 52.1249C35.2508 51.9169 35.0831 51.7495 34.8757 51.7495Z" fill="#AA43A2"/>
<path d="M74.6251 51.7495L67.1251 51.7499C66.9186 51.7499 66.7501 51.9184 66.7501 52.1249C66.7501 52.333 66.9186 52.4999 67.1251 52.4999H74.6251C74.8316 52.4999 75.0001 52.3315 75.0001 52.1249C75.0001 51.9169 74.8316 51.7495 74.6251 51.7495Z" fill="#AA43A2"/>
<path d="M37.362 59.9998C37.2587 59.8196 37.0287 59.7581 36.85 59.8621L30.3533 63.6122C30.1738 63.7162 30.1124 63.9446 30.2163 64.1249C30.2851 64.245 30.4118 64.3123 30.5407 64.3123C30.6044 64.3123 30.6689 64.2963 30.7284 64.2611L37.225 60.511C37.4044 60.4085 37.4659 60.1784 37.362 59.9998Z" fill="#AA43A2"/>
<path d="M71.7844 40.125C71.6804 39.9448 71.4503 39.8837 71.2717 39.9877L64.7779 43.7377C64.5993 43.8414 64.5377 44.0706 64.6417 44.25C64.7106 44.3706 64.8366 44.4376 64.9655 44.4376C65.03 44.4376 65.0944 44.4214 65.1529 44.3874L71.6467 40.6374C71.8268 40.5337 71.8884 40.3044 71.7844 40.125Z" fill="#AA43A2"/>
<path d="M62.9999 31.3406C62.8212 31.2385 62.5913 31.2989 62.4887 31.478L58.7401 37.9724C58.6361 38.1519 58.6977 38.3811 58.8763 38.4848C58.9365 38.5188 59.0008 38.5349 59.0639 38.5349C59.1928 38.5349 59.3203 38.4675 59.3891 38.3474L63.1377 31.853C63.2416 31.6735 63.1802 31.4442 62.9999 31.3406Z" fill="#AA43A2"/>
<path d="M51.0018 28.125C50.7944 28.125 50.6267 28.2927 50.6267 28.5V35.9987C50.6267 36.2059 50.7944 36.3736 51.0018 36.3736C51.209 36.3736 51.3767 36.2059 51.3767 35.9987V28.5C51.3767 28.2927 51.209 28.125 51.0018 28.125Z" fill="#AA43A2"/>
<path d="M43.2637 37.9709L39.5137 31.4772C39.4104 31.2967 39.1804 31.2363 39.0017 31.3398C38.8222 31.4435 38.7608 31.6727 38.8647 31.8522L42.6148 38.3459C42.6836 38.4664 42.8103 38.5334 42.9392 38.5334C43.0029 38.5334 43.0674 38.5173 43.1268 38.4832C43.3062 38.3796 43.3677 38.1504 43.2637 37.9709Z" fill="#AA43A2"/>
<path d="M71.6482 63.6108L65.153 59.8607C64.9744 59.7582 64.7445 59.8182 64.6418 59.9984C64.5378 60.1771 64.5994 60.4071 64.778 60.5097L71.2732 64.2597C71.3333 64.2948 71.3977 64.311 71.4607 64.311C71.5896 64.311 71.717 64.2436 71.7859 64.1235C71.8899 63.9433 71.8283 63.7148 71.6482 63.6108Z" fill="#AA43A2"/>
<path d="M37.2247 43.7348L30.7295 39.9862C30.5508 39.8837 30.3208 39.9448 30.2176 40.1236C30.1136 40.3029 30.1751 40.5322 30.3545 40.6359L36.8496 44.3845C36.909 44.4185 36.9735 44.4347 37.0372 44.4347C37.1661 44.4347 37.2928 44.3672 37.3617 44.2471C37.4656 44.0677 37.4042 43.8385 37.2247 43.7348Z" fill="#AA43A2"/>
<path d="M51 48.7495C48.9323 48.7495 47.2499 50.4318 47.2499 52.4999C47.2499 54.5669 48.9323 56.2499 51 56.2499C53.0679 56.2499 54.7497 54.5669 54.7497 52.4999C54.7497 50.4318 53.0679 48.7495 51 48.7495ZM51 55.5C49.3453 55.5 47.9999 54.1537 47.9999 52.4999C47.9999 50.8454 49.3454 49.4996 51 49.4996C52.6549 49.4996 53.9996 50.8454 53.9996 52.4999C53.9996 54.1537 52.6549 55.5 51 55.5Z" fill="#AA43A2"/>
<path d="M51 50.9995C50.173 50.9995 49.5 51.6727 49.5 52.4998C49.5 53.326 50.1731 53.9998 51 53.9998C51.8272 53.9998 52.4996 53.326 52.4996 52.4998C52.4996 51.6727 51.8272 50.9995 51 50.9995ZM51 53.2497C50.5861 53.2497 50.25 52.9128 50.25 52.4998C50.25 52.0853 50.5862 51.7494 51 51.7494C51.4139 51.7494 51.7496 52.0853 51.7496 52.4998C51.7496 52.9128 51.414 53.2497 51 53.2497Z" fill="#AA43A2"/>
<path d="M58.5014 50.2498H58.2304C57.9243 50.2498 57.6957 50.0912 57.6694 50.0271C57.5787 49.7679 57.586 49.0955 57.706 48.9754L57.895 48.7863C58.106 48.5747 58.2231 48.292 58.2231 47.9909C58.2231 47.6899 58.106 47.4071 57.895 47.1955L56.3042 45.6046C55.8809 45.1812 55.1367 45.1808 54.7134 45.605L54.5244 45.7939C54.3603 45.9565 54.145 46.0328 53.9722 46.0367C53.7247 45.918 53.2514 45.4394 53.2499 45.2691V44.9996C53.2499 44.3792 52.746 43.8745 52.125 43.8745H49.8753C49.2549 43.8745 48.7503 44.3792 48.7503 44.9996V45.2691C48.7503 45.576 48.5913 45.8049 48.5269 45.8305C48.4573 45.855 48.2419 45.8913 48.0017 45.8913C47.6523 45.8913 47.5014 45.8194 47.4765 45.7942L47.2875 45.6053C46.8641 45.1819 46.1201 45.1819 45.6967 45.6053L44.1058 47.1968C43.6671 47.6356 43.6671 48.349 44.1058 48.7876L44.294 48.9759C44.5101 49.1916 44.562 49.4652 44.5364 49.5289C44.4214 49.7695 43.9358 50.2481 43.7696 50.2496H43.4993C42.8789 50.2496 42.3743 50.7543 42.3743 51.3746L42.375 53.625C42.375 54.2446 42.8797 54.75 43.5 54.75H43.7696C44.0757 54.75 44.305 54.9081 44.3306 54.9726C44.4207 55.2319 44.4147 55.9043 44.2947 56.0244L44.1057 56.2133C43.894 56.4244 43.7775 56.7071 43.7775 57.0088C43.7775 57.3092 43.8941 57.5918 44.1057 57.8043L45.6966 59.3936C46.12 59.8169 46.8641 59.8169 47.2874 59.3936L47.4764 59.2046C47.639 59.0419 47.85 58.9556 48.0279 58.9614C48.2754 59.0815 48.7486 59.5605 48.7501 59.7304V60C48.7501 60.6196 49.2547 61.125 49.8751 61.125H52.1248C52.7459 61.125 53.2498 60.6196 53.2499 60.0003V59.7307C53.2499 59.4231 53.4096 59.1947 53.4727 59.1697C53.5429 59.1448 53.7582 59.1082 53.9984 59.1082C54.3485 59.1082 54.498 59.1799 54.5229 59.2049L54.7133 59.3952C55.1366 59.8186 55.8808 59.8186 56.3041 59.3952L57.895 57.803C58.1059 57.5919 58.223 57.3093 58.223 57.0075C58.223 56.7072 58.1059 56.4245 57.895 56.212L57.7059 56.0231C57.4906 55.8077 57.4378 55.5352 57.4627 55.4723C57.5815 55.2248 58.0605 54.7516 58.2304 54.7501H58.5014C59.1211 54.7501 59.6265 54.2447 59.6265 53.6252V51.3748C59.6265 50.7544 59.1211 50.2498 58.5014 50.2498ZM58.8763 53.6249C58.8763 53.8314 58.7079 53.9998 58.5013 53.9998H58.2303C57.5711 53.9998 56.8987 54.9125 56.7859 55.1469C56.5719 55.5951 56.8268 56.206 57.1755 56.5531L57.3645 56.7421C57.4348 56.8124 57.4729 56.9062 57.4729 57.0072C57.4729 57.1082 57.4348 57.2021 57.3645 57.2723L55.7737 58.8647C55.633 59.0053 55.384 59.0053 55.2435 58.8647L55.053 58.6743C54.8436 58.4649 54.4891 58.3578 53.9983 58.3578C53.7083 58.3578 53.4051 58.3989 53.2249 58.4604C52.8117 58.6055 52.4998 59.1518 52.4998 59.7304V60C52.4998 60.2065 52.3313 60.375 52.1248 60.375H49.8751C49.6685 60.375 49.5001 60.2065 49.5001 60V59.7304C49.5001 59.0698 48.5868 58.3988 48.3524 58.286C48.244 58.2333 48.1202 58.2069 47.9847 58.2069C47.6324 58.2069 47.234 58.3871 46.9461 58.674L46.7572 58.863C46.6166 59.0036 46.3676 59.0036 46.2269 58.863L44.6361 57.2736C44.5658 57.2034 44.5277 57.1096 44.5277 57.0085C44.5277 56.9075 44.5658 56.8138 44.6361 56.7434L44.8251 56.5544C45.2975 56.0812 45.1276 54.9797 45.0397 54.7263C44.8954 54.3117 44.349 53.9997 43.7697 53.9997H43.5001C43.2936 53.9997 43.1251 53.8313 43.1251 53.6248L43.1244 51.3744C43.1244 51.1675 43.2929 50.9994 43.4994 50.9994H43.7697C44.4318 50.9994 45.102 50.0853 45.2133 49.8517C45.4008 49.4592 45.2338 48.8545 44.8244 48.4455L44.6361 48.2572C44.4896 48.1111 44.4896 47.873 44.6361 47.7269L46.2269 46.1354C46.3676 45.9948 46.6166 45.9948 46.7572 46.1354L46.9461 46.3244C47.1564 46.5346 47.5116 46.6412 48.0016 46.6412C48.2931 46.6412 48.5963 46.6009 48.7743 46.5387C49.1881 46.3936 49.5001 45.8479 49.5001 45.2689V44.9994C49.5001 44.7924 49.6685 44.6243 49.8751 44.6243H52.1249C52.3314 44.6243 52.4999 44.7924 52.4999 44.9994V45.2689C52.4999 45.9296 53.4139 46.6009 53.6483 46.7125C54.0394 46.9018 54.6561 46.7227 55.0545 46.3239L55.2436 46.135C55.3841 45.9943 55.6331 45.9951 55.7738 46.1346L57.3646 47.7254C57.4349 47.7957 57.473 47.8898 57.473 47.9906C57.473 48.0913 57.4349 48.1854 57.3646 48.2557L57.1756 48.4447C56.7098 48.9109 56.8768 50.0293 56.9602 50.2729C57.1053 50.6871 57.6502 50.9995 58.2303 50.9995H58.5013C58.7079 50.9995 58.8763 51.1676 58.8763 51.3745V53.6249Z" fill="#AA43A2"/>
<path d="M51.0005 46.8745C47.8986 46.8745 45.3753 49.3977 45.3753 52.4999C45.3753 52.7065 45.5431 52.8749 45.7503 52.8749C45.9576 52.8749 46.1253 52.7065 46.1254 52.4999C46.1254 49.8116 48.3125 47.6245 51.0005 47.6245C51.2077 47.6245 51.3755 47.4567 51.3755 47.2495C51.3755 47.0423 51.2077 46.8745 51.0005 46.8745Z" fill="#AA43A2"/>
<path d="M56.2501 52.1248C56.0436 52.1248 55.8751 52.2918 55.8751 52.4997C55.8751 55.1877 53.688 57.3748 51.0004 57.3748C50.7931 57.3748 50.6253 57.5418 50.6253 57.7498C50.6253 57.9564 50.7931 58.1248 51.0004 58.1248C54.1025 58.1248 56.625 55.6009 56.625 52.4997C56.625 52.2918 56.4581 52.1248 56.2501 52.1248Z" fill="#AA43A2"/>
</g>
<defs>
<clipPath id="clip0">
<rect width="48" height="48" fill="white" transform="translate(27 27)"/>
</clipPath>
</defs>
</svg>
